<?xml version="1.0" encoding="UTF-8"?>
<svg version="1.1" xmlns="http://www.w3.org/2000/svg" width="250" height="69">
<path d="M0 0 C0.93779297 0.00644531 1.87558594 0.01289062 2.84179688 0.01953125 C4.30649414 0.04466797 4.30649414 0.04466797 5.80078125 0.0703125 C6.78884766 0.07933594 7.77691406 0.08835938 8.79492188 0.09765625 C11.2346189 0.1212282 13.67382822 0.15413228 16.11328125 0.1953125 C16.11328125 2.8353125 16.11328125 5.4753125 16.11328125 8.1953125 C13.80328125 7.8653125 11.49328125 7.5353125 9.11328125 7.1953125 C9.11328125 6.8653125 9.11328125 6.5353125 9.11328125 6.1953125 C-0.1435869 4.29391797 -0.1435869 4.29391797 -8.8515625 7.00390625 C-13.68067259 12.02085855 -15.88771452 16.37834058 -15.984375 23.359375 C-15.95214844 23.96523438 -15.91992188 24.57109375 -15.88671875 25.1953125 C-17.53671875 25.5253125 -19.18671875 25.8553125 -20.88671875 26.1953125 C-20.88671875 26.8553125 -20.88671875 27.5153125 -20.88671875 28.1953125 C-22.84360912 28.55736714 -24.80229543 28.90972671 -26.76171875 29.2578125 C-27.85226563 29.45503906 -28.9428125 29.65226562 -30.06640625 29.85546875 C-32.88671875 30.1953125 -32.88671875 30.1953125 -34.88671875 29.1953125 C-36.7605148 29.12497481 -38.63672977 29.1110103 -40.51171875 29.1328125 C-42.01605469 29.14634766 -42.01605469 29.14634766 -43.55078125 29.16015625 C-44.32164063 29.17175781 -45.0925 29.18335937 -45.88671875 29.1953125 C-45.55671875 31.5053125 -45.22671875 33.8153125 -44.88671875 36.1953125 C-46.37171875 36.6903125 -46.37171875 36.6903125 -47.88671875 37.1953125 C-48.38171875 39.6703125 -48.38171875 39.6703125 -48.88671875 42.1953125 C-47.72100342 42.21513184 -46.55528809 42.23495117 -45.35424805 42.25537109 C-41.0322497 42.33140209 -36.71058913 42.42012326 -32.38891602 42.51269531 C-30.51789007 42.55099544 -28.64679022 42.5858465 -26.77563477 42.6171875 C-24.08713356 42.66281574 -21.39914152 42.72081338 -18.7109375 42.78125 C-17.87334396 42.79280121 -17.03575043 42.80435242 -16.17277527 42.81625366 C-11.02721349 42.94723365 -8.64305214 43.64560657 -4.76171875 47.0703125 C-2.88671875 49.1953125 -2.88671875 49.1953125 -2.57421875 51.1953125 C-1.21067378 55.16198877 3.55534036 56.41634205 7.11328125 58.1953125 C8.4418905 58.54700318 9.77486453 58.88301526 11.11328125 59.1953125 C11.11328125 56.8853125 11.11328125 54.5753125 11.11328125 52.1953125 C9.79328125 51.5353125 8.47328125 50.8753125 7.11328125 50.1953125 C7.44328125 48.5453125 7.77328125 46.8953125 8.11328125 45.1953125 C6.62828125 44.7003125 6.62828125 44.7003125 5.11328125 44.1953125 C5.44328125 42.5453125 5.77328125 40.8953125 6.11328125 39.1953125 C8.9373989 38.25393995 10.64246157 38.07805868 13.5625 38.09765625 C14.41005859 38.10087891 15.25761719 38.10410156 16.13085938 38.10742188 C17.01193359 38.11580078 17.89300781 38.12417969 18.80078125 38.1328125 C19.69345703 38.13732422 20.58613281 38.14183594 21.50585938 38.14648438 C23.70840112 38.15826267 25.91080724 38.17471086 28.11328125 38.1953125 C27.78328125 40.5053125 27.45328125 42.8153125 27.11328125 45.1953125 C26.78328125 45.1953125 26.45328125 45.1953125 26.11328125 45.1953125 C25.78328125 47.1753125 25.45328125 49.1553125 25.11328125 51.1953125 C23.46328125 50.8653125 21.81328125 50.5353125 20.11328125 50.1953125 C20.11328125 47.2253125 20.11328125 44.2553125 20.11328125 41.1953125 C18.13328125 42.1853125 18.13328125 42.1853125 16.11328125 43.1953125 C16.62890625 43.9790625 17.14453125 44.7628125 17.67578125 45.5703125 C18.15015625 46.4365625 18.62453125 47.3028125 19.11328125 48.1953125 C18.44661458 49.52864583 17.77994792 50.86197917 17.11328125 52.1953125 C16.75408804 54.19083032 16.41831556 56.19080129 16.11328125 58.1953125 C17.90486614 58.22227615 19.69656598 58.24169167 21.48828125 58.2578125 C22.98488281 58.27521484 22.98488281 58.27521484 24.51171875 58.29296875 C27.09760578 58.37537852 27.09760578 58.37537852 29.11328125 57.1953125 C31.11328125 59.1953125 31.11328125 59.1953125 31.30859375 61.140625 C31.24348958 63.15885417 31.17838542 65.17708333 31.11328125 67.1953125 C29.79328125 67.1953125 28.47328125 67.1953125 27.11328125 67.1953125 C27.11328125 66.5353125 27.11328125 65.8753125 27.11328125 65.1953125 C26.11167969 65.4840625 25.11007813 65.7728125 24.078125 66.0703125 C22.73580928 66.44578543 21.39335376 66.82075881 20.05078125 67.1953125 C19.39400391 67.38609375 18.73722656 67.576875 18.06054688 67.7734375 C13.64587945 68.99127679 9.73386448 69.38758644 5.11328125 69.1953125 C5.44328125 67.2153125 5.77328125 65.2353125 6.11328125 63.1953125 C3.46099313 62.12006056 0.82959671 61.10075099 -1.88671875 60.1953125 C-2.94921875 58.2578125 -2.94921875 58.2578125 -3.88671875 56.1953125 C-4.54671875 55.5353125 -5.20671875 54.8753125 -5.88671875 54.1953125 C-5.88671875 52.8753125 -5.88671875 51.5553125 -5.88671875 50.1953125 C-6.52343002 50.18500504 -7.1601413 50.17469757 -7.81614685 50.16407776 C-14.41798673 50.05624919 -21.01968353 49.94163289 -27.62133789 49.82299805 C-30.08810444 49.77957307 -32.55490253 49.73790378 -35.02172852 49.69799805 C-38.55885341 49.64047805 -42.09581841 49.57673175 -45.6328125 49.51171875 C-47.29841469 49.48665001 -47.29841469 49.48665001 -48.99766541 49.46107483 C-50.52913963 49.431157 -50.52913963 49.431157 -52.09155273 49.40063477 C-53.4472361 49.37731834 -53.4472361 49.37731834 -54.83030701 49.35353088 C-56.88671875 49.1953125 -56.88671875 49.1953125 -57.88671875 48.1953125 C-58.26171875 45.3828125 -58.26171875 45.3828125 -57.88671875 42.1953125 C-55.51171875 39.8203125 -55.51171875 39.8203125 -52.88671875 38.1953125 C-52.22671875 38.1953125 -51.56671875 38.1953125 -50.88671875 38.1953125 C-50.32990428 35.2024347 -49.87310109 32.49490095 -50.01171875 29.4453125 C-49.97046875 28.7028125 -49.92921875 27.9603125 -49.88671875 27.1953125 C-46.5882537 24.9963358 -45.75828873 24.97689165 -41.95703125 25.10546875 C-40.99667969 25.12544922 -40.03632812 25.14542969 -39.046875 25.16601562 C-37.03112058 25.22698117 -35.01548599 25.29205396 -33 25.36132812 C-28.82551096 25.44235904 -25.62168748 25.47654137 -21.69140625 23.97265625 C-19.68854467 22.35830251 -19.68854467 22.35830251 -19.57421875 20.0390625 C-19.72890625 18.87890625 -19.72890625 18.87890625 -19.88671875 17.6953125 C-20.03125 15.265625 -20.03125 15.265625 -19.88671875 13.1953125 C-17.57421875 11.5703125 -17.57421875 11.5703125 -14.88671875 10.1953125 C-13.88186992 7.86406321 -12.88149628 5.53087713 -11.88671875 3.1953125 C-9.88671875 2.3828125 -9.88671875 2.3828125 -7.88671875 2.1953125 C-4.63281887 0.02604591 -3.75275918 -0.04548799 0 0 Z M-3.88671875 3.1953125 C-3.88671875 3.5253125 -3.88671875 3.8553125 -3.88671875 4.1953125 C1.06328125 4.1953125 6.01328125 4.1953125 11.11328125 4.1953125 C11.11328125 3.8653125 11.11328125 3.5353125 11.11328125 3.1953125 C6.16328125 3.1953125 1.21328125 3.1953125 -3.88671875 3.1953125 Z M6.11328125 41.1953125 C7.11328125 43.1953125 7.11328125 43.1953125 7.11328125 43.1953125 Z M-54.88671875 43.1953125 C-54.55671875 44.1853125 -54.22671875 45.1753125 -53.88671875 46.1953125 C-53.55671875 45.2053125 -53.22671875 44.2153125 -52.88671875 43.1953125 C-53.54671875 43.1953125 -54.20671875 43.1953125 -54.88671875 43.1953125 Z M14.11328125 51.1953125 C13.78328125 54.4953125 13.45328125 57.7953125 13.11328125 61.1953125 C13.77328125 61.1953125 14.43328125 61.1953125 15.11328125 61.1953125 C15.11328125 57.8953125 15.11328125 54.5953125 15.11328125 51.1953125 C14.78328125 51.1953125 14.45328125 51.1953125 14.11328125 51.1953125 Z M16.11328125 59.1953125 C16.11328125 59.5253125 16.11328125 59.8553125 16.11328125 60.1953125 C18.09328125 60.1953125 20.07328125 60.1953125 22.11328125 60.1953125 C22.11328125 59.8653125 22.11328125 59.5353125 22.11328125 59.1953125 C20.13328125 59.1953125 18.15328125 59.1953125 16.11328125 59.1953125 Z M17.11328125 63.1953125 C21.11328125 64.1953125 21.11328125 64.1953125 21.11328125 64.1953125 Z " fill="#007479" transform="translate(57.88671875,-0.1953125)"/>
<path d="M0 0 C1.375 1.9375 1.375 1.9375 2 4 C2.66 4.66 3.32 5.32 4 6 C4.37109375 8.20703125 4.37109375 8.20703125 4.4375 10.8125 C4.49744141 12.09060547 4.49744141 12.09060547 4.55859375 13.39453125 C3.70917873 17.35648801 2.30421948 18.67296823 -1 21 C-4.46238854 21.59426021 -7.81280487 21.47326338 -11.3125 21.3125 C-12.24384766 21.28994141 -13.17519531 21.26738281 -14.13476562 21.24414062 C-16.4248396 21.18542078 -18.71157875 21.10336858 -21 21 C-21 19.35 -21 17.7 -21 16 C-21.33 17.65 -21.66 19.3 -22 21 C-23.65 21 -25.3 21 -27 21 C-28.2062252 17.38132441 -28.10816918 14.07493749 -28.0625 10.3125 C-28.05798828 9.61060547 -28.05347656 8.90871094 -28.04882812 8.18554688 C-28.03706927 6.45699462 -28.01913454 4.72848635 -28 3 C-23.52236924 1.0150709 -20.82315213 0.74955315 -16 2 C-14.0625 4.0625 -14.0625 4.0625 -13 6 C-12.731875 5.030625 -12.46375 4.06125 -12.1875 3.0625 C-11.795625 2.051875 -11.40375 1.04125 -11 0 C-7.12664518 -1.29111827 -3.92269484 -1.12320112 0 0 Z M-22 6 C-22 7.32 -22 8.64 -22 10 C-21.01 10 -20.02 10 -19 10 C-19 8.68 -19 7.36 -19 6 C-19.99 6 -20.98 6 -22 6 Z M-6 6 C-6 9.63 -6 13.26 -6 17 C-5.01 16.67 -4.02 16.34 -3 16 C-3.66 16 -4.32 16 -5 16 C-5 13.03 -5 10.06 -5 7 C-4.34 6.67 -3.68 6.34 -3 6 C-3.99 6 -4.98 6 -6 6 Z M-4 8 C-4 9.98 -4 11.96 -4 14 C-3.67 14 -3.34 14 -3 14 C-3 12.02 -3 10.04 -3 8 C-3.33 8 -3.66 8 -4 8 Z M-2 8 C-2 9.98 -2 11.96 -2 14 C-1.67 14 -1.34 14 -1 14 C-1 12.02 -1 10.04 -1 8 C-1.33 8 -1.66 8 -2 8 Z M-14 10 C-14.66 11.65 -15.32 13.3 -16 15 C-14.68 16.32 -13.36 17.64 -12 19 C-12 16.36 -12 13.72 -12 11 C-12.66 10.67 -13.32 10.34 -14 10 Z " fill="#006B9C" transform="translate(227,7)"/>
<path d="M0 0 C0.84755859 0.00322266 1.69511719 0.00644531 2.56835938 0.00976562 C3.44943359 0.01814453 4.33050781 0.02652344 5.23828125 0.03515625 C6.57729492 0.04192383 6.57729492 0.04192383 7.94335938 0.04882812 C10.14590112 0.06060642 12.34830724 0.07705461 14.55078125 0.09765625 C14.22078125 2.40765625 13.89078125 4.71765625 13.55078125 7.09765625 C13.22078125 7.09765625 12.89078125 7.09765625 12.55078125 7.09765625 C12.22078125 9.07765625 11.89078125 11.05765625 11.55078125 13.09765625 C9.07578125 12.60265625 9.07578125 12.60265625 6.55078125 12.09765625 C6.55078125 9.12765625 6.55078125 6.15765625 6.55078125 3.09765625 C4.57078125 4.08765625 4.57078125 4.08765625 2.55078125 5.09765625 C3.06640625 5.88140625 3.58203125 6.66515625 4.11328125 7.47265625 C4.58765625 8.33890625 5.06203125 9.20515625 5.55078125 10.09765625 C4.88411458 11.43098958 4.21744792 12.76432292 3.55078125 14.09765625 C3.19158804 16.09317407 2.85581556 18.09314504 2.55078125 20.09765625 C4.34236614 20.1246199 6.13406598 20.14403542 7.92578125 20.16015625 C9.42238281 20.17755859 9.42238281 20.17755859 10.94921875 20.1953125 C13.53510578 20.27772227 13.53510578 20.27772227 15.55078125 19.09765625 C17.55078125 21.09765625 17.55078125 21.09765625 17.74609375 23.04296875 C17.68098958 25.06119792 17.61588542 27.07942708 17.55078125 29.09765625 C16.23078125 29.09765625 14.91078125 29.09765625 13.55078125 29.09765625 C13.55078125 28.43765625 13.55078125 27.77765625 13.55078125 27.09765625 C12.04837891 27.53078125 12.04837891 27.53078125 10.515625 27.97265625 C9.17330928 28.34812918 7.83085376 28.72310256 6.48828125 29.09765625 C5.83150391 29.2884375 5.17472656 29.47921875 4.49804688 29.67578125 C0.08337945 30.89362054 -3.82863552 31.28993019 -8.44921875 31.09765625 C-8.11921875 29.11765625 -7.78921875 27.13765625 -7.44921875 25.09765625 C-10.10150687 24.02240431 -12.73290329 23.00309474 -15.44921875 22.09765625 C-16.51171875 20.16015625 -16.51171875 20.16015625 -17.44921875 18.09765625 C-18.10921875 17.43765625 -18.76921875 16.77765625 -19.44921875 16.09765625 C-19.57421875 13.47265625 -19.57421875 13.47265625 -19.44921875 11.09765625 C-18.45921875 11.09765625 -17.46921875 11.09765625 -16.44921875 11.09765625 C-16.41828125 11.96390625 -16.41828125 11.96390625 -16.38671875 12.84765625 C-14.66913474 16.96985788 -10.30386355 18.17033385 -6.44921875 20.09765625 C-5.1206095 20.44934693 -3.78763547 20.78535901 -2.44921875 21.09765625 C-2.44921875 18.78765625 -2.44921875 16.47765625 -2.44921875 14.09765625 C-3.76921875 13.43765625 -5.08921875 12.77765625 -6.44921875 12.09765625 C-6.11921875 10.44765625 -5.78921875 8.79765625 -5.44921875 7.09765625 C-6.43921875 6.76765625 -7.42921875 6.43765625 -8.44921875 6.09765625 C-8.11921875 4.44765625 -7.78921875 2.79765625 -7.44921875 1.09765625 C-4.6251011 0.1562837 -2.92003843 -0.01959757 0 0 Z M-7.44921875 3.09765625 C-6.44921875 5.09765625 -6.44921875 5.09765625 -6.44921875 5.09765625 Z M0.55078125 13.09765625 C0.22078125 16.39765625 -0.10921875 19.69765625 -0.44921875 23.09765625 C0.21078125 23.09765625 0.87078125 23.09765625 1.55078125 23.09765625 C1.55078125 19.79765625 1.55078125 16.49765625 1.55078125 13.09765625 C1.22078125 13.09765625 0.89078125 13.09765625 0.55078125 13.09765625 Z M2.55078125 21.09765625 C2.55078125 21.42765625 2.55078125 21.75765625 2.55078125 22.09765625 C4.53078125 22.09765625 6.51078125 22.09765625 8.55078125 22.09765625 C8.55078125 21.76765625 8.55078125 21.43765625 8.55078125 21.09765625 C6.57078125 21.09765625 4.59078125 21.09765625 2.55078125 21.09765625 Z M3.55078125 25.09765625 C7.55078125 26.09765625 7.55078125 26.09765625 7.55078125 26.09765625 Z " fill="#006FA1" transform="translate(71.44921875,37.90234375)"/>
<path d="M0 0 C1.32 0 2.64 0 4 0 C4.66 0.66 5.32 1.32 6 2 C6.33 1.34 6.66 0.68 7 0 C9.12472576 -0.05386629 11.24983652 -0.09273071 13.375 -0.125 C14.55835937 -0.14820312 15.74171875 -0.17140625 16.9609375 -0.1953125 C20 0 20 0 22 2 C22.66 1.34 23.32 0.68 24 0 C27.5 -0.25 27.5 -0.25 31 0 C33 2 33 2 33.125 5.625 C33.08375 6.73875 33.0425 7.8525 33 9 C33.33 6.03 33.66 3.06 34 0 C37.63 0 41.26 0 45 0 C44 4 44 4 43 7 C43.95298777 8.36733028 44.95374591 9.70264493 46 11 C46 11.66 46 12.32 46 13 C43.625 13.125 43.625 13.125 41 13 C40.34 12.34 39.68 11.68 39 11 C38.67 11.66 38.34 12.32 38 13 C28.66666667 13 19.33333333 13 10 13 C9.01 13.33 8.02 13.66 7 14 C5.33378384 14.03874921 3.66605828 14.0450286 2 14 C2.06510417 12.01432292 2.13020833 10.02864583 2.1953125 8.04296875 C2.13254462 5.68640281 2.13254462 5.68640281 0 3 C0 2.01 0 1.02 0 0 Z M15 4 C15 5.65 15 7.3 15 9 C15.99 9 16.98 9 18 9 C18 7.35 18 5.7 18 4 C17.01 4 16.02 4 15 4 Z M9 5 C7.64560332 7.70879335 7.93498549 10.00933268 8 13 C9.42944945 10.64561267 10.08661261 9.51967567 9.625 6.75 C9.41875 6.1725 9.2125 5.595 9 5 Z " fill="#006EA1" transform="translate(65,23)"/>
<path d="M0 0 C0.99 0.33 1.98 0.66 3 1 C3 2.32 3 3.64 3 5 C3.66 5 4.32 5 5 5 C5.33 3.35 5.66 1.7 6 0 C6.99 0.33 7.98 0.66 9 1 C9.33 1.99 9.66 2.98 10 4 C11.32 3.34 12.64 2.68 14 2 C15.34110539 4.20887947 16.06609767 5.45469419 15.75 8.0625 C14.30048756 11.80707379 11.83213987 14.2622648 9 17 C8.34 16.34 7.68 15.68 7 15 C7 15.33 7 15.66 7 16 C4.69 16 2.38 16 0 16 C-0.33 12.7 -0.66 9.4 -1 6 C-1 7.32 -1 8.64 -1 10 C-1 12 -1 14 -1 16 C-3.97 16 -6.94 16 -10 16 C-10 11.38 -10 6.76 -10 2 C-6.7 2 -3.4 2 0 2 C0 1.34 0 0.68 0 0 Z " fill="#006E9F" transform="translate(88,6)"/>
<path d="M0 0 C0.93779297 0.00644531 1.87558594 0.01289062 2.84179688 0.01953125 C4.30649414 0.04466797 4.30649414 0.04466797 5.80078125 0.0703125 C6.78884766 0.07933594 7.77691406 0.08835938 8.79492188 0.09765625 C11.2346189 0.1212282 13.67382822 0.15413228 16.11328125 0.1953125 C16.11328125 2.8353125 16.11328125 5.4753125 16.11328125 8.1953125 C13.80328125 7.8653125 11.49328125 7.5353125 9.11328125 7.1953125 C9.11328125 6.8653125 9.11328125 6.5353125 9.11328125 6.1953125 C-0.1435869 4.29391797 -0.1435869 4.29391797 -8.8515625 7.00390625 C-13.68067259 12.02085855 -15.88771452 16.37834058 -15.984375 23.359375 C-15.95214844 23.96523438 -15.91992188 24.57109375 -15.88671875 25.1953125 C-17.53671875 25.5253125 -19.18671875 25.8553125 -20.88671875 26.1953125 C-20.88671875 26.8553125 -20.88671875 27.5153125 -20.88671875 28.1953125 C-22.84360912 28.55736714 -24.80229543 28.90972671 -26.76171875 29.2578125 C-27.85226563 29.45503906 -28.9428125 29.65226562 -30.06640625 29.85546875 C-32.88671875 30.1953125 -32.88671875 30.1953125 -34.88671875 29.1953125 C-37.44753517 28.96172452 -40.00676909 28.81368181 -42.57421875 28.671875 C-44.88671875 28.1953125 -44.88671875 28.1953125 -46.88671875 25.1953125 C-46.24645752 25.21102295 -45.60619629 25.2267334 -44.9465332 25.24291992 C-42.03085244 25.30548365 -39.1153132 25.34437058 -36.19921875 25.3828125 C-35.19181641 25.40794922 -34.18441406 25.43308594 -33.14648438 25.45898438 C-28.93516509 25.50068061 -25.63956746 25.48416432 -21.6796875 23.96484375 C-19.68848293 22.35574864 -19.68848293 22.35574864 -19.57421875 20.0390625 C-19.67734375 19.265625 -19.78046875 18.4921875 -19.88671875 17.6953125 C-20.03125 15.265625 -20.03125 15.265625 -19.88671875 13.1953125 C-17.57421875 11.5703125 -17.57421875 11.5703125 -14.88671875 10.1953125 C-13.88186992 7.86406321 -12.88149628 5.53087713 -11.88671875 3.1953125 C-9.88671875 2.3828125 -9.88671875 2.3828125 -7.88671875 2.1953125 C-4.63281887 0.02604591 -3.75275918 -0.04548799 0 0 Z M-3.88671875 3.1953125 C-3.88671875 3.5253125 -3.88671875 3.8553125 -3.88671875 4.1953125 C1.06328125 4.1953125 6.01328125 4.1953125 11.11328125 4.1953125 C11.11328125 3.8653125 11.11328125 3.5353125 11.11328125 3.1953125 C6.16328125 3.1953125 1.21328125 3.1953125 -3.88671875 3.1953125 Z " fill="#006EA2" transform="translate(57.88671875,-0.1953125)"/>
<path d="M0 0 C5 0 5 0 6.58203125 1.53125 C6.98808594 2.1809375 7.39414063 2.830625 7.8125 3.5 C8.23144531 4.1496875 8.65039062 4.799375 9.08203125 5.46875 C9.38496094 5.9740625 9.68789062 6.479375 10 7 C10.33 4.69 10.66 2.38 11 0 C12.65 0 14.3 0 16 0 C16 6.27 16 12.54 16 19 C11 19 11 19 9.1875 17.5 C8.5996875 16.7575 8.5996875 16.7575 8 16 C7.34 16.99 6.68 17.98 6 19 C6 16.36 6 13.72 6 11 C5.67 13.64 5.34 16.28 5 19 C3.35 19 1.7 19 0 19 C0 12.73 0 6.46 0 0 Z " fill="#006FA4" transform="translate(136,9)"/>
<path d="M0 0 C8.57142857 -0.28571429 8.57142857 -0.28571429 12 2 C11.67 3.32 11.34 4.64 11 6 C8.69 5.67 6.38 5.34 4 5 C4 5.66 4 6.32 4 7 C5.6396875 7.4021875 5.6396875 7.4021875 7.3125 7.8125 C12.59018659 9.51209399 12.59018659 9.51209399 14 12 C14.2368445 14.71832893 14.13474513 17.26018235 14 20 C11.89611431 20.05402274 9.79183286 20.09280256 7.6875 20.125 C6.51574219 20.14820312 5.34398437 20.17140625 4.13671875 20.1953125 C1 20 1 20 -2 18 C-1.34 15.69 -0.68 13.38 0 11 C-1.32 10.34 -2.64 9.68 -4 9 C-3.67 8.01 -3.34 7.02 -3 6 C-2.34 6 -1.68 6 -1 6 C-0.67 4.02 -0.34 2.04 0 0 Z M7 14 C6.01 14.66 5.02 15.32 4 16 C5.32 16 6.64 16 8 16 C7.67 15.34 7.34 14.68 7 14 Z " fill="#006D9F" transform="translate(171,8)"/>
<path d="M0 0 C3.04386724 -0.08226668 5.07175348 0.02391783 8 1 C8.12117188 1.66386719 8.24234375 2.32773438 8.3671875 3.01171875 C9.23228568 7.57012071 10.1820262 11.71477604 12 16 C12 16.99 12 17.98 12 19 C9.69 19 7.38 19 5 19 C5 18.34 5 17.68 5 17 C3.35 17.33 1.7 17.66 0 18 C-0.33 17.01 -0.66 16.02 -1 15 C-1.33 16.32 -1.66 17.64 -2 19 C-3.65 19 -5.3 19 -7 19 C-7.33 18.01 -7.66 17.02 -8 16 C-7.34 16 -6.68 16 -6 16 C-5.81824219 15.43152344 -5.63648438 14.86304688 -5.44921875 14.27734375 C-3.85915366 9.39298997 -2.09540222 4.68970973 0 0 Z M7 4 C8 6 8 6 8 6 Z M2 8 C1.67 8.99 1.34 9.98 1 11 C1.99 10.67 2.98 10.34 4 10 C3.34 9.34 2.68 8.68 2 8 Z " fill="#006EA2" transform="translate(238,9)"/>
<path d="M0 0 C0.99 0 1.98 0 3 0 C3 22.44 3 44.88 3 68 C2.01 68 1.02 68 0 68 C0 45.56 0 23.12 0 0 Z " fill="#006FA2" transform="translate(125,1)"/>
<path d="M0 0 C0.87454834 0.00523682 1.74909668 0.01047363 2.65014648 0.01586914 C3.59438477 0.0190918 4.53862305 0.02231445 5.51147461 0.02563477 C6.50469727 0.03401367 7.49791992 0.04239258 8.52124023 0.05102539 C9.51833008 0.05553711 10.51541992 0.06004883 11.54272461 0.06469727 C14.01478872 0.07652532 16.48673541 0.0930069 18.95874023 0.11352539 C18.95874023 1.10352539 18.95874023 2.09352539 18.95874023 3.11352539 C17.96874023 3.44352539 16.97874023 3.77352539 15.95874023 4.11352539 C15.95874023 5.43352539 15.95874023 6.75352539 15.95874023 8.11352539 C16.61874023 8.44352539 17.27874023 8.77352539 17.95874023 9.11352539 C17.95874023 10.43352539 17.95874023 11.75352539 17.95874023 13.11352539 C14.98874023 13.11352539 12.01874023 13.11352539 8.95874023 13.11352539 C8.62874023 9.81352539 8.29874023 6.51352539 7.95874023 3.11352539 C6.96874023 3.11352539 5.97874023 3.11352539 4.95874023 3.11352539 C4.95874023 6.41352539 4.95874023 9.71352539 4.95874023 13.11352539 C3.63874023 13.11352539 2.31874023 13.11352539 0.95874023 13.11352539 C0.77311523 11.99977539 0.77311523 11.99977539 0.58374023 10.86352539 C-0.00115912 8.28996823 -0.80928753 6.42347333 -2.04125977 4.11352539 C-2.37125977 3.12352539 -2.70125977 2.13352539 -3.04125977 1.11352539 C-2.04125977 0.11352539 -2.04125977 0.11352539 0 0 Z " fill="#006EA3" transform="translate(97.041259765625,37.886474609375)"/>
<path d="M0 0 C3.96 0 7.92 0 12 0 C12 1.32 12 2.64 12 4 C9.69 4 7.38 4 5 4 C5 4.99 5 5.98 5 7 C6.65 7 8.3 7 10 7 C10 8.32 10 9.64 10 11 C8.35 11 6.7 11 5 11 C5 12.32 5 13.64 5 15 C7.31 15 9.62 15 12 15 C12 16.32 12 17.64 12 19 C8.04 19 4.08 19 0 19 C0 12.73 0 6.46 0 0 Z " fill="#0070A3" transform="translate(186,9)"/>
<path d="M0 0 C5 0 5 0 7.3125 2 C8.1478125 2.99 8.1478125 2.99 9 4 C9.66 2.68 10.32 1.36 11 0 C12.98 0 14.96 0 17 0 C16.01461122 2.65296979 15.05762201 4.91702431 13.4375 7.25 C11.44507706 11.06159171 11.26826514 14.7540104 11 19 C9.35 19 7.7 19 6 19 C5.87882813 18.30132813 5.75765625 17.60265625 5.6328125 16.8828125 C5.46523437 15.97273438 5.29765625 15.06265625 5.125 14.125 C4.96257812 13.22007813 4.80015625 12.31515625 4.6328125 11.3828125 C4.16955297 8.83494012 4.16955297 8.83494012 2 7 C1.67 10.96 1.34 14.92 1 19 C0.67 19 0.34 19 0 19 C0 12.73 0 6.46 0 0 Z " fill="#0070A2" transform="translate(153,9)"/>
<path d="M0 0 C0.33 0 0.66 0 1 0 C1.99862699 7.36487404 2.10331031 14.57313685 2 22 C-0.86724686 21.42655063 -1.8614515 21.1385485 -4 19 C-4.66 20.32 -5.32 21.64 -6 23 C-6.99 22.67 -7.98 22.34 -9 22 C-9 17.71 -9 13.42 -9 9 C-7.68 9 -6.36 9 -5 9 C-4.34 9.66 -3.68 10.32 -3 11 C-1.06604999 8.09907498 -0.69868059 7.10325263 -0.375 3.8125 C-0.25125 2.554375 -0.1275 1.29625 0 0 Z " fill="#006BA4" transform="translate(75,0)"/>
<path d="M0 0 C1.98 0 3.96 0 6 0 C6.12375 0.721875 6.2475 1.44375 6.375 2.1875 C6.92222497 5.0156348 6.92222497 5.0156348 8.0625 7.625 C9 10 9 10 9 13 C5.97580475 12.41196203 2.98241547 11.77321882 0 11 C0 11.66 0 12.32 0 13 C-1.32 13 -2.64 13 -4 13 C-3.40895235 8.15340923 -2.02055843 4.39251833 0 0 Z " fill="#006FA1" transform="translate(88,38)"/>
<path d="M0 0 C0.33 0 0.66 0 1 0 C1 22.44 1 44.88 1 68 C0.67 68 0.34 68 0 68 C0 45.56 0 23.12 0 0 Z " fill="#008184" transform="translate(123,1)"/>
<path d="M0 0 C0.33 0 0.66 0 1 0 C1 22.11 1 44.22 1 67 C0.67 67 0.34 67 0 67 C0 44.89 0 22.78 0 0 Z " fill="#00F9F9" transform="translate(129,1)"/>
<path d="M0 0 C16.17 0 32.34 0 49 0 C49 0.33 49 0.66 49 1 C32.83 1 16.66 1 0 1 C0 0.67 0 0.34 0 0 Z " fill="#008384" transform="translate(1,50)"/>
<path d="M0 0 C0.99 0.33 1.98 0.66 3 1 C3.36923077 6.53846154 3.36923077 6.53846154 1.5 8.875 C1.005 9.24625 0.51 9.6175 0 10 C-0.66 8.02 -1.32 6.04 -2 4 C-4.64 3.67 -7.28 3.34 -10 3 C-10 2.67 -10 2.34 -10 2 C-6.7 2 -3.4 2 0 2 C0 1.34 0 0.68 0 0 Z " fill="#006593" transform="translate(88,6)"/>
<path d="M0 0 C2 3 2 3 2 6 C-0.31 6 -2.62 6 -5 6 C-5 5.34 -5 4.68 -5 4 C-6.65 4.33 -8.3 4.66 -10 5 C-10 4.34 -10 3.68 -10 3 C-8.02 3 -6.04 3 -4 3 C-4 2.34 -4 1.68 -4 1 C-2.68 0.67 -1.36 0.34 0 0 Z " fill="#00669B" transform="translate(248,22)"/>
<path d="M0 0 C0.66 0.33 1.32 0.66 2 1 C2.185625 1.8971875 2.185625 1.8971875 2.375 2.8125 C3.20055523 5.70194332 4.80351643 7.01607936 7 9 C5.25 9.75 5.25 9.75 3 10 C0.75 8.375 0.75 8.375 -1 6 C-1.3125 3.3125 -1.3125 3.3125 -1 1 C-0.67 0.67 -0.34 0.34 0 0 Z " fill="#0071A4" transform="translate(53,48)"/>
<path d="M0 0 C0 0.33 0 0.66 0 1 C-1.98 1 -3.96 1 -6 1 C-6.33 2.65 -6.66 4.3 -7 6 C-7.99 6.33 -8.98 6.66 -10 7 C-10.33 5.35 -10.66 3.7 -11 2 C-7.36576791 -0.32590854 -4.22911669 -0.16265833 0 0 Z M-10 3 C-9 5 -9 5 -9 5 Z " fill="#006B8A" transform="translate(74,38)"/>
<path d="M0 0 C2.625 0.375 2.625 0.375 5 1 C3.1875 3.5 3.1875 3.5 1 6 C0.01 6 -0.98 6 -2 6 C-2 2 -2 2 0 0 Z " fill="#005B89" transform="translate(208,22)"/>
<path d="M0 0 C0.33 0 0.66 0 1 0 C1 6.27 1 12.54 1 19 C0.67 19 0.34 19 0 19 C0 12.73 0 6.46 0 0 Z " fill="#005DA5" transform="translate(134,9)"/>
<path d="M0 0 C0.66 0 1.32 0 2 0 C2 2.97 2 5.94 2 9 C1.34 9 0.68 9 0 9 C0 6.03 0 3.06 0 0 Z " fill="#00758A" transform="translate(103,42)"/>
<path d="M0 0 C3.63 0 7.26 0 11 0 C11 0.33 11 0.66 11 1 C8.03 1 5.06 1 2 1 C1.67 2.32 1.34 3.64 1 5 C0.67 3.35 0.34 1.7 0 0 Z " fill="#0082AF" transform="translate(12,29)"/>
<path d="M0 0 C4.29 0 8.58 0 13 0 C13 0.33 13 0.66 13 1 C8.71 1 4.42 1 0 1 C0 0.67 0 0.34 0 0 Z " fill="#0072B7" transform="translate(11,23)"/>
<path d="M0 0 C3.96 0 7.92 0 12 0 C12 0.33 12 0.66 12 1 C8.04 1 4.08 1 0 1 C0 0.67 0 0.34 0 0 Z " fill="#007891" transform="translate(186,29)"/>
<path d="M0 0 C0.33 0 0.66 0 1 0 C1 3.3 1 6.6 1 10 C0.34 9.34 -0.32 8.68 -1 8 C-0.96712417 5.27130593 -0.43602229 2.7033382 0 0 Z " fill="#005BB4" transform="translate(184,9)"/>
<path d="M0 0 C0.33 0 0.66 0 1 0 C1 3.96 1 7.92 1 12 C0.67 12 0.34 12 0 12 C0 8.04 0 4.08 0 0 Z " fill="#0058B1" transform="translate(64,9)"/>
<path d="M0 0 C3.96 0 7.92 0 12 0 C12 0.33 12 0.66 12 1 C8.04 1 4.08 1 0 1 C0 0.67 0 0.34 0 0 Z " fill="#0071C2" transform="translate(186,7)"/>
<path d="M0 0 C1.98 0 3.96 0 6 0 C6 0.66 6 1.32 6 2 C4.02 2 2.04 2 0 2 C0 1.34 0 0.68 0 0 Z " fill="#00708E" transform="translate(192,21)"/>
<path d="M0 0 C3.3 0 6.6 0 10 0 C10 0.33 10 0.66 10 1 C6.7 1 3.4 1 0 1 C0 0.67 0 0.34 0 0 Z " fill="#0077AE" transform="translate(216,29)"/>
<path d="M0 0 C2 3 2 3 1.625 5.6875 C1.41875 6.450625 1.2125 7.21375 1 8 C0.67 8 0.34 8 0 8 C0 5.36 0 2.72 0 0 Z " fill="#006890" transform="translate(232,13)"/>
<path d="M0 0 C2.97 0 5.94 0 9 0 C9 0.33 9 0.66 9 1 C6.03 1 3.06 1 0 1 C0 0.67 0 0.34 0 0 Z " fill="#005E92" transform="translate(172,29)"/>
<path d="M0 0 C2.97 0 5.94 0 9 0 C9 0.33 9 0.66 9 1 C6.03 1 3.06 1 0 1 C0 0.67 0 0.34 0 0 Z " fill="#0063B8" transform="translate(24,24)"/>
<path d="M0 0 C0.33 0 0.66 0 1 0 C1 2.97 1 5.94 1 9 C0.67 9 0.34 9 0 9 C0 6.03 0 3.06 0 0 Z " fill="#005099" transform="translate(165,19)"/>
<path d="M0 0 C2.64 0 5.28 0 8 0 C8 0.33 8 0.66 8 1 C5.36 1 2.72 1 0 1 C0 0.67 0 0.34 0 0 Z " fill="#005AA4" transform="translate(106,52)"/>
<path d="M0 0 C0.33 0 0.66 0 1 0 C1 2.64 1 5.28 1 8 C0.67 8 0.34 8 0 8 C0 5.36 0 2.72 0 0 Z " fill="#004FA4" transform="translate(157,20)"/>
<path d="M0 0 C1.98 0 3.96 0 6 0 C5.67 0.99 5.34 1.98 5 3 C5 2.34 5 1.68 5 1 C3.35 1 1.7 1 0 1 C0 0.67 0 0.34 0 0 Z " fill="#005894" transform="translate(192,14)"/>
<path d="M0 0 C0.598125 0.20625 1.19625 0.4125 1.8125 0.625 C-0.4975 0.955 -2.8075 1.285 -5.1875 1.625 C-2.1875 -0.375 -2.1875 -0.375 0 0 Z " fill="#005F67" transform="translate(205.1875,6.375)"/>
<path d="M0 0 C0.33 0 0.66 0 1 0 C1 2.31 1 4.62 1 7 C0.67 7 0.34 7 0 7 C0 4.69 0 2.38 0 0 Z " fill="#007373" transform="translate(66,29)"/>
<path d="M0 0 C2.31 0 4.62 0 7 0 C7 0.33 7 0.66 7 1 C4.69 1 2.38 1 0 1 C0 0.67 0 0.34 0 0 Z " fill="#0067A4" transform="translate(27,30)"/>
<path d="M0 0 C0.33 0 0.66 0 1 0 C1 1.98 1 3.96 1 6 C0.34 5.01 -0.32 4.02 -1 3 C-0.67 2.01 -0.34 1.02 0 0 Z " fill="#0051B6" transform="translate(145,9)"/>
<path d="M0 0 C2.125 0.375 2.125 0.375 4 1 C2.02 1.33 0.04 1.66 -2 2 C-1.34 1.34 -0.68 0.68 0 0 Z " fill="#004258" transform="translate(175,6)"/>
<path d="M0 0 C2.31 0 4.62 0 7 0 C7 0.33 7 0.66 7 1 C4.69 1 2.38 1 0 1 C0 0.67 0 0.34 0 0 Z " fill="#000000" transform="translate(79,6)"/>
<path d="M0 0 C0.33 0 0.66 0 1 0 C1 1.98 1 3.96 1 6 C0.67 6 0.34 6 0 6 C0 4.02 0 2.04 0 0 Z " fill="#0074B3" transform="translate(67,52)"/>
<path d="M0 0 C0.33 0 0.66 0 1 0 C1 1.98 1 3.96 1 6 C0.67 6 0.34 6 0 6 C0 4.02 0 2.04 0 0 Z " fill="#00AAE2" transform="translate(43,19)"/>
<path d="M0 0 C0.33 1.32 0.66 2.64 1 4 C0.34 3.67 -0.32 3.34 -1 3 C-0.67 2.01 -0.34 1.02 0 0 Z " fill="#007495" transform="translate(213,19)"/>
<path d="M0 0 C0.33 0 0.66 0 1 0 C1 1.65 1 3.3 1 5 C0.34 4.67 -0.32 4.34 -1 4 C-0.67 2.68 -0.34 1.36 0 0 Z " fill="#0066AE" transform="translate(37,17)"/>
<path d="M0 0 C0.66 1.32 1.32 2.64 2 4 C1.34 4 0.68 4 0 4 C0 2.68 0 1.36 0 0 Z " fill="#007393" transform="translate(56,49)"/>
<path d="M0 0 C0.66 0.99 1.32 1.98 2 3 C1.01 2.67 0.02 2.34 -1 2 C-0.67 1.34 -0.34 0.68 0 0 Z " fill="#0044BB" transform="translate(112,34)"/>
<path d="M0 0 C1.65 0 3.3 0 5 0 C5 0.33 5 0.66 5 1 C3.35 1 1.7 1 0 1 C0 0.67 0 0.34 0 0 Z " fill="#003B90" transform="translate(136,29)"/>
<path d="M0 0 C0.33 0 0.66 0 1 0 C1 1.65 1 3.3 1 5 C0.67 5 0.34 5 0 5 C0 3.35 0 1.7 0 0 Z " fill="#0033E5" transform="translate(6,27)"/>
<path d="M0 0 C0.33 0 0.66 0 1 0 C1 1.65 1 3.3 1 5 C0.67 5 0.34 5 0 5 C0 3.35 0 1.7 0 0 Z " fill="#0066B2" transform="translate(44,14)"/>
<path d="M0 0 C1.65 0 3.3 0 5 0 C5 0.33 5 0.66 5 1 C3.35 1 1.7 1 0 1 C0 0.67 0 0.34 0 0 Z " fill="#0090C7" transform="translate(238,7)"/>
<path d="M0 0 C1.65 0 3.3 0 5 0 C5 0.33 5 0.66 5 1 C3.35 1 1.7 1 0 1 C0 0.67 0 0.34 0 0 Z " fill="#0077AE" transform="translate(153,7)"/>
<path d="M0 0 C1.65 0 3.3 0 5 0 C5 0.33 5 0.66 5 1 C3.35 1 1.7 1 0 1 C0 0.67 0 0.34 0 0 Z " fill="#005DC7" transform="translate(147,7)"/>
<path d="M0 0 C1.65 0 3.3 0 5 0 C5 0.33 5 0.66 5 1 C3.35 1 1.7 1 0 1 C0 0.67 0 0.34 0 0 Z " fill="#0080BF" transform="translate(136,7)"/>
<path d="M0 0 C4 1 4 1 4 1 Z " fill="#00407F" transform="translate(85,68)"/>
<path d="M0 0 C4 1 4 1 4 1 Z " fill="#00759A" transform="translate(75,68)"/>
<path d="M0 0 C4 1 4 1 4 1 Z " fill="#0095BA" transform="translate(81,57)"/>
<path d="M0 0 C4 1 4 1 4 1 Z " fill="#004AB4" transform="translate(98,52)"/>
<path d="M0 0 C4 1 4 1 4 1 Z " fill="#004AB4" transform="translate(93,52)"/>
<path d="M0 0 C4 1 4 1 4 1 Z " fill="#006AD4" transform="translate(84,52)"/>
<path d="M0 0 C4 1 4 1 4 1 Z " fill="#00558A" transform="translate(79,52)"/>
<path d="M0 0 C0.66 0 1.32 0 2 0 C1.67 0.99 1.34 1.98 1 3 C0.67 2.01 0.34 1.02 0 0 Z " fill="#006AB4" transform="translate(75,42)"/>
<path d="M0 0 C0.66 0.66 1.32 1.32 2 2 C1.01 1.67 0.02 1.34 -1 1 C-0.67 0.67 -0.34 0.34 0 0 Z " fill="#00759A" transform="translate(104,35)"/>
<path d="M0 0 C4 1 4 1 4 1 Z " fill="#008AB4" transform="translate(246,29)"/>
<path d="M0 0 C4 1 4 1 4 1 Z " fill="#008AB4" transform="translate(232,29)"/>
<path d="M0 0 C4 1 4 1 4 1 Z " fill="#006A95" transform="translate(210,29)"/>
<path d="M0 0 C4 1 4 1 4 1 Z " fill="#006A95" transform="translate(200,29)"/>
<path d="M0 0 C4 1 4 1 4 1 Z " fill="#008AB4" transform="translate(159,29)"/>
<path d="M0 0 C4 1 4 1 4 1 Z " fill="#009FB4" transform="translate(148,29)"/>
<path d="M0 0 C1 4 1 4 1 4 Z " fill="#0062A2" transform="translate(81,28)"/>
<path d="M0 0 C4 1 4 1 4 1 Z " fill="#007FFF" transform="translate(106,21)"/>
<path d="M0 0 C0.66 0.66 1.32 1.32 2 2 C1.01 1.67 0.02 1.34 -1 1 C-0.67 0.67 -0.34 0.34 0 0 Z " fill="#00AAD4" transform="translate(101,20)"/>
<path d="M0 0 C1 4 1 4 1 4 Z " fill="#008AB4" transform="translate(36,13)"/>
<path d="M0 0 C0.99 0.495 0.99 0.495 2 1 C1.67 1.66 1.34 2.32 1 3 C0.67 2.01 0.34 1.02 0 0 Z " fill="#007B84" transform="translate(160,10)"/>
<path d="M0 0 C4 1 4 1 4 1 Z " fill="#00809F" transform="translate(165,7)"/>
<path d="M0 0 C3 1 3 1 3 1 Z " fill="#004763" transform="translate(79,67)"/>
<path d="" fill="#001C8D" transform="translate(0,0)"/>
<path d="" fill="#004763" transform="translate(0,0)"/>
<path d="" fill="#0063B8" transform="translate(0,0)"/>
<path d="" fill="#00808E" transform="translate(0,0)"/>
<path d="M0 0 C3 1 3 1 3 1 Z " fill="#00AAD4" transform="translate(89,50)"/>
<path d="" fill="#002A2A" transform="translate(0,0)"/>
<path d="M0 0 C3 1 3 1 3 1 Z " fill="#004C5D" transform="translate(75,36)"/>
<path d="" fill="#0063B1" transform="translate(0,0)"/>
<path d="M0 0 C3 1 3 1 3 1 Z " fill="#009CE2" transform="translate(39,26)"/>
<path d="" fill="#0047E2" transform="translate(0,0)"/>
<path d="" fill="#007F9C" transform="translate(0,0)"/>
<path d="" fill="#003871" transform="translate(0,0)"/>
<path d="M0 0 C3 1 3 1 3 1 Z " fill="#006EAF" transform="translate(177,14)"/>
<path d="" fill="#008095" transform="translate(0,0)"/>
<path d="M0 0 C0.33 0.66 0.66 1.32 1 2 C0.34 1.67 -0.32 1.34 -1 1 C-0.67 0.67 -0.34 0.34 0 0 Z " fill="#008EB8" transform="translate(42,8)"/>
<path d="M0 0 C3 1 3 1 3 1 Z " fill="#0071A3" transform="translate(207,7)"/>
<path d="M0 0 C3 1 3 1 3 1 Z " fill="#00B8B8" transform="translate(179,7)"/>
<path d="" fill="#004040" transform="translate(0,0)"/>
<path d="M0 0 C2 1 2 1 2 1 Z " fill="#006AB4" transform="translate(82,66)"/>
<path d="M0 0 C2 1 2 1 2 1 Z " fill="#00AAD4" transform="translate(61,62)"/>
<path d="M0 0 C2 1 2 1 2 1 Z " fill="#0040BF" transform="translate(59,61)"/>
<path d="M0 0 C2 1 2 1 2 1 Z " fill="#0055AA" transform="translate(65,58)"/>
<path d="M0 0 C2 1 2 1 2 1 Z " fill="#002A55" transform="translate(53,57)"/>
<path d="M0 0 C2 1 2 1 2 1 Z " fill="#00738C" transform="translate(60,55)"/>
<path d="" fill="#002A55" transform="translate(0,0)"/>
<path d="" fill="#006A95" transform="translate(0,0)"/>
<path d="M0 0 C2 1 2 1 2 1 Z " fill="#008080" transform="translate(51,45)"/>
<path d="" fill="#000000" transform="translate(0,0)"/>
<path d="M0 0 C2 1 2 1 2 1 Z " fill="#00BFBF" transform="translate(2,38)"/>
<path d="" fill="#00007F" transform="translate(0,0)"/>
<path d="" fill="#008080" transform="translate(0,0)"/>
<path d="M0 0 C2 1 2 1 2 1 Z " fill="#008080" transform="translate(23,30)"/>
<path d="M0 0 C2 1 2 1 2 1 Z " fill="#006A95" transform="translate(34,29)"/>
<path d="M0 0 C2 1 2 1 2 1 Z " fill="#008080" transform="translate(226,28)"/>
<path d="M0 0 C2 1 2 1 2 1 Z " fill="#002AD4" transform="translate(181,28)"/>
<path d="M0 0 C2 1 2 1 2 1 Z " fill="#006A95" transform="translate(170,28)"/>
<path d="" fill="#0040BF" transform="translate(0,0)"/>
<path d="" fill="#002040" transform="translate(0,0)"/>
<path d="" fill="#00405F" transform="translate(0,0)"/>
<path d="" fill="#008080" transform="translate(0,0)"/>
<path d="" fill="#006A95" transform="translate(0,0)"/>
<path d="" fill="#00BFDF" transform="translate(0,0)"/>
<path d="M0 0 C2 1 2 1 2 1 Z " fill="#00809F" transform="translate(9,24)"/>
<path d="M0 0 C2 1 2 1 2 1 Z " fill="#0040DF" transform="translate(33,23)"/>
<path d="" fill="#006A95" transform="translate(0,0)"/>
<path d="" fill="#0040DF" transform="translate(0,0)"/>
<path d="" fill="#006AD4" transform="translate(0,0)"/>
<path d="" fill="#006A95" transform="translate(0,0)"/>
<path d="" fill="#00BFDF" transform="translate(0,0)"/>
<path d="" fill="#006995" transform="translate(0,0)"/>
<path d="M0 0 C2 1 2 1 2 1 Z " fill="#0088A1" transform="translate(180,15)"/>
<path d="" fill="#00BFBF" transform="translate(0,0)"/>
<path d="" fill="#007FFF" transform="translate(0,0)"/>
<path d="" fill="#0080BF" transform="translate(0,0)"/>
<path d="" fill="#0055D4" transform="translate(0,0)"/>
<path d="" fill="#0073CC" transform="translate(0,0)"/>
<path d="M0 0 C2 1 2 1 2 1 Z " fill="#0040DF" transform="translate(39,10)"/>
<path d="M0 0 C2 1 2 1 2 1 Z " fill="#002A55" transform="translate(227,8)"/>
<path d="M0 0 C2 1 2 1 2 1 Z " fill="#0000FF" transform="translate(97,8)"/>
<path d="M0 0 C2 1 2 1 2 1 Z " fill="#007F7F" transform="translate(86,7)"/>
<path d="" fill="#00BFBF" transform="translate(0,0)"/>
<path d="M0 0 C2 1 2 1 2 1 Z " fill="#000000" transform="translate(100,6)"/>
<path d="M0 0 C2 1 2 1 2 1 Z " fill="#006A95" transform="translate(52,5)"/>
<path d="" fill="#008080" transform="translate(0,0)"/>
<path d="" fill="#0080BF" transform="translate(0,0)"/>
<path d="" fill="#000000" transform="translate(0,0)"/>
<path d="" fill="#008080" transform="translate(0,0)"/>
<path d="" fill="#0080BF" transform="translate(0,0)"/>
<path d="" fill="#0000FF" transform="translate(0,0)"/>
<path d="" fill="#0080BF" transform="translate(0,0)"/>
<path d="" fill="#00FFFF" transform="translate(0,0)"/>
<path d="" fill="#000000" transform="translate(0,0)"/>
<path d="" fill="#000000" transform="translate(0,0)"/>
<path d="" fill="#0000FF" transform="translate(0,0)"/>
<path d="" fill="#0000FF" transform="translate(0,0)"/>
<path d="" fill="#000000" transform="translate(0,0)"/>
<path d="" fill="#00AAAA" transform="translate(0,0)"/>
<path d="" fill="#008080" transform="translate(0,0)"/>
<path d="" fill="#00FFFF" transform="translate(0,0)"/>
<path d="" fill="#008080" transform="translate(0,0)"/>
<path d="" fill="#00FFFF" transform="translate(0,0)"/>
<path d="" fill="#000000" transform="translate(0,0)"/>
<path d="" fill="#00AAAA" transform="translate(0,0)"/>
<path d="" fill="#00FFFF" transform="translate(0,0)"/>
<path d="" fill="#008080" transform="translate(0,0)"/>
<path d="" fill="#0000FF" transform="translate(0,0)"/>
<path d="" fill="#008080" transform="translate(0,0)"/>
<path d="" fill="#00FFFF" transform="translate(0,0)"/>
<path d="" fill="#0055AA" transform="translate(0,0)"/>
<path d="" fill="#0080BF" transform="translate(0,0)"/>
<path d="" fill="#00FFFF" transform="translate(0,0)"/>
<path d="" fill="#0080BF" transform="translate(0,0)"/>
<path d="" fill="#0000FF" transform="translate(0,0)"/>
<path d="" fill="#000000" transform="translate(0,0)"/>
<path d="" fill="#008080" transform="translate(0,0)"/>
<path d="" fill="#00FFFF" transform="translate(0,0)"/>
<path d="" fill="#0080FF" transform="translate(0,0)"/>
<path d="" fill="#008080" transform="translate(0,0)"/>
<path d="" fill="#008080" transform="translate(0,0)"/>
<path d="" fill="#0080BF" transform="translate(0,0)"/>
<path d="" fill="#0055AA" transform="translate(0,0)"/>
<path d="" fill="#0055AA" transform="translate(0,0)"/>
<path d="" fill="#0080BF" transform="translate(0,0)"/>
<path d="" fill="#0000FF" transform="translate(0,0)"/>
<path d="" fill="#0055AA" transform="translate(0,0)"/>
<path d="" fill="#0000FF" transform="translate(0,0)"/>
<path d="" fill="#000000" transform="translate(0,0)"/>
<path d="" fill="#000000" transform="translate(0,0)"/>
<path d="" fill="#000000" transform="translate(0,0)"/>
<path d="" fill="#0055AA" transform="translate(0,0)"/>
<path d="" fill="#00FFFF" transform="translate(0,0)"/>
<path d="" fill="#008080" transform="translate(0,0)"/>
<path d="" fill="#0055AA" transform="translate(0,0)"/>
<path d="" fill="#00FFFF" transform="translate(0,0)"/>
<path d="" fill="#00AAAA" transform="translate(0,0)"/>
<path d="" fill="#006699" transform="translate(0,0)"/>
<path d="" fill="#0000FF" transform="translate(0,0)"/>
<path d="" fill="#008080" transform="translate(0,0)"/>
<path d="" fill="#000000" transform="translate(0,0)"/>
<path d="" fill="#00AAAA" transform="translate(0,0)"/>
<path d="" fill="#0000FF" transform="translate(0,0)"/>
<path d="" fill="#00FFFF" transform="translate(0,0)"/>
<path d="" fill="#0055AA" transform="translate(0,0)"/>
<path d="" fill="#0055AA" transform="translate(0,0)"/>
<path d="" fill="#0055AA" transform="translate(0,0)"/>
<path d="" fill="#00FFFF" transform="translate(0,0)"/>
<path d="" fill="#0055AA" transform="translate(0,0)"/>
<path d="" fill="#0055AA" transform="translate(0,0)"/>
<path d="" fill="#000000" transform="translate(0,0)"/>
<path d="" fill="#0080AA" transform="translate(0,0)"/>
<path d="" fill="#008080" transform="translate(0,0)"/>
<path d="" fill="#008080" transform="translate(0,0)"/>
<path d="" fill="#0080FF" transform="translate(0,0)"/>
<path d="" fill="#008080" transform="translate(0,0)"/>
<path d="" fill="#0055AA" transform="translate(0,0)"/>
<path d="" fill="#00FFFF" transform="translate(0,0)"/>
<path d="" fill="#0080BF" transform="translate(0,0)"/>
<path d="" fill="#00AAAA" transform="translate(0,0)"/>
<path d="" fill="#0080FF" transform="translate(0,0)"/>
<path d="" fill="#00FFFF" transform="translate(0,0)"/>
<path d="" fill="#00FFFF" transform="translate(0,0)"/>
<path d="" fill="#008080" transform="translate(0,0)"/>
<path d="" fill="#0080BF" transform="translate(0,0)"/>
<path d="" fill="#008080" transform="translate(0,0)"/>
<path d="" fill="#008080" transform="translate(0,0)"/>
<path d="" fill="#0000FF" transform="translate(0,0)"/>
<path d="" fill="#008080" transform="translate(0,0)"/>
<path d="" fill="#008080" transform="translate(0,0)"/>
<path d="" fill="#0055AA" transform="translate(0,0)"/>
<path d="" fill="#006DB6" transform="translate(0,0)"/>
<path d="" fill="#00FFFF" transform="translate(0,0)"/>
<path d="" fill="#0000FF" transform="translate(0,0)"/>
<path d="" fill="#0055AA" transform="translate(0,0)"/>
<path d="" fill="#000000" transform="translate(0,0)"/>
<path d="" fill="#0000FF" transform="translate(0,0)"/>
<path d="" fill="#00FFFF" transform="translate(0,0)"/>
<path d="" fill="#00FFFF" transform="translate(0,0)"/>
<path d="" fill="#00FFFF" transform="translate(0,0)"/>
<path d="" fill="#000000" transform="translate(0,0)"/>
<path d="" fill="#008080" transform="translate(0,0)"/>
<path d="" fill="#000000" transform="translate(0,0)"/>
<path d="" fill="#0000FF" transform="translate(0,0)"/>
<path d="" fill="#00FFFF" transform="translate(0,0)"/>
<path d="" fill="#0080BF" transform="translate(0,0)"/>
<path d="" fill="#00FFFF" transform="translate(0,0)"/>
<path d="" fill="#008080" transform="translate(0,0)"/>
<path d="" fill="#008080" transform="translate(0,0)"/>
<path d="" fill="#008080" transform="translate(0,0)"/>
<path d="" fill="#008080" transform="translate(0,0)"/>
<path d="" fill="#006699" transform="translate(0,0)"/>
<path d="" fill="#008080" transform="translate(0,0)"/>
<path d="" fill="#0055AA" transform="translate(0,0)"/>
<path d="" fill="#008080" transform="translate(0,0)"/>
<path d="" fill="#0055AA" transform="translate(0,0)"/>
</svg>
