<?xml version="1.0" encoding="UTF-8"?>
<svg version="1.1" xmlns="http://www.w3.org/2000/svg" width="3503" height="945">
<path d="M0 0 C22.44 0 44.88 0 68 0 C68.33 27.39 68.66 54.78 69 83 C73.95 80.69 78.9 78.38 84 76 C117.04838151 63.44923932 156.89449922 63.2058706 189.5 77.375 C214.25452194 88.68035902 234.93912946 106.67240188 249 130 C249.56388428 130.93344238 249.56388428 130.93344238 250.13916016 131.88574219 C263.82311967 154.99832063 269.32850042 181.596055 269.2746582 208.23095703 C269.27902085 209.68676511 269.28420907 211.1425709 269.29014587 212.59837341 C269.30338436 216.50582185 269.3041314 220.41317269 269.30158257 224.32063913 C269.30050188 227.60750929 269.30542426 230.89436056 269.310188 234.18122661 C269.32123213 241.95156168 269.3217503 249.7218484 269.31567383 257.4921875 C269.30964637 265.44864935 269.32192559 273.40493382 269.3432439 281.36136544 C269.36099264 288.24432836 269.36684034 295.12723551 269.36360615 302.01022041 C269.36181319 306.09805059 269.36422591 310.1857544 269.37832069 314.27356339 C269.44377445 335.01367062 269.42486683 355.72788279 263.25 375.75 C262.86485229 377.03801514 262.86485229 377.03801514 262.47192383 378.35205078 C251.72582909 413.30190598 229.94676737 442.26250479 197.5625 459.8125 C186.82226307 465.39896164 175.821156 468.77491378 164 471.25 C163.23002686 471.41346924 162.46005371 471.57693848 161.66674805 471.74536133 C108.76338619 482.03197374 53.89415637 474 0 474 C0 317.58 0 161.16 0 0 Z M95 147 C94.29101562 147.51175781 93.58203125 148.02351562 92.8515625 148.55078125 C81.13056586 157.88588331 74.2295316 172.17728036 70.75 186.4375 C70.58653076 187.10491211 70.42306152 187.77232422 70.25463867 188.45996094 C67.43282549 201.01138599 67.86068976 213.93779792 67.88647461 226.72167969 C67.88675713 228.69386799 67.88659748 230.66605639 67.8860321 232.63824463 C67.88574666 237.95968769 67.89160236 243.28110795 67.89860606 248.60254574 C67.90488185 254.17588623 67.90544673 259.74922732 67.90663147 265.3225708 C67.90973237 275.86196804 67.91792895 286.40135484 67.92798096 296.9407475 C67.93918074 308.94563273 67.94466227 320.95051846 67.94967639 332.95540762 C67.96011266 357.63694419 67.97768795 382.31847151 68 407 C76.4420988 407.04677122 84.88414157 407.08209289 93.32633877 407.10362434 C97.24828676 407.11396919 101.17014478 407.1279535 105.09204102 407.15087891 C108.89166686 407.17294526 112.69120733 407.18463807 116.49089241 407.18975449 C117.92542931 407.19339072 119.35996267 407.20048655 120.7944622 407.21146011 C128.63252436 407.26891948 136.32983023 406.99610481 144.11743164 406.09716797 C144.81131454 406.01736254 145.50519743 405.93755711 146.22010708 405.85533333 C161.19612818 403.96064919 174.86472675 396.96113442 184.3203125 385.0859375 C197.03557914 367.88893182 201.14303657 348.23337253 201.16113281 327.22460938 C201.16576776 325.82921215 201.17079332 324.43381617 201.17617798 323.03842163 C201.18924289 319.2610904 201.19573589 315.4837769 201.20018864 311.70642662 C201.20313025 309.33952476 201.20723716 306.97262762 201.21169281 304.60572815 C201.22535509 297.18027378 201.23502672 289.75483036 201.2388947 282.3293643 C201.24336593 273.79557816 201.26087554 265.26195295 201.2898953 256.72821569 C201.31161605 250.1079341 201.32160457 243.48769742 201.32293582 236.86738062 C201.32397687 232.92492623 201.32973312 228.98262336 201.34775543 225.04020691 C201.36441602 221.32351505 201.36630603 217.60708565 201.35761642 213.89036942 C201.35649712 211.9025504 201.3700765 209.91473938 201.3843689 207.92697144 C201.2871915 186.60154194 194.85411113 166.86478356 180.15234375 151.0625 C157.30443755 129.16831765 119.99774374 128.85148326 95 147 Z " fill="#FFFFFF" transform="translate(3234,0)"/>
<path d="M0 0 C0 -2.97 0 -5.94 0 -9 C22.44 -9 44.88 -9 68 -9 C68 121.35 68 251.7 68 386 C45.56 386 23.12 386 0 386 C-0.33 381.38 -0.66 376.76 -1 372 C-2.8975 373.03125 -4.795 374.0625 -6.75 375.125 C-19.1190894 381.50182591 -33.19772464 385.42318219 -47 387 C-47.84820313 387.10957031 -48.69640625 387.21914063 -49.5703125 387.33203125 C-83.57403948 391.1384186 -118.7964155 383.88349846 -146.3828125 363.09375 C-150.77203574 359.58237141 -154.91801107 355.86204024 -159 352 C-159.82371094 351.24074219 -160.64742187 350.48148437 -161.49609375 349.69921875 C-181.74981315 330.39341134 -194.3120727 303.37331888 -199 276 C-199.1674472 275.06839554 -199.33489441 274.13679108 -199.50741577 273.17695618 C-201.66689268 258.94941199 -201.31152459 244.57960324 -201.30158257 230.22633123 C-201.30049993 227.12341903 -201.30542907 224.02052673 -201.310188 220.91761887 C-201.32122265 213.58015474 -201.32175576 206.24274182 -201.31567383 198.90527344 C-201.30964753 191.40039603 -201.32192484 183.89570674 -201.3432439 176.39086139 C-201.36101198 169.89087373 -201.36683737 163.39094509 -201.36360615 156.89093411 C-201.36181618 153.03391522 -201.36419443 149.17703034 -201.37832069 145.32003403 C-201.4486451 124.34158316 -200.88162295 103.62593358 -195.3125 83.25 C-195.05976318 82.30664795 -194.80702637 81.3632959 -194.54663086 80.39135742 C-184.93666872 46.13691168 -161.94665365 16.53881599 -130.97265625 -0.93359375 C-91.35497389 -22.1640747 -39.41038419 -20.2834483 0 0 Z M-115.93359375 73.05078125 C-130.00344313 89.69017996 -133.1303612 112.06065534 -133.17700195 133.07519531 C-133.18357315 134.37072327 -133.19014435 135.66625122 -133.19691467 137.0010376 C-133.21782164 141.27672111 -133.22831075 145.55240439 -133.23828125 149.828125 C-133.24233507 151.31108365 -133.24645216 152.79404213 -133.25063133 154.27700043 C-133.26966086 161.25448614 -133.28389145 168.23196149 -133.2922433 175.20946813 C-133.3019801 183.20782523 -133.32821528 191.20590298 -133.36874419 199.20416188 C-133.39914204 205.42114695 -133.41373467 211.63805308 -133.41702431 217.85511088 C-133.41934973 221.55129247 -133.42797427 225.24717503 -133.45348549 228.94327545 C-133.61655257 253.86479105 -132.92792206 277.56090176 -117 298 C-116.50113281 298.68707031 -116.00226562 299.37414062 -115.48828125 300.08203125 C-105.78723218 312.47102843 -90.28459839 318.6871319 -75.12109375 320.6875 C-57.02819957 322.49905386 -39.79132789 318.22414689 -25.3984375 306.96484375 C-9.03203066 292.94709046 -2.27236102 273.96619608 0 253 C0.24880157 248.63058661 0.28431212 244.27785605 0.2746582 239.90209961 C0.27976913 238.67557678 0.28488007 237.44905396 0.29014587 236.18536377 C0.30155066 232.86455726 0.30413348 229.54400286 0.30158257 226.22319484 C0.30050018 223.42598322 0.30542863 220.62879369 0.310188 217.8315869 C0.32122633 211.21526258 0.32175414 204.59899505 0.31567383 197.98266602 C0.30965186 191.21852287 0.32191283 184.45458866 0.3432439 177.69048113 C0.3610246 171.83088253 0.36683531 165.9713494 0.36360615 160.11172491 C0.36181759 156.63532253 0.36417906 153.15906885 0.37832069 149.68269157 C0.4733421 120.188243 -0.36405722 89.97859048 -22.2109375 67.6640625 C-36.27430332 54.23098758 -53.54625374 51.36227549 -72.2421875 51.6875 C-90.12781005 52.39004491 -103.8432364 60.22767497 -115.93359375 73.05078125 Z " fill="#FFFFFF" transform="translate(3036,88)"/>
<path d="M0 0 C0.80759766 0.22574707 1.61519531 0.45149414 2.44726562 0.68408203 C26.03945882 7.47537595 44.29839159 19.15695747 62 36 C63.06154297 36.96486328 63.06154297 36.96486328 64.14453125 37.94921875 C84.81254848 57.35442433 99.07923634 88.23136236 100.08998299 116.51827812 C100.1227745 119.55487665 100.12363999 122.5899466 100.11352539 125.62670898 C100.11370619 127.38243146 100.11370619 127.38243146 100.11389065 129.17362309 C100.11314658 132.94779957 100.10554141 136.72192615 100.09765625 140.49609375 C100.09618526 142.8320717 100.09516552 145.16804998 100.09460449 147.50402832 C100.08936978 156.14852392 100.07540853 164.79301245 100.0625 173.4375 C100.041875 192.763125 100.02125 212.08875 100 232 C34 232 -32 232 -100 232 C-100.26692515 279.73559798 -100.26692515 279.73559798 -77 316 C-66.31295 325.69525937 -52.24833574 330.85094067 -38 332 C-37.02740234 332.07927734 -37.02740234 332.07927734 -36.03515625 332.16015625 C-18.05655806 332.93018932 -2.25941202 325.4667686 11.18359375 314.1640625 C17.53134508 308.29888876 23.25318113 300.2404566 26 292 C30.92067548 292.60268738 35.1642842 294.12334882 39.6875 296.0625 C40.78556976 296.52389626 40.78556976 296.52389626 41.90582275 296.99461365 C44.27303487 297.99062595 46.6364607 298.99530751 49 300 C50.62306551 300.68440336 52.24643938 301.36807591 53.87011719 302.05102539 C56.29787873 303.07225924 58.72545971 304.09389391 61.15203857 305.11793518 C67.83298338 307.93682716 74.53417605 310.70261126 81.25 313.4375 C82.15878906 313.80810547 83.06757812 314.17871094 84.00390625 314.56054688 C86.00214655 315.37482183 88.00098633 316.1876255 90 317 C77.89178231 348.49477137 53.45604765 373.75508465 22.95068359 388.13720703 C-9.2299969 402.37081465 -47.55531657 404.69423437 -80.765625 392.27734375 C-95.74137042 386.36745025 -108.92348156 378.68780672 -121 368 C-121.49097168 367.57460938 -121.98194336 367.14921875 -122.48779297 366.7109375 C-141.48085045 350.22980675 -154.94528656 329.85922163 -162.3125 305.875 C-162.67649902 304.69514526 -162.67649902 304.69514526 -163.04785156 303.49145508 C-166.62408687 291.19340403 -167.29990643 278.96699609 -167.29052734 266.25195312 C-167.29652663 264.60924987 -167.30333533 262.96654941 -167.31088257 261.32385254 C-167.32841187 256.8977183 -167.3332325 252.47166159 -167.33451414 248.04549599 C-167.33594427 245.26811055 -167.34023011 242.49074428 -167.34550858 239.71336365 C-167.36396882 229.98923512 -167.37218462 220.2651611 -167.37060547 210.54101562 C-167.36940662 201.53369538 -167.3904689 192.52661572 -167.4220928 183.51935625 C-167.44841247 175.74047507 -167.45896618 167.96167167 -167.45769465 160.18274641 C-167.45718941 155.55717448 -167.4626257 150.9318165 -167.48405075 146.30628967 C-167.67234873 102.6012973 -159.83311516 66.81686494 -128.1875 34.6875 C-95.5865526 2.61598951 -44.78597375 -12.77016963 0 0 Z M-83.73828125 86.1171875 C-102.99482449 109.82431964 -100 133.33043462 -100 165 C-56.44 165 -12.88 165 32 165 C33.7493755 119.26328724 33.7493755 119.26328724 12.89453125 82.7265625 C-2.21620805 68.49269471 -18.30171206 63.09664244 -38.79296875 63.65234375 C-56.2952975 64.54294191 -72.37185784 72.77028173 -83.73828125 86.1171875 Z " fill="#FFFFFF" transform="translate(539,76)"/>
<path d="M0 0 C0.80759766 0.22574707 1.61519531 0.45149414 2.44726562 0.68408203 C26.03804433 7.47496877 44.30050034 19.15317696 62 36 C62.64582031 36.59296875 63.29164063 37.1859375 63.95703125 37.796875 C85.33856133 58.02670674 98.45309035 88.92911039 100.18112564 118.05260658 C100.2425973 121.10890762 100.24801446 124.15922608 100.22705078 127.21606445 C100.22729185 128.37735713 100.22753292 129.53864981 100.2277813 130.73513317 C100.2263044 134.4445975 100.21114696 138.15385351 100.1953125 141.86328125 C100.19236702 144.17329817 100.19032969 146.48331643 100.18920898 148.79333496 C100.17878015 157.29974384 100.15085768 165.80612403 100.125 174.3125 C100.08375 193.349375 100.0425 212.38625 100 232 C34 232 -32 232 -100 232 C-100.89239851 274.69251943 -100.89239851 274.69251943 -83 310 C-82.12408203 311.01900391 -82.12408203 311.01900391 -81.23046875 312.05859375 C-68.75807151 325.52878277 -51.62482203 331.53431221 -33.625 332.3125 C-14.93643777 331.79624137 2.31683011 323.83054595 15.1484375 310.31640625 C19.47654786 304.90170279 23.80177832 298.59466504 26 292 C30.92892856 292.60422517 35.18816359 294.12746676 39.72265625 296.0625 C40.82482735 296.52389626 40.82482735 296.52389626 41.94926453 296.99461365 C44.32300513 297.99020956 46.69276544 298.99491084 49.0625 300 C50.68826898 300.68416861 52.31424632 301.3678423 53.94042969 302.05102539 C58.63106838 304.02435712 63.31655406 306.00966503 68 308 C68.64032166 308.27205261 69.28064331 308.54410522 69.94036865 308.82440186 C76.30249144 311.52907554 82.65624656 314.25252932 89 317 C88.48512187 322.61039618 86.34737194 326.68658297 83.625 331.5 C83.17874268 332.29172607 82.73248535 333.08345215 82.27270508 333.89916992 C63.78853433 365.88023037 33.13977131 387.10261091 -2.125 396.8125 C-37.5206638 404.78760088 -74.59317784 399.05727962 -105.5 380.0625 C-111.93909934 375.97607317 -117.49788796 371.28202756 -123 366 C-124.28780119 364.93281814 -125.57936692 363.87015966 -126.875 362.8125 C-144.38161939 347.3841312 -156.05201934 326.50305198 -162.75 304.375 C-162.94899902 303.71878662 -163.14799805 303.06257324 -163.35302734 302.38647461 C-166.68862256 290.72907039 -167.29574025 279.24866779 -167.2746582 267.21020508 C-167.27901485 265.55130791 -167.28420114 263.89241275 -167.29014587 262.23352051 C-167.3034475 257.76006884 -167.30412426 253.28670213 -167.30158257 248.81323457 C-167.30050642 245.0613824 -167.30541281 241.30954698 -167.310188 237.55769843 C-167.32125354 228.69494681 -167.32173785 219.83223759 -167.31567383 210.96948242 C-167.30964181 201.86841732 -167.32193226 192.76750713 -167.3432439 183.66646844 C-167.36094107 175.81633428 -167.36684837 167.96624906 -167.36360615 160.11609572 C-167.36180539 155.44373112 -167.36430711 150.77147692 -167.37832069 146.09913063 C-167.39102669 141.69865878 -167.3888362 137.29842563 -167.37590981 132.89795685 C-167.37357163 131.29736686 -167.3761775 129.69675939 -167.38453293 128.0961895 C-167.45229492 114.08815197 -165.99904434 100.23679857 -161.3125 86.9375 C-161.05758789 86.19983398 -160.80267578 85.46216797 -160.54003906 84.70214844 C-154.13453363 66.80193673 -144.13446405 51.68633229 -131 38 C-130.18144531 37.11828125 -129.36289063 36.2365625 -128.51953125 35.328125 C-96.87523299 2.23482637 -44.43699041 -12.67066132 0 0 Z M-84.58203125 86.9609375 C-103.02147511 110.75179541 -100 133.7624879 -100 165 C-56.44 165 -12.88 165 32 165 C33.61774721 118.39181411 33.61774721 118.39181411 12.0390625 81.87890625 C-1.46388405 68.81194826 -17.49956532 63.57272262 -35.89794922 63.63427734 C-55.26818342 64.00384771 -71.84064657 72.34978835 -84.58203125 86.9609375 Z " fill="#FFFFFF" transform="translate(2258,76)"/>
<path d="M0 0 C1.15218018 0.27408691 1.15218018 0.27408691 2.32763672 0.55371094 C21.95733875 5.31930334 40.00284601 14.41053756 55 28 C55.55623047 28.50257324 56.11246094 29.00514648 56.68554688 29.52294922 C65.04138462 37.20160997 71.77147409 45.53765076 78 55 C78.55042969 55.79277344 79.10085938 56.58554688 79.66796875 57.40234375 C97.48589234 84.58303684 98.31850597 117.29379219 98.22705078 148.5847168 C98.22536507 151.31654978 98.22671781 154.04837938 98.22793579 156.7802124 C98.22897618 162.62287437 98.22278915 168.46549111 98.21146011 174.30814171 C98.19509176 182.75525811 98.18998562 191.202353 98.18748413 199.64948354 C98.18312464 213.35984056 98.16986335 227.07017357 98.15087891 240.78051758 C98.13247461 254.08585491 98.11834048 267.39118568 98.10986328 280.6965332 C98.10933783 281.51893923 98.10881239 282.34134526 98.10827102 283.18867268 C98.10566063 287.31511833 98.10313329 291.44156402 98.10064721 295.56800973 C98.07996918 329.71202779 98.04312912 363.85600109 98 398 C75.56 398 53.12 398 30 398 C29.98018066 390.35497314 29.96036133 382.70994629 29.93994141 374.83325195 C29.87496976 350.30004349 29.80042672 325.76687293 29.71994839 301.23371072 C29.70743131 297.41532887 29.69499826 293.59694675 29.68261719 289.77856445 C29.68015119 289.01847559 29.6776852 288.25838673 29.67514448 287.47526487 C29.63554997 275.20952976 29.60274414 262.94378559 29.57250018 250.67802427 C29.54125447 238.06808751 29.50259038 225.45818879 29.45720994 212.84829491 C29.42949462 205.08347038 29.40738926 197.31867329 29.39273749 189.55381294 C29.38082978 183.57384408 29.35854137 177.59395714 29.33261681 171.61403084 C29.32363107 169.17983749 29.31787218 166.74562948 29.31578636 164.31142044 C29.53749048 118.86998518 29.53749048 118.86998518 8.90234375 79.77734375 C-4.37183429 67.25232567 -21.12704848 64.38045194 -38.77001953 64.60009766 C-53.89982399 65.0515454 -68.79676655 69.86575898 -79.91015625 80.5859375 C-101.15601973 105.12788821 -101.29249432 137.83648503 -101.31884766 168.56518555 C-101.32816642 171.08027461 -101.33833792 173.59536063 -101.34928894 176.11044312 C-101.37080057 181.48490689 -101.38649556 186.85933513 -101.39665604 192.23383141 C-101.41135608 200.00405951 -101.436923 207.77422334 -101.46498732 215.54441331 C-101.51025188 228.15662621 -101.54694981 240.76884848 -101.578125 253.38110352 C-101.60839448 265.61940144 -101.64278272 277.85767658 -101.68261719 290.09594727 C-101.68507874 290.85263939 -101.68754028 291.60933152 -101.69007643 292.38895371 C-101.70245265 296.18575004 -101.71490887 299.98254611 -101.72740483 303.77934206 C-101.8306675 335.1862009 -101.91836755 366.59307563 -102 398 C-124.44 398 -146.88 398 -170 398 C-170 267.65 -170 137.3 -170 3 C-147.56 3 -125.12 3 -102 3 C-102 6.3 -102 9.6 -102 13 C-100.43765625 12.22076172 -100.43765625 12.22076172 -98.84375 11.42578125 C-89.10723105 6.65264078 -79.50447692 2.7115108 -69 0 C-67.81664062 -0.3196875 -66.63328125 -0.639375 -65.4140625 -0.96875 C-45.11502006 -5.48894914 -20.1267775 -5.14661652 0 0 Z " fill="#FFFFFF" transform="translate(925,76)"/>
<path d="M0 0 C22.44 0 44.88 0 68 0 C68.01458252 7.91355469 68.02916504 15.82710938 68.04418945 23.98046875 C68.09302309 49.34670846 68.1564532 74.71289173 68.22898628 100.07907408 C68.24025345 104.02406991 68.25139206 107.96906609 68.26245117 111.9140625 C68.26465486 112.69938783 68.26685854 113.48471317 68.269129 114.29383624 C68.3044305 126.9832749 68.32933488 139.67271352 68.35034702 152.36218297 C68.37216618 165.39812236 68.40527423 178.43399844 68.44870156 191.46988392 C68.47511334 199.5034461 68.49288565 207.53692951 68.49934604 215.57053292 C68.50526015 221.74718835 68.52693649 227.92370038 68.55427551 234.10029602 C68.56302318 236.62205259 68.56678516 239.14383252 68.56500816 241.66560364 C68.55254303 267.53227746 71.16029301 293.09969873 89.76953125 312.96875 C102.98585754 325.00463383 119.51673942 329.39211312 136.98828125 329.1484375 C153.85907341 328.31693283 169.53340833 323.46690506 181.37890625 310.96484375 C189.46426982 301.16499344 193.73000929 289.41372888 196.25 277.125 C196.41322754 276.33561035 196.57645508 275.5462207 196.74462891 274.73291016 C199.65666563 259.40982875 199.16729587 243.71223049 199.20532227 228.18603516 C199.21491569 225.6913894 199.2249266 223.19674521 199.23532104 220.70210266 C199.25666414 215.35647742 199.27513825 210.01085439 199.29092598 204.66521072 C199.31375673 196.93655876 199.34188025 189.20793297 199.37124526 181.4793034 C199.41876063 168.93640921 199.46206764 156.39350423 199.50268555 143.85058594 C199.54212263 131.67512169 199.58356816 119.49966698 199.62768555 107.32421875 C199.63177196 106.19617112 199.63177196 106.19617112 199.63594092 105.04533465 C199.64962175 101.27215339 199.66334175 97.49897227 199.67708123 93.72579122 C199.79079341 62.48387963 199.89687484 31.24194877 200 0 C222.44 0 244.88 0 268 0 C268.04421897 31.93255734 268.08109765 63.8650846 268.10213066 95.79766342 C268.10463161 99.58084793 268.1072203 103.36403238 268.10986328 107.1472168 C268.11065021 108.27680438 268.11065021 108.27680438 268.11145304 109.42921192 C268.12011902 121.56940272 268.13586764 133.70957428 268.15430559 145.84975373 C268.17311125 158.33764029 268.18413908 170.82551688 268.18817699 183.31341702 C268.19090012 190.99841185 268.19945099 198.68335226 268.21583293 206.36833031 C268.22780987 212.29433881 268.22888482 218.22032047 268.22621536 224.14634132 C268.2267589 226.55306708 268.23064603 228.95979519 268.23841095 231.36650848 C268.30023468 251.54379196 268.06540269 272.13906144 263.75 291.9375 C263.42249756 293.4829248 263.42249756 293.4829248 263.08837891 295.05957031 C255.90183231 327.76268043 238.98947568 358.34361863 210.39453125 376.98046875 C174.63689064 398.25400177 131.99011111 401.99524366 91.8515625 392.23071289 C60.98462878 384.13385889 36.35110751 365.3934673 20.09521484 337.93603516 C12.38182774 324.30091261 7.1201435 309.8502669 3.8125 294.5625 C3.65749023 293.84852051 3.50248047 293.13454102 3.34277344 292.39892578 C-0.0402764 275.7379581 -0.27785335 259.43233571 -0.22705078 242.49023438 C-0.22648575 239.83765761 -0.22671729 237.1850919 -0.22793579 234.53251648 C-0.22897765 228.85186357 -0.2227749 223.17125708 -0.21146011 217.49061584 C-0.1951122 209.27766408 -0.18998767 201.06473446 -0.18748413 192.8517682 C-0.1831215 179.52242263 -0.16985152 166.19310173 -0.15087891 152.86376953 C-0.13248286 139.92594525 -0.11834465 126.98812771 -0.10986328 114.05029297 C-0.10933783 113.25099473 -0.10881239 112.4516965 -0.10827102 111.62817711 C-0.10566069 107.61779213 -0.10313333 103.60740711 -0.10064721 99.59702206 C-0.07995935 66.39799284 -0.04311387 33.19900955 0 0 Z " fill="#FFFFFF" transform="translate(1425,79)"/>
<path d="M0 0 C21.45 0 42.9 0 65 0 C69.5256698 6.46524258 73.78096932 12.78713196 77.75 19.5625 C81.49022569 25.87058066 85.29688634 32.1133531 89.3125 38.25 C93.77534436 45.07134442 98.12598671 51.95699331 102.4375 58.875 C106.93811664 66.09632839 111.44796841 73.31095604 116 80.5 C121.1770083 88.67902413 126.30799344 96.886341 131.43359375 105.09765625 C135.27149062 111.24300031 139.125222 117.37785077 143 123.5 C147.60511452 130.77809 152.18408234 138.07225496 156.75 145.375 C157.35199219 146.33728516 157.95398438 147.29957031 158.57421875 148.29101562 C163.08272168 155.50757994 167.54011299 162.75268361 172 170 C172.495 85.85 172.495 85.85 173 0 C193.13 0 213.26 0 234 0 C234 93.72 234 187.44 234 284 C213.87 284 193.74 284 173 284 C167 274.5 161 265 155 255.5 C154.4416748 254.61610596 153.88334961 253.73221191 153.30810547 252.8215332 C150.89433411 249.00025101 148.48148417 245.17839191 146.0703125 241.35546875 C140.73116745 232.89235585 135.37559801 224.44001252 130 216 C124.13367474 206.78951614 118.29326982 197.56300997 112.46777344 188.32666016 C109.98016643 184.38339755 107.48993586 180.44179232 105 176.5 C103.99998776 174.9166744 102.99998775 173.33334107 102 171.75 C101.505 170.96625 101.01 170.1825 100.5 169.375 C92.25 156.3125 92.25 156.3125 84 143.25 C83.50411377 142.46488037 83.00822754 141.67976074 82.49731445 140.87084961 C81.50614358 139.30142839 80.51509364 137.73193079 79.52416992 136.16235352 C76.89011605 131.99050192 74.25343741 127.82033664 71.61328125 123.65234375 C71.06091797 122.77964844 70.50855469 121.90695312 69.93945312 121.0078125 C68.87511529 119.3263376 67.81004069 117.64532878 66.74414062 115.96484375 C66.26783203 115.21203125 65.79152344 114.45921875 65.30078125 113.68359375 C64.87966064 113.01900146 64.45854004 112.35440918 64.0246582 111.66967773 C63 110 63 110 62 108 C61.67 166.08 61.34 224.16 61 284 C40.87 284 20.74 284 0 284 C0 190.28 0 96.56 0 0 Z " fill="#FFFFFF" transform="translate(505,591)"/>
<path d="M0 0 C25.08 0 50.16 0 76 0 C78.495625 7.363125 80.99125 14.72625 83.5625 22.3125 C89.05235575 38.48435158 94.5932366 54.63580286 100.25 70.75 C106.69916645 89.12504621 112.95192184 107.56466384 119.18032074 126.01534653 C125.71990058 145.38712285 132.32792241 164.73222249 139.11914062 184.01757812 C143.20670815 195.63685901 147.13702919 207.30415449 151 219 C154.78206048 210.29286441 157.99166078 201.46698714 160.9921875 192.46484375 C161.45893754 191.0757566 161.92613231 189.68681883 162.39373779 188.29801941 C163.38055568 185.36505486 164.36500652 182.43131215 165.34747314 179.49688721 C167.93440369 171.77164083 170.53788311 164.05196167 173.140625 156.33203125 C173.52660543 155.186562 173.52660543 155.186562 173.92038345 154.01795197 C178.07478162 141.69168234 182.30577278 129.3945827 186.625 117.125 C190.87634976 105.04134251 195.05584951 92.93519558 199.16015625 80.80078125 C199.50075199 79.79394917 199.50075199 79.79394917 199.84822845 78.76677704 C201.89620302 72.71121516 203.94211667 66.65496055 205.9800415 60.5960083 C212.79834915 40.32565792 219.88077306 20.171143 227 0 C252.08 0 277.16 0 303 0 C302.30126492 3.49367539 301.61509411 6.33326622 300.41210938 9.61108398 C300.08596649 10.50518982 299.75982361 11.39929565 299.42379761 12.32049561 C299.0673819 13.28594299 298.71096619 14.25139038 298.34375 15.24609375 C297.97001251 16.26721252 297.59627502 17.2883313 297.21121216 18.34039307 C295.9777351 21.70742555 294.7389415 25.07247479 293.5 28.4375 C292.63174084 30.80369771 291.76374292 33.1699913 290.89599609 35.53637695 C284.46180333 53.0712342 277.99182197 70.59295423 271.50799561 88.10951233 C266.15645613 102.56729052 260.82711679 117.03320791 255.5 131.5 C248.83753809 149.59161821 242.16557176 167.67966565 235.47851562 185.76220703 C229.47279258 202.00339805 223.48414409 218.25084684 217.5 234.5 C210.83771604 252.59055243 204.1668461 270.67787443 197.47952271 288.75918579 C192.80889642 301.38828871 188.14893661 314.02127336 183.49790955 326.65760803 C179.94462588 336.31139069 176.38779591 345.96386125 172.82826233 355.61534119 C170.73023355 361.30445515 168.63386309 366.99416548 166.54199219 372.68554688 C164.65275946 377.82531691 162.75840605 382.96316846 160.8598938 388.09951782 C160.16691362 389.97719307 159.47586304 391.85558169 158.78683472 393.73471069 C157.84865188 396.29250008 156.90374461 398.84770191 155.95703125 401.40234375 C155.68410248 402.15147034 155.41117371 402.90059692 155.12997437 403.67242432 C153.22826256 408.77173744 153.22826256 408.77173744 151 411 C146.38745307 400.50776976 142.55222368 389.7341107 138.64825439 378.96426392 C136.5390085 373.14695801 134.41971602 367.33331362 132.30078125 361.51953125 C131.86219788 360.31574326 131.4236145 359.11195526 130.97174072 357.87168884 C126.40042182 345.33552775 121.76732737 332.82250399 117.125 320.3125 C115.44896231 315.79436592 113.77320178 311.27612912 112.09765625 306.7578125 C111.67949646 305.63023026 111.26133667 304.50264801 110.83050537 303.34089661 C106.05663788 290.46301608 101.30840818 277.5757054 96.5625 264.6875 C96.12911316 263.5106665 95.69572632 262.33383301 95.24920654 261.12133789 C93.05205035 255.15490214 90.85524744 249.18833641 88.65869141 243.22167969 C84.19057942 231.08475175 79.72057327 218.94852153 75.25 206.8125 C74.81052032 205.6194223 74.37104065 204.4263446 73.91824341 203.19711304 C67.78181203 186.5391052 61.63471011 169.88507871 55.47741699 153.23477173 C49.47205494 136.9945896 43.48382548 120.74812865 37.5 104.5 C31.3039168 87.67596288 25.10383119 70.8534287 18.88839722 54.03652954 C17.83079702 51.17451433 16.77386132 48.31225444 15.71704102 45.44995117 C12.73672221 37.38094873 9.74868902 29.31516519 6.7265625 21.26171875 C6.24233456 19.96797253 5.7581996 18.6741915 5.27416992 17.38037109 C4.41660515 15.09133885 3.55513158 12.80376501 2.6887207 10.51806641 C2.14477661 9.064729 2.14477661 9.064729 1.58984375 7.58203125 C1.27909912 6.75936768 0.96835449 5.9367041 0.64819336 5.08911133 C0 3 0 3 0 0 Z " fill="#FFFFFF" transform="translate(0,79)"/>
<path d="M0 0 C22.44 0 44.88 0 68 0 C68 26.07 68 52.14 68 79 C99.35 79 130.7 79 163 79 C163 101.44 163 123.88 163 147 C131.65 147 100.3 147 68 147 C68.09072413 180.48346065 68.09072413 180.48346065 68.20898438 213.96679688 C68.26335684 227.63206761 68.31477461 241.29730173 68.34643555 254.96264648 C68.36951374 264.91749712 68.40302017 274.87225068 68.44870156 284.82702416 C68.47250212 290.09093296 68.49131671 295.3547464 68.49761391 300.61870766 C68.50372494 305.588676 68.52393777 310.55840076 68.55427551 315.52827835 C68.56296046 317.33763236 68.56679854 319.14701832 68.56500816 320.95639229 C68.54818553 345.83606784 71.7740829 371.90876469 89.65625 390.71484375 C102.06872578 402.81700763 117.65525281 408.0307953 134.875 408.25 C139.94094659 408.09625352 144.96874544 407.5925686 150 407 C153.35197524 419.06198588 156.24342075 431.22213615 159.05639648 443.41967773 C159.82030492 446.72123226 160.59670741 450.01970884 161.37304688 453.31835938 C161.86014673 455.42430082 162.34650272 457.53041448 162.83203125 459.63671875 C163.06525589 460.6189592 163.29848053 461.60119965 163.53877258 462.61320496 C163.74616562 463.52548355 163.95355865 464.43776215 164.16723633 465.37768555 C164.35280594 466.17627487 164.53837555 466.9748642 164.72956848 467.7976532 C165.0191865 470.15625147 164.72462347 471.75398571 164 474 C124.47150435 478.66511224 82.26666765 476.06887733 49.6875 450.625 C24.48939752 430.26113287 10.21780192 402.36496932 3.6875 370.9375 C3.54006348 370.23246338 3.39262695 369.52742676 3.24072266 368.80102539 C0.26299924 352.99256056 -0.29493082 336.95948299 -0.22705078 320.92089844 C-0.22648468 319.00664272 -0.2268071 317.09238657 -0.22793579 315.1781311 C-0.22850254 310.05134038 -0.21685984 304.92464593 -0.20278788 299.79787731 C-0.19016574 294.41410516 -0.18910107 289.03033007 -0.18673706 283.64654541 C-0.18055568 273.48280789 -0.16419076 263.31911412 -0.14403808 253.15539575 C-0.1215742 241.5711198 -0.11065944 229.98684162 -0.10064721 218.40254927 C-0.07982103 194.60166978 -0.04318729 170.80085015 0 147 C-15.51 147 -31.02 147 -47 147 C-47 124.56 -47 102.12 -47 79 C-31.49 79 -15.98 79 0 79 C0 52.93 0 26.86 0 0 Z " fill="#FFFFFF" transform="translate(1164,0)"/>
<path d="M0 0 C22.11 0 44.22 0 67 0 C67 133.98 67 267.96 67 406 C100 406 133 406 167 406 C167 428.44 167 450.88 167 474 C111.89 474 56.78 474 0 474 C0 317.58 0 161.16 0 0 Z " fill="#FFFFFF" transform="translate(2583,0)"/>
<path d="M0 0 C0.72411072 0.00021149 1.44822144 0.00042297 2.1942749 0.00064087 C14.1829824 0.03548696 25.43699551 1.09647359 37 4.375 C38.25425781 4.70242187 39.50851562 5.02984375 40.80078125 5.3671875 C50.69127158 8.27802998 59.67240669 13.00870609 68.73828125 17.8515625 C69.51212158 18.26486816 70.28596191 18.67817383 71.08325195 19.10400391 C73 20.375 73 20.375 75 23.375 C63.09448027 41.7702848 51.04342145 60.06986373 39 78.375 C35.23192346 77.15197122 31.84317395 75.85035883 28.375 73.9375 C13.9441158 66.73271586 -4.44601653 65.93536575 -19.9609375 70.28515625 C-36.02601936 76.04628458 -47.90740468 85.14443186 -56 100.375 C-56.70576172 101.70144531 -56.70576172 101.70144531 -57.42578125 103.0546875 C-63.70234927 115.83000294 -65.14480136 129.51151078 -65.15821838 143.54931641 C-65.16315636 144.65462739 -65.16809434 145.75993837 -65.17318195 146.89874363 C-65.18850342 150.59134846 -65.19690307 154.28393597 -65.20532227 157.9765625 C-65.214905 160.62795765 -65.22487261 163.27934875 -65.23532104 165.93074036 C-65.25702804 171.63333419 -65.27519349 177.33593038 -65.29092598 183.0385437 C-65.31367743 191.28347646 -65.34181281 199.52838399 -65.37124526 207.77329528 C-65.41885666 221.15142398 -65.46213824 234.52956301 -65.50268555 247.90771484 C-65.54207336 260.90023604 -65.58350742 273.89274807 -65.62768555 286.88525391 C-65.63040982 287.68665393 -65.63313409 288.48805395 -65.63594092 289.31373882 C-65.64962094 293.33428903 -65.6633411 297.3548391 -65.67708123 301.3753891 C-65.79094461 334.70857469 -65.89697655 368.0417787 -66 401.375 C-88.44 401.375 -110.88 401.375 -134 401.375 C-134 271.025 -134 140.675 -134 6.375 C-111.56 6.375 -89.12 6.375 -66 6.375 C-65.505 11.325 -65.505 11.325 -65 16.375 C-63.25589844 15.48748047 -63.25589844 15.48748047 -61.4765625 14.58203125 C-53.35014621 10.53636829 -45.33961813 6.83325126 -36.5625 4.4375 C-35.87945801 4.25098877 -35.19641602 4.06447754 -34.49267578 3.87231445 C-32.33671448 3.32087898 -30.17742891 2.83452084 -28 2.375 C-27.12843262 2.19098633 -26.25686523 2.00697266 -25.35888672 1.81738281 C-16.92385856 0.22060508 -8.55683748 -0.02313585 0 0 Z " fill="#FFFFFF" transform="translate(1963,72.625)"/>
<path d="M0 0 C19.66222964 -0.08021762 19.66222964 -0.08021762 28.171875 -0.09765625 C33.93363215 -0.10952051 39.69532458 -0.12341275 45.45703125 -0.15087891 C50.11253814 -0.17292786 54.76797542 -0.18463462 59.42353058 -0.18975449 C61.18214257 -0.19339371 62.94075162 -0.20049588 64.69933319 -0.21146011 C93.01607647 -0.38066363 121.33680509 2.34894964 144 21 C144.77730469 21.60328125 145.55460937 22.2065625 146.35546875 22.828125 C161.46713184 35.20876464 169.914611 54.84624253 172.09909058 73.93125916 C172.18424514 74.67143813 172.2693997 75.41161711 172.3571347 76.17422575 C173.17131639 83.77205123 173.26816622 91.33848913 173.22705078 98.97485352 C173.22648448 100.48473096 173.22680748 101.99460895 173.22793579 103.50448608 C173.22850177 107.54265699 173.21687204 111.58070529 173.20278788 115.61884809 C173.19015246 119.86152833 173.18910005 124.10421241 173.18673706 128.34690857 C173.18055948 136.35391928 173.16419991 144.36087435 173.14403808 152.36786073 C173.12156212 161.49503839 173.11065645 170.62221892 173.10064721 179.74941742 C173.07982969 198.49964297 173.04472737 217.24981699 173 236 C157.74340514 236.04691973 142.48681363 236.08208601 127.23016262 236.10362434 C120.14470939 236.11389503 113.05930123 236.12787388 105.97387695 236.15087891 C99.79133399 236.17094271 93.60882371 236.18374692 87.42624909 236.18817699 C84.15887498 236.19076262 80.89161497 236.1978335 77.62426567 236.21146011 C50.169159 236.321334 22.40456892 235.18917059 1.6953125 214.796875 C-13.71476202 198.806131 -17.6379334 181.36915911 -17.47021484 159.64135742 C-17.01354339 140.80427048 -11.18197818 125.18684541 2.171875 111.66015625 C19.52559694 95.33711117 41.79047785 90.62301759 64.953125 90.8046875 C66.34844762 90.8084288 67.74377291 90.81127047 69.13909912 90.81326294 C72.7689368 90.82081166 76.39860826 90.84038203 80.02838135 90.8626709 C83.74936679 90.88332089 87.47037973 90.89230513 91.19140625 90.90234375 C98.46101236 90.92363851 105.73048268 90.95766504 113 91 C112.5999712 88.16343215 112.1805646 85.33196099 111.75 82.5 C111.64042969 81.70851563 111.53085938 80.91703125 111.41796875 80.1015625 C110.20551743 72.31634873 107.22491352 64.1991377 101 59 C88.09191866 51.00655111 75.48238524 50.6857707 60.7421875 50.5859375 C58.98527139 50.56719815 57.22836402 50.54762274 55.47146606 50.5272522 C50.87834863 50.47621702 46.2852021 50.43643934 41.69195557 50.39910889 C36.16421094 50.35179974 30.6366074 50.29032605 25.10897827 50.23126221 C16.7393767 50.14339936 8.36979737 50.07338539 0 50 C0 33.5 0 17 0 0 Z M46.15625 151.25390625 C42.18811488 157.24632652 42.17947567 162.9282645 43 170 C45.56036546 176.90089917 50.87704355 181.53633496 57.453125 184.6184082 C62.8799631 186.57282838 68.23227143 186.37520016 73.9375 186.29296875 C75.61851807 186.28660149 75.61851807 186.28660149 77.33349609 186.28010559 C80.88924874 186.26340311 84.44442059 186.22576568 88 186.1875 C90.42056469 186.17244231 92.84113833 186.1587558 95.26171875 186.14648438 C101.17487929 186.11608773 107.08679468 186.0573479 113 186 C113 171.15 113 156.3 113 141 C105.77649492 140.88481299 98.55621343 140.78538713 91.33251953 140.7253418 C88.87863327 140.70029555 86.42482087 140.66624867 83.97119141 140.62280273 C80.431129 140.56171761 76.8920583 140.53368988 73.3515625 140.51171875 C72.26573883 140.48591232 71.17991516 140.4601059 70.06118774 140.43351746 C60.11146043 140.42990554 52.43508424 143.35060618 46.15625 151.25390625 Z " fill="#FFFFFF" transform="translate(1691,639)"/>
<path d="M0 0 C14.68324834 -0.04698914 29.36648656 -0.08211937 44.04979515 -0.10362434 C50.86948555 -0.11388059 57.6891289 -0.12783093 64.50878906 -0.15087891 C71.10295047 -0.17315391 77.69708158 -0.18460389 84.29127884 -0.18975449 C86.79396962 -0.19342016 89.29665805 -0.2005773 91.79932785 -0.21146011 C127.62629957 -0.36090916 127.62629957 -0.36090916 141.9375 4.25 C142.63367432 4.46615967 143.32984863 4.68231934 144.04711914 4.9050293 C160.45013463 10.23093026 174.58891445 21.29728478 182.75 36.5625 C191.58177981 54.97275544 193.70591913 78.13375954 187.3125 97.69140625 C179.95084648 116.24890783 168.86390213 129.7161133 150.4375 138.25 C131.68043998 145.48364073 113.44712459 145.51452761 93.63250732 145.2746582 C89.83061741 145.23313108 86.02861567 145.21534286 82.2265625 145.1953125 C74.81741007 145.15290274 67.40879978 145.08498474 60 145 C60.44329326 148.05901295 60.90192891 151.11553782 61.36328125 154.171875 C61.55041687 155.46520752 61.55041687 155.46520752 61.74133301 156.78466797 C63.16888338 166.13433851 66.27572454 172.43766561 73.68359375 178.49609375 C81.65948005 183.67436732 90.68008884 185.13275499 100.00317383 185.20532227 C100.79394318 185.21522186 101.58471252 185.22512146 102.39944458 185.23532104 C105.00194346 185.26679926 107.60446057 185.29163914 110.20703125 185.31640625 C112.0159298 185.3369876 113.82482366 185.35798438 115.63371277 185.37937927 C120.38638509 185.43447797 125.13909993 185.4839409 129.8918457 185.53222656 C135.59880965 185.59138092 141.30569617 185.65754155 147.01259613 185.72252655 C155.67501665 185.82038248 164.33748766 185.90934356 173 186 C173 202.5 173 219 173 236 C152.13004954 236.12032643 152.13004954 236.12032643 143.09960938 236.14648438 C136.98453775 236.16428277 130.86960332 236.1851264 124.75463867 236.22631836 C119.8138296 236.25938517 114.87316805 236.2769505 109.9322567 236.28463173 C108.06560639 236.29009175 106.19896235 236.30074761 104.33237648 236.31719017 C76.18349569 236.55484393 47.67982907 232.55361115 26 213 C25.31550781 212.40832031 24.63101562 211.81664062 23.92578125 211.20703125 C7.933005 196.4710547 0.77395338 174.58456846 -0.16100693 153.34185028 C-0.43877138 143.38870006 -0.35498762 133.4277136 -0.30418181 123.47204161 C-0.28521991 119.11993555 -0.28364941 114.76782093 -0.28010559 110.41567993 C-0.27084171 102.20325806 -0.24630594 93.99095833 -0.21605712 85.77858984 C-0.1823352 76.41682009 -0.16598272 67.05504401 -0.15097082 57.69322848 C-0.11975022 38.4620835 -0.06710185 19.23105163 0 0 Z M60 50 C60 65.18 60 80.36 60 96 C67.54875 96.061875 75.0975 96.12375 82.875 96.1875 C86.41903564 96.22846802 86.41903564 96.22846802 90.03466797 96.27026367 C91.9371693 96.27903715 93.83967633 96.28667904 95.7421875 96.29296875 C97.18766968 96.3159906 97.18766968 96.3159906 98.66235352 96.33947754 C107.51648846 96.34284584 116.05439278 94.84062425 123 89 C128.40599356 82.71632749 130.3765043 78.19597317 130.27734375 69.85546875 C129.72600911 64.1790515 127.37057001 59.95265025 123.125 56.1875 C116.85952904 51.80167033 111.55093521 49.86679345 103.93432617 49.88647461 C102.46336739 49.88658791 102.46336739 49.88658791 100.96269226 49.88670349 C99.39367912 49.89444542 99.39367912 49.89444542 97.79296875 49.90234375 C96.17217155 49.90446617 96.17217155 49.90446617 94.51863098 49.90663147 C91.07489224 49.9122192 87.63121902 49.9247695 84.1875 49.9375 C81.84961032 49.94251658 79.51171961 49.94707921 77.17382812 49.95117188 C71.44917332 49.96133278 65.72465983 49.98091073 60 50 Z " fill="#FFFFFF" transform="translate(1066,639)"/>
<path d="M0 0 C115.53565769 0 115.53565769 0 139 22 C153.00555663 36.50494439 159.7287898 54.59173772 162.8125 74.1875 C162.93665283 74.97020264 163.06080566 75.75290527 163.1887207 76.55932617 C164.16630119 83.52936681 164 89.77520805 164 97 C144.2 97 124.4 97 104 97 C103.01 88.09 103.01 88.09 102 79 C99.60551977 69.33656193 96.89613417 61.06274963 89.0625 54.5625 C79.40785718 49.63666183 71.36386173 50.59809799 60 50 C60 111.38 60 172.76 60 236 C40.2 236 20.4 236 0 236 C0 158.12 0 80.24 0 0 Z " fill="#FFFFFF" transform="translate(1303,639)"/>
<path d="M0 0 C116.47875354 0 116.47875354 0 140 23 C158.26959016 43.54617461 164 70.21007763 164 97 C144.2 97 124.4 97 104 97 C103.01 89.74 102.02 82.48 101 75 C98.38800499 66.03215046 95.75013993 58.92180206 87.4375 54.125 C78.44258859 49.41709143 71.06733021 50.58249106 60 50 C60 111.38 60 172.76 60 236 C40.2 236 20.4 236 0 236 C0 158.12 0 80.24 0 0 Z " fill="#FFFFFF" transform="translate(1497,639)"/>
<path d="M0 0 C1.70800289 1.70800289 1.17235457 3.84601707 1.1875 6.1875 C1.13170562 16.16353529 0.00412794 26.08290133 -1 36 C-4.43642384 34.69026865 -7.7159343 33.17065404 -11.00976562 31.5378418 C-37.04957497 18.79401364 -70.59538858 16.54684409 -98.19824219 25.73144531 C-120.35770545 33.77930885 -136.61331658 49.38644652 -146.8125 70.5 C-157.40329585 95.5161902 -157.71265666 123.65723731 -148 149 C-144.01362096 158.24285234 -138.76419024 166.52852752 -132 174 C-130.95199219 175.16982422 -130.95199219 175.16982422 -129.8828125 176.36328125 C-124.52933528 182.03110855 -118.76998966 186.16827796 -112 190 C-111.06285156 190.53625 -110.12570313 191.0725 -109.16015625 191.625 C-95.12085585 199.16287941 -80.44879981 201.18767158 -64.6875 201.25 C-63.42615234 201.270625 -62.16480469 201.29125 -60.86523438 201.3125 C-50.61951177 201.35404373 -42.44230609 199.8427599 -32 198 C-31.505 163.35 -31.505 163.35 -31 128 C-47.17 128 -63.34 128 -80 128 C-80 118.76 -80 109.52 -80 100 C-52.28 100 -24.56 100 4 100 C4 140.59 4 181.18 4 223 C-10.90631083 226.88860282 -24.83067288 230.34276339 -40 232 C-41.16917969 232.13148438 -42.33835937 232.26296875 -43.54296875 232.3984375 C-82.25604539 235.88780129 -120.90270867 230.7079909 -152 206 C-153.22396484 205.05060547 -153.22396484 205.05060547 -154.47265625 204.08203125 C-177.35043255 185.15843851 -188.93403814 154.76506814 -192 126 C-192.28076632 120.91268694 -192.33476125 115.84432889 -192.3125 110.75 C-192.31034485 110.07401764 -192.3081897 109.39803528 -192.30596924 108.7015686 C-192.13823883 75.79683718 -181.3800126 46.54240459 -158.25 22.8125 C-117.52208699 -17.27536563 -51.0170473 -18.2981143 0 0 Z " fill="#FFFFFF" transform="translate(2206,646)"/>
<path d="M0 0 C19.8 0 39.6 0 60 0 C60 15.84 60 31.68 60 48 C76.5 48 93 48 110 48 C110 64.5 110 81 110 98 C93.5 98 77 98 60 98 C60.09086098 116.77355226 60.09086098 116.77355226 60.20898438 135.546875 C60.26323462 143.2079888 60.31434785 150.86903058 60.34643555 158.53027344 C60.37251717 164.70956447 60.41295448 170.8886126 60.46318626 177.06775284 C60.47982204 179.4207163 60.49135673 181.77372174 60.49761391 184.12673569 C60.50729058 187.43224065 60.53539345 190.73712877 60.56762695 194.04248047 C60.56619186 195.00705673 60.56475677 195.971633 60.5632782 196.96543884 C60.70110526 207.01336382 63.13093665 216.41934235 70 224 C81.69135906 233.5448172 95.30430169 233.18357232 110 234 C110 250.5 110 267 110 284 C78.54641868 284 51.63441267 282.35825047 27 262 C26.16855469 261.35933594 25.33710937 260.71867187 24.48046875 260.05859375 C13.18070371 250.68067851 5.5004907 235.07127946 2 221 C1.83283037 220.34185397 1.66566074 219.68370794 1.49342537 219.0056181 C-0.63654903 209.24947477 -0.26507959 199.40281759 -0.22705078 189.47387695 C-0.22648593 187.40331528 -0.22680467 185.33275321 -0.22793579 183.26219177 C-0.22850741 177.66794476 -0.21678404 172.07378426 -0.20278788 166.47955728 C-0.19024864 160.6232728 -0.1891075 154.76698614 -0.18673706 148.91069031 C-0.18053166 137.83292303 -0.16413358 126.75519543 -0.14403808 115.67744559 C-0.12164979 103.06074927 -0.11067829 90.44405102 -0.10064721 77.82733977 C-0.07976651 51.88486614 -0.04310203 25.94244688 0 0 Z " fill="#FFFFFF" transform="translate(911,591)"/>
<path d="M0 0 C18.90293033 14.38216233 28.72788118 35.25061669 32.3125 58.3125 C35.51156033 87.44240515 31.72670093 120.59052211 13.07324219 144.33496094 C0.93469843 158.9200329 -15.20182209 167.06000648 -34 169 C-53.36593315 170.36969272 -71.4572382 166.89853532 -87.33203125 155.35546875 C-90.87212076 152.23003102 -93.8903104 148.55393097 -97 145 C-97.33 174.7 -97.66 204.4 -98 235 C-108.89 235 -119.78 235 -131 235 C-131 155.14 -131 75.28 -131 -7 C-120.77 -7 -110.54 -7 -100 -7 C-99.67 0.26 -99.34 7.52 -99 15 C-96.69 12.36 -94.38 9.72 -92 7 C-68.31365242 -15.77533421 -26.90820567 -18.08419309 0 0 Z M-83 31 C-97.40636548 48.05870021 -99.54361433 69.53818153 -98 91 C-96.3004238 105.65772066 -89.32904784 122.20572513 -78 132 C-66.44535096 140.84408475 -55.29880166 143.27132203 -41 142 C-33.53354811 140.38242107 -27.69073702 137.01269176 -22 132 C-21.39414063 131.48695313 -20.78828125 130.97390625 -20.1640625 130.4453125 C-8.76744015 120.04402835 -2.74878844 102.26405475 -1.82714844 87.16894531 C-0.9845641 64.70238987 -3.10498576 43.39880366 -18.8046875 26 C-27.5735365 17.55861839 -38.94455044 14.66468846 -50.8046875 14.78125 C-64.03012205 15.68665872 -73.96352214 21.62391594 -83 31 Z " fill="#FFFFFF" transform="translate(2937,710)"/>
<path d="M0 0 C1.06605469 0.37382813 2.13210937 0.74765625 3.23046875 1.1328125 C22.5107312 8.51258342 38.99127198 23.41290542 48 42 C51.80679756 51.01472325 54.8490816 60.2545611 56 70 C56.10957031 70.92296875 56.21914062 71.8459375 56.33203125 72.796875 C58.92399242 97.81794019 53.67533314 123.14418913 38.125 143.3125 C36.77502988 144.89667547 35.39917167 146.45910744 34 148 C33.22785156 148.85335937 32.45570313 149.70671875 31.66015625 150.5859375 C26.0186217 156.52158049 20.12904542 160.9937641 13 165 C11.78183594 165.69222656 11.78183594 165.69222656 10.5390625 166.3984375 C-9.82464463 177.2722617 -33.88420283 178.64496033 -56 173 C-68.81812968 169.04949446 -79.94583607 162.84439461 -90 154 C-90.76183594 153.33355469 -91.52367188 152.66710937 -92.30859375 151.98046875 C-110.05319906 135.40448563 -117.65691626 111.76183612 -119.1875 88.1015625 C-119.75123835 64.63595367 -113.10377621 40.46800035 -97 23 C-96.22785156 22.14792969 -95.45570313 21.29585937 -94.66015625 20.41796875 C-71.35986232 -4.13384176 -31.56509878 -11.56756913 0 0 Z M-67.1953125 37.78125 C-80.64125919 54.31219745 -85.57153852 74.02276714 -84 95 C-82.53865119 109.11622361 -77.60511924 122.44700715 -68 133 C-67.4328125 133.63550781 -66.865625 134.27101563 -66.28125 134.92578125 C-57.37600997 144.37747919 -46.3068022 148.97597358 -33.32348633 149.47485352 C-18.13392139 149.6392462 -6.49496515 145.22742547 4.625 134.875 C18.47421834 120.37433759 22.48829577 101.1594747 22.21484375 81.7109375 C21.6074372 63.17183313 14.42129418 46.36716971 0.90625 33.55859375 C-19.57610471 16.81175045 -48.98367309 18.13383819 -67.1953125 37.78125 Z " fill="#FFFFFF" transform="translate(2503,703)"/>
<path d="M0 0 C10.56 0 21.12 0 32 0 C32.029729 4.15178833 32.029729 4.15178833 32.06005859 8.38745117 C32.12748851 17.61548657 32.2051141 26.84341696 32.28752708 36.07133007 C32.33710486 41.65665986 32.38343235 47.24197417 32.421875 52.82739258 C32.45922184 58.23511371 32.50570252 63.64269141 32.55806351 69.05028725 C32.57634913 71.0955175 32.59154806 73.14077816 32.60334396 75.18605614 C32.6658018 85.6581559 32.94481311 96.04615078 33.91650391 106.4777832 C34.03497712 107.75800873 34.03497712 107.75800873 34.15584373 109.0640974 C35.41573557 121.3599638 39.04471502 132.77402025 47.75 141.875 C58.36770185 148.81734352 69.42278039 149.6104906 81.703125 147.3046875 C87.79674795 145.61831278 92.61455617 143.40884348 97.4140625 139.26953125 C99 138 99 138 102 137 C103.06427298 135.15344766 103.06427298 135.15344766 104 133 C104.92340445 131.65686626 105.86203888 130.32412525 106.8125 129 C116.78108138 114.09575515 119.07688861 96.34663688 119.20532227 78.78662109 C119.21522186 77.92684662 119.22512146 77.06707214 119.23532104 76.1812439 C119.26655785 73.37866843 119.29154153 70.5760761 119.31640625 67.7734375 C119.33700857 65.814744 119.35800583 63.85605462 119.37937927 61.89736938 C119.43426172 56.77157959 119.48381849 51.64575195 119.53222656 46.51989746 C119.58269045 41.27755411 119.63824589 36.03526491 119.69335938 30.79296875 C119.80052646 20.52869062 119.90159018 10.26436583 120 0 C130.56 0 141.12 0 152 0 C152 56.76 152 113.52 152 172 C141.77 172 131.54 172 121 172 C120.67 164.08 120.34 156.16 120 148 C118.88625 149.485 117.7725 150.97 116.625 152.5 C105.24650961 166.6332828 89.80685472 173.8410144 72 176 C53.41511417 177.04251787 35.8426487 174.383519 20.89453125 162.6015625 C6.739906 149.87959163 0.86869952 131.6905777 -0.16100693 113.09186935 C-0.41367014 105.05062229 -0.34485512 97.0087273 -0.29296875 88.96484375 C-0.28736169 86.38839466 -0.28309685 83.81194234 -0.28010559 81.23548889 C-0.26989959 75.19400279 -0.24636106 69.15270947 -0.21605712 63.11129528 C-0.18226249 56.22109221 -0.16596482 49.3308802 -0.15097082 42.44061458 C-0.11980202 28.29363922 -0.06489233 14.14685994 0 0 Z " fill="#FFFFFF" transform="translate(2601,703)"/>
<path d="M0 0 C5.28 1.32 10.56 2.64 16 4 C28.75809342 6.1263489 40.5072669 5.27727535 53 2 C55.64 1.34 58.28 0.68 61 0 C61 63.69 61 127.38 61 193 C40.87 193 20.74 193 0 193 C0 129.31 0 65.62 0 0 Z " fill="#FFFFFF" transform="translate(795,682)"/>
<path d="M0 0 C1.42602539 -0.01160156 1.42602539 -0.01160156 2.88085938 -0.0234375 C3.81607422 -0.02085937 4.75128906 -0.01828125 5.71484375 -0.015625 C6.55007568 -0.01336914 7.38530762 -0.01111328 8.24584961 -0.00878906 C11.91372733 0.32820932 15.48914832 1.35666208 19.0625 2.25 C19.0625 11.82 19.0625 21.39 19.0625 31.25 C15.4325 30.59 11.8025 29.93 8.0625 29.25 C-4.42917405 28.19648532 -14.0497517 30.51015208 -23.9375 38.25 C-24.84628906 38.93449219 -24.84628906 38.93449219 -25.7734375 39.6328125 C-37.72529023 49.96224178 -42.51544586 69.23148359 -43.9375 84.25 C-44.08744639 87.36789617 -44.12121847 90.48236253 -44.14282227 93.60351562 C-44.15272186 94.50201233 -44.16262146 95.40050903 -44.17282104 96.32623291 C-44.20418205 99.26954596 -44.22909207 102.2128751 -44.25390625 105.15625 C-44.27449776 107.20748289 -44.29549478 109.25871175 -44.31687927 111.30993652 C-44.37187312 116.68893146 -44.42138176 122.06796323 -44.46972656 127.44702148 C-44.52010801 132.94388071 -44.5757069 138.44068694 -44.63085938 143.9375 C-44.73816317 154.70828958 -44.83918636 165.4791246 -44.9375 176.25 C-55.8275 176.25 -66.7175 176.25 -77.9375 176.25 C-77.9375 119.49 -77.9375 62.73 -77.9375 4.25 C-67.7075 4.25 -57.4775 4.25 -46.9375 4.25 C-46.6075 11.51 -46.2775 18.77 -45.9375 26.25 C-44.82375 24.6 -43.71 22.95 -42.5625 21.25 C-32.06969166 6.87780829 -17.60065285 -0.14261164 0 0 Z " fill="#FFFFFF" transform="translate(2342.9375,698.75)"/>
<path d="M0 0 C8.59614144 5.98994111 13.84803364 14.73906992 16.14453125 24.88671875 C17.85681323 35.35915767 16.07829272 46.13129531 9.83203125 54.9375 C3.30549631 62.69082722 -4.27337569 68.61371821 -14.41796875 70.5625 C-26.52787343 71.44086407 -36.91844999 70.16456456 -46.57421875 62.25 C-54.83132213 54.69265114 -59.71561955 46.3553717 -60.62109375 35.01953125 C-60.81131935 24.28763715 -58.05668123 15.11595692 -51.41796875 6.5625 C-37.44202267 -7.43758416 -17.13246476 -10.18537485 0 0 Z " fill="#FFFFFF" transform="translate(847.41796875,580.4375)"/>
</svg>
