<?xml version="1.0" encoding="UTF-8"?>
<svg version="1.1" xmlns="http://www.w3.org/2000/svg" width="250" height="108">
<path d="M0 0 C2.27594638 0.88153616 3.73504699 1.92246901 5.59667969 3.49707031 C6.26868408 4.05885986 6.94068848 4.62064941 7.63305664 5.19946289 C8.3480835 5.80814209 9.06311035 6.41682129 9.79980469 7.04394531 C11.32935667 8.32436635 12.85931427 9.60430299 14.38964844 10.88378906 C15.16550293 11.53589355 15.94135742 12.18799805 16.74072266 12.85986328 C20.25708154 15.80515775 23.80445849 18.71147931 27.36230469 21.60644531 C28.01618164 22.13874756 28.67005859 22.6710498 29.34375 23.21948242 C35.12920134 27.90436134 41.045688 32.39320069 47.04980469 36.79394531 C52.07609427 33.14453825 56.73513166 29.3522325 61.19042969 25.01660156 C63.04980469 23.79394531 63.04980469 23.79394531 64.95361328 24.05786133 C67.23400936 24.85862934 68.60083547 25.80089172 70.44824219 27.34863281 C71.08503906 27.87521484 71.72183594 28.40179687 72.37792969 28.94433594 C73.39113281 29.79801758 73.39113281 29.79801758 74.42480469 30.66894531 C75.86929762 31.8652481 77.31462451 33.06054456 78.76074219 34.25488281 C79.48358398 34.85397461 80.20642578 35.45306641 80.95117188 36.0703125 C83.94490417 38.52910147 86.99241373 40.91513845 90.04980469 43.29394531 C95.31948511 47.41100249 100.54161155 51.58388502 105.73730469 55.79394531 C106.42115234 56.34630859 107.105 56.89867187 107.80957031 57.46777344 C108.76959961 58.24797852 108.76959961 58.24797852 109.74902344 59.04394531 C110.31451904 59.50285156 110.88001465 59.96175781 111.46264648 60.43457031 C113.07569328 61.81611847 114.56838295 63.27310473 116.04980469 64.79394531 C115.71980469 65.78394531 115.38980469 66.77394531 115.04980469 67.79394531 C112.52915604 68.79731031 110.15446752 69.58127627 107.54980469 70.29394531 C106.41369751 70.61540527 106.41369751 70.61540527 105.25463867 70.94335938 C73.53489905 79.62723978 40.83173239 78.41991955 9.04980469 70.79394531 C-24.30025604 62.79642319 -57.57275775 62.63758709 -90.95019531 70.79394531 C-91.73144531 68.56738281 -91.73144531 68.56738281 -91.95019531 65.79394531 C-90.10644531 63.58300781 -90.10644531 63.58300781 -87.45019531 61.41894531 C-86.061875 60.25105469 -86.061875 60.25105469 -84.64550781 59.05957031 C-83.31132813 57.93808594 -83.31132813 57.93808594 -81.95019531 56.79394531 C-80.72475976 55.60295976 -79.51402068 54.39647663 -78.32519531 53.16894531 C-75.97690641 50.77666036 -73.55415014 48.54258995 -71.01269531 46.35644531 C-68.20443184 43.93776752 -65.55048938 41.43494849 -62.95019531 38.79394531 C-60.37010316 36.17353922 -57.73915924 33.69071119 -54.95019531 31.29394531 C-50.73395439 27.66814444 -46.84123296 23.76263116 -42.95019531 19.79394531 C-41.95132334 18.79281855 -40.95173496 17.7924033 -39.95019531 16.79394531 C-35.95518914 18.16366172 -33.15010039 20.05116953 -29.95019531 22.79394531 C-26.44191616 21.27315458 -23.99747885 19.19437801 -21.20019531 16.60644531 C-20.32363281 15.80335937 -19.44707031 15.00027344 -18.54394531 14.17285156 C-17.68800781 13.3878125 -16.83207031 12.60277344 -15.95019531 11.79394531 C-13.90026193 9.9713813 -11.8393864 8.16405375 -9.76269531 6.37207031 C-8.57788209 5.3404657 -7.41011092 4.28886639 -6.26269531 3.21582031 C-2.44494823 -0.25832953 -2.44494823 -0.25832953 0 0 Z M-1.95019531 4.79394531 C-2.43488281 5.29023437 -2.91957031 5.78652344 -3.41894531 6.29785156 C-8.08493685 11.02665453 -12.89690791 15.48408389 -17.95019531 19.79394531 C-18.62953125 20.37789062 -19.30886719 20.96183594 -20.00878906 21.56347656 C-21.65346132 22.97650484 -23.30146465 24.38565453 -24.95019531 25.79394531 C-23.65975724 29.66525953 -21.99213611 30.48228382 -18.70019531 32.85644531 C-17.59930585 33.660272 -16.49906724 34.46499068 -15.39941406 35.27050781 C-14.82884277 35.6859082 -14.25827148 36.10130859 -13.67041016 36.52929688 C-10.91752459 38.5531327 -8.21531945 40.6412243 -5.51269531 42.73144531 C-4.4202808 43.57393654 -3.32783268 44.41638421 -2.23535156 45.25878906 C-1.69281738 45.67757324 -1.1502832 46.09635742 -0.59130859 46.52783203 C1.0393258 47.78586089 2.67123472 49.04221386 4.30371094 50.29785156 C4.84020264 50.7105127 5.37669434 51.12317383 5.92944336 51.54833984 C7.00348474 52.3739778 8.07786249 53.1991784 9.15258789 54.02392578 C11.99547608 56.20691174 14.82914249 58.40069689 17.65136719 60.61035156 C18.53598633 61.29967773 18.53598633 61.29967773 19.43847656 62.00292969 C20.57000769 62.88498938 21.69904815 63.77025643 22.82519531 64.65917969 C25.24258393 66.5386917 27.11638826 67.81613984 30.04980469 68.79394531 C30.04980469 69.45394531 30.04980469 70.11394531 30.04980469 70.79394531 C42.50065602 72.07027474 54.8404905 73.11157543 67.36230469 72.54394531 C68.27963379 72.505354 69.19696289 72.4667627 70.14208984 72.42700195 C74.34143315 72.1853274 77.32914795 71.87982373 81.04980469 69.79394531 C69.15142732 59.91811718 69.15142732 59.91811718 57.04980469 50.29394531 C51.8086225 46.21485921 46.66463843 42.03028363 41.54980469 37.79394531 C35.86562489 33.08692278 30.13636207 28.45406685 24.30786133 23.92700195 C21.09921325 21.42799872 17.93349552 18.88656723 14.79980469 16.29394531 C14.08187744 15.70170166 13.3639502 15.10945801 12.62426758 14.49926758 C11.23361161 13.3488346 9.84713751 12.19332145 8.46557617 11.03198242 C5.13048811 8.27713097 2.254004 6.09313166 -1.95019531 4.79394531 Z M-41.61035156 24.39160156 C-42.74612355 25.54491964 -43.88012727 26.69998078 -45.01269531 27.85644531 C-49.22975872 32.12401247 -53.48306619 36.23781051 -58.05957031 40.12207031 C-61.08921575 42.80117826 -63.87926994 45.71416076 -66.71582031 48.59472656 C-69.37143593 51.20855802 -72.15781596 53.61947777 -75.02832031 55.99316406 C-77.60009025 58.40289158 -79.73000501 61.05698658 -81.95019531 63.79394531 C-80.71914062 63.57738281 -79.48808594 63.36082031 -78.21972656 63.13769531 C-47.9027798 58.27094403 -16.18831659 59.00687279 13.4362793 67.31225586 C16.07519544 67.79862499 17.54742402 67.67337976 20.04980469 66.79394531 C11.80455535 60.11245016 3.48531467 53.56582001 -5.02954102 47.23095703 C-9.44833927 43.93742277 -13.8129332 40.58495075 -18.13769531 37.16894531 C-18.70069336 36.72437988 -19.26369141 36.27981445 -19.84375 35.82177734 C-20.40223633 35.38075684 -20.96072266 34.93973633 -21.53613281 34.48535156 C-25.09729104 31.67374806 -28.67426343 28.88314299 -32.26269531 26.10644531 C-33.09933716 25.45458252 -33.09933716 25.45458252 -33.95288086 24.78955078 C-37.83763305 21.21202364 -37.83763305 21.21202364 -41.61035156 24.39160156 Z M58.61230469 33.10644531 C57.62359375 33.90695313 56.63488281 34.70746094 55.61621094 35.53222656 C52.91522025 37.71687962 52.91522025 37.71687962 51.04980469 40.79394531 C57.2539697 46.52212941 63.73448176 51.81150404 70.42089844 56.95800781 C72.84622715 58.8294395 75.19982053 60.75763647 77.52246094 62.75488281 C82.93386989 67.56734914 82.93386989 67.56734914 89.47558594 70.29785156 C91.85322926 70.09091635 93.79038657 69.56129486 96.04980469 68.79394531 C98.07043439 68.27232252 100.09127265 67.75150706 102.11230469 67.23144531 C103.76009003 66.75903497 105.40666808 66.28227937 107.04980469 65.79394531 C106.71980469 65.13394531 106.38980469 64.47394531 106.04980469 63.79394531 C106.70980469 63.46394531 107.36980469 63.13394531 108.04980469 62.79394531 C98.12930292 54.69005491 88.16097993 46.65882781 78.04980469 38.79394531 C77.4384668 38.31699219 76.82712891 37.84003906 76.19726562 37.34863281 C74.37956244 35.93160105 72.55900544 34.51833279 70.73730469 33.10644531 C69.90066284 32.45446167 69.90066284 32.45446167 69.04711914 31.78930664 C63.82874823 27.7625776 63.70230774 28.95633879 58.61230469 33.10644531 Z " fill="#7AAD3E" transform="translate(92.9501953125,0.2060546875)"/>
<path d="M0 0 C1.33333333 0.66666667 2.66666667 1.33333333 4 2 C4.5775 2.25394531 5.155 2.50789063 5.75 2.76953125 C8.84004864 4.4594016 11.50854225 6.6202614 14.25 8.8125 C15.15069214 9.52696289 15.15069214 9.52696289 16.06958008 10.25585938 C18.05085856 11.83173194 20.02624818 13.41471181 22 15 C23.07290283 15.86117432 23.07290283 15.86117432 24.16748047 16.73974609 C26.34367075 18.48966733 28.51647602 20.24367436 30.6875 22 C31.37038086 22.55147705 32.05326172 23.1029541 32.75683594 23.67114258 C33.39782227 24.19216553 34.03880859 24.71318848 34.69921875 25.25 C35.26471436 25.70890625 35.83020996 26.1678125 36.4128418 26.640625 C38.02588859 28.02217316 39.51857826 29.47915941 41 31 C40.67 31.99 40.34 32.98 40 34 C37.47935136 35.00336499 35.10466283 35.78733095 32.5 36.5 C31.74259521 36.71430664 30.98519043 36.92861328 30.20483398 37.14941406 C6.56411923 43.62150816 -18.22522966 44.83939056 -42.5 41.6875 C-43.41160889 41.56987305 -44.32321777 41.45224609 -45.26245117 41.33105469 C-51.37348521 40.44845636 -57.13704459 38.92466783 -63 37 C-63 36.67 -63 36.34 -63 36 C-61.54176788 35.9729957 -60.08339325 35.95360213 -58.625 35.9375 C-57.40683594 35.92009766 -57.40683594 35.92009766 -56.1640625 35.90234375 C-54 36 -54 36 -52 37 C-55.83546026 32.95104963 -59.94270402 29.66396797 -64.4375 26.375 C-65.85361756 25.32262706 -67.26896562 24.26921797 -68.68359375 23.21484375 C-69.75456299 22.41796143 -69.75456299 22.41796143 -70.84716797 21.60498047 C-74.24769423 19.06981834 -77.63525363 16.5199811 -81 13.9375 C-81.90770142 13.25856689 -81.90770142 13.25856689 -82.83374023 12.56591797 C-84.27976671 11.4476575 -85.64864948 10.23099586 -87 9 C-87 8.01 -87 7.02 -87 6 C-86.01 5.67 -85.02 5.34 -84 5 C-81.63795484 6.65128708 -79.50082287 8.32687799 -77.3125 10.1875 C-75.96535732 11.30037859 -74.61633522 12.41098533 -73.265625 13.51953125 C-72.56630859 14.09525879 -71.86699219 14.67098633 -71.14648438 15.26416016 C-67.6880404 18.06096824 -64.13111673 20.72108745 -60.5625 23.375 C-59.92546143 23.8496167 -59.28842285 24.3242334 -58.63208008 24.81323242 C-58.01228271 25.2744751 -57.39248535 25.73571777 -56.75390625 26.2109375 C-56.14820801 26.66307617 -55.54250977 27.11521484 -54.91845703 27.58105469 C-53.53677689 28.60298457 -52.14595694 29.61259847 -50.74951172 30.61425781 C-50.01619629 31.14631836 -49.28288086 31.67837891 -48.52734375 32.2265625 C-47.8530835 32.70947754 -47.17882324 33.19239258 -46.48413086 33.68994141 C-45.99436768 34.12226074 -45.50460449 34.55458008 -45 35 C-45 35.66 -45 36.32 -45 37 C-19.70221226 39.31679934 -19.70221226 39.31679934 5 36 C-3.94019099 28.69690892 -12.91423251 21.44631151 -22.01171875 14.33984375 C-24.6887134 12.24373944 -27.34940139 10.12933061 -30 8 C-29.67 7.01 -29.34 6.02 -29 5 C-24.01576505 6.31281188 -20.76163088 8.54291489 -17 11.9375 C-15.86255146 12.93183574 -14.72316064 13.92395318 -13.58203125 14.9140625 C-12.99631348 15.42356445 -12.4105957 15.93306641 -11.80712891 16.45800781 C-7.70406013 19.95908623 -3.42803743 23.24403517 0.84375 26.53515625 C2.73921455 27.99652357 4.54265636 29.47663317 6.34375 31.05859375 C9.83566088 34.08062549 9.83566088 34.08062549 14.19921875 35.203125 C16.55050865 34.99554083 18.70950289 34.56467116 21 34 C21.763125 33.85820313 22.52625 33.71640625 23.3125 33.5703125 C25.74619932 33.11662736 25.74619932 33.11662736 29 32 C29.495 30.515 29.495 30.515 30 29 C30.66 29 31.32 29 32 29 C31.175 28.35675781 30.35 27.71351562 29.5 27.05078125 C22.01229285 21.19727413 14.59356168 15.26794565 7.24414062 9.24145508 C6.28217773 8.45484497 6.28217773 8.45484497 5.30078125 7.65234375 C4.73528564 7.18820068 4.16979004 6.72405762 3.5871582 6.24584961 C2.11373886 5.08928002 0.55853877 4.03902584 -1 3 C-0.67 2.01 -0.34 1.02 0 0 Z " fill="#216B37" transform="translate(168,34)"/>
<path d="M0 0 C-2.86334792 3.93710339 -6.11895799 6.91135561 -9.79296875 10.046875 C-12.12757303 12.11289649 -14.31285865 14.27886164 -16.5 16.5 C-19.92618498 19.97352433 -23.45725919 23.23729554 -27.17578125 26.39453125 C-29.20625637 28.18152327 -31.10463887 30.07116671 -33 32 C-31.84113281 31.7834375 -30.68226562 31.566875 -29.48828125 31.34375 C4.18460992 25.63343965 38.33781914 28.39810587 71 38 C71 38.66 71 39.32 71 40 C63.06549805 40.52124465 55.98526671 39.77953908 48.25 38.125 C17.84333047 31.70029633 -12.80332562 32.62091666 -43 40 C-43.78125 37.7734375 -43.78125 37.7734375 -44 35 C-42.15625 32.7890625 -42.15625 32.7890625 -39.5 30.625 C-38.57445312 29.84640625 -37.64890625 29.0678125 -36.6953125 28.265625 C-35.80585937 27.51796875 -34.91640625 26.7703125 -34 26 C-32.77456445 24.80901444 -31.56382537 23.60253131 -30.375 22.375 C-28.0267111 19.98271505 -25.60395483 17.74864464 -23.0625 15.5625 C-20.1860556 13.08741993 -17.47573694 10.51578562 -14.8125 7.8125 C-6.43413956 -0.59852461 -6.43413956 -0.59852461 0 0 Z " fill="#7FB13E" transform="translate(45,31)"/>
<path d="M0 0 C5.93657554 3.73784386 11.36152025 7.86626543 16.75 12.3515625 C20.75365019 15.64944103 24.87795732 18.78982953 29 21.9375 C29.7425 22.5054126 30.485 23.0733252 31.25 23.65844727 C34.12892227 25.8517071 36.98711586 27.99141057 40 30 C40 30.66 40 31.32 40 32 C55.84 32.495 55.84 32.495 72 33 C72 33.66 72 34.32 72 35 C79.59 35 87.18 35 95 35 C80.74148512 42.12925744 57.80090636 38.67420396 42.5 36.6875 C41.58839111 36.56987305 40.67678223 36.45224609 39.73754883 36.33105469 C33.62651479 35.44845636 27.86295541 33.92466783 22 32 C22 31.67 22 31.34 22 31 C23.45823212 30.9729957 24.91660675 30.95360213 26.375 30.9375 C27.18710938 30.92589844 27.99921875 30.91429688 28.8359375 30.90234375 C31 31 31 31 33 32 C29.16453974 27.95104963 25.05729598 24.66396797 20.5625 21.375 C19.14638244 20.32262706 17.73103438 19.26921797 16.31640625 18.21484375 C15.24543701 17.41796143 15.24543701 17.41796143 14.15283203 16.60498047 C10.75230577 14.06981834 7.36474637 11.5199811 4 8.9375 C3.09229858 8.25856689 3.09229858 8.25856689 2.16625977 7.56591797 C0.72023329 6.4476575 -0.64864948 5.23099586 -2 4 C-2 3.01 -2 2.02 -2 1 C-1.34 0.67 -0.68 0.34 0 0 Z " fill="#156332" transform="translate(83,39)"/>
<path d="M0 0 C1.485 0.99 1.485 0.99 3 2 C3.99 2 4.98 2 6 2 C8.02826458 3.54891106 9.91216392 5.11843269 11.8125 6.8125 C12.97734672 7.82501424 14.1440779 8.8353638 15.3125 9.84375 C15.91707031 10.36582031 16.52164063 10.88789063 17.14453125 11.42578125 C20.1391074 13.9664427 23.21820579 16.39496465 26.3125 18.8125 C26.89829834 19.27027832 27.48409668 19.72805664 28.08764648 20.19970703 C32.3528754 23.51919147 36.65535715 26.78496429 41 30 C46.02628959 26.35059293 50.68532697 22.55828718 55.140625 18.22265625 C57 17 57 17 58.9140625 17.28076172 C62.33426605 18.46005943 64.95557955 20.83003443 67.75 23.0625 C68.35199219 23.53494141 68.95398438 24.00738281 69.57421875 24.49414062 C71.05409943 25.65690401 72.52768096 26.8276766 74 28 C73.34 28.66 72.68 29.32 72 30 C71.01 29.34 70.02 28.68 69 28 C68.01 28 67.02 28 66 28 C64.17578125 26.90625 64.17578125 26.90625 62.3125 25.5 C61.68988281 25.0359375 61.06726563 24.571875 60.42578125 24.09375 C59.95527344 23.7328125 59.48476562 23.371875 59 23 C54.39226394 25.5634588 51.00147898 28.75909482 47.28125 32.453125 C45 34 45 34 42.40625 33.734375 C41.6121875 33.49203125 40.818125 33.2496875 40 33 C39.01 33 38.02 33 37 33 C34.84810975 31.49819128 32.84010471 29.96876194 30.8125 28.3125 C30.20390137 27.82499268 29.59530273 27.33748535 28.96826172 26.83520508 C26.97183424 25.2319366 24.9850261 23.61735857 23 22 C22.30986816 21.43893555 21.61973633 20.87787109 20.90869141 20.29980469 C15.03585801 15.52481159 15.03585801 15.52481159 12.68286133 13.59301758 C8.21324005 9.93469277 3.64528259 6.43230518 -1 3 C-0.67 2.01 -0.34 1.02 0 0 Z " fill="#85B73E" transform="translate(99,7)"/>
<path d="M0 0 C1.33333333 0.66666667 2.66666667 1.33333333 4 2 C4.86625 2.38091797 4.86625 2.38091797 5.75 2.76953125 C8.84004864 4.4594016 11.50854225 6.6202614 14.25 8.8125 C15.15069214 9.52696289 15.15069214 9.52696289 16.06958008 10.25585938 C18.05085856 11.83173194 20.02624818 13.41471181 22 15 C22.71526855 15.57411621 23.43053711 16.14823242 24.16748047 16.73974609 C26.34367075 18.48966733 28.51647602 20.24367436 30.6875 22 C31.37038086 22.55147705 32.05326172 23.1029541 32.75683594 23.67114258 C33.39782227 24.19216553 34.03880859 24.71318848 34.69921875 25.25 C35.54746216 25.93835937 35.54746216 25.93835937 36.4128418 26.640625 C38.02588859 28.02217316 39.51857826 29.47915941 41 31 C40 34 40 34 38.28735352 34.92504883 C32.45403829 36.81476851 27.05253373 37.52145952 20.9375 37.6875 C20.07189453 37.72166016 19.20628906 37.75582031 18.31445312 37.79101562 C16.21005613 37.87240114 14.1050543 37.93789769 12 38 C12 37.34 12 36.68 12 36 C13.21558594 35.74605469 14.43117187 35.49210937 15.68359375 35.23046875 C17.26838063 34.88350358 18.85300806 34.53580958 20.4375 34.1875 C21.23994141 34.02185547 22.04238281 33.85621094 22.86914062 33.68554688 C24.93749958 33.22300247 26.97333737 32.62023759 29 32 C29.33 31.01 29.66 30.02 30 29 C30.66 29 31.32 29 32 29 C31.175 28.35675781 30.35 27.71351562 29.5 27.05078125 C22.01229285 21.19727413 14.59356168 15.26794565 7.24414062 9.24145508 C6.60283203 8.71704834 5.96152344 8.1926416 5.30078125 7.65234375 C4.73528564 7.18820068 4.16979004 6.72405762 3.5871582 6.24584961 C2.11373886 5.08928002 0.55853877 4.03902584 -1 3 C-0.67 2.01 -0.34 1.02 0 0 Z " fill="#41813C" transform="translate(168,34)"/>
<path d="M0 0 C-2.86334792 3.93710339 -6.11895799 6.91135561 -9.79296875 10.046875 C-12.12757303 12.11289649 -14.31285865 14.27886164 -16.5 16.5 C-19.88800554 19.92868485 -23.35746011 23.1770693 -27.03125 26.296875 C-28.39740956 27.47871145 -29.7291275 28.70108413 -31.03125 29.953125 C-35.34152537 34.03130862 -37.99840481 35.87496677 -44 36 C-43.29488281 35.29617187 -42.58976562 34.59234375 -41.86328125 33.8671875 C-39.95790813 31.96248458 -38.06030353 30.05046497 -36.16796875 28.1328125 C-31.20993066 23.12199424 -26.24508966 18.22191616 -20.87109375 13.65234375 C-18.75960623 11.78771072 -16.78944382 9.8188955 -14.8125 7.8125 C-6.43413956 -0.59852461 -6.43413956 -0.59852461 0 0 Z " fill="#548E3D" transform="translate(45,31)"/>
<path d="M0 0 C3.37779731 1.23719058 6.00656834 3.58672952 8.78833008 5.80908203 C9.39032227 6.28152344 9.99231445 6.75396484 10.61254883 7.24072266 C12.0924295 8.40348604 13.56601104 9.57425863 15.03833008 10.74658203 C14.37833008 11.40658203 13.71833008 12.06658203 13.03833008 12.74658203 C12.04833008 12.08658203 11.05833008 11.42658203 10.03833008 10.74658203 C9.04833008 10.74658203 8.05833008 10.74658203 7.03833008 10.74658203 C5.21411133 9.65283203 5.21411133 9.65283203 3.35083008 8.24658203 C2.72821289 7.78251953 2.1055957 7.31845703 1.46411133 6.84033203 C0.99360352 6.47939453 0.5230957 6.11845703 0.03833008 5.74658203 C-3.62582868 7.80970517 -6.6671512 10.10530379 -9.77416992 12.93408203 C-10.56436523 13.64951172 -11.35456055 14.36494141 -12.16870117 15.10205078 C-13.0562207 15.91609375 -13.0562207 15.91609375 -13.96166992 16.74658203 C-15.28166992 16.08658203 -16.60166992 15.42658203 -17.96166992 14.74658203 C-14.39612772 9.95154251 -6.32323729 -0.81686625 0 0 Z " fill="#90C43C" transform="translate(157.961669921875,24.25341796875)"/>
<path d="M0 0 C6.17141659 3.88570674 11.80018503 8.21047404 17.40234375 12.875 C20.50516403 15.41324697 23.70004337 17.72669654 27 20 C26.34 21.32 25.68 22.64 25 24 C21.02733098 21.73095245 17.41295644 19.12153484 13.8125 16.3125 C13.25022705 15.87695801 12.6879541 15.44141602 12.10864258 14.99267578 C7.02994329 11.04840374 2.0014114 7.04177265 -3 3 C-2.01 2.01 -1.02 1.02 0 0 Z " fill="#337639" transform="translate(83,39)"/>
<path d="M0 0 C0.78858902 -0.00095673 1.57717804 -0.00191345 2.3896637 -0.00289917 C4.04599081 -0.00357511 5.70232066 -0.00176205 7.35864258 0.00244141 C9.86871401 0.00779078 12.37860596 0.00248006 14.88867188 -0.00390625 C16.50911497 -0.00324522 18.12955796 -0.00196356 19.75 0 C20.48778183 -0.00202423 21.22556366 -0.00404846 21.98570251 -0.00613403 C27.20165489 0.01688471 32.26460498 0.48950543 37.44140625 1.1328125 C34.21590672 3.28314552 33.35054597 3.38470836 29.63452148 3.39160156 C28.17301918 3.40105804 28.17301918 3.40105804 26.68199158 3.41070557 C25.63193436 3.4066571 24.58187714 3.40260864 23.5 3.3984375 C22.42138199 3.40035095 21.34276398 3.4022644 20.23146057 3.40423584 C17.95093553 3.40559722 15.67040274 3.40190409 13.38989258 3.39355469 C9.8893097 3.38284433 6.38923884 3.39345715 2.88867188 3.40625 C0.67578011 3.4049286 -1.53711133 3.40236662 -3.75 3.3984375 C-4.80208145 3.40248596 -5.8541629 3.40653442 -6.93812561 3.41070557 C-7.90930832 3.40440125 -8.88049103 3.39809692 -9.88110352 3.39160156 C-10.73809341 3.39001038 -11.59508331 3.38841919 -12.4780426 3.38677979 C-14.55859375 3.1328125 -14.55859375 3.1328125 -16.55859375 1.1328125 C-10.99413988 0.34321128 -5.61594371 -0.01536614 0 0 Z " fill="#96C63D" transform="translate(42.55859375,59.8671875)"/>
<path d="M0 0 C5.33076747 1.37283319 8.49877135 3.73420407 12.5 7.3125 C13.59358607 8.26711492 14.68733527 9.22154298 15.78125 10.17578125 C16.30976563 10.64193848 16.83828125 11.1080957 17.3828125 11.58837891 C19.88411281 13.77173011 22.44125869 15.88441419 25 18 C24.67 18.99 24.34 19.98 24 21 C20.58052955 20.39673222 18.66875849 19.17238586 16.03125 16.9453125 C15.29519531 16.33042969 14.55914062 15.71554688 13.80078125 15.08203125 C13.04152344 14.43621094 12.28226563 13.79039063 11.5 13.125 C9.99014285 11.85610477 8.47974395 10.58785383 6.96875 9.3203125 C6.30294922 8.75586426 5.63714844 8.19141602 4.95117188 7.60986328 C3.01070095 6.00882909 1.0241513 4.49329111 -1 3 C-0.67 2.01 -0.34 1.02 0 0 Z " fill="#2F7439" transform="translate(139,39)"/>
<path d="M0 0 C1.41764994 0.93601246 2.83407568 1.8738792 4.25 2.8125 C5.03890625 3.33457031 5.8278125 3.85664062 6.640625 4.39453125 C11.22489337 7.5139589 11.22489337 7.5139589 13 9 C13 9.66 13 10.32 13 11 C15.64 11 18.28 11 21 11 C21 11.99 21 12.98 21 14 C17.79100859 13.88928305 14.58310291 13.75885687 11.375 13.625 C10.47136719 13.5940625 9.56773438 13.563125 8.63671875 13.53125 C3.74615328 13.31706465 -0.40801632 12.87645845 -5 11 C-5 10.67 -5 10.34 -5 10 C-3.54176788 9.9729957 -2.08339325 9.95360213 -0.625 9.9375 C0.18710938 9.92589844 0.99921875 9.91429688 1.8359375 9.90234375 C4 10 4 10 6 11 C3.42215154 8.35247996 1.08351902 6.05567935 -2 4 C-1.34 2.68 -0.68 1.36 0 0 Z " fill="#297038" transform="translate(110,60)"/>
<path d="M0 0 C2.61291485 1.05784053 4.26940586 2.50867412 6.34375 4.41015625 C7.05015625 5.05082031 7.7565625 5.69148437 8.484375 6.3515625 C9.01546875 6.84527344 9.5465625 7.33898437 10.09375 7.84765625 C9.76375 8.50765625 9.43375 9.16765625 9.09375 9.84765625 C8.10375 9.18765625 7.11375 8.52765625 6.09375 7.84765625 C5.10375 7.84765625 4.11375 7.84765625 3.09375 7.84765625 C1.41138529 7.22166008 -0.2586462 6.56013357 -1.90625 5.84765625 C-2.42574219 6.40195313 -2.94523437 6.95625 -3.48046875 7.52734375 C-4.17785156 8.25179688 -4.87523438 8.97625 -5.59375 9.72265625 C-6.27824219 10.44195312 -6.96273437 11.16125 -7.66796875 11.90234375 C-10.00216291 13.93101512 -11.99092634 14.87758358 -14.90625 15.84765625 C-15.23625 14.52765625 -15.56625 13.20765625 -15.90625 11.84765625 C-13.96647935 10.13927956 -12.02284224 8.4359898 -10.0703125 6.7421875 C-8.75648611 5.59199653 -7.45555573 4.42653242 -6.1796875 3.234375 C-2.41444846 -0.19295797 -2.41444846 -0.19295797 0 0 Z " fill="#95C43E" transform="translate(92.90625,0.15234375)"/>
<path d="M0 0 C4.12638505 2.06319252 5.50114255 3.55148531 8.25 7.125 C8.95640625 8.03507812 9.6628125 8.94515625 10.390625 9.8828125 C11.18726563 10.93082031 11.18726563 10.93082031 12 12 C12.33 8.04 12.66 4.08 13 0 C13.66 0 14.32 0 15 0 C15 5.94 15 11.88 15 18 C9.33665835 15.16832917 7.49585684 11.24378525 4 6 C3.67 9.96 3.34 13.92 3 18 C2.01 18 1.02 18 0 18 C0 12.06 0 6.12 0 0 Z " fill="#5C5E5E" transform="translate(157,84)"/>
<path d="M0 0 C4.59306496 1.4859916 7.43569245 3.85014682 11 7 C10.67 7.99 10.34 8.98 10 10 C6.51460083 9.35455571 3.97180943 7.89865603 1 6 C0.23816406 6.84884766 0.23816406 6.84884766 -0.5390625 7.71484375 C-6.23156089 13.78044597 -6.23156089 13.78044597 -10.5 15 C-11.325 15 -12.15 15 -13 15 C-11.54616625 11.63283065 -9.69038509 9.47729955 -7.0625 6.9375 C-6.37285156 6.26589844 -5.68320312 5.59429687 -4.97265625 4.90234375 C-4.32167969 4.27457031 -3.67070313 3.64679687 -3 3 C-1.99777035 2.00223463 -0.99687013 1.0031201 0 0 Z " fill="#91C03D" transform="translate(53,17)"/>
<path d="M0 0 C3.2856634 2.42853382 4.70758271 4.12274814 6 8 C6 11.6860549 5.31141604 13.14925356 3 16 C0.10348854 18.3485228 -1.31339817 19.01401228 -5.0625 18.9375 C-8.52570041 17.83222327 -9.89451873 16.96326994 -12 14 C-13.32099751 9.54163341 -13.40938839 7.76230942 -11.1875 3.625 C-7.74574644 -0.50510427 -5.2957369 -0.53854952 0 0 Z M-8.9375 3 C-10.65301125 6.22919765 -10.55142881 9.43061624 -10 13 C-8.56026308 15.23159222 -7.5266985 15.77176398 -5.125 16.8125 C-2.27226556 17.06421186 -0.52387457 16.2960437 2 15 C3.59492803 11.81014393 3.37616681 8.47067113 3 5 C2.10242444 2.85219923 2.10242444 2.85219923 0 2 C-3.38318857 1.63751551 -5.86784865 1.41566382 -8.9375 3 Z " fill="#5D5E5E" transform="translate(37,84)"/>
<path d="M0 0 C3.18845573 0.27174339 4.2010566 0.82153773 7 2.6875 C9.23298334 6.03697502 9.69682873 7.81750263 9.4140625 11.75390625 C8.71851452 15.0019841 7.51666056 16.55801798 5 18.6875 C1.625 19.8125 1.625 19.8125 -2 19.6875 C-5.02843096 17.96372791 -7.42023651 15.84702697 -9 12.6875 C-9.55881444 8.58952743 -9.1370529 6.91877677 -7 3.3125 C-3.47775176 0.23053279 -3.47775176 0.23053279 0 0 Z M-4.8125 3.8125 C-6.48108777 6.44711227 -6.81026737 8.58853365 -7 11.6875 C-6.59130748 14.00499122 -6.59130748 14.00499122 -5 15.6875 C-2.22556523 17.27902808 -2.22556523 17.27902808 1 17.6875 C3.38964766 16.57233109 5.13950458 15.54799542 7 13.6875 C7.36395977 9.82952645 7.56007535 7.52761302 5.375 4.25 C1.90893458 1.9696938 -1.19486868 1.56707366 -4.8125 3.8125 Z " fill="#5D5F5E" transform="translate(140,83.3125)"/>
<path d="M0 0 C10.17966102 -0.48474576 10.17966102 -0.48474576 13.75 1.625 C15 4 15 4 14.9375 7.0625 C14.01521017 9.95234148 13.34851888 11.1620287 11 13 C12.32 14.65 13.64 16.3 15 18 C12.80876943 17.01772423 11.22520352 16.25591309 9.625 14.4375 C7.29597725 12.37721065 5.02461466 12.3360683 2 12 C2 13.98 2 15.96 2 18 C1.34 18 0.68 18 0 18 C0 12.06 0 6.12 0 0 Z M2 2 C2 4.64 2 7.28 2 10 C3.8871875 10.061875 3.8871875 10.061875 5.8125 10.125 C6.52019531 10.14820312 7.22789063 10.17140625 7.95703125 10.1953125 C10.31359719 10.13254462 10.31359719 10.13254462 13 8 C12.65555119 5.52733235 12.65555119 5.52733235 12 3 C9.71294169 1.85647084 8.40735238 1.89665561 5.875 1.9375 C3.956875 1.9684375 3.956875 1.9684375 2 2 Z " fill="#5E5F5F" transform="translate(51,84)"/>
<path d="M0 0 C1.33333333 0.66666667 2.66666667 1.33333333 4 2 C4.56074219 2.24105469 5.12148437 2.48210938 5.69921875 2.73046875 C9.10091464 4.60746564 12.02900152 7.02141139 15.0625 9.4375 C15.68705078 9.92798828 16.31160156 10.41847656 16.95507812 10.92382812 C19.79134851 13.16681249 22.47557257 15.40440848 25 18 C16.6205461 18 11.99566859 13.31727502 5.625 8.25 C4.66400391 7.49009766 4.66400391 7.49009766 3.68359375 6.71484375 C2.12078698 5.47859362 0.56016464 4.23958287 -1 3 C-0.67 2.01 -0.34 1.02 0 0 Z " fill="#3F7F39" transform="translate(168,34)"/>
<path d="M0 0 C4.62 0 9.24 0 14 0 C14 0.66 14 1.32 14 2 C10.04 2 6.08 2 2 2 C2 3.98 2 5.96 2 8 C5.63 8 9.26 8 13 8 C13 8.66 13 9.32 13 10 C9.37 10 5.74 10 2 10 C2 11.98 2 13.96 2 16 C5.96 16 9.92 16 14 16 C14 16.66 14 17.32 14 18 C9.38 18 4.76 18 0 18 C0 12.06 0 6.12 0 0 Z " fill="#5E6060" transform="translate(74,84)"/>
<path d="M0 0 C0 0.33 0 0.66 0 1 C-1.06528931 1.16604736 -1.06528931 1.16604736 -2.15209961 1.33544922 C-5.41437119 1.8456686 -8.67593188 2.36030374 -11.9375 2.875 C-13.61295898 3.13603516 -13.61295898 3.13603516 -15.32226562 3.40234375 C-21.60902678 4.39790124 -27.80394086 5.54133072 -34 7 C-34.33 5.68 -34.66 4.36 -35 3 C-23.37176442 -2.11203564 -12.37614772 -1.05981284 0 0 Z " fill="#75A740" transform="translate(36,64)"/>
<path d="M0 0 C1.93166016 0.01740234 1.93166016 0.01740234 3.90234375 0.03515625 C5.19269531 0.04417969 6.48304688 0.05320312 7.8125 0.0625 C8.81152344 0.07410156 9.81054688 0.08570312 10.83984375 0.09765625 C10.83984375 0.75765625 10.83984375 1.41765625 10.83984375 2.09765625 C6.87984375 2.09765625 2.91984375 2.09765625 -1.16015625 2.09765625 C-1.16015625 4.40765625 -1.16015625 6.71765625 -1.16015625 9.09765625 C2.46984375 9.09765625 6.09984375 9.09765625 9.83984375 9.09765625 C9.83984375 9.75765625 9.83984375 10.41765625 9.83984375 11.09765625 C6.20984375 11.09765625 2.57984375 11.09765625 -1.16015625 11.09765625 C-1.16015625 13.40765625 -1.16015625 15.71765625 -1.16015625 18.09765625 C-2.15015625 18.09765625 -3.14015625 18.09765625 -4.16015625 18.09765625 C-4.18699937 15.28509344 -4.20691813 12.47278384 -4.22265625 9.66015625 C-4.23103516 8.85771484 -4.23941406 8.05527344 -4.24804688 7.22851562 C-4.25667055 5.18470404 -4.21243775 3.14081723 -4.16015625 1.09765625 C-3.16015625 0.09765625 -3.16015625 0.09765625 0 0 Z " fill="#5C5F5C" transform="translate(196.16015625,83.90234375)"/>
<path d="M0 0 C4.62 0 9.24 0 14 0 C14 0.66 14 1.32 14 2 C10.04 2 6.08 2 2 2 C2 4.31 2 6.62 2 9 C5.63 9 9.26 9 13 9 C13 9.66 13 10.32 13 11 C9.37 11 5.74 11 2 11 C2 13.31 2 15.62 2 18 C1.01 17.67 0.02 17.34 -1 17 C-1.02691685 14.54159395 -1.04679802 12.08348118 -1.0625 9.625 C-1.07087891 8.92632812 -1.07925781 8.22765625 -1.08789062 7.5078125 C-1.11328125 2.2265625 -1.11328125 2.2265625 0 0 Z " fill="#606161" transform="translate(4,84)"/>
<path d="M0 0 C0.33 0.99 0.66 1.98 1 3 C0.01 2.67 -0.98 2.34 -2 2 C-6.66541296 1.57619631 -6.66541296 1.57619631 -10.9375 3.125 C-12.50422245 5.88980433 -12.38976435 7.88188517 -12 11 C-11.06402685 13.01951062 -11.06402685 13.01951062 -9 14 C-4.75118727 14.3862557 -1.64030688 14.3297964 2 12 C1.0518738 14.37031549 0.31103322 15.76672508 -1.75 17.3125 C-4.93640308 18.28612316 -6.81629934 17.97460224 -10 17 C-12.80732192 14.98605167 -14.62383309 13.50163404 -15.484375 10.06640625 C-15.76124517 5.99795285 -15.28993435 4.37852541 -12.75 1.0625 C-7.96651207 -2.52511595 -5.53164622 -2.45850943 0 0 Z " fill="#5C5E5D" transform="translate(123,85)"/>
<path d="M0 0 C0.33 0.99 0.66 1.98 1 3 C-9.96810934 15.25968109 -9.96810934 15.25968109 -19 16 C-18.29101562 15.29488281 -17.58203125 14.58976562 -16.8515625 13.86328125 C-14.95000825 11.9637371 -13.07291824 10.04378156 -11.2109375 8.10546875 C-10.26566275 7.13277581 -9.32035005 6.16011976 -8.375 5.1875 C-7.89804688 4.68541016 -7.42109375 4.18332031 -6.9296875 3.66601562 C-3.33848852 0 -3.33848852 0 0 0 Z " fill="#296F38" transform="translate(20,51)"/>
<path d="M0 0 C1.33333333 0.66666667 2.66666667 1.33333333 4 2 C4.598125 2.27070312 5.19625 2.54140625 5.8125 2.8203125 C8.53509713 4.28857024 10.82983814 6.07519291 13.25 8 C14.14203125 8.70125 15.0340625 9.4025 15.953125 10.125 C16.62859375 10.74375 17.3040625 11.3625 18 12 C18 12.66 18 13.32 18 14 C16.22949219 14.65795898 16.22949219 14.65795898 14 15 C12.16894531 14.01196289 12.16894531 14.01196289 10.328125 12.47265625 C9.66425781 11.92802734 9.00039062 11.38339844 8.31640625 10.82226562 C7.63449219 10.24154297 6.95257813 9.66082031 6.25 9.0625 C5.55261719 8.48564453 4.85523438 7.90878906 4.13671875 7.31445312 C2.41474035 5.88733404 0.70342012 4.44917358 -1 3 C-0.67 2.01 -0.34 1.02 0 0 Z " fill="#126034" transform="translate(188,50)"/>
<path d="M0 0 C3.80133442 1.67923025 6.97082702 4.11462834 10.25 6.625 C10.80429688 7.04523437 11.35859375 7.46546875 11.9296875 7.8984375 C13.28866663 8.92938719 14.64463835 9.96429911 16 11 C15.34 12.32 14.68 13.64 14 15 C8.33063081 11.41934578 3.19537477 7.2302261 -2 3 C-1.34 2.01 -0.68 1.02 0 0 Z " fill="#5F983F" transform="translate(124,26)"/>
<path d="M0 0 C1.89709722 1.42282291 3.79365246 2.8462881 5.6875 4.2734375 C7.2192378 5.41706606 8.76089557 6.54753634 10.3125 7.6640625 C11.034375 8.18742187 11.75625 8.71078125 12.5 9.25 C13.1703125 9.72953125 13.840625 10.2090625 14.53125 10.703125 C15.0159375 11.13109375 15.500625 11.5590625 16 12 C16 12.66 16 13.32 16 14 C11.86723131 14.49642867 10.2900727 14.19761644 6.7890625 11.8125 C5.72138755 10.88981794 4.66681637 9.95178286 3.625 9 C2.80708984 8.28457031 2.80708984 8.28457031 1.97265625 7.5546875 C0.63682167 6.38290278 -0.6832407 5.19317995 -2 4 C-1.34 2.68 -0.68 1.36 0 0 Z " fill="#116034" transform="translate(164,57)"/>
<path d="M0 0 C-7.32670114 4.10875225 -16.8192122 3.18169802 -25 3.1875 C-25.93972656 3.19974609 -26.87945312 3.21199219 -27.84765625 3.22460938 C-28.74355469 3.22654297 -29.63945312 3.22847656 -30.5625 3.23046875 C-31.77099609 3.23663208 -31.77099609 3.23663208 -33.00390625 3.24291992 C-35 3 -35 3 -37 1 C-24.64865646 0.17362576 -12.3779494 -0.12350504 0 0 Z " fill="#0D5B33" transform="translate(178,74)"/>
<path d="M0 0 C1.44037669 0.93307421 2.87718985 1.87165077 4.3125 2.8125 C5.11300781 3.33457031 5.91351563 3.85664062 6.73828125 4.39453125 C8.7237402 5.80389849 10.3491852 7.22096657 12 9 C11.67 9.99 11.34 10.98 11 12 C7.0479482 11.41827275 4.77904947 9.44842259 1.75 6.9375 C0.85796875 6.20402344 -0.0340625 5.47054687 -0.953125 4.71484375 C-1.62859375 4.14894531 -2.3040625 3.58304688 -3 3 C-2.01 2.01 -1.02 1.02 0 0 Z " fill="#4D8A3E" transform="translate(83,39)"/>
<path d="M0 0 C0 0.66 0 1.32 0 2 C-9.53748149 2.4277608 -17.76838596 1.32520414 -27 -1 C-27 -1.33 -27 -1.66 -27 -2 C-17.55920576 -3.30564176 -9.08461649 -2.96237494 0 0 Z " fill="#4D8A3C" transform="translate(116,69)"/>
<path d="M0 0 C1.32 0.66 2.64 1.32 4 2 C0.50640535 5.59634744 -3.11098131 8.83451967 -7 12 C-7.99 11.01 -8.98 10.02 -10 9 C-6.7 6.03 -3.4 3.06 0 0 Z " fill="#7FB13F" transform="translate(150,29)"/>
<path d="M0 0 C1.32 0.66 2.64 1.32 4 2 C-2.74157303 10.20224719 -2.74157303 10.20224719 -6 12 C-6.99 11.67 -7.98 11.34 -9 11 C-9 8 -9 8 -7.28515625 6.2109375 C-6.18494141 5.30214844 -6.18494141 5.30214844 -5.0625 4.375 C-4.33160156 3.76398437 -3.60070312 3.15296875 -2.84765625 2.5234375 C-2.23792969 2.02070312 -1.62820312 1.51796875 -1 1 C-0.67 0.67 -0.34 0.34 0 0 Z " fill="#90BF3D" transform="translate(86,4)"/>
<path d="M0 0 C1.41764994 0.93601246 2.83407568 1.8738792 4.25 2.8125 C5.03890625 3.33457031 5.8278125 3.85664062 6.640625 4.39453125 C8.81092481 5.87134122 10.91413768 7.40689873 13 9 C12.67 9.66 12.34 10.32 12 11 C6.547001 9.43181728 2.23513217 7.96189783 -2 4 C-1.34 2.68 -0.68 1.36 0 0 Z " fill="#186435" transform="translate(110,60)"/>
<path d="M0 0 C1.33333333 0.66666667 2.66666667 1.33333333 4 2 C4.598125 2.268125 5.19625 2.53625 5.8125 2.8125 C9.0777742 4.58507742 12.01126529 6.80042558 15 9 C14.34 9.66 13.68 10.32 13 11 C12.01 10.34 11.02 9.68 10 9 C9.01 9 8.02 9 7 9 C4.95703125 7.6875 4.95703125 7.6875 2.8125 6 C2.09707031 5.443125 1.38164062 4.88625 0.64453125 4.3125 C0.10183594 3.879375 -0.44085938 3.44625 -1 3 C-0.67 2.01 -0.34 1.02 0 0 Z " fill="#5D963E" transform="translate(168,34)"/>
<path d="M0 0 C-3.18683431 4.33409466 -6.86378916 7.6189962 -11 11 C-11.66 10.67 -12.32 10.34 -13 10 C-13 9.34 -13 8.68 -13 8 C-12.34 8 -11.68 8 -11 8 C-11.33 7.01 -11.66 6.02 -12 5 C-7.90746174 1.10234452 -5.90669543 -0.70317803 0 0 Z " fill="#73A63F" transform="translate(45,31)"/>
<path d="M0 0 C1.32 0.66 2.64 1.32 4 2 C-0.93654267 8.70459519 -0.93654267 8.70459519 -5.375 9.9375 C-6.24125 9.958125 -7.1075 9.97875 -8 10 C-6.34908222 5.70761377 -3.26245434 3.1206085 0 0 Z " fill="#7FB13E" transform="translate(48,22)"/>
<path d="M0 0 C-3.08127258 1.54063629 -6.31021342 1.14327206 -9.6875 1.125 C-10.38294922 1.12886719 -11.07839844 1.13273437 -11.79492188 1.13671875 C-16.29451076 1.12831616 -20.56031125 0.73315961 -25 0 C-25 -0.33 -25 -0.66 -25 -1 C-22.81274749 -1.16988369 -20.62518299 -1.33575269 -18.4375 -1.5 C-16.61025391 -1.63921875 -16.61025391 -1.63921875 -14.74609375 -1.78125 C-3.78344482 -2.42140468 -3.78344482 -2.42140468 0 0 Z " fill="#67A33C" transform="translate(101,66)"/>
<path d="M0 0 C0.9075 0.185625 1.815 0.37125 2.75 0.5625 C5.68314324 0.95734621 7.2644657 0.94691572 10 0 C10.5625 1.9375 10.5625 1.9375 11 4 C10 5 10 5 6.62109375 5.09765625 C5.22652923 5.09098369 3.83198257 5.07902532 2.4375 5.0625 C1.72658203 5.05798828 1.01566406 5.05347656 0.28320312 5.04882812 C-1.47790013 5.03700864 -3.23896036 5.01907263 -5 5 C-4.360625 4.54625 -3.72125 4.0925 -3.0625 3.625 C-0.90297594 2.16078274 -0.90297594 2.16078274 0 0 Z " fill="#5F943D" transform="translate(198,63)"/>
<path d="M0 0 C0.66 0.66 1.32 1.32 2 2 C-4.6 3.32 -11.2 4.64 -18 6 C-18.33 4.68 -18.66 3.36 -19 2 C-15.27708212 1.06927053 -11.82470687 0.96668796 -7.99609375 1.0390625 C-5.75522889 1.04939663 -5.75522889 1.04939663 -2.625 0.375 C-1.325625 0.189375 -1.325625 0.189375 0 0 Z " fill="#518A3B" transform="translate(20,65)"/>
<path d="M0 0 C1.31611677 0.95336021 2.62778961 1.91285774 3.9375 2.875 C4.66839844 3.40867188 5.39929688 3.94234375 6.15234375 4.4921875 C8 6 8 6 9 8 C6.875 8.8125 6.875 8.8125 4 9 C1.69892439 7.55576519 -0.01646386 5.89127865 -2 4 C-1.34 2.68 -0.68 1.36 0 0 Z " fill="#679D3F" transform="translate(74,32)"/>
<path d="M0 0 C1.33333333 0.66666667 2.66666667 1.33333333 4 2 C4.680625 2.309375 5.36125 2.61875 6.0625 2.9375 C8.09606201 4.05267917 9.44694668 5.29164135 11 7 C9.02 7.99 9.02 7.99 7 9 C4.36 7.02 1.72 5.04 -1 3 C-0.67 2.01 -0.34 1.02 0 0 Z " fill="#6BA13F" transform="translate(114,19)"/>
<path d="M0 0 C3.77545388 1.09068668 6.47043472 1.9083091 9 5 C8.67 5.99 8.34 6.98 8 8 C4.12867972 7.42647107 1.91827204 5.51295648 -1 3 C-0.67 2.01 -0.34 1.02 0 0 Z " fill="#3E7D3A" transform="translate(139,39)"/>
<path d="M0 0 C3.77545388 1.09068668 6.47043472 1.9083091 9 5 C8.67 5.99 8.34 6.98 8 8 C4.12867972 7.42647107 1.91827204 5.51295648 -1 3 C-0.67 2.01 -0.34 1.02 0 0 Z " fill="#236C37" transform="translate(155,52)"/>
<path d="M0 0 C1.2989839 0.90626784 2.58893167 1.82549537 3.875 2.75 C4.59429687 3.26046875 5.31359375 3.7709375 6.0546875 4.296875 C8.08570565 6.07503547 8.97855012 7.52701607 10 10 C9.401875 9.67 8.80375 9.34 8.1875 9 C5.94613529 7.79212012 5.94613529 7.79212012 3 8 C0.75 6.25 0.75 6.25 -1 4 C-0.609375 1.859375 -0.609375 1.859375 0 0 Z " fill="#79AB3D" transform="translate(108,12)"/>
<path d="M0 0 C12.21 0 24.42 0 37 0 C37 0.33 37 0.66 37 1 C24.79 1 12.58 1 0 1 C0 0.67 0 0.34 0 0 Z " fill="#9CCA3F" transform="translate(34,58)"/>
<path d="M0 0 C2.66666667 1.33333333 5.33333333 2.66666667 8 4 C8 5.32 8 6.64 8 8 C4.12867972 7.42647107 1.91827204 5.51295648 -1 3 C-0.67 2.01 -0.34 1.02 0 0 Z " fill="#246D37" transform="translate(188,50)"/>
<path d="M0 0 C0.66 0 1.32 0 2 0 C2 5.94 2 11.88 2 18 C1.34 18 0.68 18 0 18 C0 12.06 0 6.12 0 0 Z " fill="#5D5F5F" transform="translate(181,84)"/>
<path d="M0 0 C2.49361571 1.20381448 4.68143083 2.45428722 7 4 C6.34 5.32 5.68 6.64 5 8 C3.02 6.68 1.04 5.36 -1 4 C-0.67 2.68 -0.34 1.36 0 0 Z " fill="#4D8A3D" transform="translate(133,33)"/>
<path d="M0 0 C1.33333333 0.66666667 2.66666667 1.33333333 4 2 C4.680625 2.309375 5.36125 2.61875 6.0625 2.9375 C8.09606201 4.05267917 9.44694668 5.29164135 11 7 C5.55116564 7 3.50826047 6.20587411 -1 3 C-0.67 2.01 -0.34 1.02 0 0 Z " fill="#7DAF3F" transform="translate(162,29)"/>
<path d="M0 0 C2 1 4 2 6 3 C5.34 4.32 4.68 5.64 4 7 C1.5 5.6875 1.5 5.6875 -1 4 C-1 1 -1 1 0 0 Z " fill="#237236" transform="translate(104,56)"/>
<path d="M0 0 C0.66 1.32 1.32 2.64 2 4 C0.71034824 5.37562854 -0.62689293 6.70766393 -2 8 C-2.66 8 -3.32 8 -4 8 C-4 7.34 -4 6.68 -4 6 C-4.66 5.67 -5.32 5.34 -6 5 C-4.02 3.35 -2.04 1.7 0 0 Z " fill="#4B8838" transform="translate(24,45)"/>
<path d="M0 0 C1.32 0.66 2.64 1.32 4 2 C2.35 3.65 0.7 5.3 -1 7 C-1.99 6.01 -2.98 5.02 -4 4 C-2.68 2.68 -1.36 1.36 0 0 Z " fill="#6AA13E" transform="translate(144,34)"/>
<path d="M0 0 C1.32 0.99 2.64 1.98 4 3 C1.6875 5.0625 1.6875 5.0625 -1 7 C-1.99 6.67 -2.98 6.34 -4 6 C-4 5.01 -4 4.02 -4 3 C-2 1.3125 -2 1.3125 0 0 Z " fill="#86B63F" transform="translate(81,9)"/>
<path d="M0 0 C8.58 0 17.16 0 26 0 C26 0.33 26 0.66 26 1 C17.42 1 8.84 1 0 1 C0 0.67 0 0.34 0 0 Z " fill="#004A2D" transform="translate(138,78)"/>
<path d="M0 0 C1.65 1.32 3.3 2.64 5 4 C4.34 4.66 3.68 5.32 3 6 C1 5.8125 1 5.8125 -1 5 C-1.66 4.01 -2.32 3.02 -3 2 C-2.01 1.34 -1.02 0.68 0 0 Z " fill="#57923E" transform="translate(83,39)"/>
<path d="M0 0 C0.66 0.33 1.32 0.66 2 1 C2.33 1.99 2.66 2.98 3 4 C2.01 4.99 1.02 5.98 0 7 C-1.32 6.34 -2.64 5.68 -4 5 C-2.68 3.35 -1.36 1.7 0 0 Z " fill="#6B9F3C" transform="translate(68,20)"/>
<path d="M0 0 C8.25 0 16.5 0 25 0 C25 0.33 25 0.66 25 1 C16.75 1 8.5 1 0 1 C0 0.67 0 0.34 0 0 Z " fill="#8DC23C" transform="translate(40,65)"/>
<path d="M0 0 C1.33333333 0.66666667 2.66666667 1.33333333 4 2 C5.051875 2.495 5.051875 2.495 6.125 3 C8 4 8 4 10 6 C6.38970831 6 3.44193324 5.03907418 0 4 C0 2.68 0 1.36 0 0 Z " fill="#4E8A3D" transform="translate(178,42)"/>
<path d="M0 0 C0.99 0.33 1.98 0.66 3 1 C2.34 2.65 1.68 4.3 1 6 C-0.32 6 -1.64 6 -3 6 C-3 3 -3 3 -1.5 1.3125 C-0.7575 0.6628125 -0.7575 0.6628125 0 0 Z " fill="#9ACC3A" transform="translate(53,17)"/>
<path d="M0 0 C1.33804687 0.17982422 1.33804687 0.17982422 2.703125 0.36328125 C3.37859375 0.47027344 4.0540625 0.57726562 4.75 0.6875 C4.75 1.0175 4.75 1.3475 4.75 1.6875 C-0.01307437 2.64011487 -4.4166528 2.77083357 -9.25 2.6875 C-6.03037108 -0.23875152 -4.27288159 -0.61844339 0 0 Z " fill="#6AA140" transform="translate(15.25,64.3125)"/>
<path d="M0 0 C2.66666667 1.33333333 5.33333333 2.66666667 8 4 C7.67 4.66 7.34 5.32 7 6 C3.42424104 6 1.94704065 4.91159393 -1 3 C-0.67 2.01 -0.34 1.02 0 0 Z " fill="#6DA13F" transform="translate(168,34)"/>
<path d="M0 0 C1.32 0.66 2.64 1.32 4 2 C4 3.32 4 4.64 4 6 C2.68 5.67 1.36 5.34 0 5 C-0.5625 3.0625 -0.5625 3.0625 -1 1 C-0.67 0.67 -0.34 0.34 0 0 Z " fill="#74A93F" transform="translate(69,29)"/>
<path d="M0 0 C3.3 0 6.6 0 10 0 C10 0.33 10 0.66 10 1 C7.03 1 4.06 1 1 1 C1 1.66 1 2.32 1 3 C4.3 3 7.6 3 11 3 C11 3.33 11 3.66 11 4 C7.37 4 3.74 4 0 4 C0 2.68 0 1.36 0 0 Z " fill="#515151" transform="translate(77,95)"/>
<path d="M0 0 C3.63 0 7.26 0 11 0 C11 0.33 11 0.66 11 1 C7.7 1 4.4 1 1 1 C1 1.66 1 2.32 1 3 C3.97 3 6.94 3 10 3 C10 3.33 10 3.66 10 4 C6.7 4 3.4 4 0 4 C0 2.68 0 1.36 0 0 Z " fill="#686868" transform="translate(77,87)"/>
<path d="M0 0 C3.3 0 6.6 0 10 0 C10 0.33 10 0.66 10 1 C7.03 1 4.06 1 1 1 C1 1.99 1 2.98 1 4 C3.97 4 6.94 4 10 4 C10 4.33 10 4.66 10 5 C6.7 5 3.4 5 0 5 C0 3.35 0 1.7 0 0 Z " fill="#6D6D6D" transform="translate(196,87)"/>
<path d="M0 0 C3.3 0 6.6 0 10 0 C10 0.33 10 0.66 10 1 C7.03 1 4.06 1 1 1 C1 1.99 1 2.98 1 4 C3.97 4 6.94 4 10 4 C10 4.33 10 4.66 10 5 C6.7 5 3.4 5 0 5 C0 3.35 0 1.7 0 0 Z " fill="#767676" transform="translate(7,87)"/>
<path d="M0 0 C1.67542976 0.28604898 3.34385343 0.61781233 5 1 C3.35 2.98 1.7 4.96 0 7 C-0.66 6.67 -1.32 6.34 -2 6 C-2 5.34 -2 4.68 -2 4 C-1.34 4 -0.68 4 0 4 C-0.33 3.01 -0.66 2.02 -1 1 C-0.67 0.67 -0.34 0.34 0 0 Z " fill="#649D41" transform="translate(34,35)"/>
<path d="M0 0 C2 1.25 2 1.25 4 3 C4 4.32 4 5.64 4 7 C1.525 6.01 1.525 6.01 -1 5 C-1 2 -1 2 0 0 Z " fill="#57913D" transform="translate(129,29)"/>
<path d="M0 0 C1.32 0.66 2.64 1.32 4 2 C3.67 2.99 3.34 3.98 3 5 C1.68 4.67 0.36 4.34 -1 4 C-1 1 -1 1 0 0 Z " fill="#44833C" transform="translate(91,46)"/>
<path d="M0 0 C2 1 4 2 6 3 C5.67 3.66 5.34 4.32 5 5 C2.69 4.34 0.38 3.68 -2 3 C-1.34 2.01 -0.68 1.02 0 0 Z " fill="#0B5B32" transform="translate(117,66)"/>
<path d="M0 0 C0.66 1.32 1.32 2.64 2 4 C0.02253397 4.73080266 -1.98072489 5.39421747 -4 6 C-4.66 5.67 -5.32 5.34 -6 5 C-4.02 3.35 -2.04 1.7 0 0 Z " fill="#156230" transform="translate(7,61)"/>
<path d="M0 0 C2.31 0 4.62 0 7 0 C7 0.33 7 0.66 7 1 C5.02 1 3.04 1 1 1 C1 2.32 1 3.64 1 5 C2.98 5 4.96 5 7 5 C7 5.33 7 5.66 7 6 C4.69 6 2.38 6 0 6 C0 4.02 0 2.04 0 0 Z " fill="#6A6E6E" transform="translate(54,87)"/>
<path d="M0 0 C0.33 0 0.66 0 1 0 C1 5.94 1 11.88 1 18 C0.67 18 0.34 18 0 18 C0 12.06 0 6.12 0 0 Z " fill="#595959" transform="translate(184,84)"/>
<path d="M0 0 C0.33 0 0.66 0 1 0 C1 5.94 1 11.88 1 18 C0.67 18 0.34 18 0 18 C0 12.06 0 6.12 0 0 Z " fill="#474747" transform="translate(179,84)"/>
<path d="M0 0 C0.33 0 0.66 0 1 0 C1 5.94 1 11.88 1 18 C0.67 18 0.34 18 0 18 C0 12.06 0 6.12 0 0 Z " fill="#676767" transform="translate(173,84)"/>
<path d="M0 0 C0.33 0 0.66 0 1 0 C1 5.94 1 11.88 1 18 C0.67 18 0.34 18 0 18 C0 12.06 0 6.12 0 0 Z " fill="#717171" transform="translate(155,84)"/>
<path d="M0 0 C0.33 0 0.66 0 1 0 C1 5.94 1 11.88 1 18 C0.67 18 0.34 18 0 18 C0 12.06 0 6.12 0 0 Z " fill="#767676" transform="translate(72,84)"/>
<path d="M0 0 C0.33 0 0.66 0 1 0 C1 5.94 1 11.88 1 18 C0.67 18 0.34 18 0 18 C0 12.06 0 6.12 0 0 Z " fill="#878787" transform="translate(49,84)"/>
<path d="M0 0 C1.32 0.66 2.64 1.32 4 2 C3.01 3.485 3.01 3.485 2 5 C0.68 4.34 -0.64 3.68 -2 3 C-1.34 2.01 -0.68 1.02 0 0 Z " fill="#8DBC3E" transform="translate(48,22)"/>
<path d="M0 0 C0 1.32 0 2.64 0 4 C-0.66 4 -1.32 4 -2 4 C-2 4.66 -2 5.32 -2 6 C-3.32 5.34 -4.64 4.68 -6 4 C-2.25 0 -2.25 0 0 0 Z " fill="#9FCD3C" transform="translate(93,0)"/>
<path d="M0 0 C0.33 0 0.66 0 1 0 C1 5.61 1 11.22 1 17 C0.67 17 0.34 17 0 17 C0 11.39 0 5.78 0 0 Z " fill="#000000" transform="translate(190,85)"/>
<path d="M0 0 C2 1 4 2 6 3 C4.02 3.99 4.02 3.99 2 5 C1.01 4.34 0.02 3.68 -1 3 C-0.67 2.01 -0.34 1.02 0 0 Z " fill="#2E743A" transform="translate(188,50)"/>
<path d="M0 0 C0.33 0 0.66 0 1 0 C1 5.28 1 10.56 1 16 C0.67 16 0.34 16 0 16 C0 10.72 0 5.44 0 0 Z " fill="#000000" transform="translate(1,85)"/>
<path d="M0 0 C5.28 0 10.56 0 16 0 C16 0.33 16 0.66 16 1 C10.72 1 5.44 1 0 1 C0 0.67 0 0.34 0 0 Z " fill="#04571F" transform="translate(154,70)"/>
<path d="M0 0 C5.28 0 10.56 0 16 0 C16 0.33 16 0.66 16 1 C10.72 1 5.44 1 0 1 C0 0.67 0 0.34 0 0 Z " fill="#04571F" transform="translate(132,70)"/>
<path d="M0 0 C3.3 0 6.6 0 10 0 C10 0.33 10 0.66 10 1 C7.03 1 4.06 1 1 1 C1 2.65 1 4.3 1 6 C0.67 6 0.34 6 0 6 C0 4.02 0 2.04 0 0 Z " fill="#3B3B3B" transform="translate(196,96)"/>
<path d="M0 0 C3.3 0 6.6 0 10 0 C10 0.33 10 0.66 10 1 C7.03 1 4.06 1 1 1 C1 2.65 1 4.3 1 6 C0.67 6 0.34 6 0 6 C0 4.02 0 2.04 0 0 Z " fill="#5D5D5D" transform="translate(7,96)"/>
<path d="M0 0 C4.62 0 9.24 0 14 0 C14 0.33 14 0.66 14 1 C9.38 1 4.76 1 0 1 C0 0.67 0 0.34 0 0 Z " fill="#525252" transform="translate(74,103)"/>
<path d="M0 0 C1.65 0 3.3 0 5 0 C5.66 1.32 6.32 2.64 7 4 C5.02 3.01 3.04 2.02 1 1 C0.67 2.32 0.34 3.64 0 5 C0 3.35 0 1.7 0 0 Z " fill="#4E4E4E" transform="translate(54,97)"/>
<path d="M0 0 C4.62 0 9.24 0 14 0 C14 0.33 14 0.66 14 1 C9.38 1 4.76 1 0 1 C0 0.67 0 0.34 0 0 Z " fill="#7C7C7C" transform="translate(74,82)"/>
<path d="M0 0 C0.33 0 0.66 0 1 0 C1 3.63 1 7.26 1 11 C0.34 10.67 -0.32 10.34 -1 10 C-0.67 6.7 -0.34 3.4 0 0 Z " fill="#626262" transform="translate(168,84)"/>
<path d="M0 0 C4.29 0 8.58 0 13 0 C13 0.33 13 0.66 13 1 C8.71 1 4.42 1 0 1 C0 0.67 0 0.34 0 0 Z " fill="#737373" transform="translate(193,82)"/>
<path d="M0 0 C4.29 0 8.58 0 13 0 C13 0.33 13 0.66 13 1 C8.71 1 4.42 1 0 1 C0 0.67 0 0.34 0 0 Z " fill="#737373" transform="translate(4,82)"/>
<path d="M0 0 C0.66 0.33 1.32 0.66 2 1 C1.34 3.31 0.68 5.62 0 8 C-0.33 8 -0.66 8 -1 8 C-1.04241723 5.66705225 -1.04092937 3.33297433 -1 1 C-0.67 0.67 -0.34 0.34 0 0 Z " fill="#111111" transform="translate(162,93)"/>
<path d="M0 0 C3.63 0 7.26 0 11 0 C11 0.33 11 0.66 11 1 C7.37 1 3.74 1 0 1 C0 0.67 0 0.34 0 0 Z " fill="#767676" transform="translate(51,82)"/>
<path d="M0 0 C-3.4019487 2.09350689 -6.05272412 2.17942163 -10 2 C-10 1.67 -10 1.34 -10 1 C-6.59437148 0.22157062 -3.49234244 -0.09978121 0 0 Z " fill="#0B7826" transform="translate(191,74)"/>
<path d="M0 0 C3.63 0 7.26 0 11 0 C11 0.33 11 0.66 11 1 C7.37 1 3.74 1 0 1 C0 0.67 0 0.34 0 0 Z " fill="#8FA828" transform="translate(65,66)"/>
<path d="M0 0 C3.63 0 7.26 0 11 0 C11 0.33 11 0.66 11 1 C7.37 1 3.74 1 0 1 C0 0.67 0 0.34 0 0 Z " fill="#75A829" transform="translate(29,66)"/>
<path d="M0 0 C3.3 0 6.6 0 10 0 C10 0.33 10 0.66 10 1 C6.7 1 3.4 1 0 1 C0 0.67 0 0.34 0 0 Z " fill="#004A29" transform="translate(164,77)"/>
<path d="M0 0 C3.3 0 6.6 0 10 0 C10 0.33 10 0.66 10 1 C6.7 1 3.4 1 0 1 C0 0.67 0 0.34 0 0 Z " fill="#004E29" transform="translate(127,77)"/>
<path d="M0 0 C2.97 0 5.94 0 9 0 C9 0.33 9 0.66 9 1 C6.03 1 3.06 1 0 1 C0 0.67 0 0.34 0 0 Z " fill="#76BA31" transform="translate(71,59)"/>
<path d="M0 0 C0.99 0.33 1.98 0.66 3 1 C1.68 1.99 0.36 2.98 -1 4 C-1.66 3.67 -2.32 3.34 -3 3 C-2.01 2.01 -1.02 1.02 0 0 Z " fill="#87BE24" transform="translate(53,24)"/>
<path d="M0 0 C0.33 0 0.66 0 1 0 C1 2.64 1 5.28 1 8 C0.67 8 0.34 8 0 8 C0 5.36 0 2.72 0 0 Z " fill="#424A4A" transform="translate(106,89)"/>
<path d="M0 0 C0.33 0 0.66 0 1 0 C1 2.64 1 5.28 1 8 C0.67 8 0.34 8 0 8 C0 5.36 0 2.72 0 0 Z " fill="#2A2A2A" transform="translate(38,89)"/>
<path d="M0 0 C0.33 0 0.66 0 1 0 C1 2.64 1 5.28 1 8 C0.67 8 0.34 8 0 8 C0 5.36 0 2.72 0 0 Z " fill="#7F7F7F" transform="translate(150,89)"/>
<path d="M0 0 C0.33 0 0.66 0 1 0 C1 2.64 1 5.28 1 8 C0.67 8 0.34 8 0 8 C0 5.36 0 2.72 0 0 Z " fill="#4C4C4C" transform="translate(28,89)"/>
<path d="M0 0 C2.64 0 5.28 0 8 0 C8 0.33 8 0.66 8 1 C5.36 1 2.72 1 0 1 C0 0.67 0 0.34 0 0 Z " fill="#959595" transform="translate(136,82)"/>
<path d="M0 0 C2.64 0 5.28 0 8 0 C8 0.33 8 0.66 8 1 C5.36 1 2.72 1 0 1 C0 0.67 0 0.34 0 0 Z " fill="#6A7272" transform="translate(29,82)"/>
<path d="M0 0 C2.64 0 5.28 0 8 0 C8 0.33 8 0.66 8 1 C5.36 1 2.72 1 0 1 C0 0.67 0 0.34 0 0 Z " fill="#75A237" transform="translate(25,59)"/>
<path d="M0 0 C0.66 0.33 1.32 0.66 2 1 C1.01 1.99 0.02 2.98 -1 4 C-1.66 3.67 -2.32 3.34 -3 3 C-2.01 2.01 -1.02 1.02 0 0 Z " fill="#658C22" transform="translate(39,28)"/>
<path d="M0 0 C2.31 0 4.62 0 7 0 C7 0.33 7 0.66 7 1 C4.69 1 2.38 1 0 1 C0 0.67 0 0.34 0 0 Z " fill="#4E4E4E" transform="translate(114,98)"/>
<path d="M0 0 C0.33 0 0.66 0 1 0 C1 2.31 1 4.62 1 7 C0.67 7 0.34 7 0 7 C0 4.69 0 2.38 0 0 Z " fill="#505050" transform="translate(145,90)"/>
<path d="M0 0 C2.31 0 4.62 0 7 0 C7 0.33 7 0.66 7 1 C4.69 1 2.38 1 0 1 C0 0.67 0 0.34 0 0 Z " fill="#666666" transform="translate(114,87)"/>
<path d="M0 0 C2.31 0 4.62 0 7 0 C7 0.33 7 0.66 7 1 C4.69 1 2.38 1 0 1 C0 0.67 0 0.34 0 0 Z " fill="#707070" transform="translate(30,87)"/>
<path d="M0 0 C2.31 0 4.62 0 7 0 C7 0.33 7 0.66 7 1 C4.69 1 2.38 1 0 1 C0 0.67 0 0.34 0 0 Z " fill="#004F2A" transform="translate(174,76)"/>
<path d="M0 0 C2.31 0 4.62 0 7 0 C7 0.33 7 0.66 7 1 C4.69 1 2.38 1 0 1 C0 0.67 0 0.34 0 0 Z " fill="#1B8533" transform="translate(124,69)"/>
<path d="M0 0 C2.31 0 4.62 0 7 0 C7 0.33 7 0.66 7 1 C4.69 1 2.38 1 0 1 C0 0.67 0 0.34 0 0 Z " fill="#61C23C" transform="translate(76,67)"/>
<path d="M0 0 C2.31 0 4.62 0 7 0 C7 0.33 7 0.66 7 1 C4.69 1 2.38 1 0 1 C0 0.67 0 0.34 0 0 Z " fill="#73D43C" transform="translate(22,67)"/>
<path d="M0 0 C0.33 0 0.66 0 1 0 C1 1.98 1 3.96 1 6 C0.67 6 0.34 6 0 6 C0 4.02 0 2.04 0 0 Z " fill="#353535" transform="translate(129,90)"/>
<path d="M0 0 C0.33 0 0.66 0 1 0 C1 1.98 1 3.96 1 6 C0.67 6 0.34 6 0 6 C0 4.02 0 2.04 0 0 Z " fill="#555555" transform="translate(111,90)"/>
<path d="M0 0 C1.98 0 3.96 0 6 0 C6 0.33 6 0.66 6 1 C4.02 1 2.04 1 0 1 C0 0.67 0 0.34 0 0 Z " fill="#575757" transform="translate(137,87)"/>
<path d="M0 0 C1.98 0 3.96 0 6 0 C6 0.33 6 0.66 6 1 C4.02 1 2.04 1 0 1 C0 0.67 0 0.34 0 0 Z " fill="#005C31" transform="translate(121,76)"/>
<path d="M0 0 C1.98 0 3.96 0 6 0 C6 0.33 6 0.66 6 1 C4.02 1 2.04 1 0 1 C0 0.67 0 0.34 0 0 Z " fill="#007823" transform="translate(115,75)"/>
<path d="M0 0 C1.98 0 3.96 0 6 0 C6 0.33 6 0.66 6 1 C4.02 1 2.04 1 0 1 C0 0.67 0 0.34 0 0 Z " fill="#5C8331" transform="translate(83,68)"/>
<path d="M0 0 C1.98 0 3.96 0 6 0 C6 0.33 6 0.66 6 1 C4.02 1 2.04 1 0 1 C0 0.67 0 0.34 0 0 Z " fill="#638623" transform="translate(16,68)"/>
<path d="M0 0 C1.32 0.66 2.64 1.32 4 2 C2.35 2 0.7 2 -1 2 C-0.67 1.34 -0.34 0.68 0 0 Z " fill="#4D7F38" transform="translate(15,60)"/>
<path d="M0 0 C0.66 0.33 1.32 0.66 2 1 C0.02 1.99 0.02 1.99 -2 3 C-1.34 2.01 -0.68 1.02 0 0 Z " fill="#004318" transform="translate(6,59)"/>
<path d="M0 0 C1.98 0 3.96 0 6 0 C6 0.33 6 0.66 6 1 C4.02 1 2.04 1 0 1 C0 0.67 0 0.34 0 0 Z " fill="#8EBB2E" transform="translate(80,60)"/>
<path d="M0 0 C1.98 0 3.96 0 6 0 C6 0.33 6 0.66 6 1 C4.02 1 2.04 1 0 1 C0 0.67 0 0.34 0 0 Z " fill="#95C935" transform="translate(19,60)"/>
<path d="M0 0 C0.66 0.33 1.32 0.66 2 1 C0.02 1.99 0.02 1.99 -2 3 C-1.34 2.01 -0.68 1.02 0 0 Z " fill="#188D18" transform="translate(20,55)"/>
<path d="M0 0 C0.66 0.33 1.32 0.66 2 1 C0.02 1.99 0.02 1.99 -2 3 C-1.34 2.01 -0.68 1.02 0 0 Z " fill="#189C18" transform="translate(22,44)"/>
<path d="M0 0 C0.66 0.33 1.32 0.66 2 1 C0.02 1.99 0.02 1.99 -2 3 C-1.34 2.01 -0.68 1.02 0 0 Z " fill="#589C18" transform="translate(36,40)"/>
<path d="M0 0 C0.66 0.33 1.32 0.66 2 1 C0.02 1.99 0.02 1.99 -2 3 C-1.34 2.01 -0.68 1.02 0 0 Z " fill="#A0B616" transform="translate(90,7)"/>
<path d="M0 0 C0.66 0.33 1.32 0.66 2 1 C0.02 1.99 0.02 1.99 -2 3 C-1.34 2.01 -0.68 1.02 0 0 Z " fill="#63912E" transform="translate(80,7)"/>
<path d="M0 0 C0 0.99 0 1.98 0 3 C-0.66 2.67 -1.32 2.34 -2 2 C-1.34 1.34 -0.68 0.68 0 0 Z " fill="#3B3B3B" transform="translate(41,99)"/>
<path d="M0 0 C1.65 0 3.3 0 5 0 C5 0.33 5 0.66 5 1 C3.35 1 1.7 1 0 1 C0 0.67 0 0.34 0 0 Z " fill="#337F33" transform="translate(94,70)"/>
<path d="M0 0 C1.65 0 3.3 0 5 0 C5 0.33 5 0.66 5 1 C3.35 1 1.7 1 0 1 C0 0.67 0 0.34 0 0 Z " fill="#55772E" transform="translate(89,69)"/>
<path d="M0 0 C1.65 0 3.3 0 5 0 C5 0.33 5 0.66 5 1 C3.35 1 1.7 1 0 1 C0 0.67 0 0.34 0 0 Z " fill="#2A772A" transform="translate(11,69)"/>
<path d="M0 0 C1.65 0 3.3 0 5 0 C5 0.33 5 0.66 5 1 C3.35 1 1.7 1 0 1 C0 0.67 0 0.34 0 0 Z " fill="#2A772A" transform="translate(184,67)"/>
<path d="M0 0 C0.66 0.66 1.32 1.32 2 2 C0.68 1.67 -0.64 1.34 -2 1 C-1.34 0.67 -0.68 0.34 0 0 Z " fill="#417E4B" transform="translate(107,64)"/>
<path d="M0 0 C1.65 0 3.3 0 5 0 C5 0.33 5 0.66 5 1 C3.35 1 1.7 1 0 1 C0 0.67 0 0.34 0 0 Z " fill="#668C4C" transform="translate(92,62)"/>
<path d="M0 0 C1.65 0 3.3 0 5 0 C5 0.33 5 0.66 5 1 C3.35 1 1.7 1 0 1 C0 0.67 0 0.34 0 0 Z " fill="#77B648" transform="translate(87,61)"/>
<path d="M0 0 C4 1 4 1 4 1 Z " fill="#404040" transform="translate(138,104)"/>
<path d="M0 0 C4 1 4 1 4 1 Z " fill="#000000" transform="translate(115,104)"/>
<path d="M0 0 C4 1 4 1 4 1 Z " fill="#9F9F9F" transform="translate(32,104)"/>
<path d="M0 0 C1 4 1 4 1 4 Z " fill="#4A4A4A" transform="translate(134,91)"/>
<path d="M0 0 C1 4 1 4 1 4 Z " fill="#404040" transform="translate(44,91)"/>
<path d="M0 0 C1 4 1 4 1 4 Z " fill="#5F5F5F" transform="translate(22,91)"/>
<path d="M0 0 C1 4 1 4 1 4 Z " fill="#555555" transform="translate(67,88)"/>
<path d="M0 0 C0.33 0.99 0.66 1.98 1 3 C0.34 2.67 -0.32 2.34 -1 2 C-0.67 1.34 -0.34 0.68 0 0 Z " fill="#606060" transform="translate(62,89)"/>
<path d="M0 0 C4 1 4 1 4 1 Z " fill="#258A3A" transform="translate(111,74)"/>
<path d="M0 0 C4 1 4 1 4 1 Z " fill="#25AA25" transform="translate(191,73)"/>
<path d="M0 0 C4 1 4 1 4 1 Z " fill="#209F20" transform="translate(107,73)"/>
<path d="M0 0 C4 1 4 1 4 1 Z " fill="#25AA25" transform="translate(195,72)"/>
<path d="M0 0 C4 1 4 1 4 1 Z " fill="#25AA25" transform="translate(99,71)"/>
<path d="M0 0 C4 1 4 1 4 1 Z " fill="#45AA25" transform="translate(7,70)"/>
<path d="M0 0 C4 1 4 1 4 1 Z " fill="#2C592C" transform="translate(180,68)"/>
<path d="M0 0 C4 1 4 1 4 1 Z " fill="#3A9F3A" transform="translate(189,66)"/>
<path d="M0 0 C0.99 0.33 1.98 0.66 3 1 C2.01 1 1.02 1 0 1 C0 0.67 0 0.34 0 0 Z " fill="#00390C" transform="translate(177,66)"/>
<path d="M0 0 C4 1 4 1 4 1 Z " fill="#45AA25" transform="translate(193,65)"/>
<path d="M0 0 C0.99 0.33 1.98 0.66 3 1 C2.01 1 1.02 1 0 1 C0 0.67 0 0.34 0 0 Z " fill="#00590C" transform="translate(165,65)"/>
<path d="M0 0 C4 1 4 1 4 1 Z " fill="#4AC43A" transform="translate(101,64)"/>
<path d="M0 0 C4 1 4 1 4 1 Z " fill="#45BA35" transform="translate(97,63)"/>
<path d="M0 0 C0.99 0.33 1.98 0.66 3 1 C2.01 1 1.02 1 0 1 C0 0.67 0 0.34 0 0 Z " fill="#00390C" transform="translate(172,62)"/>
<path d="M0 0 C0.99 0.33 1.98 0.66 3 1 C2.01 1 1.02 1 0 1 C0 0.67 0 0.34 0 0 Z " fill="#0C790C" transform="translate(111,59)"/>
<path d="M0 0 C0.99 0.33 1.98 0.66 3 1 C2.01 1 1.02 1 0 1 C0 0.67 0 0.34 0 0 Z " fill="#103525" transform="translate(100,59)"/>
<path d="M0 0 C0.99 0.33 1.98 0.66 3 1 C2.01 1 1.02 1 0 1 C0 0.67 0 0.34 0 0 Z " fill="#004030" transform="translate(167,58)"/>
<path d="M0 0 C0.99 0.33 1.98 0.66 3 1 C2.01 1 1.02 1 0 1 C0 0.67 0 0.34 0 0 Z " fill="#103525" transform="translate(162,54)"/>
<path d="M0 0 C0.99 0.33 1.98 0.66 3 1 C2.01 1 1.02 1 0 1 C0 0.67 0 0.34 0 0 Z " fill="#2C792C" transform="translate(98,49)"/>
<path d="M0 0 C0.99 0.33 1.98 0.66 3 1 C2.01 1 1.02 1 0 1 C0 0.67 0 0.34 0 0 Z " fill="#222E22" transform="translate(87,49)"/>
<path d="M0 0 C0.99 0.33 1.98 0.66 3 1 C2.01 1 1.02 1 0 1 C0 0.67 0 0.34 0 0 Z " fill="#2C792C" transform="translate(178,47)"/>
<path d="M0 0 C0.99 0.33 1.98 0.66 3 1 C2.01 1 1.02 1 0 1 C0 0.67 0 0.34 0 0 Z " fill="#103525" transform="translate(152,46)"/>
<path d="M0 0 C0.99 0.33 1.98 0.66 3 1 C2.01 1 1.02 1 0 1 C0 0.67 0 0.34 0 0 Z " fill="#2C590C" transform="translate(185,44)"/>
<path d="M0 0 C0.99 0.33 1.98 0.66 3 1 C2.01 1 1.02 1 0 1 C0 0.67 0 0.34 0 0 Z " fill="#59660C" transform="translate(173,43)"/>
<path d="M0 0 C0.99 0.33 1.98 0.66 3 1 C2.01 1 1.02 1 0 1 C0 0.67 0 0.34 0 0 Z " fill="#59662C" transform="translate(180,40)"/>
<path d="M0 0 C0.99 0.33 1.98 0.66 3 1 C2.01 1 1.02 1 0 1 C0 0.67 0 0.34 0 0 Z " fill="#39862C" transform="translate(85,39)"/>
<path d="M0 0 C0.99 0.33 1.98 0.66 3 1 C2.01 1 1.02 1 0 1 C0 0.67 0 0.34 0 0 Z " fill="#2E9022" transform="translate(74,39)"/>
<path d="M0 0 C0.99 0.33 1.98 0.66 3 1 C2.01 1 1.02 1 0 1 C0 0.67 0 0.34 0 0 Z " fill="#40EF30" transform="translate(175,36)"/>
<path d="M0 0 C0.99 0.33 1.98 0.66 3 1 C2.01 1 1.02 1 0 1 C0 0.67 0 0.34 0 0 Z " fill="#6A7F2A" transform="translate(139,35)"/>
<path d="M0 0 C0.66 0.33 1.32 0.66 2 1 C1.01 1 0.02 1 -1 1 C-0.67 0.67 -0.34 0.34 0 0 Z " fill="#7FEF30" transform="translate(155,31)"/>
<path d="M0 0 C0.66 0.33 1.32 0.66 2 1 C1.01 1 0.02 1 -1 1 C-0.67 0.67 -0.34 0.34 0 0 Z " fill="#60AF10" transform="translate(147,29)"/>
<path d="M0 0 C0.99 0.33 1.98 0.66 3 1 C2.01 1 1.02 1 0 1 C0 0.67 0 0.34 0 0 Z " fill="#6E9022" transform="translate(61,29)"/>
<path d="M0 0 C0.99 0.33 1.98 0.66 3 1 C2.01 1 1.02 1 0 1 C0 0.67 0 0.34 0 0 Z " fill="#2E9022" transform="translate(72,29)"/>
<path d="M0 0 C0.66 0.33 1.32 0.66 2 1 C1.01 1 0.02 1 -1 1 C-0.67 0.67 -0.34 0.34 0 0 Z " fill="#BFEF30" transform="translate(153,24)"/>
<path d="M0 0 C0.99 0.33 1.98 0.66 3 1 C2.01 1 1.02 1 0 1 C0 0.67 0 0.34 0 0 Z " fill="#90DD22" transform="translate(59,19)"/>
<path d="M0 0 C0.66 0.33 1.32 0.66 2 1 C1.01 1 0.02 1 -1 1 C-0.67 0.67 -0.34 0.34 0 0 Z " fill="#60AF10" transform="translate(80,16)"/>
<path d="M0 0 C0.66 0.33 1.32 0.66 2 1 C1.01 1 0.02 1 -1 1 C-0.67 0.67 -0.34 0.34 0 0 Z " fill="#60AF30" transform="translate(70,16)"/>
<path d="M0 0 C3 1 3 1 3 1 Z " fill="#555555" transform="translate(142,103)"/>
<path d="M0 0 C3 1 3 1 3 1 Z " fill="#313131" transform="translate(119,103)"/>
<path d="M0 0 C3 1 3 1 3 1 Z " fill="#383838" transform="translate(141,98)"/>
<path d="M0 0 C3 1 3 1 3 1 Z " fill="#4C4C4C" transform="translate(137,98)"/>
<path d="M0 0 C0.66 0.66 1.32 1.32 2 2 C1.34 2 0.68 2 0 2 C0 1.34 0 0.68 0 0 Z " fill="#7F7F7F" transform="translate(64,97)"/>
<path d="M0 0 C3 1 3 1 3 1 Z " fill="#474747" transform="translate(34,98)"/>
<path d="M0 0 C3 1 3 1 3 1 Z " fill="#474747" transform="translate(30,98)"/>
<path d="M0 0 C0.66 0.66 1.32 1.32 2 2 C1.34 2 0.68 2 0 2 C0 1.34 0 0.68 0 0 Z " fill="#717171" transform="translate(112,96)"/>
<path d="" fill="#555555" transform="translate(0,0)"/>
<path d="" fill="#474747" transform="translate(0,0)"/>
<path d="M0 0 C0.99 0.495 0.99 0.495 2 1 C1.01 1.495 1.01 1.495 0 2 C0 1.34 0 0.68 0 0 Z " fill="#474747" transform="translate(112,88)"/>
<path d="" fill="#474747" transform="translate(0,0)"/>
<path d="" fill="#313131" transform="translate(0,0)"/>
<path d="M0 0 C0.66 0 1.32 0 2 0 C1.67 0.66 1.34 1.32 1 2 C0.67 1.34 0.34 0.68 0 0 Z " fill="#9C9C9C" transform="translate(143,88)"/>
<path d="M0 0 C3 1 3 1 3 1 Z " fill="#313131" transform="translate(119,82)"/>
<path d="M0 0 C3 1 3 1 3 1 Z " fill="#717171" transform="translate(113,82)"/>
<path d="M0 0 C3 1 3 1 3 1 Z " fill="#2A802A" transform="translate(103,72)"/>
<path d="M0 0 C3 1 3 1 3 1 Z " fill="#5C8E31" transform="translate(199,71)"/>
<path d="M0 0 C3 1 3 1 3 1 Z " fill="#2A802A" transform="translate(4,71)"/>
<path d="M0 0 C3 1 3 1 3 1 Z " fill="#6A8040" transform="translate(202,70)"/>
<path d="M0 0 C3 1 3 1 3 1 Z " fill="#AAAA15" transform="translate(205,69)"/>
<path d="M0 0 C2 1 2 1 2 1 Z " fill="#2A2A2A" transform="translate(181,103)"/>
<path d="M0 0 C2 1 2 1 2 1 Z " fill="#6A6A6A" transform="translate(170,103)"/>
<path d="M0 0 C2 1 2 1 2 1 Z " fill="#2A2A2A" transform="translate(157,103)"/>
<path d="M0 0 C2 1 2 1 2 1 Z " fill="#4A4A4A" transform="translate(136,103)"/>
<path d="M0 0 C2 1 2 1 2 1 Z " fill="#4A4A4A" transform="translate(113,103)"/>
<path d="M0 0 C2 1 2 1 2 1 Z " fill="#404040" transform="translate(63,103)"/>
<path d="M0 0 C2 1 2 1 2 1 Z " fill="#404040" transform="translate(51,103)"/>
<path d="M0 0 C2 1 2 1 2 1 Z " fill="#808080" transform="translate(36,103)"/>
<path d="M0 0 C2 1 2 1 2 1 Z " fill="#808080" transform="translate(29,103)"/>
<path d="M0 0 C2 1 2 1 2 1 Z " fill="#202020" transform="translate(134,102)"/>
<path d="M0 0 C2 1 2 1 2 1 Z " fill="#6A6A6A" transform="translate(111,102)"/>
<path d="" fill="#2A2A2A" transform="translate(0,0)"/>
<path d="" fill="#000000" transform="translate(0,0)"/>
<path d="" fill="#808080" transform="translate(0,0)"/>
<path d="" fill="#202020" transform="translate(0,0)"/>
<path d="" fill="#808080" transform="translate(0,0)"/>
<path d="" fill="#404040" transform="translate(0,0)"/>
<path d="" fill="#555555" transform="translate(0,0)"/>
<path d="" fill="#333333" transform="translate(0,0)"/>
<path d="M0 0 C2 1 2 1 2 1 Z " fill="#606060" transform="translate(62,96)"/>
<path d="" fill="#BFBFBF" transform="translate(0,0)"/>
<path d="" fill="#BFBFBF" transform="translate(0,0)"/>
<path d="" fill="#404040" transform="translate(0,0)"/>
<path d="" fill="#6A6A6A" transform="translate(0,0)"/>
<path d="" fill="#333333" transform="translate(0,0)"/>
<path d="" fill="#606060" transform="translate(0,0)"/>
<path d="M0 0 C2 1 2 1 2 1 Z " fill="#6A6A6A" transform="translate(122,89)"/>
<path d="" fill="#204040" transform="translate(0,0)"/>
<path d="" fill="#404040" transform="translate(0,0)"/>
<path d="" fill="#2A2A2A" transform="translate(0,0)"/>
<path d="" fill="#808080" transform="translate(0,0)"/>
<path d="" fill="#000000" transform="translate(0,0)"/>
<path d="" fill="#333333" transform="translate(0,0)"/>
<path d="" fill="#808080" transform="translate(0,0)"/>
<path d="M0 0 C2 1 2 1 2 1 Z " fill="#404040" transform="translate(133,84)"/>
<path d="M0 0 C2 1 2 1 2 1 Z " fill="#202020" transform="translate(144,83)"/>
<path d="M0 0 C2 1 2 1 2 1 Z " fill="#202020" transform="translate(111,83)"/>
<path d="M0 0 C2 1 2 1 2 1 Z " fill="#6A6A6A" transform="translate(62,83)"/>
<path d="M0 0 C2 1 2 1 2 1 Z " fill="#6A6A6A" transform="translate(37,83)"/>
<path d="M0 0 C2 1 2 1 2 1 Z " fill="#AAAAAA" transform="translate(181,82)"/>
<path d="M0 0 C2 1 2 1 2 1 Z " fill="#808080" transform="translate(170,82)"/>
<path d="M0 0 C2 1 2 1 2 1 Z " fill="#202020" transform="translate(158,82)"/>
<path d="M0 0 C2 1 2 1 2 1 Z " fill="#00FF00" transform="translate(2,72)"/>
<path d="" fill="#204020" transform="translate(0,0)"/>
<path d="M0 0 C2 1 2 1 2 1 Z " fill="#005555" transform="translate(170,69)"/>
<path d="" fill="#2AD42A" transform="translate(0,0)"/>
<path d="M0 0 C2 1 2 1 2 1 Z " fill="#002020" transform="translate(120,66)"/>
<path d="M0 0 C2 1 2 1 2 1 Z " fill="#2F8C2F" transform="translate(109,66)"/>
<path d="M0 0 C2 1 2 1 2 1 Z " fill="#006A2A" transform="translate(116,63)"/>
<path d="M0 0 C2 1 2 1 2 1 Z " fill="#009F20" transform="translate(105,63)"/>
<path d="M0 0 C2 1 2 1 2 1 Z " fill="#00FF00" transform="translate(206,61)"/>
<path d="M0 0 C2 1 2 1 2 1 Z " fill="#008000" transform="translate(160,61)"/>
<path d="M0 0 C2 1 2 1 2 1 Z " fill="#002A2A" transform="translate(194,60)"/>
<path d="M0 0 C2 1 2 1 2 1 Z " fill="#009F20" transform="translate(201,57)"/>
<path d="M0 0 C2 1 2 1 2 1 Z " fill="#008040" transform="translate(155,57)"/>
<path d="M0 0 C2 1 2 1 2 1 Z " fill="#20BF20" transform="translate(189,56)"/>
<path d="M0 0 C2 1 2 1 2 1 Z " fill="#20BF20" transform="translate(107,56)"/>
<path d="M0 0 C2 1 2 1 2 1 Z " fill="#008040" transform="translate(96,56)"/>
<path d="M0 0 C2 1 2 1 2 1 Z " fill="#006A2A" transform="translate(196,53)"/>
<path d="M0 0 C2 1 2 1 2 1 Z " fill="#006A2A" transform="translate(150,53)"/>
<path d="M0 0 C2 1 2 1 2 1 Z " fill="#2A6A2A" transform="translate(103,53)"/>
<path d="M0 0 C2 1 2 1 2 1 Z " fill="#20BF20" transform="translate(92,53)"/>
<path d="M0 0 C2 1 2 1 2 1 Z " fill="#204020" transform="translate(184,52)"/>
<path d="M0 0 C2 1 2 1 2 1 Z " fill="#204020" transform="translate(157,50)"/>
<path d="M0 0 C2 1 2 1 2 1 Z " fill="#006A2A" transform="translate(191,49)"/>
<path d="M0 0 C2 1 2 1 2 1 Z " fill="#2A6A2A" transform="translate(145,49)"/>
<path d="M0 0 C2 1 2 1 2 1 Z " fill="#20BF20" transform="translate(94,46)"/>
<path d="M0 0 C2 1 2 1 2 1 Z " fill="#808040" transform="translate(83,46)"/>
<path d="M0 0 C2 1 2 1 2 1 Z " fill="#2A6A2A" transform="translate(140,45)"/>
<path d="M0 0 C2 1 2 1 2 1 Z " fill="#6A952A" transform="translate(90,43)"/>
<path d="M0 0 C2 1 2 1 2 1 Z " fill="#20BF20" transform="translate(79,43)"/>
<path d="M0 0 C2 1 2 1 2 1 Z " fill="#20BF20" transform="translate(147,42)"/>
<path d="M0 0 C2 1 2 1 2 1 Z " fill="#2A952A" transform="translate(135,41)"/>
<path d="M0 0 C2 1 2 1 2 1 Z " fill="#6A952A" transform="translate(168,39)"/>
<path d="M0 0 C2 1 2 1 2 1 Z " fill="#AAD42A" transform="translate(148,37)"/>
<path d="M0 0 C2 1 2 1 2 1 Z " fill="#2A952A" transform="translate(130,37)"/>
<path d="M0 0 C2 1 2 1 2 1 Z " fill="#9FBF20" transform="translate(81,36)"/>
<path d="M0 0 C2 1 2 1 2 1 Z " fill="#6A952A" transform="translate(70,36)"/>
<path d="M0 0 C2 1 2 1 2 1 Z " fill="#6A952A" transform="translate(163,35)"/>
<path d="M0 0 C2 1 2 1 2 1 Z " fill="#20BF20" transform="translate(137,34)"/>
<path d="M0 0 C2 1 2 1 2 1 Z " fill="#2AD42A" transform="translate(125,33)"/>
<path d="M0 0 C2 1 2 1 2 1 Z " fill="#6A952A" transform="translate(77,33)"/>
<path d="M0 0 C2 1 2 1 2 1 Z " fill="#BFDF20" transform="translate(66,33)"/>
<path d="M0 0 C2 1 2 1 2 1 Z " fill="#40DF20" transform="translate(170,32)"/>
<path d="M0 0 C2 1 2 1 2 1 Z " fill="#D4D42A" transform="translate(158,31)"/>
<path d="M0 0 C2 1 2 1 2 1 Z " fill="#2AD42A" transform="translate(132,30)"/>
<path d="M0 0 C2 1 2 1 2 1 Z " fill="#AAD42A" transform="translate(120,29)"/>
<path d="M0 0 C2 1 2 1 2 1 Z " fill="#BFDF20" transform="translate(165,28)"/>
<path d="M0 0 C2 1 2 1 2 1 Z " fill="#AAD42A" transform="translate(127,26)"/>
<path d="M0 0 C2 1 2 1 2 1 Z " fill="#95952A" transform="translate(57,26)"/>
<path d="M0 0 C2 1 2 1 2 1 Z " fill="#9FBF20" transform="translate(115,25)"/>
<path d="M0 0 C2 1 2 1 2 1 Z " fill="#BFFF40" transform="translate(70,25)"/>
<path d="M0 0 C2 1 2 1 2 1 Z " fill="#D4FF2A" transform="translate(160,24)"/>
<path d="M0 0 C2 1 2 1 2 1 Z " fill="#AAD42A" transform="translate(122,22)"/>
<path d="M0 0 C2 1 2 1 2 1 Z " fill="#7F9933" transform="translate(63,22)"/>
<path d="M0 0 C2 1 2 1 2 1 Z " fill="#BFBF20" transform="translate(110,21)"/>
<path d="M0 0 C2 1 2 1 2 1 Z " fill="#95952A" transform="translate(117,18)"/>
<path d="M0 0 C2 1 2 1 2 1 Z " fill="#BFDF20" transform="translate(105,17)"/>
<path d="M0 0 C2 1 2 1 2 1 Z " fill="#BFFF00" transform="translate(55,16)"/>
<path d="M0 0 C2 1 2 1 2 1 Z " fill="#557F2A" transform="translate(53,15)"/>
<path d="M0 0 C2 1 2 1 2 1 Z " fill="#6A952A" transform="translate(112,14)"/>
<path d="M0 0 C2 1 2 1 2 1 Z " fill="#BFDF20" transform="translate(100,13)"/>
<path d="M0 0 C2 1 2 1 2 1 Z " fill="#95952A" transform="translate(107,10)"/>
<path d="M0 0 C2 1 2 1 2 1 Z " fill="#BFDF20" transform="translate(95,9)"/>
<path d="M0 0 C2 1 2 1 2 1 Z " fill="#6A952A" transform="translate(102,6)"/>
<path d="M0 0 C2 1 2 1 2 1 Z " fill="#80BF40" transform="translate(97,2)"/>
<path d="M0 0 C2 1 2 1 2 1 Z " fill="#BFFF00" transform="translate(88,0)"/>
<path d="" fill="#808080" transform="translate(0,0)"/>
<path d="" fill="#808080" transform="translate(0,0)"/>
<path d="" fill="#000000" transform="translate(0,0)"/>
<path d="" fill="#000000" transform="translate(0,0)"/>
<path d="" fill="#000000" transform="translate(0,0)"/>
<path d="" fill="#555555" transform="translate(0,0)"/>
<path d="" fill="#000000" transform="translate(0,0)"/>
<path d="" fill="#555555" transform="translate(0,0)"/>
<path d="" fill="#555555" transform="translate(0,0)"/>
<path d="" fill="#000000" transform="translate(0,0)"/>
<path d="" fill="#000000" transform="translate(0,0)"/>
<path d="" fill="#808080" transform="translate(0,0)"/>
<path d="" fill="#000000" transform="translate(0,0)"/>
<path d="" fill="#000000" transform="translate(0,0)"/>
<path d="" fill="#408080" transform="translate(0,0)"/>
<path d="" fill="#404040" transform="translate(0,0)"/>
<path d="" fill="#808080" transform="translate(0,0)"/>
<path d="" fill="#808080" transform="translate(0,0)"/>
<path d="" fill="#808080" transform="translate(0,0)"/>
<path d="" fill="#404040" transform="translate(0,0)"/>
<path d="" fill="#555555" transform="translate(0,0)"/>
<path d="" fill="#808080" transform="translate(0,0)"/>
<path d="" fill="#808080" transform="translate(0,0)"/>
<path d="" fill="#555555" transform="translate(0,0)"/>
<path d="" fill="#808080" transform="translate(0,0)"/>
<path d="" fill="#808080" transform="translate(0,0)"/>
<path d="" fill="#808080" transform="translate(0,0)"/>
<path d="" fill="#555555" transform="translate(0,0)"/>
<path d="" fill="#555555" transform="translate(0,0)"/>
<path d="" fill="#555555" transform="translate(0,0)"/>
<path d="" fill="#808080" transform="translate(0,0)"/>
<path d="" fill="#555555" transform="translate(0,0)"/>
<path d="" fill="#808080" transform="translate(0,0)"/>
<path d="" fill="#000000" transform="translate(0,0)"/>
<path d="" fill="#404040" transform="translate(0,0)"/>
<path d="" fill="#FFFFFF" transform="translate(0,0)"/>
<path d="" fill="#808080" transform="translate(0,0)"/>
<path d="" fill="#404040" transform="translate(0,0)"/>
<path d="" fill="#666666" transform="translate(0,0)"/>
<path d="" fill="#606060" transform="translate(0,0)"/>
<path d="" fill="#555555" transform="translate(0,0)"/>
<path d="" fill="#666666" transform="translate(0,0)"/>
<path d="" fill="#666666" transform="translate(0,0)"/>
<path d="" fill="#555555" transform="translate(0,0)"/>
<path d="" fill="#666666" transform="translate(0,0)"/>
<path d="" fill="#808080" transform="translate(0,0)"/>
<path d="" fill="#000000" transform="translate(0,0)"/>
<path d="" fill="#FFFFFF" transform="translate(0,0)"/>
<path d="" fill="#555555" transform="translate(0,0)"/>
<path d="" fill="#000000" transform="translate(0,0)"/>
<path d="" fill="#555555" transform="translate(0,0)"/>
<path d="" fill="#000000" transform="translate(0,0)"/>
<path d="" fill="#555555" transform="translate(0,0)"/>
<path d="" fill="#FFFFFF" transform="translate(0,0)"/>
<path d="" fill="#555555" transform="translate(0,0)"/>
<path d="" fill="#666666" transform="translate(0,0)"/>
<path d="" fill="#808080" transform="translate(0,0)"/>
<path d="" fill="#000000" transform="translate(0,0)"/>
<path d="" fill="#404080" transform="translate(0,0)"/>
<path d="" fill="#555555" transform="translate(0,0)"/>
<path d="" fill="#606060" transform="translate(0,0)"/>
<path d="" fill="#6D6D6D" transform="translate(0,0)"/>
<path d="" fill="#555555" transform="translate(0,0)"/>
<path d="" fill="#808080" transform="translate(0,0)"/>
<path d="" fill="#555555" transform="translate(0,0)"/>
<path d="" fill="#555555" transform="translate(0,0)"/>
<path d="" fill="#666666" transform="translate(0,0)"/>
<path d="" fill="#555555" transform="translate(0,0)"/>
<path d="" fill="#808080" transform="translate(0,0)"/>
<path d="" fill="#FFFFFF" transform="translate(0,0)"/>
<path d="" fill="#808080" transform="translate(0,0)"/>
<path d="" fill="#808080" transform="translate(0,0)"/>
<path d="" fill="#555555" transform="translate(0,0)"/>
<path d="" fill="#555555" transform="translate(0,0)"/>
<path d="" fill="#555555" transform="translate(0,0)"/>
<path d="" fill="#555555" transform="translate(0,0)"/>
<path d="" fill="#808080" transform="translate(0,0)"/>
<path d="" fill="#404040" transform="translate(0,0)"/>
<path d="" fill="#000000" transform="translate(0,0)"/>
<path d="" fill="#555555" transform="translate(0,0)"/>
<path d="" fill="#808080" transform="translate(0,0)"/>
<path d="" fill="#555555" transform="translate(0,0)"/>
<path d="" fill="#555555" transform="translate(0,0)"/>
<path d="" fill="#808080" transform="translate(0,0)"/>
<path d="" fill="#404040" transform="translate(0,0)"/>
<path d="" fill="#000000" transform="translate(0,0)"/>
<path d="" fill="#000000" transform="translate(0,0)"/>
<path d="" fill="#000000" transform="translate(0,0)"/>
<path d="" fill="#000000" transform="translate(0,0)"/>
<path d="" fill="#FFFFFF" transform="translate(0,0)"/>
<path d="" fill="#FFFFFF" transform="translate(0,0)"/>
<path d="" fill="#000000" transform="translate(0,0)"/>
<path d="" fill="#808080" transform="translate(0,0)"/>
<path d="" fill="#555555" transform="translate(0,0)"/>
<path d="" fill="#FFFFFF" transform="translate(0,0)"/>
<path d="" fill="#000000" transform="translate(0,0)"/>
<path d="" fill="#000000" transform="translate(0,0)"/>
<path d="" fill="#555555" transform="translate(0,0)"/>
<path d="" fill="#000000" transform="translate(0,0)"/>
<path d="" fill="#000000" transform="translate(0,0)"/>
<path d="" fill="#000000" transform="translate(0,0)"/>
<path d="" fill="#004040" transform="translate(0,0)"/>
<path d="" fill="#005555" transform="translate(0,0)"/>
<path d="" fill="#006633" transform="translate(0,0)"/>
<path d="" fill="#005555" transform="translate(0,0)"/>
<path d="" fill="#006633" transform="translate(0,0)"/>
<path d="" fill="#006633" transform="translate(0,0)"/>
<path d="" fill="#008000" transform="translate(0,0)"/>
<path d="" fill="#669933" transform="translate(0,0)"/>
<path d="" fill="#008040" transform="translate(0,0)"/>
<path d="" fill="#004040" transform="translate(0,0)"/>
<path d="" fill="#004040" transform="translate(0,0)"/>
<path d="" fill="#008080" transform="translate(0,0)"/>
<path d="" fill="#006633" transform="translate(0,0)"/>
<path d="" fill="#005555" transform="translate(0,0)"/>
<path d="" fill="#00FF00" transform="translate(0,0)"/>
<path d="" fill="#006633" transform="translate(0,0)"/>
<path d="" fill="#006633" transform="translate(0,0)"/>
<path d="" fill="#006633" transform="translate(0,0)"/>
<path d="" fill="#005555" transform="translate(0,0)"/>
<path d="" fill="#006633" transform="translate(0,0)"/>
<path d="" fill="#008000" transform="translate(0,0)"/>
<path d="" fill="#006633" transform="translate(0,0)"/>
<path d="" fill="#006633" transform="translate(0,0)"/>
<path d="" fill="#008040" transform="translate(0,0)"/>
<path d="" fill="#336633" transform="translate(0,0)"/>
<path d="" fill="#006633" transform="translate(0,0)"/>
<path d="" fill="#008040" transform="translate(0,0)"/>
<path d="" fill="#004040" transform="translate(0,0)"/>
<path d="" fill="#008040" transform="translate(0,0)"/>
<path d="" fill="#005555" transform="translate(0,0)"/>
<path d="" fill="#336633" transform="translate(0,0)"/>
<path d="" fill="#336633" transform="translate(0,0)"/>
<path d="" fill="#005555" transform="translate(0,0)"/>
<path d="" fill="#336633" transform="translate(0,0)"/>
<path d="" fill="#336633" transform="translate(0,0)"/>
<path d="" fill="#336633" transform="translate(0,0)"/>
<path d="" fill="#336633" transform="translate(0,0)"/>
<path d="" fill="#408040" transform="translate(0,0)"/>
<path d="" fill="#408040" transform="translate(0,0)"/>
<path d="" fill="#336633" transform="translate(0,0)"/>
<path d="" fill="#336633" transform="translate(0,0)"/>
<path d="" fill="#005555" transform="translate(0,0)"/>
<path d="" fill="#336633" transform="translate(0,0)"/>
<path d="" fill="#336633" transform="translate(0,0)"/>
<path d="" fill="#336633" transform="translate(0,0)"/>
<path d="" fill="#008040" transform="translate(0,0)"/>
<path d="" fill="#408040" transform="translate(0,0)"/>
<path d="" fill="#336633" transform="translate(0,0)"/>
<path d="" fill="#336633" transform="translate(0,0)"/>
<path d="" fill="#005555" transform="translate(0,0)"/>
<path d="" fill="#336633" transform="translate(0,0)"/>
<path d="" fill="#336633" transform="translate(0,0)"/>
<path d="" fill="#408040" transform="translate(0,0)"/>
<path d="" fill="#2B552B" transform="translate(0,0)"/>
<path d="" fill="#005555" transform="translate(0,0)"/>
<path d="" fill="#408040" transform="translate(0,0)"/>
<path d="" fill="#336633" transform="translate(0,0)"/>
<path d="" fill="#408040" transform="translate(0,0)"/>
<path d="" fill="#336633" transform="translate(0,0)"/>
<path d="" fill="#008080" transform="translate(0,0)"/>
<path d="" fill="#336633" transform="translate(0,0)"/>
<path d="" fill="#336633" transform="translate(0,0)"/>
<path d="" fill="#336633" transform="translate(0,0)"/>
<path d="" fill="#555555" transform="translate(0,0)"/>
<path d="" fill="#336633" transform="translate(0,0)"/>
<path d="" fill="#336633" transform="translate(0,0)"/>
<path d="" fill="#408040" transform="translate(0,0)"/>
<path d="" fill="#55AA55" transform="translate(0,0)"/>
<path d="" fill="#336633" transform="translate(0,0)"/>
<path d="" fill="#55AA55" transform="translate(0,0)"/>
<path d="" fill="#55AA55" transform="translate(0,0)"/>
<path d="" fill="#336633" transform="translate(0,0)"/>
<path d="" fill="#336633" transform="translate(0,0)"/>
<path d="" fill="#808080" transform="translate(0,0)"/>
<path d="" fill="#005555" transform="translate(0,0)"/>
<path d="" fill="#336633" transform="translate(0,0)"/>
<path d="" fill="#408040" transform="translate(0,0)"/>
<path d="" fill="#336633" transform="translate(0,0)"/>
<path d="" fill="#408040" transform="translate(0,0)"/>
<path d="" fill="#408040" transform="translate(0,0)"/>
<path d="" fill="#55AA55" transform="translate(0,0)"/>
<path d="" fill="#408040" transform="translate(0,0)"/>
<path d="" fill="#336633" transform="translate(0,0)"/>
<path d="" fill="#408040" transform="translate(0,0)"/>
<path d="" fill="#408040" transform="translate(0,0)"/>
<path d="" fill="#339933" transform="translate(0,0)"/>
<path d="" fill="#336633" transform="translate(0,0)"/>
<path d="" fill="#336633" transform="translate(0,0)"/>
<path d="" fill="#55AA55" transform="translate(0,0)"/>
<path d="" fill="#336633" transform="translate(0,0)"/>
<path d="" fill="#408040" transform="translate(0,0)"/>
<path d="" fill="#408040" transform="translate(0,0)"/>
<path d="" fill="#336633" transform="translate(0,0)"/>
<path d="" fill="#339933" transform="translate(0,0)"/>
<path d="" fill="#339933" transform="translate(0,0)"/>
<path d="" fill="#555555" transform="translate(0,0)"/>
<path d="" fill="#339933" transform="translate(0,0)"/>
<path d="" fill="#336633" transform="translate(0,0)"/>
<path d="" fill="#55AA55" transform="translate(0,0)"/>
<path d="" fill="#669933" transform="translate(0,0)"/>
<path d="" fill="#669933" transform="translate(0,0)"/>
<path d="" fill="#808080" transform="translate(0,0)"/>
<path d="" fill="#408040" transform="translate(0,0)"/>
<path d="" fill="#408040" transform="translate(0,0)"/>
<path d="" fill="#339933" transform="translate(0,0)"/>
<path d="" fill="#669933" transform="translate(0,0)"/>
<path d="" fill="#669933" transform="translate(0,0)"/>
<path d="" fill="#339933" transform="translate(0,0)"/>
<path d="" fill="#339933" transform="translate(0,0)"/>
<path d="" fill="#408040" transform="translate(0,0)"/>
<path d="" fill="#669933" transform="translate(0,0)"/>
<path d="" fill="#408040" transform="translate(0,0)"/>
<path d="" fill="#55AA55" transform="translate(0,0)"/>
<path d="" fill="#408040" transform="translate(0,0)"/>
<path d="" fill="#669933" transform="translate(0,0)"/>
<path d="" fill="#669933" transform="translate(0,0)"/>
<path d="" fill="#669933" transform="translate(0,0)"/>
<path d="" fill="#555555" transform="translate(0,0)"/>
<path d="" fill="#336633" transform="translate(0,0)"/>
<path d="" fill="#669933" transform="translate(0,0)"/>
<path d="" fill="#408040" transform="translate(0,0)"/>
<path d="" fill="#408040" transform="translate(0,0)"/>
<path d="" fill="#408040" transform="translate(0,0)"/>
<path d="" fill="#336633" transform="translate(0,0)"/>
<path d="" fill="#669933" transform="translate(0,0)"/>
<path d="" fill="#55AA55" transform="translate(0,0)"/>
<path d="" fill="#669933" transform="translate(0,0)"/>
<path d="" fill="#669933" transform="translate(0,0)"/>
<path d="" fill="#339933" transform="translate(0,0)"/>
<path d="" fill="#408040" transform="translate(0,0)"/>
<path d="" fill="#669933" transform="translate(0,0)"/>
<path d="" fill="#669933" transform="translate(0,0)"/>
<path d="" fill="#669933" transform="translate(0,0)"/>
<path d="" fill="#558E39" transform="translate(0,0)"/>
<path d="" fill="#55AA55" transform="translate(0,0)"/>
<path d="" fill="#669933" transform="translate(0,0)"/>
<path d="" fill="#669933" transform="translate(0,0)"/>
<path d="" fill="#669933" transform="translate(0,0)"/>
<path d="" fill="#339933" transform="translate(0,0)"/>
<path d="" fill="#808000" transform="translate(0,0)"/>
<path d="" fill="#669933" transform="translate(0,0)"/>
<path d="" fill="#808040" transform="translate(0,0)"/>
<path d="" fill="#808040" transform="translate(0,0)"/>
<path d="" fill="#669933" transform="translate(0,0)"/>
<path d="" fill="#669933" transform="translate(0,0)"/>
<path d="" fill="#669933" transform="translate(0,0)"/>
<path d="" fill="#669933" transform="translate(0,0)"/>
<path d="" fill="#55AA55" transform="translate(0,0)"/>
<path d="" fill="#669933" transform="translate(0,0)"/>
<path d="" fill="#669933" transform="translate(0,0)"/>
<path d="" fill="#55AA55" transform="translate(0,0)"/>
<path d="" fill="#669933" transform="translate(0,0)"/>
<path d="" fill="#55AA55" transform="translate(0,0)"/>
<path d="" fill="#669933" transform="translate(0,0)"/>
<path d="" fill="#669933" transform="translate(0,0)"/>
<path d="" fill="#55AA55" transform="translate(0,0)"/>
<path d="" fill="#55AA55" transform="translate(0,0)"/>
<path d="" fill="#808040" transform="translate(0,0)"/>
<path d="" fill="#669933" transform="translate(0,0)"/>
<path d="" fill="#669933" transform="translate(0,0)"/>
<path d="" fill="#80BF40" transform="translate(0,0)"/>
<path d="" fill="#669933" transform="translate(0,0)"/>
<path d="" fill="#669933" transform="translate(0,0)"/>
<path d="" fill="#80BF40" transform="translate(0,0)"/>
<path d="" fill="#80BF40" transform="translate(0,0)"/>
<path d="" fill="#808040" transform="translate(0,0)"/>
<path d="" fill="#80BF40" transform="translate(0,0)"/>
<path d="" fill="#AAAA55" transform="translate(0,0)"/>
<path d="" fill="#669933" transform="translate(0,0)"/>
<path d="" fill="#669933" transform="translate(0,0)"/>
<path d="" fill="#669933" transform="translate(0,0)"/>
<path d="" fill="#808040" transform="translate(0,0)"/>
<path d="" fill="#669933" transform="translate(0,0)"/>
<path d="" fill="#669933" transform="translate(0,0)"/>
<path d="" fill="#55AA55" transform="translate(0,0)"/>
<path d="" fill="#55AA55" transform="translate(0,0)"/>
<path d="" fill="#669933" transform="translate(0,0)"/>
<path d="" fill="#99CC33" transform="translate(0,0)"/>
<path d="" fill="#669933" transform="translate(0,0)"/>
<path d="" fill="#669933" transform="translate(0,0)"/>
<path d="" fill="#669933" transform="translate(0,0)"/>
<path d="" fill="#55AA55" transform="translate(0,0)"/>
<path d="" fill="#99CC33" transform="translate(0,0)"/>
<path d="" fill="#669933" transform="translate(0,0)"/>
<path d="" fill="#339933" transform="translate(0,0)"/>
<path d="" fill="#55AA55" transform="translate(0,0)"/>
<path d="" fill="#669933" transform="translate(0,0)"/>
<path d="" fill="#55AA55" transform="translate(0,0)"/>
<path d="" fill="#669933" transform="translate(0,0)"/>
<path d="" fill="#808080" transform="translate(0,0)"/>
<path d="" fill="#99CC33" transform="translate(0,0)"/>
<path d="" fill="#AAAA55" transform="translate(0,0)"/>
<path d="" fill="#55AA55" transform="translate(0,0)"/>
<path d="" fill="#669933" transform="translate(0,0)"/>
<path d="" fill="#80BF40" transform="translate(0,0)"/>
<path d="" fill="#669933" transform="translate(0,0)"/>
<path d="" fill="#66CC33" transform="translate(0,0)"/>
<path d="" fill="#669933" transform="translate(0,0)"/>
<path d="" fill="#80D52B" transform="translate(0,0)"/>
<path d="" fill="#669933" transform="translate(0,0)"/>
<path d="" fill="#99CC33" transform="translate(0,0)"/>
<path d="" fill="#55AA55" transform="translate(0,0)"/>
<path d="" fill="#669933" transform="translate(0,0)"/>
<path d="" fill="#99CC33" transform="translate(0,0)"/>
<path d="" fill="#99CC33" transform="translate(0,0)"/>
<path d="" fill="#669933" transform="translate(0,0)"/>
<path d="" fill="#55AA55" transform="translate(0,0)"/>
<path d="" fill="#669933" transform="translate(0,0)"/>
<path d="" fill="#669933" transform="translate(0,0)"/>
<path d="" fill="#99CC33" transform="translate(0,0)"/>
<path d="" fill="#99CC33" transform="translate(0,0)"/>
<path d="" fill="#99CC33" transform="translate(0,0)"/>
<path d="" fill="#55AA55" transform="translate(0,0)"/>
<path d="" fill="#669933" transform="translate(0,0)"/>
<path d="" fill="#AAAA55" transform="translate(0,0)"/>
<path d="" fill="#99CC33" transform="translate(0,0)"/>
<path d="" fill="#669933" transform="translate(0,0)"/>
<path d="" fill="#99CC33" transform="translate(0,0)"/>
<path d="" fill="#80BF40" transform="translate(0,0)"/>
<path d="" fill="#669933" transform="translate(0,0)"/>
<path d="" fill="#669933" transform="translate(0,0)"/>
<path d="" fill="#99CC33" transform="translate(0,0)"/>
<path d="" fill="#AAAA55" transform="translate(0,0)"/>
<path d="" fill="#669933" transform="translate(0,0)"/>
<path d="" fill="#80BF40" transform="translate(0,0)"/>
<path d="" fill="#99CC33" transform="translate(0,0)"/>
<path d="" fill="#669933" transform="translate(0,0)"/>
<path d="" fill="#55AA55" transform="translate(0,0)"/>
<path d="" fill="#808080" transform="translate(0,0)"/>
<path d="" fill="#99CC33" transform="translate(0,0)"/>
<path d="" fill="#AAFF55" transform="translate(0,0)"/>
<path d="" fill="#AAFF55" transform="translate(0,0)"/>
<path d="" fill="#55AA55" transform="translate(0,0)"/>
<path d="" fill="#669933" transform="translate(0,0)"/>
<path d="" fill="#55AA55" transform="translate(0,0)"/>
<path d="" fill="#99CC33" transform="translate(0,0)"/>
<path d="" fill="#FFFF80" transform="translate(0,0)"/>
<path d="" fill="#80FF80" transform="translate(0,0)"/>
<path d="" fill="#669933" transform="translate(0,0)"/>
<path d="" fill="#80BF40" transform="translate(0,0)"/>
<path d="" fill="#99CC33" transform="translate(0,0)"/>
<path d="" fill="#669933" transform="translate(0,0)"/>
<path d="" fill="#669933" transform="translate(0,0)"/>
<path d="" fill="#669933" transform="translate(0,0)"/>
<path d="" fill="#999933" transform="translate(0,0)"/>
<path d="" fill="#999933" transform="translate(0,0)"/>
<path d="" fill="#669933" transform="translate(0,0)"/>
<path d="" fill="#55AA55" transform="translate(0,0)"/>
<path d="" fill="#66CC33" transform="translate(0,0)"/>
<path d="" fill="#80BF40" transform="translate(0,0)"/>
<path d="" fill="#80BF40" transform="translate(0,0)"/>
<path d="" fill="#55AA55" transform="translate(0,0)"/>
<path d="" fill="#669933" transform="translate(0,0)"/>
<path d="" fill="#99CC33" transform="translate(0,0)"/>
<path d="" fill="#55AA55" transform="translate(0,0)"/>
<path d="" fill="#80BF40" transform="translate(0,0)"/>
<path d="" fill="#99CC33" transform="translate(0,0)"/>
<path d="" fill="#669933" transform="translate(0,0)"/>
<path d="" fill="#55AA55" transform="translate(0,0)"/>
<path d="" fill="#99CC33" transform="translate(0,0)"/>
<path d="" fill="#AAAA55" transform="translate(0,0)"/>
<path d="" fill="#669933" transform="translate(0,0)"/>
<path d="" fill="#AAFF55" transform="translate(0,0)"/>
<path d="" fill="#AAAA55" transform="translate(0,0)"/>
<path d="" fill="#669933" transform="translate(0,0)"/>
<path d="" fill="#55AA55" transform="translate(0,0)"/>
<path d="" fill="#808000" transform="translate(0,0)"/>
<path d="" fill="#AAAA55" transform="translate(0,0)"/>
<path d="" fill="#80BF40" transform="translate(0,0)"/>
<path d="" fill="#80FF80" transform="translate(0,0)"/>
<path d="" fill="#669933" transform="translate(0,0)"/>
<path d="" fill="#99CC33" transform="translate(0,0)"/>
<path d="" fill="#AAAA55" transform="translate(0,0)"/>
<path d="" fill="#99CC33" transform="translate(0,0)"/>
<path d="" fill="#669933" transform="translate(0,0)"/>
<path d="" fill="#80BF40" transform="translate(0,0)"/>
<path d="" fill="#669933" transform="translate(0,0)"/>
<path d="" fill="#669933" transform="translate(0,0)"/>
<path d="" fill="#55AA55" transform="translate(0,0)"/>
<path d="" fill="#99CC33" transform="translate(0,0)"/>
<path d="" fill="#669933" transform="translate(0,0)"/>
<path d="" fill="#AAAA55" transform="translate(0,0)"/>
<path d="" fill="#669933" transform="translate(0,0)"/>
<path d="" fill="#99CC33" transform="translate(0,0)"/>
<path d="" fill="#80BF40" transform="translate(0,0)"/>
<path d="" fill="#99CC33" transform="translate(0,0)"/>
<path d="" fill="#99CC33" transform="translate(0,0)"/>
<path d="" fill="#AAAA55" transform="translate(0,0)"/>
<path d="" fill="#99CC33" transform="translate(0,0)"/>
<path d="" fill="#99CC33" transform="translate(0,0)"/>
<path d="" fill="#AAAA55" transform="translate(0,0)"/>
<path d="" fill="#80BF40" transform="translate(0,0)"/>
<path d="" fill="#BFBF40" transform="translate(0,0)"/>
<path d="" fill="#92B649" transform="translate(0,0)"/>
<path d="" fill="#99CC33" transform="translate(0,0)"/>
<path d="" fill="#99CC33" transform="translate(0,0)"/>
<path d="" fill="#99CC33" transform="translate(0,0)"/>
<path d="" fill="#99CC33" transform="translate(0,0)"/>
<path d="" fill="#99CC33" transform="translate(0,0)"/>
<path d="" fill="#80BF40" transform="translate(0,0)"/>
<path d="" fill="#BFBF40" transform="translate(0,0)"/>
<path d="" fill="#80BF40" transform="translate(0,0)"/>
<path d="" fill="#99CC33" transform="translate(0,0)"/>
<path d="" fill="#AAAA55" transform="translate(0,0)"/>
<path d="" fill="#99CC33" transform="translate(0,0)"/>
</svg>
