<?xml version="1.0" encoding="UTF-8"?>
<svg version="1.1" xmlns="http://www.w3.org/2000/svg" width="256" height="256">
<path d="M0 0 C8.38678926 0.13685735 13.91939726 1.50146618 20.18505859 7.25 C27.80578335 15.29322901 28.59692631 22.50783242 28.62646484 33.24609375 C28.64204437 34.47442429 28.6576239 35.70275482 28.67367554 36.9683075 C28.72107162 40.87730312 28.74892925 44.78612084 28.77490234 48.6953125 C28.81137603 52.62223255 28.851941 56.54905136 28.89755249 60.47587585 C28.92481147 62.91641814 28.94614858 65.35703494 28.96109009 67.79768372 C28.97135223 68.89610092 28.98161438 69.99451813 28.9921875 71.1262207 C28.99868317 72.09550003 29.00517883 73.06477936 29.01187134 74.06343079 C28.99885961 76.40846755 28.99885961 76.40846755 30.14990234 78.3828125 C32.27567016 78.84932457 32.27567016 78.84932457 34.71240234 79.0078125 C35.53869141 79.08257812 36.36498047 79.15734375 37.21630859 79.234375 C38.1734375 79.30785156 38.1734375 79.30785156 39.14990234 79.3828125 C39.14768173 78.73357315 39.14546112 78.0843338 39.14317322 77.41542053 C39.12112233 70.68393502 39.10599657 63.95245969 39.0949707 57.22094727 C39.08992871 54.70564355 39.08309532 52.19034278 39.07446289 49.67504883 C39.0623914 46.06851475 39.05667286 42.46201927 39.05224609 38.85546875 C39.04708481 37.72319351 39.04192352 36.59091827 39.03660583 35.42433167 C39.0365303 34.38332809 39.03645477 33.34232452 39.03637695 32.26977539 C39.03415634 31.34822159 39.03193573 30.42666779 39.02964783 29.47718811 C39.14990234 27.3828125 39.14990234 27.3828125 40.14990234 26.3828125 C42.00359846 26.29543605 43.86057775 26.27583097 45.71630859 26.28515625 C46.72894775 26.28765381 47.74158691 26.29015137 48.78491211 26.29272461 C50.08098389 26.30182861 51.37705566 26.31093262 52.71240234 26.3203125 C56.81677734 26.3409375 60.92115234 26.3615625 65.14990234 26.3828125 C65.47990234 17.8028125 65.80990234 9.2228125 66.14990234 0.3828125 C70.09761239 0.29016741 74.04249769 0.21079286 77.99072266 0.16308594 C79.98154712 0.13345773 81.97201942 0.08258924 83.96240234 0.03125 C96.19161586 -0.09227741 104.03889674 2.40750214 112.94677734 10.8671875 C116.90666765 15.38876437 121.17726353 22.2065009 121.13647461 28.43237305 C121.05224243 29.58926636 121.05224243 29.58926636 120.96630859 30.76953125 C120.10248521 40.32496488 120.10248521 40.32496488 122.78662109 49.19921875 C124.85995664 51.1567277 124.85995664 51.1567277 127.11083984 52.8046875 C132.2718084 56.79900033 134.15879268 64.1547283 135.14990234 70.3828125 C135.90418029 79.58500345 133.85683604 88.36381092 127.87255859 95.5390625 C120.96197257 102.93542668 113.65126807 108.35204497 103.17504883 108.8527832 C101.4569786 108.85878918 99.73872414 108.84340384 98.02099609 108.80859375 C97.10528336 108.80530563 96.18957062 108.80201752 95.24610901 108.79862976 C93.33270025 108.78829442 91.41932056 108.76849254 89.50610352 108.73950195 C86.56362868 108.69495256 83.62197149 108.67798506 80.67919922 108.66601562 C78.81395292 108.65260925 76.94871673 108.63769121 75.08349609 108.62109375 C73.76024574 108.61001335 73.76024574 108.61001335 72.41026306 108.59870911 C66.26829525 108.50120541 66.26829525 108.50120541 65.14990234 107.3828125 C65.06252589 105.52911639 65.04292081 103.67213709 65.05224609 101.81640625 C65.05708008 100.1293457 65.05708008 100.1293457 65.06201172 98.40820312 C65.07458008 96.63219727 65.07458008 96.63219727 65.08740234 94.8203125 C65.09191406 93.63244141 65.09642578 92.44457031 65.10107422 91.22070312 C65.1129056 88.27469024 65.12938948 85.32877569 65.14990234 82.3828125 C63.90853516 82.46660156 62.66716797 82.55039063 61.38818359 82.63671875 C59.7462779 82.73992425 58.10434957 82.84276992 56.46240234 82.9453125 C55.2374707 83.02942383 55.2374707 83.02942383 53.98779297 83.11523438 C52.79379883 83.18774414 52.79379883 83.18774414 51.57568359 83.26171875 C50.48380737 83.33241577 50.48380737 83.33241577 49.36987305 83.40454102 C46.85981765 83.37997322 44.59242729 82.94040659 42.14990234 82.3828125 C42.15513916 83.1348999 42.16037598 83.8869873 42.16577148 84.66186523 C42.18647461 88.04800592 42.19954111 91.43413334 42.21240234 94.8203125 C42.22078125 96.00431641 42.22916016 97.18832031 42.23779297 98.40820312 C42.24101563 99.53291016 42.24423828 100.65761719 42.24755859 101.81640625 C42.25279541 102.85853271 42.25803223 103.90065918 42.26342773 104.97436523 C42.14990234 107.3828125 42.14990234 107.3828125 41.14990234 108.3828125 C37.82608935 108.69271019 34.48636082 108.66145128 31.14990234 108.6953125 C30.22822266 108.72431641 29.30654297 108.75332031 28.35693359 108.78320312 C20.63688077 108.85397935 14.97227274 107.07707358 8.66162109 102.62890625 C0.9961264 95.0290689 -1.26741835 86.5541364 -1.43009949 75.92904663 C-1.42819107 74.80777374 -1.42628265 73.68650085 -1.42431641 72.53125 C-1.43848099 71.35059967 -1.45264557 70.16994934 -1.46723938 68.95352173 C-1.50883587 65.22152325 -1.52433555 61.49000933 -1.53759766 57.7578125 C-1.56663889 53.99013305 -1.60108092 50.22257559 -1.64009094 46.45498657 C-1.66261933 44.11908517 -1.67841366 41.78310753 -1.68693542 39.44711304 C-1.69396988 38.40157257 -1.70100433 37.3560321 -1.70825195 36.27880859 C-1.71173141 35.35490326 -1.71521088 34.43099792 -1.71879578 33.47909546 C-1.61729867 31.39510469 -1.61729867 31.39510469 -2.85009766 30.3828125 C-4.51214253 30.17505689 -6.18039257 30.01562995 -7.85009766 29.8828125 C-12.73898655 29.49392361 -12.73898655 29.49392361 -13.85009766 28.3828125 C-13.94992823 26.39524222 -13.98090519 24.4041373 -13.98291016 22.4140625 C-13.98419922 21.20363281 -13.98548828 19.99320313 -13.98681641 18.74609375 C-13.98294922 17.47121094 -13.97908203 16.19632813 -13.97509766 14.8828125 C-13.97896484 13.60792969 -13.98283203 12.33304688 -13.98681641 11.01953125 C-13.98552734 9.80910156 -13.98423828 8.59867188 -13.98291016 7.3515625 C-13.98178223 6.23201172 -13.9806543 5.11246094 -13.97949219 3.95898438 C-13.67112502 -2.18043147 -4.74887429 0.01273797 0 0 Z M68.14990234 29.3828125 C68.14990234 32.6828125 68.14990234 35.9828125 68.14990234 39.3828125 C79.92558129 40.05868174 79.92558129 40.05868174 91.14990234 37.3828125 C91.31677682 34.96635468 91.31677682 34.96635468 91.14990234 32.3828125 C88.66932606 29.90223622 87.7879777 30.09262245 84.36083984 29.96875 C82.94931641 29.91074219 82.94931641 29.91074219 81.50927734 29.8515625 C80.52443359 29.820625 79.53958984 29.7896875 78.52490234 29.7578125 C77.53232422 29.71914062 76.53974609 29.68046875 75.51708984 29.640625 C73.06167292 29.54618589 70.60581278 29.46340369 68.14990234 29.3828125 Z M68.14990234 69.3828125 C68.47990234 72.6828125 68.80990234 75.9828125 69.14990234 79.3828125 C73.79464216 79.45697317 78.43903734 79.51141865 83.08422852 79.54760742 C84.66436771 79.56269344 86.24446503 79.583165 87.82446289 79.60913086 C90.0958082 79.64552376 92.36659993 79.66254012 94.63818359 79.67578125 C95.34453445 79.69126511 96.05088531 79.70674896 96.77864075 79.72270203 C99.70502284 79.72370602 101.67451207 79.70934615 104.12719727 78.0246582 C105.39168425 76.34187704 105.39168425 76.34187704 105.02490234 73.8203125 C104.30601066 71.0566514 104.30601066 71.0566514 101.14990234 69.3828125 C98.60760637 69.2115211 96.17800753 69.15038316 93.63818359 69.1875 C92.54584663 69.19174484 92.54584663 69.19174484 91.43144226 69.19607544 C89.10826097 69.20725993 86.78546688 69.23236084 84.46240234 69.2578125 C82.88623604 69.26784456 81.31006369 69.27697002 79.73388672 69.28515625 C75.87240968 69.30719354 72.01122163 69.34171109 68.14990234 69.3828125 Z " fill="#FFFFFF" transform="translate(45.85009765625,73.6171875)"/>
<path d="M0 0 C10.54381312 -0.02312343 21.08762025 -0.04091509 31.63145351 -0.05181217 C36.52685374 -0.057041 41.42223668 -0.06413864 46.31762695 -0.07543945 C51.03787978 -0.08626834 55.75811592 -0.09227684 60.4783802 -0.09487724 C62.28338954 -0.09673149 64.08839792 -0.10035209 65.89340019 -0.10573006 C68.41259644 -0.11294052 70.9317229 -0.11399094 73.45092773 -0.11352539 C74.20474228 -0.11712067 74.95855682 -0.12071594 75.73521423 -0.12442017 C80.88594784 -0.11405216 80.88594784 -0.11405216 82 1 C82.09983058 2.98757028 82.13080753 4.9786752 82.1328125 6.96875 C82.13410156 8.17917969 82.13539063 9.38960937 82.13671875 10.63671875 C82.13285156 11.91160156 82.12898438 13.18648437 82.125 14.5 C82.12886719 15.77488281 82.13273437 17.04976562 82.13671875 18.36328125 C82.13542969 19.57371094 82.13414062 20.78414062 82.1328125 22.03125 C82.13168457 23.15080078 82.13055664 24.27035156 82.12939453 25.42382812 C82 28 82 28 81 29 C78.11747355 29.16023562 75.25621473 29.25954029 72.37109375 29.31640625 C71.50686295 29.33718735 70.64263214 29.35796844 69.75221252 29.37937927 C66.98072555 29.44497114 64.20914079 29.50380418 61.4375 29.5625 C59.56314077 29.60567608 57.68879157 29.64929006 55.81445312 29.69335938 C51.20973664 29.80066227 46.60492142 29.90190215 42 30 C42.51949219 30.38929687 43.03898437 30.77859375 43.57421875 31.1796875 C44.27160156 31.73914063 44.96898437 32.29859375 45.6875 32.875 C46.37199219 33.40867188 47.05648437 33.94234375 47.76171875 34.4921875 C54.96650338 42.56456399 55.71257534 50.57320547 55.5234375 61.06640625 C55.51873444 62.3816478 55.51403137 63.69688934 55.50918579 65.05198669 C55.49589272 68.51582316 55.45175569 71.97860679 55.40161133 75.44207764 C55.36594945 78.28365857 55.35308583 81.12513931 55.34119225 83.96690464 C55.31570703 89.82386289 55.27335053 95.68089765 55.19287109 101.53735352 C55.18001068 102.57086441 55.16715027 103.60437531 55.15390015 104.66920471 C55 107 55 107 54 108 C49.70017412 108.41292957 45.37790829 108.51688554 41.0625 108.6875 C39.84369141 108.74744141 38.62488281 108.80738281 37.36914062 108.86914062 C36.20705078 108.91619141 35.04496094 108.96324219 33.84765625 109.01171875 C32.2390271 109.08072388 32.2390271 109.08072388 30.59790039 109.15112305 C28 109 28 109 26 107 C25.8122299 104.50037754 25.74805929 102.11255803 25.77294922 99.61279297 C25.77265717 98.85172241 25.77236511 98.09065186 25.77206421 97.30651855 C25.77346019 94.78495984 25.78903382 92.26369475 25.8046875 89.7421875 C25.80841668 87.99626833 25.8112641 86.25034706 25.81326294 84.50442505 C25.82090689 79.9045028 25.84056187 75.30470643 25.8626709 70.70483398 C25.88311296 66.0128754 25.89226114 61.32089651 25.90234375 56.62890625 C25.92380708 47.41921546 25.95795217 38.20961819 26 29 C25.25314941 29.01047363 24.50629883 29.02094727 23.73681641 29.03173828 C20.36624492 29.0732077 16.995727 29.09929729 13.625 29.125 C12.449375 29.14175781 11.27375 29.15851563 10.0625 29.17578125 C8.38027344 29.18544922 8.38027344 29.18544922 6.6640625 29.1953125 C5.62717285 29.20578613 4.5902832 29.21625977 3.52197266 29.22705078 C1 29 1 29 -1 27 C-1.24291992 24.50976562 -1.24291992 24.50976562 -1.23046875 21.40625 C-1.22853516 20.29378906 -1.22660156 19.18132812 -1.22460938 18.03515625 C-1.21236328 16.86855469 -1.20011719 15.70195313 -1.1875 14.5 C-1.18685547 13.33339844 -1.18621094 12.16679688 -1.18554688 10.96484375 C-1.14026365 2.2805273 -1.14026365 2.2805273 0 0 Z " fill="#FFFFFF" transform="translate(169,74)"/>
</svg>
