<?xml version="1.0" encoding="UTF-8"?>
<svg version="1.1" xmlns="http://www.w3.org/2000/svg" width="250" height="100">
<path d="M0 0 C2.31 0 4.62 0 7 0 C7.495 3.96 7.495 3.96 8 8 C8.33 7.67 8.66 7.34 9 7 C15.2781597 6.40772078 15.2781597 6.40772078 18.4375 9 C19.2109375 9.99 19.2109375 9.99 20 11 C20.61875 10.34 21.2375 9.68 21.875 9 C26.12989783 6.27686539 30.05432899 6.1073667 35 7 C37.30859375 8.52734375 37.30859375 8.52734375 39 10 C39.33 9.01 39.66 8.02 40 7 C40.99 7 41.98 7 43 7 C43 5.35 43 3.7 43 2 C45.31 2 47.62 2 50 2 C50 3.65 50 5.3 50 7 C51.65 7 53.3 7 55 7 C55.495 8.485 55.495 8.485 56 10 C56.5465625 9.51402344 57.093125 9.02804688 57.65625 8.52734375 C61.74057467 5.8657255 66.29471697 6.32169668 71 7 C73.6875 9 73.6875 9 75 11 C75.33 9.68 75.66 8.36 76 7 C86.125 7 86.125 7 90 8 C92.0745356 8.1490712 92.0745356 8.1490712 94 7 C99.19866773 6.35591727 102.82135504 6.12780273 107.125 9.3125 C109 12 109 12 109 15 C108.34 15.33 107.68 15.66 107 16 C107.53625 16.70125 108.0725 17.4025 108.625 18.125 C110 21 110 21 109.375 24.1875 C108 27 108 27 105 29 C99.88243129 29.68128624 95.425626 29.79835056 90.875 27.25 C89.04724408 25.05669289 88.30104205 23.80972581 88 21 C90.31 21 92.62 21 95 21 C94.195625 20.5875 93.39125 20.175 92.5625 19.75 C90 18 90 18 89.1875 15.8125 C89.125625 15.214375 89.06375 14.61625 89 14 C88.34 14.99 87.68 15.98 87 17 C86.67 17 86.34 17 86 17 C85.67 20.96 85.34 24.92 85 29 C75 29 65 29 55 29 C53.93265625 29.05220703 53.93265625 29.05220703 52.84375 29.10546875 C52.0703125 29.13253906 51.296875 29.15960938 50.5 29.1875 C49.33984375 29.23970703 49.33984375 29.23970703 48.15625 29.29296875 C46 29 46 29 44.23046875 27.90625 C42.38760643 25.051276 42.71288138 22.66632695 42.8125 19.3125 C42.85310547 17.54326172 42.85310547 17.54326172 42.89453125 15.73828125 C42.92933594 14.83464844 42.96414062 13.93101563 43 13 C41.38910897 14.61089103 41.84203899 16.52791576 41.75 18.75 C41.39056638 22.33406668 41.02216725 23.96305459 39.125 27.125 C34.59058121 29.84565127 30.16933728 29.92447165 25 29 C22.66015625 27.46875 22.66015625 27.46875 21 26 C20.505 27.485 20.505 27.485 20 29 C17.69 29 15.38 29 13 29 C12.505 21.575 12.505 21.575 12 14 C10.68 13.67 9.36 13.34 8 13 C7.67 18.28 7.34 23.56 7 29 C4.69 29 2.38 29 0 29 C-0.495 27.02 -0.495 27.02 -1 25 C-1.61875 25.66 -2.2375 26.32 -2.875 27 C-7.22823122 29.78606798 -10.95623024 29.97335908 -16 29 C-18.50496783 27.57211893 -19.9861291 26.1198641 -22 24 C-23.2065625 25.2375 -23.2065625 25.2375 -24.4375 26.5 C-27.83358088 29.33274993 -30.53904403 29.609376 -34.875 29.375 C-37.72013103 28.87291805 -39.72932989 27.75793815 -42 26 C-42.33 26.99 -42.66 27.98 -43 29 C-50.09859155 29.47323944 -50.09859155 29.47323944 -53.5 27.6875 C-55.91756131 23.35603598 -55.30103515 18.85001072 -55 14 C-55.99 13.67 -56.98 13.34 -58 13 C-58 11.02 -58 9.04 -58 7 C-57.01 7 -56.02 7 -55 7 C-55 5.35 -55 3.7 -55 2 C-52.36 2 -49.72 2 -47 2 C-47 3.65 -47 5.3 -47 7 C-45.68 7 -44.36 7 -43 7 C-42.67 8.32 -42.34 9.64 -42 11 C-41.360625 10.34 -40.72125 9.68 -40.0625 9 C-35.98517233 6.3372554 -32.75278867 6.12176731 -28 7 C-25.12970131 8.79393668 -23.50868362 9.98263276 -22 13 C-21.59910156 12.566875 -21.19820312 12.13375 -20.78515625 11.6875 C-17.50654195 8.4757962 -15.06644032 6.54039241 -10.375 6.3125 C-6.68173042 6.54609141 -5.98480405 7.01240485 -2.9375 9.5 C-2.298125 10.325 -1.65875 11.15 -1 12 C-0.67 8.04 -0.34 4.08 0 0 Z M63 12 C62.67 12.99 62.34 13.98 62 15 C59.69 15 57.38 15 55 15 C55 14.34 55 13.68 55 13 C53.35 13 51.7 13 50 13 C51.485 13.99 51.485 13.99 53 15 C53.6875 18.125 53.6875 18.125 54 21 C54.66 20.01 55.32 19.02 56 18 C55.67 17.34 55.34 16.68 55 16 C55.56203125 16.18433594 56.1240625 16.36867188 56.703125 16.55859375 C59.38260374 17.07352759 61.11546311 16.72113422 63.75 16.0625 C64.54921875 15.86785156 65.3484375 15.67320313 66.171875 15.47265625 C66.77515625 15.31667969 67.3784375 15.16070312 68 15 C67.67 14.01 67.34 13.02 67 12 C65.68 12 64.36 12 63 12 Z M-47 13 C-47 16.3 -47 19.6 -47 23 C-45.68 22.67 -44.36 22.34 -43 22 C-43 19.03 -43 16.06 -43 13 C-44.32 13 -45.64 13 -47 13 Z M-35 13 C-35.33 13.66 -35.66 14.32 -36 15 C-33.69 15 -31.38 15 -29 15 C-29.33 14.34 -29.66 13.68 -30 13 C-31.65 13 -33.3 13 -35 13 Z M-14 14 C-14.16053815 15.87321948 -14.16053815 15.87321948 -14.125 18 C-14.12757812 18.721875 -14.13015625 19.44375 -14.1328125 20.1875 C-14.19695276 22.02089415 -14.19695276 22.02089415 -13 23 C-11.33382885 23.04063832 -9.66611905 23.042721 -8 23 C-7.67 22.01 -7.34 21.02 -7 20 C-4.69 20 -2.38 20 0 20 C0 18.68 0 17.36 0 16 C-2.31 16 -4.62 16 -7 16 C-7.33 15.01 -7.66 14.02 -8 13 C-11.28930404 12.63314303 -11.28930404 12.63314303 -14 14 Z M27 13 C28.83883881 15.28728734 28.83883881 15.28728734 31.625 15.125 C32.40875 15.08375 33.1925 15.0425 34 15 C33.67 14.34 33.34 13.68 33 13 C31.02 13 29.04 13 27 13 Z M96 13 C97.83883881 15.28728734 97.83883881 15.28728734 100.625 15.125 C101.40875 15.08375 102.1925 15.0425 103 15 C102.67 14.34 102.34 13.68 102 13 C100.02 13 98.04 13 96 13 Z M20 15 C20 16.98 20 18.96 20 21 C22.31 21 24.62 21 27 21 C24.32752366 18.65712582 24.32752366 18.65712582 21 18 C20.67 17.01 20.34 16.02 20 15 Z M34 15 C36.8684413 17.10232344 36.8684413 17.10232344 40 18 C40.33 17.01 40.66 16.02 41 15 C38.69 15 36.38 15 34 15 Z M50 15 C50 17.64 50 20.28 50 23 C51.32 23 52.64 23 54 23 C53.67 22.34 53.34 21.68 53 21 C52.67 21 52.34 21 52 21 C52 19.02 52 17.04 52 15 C51.34 15 50.68 15 50 15 Z M40 18 C41 20 41 20 41 20 Z M-36 20 C-35.67 20.99 -35.34 21.98 -35 23 C-30.18061476 23.23509196 -26.53701494 22.45184478 -22 21 C-22 20.67 -22 20.34 -22 20 C-26.62 20 -31.24 20 -36 20 Z M62 21 C62.33 21.99 62.66 22.98 63 24 C64.98491642 23.73323796 64.98491642 23.73323796 67 23 C67.33 22.01 67.66 21.02 68 20 C64.2236068 19.7018576 64.2236068 19.7018576 62 21 Z M27 21 C27 21.66 27 22.32 27 23 C29.31 23 31.62 23 34 23 C33.67 22.34 33.34 21.68 33 21 C31.02 21 29.04 21 27 21 Z " fill="#000000" transform="translate(91,33)"/>
<path d="M0 0 C5.94 0 11.88 0 18 0 C18 1.98 18 3.96 18 6 C12.06 6 6.12 6 0 6 C0 4.02 0 2.04 0 0 Z " fill="#3AC965" transform="translate(199,61)"/>
<path d="M0 0 C0.33 0.66 0.66 1.32 1 2 C5.62 2 10.24 2 15 2 C15.33 2.66 15.66 3.32 16 4 C10.39 4 4.78 4 -1 4 C-0.67 2.68 -0.34 1.36 0 0 Z " fill="#008502" transform="translate(201,56)"/>
<path d="M0 0 C5.94 0 11.88 0 18 0 C18 0.33 18 0.66 18 1 C12.06 1 6.12 1 0 1 C0 0.67 0 0.34 0 0 Z " fill="#3CC281" transform="translate(199,68)"/>
<path d="M0 0 C0.99 0 1.98 0 3 0 C3 4.95 3 9.9 3 15 C2.67 15 2.34 15 2 15 C2 10.38 2 5.76 2 1 C1.34 0.67 0.68 0.34 0 0 Z " fill="#000000" transform="translate(100,47)"/>
<path d="M0 0 C4.29 0 8.58 0 13 0 C12.67 0.66 12.34 1.32 12 2 C8.37 2 4.74 2 1 2 C0.67 1.34 0.34 0.68 0 0 Z " fill="#000000" transform="translate(52,62)"/>
<path d="M0 0 C0.33 0 0.66 0 1 0 C1 1.65 1 3.3 1 5 C3.64 5 6.28 5 9 5 C9 5.33 9 5.66 9 6 C4.545 6.495 4.545 6.495 0 7 C0 4.69 0 2.38 0 0 Z " fill="#000000" transform="translate(99,33)"/>
<path d="M0 0 C0.33 0 0.66 0 1 0 C1 4.62 1 9.24 1 14 C0.67 14 0.34 14 0 14 C0 9.38 0 4.76 0 0 Z " fill="#000000" transform="translate(99,48)"/>
<path d="M0 0 C1.98 0 3.96 0 6 0 C6 0.66 6 1.32 6 2 C4.02 2 2.04 2 0 2 C0 1.34 0 0.68 0 0 Z " fill="#000000" transform="translate(84,50)"/>
<path d="M0 0 C0.66 0 1.32 0 2 0 C2 3.63 2 7.26 2 11 C1.67 11 1.34 11 1 11 C0.67 7.37 0.34 3.74 0 0 Z " fill="#000000" transform="translate(33,47)"/>
<path d="M0 0 C3.63 0 7.26 0 11 0 C11 0.33 11 0.66 11 1 C7.37 1 3.74 1 0 1 C0 0.67 0 0.34 0 0 Z " fill="#000000" transform="translate(185,63)"/>
<path d="M0 0 C3.63 0 7.26 0 11 0 C11 0.33 11 0.66 11 1 C7.37 1 3.74 1 0 1 C0 0.67 0 0.34 0 0 Z " fill="#000000" transform="translate(116,63)"/>
<path d="M0 0 C3.3 0.33 6.6 0.66 10 1 C10 1.33 10 1.66 10 2 C7.03 2 4.06 2 1 2 C0.67 1.34 0.34 0.68 0 0 Z " fill="#000000" transform="translate(38,62)"/>
<path d="M0 0 C3.63 0 7.26 0 11 0 C11 0.33 11 0.66 11 1 C7.37 1 3.74 1 0 1 C0 0.67 0 0.34 0 0 Z " fill="#000000" transform="translate(151,38)"/>
<path d="M0 0 C3.3 0 6.6 0 10 0 C10 0.33 10 0.66 10 1 C6.7 1 3.4 1 0 1 C0 0.67 0 0.34 0 0 Z " fill="#000000" transform="translate(75,63)"/>
<path d="M0 0 C3.3 0 6.6 0 10 0 C10 0.33 10 0.66 10 1 C6.7 1 3.4 1 0 1 C0 0.67 0 0.34 0 0 Z " fill="#000000" transform="translate(185,38)"/>
<path d="M0 0 C3.3 0 6.6 0 10 0 C10 0.33 10 0.66 10 1 C6.7 1 3.4 1 0 1 C0 0.67 0 0.34 0 0 Z " fill="#000000" transform="translate(116,38)"/>
<path d="M0 0 C3.3 0 6.6 0 10 0 C10 0.33 10 0.66 10 1 C6.7 1 3.4 1 0 1 C0 0.67 0 0.34 0 0 Z " fill="#000000" transform="translate(75,38)"/>
<path d="M0 0 C2.97 0 5.94 0 9 0 C9 0.33 9 0.66 9 1 C6.03 1 3.06 1 0 1 C0 0.67 0 0.34 0 0 Z " fill="#000000" transform="translate(149,63)"/>
<path d="M0 0 C2.97 0 5.94 0 9 0 C9 0.33 9 0.66 9 1 C6.03 1 3.06 1 0 1 C0 0.67 0 0.34 0 0 Z " fill="#000000" transform="translate(137,63)"/>
<path d="M0 0 C2.97 0 5.94 0 9 0 C9 0.33 9 0.66 9 1 C6.03 1 3.06 1 0 1 C0 0.67 0 0.34 0 0 Z " fill="#000000" transform="translate(54,38)"/>
<path d="M0 0 C0.33 0 0.66 0 1 0 C1 2.64 1 5.28 1 8 C0.67 8 0.34 8 0 8 C0 5.36 0 2.72 0 0 Z " fill="#000000" transform="translate(45,47)"/>
<path d="M0 0 C0.33 0 0.66 0 1 0 C1 1.98 1 3.96 1 6 C-0.0625 4.125 -0.0625 4.125 -1 2 C-0.67 1.34 -0.34 0.68 0 0 Z " fill="#3AAB62" transform="translate(197,61)"/>
<path d="M0 0 C2.31 0 4.62 0 7 0 C7 0.33 7 0.66 7 1 C4.69 1 2.38 1 0 1 C0 0.67 0 0.34 0 0 Z " fill="#000000" transform="translate(167,63)"/>
<path d="M0 0 C2.31 0 4.62 0 7 0 C7 0.33 7 0.66 7 1 C4.69 1 2.38 1 0 1 C0 0.67 0 0.34 0 0 Z " fill="#000000" transform="translate(159,63)"/>
<path d="M0 0 C2.31 0 4.62 0 7 0 C7 0.33 7 0.66 7 1 C4.69 1 2.38 1 0 1 C0 0.67 0 0.34 0 0 Z " fill="#000000" transform="translate(104,63)"/>
<path d="M0 0 C2.31 0 4.62 0 7 0 C7 0.33 7 0.66 7 1 C4.69 1 2.38 1 0 1 C0 0.67 0 0.34 0 0 Z " fill="#000000" transform="translate(91,63)"/>
<path d="M0 0 C2.31 0 4.62 0 7 0 C7 0.33 7 0.66 7 1 C4.69 1 2.38 1 0 1 C0 0.67 0 0.34 0 0 Z " fill="#000000" transform="translate(167,38)"/>
<path d="M0 0 C0.33 0.99 0.66 1.98 1 3 C1.66 3.33 2.32 3.66 3 4 C1.68 3.67 0.36 3.34 -1 3 C-0.67 2.01 -0.34 1.02 0 0 Z " fill="#000000" transform="translate(143,35)"/>
<path d="M0 0 C2.31 0 4.62 0 7 0 C7 0.33 7 0.66 7 1 C4.69 1 2.38 1 0 1 C0 0.67 0 0.34 0 0 Z " fill="#000000" transform="translate(134,33)"/>
<path d="M0 0 C2.31 0 4.62 0 7 0 C7 0.33 7 0.66 7 1 C4.69 1 2.38 1 0 1 C0 0.67 0 0.34 0 0 Z " fill="#000000" transform="translate(37,33)"/>
<path d="M0 0 C2.31 0 4.62 0 7 0 C7 0.33 7 0.66 7 1 C4.69 1 2.38 1 0 1 C0 0.67 0 0.34 0 0 Z " fill="#000000" transform="translate(91,31)"/>
<path d="M0 0 C0.33 0 0.66 0 1 0 C1 1.98 1 3.96 1 6 C0.67 6 0.34 6 0 6 C0 4.02 0 2.04 0 0 Z " fill="#4ECD63" transform="translate(218,61)"/>
<path d="M0 0 C0.99 0.33 1.98 0.66 3 1 C1.68 1.33 0.36 1.66 -1 2 C-0.67 1.34 -0.34 0.68 0 0 Z " fill="#000000" transform="translate(155,54)"/>
<path d="M0 0 C0.33 0 0.66 0 1 0 C1 1.98 1 3.96 1 6 C0.67 6 0.34 6 0 6 C0 4.02 0 2.04 0 0 Z " fill="#000000" transform="translate(78,48)"/>
<path d="M0 0 C0.33 0 0.66 0 1 0 C1 1.98 1 3.96 1 6 C0.67 6 0.34 6 0 6 C0 4.02 0 2.04 0 0 Z " fill="#000000" transform="translate(31,40)"/>
<path d="M0 0 C0.33 0.99 0.66 1.98 1 3 C1.66 3.33 2.32 3.66 3 4 C2.01 4 1.02 4 0 4 C0 2.68 0 1.36 0 0 Z " fill="#000000" transform="translate(45,35)"/>
<path d="M0 0 C0.33 0 0.66 0 1 0 C1 1.98 1 3.96 1 6 C0.67 6 0.34 6 0 6 C0 4.02 0 2.04 0 0 Z " fill="#000000" transform="translate(88,34)"/>
<path d="M0 0 C1.65 0 3.3 0 5 0 C5 0.33 5 0.66 5 1 C3.35 1 1.7 1 0 1 C0 0.67 0 0.34 0 0 Z " fill="#000000" transform="translate(56,54)"/>
<path d="M0 0 C0.33 0.66 0.66 1.32 1 2 C-0.32 1.67 -1.64 1.34 -3 1 C-2.01 0.67 -1.02 0.34 0 0 Z " fill="#000000" transform="translate(82,53)"/>
<path d="M0 0 C0.66 0.33 1.32 0.66 2 1 C1.01 1.66 0.02 2.32 -1 3 C-0.67 2.01 -0.34 1.02 0 0 Z " fill="#000000" transform="translate(50,40)"/>
<path d="M0 0 C0.33 1.32 0.66 2.64 1 4 C0.34 3.67 -0.32 3.34 -1 3 C-0.67 2.01 -0.34 1.02 0 0 Z " fill="#000000" transform="translate(132,35)"/>
<path d="M0 0 C0.33 1.32 0.66 2.64 1 4 C0.34 3.67 -0.32 3.34 -1 3 C-0.67 2.01 -0.34 1.02 0 0 Z " fill="#000000" transform="translate(34,35)"/>
<path d="M0 0 C0.66 0.33 1.32 0.66 2 1 C1.01 1 0.02 1 -1 1 C-0.67 0.67 -0.34 0.34 0 0 Z " fill="#000000" transform="translate(66,60)"/>
<path d="M0 0 C0 3 0 3 0 3 Z " fill="#000000" transform="translate(69,57)"/>
<path d="M0 0 C4 1 4 1 4 1 Z " fill="#000000" transform="translate(154,46)"/>
<path d="M0 0 C4 1 4 1 4 1 Z " fill="#000000" transform="translate(176,38)"/>
<path d="" fill="#000000" transform="translate(0,0)"/>
<path d="M0 0 C0.66 0.66 1.32 1.32 2 2 C1.34 2 0.68 2 0 2 C0 1.34 0 0.68 0 0 Z " fill="#000000" transform="translate(180,51)"/>
<path d="M0 0 C3 1 3 1 3 1 Z " fill="#000000" transform="translate(79,47)"/>
<path d="M0 0 C2 1 2 1 2 1 Z " fill="#000000" transform="translate(183,62)"/>
<path d="M0 0 C2 1 2 1 2 1 Z " fill="#000000" transform="translate(147,62)"/>
<path d="M0 0 C2 1 2 1 2 1 Z " fill="#000000" transform="translate(135,62)"/>
<path d="M0 0 C2 1 2 1 2 1 Z " fill="#000000" transform="translate(127,62)"/>
<path d="M0 0 C2 1 2 1 2 1 Z " fill="#000000" transform="translate(114,62)"/>
<path d="M0 0 C2 1 2 1 2 1 Z " fill="#000000" transform="translate(85,62)"/>
<path d="M0 0 C2 1 2 1 2 1 Z " fill="#000000" transform="translate(72,61)"/>
<path d="M0 0 C2 1 2 1 2 1 Z " fill="#000000" transform="translate(50,61)"/>
<path d="" fill="#000000" transform="translate(0,0)"/>
<path d="" fill="#000000" transform="translate(0,0)"/>
<path d="" fill="#000000" transform="translate(0,0)"/>
<path d="" fill="#000000" transform="translate(0,0)"/>
<path d="M0 0 C2 1 2 1 2 1 Z " fill="#000000" transform="translate(112,52)"/>
<path d="" fill="#000000" transform="translate(0,0)"/>
<path d="" fill="#000000" transform="translate(0,0)"/>
<path d="" fill="#000000" transform="translate(0,0)"/>
<path d="" fill="#000000" transform="translate(0,0)"/>
<path d="M0 0 C2 1 2 1 2 1 Z " fill="#000000" transform="translate(163,40)"/>
<path d="M0 0 C2 1 2 1 2 1 Z " fill="#000000" transform="translate(148,40)"/>
<path d="M0 0 C2 1 2 1 2 1 Z " fill="#000000" transform="translate(72,40)"/>
<path d="M0 0 C2 1 2 1 2 1 Z " fill="#000000" transform="translate(195,39)"/>
<path d="M0 0 C2 1 2 1 2 1 Z " fill="#000000" transform="translate(183,39)"/>
<path d="M0 0 C2 1 2 1 2 1 Z " fill="#000000" transform="translate(174,39)"/>
<path d="M0 0 C2 1 2 1 2 1 Z " fill="#000000" transform="translate(126,39)"/>
<path d="M0 0 C2 1 2 1 2 1 Z " fill="#000000" transform="translate(114,39)"/>
<path d="M0 0 C2 1 2 1 2 1 Z " fill="#000000" transform="translate(85,39)"/>
<path d="M0 0 C2 1 2 1 2 1 Z " fill="#000000" transform="translate(63,39)"/>
<path d="M0 0 C2 1 2 1 2 1 Z " fill="#000000" transform="translate(52,39)"/>
<path d="" fill="#00FF00" transform="translate(0,0)"/>
<path d="" fill="#00FF00" transform="translate(0,0)"/>
<path d="" fill="#000000" transform="translate(0,0)"/>
<path d="" fill="#000000" transform="translate(0,0)"/>
<path d="" fill="#000000" transform="translate(0,0)"/>
<path d="" fill="#000000" transform="translate(0,0)"/>
<path d="" fill="#000000" transform="translate(0,0)"/>
<path d="" fill="#000000" transform="translate(0,0)"/>
<path d="" fill="#000000" transform="translate(0,0)"/>
<path d="" fill="#000000" transform="translate(0,0)"/>
<path d="" fill="#000000" transform="translate(0,0)"/>
<path d="" fill="#000000" transform="translate(0,0)"/>
<path d="" fill="#000000" transform="translate(0,0)"/>
<path d="" fill="#000000" transform="translate(0,0)"/>
<path d="" fill="#000000" transform="translate(0,0)"/>
<path d="" fill="#000000" transform="translate(0,0)"/>
<path d="" fill="#000000" transform="translate(0,0)"/>
<path d="" fill="#000000" transform="translate(0,0)"/>
<path d="" fill="#000000" transform="translate(0,0)"/>
<path d="" fill="#000000" transform="translate(0,0)"/>
<path d="" fill="#000000" transform="translate(0,0)"/>
<path d="" fill="#000000" transform="translate(0,0)"/>
<path d="" fill="#000000" transform="translate(0,0)"/>
<path d="" fill="#000000" transform="translate(0,0)"/>
<path d="" fill="#000000" transform="translate(0,0)"/>
<path d="" fill="#000000" transform="translate(0,0)"/>
<path d="" fill="#000000" transform="translate(0,0)"/>
<path d="" fill="#000000" transform="translate(0,0)"/>
<path d="" fill="#000000" transform="translate(0,0)"/>
<path d="" fill="#000000" transform="translate(0,0)"/>
<path d="" fill="#000000" transform="translate(0,0)"/>
<path d="" fill="#000000" transform="translate(0,0)"/>
<path d="" fill="#000000" transform="translate(0,0)"/>
<path d="" fill="#000000" transform="translate(0,0)"/>
<path d="" fill="#000000" transform="translate(0,0)"/>
<path d="" fill="#000000" transform="translate(0,0)"/>
<path d="" fill="#000000" transform="translate(0,0)"/>
<path d="" fill="#000000" transform="translate(0,0)"/>
<path d="" fill="#000000" transform="translate(0,0)"/>
<path d="" fill="#000000" transform="translate(0,0)"/>
<path d="" fill="#000000" transform="translate(0,0)"/>
<path d="" fill="#000000" transform="translate(0,0)"/>
<path d="" fill="#000000" transform="translate(0,0)"/>
<path d="" fill="#000000" transform="translate(0,0)"/>
<path d="" fill="#000000" transform="translate(0,0)"/>
<path d="" fill="#000000" transform="translate(0,0)"/>
<path d="" fill="#000000" transform="translate(0,0)"/>
<path d="" fill="#000000" transform="translate(0,0)"/>
<path d="" fill="#000000" transform="translate(0,0)"/>
<path d="" fill="#000000" transform="translate(0,0)"/>
<path d="" fill="#000000" transform="translate(0,0)"/>
<path d="" fill="#000000" transform="translate(0,0)"/>
<path d="" fill="#000000" transform="translate(0,0)"/>
<path d="" fill="#000000" transform="translate(0,0)"/>
<path d="" fill="#000000" transform="translate(0,0)"/>
<path d="" fill="#000000" transform="translate(0,0)"/>
<path d="" fill="#000000" transform="translate(0,0)"/>
<path d="" fill="#000000" transform="translate(0,0)"/>
<path d="" fill="#000000" transform="translate(0,0)"/>
<path d="" fill="#000000" transform="translate(0,0)"/>
<path d="" fill="#000000" transform="translate(0,0)"/>
<path d="" fill="#000000" transform="translate(0,0)"/>
<path d="" fill="#000000" transform="translate(0,0)"/>
<path d="" fill="#000000" transform="translate(0,0)"/>
<path d="" fill="#000000" transform="translate(0,0)"/>
<path d="" fill="#000000" transform="translate(0,0)"/>
<path d="" fill="#000000" transform="translate(0,0)"/>
<path d="" fill="#000000" transform="translate(0,0)"/>
</svg>
