<?xml version="1.0" encoding="UTF-8"?>
<svg version="1.1" xmlns="http://www.w3.org/2000/svg" width="670" height="372">
<path d="M0 0 C7.26 0 14.52 0 22 0 C22.33 10.56 22.66 21.12 23 32 C24.65 30.35 26.3 28.7 28 27 C35.67859872 22.48504754 45.28970204 22.26749171 53.7421875 24.28125 C59.32342285 26.05797544 62.39123811 28.94553219 65.140625 33.92578125 C68.15433934 41.19979177 68.26575078 47.68256466 68.1953125 55.49609375 C68.1924826 56.68477554 68.18965271 57.87345734 68.18673706 59.09815979 C68.17558206 62.87804418 68.15048566 66.65768776 68.125 70.4375 C68.11496417 73.00715803 68.10583937 75.57681978 68.09765625 78.14648438 C68.07565797 84.43108174 68.04116001 90.7155001 68 97 C60.74 97 53.48 97 46 97 C45.93941406 94.40769531 45.87882812 91.81539063 45.81640625 89.14453125 C45.75431625 86.58925313 45.69105435 84.03400646 45.62768555 81.47875977 C45.58479826 79.72455741 45.54309871 77.97032555 45.50268555 76.21606445 C46.26258 58.49507815 46.26258 58.49507815 42 42 C36.60460573 41.78418423 32.04542452 41.78493558 27 44 C22.04456956 48.95543044 22.66772635 56.74976288 22.5859375 63.30859375 C22.56657135 64.27531509 22.5472052 65.24203644 22.5272522 66.23805237 C22.46780809 69.30444713 22.42121231 72.37088016 22.375 75.4375 C22.33678783 77.52540636 22.29773424 79.6132975 22.2578125 81.70117188 C22.16056288 86.80069891 22.08071514 91.90007761 22 97 C14.74 97 7.48 97 0 97 C0 64.99 0 32.98 0 0 Z " fill="#F8FDFD" transform="translate(216,128)"/>
<path d="M0 0 C7.38716071 6.3011298 11.29946335 12.5783833 13.49609375 21.9140625 C13.66882813 22.57857422 13.8415625 23.24308594 14.01953125 23.92773438 C15.24408612 28.9377188 15.24609375 32.46057339 15.24609375 37.9765625 C-2.24390625 37.9765625 -19.73390625 37.9765625 -37.75390625 37.9765625 C-35.36014682 45.81784315 -35.36014682 45.81784315 -29.75390625 49.9765625 C-23.30487094 51.25219586 -17.20060252 51.07128451 -10.75390625 49.9765625 C-10.75390625 49.3165625 -10.75390625 48.6565625 -10.75390625 47.9765625 C-9.76390625 47.9765625 -8.77390625 47.9765625 -7.75390625 47.9765625 C-7.42390625 46.9865625 -7.09390625 45.9965625 -6.75390625 44.9765625 C0.17609375 44.9765625 7.10609375 44.9765625 14.24609375 44.9765625 C10.63165214 55.81988734 4.32395407 61.32155555 -5.375 66.92578125 C-10.71711189 69.2854333 -16.391824 69.15895833 -22.12890625 69.1640625 C-22.845625 69.17630859 -23.56234375 69.18855469 -24.30078125 69.20117188 C-34.5379804 69.22888992 -42.42412684 65.95150975 -50.75390625 59.9765625 C-58.89883593 51.84757201 -60.71645039 42.11813869 -60.94140625 31.0390625 C-60.82315346 21.62614072 -58.7078206 14.97467613 -53.75390625 6.9765625 C-53.09390625 6.9765625 -52.43390625 6.9765625 -51.75390625 6.9765625 C-51.42390625 5.9865625 -51.09390625 4.9965625 -50.75390625 3.9765625 C-50.09390625 3.9765625 -49.43390625 3.9765625 -48.75390625 3.9765625 C-48.42390625 2.9865625 -48.09390625 1.9965625 -47.75390625 0.9765625 C-34.03838643 -8.03343785 -13.64173898 -10.0232919 0 0 Z M-35.56640625 15.7890625 C-37.16937977 18.45834322 -37.16937977 18.45834322 -37.75390625 23.9765625 C-27.85390625 23.9765625 -17.95390625 23.9765625 -7.75390625 23.9765625 C-7.28237084 19.0193375 -7.28237084 19.0193375 -9.94140625 15.7890625 C-14.09144912 11.63901963 -16.9545704 10.87876444 -22.69140625 10.6640625 C-28.02396674 10.78309287 -31.72127843 11.94393468 -35.56640625 15.7890625 Z " fill="#F7FCFC" transform="translate(122.75390625,157.0234375)"/>
<path d="M0 0 C2.33984375 2.01171875 2.33984375 2.01171875 4 4 C4 4.66 4 5.32 4 6 C4.66 6 5.32 6 6 6 C11.34871572 16.92998429 10.08895227 29.03935535 9.97949219 40.91186523 C9.89752383 50.6801201 10.17678897 60.25652565 11 70 C3.74 70 -3.52 70 -11 70 C-11.33 68.02 -11.66 66.04 -12 64 C-12.59167969 64.42152344 -13.18335938 64.84304687 -13.79296875 65.27734375 C-14.58316406 65.82519531 -15.37335938 66.37304688 -16.1875 66.9375 C-16.96480469 67.48277344 -17.74210937 68.02804688 -18.54296875 68.58984375 C-25.59445514 72.63688125 -36.69277524 71.88861367 -44.54296875 70.57421875 C-49.85042766 68.8474407 -54.36810417 65.17753276 -58 61 C-60.6078116 55.79287129 -60.77659624 50.70838269 -60 45 C-57.33689987 38.22223872 -52.19767859 33.43229354 -45.625 30.48828125 C-34.5960772 26.91101211 -23.67899734 24.53284011 -12 25 C-12.28359887 23.5608866 -12.57721399 22.12374482 -12.875 20.6875 C-13.03742188 19.88699219 -13.19984375 19.08648437 -13.3671875 18.26171875 C-13.94478999 15.74698882 -13.94478999 15.74698882 -16 13 C-18.48065875 12.33844864 -18.48065875 12.33844864 -21.3125 12.1875 C-22.25738281 12.09855469 -23.20226562 12.00960937 -24.17578125 11.91796875 C-27.26280175 12.00763325 -29.25225287 12.61898325 -32 14 C-34.12298286 16.35044531 -34.98996425 17.96989274 -36 21 C-43.26 21 -50.52 21 -58 21 C-57.16687441 16.00124645 -56.34505694 13.28227788 -54 9 C-53.34 9 -52.68 9 -52 9 C-52 8.01 -52 7.02 -52 6 C-47.28703724 1.06872562 -41.48294999 -1.35215987 -35 -3 C-34.22914063 -3.2165625 -33.45828125 -3.433125 -32.6640625 -3.65625 C-21.77976043 -6.33329517 -10.09367963 -4.85421234 0 0 Z M-24.0625 39.25 C-25.24972656 39.48203125 -26.43695313 39.7140625 -27.66015625 39.953125 C-31.25648522 41.08039537 -33.29288155 42.40691767 -36 45 C-37.24401278 47.38608611 -37.24401278 47.38608611 -37 50 C-35.22336478 52.69558448 -33.90715555 54.54642223 -31 56 C-26.02027721 56.56957614 -20.72171341 57.1648197 -16.5 54.0625 C-12.48411623 49.14304238 -11 44.31724347 -11 38 C-15.53280435 37.86159376 -19.62183066 38.34157145 -24.0625 39.25 Z " fill="#F6FBFB" transform="translate(467,155)"/>
<path d="M0 0 C6.12927423 4.20636467 9.77982912 8.09824686 12.1875 15.1875 C12.1875 16.1775 12.1875 17.1675 12.1875 18.1875 C8.81296102 18.33361313 5.43924234 18.42183467 2.0625 18.5 C1.11117187 18.54189453 0.15984375 18.58378906 -0.8203125 18.62695312 C-8.77448408 18.76504638 -8.77448408 18.76504638 -12.375 15.71875 C-13.179375 14.8834375 -13.98375 14.048125 -14.8125 13.1875 C-18.49960802 11.58975319 -22.85433482 11.73253848 -26.8125 12.1875 C-30.21491824 13.5523868 -30.21491824 13.5523868 -32.8125 15.1875 C-32.62421228 17.63230079 -32.62421228 17.63230079 -31.8125 20.1875 C-28.92185922 22.03443391 -26.17618322 22.59556107 -22.8125 23.08203125 C-21.84812012 23.2301123 -20.88374023 23.37819336 -19.89013672 23.53076172 C-18.8745166 23.68561035 -17.85889648 23.84045898 -16.8125 24 C4.04794549 27.43289598 4.04794549 27.43289598 10.3125 34 C13.92671333 40.14416265 14.75134168 45.15021243 13.1875 52.1875 C12.56493972 54.20166562 11.91183347 56.20765519 11.1875 58.1875 C10.5275 58.1875 9.8675 58.1875 9.1875 58.1875 C9.1875 59.1775 9.1875 60.1675 9.1875 61.1875 C-0.05928901 68.73589919 -9.06398898 70.3663644 -20.6875 70.375 C-21.54730469 70.38724609 -22.40710938 70.39949219 -23.29296875 70.41210938 C-34.12218271 70.43675857 -42.75141637 67.72286079 -50.8125 60.1875 C-55.30702889 54.84265483 -54.95110296 52.94007337 -55.8125 45.1875 C-49.2125 45.1875 -42.6125 45.1875 -35.8125 45.1875 C-35.4825 46.5075 -35.1525 47.8275 -34.8125 49.1875 C-33.3275 49.6825 -33.3275 49.6825 -31.8125 50.1875 C-31.8125 50.8475 -31.8125 51.5075 -31.8125 52.1875 C-28.09806654 53.04100034 -24.62188062 53.35070548 -20.8125 53.375 C-19.801875 53.38917969 -18.79125 53.40335938 -17.75 53.41796875 C-14.69043505 53.1779231 -12.54203092 52.57176211 -9.8125 51.1875 C-8.6548415 49.30792756 -8.6548415 49.30792756 -8.8125 47.1875 C-11.13648201 44.13044984 -13.52627856 43.48386562 -17.1875 42.625 C-18.79238281 42.24601562 -18.79238281 42.24601562 -20.4296875 41.859375 C-23.7212297 41.20562759 -26.98201172 40.77626365 -30.3125 40.375 C-37.24274355 39.41130229 -42.78841127 36.63914003 -48.8125 33.1875 C-48.8125 32.5275 -48.8125 31.8675 -48.8125 31.1875 C-49.4725 31.1875 -50.1325 31.1875 -50.8125 31.1875 C-54.84322119 24.63757807 -56.18430944 18.8613814 -54.8125 11.1875 C-53.25884254 8.00792195 -51.31642109 5.66740266 -48.8125 3.1875 C-48.07 2.424375 -47.3275 1.66125 -46.5625 0.875 C-42.56640984 -1.57714623 -38.33024306 -2.65918998 -33.8125 -3.8125 C-33.19632813 -3.99941406 -32.58015625 -4.18632812 -31.9453125 -4.37890625 C-21.33531596 -6.53588357 -9.57781574 -4.98714153 0 0 Z " fill="#F6FBFB" transform="translate(583.8125,155.8125)"/>
<path d="M0 0 C5.53399412 4.35197596 8.14121587 9.70703693 9.01171875 16.58203125 C5.59533922 16.69835638 2.17946978 16.76932022 -1.23828125 16.83203125 C-2.20636719 16.86554688 -3.17445313 16.8990625 -4.171875 16.93359375 C-11.39785971 17.0332625 -11.39785971 17.0332625 -14.5234375 14.64453125 C-15.00683594 13.96390625 -15.49023438 13.28328125 -15.98828125 12.58203125 C-21.23339385 9.58482405 -27.24022252 10.00951901 -32.98828125 11.20703125 C-35.32995066 12.49541449 -35.32995066 12.49541449 -35.80078125 15.70703125 C-35.89359375 17.13015625 -35.89359375 17.13015625 -35.98828125 18.58203125 C-31.44437955 20.22151056 -26.92123159 21.25030785 -22.17578125 22.08203125 C-20.74987658 22.34438214 -19.32409407 22.60739793 -17.8984375 22.87109375 C-15.69956423 23.27088889 -13.49972545 23.66570264 -11.296875 24.04296875 C-4.28617387 25.37236825 2.41283788 27.98315038 7.51171875 33.08203125 C10.82107893 38.59763155 11.84789628 43.18205709 11.01171875 49.58203125 C8.89346131 56.83505198 3.60282063 61.95441948 -2.8515625 65.6484375 C-9.61630571 68.75331964 -16.57627475 68.76411743 -23.86328125 68.76953125 C-24.72308594 68.78177734 -25.58289063 68.79402344 -26.46875 68.80664062 C-33.84749469 68.82343595 -40.17786808 67.56158701 -46.98828125 64.58203125 C-46.98828125 63.92203125 -46.98828125 63.26203125 -46.98828125 62.58203125 C-47.54515625 62.35515625 -48.10203125 62.12828125 -48.67578125 61.89453125 C-53.76105933 59.00829234 -56.8919188 54.98843967 -58.98828125 49.58203125 C-59.03478031 47.58257186 -59.04111399 45.5813333 -58.98828125 43.58203125 C-55.73896198 43.40748104 -52.49084677 43.30111372 -49.23828125 43.20703125 C-48.31789063 43.15675781 -47.3975 43.10648438 -46.44921875 43.0546875 C-43.83597174 42.99787778 -41.54138465 43.01277361 -38.98828125 43.58203125 C-36.66015625 46.48046875 -36.66015625 46.48046875 -34.98828125 49.58203125 C-28.46595822 53.31978287 -19.08030148 52.15803575 -11.98828125 50.58203125 C-11.82147016 47.66550951 -11.82147016 47.66550951 -11.98828125 44.58203125 C-14.53661651 42.03369599 -16.35732388 41.85552784 -19.86328125 41.08203125 C-21.03117187 40.82292969 -22.1990625 40.56382812 -23.40234375 40.296875 C-26.67512557 39.64445771 -29.93663721 39.12407595 -33.23828125 38.64453125 C-42.32488822 37.16197959 -49.8635162 33.6468082 -55.98828125 26.58203125 C-58.59327152 21.37205072 -58.76512775 16.29225347 -57.98828125 10.58203125 C-55.79450011 4.99871701 -51.96665587 0.86963713 -46.98828125 -2.41796875 C-43.70646741 -3.66100125 -40.39497975 -4.58596978 -36.98828125 -5.41796875 C-36.37339844 -5.60359375 -35.75851562 -5.78921875 -35.125 -5.98046875 C-23.27638577 -8.40651042 -10.34889973 -6.14988476 0 0 Z " fill="#F7FCFC" transform="translate(345.98828125,157.41796875)"/>
<path d="M0 0 C0.7734375 0.7115625 0.7734375 0.7115625 1.5625 1.4375 C1.5625 2.4275 1.5625 3.4175 1.5625 4.4375 C2.2225 4.4375 2.8825 4.4375 3.5625 4.4375 C4.22157418 5.6177026 4.8639948 6.80720734 5.5 8 C6.03947266 8.99193359 6.03947266 8.99193359 6.58984375 10.00390625 C7.5625 12.4375 7.5625 12.4375 8.5625 19.4375 C1.6325 19.4375 -5.2975 19.4375 -12.4375 19.4375 C-13.7575 16.7975 -15.0775 14.1575 -16.4375 11.4375 C-20.3924423 9.37405184 -24.01972312 8.97731491 -28.4375 9.4375 C-32.55433225 11.05194402 -35.31316363 12.50747771 -37.4375 16.4375 C-40.17751707 24.94597404 -40.33612263 32.11605821 -37.09375 40.4921875 C-36.4375 42.4375 -36.4375 42.4375 -36.4375 45.4375 C-31.33798871 48.16938105 -27.26019478 48.74395762 -21.4375 48.4375 C-18.29808959 47.43859669 -16.19759703 46.27756469 -13.4375 44.4375 C-12.4475 42.4575 -11.4575 40.4775 -10.4375 38.4375 C-3.5075 38.4375 3.4225 38.4375 10.5625 38.4375 C7.04209184 50.17219388 7.04209184 50.17219388 3.5625 54.4375 C2.9025 54.4375 2.2425 54.4375 1.5625 54.4375 C1.2325 55.4275 0.9025 56.4175 0.5625 57.4375 C-0.0975 57.4375 -0.7575 57.4375 -1.4375 57.4375 C-1.4375 58.0975 -1.4375 58.7575 -1.4375 59.4375 C-3.13942385 60.4277653 -4.84938011 61.40423206 -6.5625 62.375 C-7.51382813 62.92027344 -8.46515625 63.46554688 -9.4453125 64.02734375 C-14.89147802 66.59400922 -20.37739258 66.6320213 -26.3125 66.625 C-27.37368042 66.6237915 -27.37368042 66.6237915 -28.45629883 66.62255859 C-35.42460739 66.54062574 -41.04704795 65.23332277 -47.4375 62.4375 C-47.4375 61.7775 -47.4375 61.1175 -47.4375 60.4375 C-48.55125 60.06625 -48.55125 60.06625 -49.6875 59.6875 C-52.68723455 58.3239843 -54.35827267 56.97877785 -56.4375 54.4375 C-56.4375 53.4475 -56.4375 52.4575 -56.4375 51.4375 C-57.0975 51.4375 -57.7575 51.4375 -58.4375 51.4375 C-64.4366291 40.0810091 -65.02324503 25.68519539 -61.4375 13.4375 C-58.96765366 6.57681573 -53.2958303 -0.09705953 -47.0625 -3.9375 C-30.1718018 -11.50919229 -15.28687212 -9.799277 0 0 Z " fill="#F6FCFC" transform="translate(203.4375,159.5625)"/>
<path d="M0 0 C7.59 0 15.18 0 23 0 C23 6.6 23 13.2 23 20 C28.28 20 33.56 20 39 20 C39 25.28 39 30.56 39 36 C33.72 36 28.44 36 23 36 C23.1198556 41.07218697 23.242488 46.1441456 23.37231445 51.21606445 C23.41563562 52.94160965 23.45731273 54.66719693 23.49731445 56.39282227 C23.55508526 58.87268764 23.61876003 61.35234172 23.68359375 63.83203125 C23.70030624 64.60400345 23.71701874 65.37597565 23.73423767 66.17134094 C23.82227895 69.35182933 23.98745195 71.96235584 25 75 C29.62 75 34.24 75 39 75 C39 80.61 39 86.22 39 92 C35.37453463 92.08170915 31.75095107 92.14084254 28.125 92.1875 C27.11179687 92.21263672 26.09859375 92.23777344 25.0546875 92.26367188 C18.00105146 92.3314953 10.22452108 92.10527667 4.31274414 87.75976562 C-1.14750456 82.0135639 -0.14481502 73.1048155 -0.09765625 65.6875 C-0.0962413 64.83317383 -0.09482635 63.97884766 -0.09336853 63.09863281 C-0.08781962 60.39905127 -0.07527697 57.69955601 -0.0625 55 C-0.05747839 53.15755329 -0.05291664 51.31510527 -0.04882812 49.47265625 C-0.03786699 44.98173814 -0.02063825 40.49088364 0 36 C-3.63 36 -7.26 36 -11 36 C-11 30.72 -11 25.44 -11 20 C-7.37 20 -3.74 20 0 20 C0 13.4 0 6.8 0 0 Z " fill="#EDF3F3" transform="translate(367,133)"/>
<path d="M0 0 C7.59 0 15.18 0 23 0 C23 6.6 23 13.2 23 20 C27.95 20 32.9 20 38 20 C38 25.28 38 30.56 38 36 C33.05 36 28.1 36 23 36 C23.11794106 41.2512212 23.24216602 46.50224097 23.37231445 51.75317383 C23.415727 53.5408927 23.45739729 55.32865474 23.49731445 57.11645508 C23.5548646 59.68063391 23.61860203 62.24459412 23.68359375 64.80859375 C23.70030624 65.6127623 23.71701874 66.41693085 23.73423767 67.24546814 C23.49220696 70.92669998 23.49220696 70.92669998 25 74 C29.32490853 74.4652292 33.65935537 74.70500473 38 75 C38 80.61 38 86.22 38 92 C34.54117738 92.08177602 31.08433371 92.14087227 27.625 92.1875 C26.65949219 92.21263672 25.69398437 92.23777344 24.69921875 92.26367188 C17.19402417 92.33922753 9.11635414 92.03844528 3.5 86.5625 C1.23220757 82.6883546 -0.25325648 80.06662793 -0.22705078 75.50683594 C-0.22689972 74.62622498 -0.22674866 73.74561401 -0.22659302 72.83831787 C-0.21627045 71.89651672 -0.20594788 70.95471558 -0.1953125 69.984375 C-0.1924826 69.01340881 -0.18965271 68.04244263 -0.18673706 67.04205322 C-0.17555292 63.94457615 -0.15045142 60.8473895 -0.125 57.75 C-0.11496792 55.64844168 -0.10584247 53.54687882 -0.09765625 51.4453125 C-0.07561934 46.29676331 -0.04110145 41.14843087 0 36 C-0.78246094 36.01160156 -1.56492187 36.02320313 -2.37109375 36.03515625 C-3.38300781 36.04417969 -4.39492188 36.05320313 -5.4375 36.0625 C-6.44683594 36.07410156 -7.45617187 36.08570313 -8.49609375 36.09765625 C-11 36 -11 36 -12 35 C-12.07313567 32.46950598 -12.09247527 29.96695163 -12.0625 27.4375 C-12.05798828 26.72658203 -12.05347656 26.01566406 -12.04882812 25.28320312 C-12.03700864 23.52209987 -12.01907263 21.76103964 -12 20 C-8.04 20 -4.08 20 0 20 C0 13.4 0 6.8 0 0 Z " fill="#F7FDFD" transform="translate(25,133)"/>
<path d="M0 0 C7.26 0 14.52 0 22 0 C22.33 2.64 22.66 5.28 23 8 C23.66 8 24.32 8 25 8 C25.3403125 7.1028125 25.3403125 7.1028125 25.6875 6.1875 C27.67666838 2.87221937 30.62741178 1.68629411 34 0 C37.67015275 -0.1377685 41.32611348 -0.04271961 45 0 C45 6.93 45 13.86 45 21 C43.164375 21.12375 41.32875 21.2475 39.4375 21.375 C32.53725153 21.93963981 32.53725153 21.93963981 26 24 C23.2913536 28.60057229 23.65133904 33.71523704 23.5859375 38.89453125 C23.56657135 39.84188644 23.5472052 40.78924164 23.5272522 41.76530457 C23.46763629 44.78094577 23.42114295 47.79662552 23.375 50.8125 C23.33680367 52.86134446 23.29775098 54.91017314 23.2578125 56.95898438 C23.16034298 61.97257259 23.08063141 66.98599971 23 72 C15.41 72 7.82 72 0 72 C0 48.24 0 24.48 0 0 Z " fill="#F8FEFE" transform="translate(482,153)"/>
<path d="M0 0 C19.8 0 39.6 0 60 0 C60 6.27 60 12.54 60 19 C40.2 19 20.4 19 0 19 C0 12.73 0 6.46 0 0 Z " fill="#F7F9FC" transform="translate(596,224)"/>
</svg>
