<?xml version="1.0" encoding="UTF-8"?>
<svg version="1.1" xmlns="http://www.w3.org/2000/svg" width="500" height="500">
<path d="M0 0 C0.71285156 0.13889648 1.42570313 0.27779297 2.16015625 0.42089844 C32.24237776 6.48984764 61.2064084 22.89966278 84 43 C85.34964844 44.18142578 85.34964844 44.18142578 86.7265625 45.38671875 C104.89604297 61.50299167 119.70816804 79.48706021 131 101 C131.46792969 101.8559375 131.93585938 102.711875 132.41796875 103.59375 C133.70636657 106.02878017 134.86910485 108.48769494 136 111 C136.53109375 112.17304687 137.0621875 113.34609375 137.609375 114.5546875 C144.75431918 131.16823248 154.08747228 156.7944486 150 175 C148.15056734 177.44173463 146.97963934 178.7397833 144 179.53125 C143.34 179.5209375 142.68 179.510625 142 179.5 C141.01 179.51546875 141.01 179.51546875 140 179.53125 C136.98206486 178.72961098 135.87401127 177.48941751 134 175 C133.32156045 172.37104674 132.85400364 169.98249158 132.5 167.3125 C132.2602868 165.77674954 132.01668563 164.24160174 131.76953125 162.70703125 C131.64529785 161.92408691 131.52106445 161.14114258 131.39306641 160.33447266 C126.74860204 132.75039299 115.32613455 108.53081581 99 86 C98.18771916 84.85884297 97.3764036 83.71699774 96.56640625 82.57421875 C94.74130778 80.02460103 92.88922094 77.50230947 91 75 C90.566875 74.42378906 90.13375 73.84757812 89.6875 73.25390625 C86.28149511 68.94038032 82.19098961 65.51435537 78 62 C77.04222656 61.18917969 76.08445312 60.37835938 75.09765625 59.54296875 C66.11577809 51.96808009 56.98888534 45.20243375 47 39 C46.24332031 38.50628906 45.48664063 38.01257812 44.70703125 37.50390625 C7.63547928 13.95932333 -41.15039959 10.39941914 -83.3215332 19.1315918 C-106.29976107 24.30377954 -128.52303262 33.16098474 -147 48 C-148.10408203 48.82177734 -148.10408203 48.82177734 -149.23046875 49.66015625 C-155.89649983 54.65083085 -161.94810712 60.29677584 -168 66 C-168.72316406 66.66902344 -169.44632812 67.33804688 -170.19140625 68.02734375 C-193.69185234 90.48332557 -209.40772878 123.56649002 -216 155 C-216.25966553 156.23548584 -216.51933105 157.47097168 -216.78686523 158.74389648 C-218.85018581 169.10798641 -219.52548535 179.13491663 -219.4375 189.6875 C-219.43445862 190.46859131 -219.43141724 191.24968262 -219.42828369 192.05444336 C-219.31479565 211.86088022 -217.00272493 233.99455014 -208 252 C-204.98928405 250.63137923 -202.7129125 249.04817902 -200.25390625 246.84375 C-199.55668457 246.21984375 -198.85946289 245.5959375 -198.14111328 244.953125 C-194.71503408 241.82785321 -191.31221276 238.68070447 -187.9375 235.5 C-187.2057959 234.81220459 -186.4740918 234.12440918 -185.72021484 233.41577148 C-180.75604439 228.72524624 -175.9169292 223.92812261 -171.125 219.0625 C-166.12626944 213.99116291 -161.02173162 209.39481293 -155.42578125 204.984375 C-152.34669311 202.46557182 -149.60809059 199.69872471 -146.84375 196.84375 C-145.05314761 195.05314761 -143.19721401 193.42967774 -141.25 191.8125 C-139.22415183 190.11898198 -137.7224755 188.65085628 -136.0625 186.5625 C-133.68234761 183.60534097 -131.01029263 181.33577898 -128.12890625 178.87890625 C-126.0463054 177.0408677 -124.11907613 175.12003653 -122.1875 173.125 C-119.09255436 169.96901007 -115.8314447 167.19236594 -112.375 164.4375 C-109.20522486 161.90342152 -106.39649408 159.49238419 -103.875 156.3125 C-100.57717212 152.25436598 -96.7406193 149.23284002 -92 147 C-85.52373464 146.53740962 -80.93385143 150.19263854 -76 154 C-74.1625648 155.63167134 -72.35597592 157.27152002 -70.60546875 158.99609375 C-69.03194606 160.19963555 -69.03194606 160.19963555 -67.00390625 159.85546875 C-64.66515299 158.85705361 -63.47222852 157.73935417 -61.75 155.875 C-59.35563714 153.37433351 -56.93675434 151.00871371 -54.3125 148.75 C-50.81285646 145.73283159 -47.39747111 142.63115851 -44 139.5 C-40.04158886 135.85563142 -36.04822665 132.26085784 -31.984375 128.734375 C-29.67850965 126.71901237 -27.40060869 124.67446124 -25.125 122.625 C-24.2896875 121.87347656 -23.454375 121.12195313 -22.59375 120.34765625 C-20.81574968 118.73835175 -19.04526744 117.12071326 -17.28125 115.49609375 C-15.96640625 114.29146484 -15.96640625 114.29146484 -14.625 113.0625 C-13.83351563 112.33160156 -13.04203125 111.60070312 -12.2265625 110.84765625 C-9.16306854 108.30549372 -6.848484 107.155844 -2.9375 106.4375 C4.66950831 107.52421547 11.30014181 113.0203405 17 118 C17 118.66 17 119.32 17 120 C17.66386719 120.20109375 18.32773437 120.4021875 19.01171875 120.609375 C23.15465353 122.53732896 26.330627 125.32168913 29.8125 128.25 C33.85609175 131.61643524 37.89312443 134.95594094 42.12109375 138.08984375 C45.62964866 140.69198265 48.9516566 143.4514191 52.25 146.3125 C58.2996897 151.48954545 64.58330303 156.28603683 71 161 C79.35043892 167.14848437 87.56133807 173.35399931 95.41333008 180.13183594 C99.55542958 183.68607866 103.87814236 186.88374515 108.32421875 190.04296875 C112.06957054 192.78226984 115.60856115 195.7502601 119.1796875 198.7109375 C123.07349322 201.87128397 127.09683025 204.84472248 131.12109375 207.8359375 C134.49720982 210.37375067 137.78339968 213.00857322 141.0703125 215.66015625 C144.8541935 218.68221587 148.67559428 221.65448126 152.5 224.625 C153.65072998 225.51892456 153.65072998 225.51892456 154.82470703 226.4309082 C157.21606042 228.28780226 159.60793596 230.14402151 162 232 C171.37925184 239.27726741 180.75448612 246.55300554 190 254 C192.60291744 256.0848956 195.20778209 258.16735447 197.8125 260.25 C201.51139347 263.20892709 201.51139347 263.20892709 203.34619141 264.68164062 C204.84890605 265.87955309 206.3670124 267.0580935 207.88671875 268.234375 C210 270 210 270 211 272 C211.25303321 275.87984253 211.30454139 278.77364205 209 282 C206.4224076 284.00479409 205.04686083 284.00242481 201.75390625 283.83203125 C197.48802201 282.88652309 194.89343967 281.11536863 191.625 278.375 C191.05974609 277.92060547 190.49449219 277.46621094 189.91210938 276.99804688 C188.78113879 276.08838112 187.65437942 275.17345085 186.53222656 274.25292969 C184.54957307 272.63167766 182.5279867 271.06401927 180.5 269.5 C179.44039063 268.67435547 179.44039063 268.67435547 178.359375 267.83203125 C175.49608559 265.60871546 172.62370289 263.39732372 169.75 261.1875 C169.19900635 260.76339844 168.6480127 260.33929688 168.08032227 259.90234375 C165.29194228 257.75724969 162.49968905 255.61757133 159.69921875 253.48828125 C154.38229456 249.43642107 149.16106976 245.32769847 144.0625 241 C139.91835993 237.50762508 135.68760299 234.28622474 131.25 231.1875 C125.23878589 226.98717459 119.55125705 222.47001085 113.88720703 217.81494141 C108.28356037 213.21170452 102.5698713 208.78233686 96.8046875 204.38232422 C86.86250637 196.76697931 77.01099873 189.03919354 67.2578125 181.18359375 C63.60265083 178.25005198 59.89718383 175.40801062 56.125 172.625 C51.19431054 168.96994468 46.46616295 165.11454015 41.75 161.1875 C35.48415438 155.97287638 29.09569934 150.98318968 22.54589844 146.13110352 C18.80748879 143.3610263 15.12333837 140.54579796 11.5 137.625 C10.73429688 137.01011719 9.96859375 136.39523438 9.1796875 135.76171875 C7.69865798 134.56468593 6.22491314 133.35859537 4.7578125 132.14453125 C4.05398438 131.58121094 3.35015625 131.01789063 2.625 130.4375 C2.01914062 129.94121094 1.41328125 129.44492188 0.7890625 128.93359375 C-0.95401152 127.83393048 -0.95401152 127.83393048 -2.9609375 128.0859375 C-5.6879864 129.3084077 -7.21619246 131.00371744 -9.25 133.1875 C-11.92655031 136.05453473 -14.62442699 138.51959293 -17.78515625 140.82421875 C-22.2482144 144.10091414 -26.19990849 147.79290182 -30.1875 151.625 C-31.66876422 153.03438681 -33.15054121 154.44323488 -34.6328125 155.8515625 C-35.36274414 156.54668945 -36.09267578 157.24181641 -36.84472656 157.95800781 C-40.05697425 161.00141965 -43.30593067 164.00415784 -46.5625 167 C-47.11639404 167.50998535 -47.67028809 168.0199707 -48.2409668 168.54541016 C-49.49328355 169.69769515 -50.74652107 170.84897935 -52 172 C-48.68538964 175.44695415 -45.30630128 178.38196112 -41.4375 181.1875 C-37.20223916 184.31094023 -33.13456271 187.52373576 -29.125 190.9375 C-24.34158255 194.97253401 -19.40528918 198.64942167 -14.28833008 202.24755859 C13.77875621 222.01550782 13.77875621 222.01550782 18 229 C17.79126664 234.94890078 17.79126664 234.94890078 15.73608398 237.67895508 C12.84449316 239.87926417 10.17889719 239.60147996 6.65283203 239.48583984 C1.95033251 238.62462375 -1.03220872 235.88701098 -4.5625 232.8125 C-6.13456243 231.51719172 -7.70749999 230.22294492 -9.28125 228.9296875 C-10.06757813 228.2706543 -10.85390625 227.61162109 -11.6640625 226.93261719 C-15.21630153 223.99370371 -18.88513439 221.21699866 -22.5625 218.4375 C-23.96529217 217.36777528 -25.36763557 216.29746181 -26.76953125 215.2265625 C-27.46385254 214.69708008 -28.15817383 214.16759766 -28.87353516 213.62207031 C-32.50111378 210.85494834 -36.12562566 208.0838169 -39.75 205.3125 C-40.45874268 204.77061035 -41.16748535 204.2287207 -41.89770508 203.67041016 C-46.18633427 200.39031355 -50.47085157 197.10495475 -54.75 193.8125 C-55.78898438 193.01328125 -56.82796875 192.2140625 -57.8984375 191.390625 C-59.98935572 189.77898527 -62.07809351 188.16487922 -64.1640625 186.546875 C-72.33702351 180.2177758 -80.64121416 174.08121902 -89 168 C-93.99935218 172.23071793 -98.84870213 176.58229377 -103.625 181.0625 C-104.26695312 181.66126953 -104.90890625 182.26003906 -105.5703125 182.87695312 C-108.38614886 185.51102955 -111.16410996 188.15313146 -113.8359375 190.93359375 C-116 193 -116 193 -118 193 C-118 193.66 -118 194.32 -118 195 C-119.50390625 196.48046875 -119.50390625 196.48046875 -121.5625 198.1875 C-124.3253868 200.53279758 -126.96679757 202.90829405 -129.5 205.5 C-131.79015137 207.83123032 -134.13455601 210.00968564 -136.625 212.125 C-140.38864609 215.35722218 -143.84033928 218.83808092 -147.3125 222.375 C-151.11036678 226.23364133 -154.91056726 229.85149246 -159.1875 233.1875 C-165.42573158 238.11386818 -170.90099567 243.7677497 -176.45581055 249.44213867 C-180.590293 253.65327856 -184.80543769 257.65976006 -189.28344727 261.50390625 C-191.86951693 263.7578438 -194.20104805 266.2243648 -196.5546875 268.71484375 C-198 270 -198 270 -200 270 C-192.61396931 286.70585851 -181.73161111 300.99542938 -169 314 C-168.23042969 314.80824219 -167.46085937 315.61648438 -166.66796875 316.44921875 C-142.46455363 341.41561368 -107.68104373 360.38261984 -73.0625 364.625 C-72.06524902 364.74834717 -71.06799805 364.87169434 -70.04052734 364.9987793 C-52.65480763 367.05917615 -36.16856382 367.05621986 -18.73632812 365.27197266 C-16.4651166 365.04622947 -14.19825056 364.86039364 -11.921875 364.69921875 C17.80790031 361.93288315 48.94325837 345.62978624 71 326 C72.28777344 324.87464844 72.28777344 324.87464844 73.6015625 323.7265625 C83.49170522 314.97184402 92.01416651 305.66491975 100.14453125 295.25390625 C102.05311426 292.93548015 103.14103416 291.86635328 106 291 C109.53566688 291.09065813 110.96574402 291.9741177 113.8125 294.125 C116 297 116 297 116.8125 300.1875 C115.55973615 306.06585345 111.95450454 309.60537619 108 314 C107.24460937 314.85207031 106.48921875 315.70414062 105.7109375 316.58203125 C104.19396027 318.2788563 102.6665405 319.9664025 101.12890625 321.64453125 C99.85632584 323.05254224 98.60543532 324.4813882 97.40234375 325.94921875 C70.00351465 359.37438878 22.3661145 379.6335426 -19.62109375 384.6171875 C-39.69810392 386.38407557 -61.3035672 386.42164818 -81 382 C-82.41297363 381.69400879 -82.41297363 381.69400879 -83.85449219 381.38183594 C-110.48757914 375.51179079 -134.89372451 365.19667709 -157 349 C-158.06605469 348.22914063 -159.13210937 347.45828125 -160.23046875 346.6640625 C-174.11523473 336.34315223 -186.53461306 323.76042956 -197 310 C-197.74378906 309.0615625 -198.48757812 308.123125 -199.25390625 307.15625 C-208.61264196 295.1213276 -215.44659325 281.70123517 -222 268 C-222.46277344 267.05253906 -222.92554688 266.10507812 -223.40234375 265.12890625 C-237.64899456 233.76806789 -241.21430836 192.56428695 -235 159 C-234.86577637 158.27232422 -234.73155273 157.54464844 -234.59326172 156.79492188 C-233.53286867 151.16297827 -232.29880501 145.5811639 -231 140 C-230.83693359 139.26555664 -230.67386719 138.53111328 -230.50585938 137.77441406 C-220.31727126 92.61583129 -185.63161204 50.41239234 -147 26 C-125.79265777 12.92169211 -103.48189898 3.66674625 -79 -1 C-77.70328369 -1.26248535 -77.70328369 -1.26248535 -76.38037109 -1.53027344 C-51.27114316 -6.49606945 -24.94073291 -5.08975697 0 0 Z " fill="#FFFFFF" transform="translate(274,15)"/>
</svg>
