<?xml version="1.0" encoding="UTF-8"?>
<svg version="1.1" xmlns="http://www.w3.org/2000/svg" width="250" height="187">
<path d="M0 0 C82.5 0 165 0 250 0 C250 61.71 250 123.42 250 187 C167.5 187 85 187 0 187 C0 125.29 0 63.58 0 0 Z " fill="#000000" transform="translate(0,0)"/>
<path d="M0 0 C3.48865066 2.22005042 5.49042726 4.17215484 7 8 C7.66234193 14.81822574 7.37258347 21.56013059 5 28 C1.8550071 31.80709666 -1.21584512 34.57166848 -6.18359375 35.3359375 C-10.04081304 35.40278705 -12.42922687 35.31020279 -15.875 33.4375 C-21.3585526 27.14754261 -21.34465734 21.51418445 -21.3984375 13.40234375 C-20.95678352 9.63096512 -20.02574929 7.20030346 -18 4 C-17.01 3.67 -16.02 3.34 -15 3 C-14.67 4.32 -14.34 5.64 -14 7 C-13.34 7 -12.68 7 -12 7 C-10.64721885 5.01310269 -9.31431695 3.01254782 -8 1 C-5.14675563 -0.42662219 -3.16545451 -0.31033868 0 0 Z " fill="#72C292" transform="translate(117,100)"/>
<path d="M0 0 C0.99 0.66 1.98 1.32 3 2 C2.01 2.66 1.02 3.32 0 4 C-3.30813605 10.2179681 -3.05397722 18.63249167 -1.4296875 25.36328125 C-0.18063564 28.43331925 1.41790186 30.90973008 4 33 C3.01 33 2.02 33 1 33 C0.34 32.34 -0.32 31.68 -1 31 C-2.36125 31.4640625 -2.36125 31.4640625 -3.75 31.9375 C-10.21189873 34.05004381 -16.18382812 34.80901358 -23 34 C-26.25 31.9375 -26.25 31.9375 -28 29 C-29.26950282 21.94720654 -26.19559976 14.54276933 -22.50390625 8.5859375 C-20.17277548 5.38862597 -18.32363306 3.21575537 -15 1 C-11.39802203 0.79611445 -8.23453919 0.95574732 -4.6875 1.625 C-3.800625 1.74875 -2.91375 1.8725 -2 2 C-1.34 1.34 -0.68 0.68 0 0 Z " fill="#000201" transform="translate(99,101)"/>
<path d="M0 0 C2.3125 0.4375 2.3125 0.4375 4.3125 2.4375 C4.48902938 4.91788742 4.54681194 7.27212646 4.5 9.75 C4.49137939 10.46188477 4.48275879 11.17376953 4.47387695 11.90722656 C4.14662743 31.61247976 4.14662743 31.61247976 0.3125 35.4375 C-0.6775 35.4375 -1.6675 35.4375 -2.6875 35.4375 C-4.12957941 32.55334117 -3.78144887 30.02028472 -3.75 26.8125 C-3.74097656 25.62398437 -3.73195312 24.43546875 -3.72265625 23.2109375 C-3.71105469 22.29570313 -3.69945312 21.38046875 -3.6875 20.4375 C-4.8321875 20.685 -4.8321875 20.685 -6 20.9375 C-8.6875 21.4375 -8.6875 21.4375 -11.6875 21.4375 C-11.67589844 22.36433594 -11.66429687 23.29117188 -11.65234375 24.24609375 C-11.64332031 25.44363281 -11.63429687 26.64117187 -11.625 27.875 C-11.61339844 29.06996094 -11.60179687 30.26492187 -11.58984375 31.49609375 C-11.6875 34.4375 -11.6875 34.4375 -12.6875 35.4375 C-14.18488124 35.5354057 -15.68692892 35.56724864 -17.1875 35.5625 C-18.0021875 35.56507813 -18.816875 35.56765625 -19.65625 35.5703125 C-21.6875 35.4375 -21.6875 35.4375 -22.6875 34.4375 C-23.16536504 26.03269721 -23.60135363 16.22213409 -20.4375 8.3125 C-18.27653741 5.99718294 -16.79895209 5.6897799 -13.6875 5.4375 C-12.6975 7.0875 -11.7075 8.7375 -10.6875 10.4375 C-10.0996875 9.3546875 -10.0996875 9.3546875 -9.5 8.25 C-4.67364319 0.76082564 -4.67364319 0.76082564 0 0 Z " fill="#73C594" transform="translate(146.6875,99.5625)"/>
<path d="M0 0 C2.33944736 0.28730055 4.6739143 0.61936779 7 1 C7.05855764 4.99993747 7.09378299 8.99976308 7.125 13 C7.14175781 14.12535156 7.15851563 15.25070313 7.17578125 16.41015625 C7.21227343 22.65031931 6.85765989 28.03208475 5 34 C3.0625 34.5625 3.0625 34.5625 1 35 C-0.88474003 33.11525997 -0.69332 29.97253598 -1.0625 27.4375 C-1.23910156 26.23996094 -1.41570312 25.04242188 -1.59765625 23.80859375 C-1.79681641 22.41833984 -1.79681641 22.41833984 -2 21 C-4.31 20.67 -6.62 20.34 -9 20 C-8.90460938 20.74765625 -8.80921875 21.4953125 -8.7109375 22.265625 C-8.60007813 23.25046875 -8.48921875 24.2353125 -8.375 25.25 C-8.25898438 26.22453125 -8.14296875 27.1990625 -8.0234375 28.203125 C-8 31 -8 31 -10 35 C-12.97 35 -15.94 35 -19 35 C-19.08756305 31.29181703 -19.14058015 27.58390237 -19.1875 23.875 C-19.21263672 22.82828125 -19.23777344 21.7815625 -19.26367188 20.703125 C-19.35873739 10.68955786 -19.35873739 10.68955786 -16 6 C-13.3125 5.125 -13.3125 5.125 -11 5 C-10.01 6.65 -9.02 8.3 -8 10 C-7.773125 9.443125 -7.54625 8.88625 -7.3125 8.3125 C-5.63848923 5.36305245 -3.45043651 3.3247731 -1 1 C-0.67 0.67 -0.34 0.34 0 0 Z " fill="#73C293" transform="translate(172,100)"/>
<path d="M0 0 C3.94726562 -0.42905061 6.61242079 -0.08466413 10 2 C10.66 1.34 11.32 0.68 12 0 C15.125 -0.125 15.125 -0.125 18 0 C18.11662261 4.04142215 18.1873935 8.08240865 18.25 12.125 C18.30027344 13.83816406 18.30027344 13.83816406 18.3515625 15.5859375 C18.42638532 22.02069996 18.40492599 26.12683384 14 31 C11.6875 30.875 11.6875 30.875 9 30 C7.1875 26.9375 7.1875 26.9375 6 24 C5.67 24 5.34 24 5 24 C4.566875 25.670625 4.566875 25.670625 4.125 27.375 C3 31 3 31 1 33 C-1.625 33.125 -1.625 33.125 -4 33 C-4.52427184 6.78640777 -4.52427184 6.78640777 0 0 Z " fill="#71C493" transform="translate(81,55)"/>
<path d="M0 0 C5.03105087 1.25776272 7.23384765 2.6013643 10 7 C10.89913507 10.23461273 11.33380108 13.4853569 11.75 16.8125 C11.87503906 17.67681641 12.00007813 18.54113281 12.12890625 19.43164062 C12.84802076 24.66695228 13.12269545 29.7179607 13 35 C9.25 36.125 9.25 36.125 7 35 C6.3671875 32.71484375 6.3671875 32.71484375 5.875 29.9375 C5.70742187 29.01839844 5.53984375 28.09929687 5.3671875 27.15234375 C5.24601563 26.44207031 5.12484375 25.73179688 5 25 C4.01 25 3.02 25 2 25 C1.86722656 25.71027344 1.73445312 26.42054687 1.59765625 27.15234375 C1.33275391 28.53099609 1.33275391 28.53099609 1.0625 29.9375 C0.88847656 30.85402344 0.71445313 31.77054688 0.53515625 32.71484375 C0 35 0 35 -1 36 C-4.5 36.125 -4.5 36.125 -8 36 C-9 35 -9 35 -9.25 31.5 C-9.06922756 20.21979981 -7.67185113 8.71462701 0 0 Z " fill="#72C293" transform="translate(162,51)"/>
<path d="M0 0 C5.77863372 1.42354651 5.77863372 1.42354651 8 3 C10.71821029 8.31286557 11.64753694 13.09508289 12.1875 19 C12.26935547 19.76828125 12.35121094 20.5365625 12.43554688 21.328125 C12.89897394 25.90787482 13.07955478 30.39806187 13 35 C11.125 35.625 11.125 35.625 9 36 C6.04816899 33.04816899 5.91336012 30.04488053 5 26 C3.68 25.67 2.36 25.34 1 25 C0.67 28.63 0.34 32.26 0 36 C-6.15234375 36.09765625 -6.15234375 36.09765625 -8 36 C-9.54785999 34.45214001 -9.20723349 33.03470872 -9.25 30.875 C-9.0863777 19.45416368 -6.7590712 9.29645715 0 0 Z " fill="#70BE8F" transform="translate(109,51)"/>
<path d="M0 0 C1.2379834 0.00290039 1.2379834 0.00290039 2.50097656 0.00585938 C16.19176174 0.09402901 29.8809623 0.64566174 43.5625 1.125 C43.5625 1.785 43.5625 2.445 43.5625 3.125 C41.14484536 4.33382732 39.64446469 4.23938044 36.94506836 4.22265625 C35.98745102 4.21935303 35.02983368 4.2160498 34.04319763 4.21264648 C33.00671585 4.20434814 31.97023407 4.1960498 30.90234375 4.1875 C29.84213516 4.18371338 28.78192657 4.17992676 27.68959045 4.17602539 C24.2930198 4.16377384 20.89653252 4.14513897 17.5 4.125 C13.02995032 4.09853695 8.55994179 4.07847974 4.08984375 4.0625 C3.05133774 4.05420166 2.01283173 4.04590332 0.94285583 4.03735352 C-0.01160934 4.03405029 -0.96607452 4.03074707 -1.94946289 4.02734375 C-2.79392471 4.02210693 -3.63838654 4.01687012 -4.50843811 4.01147461 C-6.4450597 3.91111167 -6.4450597 3.91111167 -7.4375 5.125 C-9.86174881 5.28670632 -12.2600264 5.38511219 -14.6875 5.44140625 C-15.44043839 5.4623233 -16.19337677 5.48324036 -16.96913147 5.50479126 C-19.45847536 5.57164164 -21.9479166 5.63030187 -24.4375 5.6875 C-25.28585419 5.70801422 -26.13420837 5.72852844 -27.00827026 5.74966431 C-38.47555328 6.02409801 -49.94466666 6.24512918 -61.4152832 6.30123901 C-63.43900552 6.31217053 -65.46267466 6.33185268 -67.48632812 6.35180664 C-75.65032494 6.35967682 -83.41049625 5.6168039 -91.4375 4.125 C-91.4375 3.465 -91.4375 2.805 -91.4375 2.125 C-74.2157483 1.28068366 -57.05265652 1.01895334 -39.8125 1.125 C-35.34114855 1.15172883 -30.86983888 1.17156899 -26.3984375 1.1875 C-25.39743011 1.19579834 -24.39642273 1.20409668 -23.36508179 1.21264648 C-15.50711454 1.24026468 -7.85385491 -0.0460251 0 0 Z " fill="#6EAA86" transform="translate(150.4375,145.875)"/>
<path d="M0 0 C2.43049592 0.00187203 4.86099222 0.00329221 7.29148865 0.00428772 C13.59584653 0.00805123 19.90018027 0.01782644 26.20452881 0.0289917 C32.67476068 0.03934079 39.14499656 0.04381383 45.61523438 0.04882812 C58.24219762 0.05945623 70.86914439 0.07625495 83.49609375 0.09765625 C83.49609375 0.75765625 83.49609375 1.41765625 83.49609375 2.09765625 C81.09336205 3.2990221 79.62369406 3.21216672 76.94213867 3.1953125 C75.9974321 3.19200928 75.05272552 3.18870605 74.07939148 3.18530273 C73.05545792 3.17700439 72.03152435 3.16870605 70.9765625 3.16015625 C69.92584061 3.15636963 68.87511871 3.15258301 67.79255676 3.14868164 C63.28540351 3.13229602 58.77833986 3.10423554 54.27124023 3.07714844 C50.98551858 3.05906233 47.69981174 3.04696527 44.4140625 3.03515625 C43.39620163 3.02685791 42.37834076 3.01855957 41.32963562 3.01000977 C40.37547256 3.00670654 39.42130951 3.00340332 38.43823242 3 C37.60265305 2.99476318 36.76707367 2.98952637 35.90617371 2.98413086 C33.34827232 3.10461929 30.99792484 3.56697933 28.49609375 4.09765625 C26.24315617 4.24380871 23.98706826 4.3444427 21.73046875 4.4140625 C20.74306702 4.44543808 20.74306702 4.44543808 19.73571777 4.47744751 C17.57263051 4.54386583 15.40944016 4.60283119 13.24609375 4.66015625 C12.50210327 4.68067047 11.75811279 4.70118469 10.99157715 4.72232056 C0.27846269 5.01292557 -10.43612524 5.22172444 -21.15319824 5.27389526 C-22.52992888 5.28127532 -23.90664696 5.29184071 -25.2833252 5.30593872 C-34.57864 5.39293003 -43.34726825 4.65945235 -52.50390625 3.09765625 C-52.17390625 2.43765625 -51.84390625 1.77765625 -51.50390625 1.09765625 C-34.32594985 0.27055344 -17.19618676 -0.03979208 0 0 Z " fill="#7CC399" transform="translate(110.50390625,34.90234375)"/>
<path d="M0 0 C2.85321018 -0.23776751 5.20043061 -0.40916783 8 0 C10.25 1.9375 10.25 1.9375 12 5 C12.37125 5.6084375 12.7425 6.216875 13.125 6.84375 C16.73421167 13.56089393 16.94129062 20.52450748 16 28 C14.82835731 30.95274974 13.24768788 32.75231212 11 35 C8.98035801 35.07244053 6.95832876 35.08377188 4.9375 35.0625 C3.83277344 35.05347656 2.72804687 35.04445312 1.58984375 35.03515625 C0.30787109 35.01775391 0.30787109 35.01775391 -1 35 C-0.67 33.68 -0.34 32.36 0 31 C0.804375 30.87625 1.60875 30.7525 2.4375 30.625 C3.283125 30.41875 4.12875 30.2125 5 30 C7.16894957 25.66210085 6.46005551 20.61782552 5.17578125 16.1015625 C3.91556212 12.60667971 2.65018648 9.19051387 0.8671875 5.92578125 C0 4 0 4 0 0 Z " fill="#74C494" transform="translate(136,55)"/>
<path d="M0 0 C2.9375 1.25 2.9375 1.25 5 3 C5 4.32 5 5.64 5 7 C1.66666667 7 -1.66666667 7 -5 7 C-6.50881264 8.60652164 -6.50881264 8.60652164 -7.625 10.75 C-8.23214844 11.79414062 -8.23214844 11.79414062 -8.8515625 12.859375 C-9.23054688 13.56578125 -9.60953125 14.2721875 -10 15 C-10.37382813 15.67417969 -10.74765625 16.34835938 -11.1328125 17.04296875 C-12.47442734 20.0706671 -12.23705316 22.740519 -12 26 C-11.34 26.99 -10.68 27.98 -10 29 C-5.38 28.67 -0.76 28.34 4 28 C3 31 3 31 0.6875 32.1875 C-5.84748825 33.62741266 -12.42470756 34.6343202 -18.25 30.9375 C-20.53280417 27.10565015 -20.64341774 25.43243334 -20 21 C-17.18938984 10.4955408 -12.4144847 -1.0702142 0 0 Z " fill="#74C394" transform="translate(91,102)"/>
<path d="M0 0 C0.309375 1.093125 0.61875 2.18625 0.9375 3.3125 C1.58337897 5.55407994 2.2623117 7.7869351 3 10 C3.27320187 12.95359485 3.27714771 15.91012099 3.3125 18.875 C3.34150391 19.67808594 3.37050781 20.48117188 3.40039062 21.30859375 C3.44529992 25.50243069 3.34872007 27.46983757 0.98046875 31.0703125 C0.32691406 31.70710938 -0.32664063 32.34390625 -1 33 C-2.9375 32.6875 -2.9375 32.6875 -5 32 C-6.1007076 28.6978772 -6.20627072 26.05916721 -6.31640625 22.58203125 C-6.35830078 21.32841797 -6.40019531 20.07480469 -6.44335938 18.78320312 C-6.48267578 17.47287109 -6.52199219 16.16253906 -6.5625 14.8125 C-6.60570992 13.47720022 -6.649325 12.14191348 -6.69335938 10.80664062 C-6.79956502 7.53786703 -6.90160997 4.26901667 -7 1 C-4.53721199 -0.231394 -2.7204945 -0.07159196 0 0 Z " fill="#73C193" transform="translate(130,53)"/>
<path d="M0 0 C3.12336666 1.11548809 5.15582768 2.7505188 7.625 4.9375 C10.3155528 3.71742056 10.3155528 3.71742056 12.625 1.9375 C14.62458364 1.89669217 16.62545254 1.89495644 18.625 1.9375 C16.00558783 3.68377478 14.58675123 4.32472388 11.625 4.9375 C11.7796875 5.69675781 11.934375 6.45601562 12.09375 7.23828125 C12.94698591 13.17956363 13.02126383 19.15315074 13.23046875 25.14648438 C13.26785156 26.10232422 13.30523437 27.05816406 13.34375 28.04296875 C13.37404297 28.91074951 13.40433594 29.77853027 13.43554688 30.67260742 C13.54914559 33.10335042 13.54914559 33.10335042 14.625 35.9375 C15.5221875 35.69 15.5221875 35.69 16.4375 35.4375 C18.625 34.9375 18.625 34.9375 21.625 34.9375 C19.975 36.5875 18.325 38.2375 16.625 39.9375 C14.25 38.875 14.25 38.875 11.625 36.9375 C9.46654124 30.94433259 8.98544329 24.91572596 8.4140625 18.609375 C7.94311188 13.83491005 7.2568344 9.46452446 5.625 4.9375 C3.25776087 3.45703703 3.25776087 3.45703703 0.625 2.9375 C-0.365 2.6075 -1.355 2.2775 -2.375 1.9375 C-2.705 2.9275 -3.035 3.9175 -3.375 4.9375 C-4.035 4.2775 -4.695 3.6175 -5.375 2.9375 C-3.620152 0.62848947 -2.97094787 -0.07818284 0 0 Z M20.625 4.9375 C20.74875 5.576875 20.8725 6.21625 21 6.875 C21.20625 7.555625 21.4125 8.23625 21.625 8.9375 C22.285 9.2675 22.945 9.5975 23.625 9.9375 C24.97808313 11.25078657 26.31370078 12.58249081 27.625 13.9375 C26.965 14.5975 26.305 15.2575 25.625 15.9375 C25.295 15.6075 24.965 15.2775 24.625 14.9375 C24.64820313 15.89011719 24.67140625 16.84273437 24.6953125 17.82421875 C24.72238281 19.70560547 24.72238281 19.70560547 24.75 21.625 C24.77320313 22.86636719 24.79640625 24.10773438 24.8203125 25.38671875 C24.63532021 28.74987857 24.08267895 30.9360587 22.625 33.9375 C21.965 33.9375 21.305 33.9375 20.625 33.9375 C20.63023682 33.37353516 20.63547363 32.80957031 20.64086914 32.22851562 C20.66187267 29.63152211 20.67473362 27.03454656 20.6875 24.4375 C20.69587891 23.550625 20.70425781 22.66375 20.71289062 21.75 C20.72830479 17.55734623 20.63662986 13.50041416 20.05859375 9.34375 C19.91550781 8.2196875 19.77242187 7.095625 19.625 5.9375 C19.955 5.6075 20.285 5.2775 20.625 4.9375 Z " fill="#061209" transform="translate(111.375,49.0625)"/>
<path d="M0 0 C7.34549508 -0.04640556 14.69095839 -0.08191089 22.03657055 -0.10362434 C25.44769162 -0.11404739 28.85871217 -0.12817938 32.26977539 -0.15087891 C36.19416081 -0.17683004 40.11850596 -0.18648505 44.04296875 -0.1953125 C45.26396774 -0.20563507 46.48496674 -0.21595764 47.7429657 -0.22659302 C48.8837709 -0.22674408 50.02457611 -0.22689514 51.19995117 -0.22705078 C52.20144699 -0.231492 53.20294281 -0.23593323 54.23478699 -0.24050903 C57.16668291 0.01449752 59.33965323 0.77305338 62 2 C62 2.33 62 2.66 62 3 C51.79613053 3.74307907 41.6396024 4.18649788 31.40795898 4.18530273 C29.30237193 4.18751062 27.19729376 4.20584294 25.09179688 4.22460938 C16.57342876 4.25847297 8.38911993 3.59229989 0 2 C0 1.34 0 0.68 0 0 Z " fill="#6BB188" transform="translate(59,148)"/>
<path d="M0 0 C0 0.33 0 0.66 0 1 C-11.88 1 -23.76 1 -36 1 C-36 1.66 -36 2.32 -36 3 C-32.7 3.33 -29.4 3.66 -26 4 C-26 4.33 -26 4.66 -26 5 C-30.44334532 5.05023786 -34.88653085 5.08610608 -39.33007812 5.10986328 C-40.83499031 5.1197893 -42.33988391 5.13333455 -43.84472656 5.15087891 C-53.7829003 5.26366192 -63.18277084 4.73429243 -73 3 C-72.67 2.34 -72.34 1.68 -72 1 C-48.01592576 -0.37472688 -24.01335922 -0.09726855 0 0 Z " fill="#609576" transform="translate(131,35)"/>
<path d="M0 0 C1.5003479 0.07069702 1.5003479 0.07069702 3.03100586 0.14282227 C4.1105957 0.19116211 5.19018555 0.23950195 6.30249023 0.28930664 C8.00695312 0.37341797 8.00695312 0.37341797 9.74584961 0.45922852 C11.45611328 0.53753906 11.45611328 0.53753906 13.20092773 0.61743164 C16.02864984 0.74757785 18.85605961 0.8825573 21.68334961 1.02172852 C17.8493258 3.16106347 15.07152539 3.09871406 10.68334961 3.02172852 C9.87897461 3.18672852 9.07459961 3.35172852 8.24584961 3.52172852 C4.72060431 4.20958126 1.26922792 4.02172852 -2.31665039 4.02172852 C-3.02007568 4.18471436 -3.72350098 4.3477002 -4.44824219 4.515625 C-8.69984196 5.2657796 -12.90271209 5.14369398 -17.21118164 5.11938477 C-18.15853683 5.11796982 -19.10589203 5.11655487 -20.08195496 5.11509705 C-23.09771934 5.10951463 -26.11340857 5.09696533 -29.12915039 5.08422852 C-31.17797744 5.07921124 -33.22680566 5.07464873 -35.27563477 5.07055664 C-40.28933545 5.05955095 -45.30298019 5.04229839 -50.31665039 5.02172852 C-50.31665039 4.69172852 -50.31665039 4.36172852 -50.31665039 4.02172852 C-45.86165039 3.52672852 -45.86165039 3.52672852 -41.31665039 3.02172852 C-41.31665039 2.69172852 -41.31665039 2.36172852 -41.31665039 2.02172852 C-39.5978064 1.98414429 -39.5978064 1.98414429 -37.84423828 1.94580078 C-33.60811441 1.85189746 -29.37216111 1.75163577 -25.13623047 1.64941406 C-23.30000792 1.60600032 -21.46374332 1.56433013 -19.62744141 1.52441406 C-16.99376728 1.46686683 -14.36030618 1.40312853 -11.72680664 1.33813477 C-10.90076431 1.32142227 -10.07472198 1.30470978 -9.22364807 1.28749084 C-5.80052034 1.19773947 -3.07750713 0.02886481 0 0 Z " fill="#0F1D14" transform="translate(146.316650390625,148.978271484375)"/>
<path d="M0 0 C1.00088654 0.00007553 2.00177307 0.00015106 3.0329895 0.00022888 C4.1163559 0.00539017 5.19972229 0.01055145 6.31591797 0.01586914 C7.42289032 0.01728409 8.52986267 0.01869904 9.67037964 0.02015686 C13.2163154 0.02576767 16.7621887 0.03832203 20.30810547 0.05102539 C22.70784414 0.056039 25.1075838 0.06060215 27.50732422 0.06469727 C33.39927272 0.07574061 39.29118463 0.09248929 45.18310547 0.11352539 C45.18310547 0.77352539 45.18310547 1.43352539 45.18310547 2.11352539 C42.80618114 3.30198755 41.34124536 3.24648289 38.68920898 3.25878906 C37.29249718 3.26835884 37.29249718 3.26835884 35.86756897 3.27812195 C34.35506813 3.27979118 34.35506813 3.27979118 32.81201172 3.28149414 C31.26210793 3.28648674 31.26210793 3.28648674 29.68089294 3.2915802 C27.49275153 3.29664919 25.30460236 3.29898853 23.11645508 3.29882812 C19.76289171 3.30101412 16.40965744 3.31916893 13.05615234 3.33813477 C10.9331066 3.34106874 8.81005928 3.34305351 6.68701172 3.34399414 C5.17754723 3.35477242 5.17754723 3.35477242 3.6375885 3.36576843 C2.70329514 3.3626918 1.76900177 3.35961517 0.80639648 3.35644531 C-0.01585922 3.35787033 -0.83811493 3.35929535 -1.68528748 3.36076355 C-3.81689453 3.11352539 -3.81689453 3.11352539 -6.81689453 1.11352539 C-4.35528436 -0.1172797 -2.7519246 -0.00691438 0 0 Z " fill="#70AB88" transform="translate(148.81689453125,146.886474609375)"/>
<path d="M0 0 C1.08551651 -0.00060425 1.08551651 -0.00060425 2.19296265 -0.0012207 C7.53301627 0.02721871 12.73793855 0.41074207 18.03125 1.09375 C18.03125 1.42375 18.03125 1.75375 18.03125 2.09375 C8.57779536 2.91043068 -0.86040444 3.37777307 -10.34375 3.65625 C-11.03186768 3.67742889 -11.71998535 3.69860779 -12.42895508 3.72042847 C-24.94389162 4.1025239 -37.44802339 4.20643654 -49.96875 4.09375 C-50.29875 3.43375 -50.62875 2.77375 -50.96875 2.09375 C-45.45960402 1.8029401 -39.95017673 1.51844872 -34.44042969 1.23925781 C-32.57478509 1.14389553 -30.7092207 1.04694785 -28.84375 0.94824219 C-19.22872882 0.44055249 -9.63019333 0.00499835 0 0 Z " fill="#061008" transform="translate(110.96875,143.90625)"/>
<path d="M0 0 C5.45454545 0.45454545 5.45454545 0.45454545 8 3 C8 3.99 8 4.98 8 6 C8.66 6 9.32 6 10 6 C10.33 5.01 10.66 4.02 11 3 C11.66 3.66 12.32 4.32 13 5 C12.30197266 6.67835937 12.30197266 6.67835937 11.58984375 8.390625 C9.52406893 13.89128053 8.93807055 19.47825121 8.27148438 25.28515625 C7.43929751 31.46008127 7.43929751 31.46008127 4.90234375 34.578125 C4.27457031 35.04734375 3.64679688 35.5165625 3 36 C2.34 35.67 1.68 35.34 1 35 C1.64453125 34.11183594 2.2890625 33.22367188 2.953125 32.30859375 C6.03239959 26.91986322 5.6742585 21.1183775 5.75 15.0625 C5.79447266 13.32129883 5.79447266 13.32129883 5.83984375 11.54492188 C5.91017401 8.6965462 5.96305414 5.84897163 6 3 C0.59212615 4.09786425 0.59212615 4.09786425 -3 8 C-3 7.01 -3 6.02 -3 5 C-5.64 4.34 -8.28 3.68 -11 3 C-7.26869886 0.51246591 -6.23381123 1.27935128 -2 2 C-1.34 1.34 -0.68 0.68 0 0 Z " fill="#051207" transform="translate(93,52)"/>
<path d="M0 0 C0.33 0 0.66 0 1 0 C1 3.96 1 7.92 1 12 C1.99 11.34 2.98 10.68 4 10 C4.51046875 10.82886719 5.0209375 11.65773438 5.546875 12.51171875 C7.824679 15.36576796 7.824679 15.36576796 11.453125 15.26953125 C12.70609375 15.11871094 13.9590625 14.96789062 15.25 14.8125 C16.51328125 14.67457031 17.7765625 14.53664062 19.078125 14.39453125 C20.52445313 14.19923828 20.52445313 14.19923828 22 14 C21 17 21 17 18.6875 18.1875 C12.15251175 19.62741266 5.57529244 20.6343202 -0.25 16.9375 C-2.73724045 12.76248924 -2.620967 9.67694175 -1.53515625 4.99609375 C-1.07043922 3.31700669 -0.54078505 1.65615422 0 0 Z " fill="#72B88F" transform="translate(73,116)"/>
<path d="M0 0 C0.66 0.33 1.32 0.66 2 1 C2.33 1.99 2.66 2.98 3 4 C4.65 3.01 6.3 2.02 8 1 C8.66 1.66 9.32 2.32 10 3 C9.21625 3.391875 8.4325 3.78375 7.625 4.1875 C4.53174347 6.32331999 4.11644336 7.47893373 3 11 C2.6410326 13.60212075 2.6410326 13.60212075 2.5859375 16.30078125 C2.52792969 17.76547852 2.52792969 17.76547852 2.46875 19.25976562 C2.42234375 20.77086914 2.42234375 20.77086914 2.375 22.3125 C2.31699219 23.85260742 2.31699219 23.85260742 2.2578125 25.42382812 C2.16385103 27.94904265 2.0781846 30.47425592 2 33 C0.02 33.99 -1.96 34.98 -4 36 C-4.66 35.34 -5.32 34.68 -6 34 C-5.35708008 33.4834082 -4.71416016 32.96681641 -4.05175781 32.43457031 C-1.35584827 29.23566385 -1.38276821 27.19444148 -1.171875 23.046875 C-1.1331427 22.38665344 -1.0944104 21.72643188 -1.05450439 21.04620361 C-0.935435 18.94798604 -0.8423723 16.84954538 -0.75 14.75 C-0.67359038 13.32282379 -0.59548393 11.89573735 -0.515625 10.46875 C-0.32408732 6.97999093 -0.15583973 3.49055663 0 0 Z " fill="#000B01" transform="translate(151,101)"/>
<path d="M0 0 C3.96 0 7.92 0 12 0 C12.33 0.66 12.66 1.32 13 2 C11.75 5.0625 11.75 5.0625 10 8 C9.01 8.33 8.02 8.66 7 9 C6.67 9.66 6.34 10.32 6 11 C2 11 2 11 0.1875 10 C-1.78139881 6.68395989 -0.66926895 3.71140052 0 0 Z " fill="#060E08" transform="translate(105,114)"/>
<path d="M0 0 C5.19609458 -0.07421905 10.39187983 -0.12863446 15.58837891 -0.16479492 C17.35568619 -0.17987102 19.12295614 -0.20033522 20.89013672 -0.22631836 C23.43205995 -0.26275402 25.97348806 -0.27973794 28.515625 -0.29296875 C29.30430969 -0.30845261 30.09299438 -0.32393646 30.90557861 -0.33988953 C35.72535533 -0.34136445 36.95490095 -0.03382429 41 3 C27.14 3 13.28 3 -1 3 C-0.67 2.01 -0.34 1.02 0 0 Z " fill="#1A3022" transform="translate(141,32)"/>
<path d="M0 0 C10.56 0 21.12 0 32 0 C32 0.66 32 1.32 32 2 C28.56395235 3.71802382 24.61561104 3.1196618 20.8359375 3.09765625 C19.92872955 3.0962413 19.02152161 3.09482635 18.08682251 3.09336853 C15.18284845 3.08776096 12.27895085 3.07520718 9.375 3.0625 C7.40885528 3.05748598 5.44270935 3.0529229 3.4765625 3.04882812 C-1.3489879 3.03778906 -6.17448097 3.02051935 -11 3 C-11 2.67 -11 2.34 -11 2 C-5.555 1.505 -5.555 1.505 0 1 C0 0.67 0 0.34 0 0 Z " fill="#6FA987" transform="translate(162,35)"/>
<path d="M0 0 C3.39192363 0.59283621 5.2107757 1.76743189 7.75 4.0625 C8.67039062 4.88427734 8.67039062 4.88427734 9.609375 5.72265625 C10.29773438 6.35494141 10.29773438 6.35494141 11 7 C11.66 6.34 12.32 5.68 13 5 C13.99 5.33 14.98 5.66 16 6 C15.34 6 14.68 6 14 6 C12.04994226 9.77011162 10.90426296 13.07583879 10.53515625 17.30859375 C10.45716797 18.13810547 10.37917969 18.96761719 10.29882812 19.82226562 C10.14165749 21.56153404 9.98799389 23.30112303 9.83789062 25.04101562 C9.75861328 25.87181641 9.67933594 26.70261719 9.59765625 27.55859375 C9.53070557 28.31454834 9.46375488 29.07050293 9.39477539 29.84936523 C8.96544397 32.18825234 8.15534648 33.93280005 7 36 C6.67 35.34 6.34 34.68 6 34 C4.8553125 35.0209375 4.8553125 35.0209375 3.6875 36.0625 C2.800625 36.701875 1.91375 37.34125 1 38 C0.01 37.67 -0.98 37.34 -2 37 C-1.236875 36.401875 -0.47375 35.80375 0.3125 35.1875 C1.199375 34.465625 2.08625 33.74375 3 33 C3.556875 32.5875 4.11375 32.175 4.6875 31.75 C8.97208446 26.03722071 8.87007339 16.78283016 8 10 C6.30953781 6.52488565 5.25634708 5.17089805 2 3 C2 2.34 2 1.68 2 1 C1.34 0.67 0.68 0.34 0 0 Z " fill="#08170B" transform="translate(115,98)"/>
<path d="M0 0 C4.03845412 -0.04962653 8.07678887 -0.08582632 12.11547852 -0.10986328 C13.48790583 -0.11988926 14.86031195 -0.13351356 16.23266602 -0.15087891 C18.21100527 -0.17527627 20.18950367 -0.18544484 22.16796875 -0.1953125 C23.35672607 -0.20578613 24.5454834 -0.21625977 25.77026367 -0.22705078 C28.94736386 -0.00370033 31.14343455 0.63883361 34 2 C34 2.33 34 2.66 34 3 C24.1 3 14.2 3 4 3 C4 2.34 4 1.68 4 1 C2.68 0.67 1.36 0.34 0 0 Z " fill="#7CC99B" transform="translate(87,148)"/>
<path d="M0 0 C0.99 0.66 1.98 1.32 3 2 C2.01 2.66 1.02 3.32 0 4 C-2.03655209 7.95205039 -2.55230483 11.93547266 -3.125 16.3125 C-3.37636719 18.19388672 -3.37636719 18.19388672 -3.6328125 20.11328125 C-3.75398438 21.06589844 -3.87515625 22.01851562 -4 23 C-6.40201504 18.80120206 -6.15864149 15.75924459 -6 11 C-8.90073181 10.32198966 -8.90073181 10.32198966 -12 10 C-12.66 10.66 -13.32 11.32 -14 12 C-13.67 10.35 -13.34 8.7 -13 7 C-9.49064814 7 -6.43515002 7.37542727 -3 8 C-3.33 6.02 -3.66 4.04 -4 2 C-2.68 1.34 -1.36 0.68 0 0 Z " fill="#101E15" transform="translate(99,101)"/>
<path d="M0 0 C4.9053984 -0.28855285 8.1554435 -0.26204794 12 3 C12 4.32 12 5.64 12 7 C8.66666667 7 5.33333333 7 2 7 C0.2488427 8.4166747 0.2488427 8.4166747 -1 10 C-1.08004482 6.4780279 -1.04005702 3.38018531 0 0 Z " fill="#6AAD86" transform="translate(84,102)"/>
<path d="M0 0 C0.33 0 0.66 0 1 0 C1 2.31 1 4.62 1 7 C2.65 7 4.3 7 6 7 C6 9.64 6 12.28 6 15 C3.36 15 0.72 15 -2 15 C-2.3690205 4.44191344 -2.3690205 4.44191344 0 0 Z " fill="#74C495" transform="translate(102,71)"/>
<path d="M0 0 C0.12375 0.639375 0.2475 1.27875 0.375 1.9375 C0.58125 2.618125 0.7875 3.29875 1 4 C1.66 4.33 2.32 4.66 3 5 C4.35308313 6.31328657 5.68870078 7.64499081 7 9 C6.34 9.66 5.68 10.32 5 11 C4.67 10.67 4.34 10.34 4 10 C4.01160156 10.96421875 4.02320313 11.9284375 4.03515625 12.921875 C4.04417969 14.18515625 4.05320313 15.4484375 4.0625 16.75 C4.07410156 18.00296875 4.08570313 19.2559375 4.09765625 20.546875 C4.02021027 23.28536501 3.82780815 25.41880293 3 28 C2.01 27.67 1.02 27.34 0 27 C0.01740234 25.19015625 0.01740234 25.19015625 0.03515625 23.34375 C0.04454335 21.72916823 0.05364256 20.11458476 0.0625 18.5 C0.07087891 17.70851563 0.07925781 16.91703125 0.08789062 16.1015625 C0.10402477 12.16483065 -0.02369212 8.37141338 -0.56640625 4.46875 C-0.70949219 3.3240625 -0.85257813 2.179375 -1 1 C-0.67 0.67 -0.34 0.34 0 0 Z " fill="#08140B" transform="translate(132,54)"/>
<path d="M0 0 C0.33 0 0.66 0 1 0 C1.03758423 0.97610229 1.03758423 0.97610229 1.07592773 1.97192383 C1.19193702 4.91898046 1.31464115 7.8657213 1.4375 10.8125 C1.47681641 11.83666016 1.51613281 12.86082031 1.55664062 13.91601562 C1.59853516 14.89892578 1.64042969 15.88183594 1.68359375 16.89453125 C1.72025146 17.80050049 1.75690918 18.70646973 1.79467773 19.63989258 C1.9208205 22.15048782 1.9208205 22.15048782 3 25 C3.8971875 24.7525 3.8971875 24.7525 4.8125 24.5 C7 24 7 24 10 24 C8.35 25.65 6.7 27.3 5 29 C1.34880077 27.36656877 0.18866135 26.47614532 -1.3125 22.6875 C-2.81481481 14.62962963 -2.81481481 14.62962963 -1 11 C-0.7724985 9.12943209 -0.59037189 7.25314042 -0.4375 5.375 C-0.35371094 4.37210937 -0.26992187 3.36921875 -0.18359375 2.3359375 C-0.12300781 1.56507812 -0.06242187 0.79421875 0 0 Z M9 22 C11 23 11 23 11 23 Z " fill="#14271A" transform="translate(123,60)"/>
<path d="M0 0 C0.66 0.33 1.32 0.66 2 1 C1.690625 1.99 1.38125 2.98 1.0625 4 C-0.08433207 7.97731122 -0.56712356 11.88767379 -1 16 C-0.38511719 15.90460938 0.22976562 15.80921875 0.86328125 15.7109375 C1.67152344 15.60007813 2.47976562 15.48921875 3.3125 15.375 C4.11300781 15.25898438 4.91351563 15.14296875 5.73828125 15.0234375 C8 15 8 15 11 17 C2.67346939 19.6122449 2.67346939 19.6122449 -1 19 C-3.63616781 16.72744155 -3.97288714 15.20140982 -4.4375 11.75 C-3.90368204 7.17441751 -2.29186243 3.93913855 0 0 Z " fill="#0B180F" transform="translate(82,113)"/>
<path d="M0 0 C2.97 0.33 5.94 0.66 9 1 C8.67 1.99 8.34 2.98 8 4 C6.68 4.33 5.36 4.66 4 5 C4 8.3 4 11.6 4 15 C2.02 15.99 2.02 15.99 0 17 C0 17.66 0 18.32 0 19 C-1.65 19 -3.3 19 -5 19 C-5 18.01 -5 17.02 -5 16 C-3.35 15.67 -1.7 15.34 0 15 C1.2222084 9.70376361 0.72589219 5.32320939 0 0 Z " fill="#051308" transform="translate(162,119)"/>
<path d="M0 0 C3.49998201 -0.02934711 6.99993179 -0.04691445 10.5 -0.0625 C11.48226562 -0.07087891 12.46453125 -0.07925781 13.4765625 -0.08789062 C19.08674757 -0.10659124 24.45150899 0.161121 30 1 C30 1.33 30 1.66 30 2 C23.46313616 2.98831156 17.10422885 3.11883529 10.5 3.0625 C9.48679688 3.05798828 8.47359375 3.05347656 7.4296875 3.04882812 C4.95306173 3.03714593 2.47656343 3.02076582 0 3 C0 2.01 0 1.02 0 0 Z " fill="#15281C" transform="translate(164,144)"/>
<path d="M0 0 C1.98 0.66 3.96 1.32 6 2 C5.97717062 5.41814021 5.89982966 8.83294713 5.8125 12.25 C5.80669922 13.21808594 5.80089844 14.18617187 5.79492188 15.18359375 C5.57090253 22.4019949 5.57090253 22.4019949 2.44921875 25.671875 C1.23685547 26.32929687 1.23685547 26.32929687 0 27 C0 24 0 24 0.984375 22.2421875 C2.38894471 19.14132976 2.26458341 16.51564225 2.25 13.125 C2.25515625 11.93132812 2.2603125 10.73765625 2.265625 9.5078125 C2.00134006 6.01769663 1.25362935 3.25346663 0 0 Z " fill="#051107" transform="translate(149,63)"/>
<path d="M0 0 C2.93847653 -0.107834 5.87301151 -0.18721916 8.8125 -0.25 C9.64587891 -0.28351563 10.47925781 -0.31703125 11.33789062 -0.3515625 C13.62620111 -0.38832251 15.74321261 -0.38495793 18 0 C20.07421875 2.015625 20.07421875 2.015625 21 4 C18.06217531 3.85924795 15.12484829 3.7126162 12.1875 3.5625 C11.35412109 3.52318359 10.52074219 3.48386719 9.66210938 3.44335938 C8.45844727 3.38051758 8.45844727 3.38051758 7.23046875 3.31640625 C6.49207764 3.27974854 5.75368652 3.24309082 4.99291992 3.20532227 C3 3 3 3 0 2 C0 1.34 0 0.68 0 0 Z " fill="#669C7D" transform="translate(59,148)"/>
<path d="M0 0 C1.65 0.33 3.3 0.66 5 1 C5.66 3.97 6.32 6.94 7 10 C6.01 10 5.02 10 4 10 C3.67 8.68 3.34 7.36 3 6 C2.34 7.65 1.68 9.3 1 11 C0.34 11 -0.32 11 -1 11 C-1.14285714 3.57142857 -1.14285714 3.57142857 0 0 Z " fill="#0B190F" transform="translate(110,76)"/>
<path d="M0 0 C8.25 0 16.5 0 25 0 C24.67 0.66 24.34 1.32 24 2 C16.08 2.33 8.16 2.66 0 3 C0 2.01 0 1.02 0 0 Z " fill="#050E07" transform="translate(77,33)"/>
<path d="M0 0 C0.33 0 0.66 0 1 0 C1.02685938 2.14576637 1.04633088 4.29162645 1.0625 6.4375 C1.07410156 7.63246094 1.08570313 8.82742187 1.09765625 10.05859375 C1 13 1 13 0 14 C-1.49738124 14.0979057 -2.99942892 14.12974864 -4.5 14.125 C-5.3146875 14.12757813 -6.129375 14.13015625 -6.96875 14.1328125 C-9 14 -9 14 -10 13 C-10.07244053 10.98035801 -10.08377188 8.95832876 -10.0625 6.9375 C-10.05347656 5.83277344 -10.04445313 4.72804688 -10.03515625 3.58984375 C-10.02355469 2.73519531 -10.01195313 1.88054687 -10 1 C-7.87000003 4.79039366 -7.83297544 7.65736138 -8 12 C-5.69 12 -3.38 12 -1 12 C-0.67 8.04 -0.34 4.08 0 0 Z " fill="#6AA582" transform="translate(134,121)"/>
<path d="M0 0 C3.96 0 7.92 0 12 0 C12.33 0.66 12.66 1.32 13 2 C12.06553465 4.03144641 11.06775224 6.03533587 10 8 C9.01 7.67 8.02 7.34 7 7 C7.66 5.68 8.32 4.36 9 3 C6.03 3.66 3.06 4.32 0 5 C0 3.35 0 1.7 0 0 Z " fill="#0C1B11" transform="translate(105,114)"/>
<path d="M0 0 C1.74120117 0.00676758 1.74120117 0.00676758 3.51757812 0.01367188 C6.36593934 0.02539353 9.21419222 0.0418024 12.0625 0.0625 C12.0625 0.3925 12.0625 0.7225 12.0625 1.0625 C5.4625 1.0625 -1.1375 1.0625 -7.9375 1.0625 C-7.9375 1.7225 -7.9375 2.3825 -7.9375 3.0625 C-11.5675 3.3925 -15.1975 3.7225 -18.9375 4.0625 C-19.2675 3.0725 -19.5975 2.0825 -19.9375 1.0625 C-13.29708878 -0.16149452 -6.73528303 -0.04977753 0 0 Z " fill="#0D1710" transform="translate(149.9375,143.9375)"/>
<path d="M0 0 C0.66 0 1.32 0 2 0 C2 5.28 2 10.56 2 16 C2.99 15.67 3.98 15.34 5 15 C5.33 13.02 5.66 11.04 6 9 C6.33 9 6.66 9 7 9 C7.125 12.375 7.125 12.375 7 16 C6.34 16.66 5.68 17.32 5 18 C3.35 18 1.7 18 0 18 C0 12.06 0 6.12 0 0 Z " fill="#79BB95" transform="translate(77,70)"/>
<path d="M0 0 C1.32 0.33 2.64 0.66 4 1 C4.33 2.65 4.66 4.3 5 6 C4.01 6.495 4.01 6.495 3 7 C1.96708324 8.98320018 0.9662501 10.98347806 0 13 C-1 14 -1 14 -2.84765625 14.09765625 C-4.8984375 14.06510417 -6.94921875 14.03255208 -9 14 C-9 13.67 -9 13.34 -9 13 C-6.69 13 -4.38 13 -2 13 C-1.34 8.71 -0.68 4.42 0 0 Z " fill="#0A170E" transform="translate(163,75)"/>
<path d="M0 0 C2.83597257 5.57971839 3.10375377 9.77477369 3 16 C1.02 16.99 -0.96 17.98 -3 19 C-3.66 18.34 -4.32 17.68 -5 17 C-4.35546875 16.47921875 -3.7109375 15.9584375 -3.046875 15.421875 C-0.40014324 12.29024582 -0.41209076 10.30226904 -0.25 6.25 C-0.19328125 5.07953125 -0.1365625 3.9090625 -0.078125 2.703125 C-0.05234375 1.81109375 -0.0265625 0.9190625 0 0 Z " fill="#112518" transform="translate(150,118)"/>
<path d="M0 0 C1.24141006 3.72423019 0.54714434 4.64334903 -0.9375 8.1875 C-2.84635505 13.12034879 -3.3960328 16.75256538 -3 22 C-3.99 22 -4.98 22 -6 22 C-6.48717189 14.57062873 -5.16605999 8.75965362 -2 2 C-1.34 1.34 -0.68 0.68 0 0 Z " fill="#071009" transform="translate(75,109)"/>
<path d="M0 0 C1.2365332 -0.01836914 1.2365332 -0.01836914 2.49804688 -0.03710938 C3.68817383 -0.04000977 3.68817383 -0.04000977 4.90234375 -0.04296875 C5.62800537 -0.04707764 6.35366699 -0.05118652 7.10131836 -0.05541992 C9.0625 0.1875 9.0625 0.1875 12.0625 2.1875 C8.79262965 2.41337773 5.52170719 2.61516605 2.25 2.8125 C0.8568457 2.90917969 0.8568457 2.90917969 -0.56445312 3.0078125 C-1.45712891 3.059375 -2.34980469 3.1109375 -3.26953125 3.1640625 C-4.50280151 3.24261475 -4.50280151 3.24261475 -5.76098633 3.32275391 C-7.9375 3.1875 -7.9375 3.1875 -10.9375 1.1875 C-7.53373106 -0.51438447 -3.75074101 0.00291886 0 0 Z " fill="#7DC69B" transform="translate(152.9375,146.8125)"/>
<path d="M0 0 C0.66 0 1.32 0 2 0 C1.979375 0.94875 1.95875 1.8975 1.9375 2.875 C1.77448174 5.90666283 1.77448174 5.90666283 3 8 C2.91075148 10.7235195 2.76646668 13.41013311 2.5625 16.125 C2.51029297 16.87910156 2.45808594 17.63320312 2.40429688 18.41015625 C2.27454996 20.2737937 2.13792512 22.13694996 2 24 C1.67 24 1.34 24 1 24 C-0.12513633 15.98340366 -0.09579384 8.07861415 0 0 Z " fill="#0B1910" transform="translate(179,102)"/>
<path d="M0 0 C0.33 0 0.66 0 1 0 C1.05410687 1.77049689 1.09284119 3.54146849 1.125 5.3125 C1.14820313 6.29863281 1.17140625 7.28476563 1.1953125 8.30078125 C1 11 1 11 -1 14 C0.65 14.33 2.3 14.66 4 15 C4 15.33 4 15.66 4 16 C0.04 16 -3.92 16 -8 16 C-7.67 14.68 -7.34 13.36 -7 12 C-6.195625 11.87625 -5.39125 11.7525 -4.5625 11.625 C-3.716875 11.41875 -2.87125 11.2125 -2 11 C-0.85185003 8.70370006 -0.69230191 6.92301914 -0.4375 4.375 C-0.35371094 3.55773437 -0.26992187 2.74046875 -0.18359375 1.8984375 C-0.12300781 1.27195312 -0.06242188 0.64546875 0 0 Z " fill="#72B38E" transform="translate(143,74)"/>
<path d="M0 0 C0.92232422 0.00451172 1.84464844 0.00902344 2.79492188 0.01367188 C5.05085048 0.02536062 7.30663967 0.04174545 9.5625 0.0625 C9.5625 0.3925 9.5625 0.7225 9.5625 1.0625 C3.6225 1.3925 -2.3175 1.7225 -8.4375 2.0625 C-8.7675 3.0525 -9.0975 4.0425 -9.4375 5.0625 C-12.7375 5.0625 -16.0375 5.0625 -19.4375 5.0625 C-19.4375 4.7325 -19.4375 4.4025 -19.4375 4.0625 C-17.4575 3.7325 -15.4775 3.4025 -13.4375 3.0625 C-14.7575 2.4025 -16.0775 1.7425 -17.4375 1.0625 C-11.58861957 0.04355924 -5.92830831 -0.05548453 0 0 Z " fill="#568A6B" transform="translate(152.4375,145.9375)"/>
<path d="M0 0 C2 1.5 2 1.5 3 3 C2.01 3.495 2.01 3.495 1 4 C0.34 3.67 -0.32 3.34 -1 3 C-5.15889363 2.60765154 -7.28748861 2.52499241 -10.8125 4.875 C-12.21788731 6.24023339 -13.61454417 7.61454417 -15 9 C-15.33 8.34 -15.66 7.68 -16 7 C-10.75778695 1.61610551 -7.57241778 -1.08853506 0 0 Z " fill="#070F08" transform="translate(92,100)"/>
<path d="M0 0 C0.94101563 0.00322266 1.88203125 0.00644531 2.8515625 0.00976562 C3.83640625 0.01814453 4.82125 0.02652344 5.8359375 0.03515625 C6.82851562 0.03966797 7.82109375 0.04417969 8.84375 0.04882812 C11.2995391 0.0606348 13.75520854 0.07710225 16.2109375 0.09765625 C12.37691369 2.2369912 9.59911329 2.17464179 5.2109375 2.09765625 C4.3859375 2.26265625 3.5609375 2.42765625 2.7109375 2.59765625 C-0.48213489 3.23627073 -3.54199009 3.16132434 -6.7890625 3.09765625 C-6.7890625 2.43765625 -6.7890625 1.77765625 -6.7890625 1.09765625 C-4.33631109 -0.12871945 -2.7384844 -0.01649689 0 0 Z " fill="#09140D" transform="translate(151.7890625,149.90234375)"/>
<path d="M0 0 C3.74687666 1.3625006 6.62599868 3.56021799 9.75 6 C9.42 7.32 9.09 8.64 8.75 10 C7.25 8.625 7.25 8.625 5.75 7 C5.75 6.34 5.75 5.68 5.75 5 C3.09771188 3.92474806 0.46631546 2.90543849 -2.25 2 C-2.58 2.99 -2.91 3.98 -3.25 5 C-3.91 4.34 -4.57 3.68 -5.25 3 C-3.55889818 0.77486603 -2.85878025 0 0 0 Z " fill="#0D1C12" transform="translate(111.25,49)"/>
<path d="M0 0 C0.33 0 0.66 0 1 0 C1.33 2.31 1.66 4.62 2 7 C1.01 7.33 0.02 7.66 -1 8 C-1.04241723 5.66705225 -1.04092937 3.33297433 -1 1 C-0.67 0.67 -0.34 0.34 0 0 Z M-8 4 C-7.67 5.32 -7.34 6.64 -7 8 C-5.35 8.33 -3.7 8.66 -2 9 C-2 9.66 -2 10.32 -2 11 C-6.75 10.25 -6.75 10.25 -9 8 C-8.625 5.875 -8.625 5.875 -8 4 Z " fill="#060F07" transform="translate(176,78)"/>
<path d="M0 0 C-1.32 0.33 -2.64 0.66 -4 1 C-4 1.66 -4 2.32 -4 3 C-10.27 3 -16.54 3 -23 3 C-23 2.67 -23 2.34 -23 2 C-15.27279225 0.76892281 -7.8316181 -0.2700558 0 0 Z " fill="#0D1811" transform="translate(114,39)"/>
<path d="M0 0 C1.32 0 2.64 0 4 0 C4 0.66 4 1.32 4 2 C5.98 2 7.96 2 10 2 C10 3.32 10 4.64 10 6 C6.29706315 6.33663062 4.60465619 6.47736015 1.625 4.125 C0 2 0 2 0 0 Z " fill="#77C196" transform="translate(86,103)"/>
<path d="M0 0 C1.36125 0.12375 1.36125 0.12375 2.75 0.25 C2.75 1.24 2.75 2.23 2.75 3.25 C1.8425 3.146875 0.935 3.04375 0 2.9375 C-3.44396698 2.89917869 -3.44396698 2.89917869 -5.5 5.75 C-6.0775 6.575 -6.655 7.4 -7.25 8.25 C-7.91 8.25 -8.57 8.25 -9.25 8.25 C-9.58 8.91 -9.91 9.57 -10.25 10.25 C-10.91 9.59 -11.57 8.93 -12.25 8.25 C-11.13625 7.38375 -11.13625 7.38375 -10 6.5 C-7.25340941 4.38537374 -7.25340941 4.38537374 -5.3125 2 C-3.25 0.25 -3.25 0.25 0 0 Z " fill="#0B160E" transform="translate(175.25,97.75)"/>
<path d="M0 0 C0.99 1.485 0.99 1.485 2 3 C3.65 2.01 5.3 1.02 7 0 C7.66 0.66 8.32 1.32 9 2 C8.21625 2.391875 7.4325 2.78375 6.625 3.1875 C3.64843582 5.24274669 3.01176437 6.59679258 2 10 C1.34 10 0.68 10 0 10 C0 6.7 0 3.4 0 0 Z " fill="#08130B" transform="translate(152,102)"/>
<path d="M0 0 C10.395 0.99 10.395 0.99 21 2 C17 5 17 5 14.9375 4.75 C14.298125 4.5025 13.65875 4.255 13 4 C10.25778934 3.08592978 7.64475482 2.48923795 4.8125 1.9375 C3.91144531 1.76089844 3.01039062 1.58429687 2.08203125 1.40234375 C1.39496094 1.26957031 0.70789062 1.13679688 0 1 C0 0.67 0 0.34 0 0 Z " fill="#0F1D13" transform="translate(58,38)"/>
<path d="M0 0 C0.33 0 0.66 0 1 0 C0.979375 1.093125 0.95875 2.18625 0.9375 3.3125 C0.81455548 6.94384191 0.81455548 6.94384191 2 10 C1.0625 12.1875 1.0625 12.1875 0 14 C-0.66 13.67 -1.32 13.34 -2 13 C-1.34 8.71 -0.68 4.42 0 0 Z M-7 14 C-5.35 14 -3.7 14 -2 14 C-2.33 14.99 -2.66 15.98 -3 17 C-4.32 16.67 -5.64 16.34 -7 16 C-7 15.34 -7 14.68 -7 14 Z " fill="#0A190E" transform="translate(136,121)"/>
<path d="M0 0 C0.66 0.33 1.32 0.66 2 1 C1.690625 1.99 1.38125 2.98 1.0625 4 C-0.08433207 7.97731122 -0.56712356 11.88767379 -1 16 C-1.99 15.67 -2.98 15.34 -4 15 C-4.50610724 8.92671312 -3.04157942 5.22771463 0 0 Z " fill="#1A2E21" transform="translate(82,113)"/>
<path d="M0 0 C0.66 0 1.32 0 2 0 C2.33 2.31 2.66 4.62 3 7 C2.01 7.66 1.02 8.32 0 9 C-0.72965366 11.56282742 -0.72965366 11.56282742 -1 14 C-1.33 14 -1.66 14 -2 14 C-1.85795259 12.41632253 -1.71119847 10.83306682 -1.5625 9.25 C-1.48128906 8.36828125 -1.40007812 7.4865625 -1.31640625 6.578125 C-1.03761535 4.30649548 -0.61209423 2.20148177 0 0 Z " fill="#4E8764" transform="translate(164,66)"/>
<path d="M0 0 C-0.639375 0.309375 -1.27875 0.61875 -1.9375 0.9375 C-3.93610821 1.8345163 -3.93610821 1.8345163 -5 3 C-6.51928038 3.07179964 -8.04167482 3.08392007 -9.5625 3.0625 C-10.38878906 3.05347656 -11.21507813 3.04445312 -12.06640625 3.03515625 C-12.70449219 3.02355469 -13.34257813 3.01195312 -14 3 C-14 2.01 -14 1.02 -14 0 C-4.58997722 -1.33257403 -4.58997722 -1.33257403 0 0 Z " fill="#0E1A12" transform="translate(91,152)"/>
<path d="M0 0 C4.62 0.66 9.24 1.32 14 2 C11.18659479 4.81340521 8.90444304 4.669115 5 5 C2.0625 4.5625 2.0625 4.5625 0 4 C0 2.68 0 1.36 0 0 Z " fill="#101E14" transform="translate(58,149)"/>
<path d="M0 0 C-0.33 0.99 -0.66 1.98 -1 3 C-4.75907641 4.62323754 -7.92086213 5.23994929 -12 5 C-10.68 4.34 -9.36 3.68 -8 3 C-8.33 2.34 -8.66 1.68 -9 1 C-6.04335481 -0.4783226 -3.25770263 -0.06032783 0 0 Z " fill="#679D7E" transform="translate(95,130)"/>
<path d="M0 0 C0.33 0 0.66 0 1 0 C1 1.65 1 3.3 1 5 C2.32 4.67 3.64 4.34 5 4 C5.625 5.875 5.625 5.875 6 8 C5.34 8.66 4.68 9.32 4 10 C3.01 10 2.02 10 1 10 C-0.60725635 6.78548731 -0.05748185 3.56387464 0 0 Z " fill="#6DAC87" transform="translate(143,125)"/>
<path d="M0 0 C2.59009682 4.48325996 2.89226661 8.93227217 2 14 C-0.5 16.125 -0.5 16.125 -3 17 C-3 14 -3 14 -2.0390625 12.140625 C-0.81147662 9.61161349 -0.59554067 7.54351519 -0.375 4.75 C-0.30023438 3.85796875 -0.22546875 2.9659375 -0.1484375 2.046875 C-0.09945312 1.37140625 -0.05046875 0.6959375 0 0 Z " fill="#1C3E28" transform="translate(152,73)"/>
<path d="M0 0 C1.32 0 2.64 0 4 0 C4 1.32 4 2.64 4 4 C2 6 2 6 0 7 C-0.33 7.99 -0.66 8.98 -1 10 C-1.02689216 8.52093108 -1.04634621 7.04172517 -1.0625 5.5625 C-1.07410156 4.73878906 -1.08570312 3.91507813 -1.09765625 3.06640625 C-1 1 -1 1 0 0 Z " fill="#75CB98" transform="translate(125,55)"/>
<path d="M0 0 C0.66 0.66 1.32 1.32 2 2 C1.7578125 4.8203125 1.7578125 4.8203125 1.125 8.125 C0.92132813 9.22070312 0.71765625 10.31640625 0.5078125 11.4453125 C0.34023437 12.28835937 0.17265625 13.13140625 0 14 C-2 12 -2 12 -2.25 8.6875 C-2.01863452 5.27485916 -1.4765288 3.04534065 0 0 Z " fill="#061009" transform="translate(78,56)"/>
<path d="M0 0 C3.49419954 2.21299304 4.8622806 4.01798209 6 8 C6.125 10.8125 6.125 10.8125 6 13 C5.67 12.01 5.34 11.02 5 10 C4.34 10 3.68 10 3 10 C0 3.375 0 3.375 0 0 Z " fill="#09150B" transform="translate(169,52)"/>
<path d="M0 0 C2.3125 2.375 2.3125 2.375 4 5 C3.67 5.99 3.34 6.98 3 8 C2.360625 7.195625 1.72125 6.39125 1.0625 5.5625 C-2.17112801 1.54496217 -3.81594715 1.65978854 -9 1 C-9 0.67 -9 0.34 -9 0 C-5.67049285 -0.83237679 -3.18877034 -1.44008983 0 0 Z " fill="#0A1A0F" transform="translate(146,54)"/>
<path d="M0 0 C4.95 0.99 9.9 1.98 15 3 C15 3.33 15 3.66 15 4 C13.06280622 4.05406122 11.12518079 4.09282025 9.1875 4.125 C8.10855469 4.14820313 7.02960938 4.17140625 5.91796875 4.1953125 C3 4 3 4 0 2 C0 1.34 0 0.68 0 0 Z " fill="#050F08" transform="translate(72,133)"/>
<path d="M0 0 C4.29 0 8.58 0 13 0 C13 0.33 13 0.66 13 1 C11.2984375 1.2165625 11.2984375 1.2165625 9.5625 1.4375 C6.19222799 1.61171478 6.19222799 1.61171478 5 3 C3.33382885 3.04063832 1.66611905 3.042721 0 3 C0 2.01 0 1.02 0 0 Z " fill="#7CC89B" transform="translate(81,36)"/>
<path d="M0 0 C5.28 0 10.56 0 16 0 C15.67 0.99 15.34 1.98 15 3 C14.38125 2.855625 13.7625 2.71125 13.125 2.5625 C8.77462983 1.77943337 4.39978093 1.40153341 0 1 C0 0.67 0 0.34 0 0 Z " fill="#0B190F" transform="translate(120,33)"/>
<path d="M0 0 C2.5 2.3125 2.5 2.3125 5 5 C5 5.99 5 6.98 5 8 C4.13375 7.2265625 4.13375 7.2265625 3.25 6.4375 C1.12172477 4.73494807 1.12172477 4.73494807 -1.25 5.3125 C-1.8275 5.539375 -2.405 5.76625 -3 6 C-2.67 4.68 -2.34 3.36 -2 2 C-1.34 2 -0.68 2 0 2 C0 1.34 0 0.68 0 0 Z " fill="#0C1B10" transform="translate(97,127)"/>
<path d="M0 0 C0.94875 0.04125 1.8975 0.0825 2.875 0.125 C2.875 0.785 2.875 1.445 2.875 2.125 C1.9675 2.41375 1.06 2.7025 0.125 3 C-2.44702908 3.89031776 -4.73846766 4.83994413 -7.125 6.125 C-4.34782609 0.17391304 -4.34782609 0.17391304 0 0 Z " fill="#071008" transform="translate(146.125,97.875)"/>
<path d="M0 0 C0.66 0.66 1.32 1.32 2 2 C1.01 4.64 0.02 7.28 -1 10 C-1.66 10 -2.32 10 -3 10 C-3 7.69 -3 5.38 -3 3 C-2.34 3 -1.68 3 -1 3 C-0.67 2.01 -0.34 1.02 0 0 Z " fill="#0D1810" transform="translate(104,55)"/>
<path d="M0 0 C0.99 0.33 1.98 0.66 3 1 C2.34 2.32 1.68 3.64 1 5 C0.34 5 -0.32 5 -1 5 C-1 5.66 -1 6.32 -1 7 C-2.65 7 -4.3 7 -6 7 C-6 6.01 -6 5.02 -6 4 C-4.35 3.67 -2.7 3.34 -1 3 C-0.67 2.01 -0.34 1.02 0 0 Z " fill="#0A1A0E" transform="translate(163,131)"/>
<path d="M0 0 C0.33 0 0.66 0 1 0 C1.125 2.875 1.125 2.875 1 6 C-1 8 -1 8 -2.9453125 8.1953125 C-4.96354167 8.13020833 -6.98177083 8.06510417 -9 8 C-9 7.67 -9 7.34 -9 7 C-6.69 7 -4.38 7 -2 7 C-1.34 4.69 -0.68 2.38 0 0 Z " fill="#070E08" transform="translate(163,81)"/>
<path d="M0 0 C0.66 0 1.32 0 2 0 C0.66511872 3.59391114 -0.96022723 6.75490696 -3 10 C-3.75 8.375 -3.75 8.375 -4 6 C-2.1875 2.75 -2.1875 2.75 0 0 Z " fill="#08110A" transform="translate(158,53)"/>
<path d="M0 0 C0 0.33 0 0.66 0 1 C-4.95 1 -9.9 1 -15 1 C-15 0.67 -15 0.34 -15 0 C-9.38963576 -1.62077189 -5.53754923 -2.55579195 0 0 Z " fill="#79BC94" transform="translate(121,150)"/>
<path d="M0 0 C0.66 0 1.32 0 2 0 C1.67 4.29 1.34 8.58 1 13 C0.67 13 0.34 13 0 13 C-0.19466332 11.20909747 -0.38051213 9.41723495 -0.5625 7.625 C-0.66691406 6.62726563 -0.77132812 5.62953125 -0.87890625 4.6015625 C-1 2 -1 2 0 0 Z " fill="#12271A" transform="translate(141,120)"/>
<path d="M0 0 C1.65 0.33 3.3 0.66 5 1 C5 3.97 5 6.94 5 10 C4.67 10 4.34 10 4 10 C4 7.36 4 4.72 4 2 C3.01 2 2.02 2 1 2 C0.67 2.66 0.34 3.32 0 4 C0 2.68 0 1.36 0 0 Z " fill="#7BC299" transform="translate(93,55)"/>
<path d="M0 0 C0.66 0.33 1.32 0.66 2 1 C0.125 4.875 0.125 4.875 -1 6 C-2.51928038 6.07179964 -4.04167482 6.08392007 -5.5625 6.0625 C-6.38878906 6.05347656 -7.21507812 6.04445313 -8.06640625 6.03515625 C-8.70449219 6.02355469 -9.34257812 6.01195312 -10 6 C-10 5.67 -10 5.34 -10 5 C-6.7 4.34 -3.4 3.68 0 3 C0 2.01 0 1.02 0 0 Z " fill="#070D09" transform="translate(194,34)"/>
<path d="M0 0 C4.95 0 9.9 0 15 0 C11 3 11 3 9 3 C9 2.34 9 1.68 9 1 C6.03 1 3.06 1 0 1 C0 0.67 0 0.34 0 0 Z " fill="#84C69F" transform="translate(63,37)"/>
<path d="M0 0 C2.31 0.66 4.62 1.32 7 2 C4.35261084 3.4606285 3.10551666 4 0 4 C-0.66 4.66 -1.32 5.32 -2 6 C-1.125 1.125 -1.125 1.125 0 0 Z " fill="#0F1F13" transform="translate(87,107)"/>
<path d="M0 0 C0.99 0.33 1.98 0.66 3 1 C3.125 4.375 3.125 4.375 3 8 C2.34 8.66 1.68 9.32 1 10 C0.67 6.7 0.34 3.4 0 0 Z " fill="#0A1A0F" transform="translate(173,68)"/>
<path d="M0 0 C0.7425 0.0825 1.485 0.165 2.25 0.25 C2.25 0.91 2.25 1.57 2.25 2.25 C0.6 2.25 -1.05 2.25 -2.75 2.25 C-3.08 3.24 -3.41 4.23 -3.75 5.25 C-4.74 4.92 -5.73 4.59 -6.75 4.25 C-3.42692308 0.31153846 -3.42692308 0.31153846 0 0 Z " fill="#6FB08C" transform="translate(146.75,99.75)"/>
<path d="M0 0 C0.99 0.99 1.98 1.98 3 3 C2.34 4.65 1.68 6.3 1 8 C0.34 7.34 -0.32 6.68 -1 6 C-0.625 2.875 -0.625 2.875 0 0 Z " fill="#0C1E11" transform="translate(86,77)"/>
<path d="M0 0 C2.64 0 5.28 0 8 0 C8 0.33 8 0.66 8 1 C6.35 1 4.7 1 3 1 C3 1.99 3 2.98 3 4 C2.01 4.33 1.02 4.66 0 5 C0 3.35 0 1.7 0 0 Z " fill="#132518" transform="translate(105,114)"/>
<path d="M0 0 C0.33 0.66 0.66 1.32 1 2 C2.65 2 4.3 2 6 2 C2.00439392 4.83022097 -1.42737323 3.76210446 -6 3 C-3 1 -3 1 0 0 Z " fill="#77CD9B" transform="translate(111,110)"/>
<path d="M0 0 C2.37948772 0.17625835 3.70225849 0.69719773 5.37890625 2.40234375 C6.62115486 3.90649092 7.81376056 5.45129851 9 7 C8.01 7.495 8.01 7.495 7 8 C5.29115995 6.37660195 3.62553283 4.70680947 2 3 C2 2.34 2 1.68 2 1 C1.34 0.67 0.68 0.34 0 0 Z " fill="#0E1B11" transform="translate(115,98)"/>
<path d="M0 0 C1.32 0.33 2.64 0.66 4 1 C4 2.65 4 4.3 4 6 C3.01 6.495 3.01 6.495 2 7 C0.5393715 4.35261084 0 3.10551666 0 0 Z " fill="#08170C" transform="translate(133,104)"/>
<path d="M0 0 C0.763125 0.20625 1.52625 0.4125 2.3125 0.625 C2.3125 1.615 2.3125 2.605 2.3125 3.625 C-0.3275 2.965 -2.9675 2.305 -5.6875 1.625 C-2.6875 -0.375 -2.6875 -0.375 0 0 Z " fill="#0C1C11" transform="translate(87.6875,53.375)"/>
</svg>
