<?xml version="1.0" encoding="UTF-8"?>
<svg version="1.1" xmlns="http://www.w3.org/2000/svg" width="250" height="124">
<path d="M0 0 C1.43583001 -0.10836453 2.8740202 -0.18576167 4.3125 -0.25 C5.51326172 -0.31960937 5.51326172 -0.31960937 6.73828125 -0.390625 C9 0 9 0 10.78125 1.5 C12.51009609 5.04635096 12.32015147 8.39970605 12.1875 12.25 C12.16719727 13.36761719 12.16719727 13.36761719 12.14648438 14.5078125 C12.11127204 16.33885416 12.05746851 18.16952169 12 20 C12.66 20 13.32 20 14 20 C14 15.38 14 10.76 14 6 C16.31 6 18.62 6 21 6 C21 4.02 21 2.04 21 0 C22.58294782 -0.05437607 24.16644256 -0.09296271 25.75 -0.125 C27.07257812 -0.15980469 27.07257812 -0.15980469 28.421875 -0.1953125 C31.1135858 0.00860498 32.69904974 0.63448279 35 2 C35.33 1.34 35.66 0.68 36 0 C43.59 0 51.18 0 59 0 C59 2.64 59 5.28 59 8 C54.545 8.495 54.545 8.495 50 9 C50.66 9.66 51.32 10.32 52 11 C52.22705078 12.87939453 52.22705078 12.87939453 52.1953125 15.1328125 C52.18886719 15.93847656 52.18242188 16.74414062 52.17578125 17.57421875 C52.15902344 18.41597656 52.14226562 19.25773437 52.125 20.125 C52.11597656 20.97449219 52.10695312 21.82398437 52.09765625 22.69921875 C52.07405647 24.79959884 52.03818483 26.89983444 52 29 C49.03 29 46.06 29 43 29 C43 22.07 43 15.14 43 8 C41.02 8 39.04 8 37 8 C37 9.65 37 11.3 37 13 C37.66 13 38.32 13 39 13 C40.59453633 16.18907265 40.38561702 19.52944682 40 23 C37.86111111 27.56944444 37.86111111 27.56944444 35 29 C32.62597499 29.07116382 30.24999323 29.08409085 27.875 29.0625 C26.59367187 29.05347656 25.31234375 29.04445313 23.9921875 29.03515625 C23.00476563 29.02355469 22.01734375 29.01195313 21 29 C21 26.69 21 24.38 21 22 C19.35 22 17.7 22 16 22 C16 24.31 16 26.62 16 29 C14.7625 29.103125 13.525 29.20625 12.25 29.3125 C11.55390625 29.37050781 10.8578125 29.42851563 10.140625 29.48828125 C8 29 8 29 5.75 27 C3.44799282 23.05370198 3.5423647 20.15565202 3.75 15.6875 C3.76804687 14.94693359 3.78609375 14.20636719 3.8046875 13.44335938 C3.85152663 11.6283429 3.92326211 9.81399834 4 8 C3.34 8 2.68 8 2 8 C2 12.62 2 17.24 2 22 C-0.97 22 -3.94 22 -7 22 C-7 16.72 -7 11.44 -7 6 C-4.69 6 -2.38 6 0 6 C0 4.02 0 2.04 0 0 Z M23 8 C23.33 8.66 23.66 9.32 24 10 C25.32 10 26.64 10 28 10 C28 9.34 28 8.68 28 8 C26.35 8 24.7 8 23 8 Z M23 19 C23 19.33 23 19.66 23 20 C25.97 20 28.94 20 32 20 C32 19.67 32 19.34 32 19 C29.03 19 26.06 19 23 19 Z " fill="#FF5753" transform="translate(12,52)"/>
<path d="M0 0 C0 1.32 0 2.64 0 4 C1.98 4 3.96 4 6 4 C6.33 3.01 6.66 2.02 7 1 C8.65 1 10.3 1 12 1 C12.33 1.99 12.66 2.98 13 4 C13.62648437 3.97679687 14.25296875 3.95359375 14.8984375 3.9296875 C15.71570313 3.91164062 16.53296875 3.89359375 17.375 3.875 C18.18710938 3.85179687 18.99921875 3.82859375 19.8359375 3.8046875 C22 4 22 4 24 6 C24.33 5.34 24.66 4.68 25 4 C28.63 4 32.26 4 36 4 C36.05406122 5.93719378 36.09282025 7.87481921 36.125 9.8125 C36.14820313 10.89144531 36.17140625 11.97039062 36.1953125 13.08203125 C36 16 36 16 34 19 C31.8359375 19.29296875 31.8359375 19.29296875 29.375 19.1875 C28.55773437 19.16042969 27.74046875 19.13335937 26.8984375 19.10546875 C26.27195313 19.07066406 25.64546875 19.03585938 25 19 C24.505 17.515 24.505 17.515 24 16 C22.35 16 20.7 16 19 16 C18.505 12.535 18.505 12.535 18 9 C17.67 11.31 17.34 13.62 17 16 C12.38 16 7.76 16 3 16 C3 13.69 3 11.38 3 9 C2.01 9.495 2.01 9.495 1 10 C0.34227572 13.02934491 0.34227572 13.02934491 0 16 C-1.32 16 -2.64 16 -4 16 C-4 12.37 -4 8.74 -4 5 C-4.99 5 -5.98 5 -7 5 C-7 8.63 -7 12.26 -7 16 C-8.65 16 -10.3 16 -12 16 C-12 12.37 -12 8.74 -12 5 C-13.32 5 -14.64 5 -16 5 C-16 3.68 -16 2.36 -16 1 C-14.08351538 0.83125293 -12.16680367 0.66508357 -10.25 0.5 C-9.18265625 0.4071875 -8.1153125 0.314375 -7.015625 0.21875 C-4.6820782 0.04947717 -2.33967818 0 0 0 Z M7 5 C8 8 8 8 8 8 Z M28 9 C28 9.99 28 10.98 28 12 C28.99 12 29.98 12 31 12 C31 11.01 31 10.02 31 9 C30.01 9 29.02 9 28 9 Z " fill="#625D60" transform="translate(176,56)"/>
<path d="M0 0 C2.31 0 4.62 0 7 0 C7.66 1.32 8.32 2.64 9 4 C9.33 2.68 9.66 1.36 10 0 C11.65 0 13.3 0 15 0 C15.33 0.99 15.66 1.98 16 3 C20.29 3 24.58 3 29 3 C29 3.66 29 4.32 29 5 C29.66 5 30.32 5 31 5 C31 4.34 31 3.68 31 3 C33.60416667 2.47916667 36.20833333 1.95833333 38.8125 1.4375 C39.534375 1.293125 40.25625 1.14875 41 1 C41 1.66 41 2.32 41 3 C41.66 3 42.32 3 43 3 C43 4.65 43 6.3 43 8 C42.34 8 41.68 8 41 8 C41 8.99 41 9.98 41 11 C41.66 11 42.32 11 43 11 C43 12.32 43 13.64 43 15 C33.66666667 15 24.33333333 15 15 15 C14.030625 15.061875 13.06125 15.12375 12.0625 15.1875 C9 15 9 15 7.125 13.5 C6.75375 13.005 6.3825 12.51 6 12 C5.67 12.99 5.34 13.98 5 15 C3.35 15 1.7 15 0 15 C0 10.05 0 5.1 0 0 Z M34 7 C33.22757731 8.83700789 33.22757731 8.83700789 33 11 C34.35444301 12.77190909 34.35444301 12.77190909 36 14 C35.67 11.69 35.34 9.38 35 7 C34.67 7 34.34 7 34 7 Z M26 8 C27 10 27 10 27 10 Z " fill="#635D60" transform="translate(80,57)"/>
<path d="M0 0 C5.61 0 11.22 0 17 0 C17.33 1.32 17.66 2.64 18 4 C18.33 3.67 18.66 3.34 19 3 C20.68608966 2.92794489 22.37500659 2.91613932 24.0625 2.9375 C24.98160156 2.94652344 25.90070313 2.95554688 26.84765625 2.96484375 C27.55792969 2.97644531 28.26820313 2.98804688 29 3 C29.05386629 5.12472576 29.09273071 7.24983652 29.125 9.375 C29.14820313 10.55835937 29.17140625 11.74171875 29.1953125 12.9609375 C29 16 29 16 27 18 C25.125 18.23046875 25.125 18.23046875 23 18.1875 C22.29875 18.18105469 21.5975 18.17460938 20.875 18.16796875 C19 18 19 18 17 17 C17 16.34 17 15.68 17 15 C11.39 15 5.78 15 0 15 C0 10.05 0 5.1 0 0 Z M4 4 C4 4.66 4 5.32 4 6 C5.32 6 6.64 6 8 6 C8 5.34 8 4.68 8 4 C6.68 4 5.36 4 4 4 Z M22 8 C22 8.99 22 9.98 22 11 C22.66 11 23.32 11 24 11 C24.33 10.01 24.66 9.02 25 8 C24.01 8 23.02 8 22 8 Z M4 10 C8 11 8 11 8 11 Z M17 12 C18 14 18 14 18 14 Z " fill="#635D60" transform="translate(127,57)"/>
<path d="M0 0 C1.4540625 0.0309375 1.4540625 0.0309375 2.9375 0.0625 C3.5975 1.7125 4.2575 3.3625 4.9375 5.0625 C5.5975 4.2375 6.2575 3.4125 6.9375 2.5625 C9.88890347 0.10299711 10.48353833 -0.36440249 14.0625 -0.5625 C17.9375 0.0625 17.9375 0.0625 19.9375 2.5 C20.9375 5.0625 20.9375 5.0625 20.9375 6.0625 C19.2875 6.0625 17.6375 6.0625 15.9375 6.0625 C15.9375 5.4025 15.9375 4.7425 15.9375 4.0625 C14.2875 4.0625 12.6375 4.0625 10.9375 4.0625 C10.9375 6.0425 10.9375 8.0225 10.9375 10.0625 C10.9375 9.0725 10.9375 8.0825 10.9375 7.0625 C14.2375 7.0625 17.5375 7.0625 20.9375 7.0625 C20.9375 9.7025 20.9375 12.3425 20.9375 15.0625 C14.9375 15.0625 8.9375 15.0625 2.9375 15.0625 C2.9375 14.0725 2.9375 13.0825 2.9375 12.0625 C0.9575 12.0625 -1.0225 12.0625 -3.0625 12.0625 C-3.0625 13.0525 -3.0625 14.0425 -3.0625 15.0625 C-4.7125 15.0625 -6.3625 15.0625 -8.0625 15.0625 C-7.42064255 12.74882778 -6.77422608 10.4366043 -6.125 8.125 C-5.85139648 7.1359668 -5.85139648 7.1359668 -5.57226562 6.12695312 C-3.86640625 0.07890625 -3.86640625 0.07890625 0 0 Z M-0.0625 6.0625 C0.9375 8.0625 0.9375 8.0625 0.9375 8.0625 Z " fill="#635E60" transform="translate(223.0625,56.9375)"/>
<path d="" fill="#000000" transform="translate(0,0)"/>
<path d="" fill="#000000" transform="translate(0,0)"/>
<path d="" fill="#000000" transform="translate(0,0)"/>
<path d="" fill="#FF0000" transform="translate(0,0)"/>
<path d="" fill="#FF0000" transform="translate(0,0)"/>
<path d="" fill="#FF0000" transform="translate(0,0)"/>
</svg>
