<?xml version="1.0" encoding="UTF-8"?>
<svg version="1.1" xmlns="http://www.w3.org/2000/svg" width="250" height="92">
<path d="M0 0 C82.5 0 165 0 250 0 C250 30.36 250 60.72 250 92 C167.5 92 85 92 0 92 C0 61.64 0 31.28 0 0 Z " fill="#010101" transform="translate(0,0)"/>
<path d="M0 0 C2.5696124 2.09626275 3.84487099 3.66330505 4.234375 7.01953125 C3.91775368 13.47634458 1.12095597 18.14709807 -3 23 C-6.22295681 25.80975722 -7.38270809 26.02092515 -11.6875 25.875 C-15 25 -15 25 -17 22 C-17.92423118 17.06752415 -17.38203005 13.00237122 -14.8125 8.6875 C-11.15001681 3.46429954 -6.71634127 -0.95947732 0 0 Z " fill="#0A0A0A" transform="translate(188,33)"/>
<path d="M0 0 C3.82656549 1.70069577 5.45217779 3.15504735 7 7 C7.22705078 9.19824219 7.22705078 9.19824219 7.1953125 11.546875 C7.18886719 12.39121094 7.18242188 13.23554687 7.17578125 14.10546875 C7.15902344 14.97816406 7.14226562 15.85085937 7.125 16.75 C7.11597656 17.63816406 7.10695313 18.52632812 7.09765625 19.44140625 C7.07414577 21.62788058 7.04128499 23.81380094 7 26 C5.35 26 3.7 26 2 26 C1.67 25.34 1.34 24.68 1 24 C0.46375 24.33 -0.0725 24.66 -0.625 25 C-3.72046073 26.30335189 -5.66574641 26.47632194 -9 26 C-11.9375 23.9375 -11.9375 23.9375 -14 21 C-14.125 17.375 -14.125 17.375 -13 14 C-9.85807057 10.85807057 -6.93394033 10.83655915 -2.6875 10.8125 C-1.12448483 10.86041725 0.43839515 10.91812945 2 11 C1.34 9.02 0.68 7.04 0 5 C-1.98 5 -3.96 5 -6 5 C-6.66 6.32 -7.32 7.64 -8 9 C-9.65 9 -11.3 9 -13 9 C-12.71897086 5.62765029 -12.19628348 4.21360261 -9.875 1.6875 C-6.2426172 -0.44455077 -4.15582055 -0.51947757 0 0 Z " fill="#E5E5E5" transform="translate(88,33)"/>
<path d="M0 0 C2.8100346 1.79363911 4.50940468 3.01880935 6 6 C6.08372659 7.52148326 6.10730027 9.04655778 6.09765625 10.5703125 C6.09443359 11.46621094 6.09121094 12.36210938 6.08789062 13.28515625 C6.07951172 14.22230469 6.07113281 15.15945312 6.0625 16.125 C6.05798828 17.06988281 6.05347656 18.01476562 6.04882812 18.98828125 C6.03702357 21.32558387 6.02055759 23.66276061 6 26 C4.68 26 3.36 26 2 26 C1.67 25.01 1.34 24.02 1 23 C0.29875 23.495 -0.4025 23.99 -1.125 24.5 C-4.51250333 26.26739304 -6.2335258 26.6277457 -10 26 C-13.00801515 23.71129282 -14.67660588 22.17597863 -15.6875 18.5 C-14.8579418 15.48342472 -13.47225866 13.89970075 -11 12.00390625 C-7.23438098 10.11374201 -3.15125803 10.09024474 1 10 C0.34 8.35 -0.32 6.7 -1 5 C-2.98 5 -4.96 5 -7 5 C-7.66 6.32 -8.32 7.64 -9 9 C-10.65 9 -12.3 9 -14 9 C-13.72253508 5.67042093 -13.18903896 4.21195277 -10.9375 1.6875 C-7.15831548 -0.48352089 -4.26550676 -0.87895291 0 0 Z " fill="#E7E7E7" transform="translate(40,33)"/>
<path d="M0 0 C0.99 0 1.98 0 3 0 C3 2.31 3 4.62 3 7 C3.59538574 6.98952637 4.19077148 6.97905273 4.80419922 6.96826172 C7.49442343 6.92676051 10.18458037 6.90069296 12.875 6.875 C13.81214844 6.85824219 14.74929687 6.84148438 15.71484375 6.82421875 C16.61074219 6.81777344 17.50664062 6.81132813 18.4296875 6.8046875 C19.25710449 6.79421387 20.08452148 6.78374023 20.93701172 6.77294922 C23 7 23 7 25 9 C24.43213983 13.55302172 21.96876878 17.85960433 20.15625 22.02734375 C18.93719948 24.90458483 18.93719948 24.90458483 18.46875 27.69140625 C18 30 18 30 16 33 C13.375 33.1875 13.375 33.1875 11 33 C13.34493273 25.31383161 16.55945087 18.2633815 20 11 C14.39 11 8.78 11 3 11 C3.33 16.28 3.66 21.56 4 27 C5.32 27.33 6.64 27.66 8 28 C7.67 29.65 7.34 31.3 7 33 C2.48908952 33.3657495 2.48908952 33.3657495 0.3503418 31.76635742 C-1.3589971 29.53040245 -1.34914351 28.34079435 -1.29296875 25.55078125 C-1.28330078 24.70322266 -1.27363281 23.85566406 -1.26367188 22.98242188 C-1.23853516 22.10134766 -1.21339844 21.22027344 -1.1875 20.3125 C-1.17396484 19.41982422 -1.16042969 18.52714844 -1.14648438 17.60742188 C-1.11114079 15.40433834 -1.06180493 13.20247418 -1 11 C-2.98 11 -4.96 11 -7 11 C-6.67 9.68 -6.34 8.36 -6 7 C-4.35 7 -2.7 7 -1 7 C-1.020625 6.030625 -1.04125 5.06125 -1.0625 4.0625 C-1 1 -1 1 0 0 Z " fill="#EDEDED" transform="translate(131,26)"/>
<path d="M0 0 C2.31 0 4.62 0 7 0 C5.68607348 4.1933825 4.40715993 8.21700014 2.375 12.125 C0.79414356 15.4304271 0.36275093 18.37249068 0 22 C1.98 21.67 3.96 21.34 6 21 C6.226875 19.700625 6.45375 18.40125 6.6875 17.0625 C8.00854883 11.05600458 10.61894973 5.38105027 15 1 C15.99 1 16.98 1 18 1 C17.78085922 7.90293446 16.42379956 11.597972 12.1796875 17.0546875 C11.79039062 17.69664063 11.40109375 18.33859375 11 19 C11.33 19.99 11.66 20.98 12 22 C14.95825254 21.66738557 16.59315647 21.37948529 18.80078125 19.3203125 C23.0554494 13.1416988 23.74874375 8.41810941 23 1 C24.32 1 25.64 1 27 1 C27.99087287 8.26640104 24.92186223 13.99698043 21 20 C18.5813046 22.58371361 16.23695159 24.5420342 13 26 C10.1875 25.9375 10.1875 25.9375 8 25 C7.01 24.67 6.02 24.34 5 24 C4.38125 24.33 3.7625 24.66 3.125 25 C0.36210339 26.30018664 -1.12589899 25.85446246 -4 25 C-4.33 24.67 -4.66 24.34 -5 24 C-4.67446031 18.45197245 -2.9600694 14.60940491 0.0625 10.0625 C0.62807617 9.17981445 0.62807617 9.17981445 1.20507812 8.27929688 C2.12578877 6.84578537 3.06136994 5.4218428 4 4 C2.35 4 0.7 4 -1 4 C-0.67 2.68 -0.34 1.36 0 0 Z " fill="#DDDDDD" transform="translate(198,33)"/>
<path d="M0 0 C1.65 0 3.3 0 5 0 C5.33 0.99 5.66 1.98 6 3 C6.37125 2.505 6.7425 2.01 7.125 1.5 C9 0 9 0 11.875 -0.4375 C15.68728477 0.09621987 17.26834721 1.34639443 20 4 C21.20029908 6.40059817 21.11459743 7.89360649 21.09765625 10.5703125 C21.09443359 11.46621094 21.09121094 12.36210938 21.08789062 13.28515625 C21.07951172 14.22230469 21.07113281 15.15945312 21.0625 16.125 C21.05798828 17.06988281 21.05347656 18.01476562 21.04882812 18.98828125 C21.03702357 21.32558387 21.02055759 23.66276061 21 26 C19.35 26 17.7 26 16 26 C15.97494385 25.39937744 15.9498877 24.79875488 15.92407227 24.17993164 C15.8084472 21.47388563 15.68557064 18.76821717 15.5625 16.0625 C15.52318359 15.11697266 15.48386719 14.17144531 15.44335938 13.19726562 C15.40146484 12.29814453 15.35957031 11.39902344 15.31640625 10.47265625 C15.27974854 9.64000244 15.24309082 8.80734863 15.20532227 7.94946289 C15.20632897 5.99661142 15.20632897 5.99661142 14 5 C10.42739993 4.6122354 10.42739993 4.6122354 7.36791992 6.2512207 C5.69925931 8.3844736 5.58345486 9.54657296 5.48828125 12.23046875 C5.45283203 13.03291016 5.41738281 13.83535156 5.38085938 14.66210938 C5.35830078 15.49548828 5.33574219 16.32886719 5.3125 17.1875 C5.27833984 18.03248047 5.24417969 18.87746094 5.20898438 19.74804688 C5.12658529 21.83156649 5.06161355 23.91576216 5 26 C3.35 26 1.7 26 0 26 C0 17.42 0 8.84 0 0 Z " fill="#E1E1E1" transform="translate(100,33)"/>
<path d="M0 0 C2.26171875 -0.03515625 2.26171875 -0.03515625 5 1 C6.70837418 3.67923644 7.72938465 6.58572604 8.8125 9.5625 C9.12380859 10.36880859 9.43511719 11.17511719 9.75585938 12.00585938 C10.52173646 13.9971398 11.26322944 15.9977676 12 18 C12.959938 15.93824636 13.91788424 13.87556531 14.875 11.8125 C15.40867187 10.66394531 15.94234375 9.51539063 16.4921875 8.33203125 C17.73886913 5.57705863 18.90661592 2.81838323 20 0 C21.65 0 23.3 0 25 0 C22.24892128 8.90054879 18.59701637 17.41643491 15 26 C13.35 26 11.7 26 10 26 C8.51635293 22.41850547 7.03886644 18.83450122 5.5625 15.25 C4.93118164 13.72632813 4.93118164 13.72632813 4.28710938 12.171875 C3.88427734 11.1921875 3.48144531 10.2125 3.06640625 9.203125 C2.69459229 8.30239258 2.32277832 7.40166016 1.93969727 6.47363281 C1.12205587 4.32129646 0.49701486 2.24458325 0 0 Z " fill="#E9E9E9" transform="translate(48,33)"/>
<path d="M0 0 C2.5696124 2.09626275 3.84487099 3.66330505 4.234375 7.01953125 C3.91775368 13.47634458 1.12095597 18.14709807 -3 23 C-6.22295681 25.80975722 -7.38270809 26.02092515 -11.6875 25.875 C-15 25 -15 25 -17 22 C-17.92423118 17.06752415 -17.38203005 13.00237122 -14.8125 8.6875 C-11.15001681 3.46429954 -6.71634127 -0.95947732 0 0 Z M-6.5 2.9375 C-11.80335911 9.43411492 -14.15846202 15.60151312 -14 24 C-12.26424351 24.87436418 -12.26424351 24.87436418 -10 25 C-4.62174138 21.90750129 -2.13015651 16.76232749 -0.39453125 10.984375 C0.20066037 7.99073792 0.05848088 5.04100563 0 2 C-3.08705233 0.51364147 -3.73627655 0.79561433 -6.5 2.9375 Z " fill="#D3D3D3" transform="translate(188,33)"/>
<path d="M0 0 C0.8971875 0.309375 0.8971875 0.309375 1.8125 0.625 C1.17233027 5.76256468 -0.38450333 10.21290181 -2.25 15 C-2.53166016 15.73605469 -2.81332031 16.47210938 -3.10351562 17.23046875 C-3.79316618 19.0305736 -4.48963932 20.8280621 -5.1875 22.625 C-4.5275 22.955 -3.8675 23.285 -3.1875 23.625 C-6.1875 25.625 -6.1875 25.625 -8.375 25.25 C-9.2721875 24.940625 -9.2721875 24.940625 -10.1875 24.625 C-9.59394629 19.32481613 -7.81377368 15.04363107 -5.625 10.25 C-5.1309668 9.14591797 -5.1309668 9.14591797 -4.62695312 8.01953125 C-3.82002195 6.21855443 -3.0046174 4.42137819 -2.1875 2.625 C-4.6625 4.11 -4.6625 4.11 -7.1875 5.625 C-5.69046729 2.17030914 -4.27938051 -0.73360809 0 0 Z " fill="#DBDBDB" transform="translate(167.1875,33.375)"/>
<path d="M0 0 C0.99 0 1.98 0 3 0 C2.75673529 7.66283829 0.66258997 11.96857627 -4 18 C-5.32 17.67 -6.64 17.34 -8 17 C-7.50784387 10.60197029 -4.53442607 4.53442607 0 0 Z " fill="#B9B9B9" transform="translate(213,34)"/>
<path d="M0 0 C0.66 0.33 1.32 0.66 2 1 C1.236875 1.99 0.47375 2.98 -0.3125 4 C-4.91086424 10.49257679 -6.42387337 16.08769711 -6 24 C-6.99 23.67 -7.98 23.34 -9 23 C-10.75614069 19.48771862 -10.54407313 15.83296463 -10 12 C-7.82239734 6.84061777 -4.62443053 3.17103808 0 0 Z " fill="#EBEBEB" transform="translate(181,34)"/>
<path d="M0 0 C-0.35994553 2.6635969 -0.71161002 4.58183452 -2.25 6.8125 C-4.63343087 8.42982809 -6.17875799 8.36169769 -9 8 C-9.66 7.34 -10.32 6.68 -11 6 C-10.625 3.375 -10.625 3.375 -10 1 C-6.61981469 -0.04005702 -3.5219721 -0.08004482 0 0 Z " fill="#0F0F0F" transform="translate(90,47)"/>
<path d="M0 0 C-0.3125 2.875 -0.3125 2.875 -1 6 C-4.22373677 8.14915785 -5.26703674 8.38286803 -9 8 C-9.66 7.34 -10.32 6.68 -11 6 C-10.8125 4 -10.8125 4 -10 2 C-6.3558226 -0.4294516 -4.28758728 -0.16179575 0 0 Z " fill="#101010" transform="translate(41,47)"/>
<path d="M0 0 C0.99 0.33 1.98 0.66 3 1 C3.9826183 8.20586752 0.82297825 14.00248367 -3 20 C-5.203125 21.859375 -5.203125 21.859375 -7 23 C-5.77708527 20.45226097 -4.49813507 18.27672407 -2.875 15.9375 C-0.4377523 11.80946792 -0.72115782 7.93703131 -0.95703125 3.2578125 C-0.97121094 2.51273438 -0.98539063 1.76765625 -1 1 C-0.67 0.67 -0.34 0.34 0 0 Z " fill="#BDBDBD" transform="translate(222,33)"/>
<path d="M0 0 C2.51083114 1.25541557 2.87125446 2.50063488 4 5 C5.65 5 7.3 5 9 5 C7.3125 7.0625 7.3125 7.0625 5 9 C2.375 9 2.375 9 0 8 C-1.4375 6.1875 -1.4375 6.1875 -2 4 C-1.125 1.75 -1.125 1.75 0 0 Z " fill="#EFEFEF" transform="translate(206,50)"/>
<path d="M0 0 C0.66 0 1.32 0 2 0 C1.56615128 5.42310905 0.35497322 8.70144056 -3 13 C-3.33 13 -3.66 13 -4 13 C-3.56826373 7.90551202 -3.24599784 4.15487723 0 0 Z " fill="#151515" transform="translate(212,37)"/>
<path d="M0 0 C0.99 0 1.98 0 3 0 C2.66009167 5.37992836 2.31442207 9.53273547 -1 14 C-2 12 -2 12 -1.44140625 9.8359375 C-1.15136719 9.02382813 -0.86132812 8.21171875 -0.5625 7.375 C-0.27503906 6.55773438 0.01242188 5.74046875 0.30859375 4.8984375 C0.53675781 4.27195312 0.76492187 3.64546875 1 3 C0.01 2.67 -0.98 2.34 -2 2 C-1.34 1.34 -0.68 0.68 0 0 Z " fill="#DADADA" transform="translate(213,34)"/>
<path d="M0 0 C2.31 0 4.62 0 7 0 C6.67 1.32 6.34 2.64 6 4 C3.69 4 1.38 4 -1 4 C-0.67 2.68 -0.34 1.36 0 0 Z " fill="#DEDEDE" transform="translate(198,33)"/>
<path d="M0 0 C0.33 0.66 0.66 1.32 1 2 C1.66 2 2.32 2 3 2 C1.79618552 4.49361571 0.54571278 6.68143083 -1 9 C-1.66 9 -2.32 9 -3 9 C-2.01 6.03 -1.02 3.06 0 0 Z " fill="#5E5E5E" transform="translate(152,44)"/>
<path d="M0 0 C1 3 1 3 0.22265625 5.04296875 C-0.16019531 5.75066406 -0.54304687 6.45835938 -0.9375 7.1875 C-1.31777344 7.90292969 -1.69804687 8.61835937 -2.08984375 9.35546875 C-2.54037109 10.16951172 -2.54037109 10.16951172 -3 11 C-3.99 11 -4.98 11 -6 11 C-4.54955729 6.89041233 -2.48889248 3.56741255 0 0 Z " fill="#C2C2C2" transform="translate(202,37)"/>
<path d="M0 0 C-1.13499394 3.29148243 -1.99283376 3.9959869 -5.125 5.75 C-6.548125 6.36875 -6.548125 6.36875 -8 7 C-6.47663111 3.31852519 -4.31953005 0 0 0 Z " fill="#3B3B3B" transform="translate(165,36)"/>
</svg>
