<?xml version="1.0" standalone="no"?>
<!DOCTYPE svg PUBLIC "-//W3C//DTD SVG 20010904//EN"
 "http://www.w3.org/TR/2001/REC-SVG-20010904/DTD/svg10.dtd">
<svg version="1.0" xmlns="http://www.w3.org/2000/svg"
 width="250.000000pt" height="96.000000pt" viewBox="0 0 250.000000 96.000000"
 preserveAspectRatio="xMidYMid meet">

<g transform="translate(0.000000,96.000000) scale(0.100000,-0.100000)"
fill="#000000" stroke="none">
<path d="M0 480 l0 -480 616 0 c338 0 613 3 611 7 -3 5 24 73 58 153 52 119
61 147 49 156 -24 20 -34 64 -34 160 l0 94 -35 0 c-38 0 -40 2 -25 31 6 11 21
19 35 19 22 0 25 5 25 33 0 26 6 36 25 45 36 16 35 17 35 -33 l0 -45 63 0 62
0 37 88 c21 48 38 91 38 95 0 4 -143 6 -317 5 l-318 -3 0 -280 c0 -248 2 -284
18 -312 22 -41 63 -53 190 -53 53 0 97 -4 97 -9 0 -5 -13 -39 -30 -75 l-29
-66 -121 0 c-86 0 -131 4 -158 15 -80 34 -121 100 -129 210 -5 63 -8 72 -24
68 -35 -10 -89 17 -106 53 -15 31 -15 37 0 68 13 28 25 37 59 47 24 6 49 13
56 15 18 5 16 84 -3 84 -17 0 -55 -35 -55 -50 0 -5 -14 -10 -31 -10 -27 0 -30
3 -24 23 10 35 61 77 95 77 l30 0 0 170 0 170 445 0 c323 0 451 -3 470 -12 30
-13 55 -55 55 -90 0 -13 -43 -124 -95 -247 -52 -122 -93 -226 -90 -230 2 -4
-7 -24 -20 -43 -26 -38 -78 -149 -72 -154 5 -5 256 342 274 377 8 17 12 33 9
36 -10 10 -39 -22 -112 -122 -37 -52 -70 -92 -72 -90 -7 6 157 223 174 229 9
3 24 6 33 6 11 0 52 47 109 124 51 68 108 138 129 156 37 33 101 65 110 56 9
-9 -38 -66 -68 -81 -29 -15 -136 -143 -222 -265 -46 -66 -135 -256 -124 -266
3 -3 15 0 27 6 15 8 20 8 16 1 -11 -17 -65 -43 -77 -35 -6 3 -13 14 -17 25 -7
18 -60 -48 -225 -278 l-39 -53 561 0 561 0 0 480 0 480 -1250 0 -1250 0 0
-480z m241 111 c20 -16 25 -32 30 -102 4 -46 8 -108 8 -136 1 -50 0 -53 -24
-53 -20 0 -25 5 -25 25 l0 26 -31 -23 c-69 -51 -169 -15 -169 62 0 54 32 80
119 93 78 13 90 28 51 67 -33 33 -85 24 -101 -16 -6 -17 -16 -24 -34 -24 -35
0 -33 33 4 71 26 26 37 29 89 29 44 0 66 -5 83 -19z m164 -96 c26 -63 48 -115
50 -115 1 0 24 52 50 115 44 108 49 115 75 115 l28 0 -55 -132 c-30 -73 -59
-143 -64 -156 -7 -18 -15 -23 -36 -20 -24 3 -32 17 -89 156 l-63 152 28 0 c26
0 31 -7 76 -115z m595 94 l0 -20 26 20 c39 31 107 29 139 -4 24 -23 25 -29 25
-155 l0 -130 -25 0 -25 0 0 113 c0 122 -6 141 -51 152 -19 5 -34 0 -55 -18
-28 -25 -29 -28 -32 -136 -4 -110 -4 -111 -28 -111 l-24 0 0 155 0 155 25 0
c19 0 25 -5 25 -21z m949 -6 c-40 -34 -89 -140 -96 -209 -5 -47 -4 -52 17 -59
34 -11 70 22 109 99 38 73 56 186 31 186 -8 0 -11 3 -8 6 14 13 48 -19 58 -54
24 -77 -60 -220 -141 -242 -43 -12 -91 5 -103 35 -33 86 67 265 147 265 15 0
12 -6 -14 -27z m239 -60 c-64 -137 -63 -196 5 -180 17 5 25 18 34 58 24 98 88
209 121 209 36 0 10 -105 -44 -176 -37 -48 -41 -63 -22 -82 32 -32 93 10 134
93 23 48 25 62 19 111 -6 51 -5 55 12 52 15 -3 18 -12 16 -50 -3 -92 -88 -225
-159 -248 -32 -11 -39 -10 -64 8 -23 18 -30 19 -46 8 -36 -24 -70 -27 -95 -7
-21 17 -22 21 -11 58 7 22 34 75 62 117 l50 76 -35 0 c-38 0 -38 0 -29 24 4
11 19 16 49 16 l44 0 -41 -87z"/>
<path d="M146 440 c-43 -8 -68 -33 -59 -58 23 -61 133 -25 133 43 0 27 -6 28
-74 15z"/>
<path d="M2292 533 c-11 -21 -23 -60 -27 -87 -6 -44 -5 -49 9 -37 20 17 54 89
58 125 5 43 -18 43 -40 -1z"/>
<path d="M1360 470 c0 -55 4 -100 9 -100 6 0 41 73 88 188 4 9 -9 12 -46 12
l-51 0 0 -100z"/>
<path d="M702 424 c-40 -28 -22 -74 30 -74 27 0 28 2 28 45 0 50 -16 58 -58
29z"/>
</g>
</svg>
