<?xml version="1.0" encoding="UTF-8"?>
<svg version="1.1" xmlns="http://www.w3.org/2000/svg" width="250" height="150">
<path d="M0 0 C1.32 0 2.64 0 4 0 C4 1.32 4 2.64 4 4 C4.66 2.68 5.32 1.36 6 0 C6 0.66 6 1.32 6 2 C7.41702513 1.85769192 8.8336096 1.71099254 10.25 1.5625 C11.03890625 1.48128906 11.8278125 1.40007813 12.640625 1.31640625 C14.82364639 1.02365007 16.8773182 0.57935581 19 0 C19 1.32 19 2.64 19 4 C21.97 4 24.94 4 28 4 C28 8.29 28 12.58 28 17 C26.68 17 25.36 17 24 17 C24 14.03 24 11.06 24 8 C23.67 8 23.34 8 23 8 C23 10.97 23 13.94 23 17 C20 17 17 17 14 17 C14.01160156 16.36191406 14.02320313 15.72382812 14.03515625 15.06640625 C14.04417969 14.24011719 14.05320313 13.41382812 14.0625 12.5625 C14.07410156 11.73878906 14.08570313 10.91507813 14.09765625 10.06640625 C14.23267348 8.00836062 14.23267348 8.00836062 13 7 C13 10.3 13 13.6 13 17 C11.68 17 10.36 17 9 17 C9 13.7 9 10.4 9 7 C7.35 7 5.7 7 4 7 C4 9.31 4 11.62 4 14 C4.99 14 5.98 14 7 14 C7 14.99 7 15.98 7 17 C5.00045254 17.04254356 2.99958364 17.04080783 1 17 C0 16 0 16 -0.09765625 13.93359375 C-0.08025391 12.69802734 -0.08025391 12.69802734 -0.0625 11.4375 C-0.05347656 10.61121094 -0.04445312 9.78492188 -0.03515625 8.93359375 C-0.02355469 8.29550781 -0.01195312 7.65742187 0 7 C-0.66 7 -1.32 7 -2 7 C-2 6.01 -2 5.02 -2 4 C-1.34 4 -0.68 4 0 4 C0 2.68 0 1.36 0 0 Z M21 9 C22 12 22 12 22 12 Z " fill="#171419" transform="translate(132,53)"/>
<path d="M0 0 C2.75329021 1.79562405 4.52627461 3.05254922 6 6 C6.3724496 9.94796574 6.34935635 12.33040033 4.5 15.875 C1.1468501 18.72517741 -1.64227735 19.30322126 -6 19 C-8.90208571 17.80131242 -10.40814148 16.72637182 -12.375 14.3125 C-13.34637358 10.71841776 -13.1124099 7.54807864 -12 4 C-8.4382995 -0.19023589 -5.36235215 -0.76605031 0 0 Z " fill="#94D5E8" transform="translate(62,51)"/>
<path d="M0 0 C3.20778162 2.19479795 3.89134076 3.63327506 5 7.375 C5 11.83668484 3.81998243 13.61602108 1 17 C-2.23176757 18.61588379 -5.50615283 18.57451407 -9 18 C-11.97717008 16.01521994 -13.62826444 14.63168881 -14.44140625 11.0625 C-14.66451615 7.2624346 -14.21917673 5.35521746 -12.1875 2.0625 C-8.23297568 -1.6660515 -5.07693841 -1.15789823 0 0 Z " fill="#009DCB" transform="translate(14,77)"/>
<path d="M0 0 C3.4375 2 3.4375 2 6 5 C6.74640732 7.82609184 6.68717509 10.16540277 6 13 C4.20636089 15.8100346 2.98119065 17.50940468 0 19 C-4.1191283 19.56169931 -5.73293198 19.16628763 -9.3125 16.9375 C-12.51029941 13.44223087 -13.08397702 11.70271287 -13 7 C-10.23185159 0.77166607 -6.67344719 -0.79176492 0 0 Z " fill="#23BBDA" transform="translate(37,51)"/>
<path d="M0 0 C3.60549148 2.66492848 4.84539972 4.03804272 5.5625 8.5 C4.91877781 12.50538252 3.84054174 14.15945826 1 17 C-2.10048928 18.55024464 -4.57894218 18.28992015 -8 18 C-10.75329021 16.20437595 -12.52627461 14.94745078 -14 12 C-14.25225938 8.13202291 -14.39446566 5.1563411 -12 2 C-7.71214737 -0.82608469 -4.91577196 -1.67345428 0 0 Z " fill="#94D5E8" transform="translate(63,77)"/>
<path d="M0 0 C2.51666056 2.12948202 3.71851452 3.6855159 4.4140625 6.93359375 C4.69682873 10.86999737 4.23298334 12.65052498 2 16 C-1.33171835 18.22114557 -3.14102856 18.75150845 -7.06640625 18.484375 C-10.50163404 17.62383309 -11.98605167 15.80732192 -14 13 C-15.19095575 9.42713275 -15.33245458 7.79419705 -13.875 4.3125 C-9.75818991 -0.76489911 -6.34164872 -1.84484326 0 0 Z " fill="#24BADA" transform="translate(39,77)"/>
<path d="M0 0 C3.22620643 0.92177327 3.93512623 1.90157083 5.8125 4.75 C7.20221782 8.55343825 7.37593491 10.19594467 6 14 C3.11123215 17.09030979 1.16792934 18.75668139 -3 19.625 C-6.97264445 18.79736574 -9.72305606 17.35345825 -12 14 C-12.86651581 10.80544504 -12.86651581 8.19455496 -12 5 C-9.01848714 0.60886031 -5.18517099 -0.78904776 0 0 Z " fill="#009CCB" transform="translate(12,51)"/>
<path d="M0 0 C3.65520099 2.34484592 5.60066741 3.8724727 7.0625 8 C6.96922967 12.47697606 5.28665838 14.71334162 2.1875 17.8125 C-0.8527265 19.46290867 -2.57949832 19.54728027 -6 19 C-9.55956846 16.95654403 -11.50243928 15.83434051 -12.5859375 11.83984375 C-12.81662528 8.5497966 -12.73764431 6.08639451 -10.8515625 3.30859375 C-7.42441814 0.12624542 -4.52840993 -0.94341874 0 0 Z " fill="#009CCB" transform="translate(12,26)"/>
<path d="M0 0 C7 0 7 0 9.40234375 1.125 C11.64400167 3.75579658 11.56669113 5.58003845 11.5625 9 C11.58441406 10.051875 11.60632813 11.10375 11.62890625 12.1875 C11 15 11 15 8.83984375 16.875 C6 18 6 18 0 18 C0 12.06 0 6.12 0 0 Z M3 4 C4.98 4.99 4.98 4.99 7 6 C7 5.34 7 4.68 7 4 C5.68 4 4.36 4 3 4 Z M3 10 C3 11.32 3 12.64 3 14 C4.32 14 5.64 14 7 14 C6.67 13.01 6.34 12.02 6 11 C6 11.66 6 12.32 6 13 C5.34 13 4.68 13 4 13 C4.33 12.01 4.66 11.02 5 10 C4.34 10 3.68 10 3 10 Z " fill="#19161A" transform="translate(79,76)"/>
<path d="M0 0 C1.98 0 3.96 0 6 0 C6.33 1.65 6.66 3.3 7 5 C7.78375 4.938125 8.5675 4.87625 9.375 4.8125 C10.674375 4.9053125 10.674375 4.9053125 12 5 C14.32579101 8.48868651 14.41865457 9.89718519 14 14 C13 16.375 13 16.375 11 18 C8.20206354 18.39890259 5.85723823 18.23042244 3 18 C1.27511693 16.27511693 1.58918367 13.91546061 1.375 11.5625 C1.27960938 10.57378906 1.18421875 9.58507812 1.0859375 8.56640625 C1 6 1 6 2 4 C1.34 3.67 0.68 3.34 0 3 C0 2.01 0 1.02 0 0 Z M8 8 C5.71271266 9.83883881 5.71271266 9.83883881 5.875 12.625 C5.91625 13.40875 5.9575 14.1925 6 15 C7.32 14.67 8.64 14.34 10 14 C10 12.35 10 10.7 10 9 C9.34 8.67 8.68 8.34 8 8 Z " fill="#1B171B" transform="translate(197,52)"/>
<path d="M0 0 C1.98 0 3.96 0 6 0 C6.33 2.31 6.66 4.62 7 7 C7.66 6.34 8.32 5.68 9 5 C10.32 5 11.64 5 13 5 C12.67 5.5775 12.34 6.155 12 6.75 C10.5325267 10.05181492 10.78311219 12.40355853 12 15.75 C12.33 16.4925 12.66 17.235 13 18 C10.5625 17.625 10.5625 17.625 8 17 C7.67 16.34 7.34 15.68 7 15 C6.67 15.99 6.34 16.98 6 18 C4.68 18 3.36 18 2 18 C1.67 14.37 1.34 10.74 1 7 C0.67 7 0.34 7 0 7 C0 4.69 0 2.38 0 0 Z " fill="#19161A" transform="translate(237,52)"/>
<path d="M0 0 C3.96 0 7.92 0 12 0 C13.92572521 3.85145043 13.04883218 8.80043252 13 13 C9.37 13 5.74 13 2 13 C2 9.7 2 6.4 2 3 C1.34 3 0.68 3 0 3 C0 2.01 0 1.02 0 0 Z " fill="#181419" transform="translate(174,57)"/>
<path d="M0 0 C1.60875 0.020625 3.2175 0.04125 4.875 0.0625 C4.545 3.3625 4.215 6.6625 3.875 10.0625 C4.535 8.0825 5.195 6.1025 5.875 4.0625 C6.205 4.0625 6.535 4.0625 6.875 4.0625 C7 10.8125 7 10.8125 5.875 13.0625 C4.06257948 13.08937279 2.25004767 13.10883715 0.4375 13.125 C-0.57183594 13.13660156 -1.58117187 13.14820312 -2.62109375 13.16015625 C-5.125 13.0625 -5.125 13.0625 -6.125 12.0625 C-6.16563832 10.39632885 -6.167721 8.72861905 -6.125 7.0625 C-4.145 6.0725 -2.165 5.0825 -0.125 4.0625 C-0.90875 4.083125 -1.6925 4.10375 -2.5 4.125 C-5.125 4.0625 -5.125 4.0625 -7.125 3.0625 C-7.125 2.4025 -7.125 1.7425 -7.125 1.0625 C-4.60024538 -0.19987731 -2.81299534 -0.03606404 0 0 Z M-2.125 8.0625 C-2.455 8.7225 -2.785 9.3825 -3.125 10.0625 C-2.135 10.0625 -1.145 10.0625 -0.125 10.0625 C-0.125 9.4025 -0.125 8.7425 -0.125 8.0625 C-0.785 8.0625 -1.445 8.0625 -2.125 8.0625 Z " fill="#171419" transform="translate(218.125,56.9375)"/>
<path d="M0 0 C9.27734375 -0.09765625 9.27734375 -0.09765625 12 0 C13 1 13 1 13.09765625 3.72265625 C13.08605469 4.82480469 13.07445313 5.92695312 13.0625 7.0625 C13.05347656 8.16722656 13.04445313 9.27195312 13.03515625 10.41015625 C13.02355469 11.26480469 13.01195313 12.11945313 13 13 C12.01 13 11.02 13 10 13 C9.67 10.03 9.34 7.06 9 4 C8.01 4.495 8.01 4.495 7 5 C6.53476937 6.89533342 6.53476937 6.89533342 6.375 9.0625 C6.189375 11.0115625 6.189375 11.0115625 6 13 C3.03 12.505 3.03 12.505 0 12 C0 8.04 0 4.08 0 0 Z " fill="#181519" transform="translate(83,57)"/>
<path d="M0 0 C1.79133978 -0.05391993 3.58313899 -0.09275571 5.375 -0.125 C6.37273437 -0.14820313 7.37046875 -0.17140625 8.3984375 -0.1953125 C11 0 11 0 13 2 C13.1953125 4.6015625 13.1953125 4.6015625 13.125 7.625 C13.10695312 8.62789062 13.08890625 9.63078125 13.0703125 10.6640625 C13.03550781 11.82035156 13.03550781 11.82035156 13 13 C11.68 13 10.36 13 9 13 C9 9.7 9 6.4 9 3 C8.01 3.495 8.01 3.495 7 4 C6.53348793 6.12576782 6.53348793 6.12576782 6.375 8.5625 C6.30023438 9.38878906 6.22546875 10.21507813 6.1484375 11.06640625 C6.09945312 11.70449219 6.05046875 12.34257813 6 13 C4.68 13 3.36 13 2 13 C2 9.7 2 6.4 2 3 C1.34 3 0.68 3 0 3 C0 2.01 0 1.02 0 0 Z " fill="#1A171B" transform="translate(224,57)"/>
<path d="M0 0 C3.125 0.25 3.125 0.25 5 1.375 C6.66077671 4.14296119 6.51305206 6.08090818 6.125 9.25 C4.92578125 11.42578125 4.92578125 11.42578125 3.125 13.25 C0.64453125 13.640625 0.64453125 13.640625 -2.0625 13.5 C-2.96355469 13.46390625 -3.86460937 13.4278125 -4.79296875 13.390625 C-5.48003906 13.34421875 -6.16710937 13.2978125 -6.875 13.25 C-7.17043354 8.22762985 -6.88179573 5.3392422 -3.875 1.25 C-2.875 0.25 -2.875 0.25 0 0 Z M-0.875 3.25 C-2.17133621 4.31645115 -2.17133621 4.31645115 -1.9375 6.8125 C-1.916875 7.616875 -1.89625 8.42125 -1.875 9.25 C-0.555 9.25 0.765 9.25 2.125 9.25 C2.125 7.6 2.125 5.95 2.125 4.25 C1.135 3.92 0.145 3.59 -0.875 3.25 Z " fill="#19171A" transform="translate(167.875,56.75)"/>
<path d="M0 0 C1.00496852 3.01490557 1.10335303 5.04181692 1.0625 8.1875 C1.05347656 9.08855469 1.04445312 9.98960938 1.03515625 10.91796875 C1.02355469 11.60503906 1.01195312 12.29210937 1 13 C-0.32 13 -1.64 13 -3 13 C-3 9.7 -3 6.4 -3 3 C-3.99 3 -4.98 3 -6 3 C-6.33 6.3 -6.66 9.6 -7 13 C-7.99 13 -8.98 13 -10 13 C-10 9.7 -10 6.4 -10 3 C-10.99 2.67 -11.98 2.34 -13 2 C-13 1.34 -13 0.68 -13 0 C-8.70336653 -1.01097258 -4.08261196 -2.04130598 0 0 Z " fill="#19161A" transform="translate(137,81)"/>
<path d="M0 0 C1.36125 0.37125 1.36125 0.37125 2.75 0.75 C3.08 3.06 3.41 5.37 3.75 7.75 C1.44 7.75 -0.87 7.75 -3.25 7.75 C-3.25 8.41 -3.25 9.07 -3.25 9.75 C-0.94 9.75 1.37 9.75 3.75 9.75 C3.75 10.74 3.75 11.73 3.75 12.75 C0.5 13.5 0.5 13.5 -3.25 13.75 C-5.6875 12.1875 -5.6875 12.1875 -7.25 9.75 C-7.86564756 6.05611466 -7.71062609 4.44093913 -5.625 1.3125 C-3.25 -0.25 -3.25 -0.25 0 0 Z " fill="#19161A" transform="translate(98.25,80.25)"/>
<path d="M0 0 C1.65 0 3.3 0 5 0 C7 3.75 7 3.75 7 6 C7.66 5.01 8.32 4.02 9 3 C10.65 3.33 12.3 3.66 14 4 C14.625 6.3125 14.625 6.3125 15 9 C14.01 10.485 14.01 10.485 13 12 C12.21625 11.835 11.4325 11.67 10.625 11.5 C6.83631154 10.77834505 3.7875989 11.34128715 0 12 C0 8.04 0 4.08 0 0 Z M2 2 C2 2.99 2 3.98 2 5 C2.66 5 3.32 5 4 5 C4 4.01 4 3.02 4 2 C3.34 2 2.68 2 2 2 Z M2 7 C2.33 7.99 2.66 8.98 3 10 C3.66 9.34 4.32 8.68 5 8 C4.01 7.67 3.02 7.34 2 7 Z " fill="#009CCB" transform="translate(161,108)"/>
<path d="M0 0 C2 2 2 2 2.125 4.625 C2.08375 5.40875 2.0425 6.1925 2 7 C-0.31 7 -2.62 7 -5 7 C-4.67 7.66 -4.34 8.32 -4 9 C-2.02 9 -0.04 9 2 9 C2 10.32 2 11.64 2 13 C-5.32215357 13.36010591 -5.32215357 13.36010591 -8 11.9375 C-9.58433618 8.86784865 -9.36248449 6.38318857 -9 3 C-6.8388936 -0.72190547 -4.01418597 -0.42704106 0 0 Z " fill="#1B171C" transform="translate(118,57)"/>
<path d="M0 0 C1.9375 0.25 1.9375 0.25 4 1 C4.66 1.99 5.32 2.98 6 4 C7.65 3.67 9.3 3.34 11 3 C11.33 4.65 11.66 6.3 12 8 C11.01 8.33 10.02 8.66 9 9 C9.99 9 10.98 9 12 9 C11.67 9.99 11.34 10.98 11 12 C7.37 12 3.74 12 0 12 C-1.1898306 9.6203388 -1.13349966 8.08514265 -1.125 5.4375 C-1.12886719 4.22900391 -1.12886719 4.22900391 -1.1328125 2.99609375 C-1 1 -1 1 0 0 Z M4 5 C5 9 5 9 5 9 Z " fill="#0098C4" transform="translate(79,108)"/>
<path d="M0 0 C1.32 0 2.64 0 4 0 C4.66 1.65 5.32 3.3 6 5 C6.66 3.35 7.32 1.7 8 0 C9.32 0 10.64 0 12 0 C11.814375 1.2375 11.62875 2.475 11.4375 3.75 C11.05288777 6.76279577 10.9125406 9.10010827 12 12 C11.01 11.67 10.02 11.34 9 11 C8.67 11.66 8.34 12.32 8 13 C6.68 13 5.36 13 4 13 C3.32694982 11.39850114 2.66177773 9.79368971 2 8.1875 C1.62875 7.29417969 1.2575 6.40085937 0.875 5.48046875 C0 3 0 3 0 0 Z " fill="#19161A" transform="translate(97,57)"/>
<path d="M0 0 C0.66 0 1.32 0 2 0 C2 0.99 2 1.98 2 3 C3.98 3 5.96 3 8 3 C8.33 4.98 8.66 6.96 9 9 C9.33 7.02 9.66 5.04 10 3 C10.99 3 11.98 3 13 3 C13 5.97 13 8.94 13 12 C10.125 12.1875 10.125 12.1875 7 12 C5 9 5 9 5 5 C4.01 5 3.02 5 2 5 C2 6.32 2 7.64 2 9 C2.99 9.33 3.98 9.66 5 10 C4.67 10.66 4.34 11.32 4 12 C2.68 11.67 1.36 11.34 0 11 C-1.125 3.375 -1.125 3.375 0 0 Z " fill="#009FCA" transform="translate(103,108)"/>
<path d="M0 0 C0.94875 0.04125 1.8975 0.0825 2.875 0.125 C2.875 1.115 2.875 2.105 2.875 3.125 C1.555 3.125 0.235 3.125 -1.125 3.125 C-1.125 3.785 -1.125 4.445 -1.125 5.125 C0.195 4.795 1.515 4.465 2.875 4.125 C3.5 7.5 3.5 7.5 3.875 11.125 C1.875 13.125 1.875 13.125 -1.75 13.25 C-2.86375 13.20875 -3.9775 13.1675 -5.125 13.125 C-5.125 12.135 -5.125 11.145 -5.125 10.125 C-3.475 10.125 -1.825 10.125 -0.125 10.125 C-0.125 9.465 -0.125 8.805 -0.125 8.125 C-1.445 8.455 -2.765 8.785 -4.125 9.125 C-4.75 5.75 -4.75 5.75 -5.125 2.125 C-3.125 0.125 -3.125 0.125 0 0 Z " fill="#19171A" transform="translate(126.125,56.875)"/>
<path d="M0 0 C0.598125 0.20625 1.19625 0.4125 1.8125 0.625 C1.4825 1.285 1.1525 1.945 0.8125 2.625 C1.4725 2.955 2.1325 3.285 2.8125 3.625 C3.4375 6.6875 3.4375 6.6875 3.8125 9.625 C4.1425 9.625 4.4725 9.625 4.8125 9.625 C5.1425 7.645 5.4725 5.665 5.8125 3.625 C6.4725 3.625 7.1325 3.625 7.8125 3.625 C7.8125 6.595 7.8125 9.565 7.8125 12.625 C5.5025 12.295 3.1925 11.965 0.8125 11.625 C0.4825 9.645 0.1525 7.665 -0.1875 5.625 C-0.8475 5.625 -1.5075 5.625 -2.1875 5.625 C-2.1875 7.935 -2.1875 10.245 -2.1875 12.625 C-2.8475 12.625 -3.5075 12.625 -4.1875 12.625 C-4.1875 10.315 -4.1875 8.005 -4.1875 5.625 C-4.8475 5.625 -5.5075 5.625 -6.1875 5.625 C-5.875 3.75 -5.875 3.75 -5.1875 1.625 C-2.1875 -0.375 -2.1875 -0.375 0 0 Z " fill="#009FCB" transform="translate(142.1875,107.375)"/>
<path d="M0 0 C1.4540625 0.0309375 1.4540625 0.0309375 2.9375 0.0625 C2.9375 1.0525 2.9375 2.0425 2.9375 3.0625 C1.6175 3.0625 0.2975 3.0625 -1.0625 3.0625 C-1.0625 3.7225 -1.0625 4.3825 -1.0625 5.0625 C0.2575 4.7325 1.5775 4.4025 2.9375 4.0625 C4.2635274 9.48715753 4.2635274 9.48715753 2.875 11.9375 C0.17849753 13.50321111 -2.00380459 13.26641303 -5.0625 13.0625 C-5.0625 12.0725 -5.0625 11.0825 -5.0625 10.0625 C-3.7425 9.7325 -2.4225 9.4025 -1.0625 9.0625 C-2.3825 8.0725 -3.7025 7.0825 -5.0625 6.0625 C-3.98897059 0.08140756 -3.98897059 0.08140756 0 0 Z " fill="#19161A" transform="translate(194.0625,56.9375)"/>
<path d="M0 0 C1.98 0 3.96 0 6 0 C6 6.27 6 12.54 6 19 C4.68 19 3.36 19 2 19 C2 13.72 2 8.44 2 3 C1.34 3 0.68 3 0 3 C0 2.01 0 1.02 0 0 Z " fill="#1A161A" transform="translate(111,75)"/>
<path d="M0 0 C1.670625 0.061875 1.670625 0.061875 3.375 0.125 C3.024375 1.011875 2.67375 1.89875 2.3125 2.8125 C1.35744398 6.18703126 1.40348868 7.82186152 2.375 11.125 C0.0625 12.25 0.0625 12.25 -2.625 13.125 C-3.615 12.465 -4.605 11.805 -5.625 11.125 C-5.98828125 9.03125 -5.98828125 9.03125 -5.9375 6.625 C-5.93363281 5.8309375 -5.92976563 5.036875 -5.92578125 4.21875 C-5.35410943 0.23932017 -3.81532899 0.13156307 0 0 Z M-2.625 2.125 C-2.295 2.785 -1.965 3.445 -1.625 4.125 C-0.965 4.125 -0.305 4.125 0.375 4.125 C0.375 3.465 0.375 2.805 0.375 2.125 C-0.615 2.125 -1.605 2.125 -2.625 2.125 Z M-3.625 9.125 C0.375 10.125 0.375 10.125 0.375 10.125 Z " fill="#009DCA" transform="translate(130.625,110.875)"/>
<path d="M0 0 C0 1.65 0 3.3 0 5 C-0.99 5 -1.98 5 -3 5 C-3.33 8.3 -3.66 11.6 -4 15 C-5.32 14.67 -6.64 14.34 -8 14 C-9.47033252 11.05933495 -9 8.25525674 -9 5 C-9.33 4.01 -9.66 3.02 -10 2 C-8.52112267 1.66538533 -7.04188942 1.33234333 -5.5625 1 C-4.32693359 0.7215625 -4.32693359 0.7215625 -3.06640625 0.4375 C-1 0 -1 0 0 0 Z " fill="#18151A" transform="translate(112,79)"/>
<path d="M0 0 C1.65 0 3.3 0 5 0 C5 4.29 5 8.58 5 13 C3.68 13 2.36 13 1 13 C1.01160156 12.39671875 1.02320313 11.7934375 1.03515625 11.171875 C1.04417969 10.37265625 1.05320313 9.5734375 1.0625 8.75 C1.07410156 7.96109375 1.08570313 7.1721875 1.09765625 6.359375 C1.00385306 4.09308998 0.63241063 2.1711105 0 0 Z " fill="#19171A" transform="translate(155,57)"/>
<path d="M0 0 C2.31 0 4.62 0 7 0 C7 2.97 7 5.94 7 9 C6.34 9 5.68 9 5 9 C5 6.69 5 4.38 5 2 C3.70366379 3.06645115 3.70366379 3.06645115 3.9375 5.5625 C3.958125 6.366875 3.97875 7.17125 4 8 C2.68 8.33 1.36 8.66 0 9 C0 6.03 0 3.06 0 0 Z " fill="#009DD1" transform="translate(117,111)"/>
<path d="M0 0 C0.99 0 1.98 0 3 0 C3 5.61 3 11.22 3 17 C2.01 17 1.02 17 0 17 C0 11.39 0 5.78 0 0 Z " fill="#1A171B" transform="translate(79,53)"/>
<path d="M0 0 C1.65 0 3.3 0 5 0 C5 4.29 5 8.58 5 13 C4.01 13 3.02 13 2 13 C2 9.7 2 6.4 2 3 C1.34 3 0.68 3 0 3 C0 2.01 0 1.02 0 0 Z " fill="#1A171B" transform="translate(118,81)"/>
<path d="M0 0 C1.99954746 -0.04254356 4.00041636 -0.04080783 6 0 C7 1 7 1 7.09765625 2.84765625 C7.06510417 4.8984375 7.03255208 6.94921875 7 9 C6.34 9 5.68 9 5 9 C5 6.69 5 4.38 5 2 C4.01 2.495 4.01 2.495 3 3 C2.34227572 6.02934491 2.34227572 6.02934491 2 9 C1.34 9 0.68 9 0 9 C0 6.03 0 3.06 0 0 Z " fill="#009CCA" transform="translate(190,111)"/>
<path d="M0 0 C0.99 0 1.98 0 3 0 C3 3.96 3 7.92 3 12 C2.01 12 1.02 12 0 12 C0 8.04 0 4.08 0 0 Z " fill="#0099CA" transform="translate(92,108)"/>
<path d="M0 0 C1.32 0 2.64 0 4 0 C4 2.66666667 4 5.33333333 4 8 C2.35 8.33 0.7 8.66 -1 9 C-1 6 -1 6 0 5 C-0.165 4.34 -0.33 3.68 -0.5 3 C-0.665 2.34 -0.83 1.68 -1 1 C-0.67 0.67 -0.34 0.34 0 0 Z " fill="#0097C4" transform="translate(97,111)"/>
<path d="M0 0 C0.66 0 1.32 0 2 0 C2 4.29 2 8.58 2 13 C1.34 13 0.68 13 0 13 C0 8.71 0 4.42 0 0 Z " fill="#009BC9" transform="translate(182,107)"/>
<path d="M0 0 C0.66 0 1.32 0 2 0 C2 3.96 2 7.92 2 12 C1.34 12 0.68 12 0 12 C0 8.04 0 4.08 0 0 Z " fill="#009BC9" transform="translate(186,108)"/>
<path d="M0 0 C1.65 0 3.3 0 5 0 C5 0.66 5 1.32 5 2 C4.01 2 3.02 2 2 2 C2 4.31 2 6.62 2 9 C1.34 9 0.68 9 0 9 C0 6.03 0 3.06 0 0 Z " fill="#009CCA" transform="translate(152,111)"/>
<path d="M0 0 C1.32 0 2.64 0 4 0 C4 0.66 4 1.32 4 2 C3.34 2 2.68 2 2 2 C2 4.31 2 6.62 2 9 C1.34 9 0.68 9 0 9 C0 6.03 0 3.06 0 0 Z " fill="#009BCA" transform="translate(177,111)"/>
<path d="M0 0 C0.66 0 1.32 0 2 0 C2 2.64 2 5.28 2 8 C1.01 8 0.02 8 -1 8 C-1.04241723 5.66705225 -1.04092937 3.33297433 -1 1 C-0.67 0.67 -0.34 0.34 0 0 Z " fill="#020202" transform="translate(110,85)"/>
<path d="M0 0 C0.33 0 0.66 0 1 0 C1 5.28 1 10.56 1 16 C0.67 16 0.34 16 0 16 C0 10.72 0 5.44 0 0 Z " fill="#000000" transform="translate(77,77)"/>
<path d="M0 0 C1.41377341 2.63904371 2.37240135 5.07120629 3 8 C2.01 8 1.02 8 0 8 C0 5.36 0 2.72 0 0 Z " fill="#0087AC" transform="translate(198,112)"/>
<path d="M0 0 C0.33 0 0.66 0 1 0 C1 2.64 1 5.28 1 8 C0.34 8 -0.32 8 -1 8 C-1.04241723 5.66705225 -1.04092937 3.33297433 -1 1 C-0.67 0.67 -0.34 0.34 0 0 Z " fill="#020002" transform="translate(132,85)"/>
<path d="M0 0 C0.33 0 0.66 0 1 0 C1 4.95 1 9.9 1 15 C0.67 15 0.34 15 0 15 C0 10.05 0 5.1 0 0 Z " fill="#000000" transform="translate(77,54)"/>
<path d="M0 0 C0.99 0 1.98 0 3 0 C3 1.98 3 3.96 3 6 C2.01 5.67 1.02 5.34 0 5 C0 3.35 0 1.7 0 0 Z M1 1 C2 4 2 4 2 4 Z " fill="#040404" transform="translate(137,61)"/>
<path d="M0 0 C0.33 0.99 0.66 1.98 1 3 C2.65 3 4.3 3 6 3 C4 4 2 5 0 6 C0 4.02 0 2.04 0 0 Z " fill="#000000" transform="translate(244,52)"/>
<path d="M0 0 C0.66 0.66 1.32 1.32 2 2 C2.99 2 3.98 2 5 2 C5 2.66 5 3.32 5 4 C3.35 4 1.7 4 0 4 C0 2.68 0 1.36 0 0 Z " fill="#000000" transform="translate(118,76)"/>
<path d="M0 0 C2.64 0 5.28 0 8 0 C5 2 5 2 2.3125 1.625 C1.1678125 1.315625 1.1678125 1.315625 0 1 C0 0.67 0 0.34 0 0 Z " fill="#009DAC" transform="translate(5,96)"/>
<path d="M0 0 C1.125 1.75 1.125 1.75 2 4 C1.125 6.25 1.125 6.25 0 8 C0 5.36 0 2.72 0 0 Z " fill="#040404" transform="translate(97,62)"/>
<path d="M0 0 C0.66 0 1.32 0 2 0 C2 1.65 2 3.3 2 5 C1.34 5 0.68 5 0 5 C0 3.35 0 1.7 0 0 Z " fill="#0B0611" transform="translate(167,61)"/>
<path d="M0 0 C2.64 0 5.28 0 8 0 C6.25 1.125 6.25 1.125 4 2 C1.75 1.125 1.75 1.125 0 0 Z " fill="#13B1C5" transform="translate(30,96)"/>
<path d="M0 0 C0.33 0 0.66 0 1 0 C1 2.97 1 5.94 1 9 C0.67 9 0.34 9 0 9 C0 6.03 0 3.06 0 0 Z " fill="#000000" transform="translate(139,84)"/>
<path d="M0 0 C0.33 0 0.66 0 1 0 C1 2.97 1 5.94 1 9 C0.67 9 0.34 9 0 9 C0 6.03 0 3.06 0 0 Z " fill="#040404" transform="translate(231,61)"/>
<path d="M0 0 C0.33 0 0.66 0 1 0 C1 1.65 1 3.3 1 5 C0.34 5 -0.32 5 -1 5 C-0.67 3.35 -0.34 1.7 0 0 Z " fill="#06060C" transform="translate(205,61)"/>
<path d="M0 0 C2.31 0 4.62 0 7 0 C5.02 0.99 5.02 0.99 3 2 C2.01 1.34 1.02 0.68 0 0 Z " fill="#75BEEE" transform="translate(55,96)"/>
<path d="M0 0 C0.33 0 0.66 0 1 0 C1 2.64 1 5.28 1 8 C0.67 8 0.34 8 0 8 C0 5.36 0 2.72 0 0 Z " fill="#000000" transform="translate(118,85)"/>
<path d="M0 0 C2.64 0 5.28 0 8 0 C8 0.33 8 0.66 8 1 C5.36 1 2.72 1 0 1 C0 0.67 0 0.34 0 0 Z " fill="#000006" transform="translate(200,71)"/>
<path d="M0 0 C0.33 0 0.66 0 1 0 C1 2.64 1 5.28 1 8 C0.67 8 0.34 8 0 8 C0 5.36 0 2.72 0 0 Z " fill="#000000" transform="translate(90,62)"/>
<path d="M0 0 C0.33 0.99 0.66 1.98 1 3 C3.01508358 3.73323796 3.01508358 3.73323796 5 4 C3.35 4 1.7 4 0 4 C0 2.68 0 1.36 0 0 Z " fill="#050505" transform="translate(204,52)"/>
<path d="M0 0 C1.98 0 3.96 0 6 0 C5.67 0.66 5.34 1.32 5 2 C3.35 1.67 1.7 1.34 0 1 C0 0.67 0 0.34 0 0 Z " fill="#007DC7" transform="translate(96,109)"/>
<path d="M0 0 C0.33 0 0.66 0 1 0 C1 2.31 1 4.62 1 7 C0.67 7 0.34 7 0 7 C0 4.69 0 2.38 0 0 Z " fill="#9EE3F5" transform="translate(69,82)"/>
<path d="M0 0 C2.31 0 4.62 0 7 0 C7 0.33 7 0.66 7 1 C4.69 1 2.38 1 0 1 C0 0.67 0 0.34 0 0 Z " fill="#000000" transform="translate(79,74)"/>
<path d="M0 0 C2.31 0 4.62 0 7 0 C7 0.33 7 0.66 7 1 C4.69 1 2.38 1 0 1 C0 0.67 0 0.34 0 0 Z " fill="#000000" transform="translate(164,71)"/>
<path d="M0 0 C2.31 0 4.62 0 7 0 C7 0.33 7 0.66 7 1 C4.69 1 2.38 1 0 1 C0 0.67 0 0.34 0 0 Z " fill="#000000" transform="translate(121,71)"/>
<path d="M0 0 C2.31 0 4.62 0 7 0 C7 0.33 7 0.66 7 1 C4.69 1 2.38 1 0 1 C0 0.67 0 0.34 0 0 Z " fill="#000000" transform="translate(112,71)"/>
<path d="M0 0 C0.33 0 0.66 0 1 0 C1 2.31 1 4.62 1 7 C0.67 7 0.34 7 0 7 C0 4.69 0 2.38 0 0 Z " fill="#98DAEC" transform="translate(69,57)"/>
<path d="M0 0 C2.31 0 4.62 0 7 0 C7 0.33 7 0.66 7 1 C4.69 1 2.38 1 0 1 C0 0.67 0 0.34 0 0 Z " fill="#000000" transform="translate(213,55)"/>
<path d="M0 0 C1.98 0.99 1.98 0.99 4 2 C3.67 2.66 3.34 3.32 3 4 C2.01 2.68 1.02 1.36 0 0 Z " fill="#006D91" transform="translate(39,51)"/>
<path d="M0 0 C2.31 0 4.62 0 7 0 C7 0.33 7 0.66 7 1 C4.69 1 2.38 1 0 1 C0 0.67 0 0.34 0 0 Z " fill="#94B0F2" transform="translate(55,49)"/>
<path d="M0 0 C2.475 0.495 2.475 0.495 5 1 C3.68 1.33 2.36 1.66 1 2 C0.67 1.34 0.34 0.68 0 0 Z " fill="#006ABF" transform="translate(85,120)"/>
<path d="M0 0 C0.33 0 0.66 0 1 0 C1 1.98 1 3.96 1 6 C0.67 6 0.34 6 0 6 C0 4.02 0 2.04 0 0 Z " fill="#007FD5" transform="translate(180,114)"/>
<path d="M0 0 C0.33 0 0.66 0 1 0 C1 1.98 1 3.96 1 6 C0.67 6 0.34 6 0 6 C0 4.02 0 2.04 0 0 Z " fill="#009FAA" transform="translate(146,110)"/>
<path d="M0 0 C1.98 0 3.96 0 6 0 C6 0.33 6 0.66 6 1 C4.02 1 2.04 1 0 1 C0 0.67 0 0.34 0 0 Z " fill="#0095BF" transform="translate(190,109)"/>
<path d="M0 0 C1.98 0 3.96 0 6 0 C6 0.33 6 0.66 6 1 C4.02 1 2.04 1 0 1 C0 0.67 0 0.34 0 0 Z " fill="#000000" transform="translate(79,95)"/>
<path d="M0 0 C0 0.66 0 1.32 0 2 C-1.32 1.67 -2.64 1.34 -4 1 C-2 0 -2 0 0 0 Z " fill="#000000" transform="translate(129,78)"/>
<path d="M0 0 C0 0.66 0 1.32 0 2 C-1.32 1.67 -2.64 1.34 -4 1 C-2 0 -2 0 0 0 Z " fill="#000000" transform="translate(107,78)"/>
<path d="M0 0 C1.98 0 3.96 0 6 0 C6 0.33 6 0.66 6 1 C4.02 1 2.04 1 0 1 C0 0.67 0 0.34 0 0 Z " fill="#000000" transform="translate(111,73)"/>
<path d="M0 0 C1.98 0 3.96 0 6 0 C6 0.33 6 0.66 6 1 C4.02 1 2.04 1 0 1 C0 0.67 0 0.34 0 0 Z " fill="#000000" transform="translate(189,71)"/>
<path d="M0 0 C1.98 0 3.96 0 6 0 C6 0.33 6 0.66 6 1 C4.02 1 2.04 1 0 1 C0 0.67 0 0.34 0 0 Z " fill="#000000" transform="translate(133,71)"/>
<path d="M0 0 C1.98 0 3.96 0 6 0 C6 0.33 6 0.66 6 1 C4.02 1 2.04 1 0 1 C0 0.67 0 0.34 0 0 Z " fill="#15B8C6" transform="translate(31,71)"/>
<path d="M0 0 C1.98 0 3.96 0 6 0 C6 0.33 6 0.66 6 1 C4.02 1 2.04 1 0 1 C0 0.67 0 0.34 0 0 Z " fill="#00B8CD" transform="translate(6,71)"/>
<path d="M0 0 C0.33 0.66 0.66 1.32 1 2 C1.66 2.33 2.32 2.66 3 3 C2.01 3.33 1.02 3.66 0 4 C0 2.68 0 1.36 0 0 Z " fill="#070707" transform="translate(188,63)"/>
<path d="M0 0 C1.98 0 3.96 0 6 0 C6 0.33 6 0.66 6 1 C4.02 1 2.04 1 0 1 C0 0.67 0 0.34 0 0 Z " fill="#000000" transform="translate(191,55)"/>
<path d="M0 0 C1.98 0 3.96 0 6 0 C6 0.33 6 0.66 6 1 C4.02 1 2.04 1 0 1 C0 0.67 0 0.34 0 0 Z " fill="#000000" transform="translate(180,55)"/>
<path d="M0 0 C1.98 0 3.96 0 6 0 C6 0.33 6 0.66 6 1 C4.02 1 2.04 1 0 1 C0 0.67 0 0.34 0 0 Z " fill="#000000" transform="translate(165,55)"/>
<path d="M0 0 C1.98 0 3.96 0 6 0 C6 0.33 6 0.66 6 1 C4.02 1 2.04 1 0 1 C0 0.67 0 0.34 0 0 Z " fill="#000000" transform="translate(123,55)"/>
<path d="M0 0 C1.98 0 3.96 0 6 0 C6 0.33 6 0.66 6 1 C4.02 1 2.04 1 0 1 C0 0.67 0 0.34 0 0 Z " fill="#000000" transform="translate(112,55)"/>
<path d="M0 0 C1.98 0 3.96 0 6 0 C6 0.33 6 0.66 6 1 C4.02 1 2.04 1 0 1 C0 0.67 0 0.34 0 0 Z " fill="#20D0F4" transform="translate(31,49)"/>
<path d="M0 0 C1.98 0 3.96 0 6 0 C6 0.33 6 0.66 6 1 C4.02 1 2.04 1 0 1 C0 0.67 0 0.34 0 0 Z " fill="#0095AA" transform="translate(6,49)"/>
<path d="M0 0 C1.98 0 3.96 0 6 0 C6 0.33 6 0.66 6 1 C4.02 1 2.04 1 0 1 C0 0.67 0 0.34 0 0 Z " fill="#00A4CA" transform="translate(6,46)"/>
<path d="M0 0 C1.98 0 3.96 0 6 0 C6 0.33 6 0.66 6 1 C4.02 1 2.04 1 0 1 C0 0.67 0 0.34 0 0 Z " fill="#0063D4" transform="translate(6,24)"/>
<path d="M0 0 C1.65 0 3.3 0 5 0 C5 0.33 5 0.66 5 1 C3.35 1 1.7 1 0 1 C0 0.67 0 0.34 0 0 Z " fill="#00B2B2" transform="translate(79,121)"/>
<path d="M0 0 C0.99 1.485 0.99 1.485 2 3 C1.01 3.495 1.01 3.495 0 4 C0 2.68 0 1.36 0 0 Z " fill="#007790" transform="translate(134,118)"/>
<path d="M0 0 C0.33 0 0.66 0 1 0 C1 1.65 1 3.3 1 5 C0.67 5 0.34 5 0 5 C0 3.35 0 1.7 0 0 Z " fill="#00A4DA" transform="translate(193,114)"/>
<path d="M0 0 C0.33 0 0.66 0 1 0 C1 1.65 1 3.3 1 5 C0.67 5 0.34 5 0 5 C0 3.35 0 1.7 0 0 Z " fill="#0095CD" transform="translate(155,114)"/>
<path d="M0 0 C0.33 0 0.66 0 1 0 C1 1.65 1 3.3 1 5 C0.67 5 0.34 5 0 5 C0 3.35 0 1.7 0 0 Z " fill="#008099" transform="translate(136,114)"/>
<path d="M0 0 C0.33 0 0.66 0 1 0 C1 1.65 1 3.3 1 5 C0.67 5 0.34 5 0 5 C0 3.35 0 1.7 0 0 Z " fill="#0090D1" transform="translate(141,114)"/>
<path d="M0 0 C0.33 0.66 0.66 1.32 1 2 C-0.32 1.67 -1.64 1.34 -3 1 C-2.01 0.67 -1.02 0.34 0 0 Z " fill="#00B7CE" transform="translate(180,108)"/>
<path d="M0 0 C1.65 0 3.3 0 5 0 C5 0.33 5 0.66 5 1 C3.35 1 1.7 1 0 1 C0 0.67 0 0.34 0 0 Z " fill="#000000" transform="translate(95,95)"/>
<path d="M0 0 C0.66 1.32 1.32 2.64 2 4 C1.34 3.67 0.68 3.34 0 3 C0 2.01 0 1.02 0 0 Z " fill="#00D4E5" transform="translate(23,88)"/>
<path d="M0 0 C0.33 0 0.66 0 1 0 C1 1.65 1 3.3 1 5 C0.67 5 0.34 5 0 5 C0 3.35 0 1.7 0 0 Z " fill="#99CCFF" transform="translate(47,83)"/>
<path d="M0 0 C0.66 0.33 1.32 0.66 2 1 C1.01 1.66 0.02 2.32 -1 3 C-0.67 2.01 -0.34 1.02 0 0 Z " fill="#007F7F" transform="translate(26,77)"/>
<path d="M0 0 C1.32 0.33 2.64 0.66 4 1 C3.01 1.495 3.01 1.495 2 2 C1.34 1.34 0.68 0.68 0 0 Z " fill="#99E5E5" transform="translate(61,75)"/>
<path d="M0 0 C1.65 0 3.3 0 5 0 C5 0.33 5 0.66 5 1 C3.35 1 1.7 1 0 1 C0 0.67 0 0.34 0 0 Z " fill="#0A000A" transform="translate(219,71)"/>
<path d="M0 0 C1.65 0 3.3 0 5 0 C5 0.33 5 0.66 5 1 C3.35 1 1.7 1 0 1 C0 0.67 0 0.34 0 0 Z " fill="#000000" transform="translate(213,71)"/>
<path d="M0 0 C1.65 0 3.3 0 5 0 C5 0.33 5 0.66 5 1 C3.35 1 1.7 1 0 1 C0 0.67 0 0.34 0 0 Z " fill="#000000" transform="translate(149,71)"/>
<path d="M0 0 C1.65 0 3.3 0 5 0 C5 0.33 5 0.66 5 1 C3.35 1 1.7 1 0 1 C0 0.67 0 0.34 0 0 Z " fill="#88E5F2" transform="translate(56,71)"/>
<path d="M0 0 C0.33 1.32 0.66 2.64 1 4 C0.34 3.34 -0.32 2.68 -1 2 C-0.67 1.34 -0.34 0.68 0 0 Z " fill="#000000" transform="translate(174,66)"/>
<path d="M0 0 C0.33 0 0.66 0 1 0 C1 1.65 1 3.3 1 5 C0.67 5 0.34 5 0 5 C0 3.35 0 1.7 0 0 Z " fill="#7FCCE5" transform="translate(47,58)"/>
<path d="M0 0 C0.66 0 1.32 0 2 0 C1.67 0.99 1.34 1.98 1 3 C0.67 2.01 0.34 1.02 0 0 Z " fill="#000000" transform="translate(102,57)"/>
<path d="M0 0 C1.65 0 3.3 0 5 0 C5 0.33 5 0.66 5 1 C3.35 1 1.7 1 0 1 C0 0.67 0 0.34 0 0 Z " fill="#000000" transform="translate(230,55)"/>
<path d="M0 0 C1.65 0 3.3 0 5 0 C5 0.33 5 0.66 5 1 C3.35 1 1.7 1 0 1 C0 0.67 0 0.34 0 0 Z " fill="#000000" transform="translate(224,55)"/>
<path d="M0 0 C1.65 0 3.3 0 5 0 C5 0.33 5 0.66 5 1 C3.35 1 1.7 1 0 1 C0 0.67 0 0.34 0 0 Z " fill="#000000" transform="translate(174,55)"/>
<path d="M0 0 C1.65 0 3.3 0 5 0 C5 0.33 5 0.66 5 1 C3.35 1 1.7 1 0 1 C0 0.67 0 0.34 0 0 Z " fill="#000000" transform="translate(155,55)"/>
<path d="M0 0 C1.65 0 3.3 0 5 0 C5 0.33 5 0.66 5 1 C3.35 1 1.7 1 0 1 C0 0.67 0 0.34 0 0 Z " fill="#000000" transform="translate(90,55)"/>
<path d="M0 0 C1.65 0 3.3 0 5 0 C5 0.33 5 0.66 5 1 C3.35 1 1.7 1 0 1 C0 0.67 0 0.34 0 0 Z " fill="#000000" transform="translate(84,55)"/>
<path d="M0 0 C0.99 0.33 1.98 0.66 3 1 C1.68 1.33 0.36 1.66 -1 2 C-0.67 1.34 -0.34 0.68 0 0 Z " fill="#007F99" transform="translate(3,50)"/>
<path d="M0 0 C4 1 4 1 4 1 Z " fill="#00BFBF" transform="translate(161,121)"/>
<path d="M0 0 C4 1 4 1 4 1 Z " fill="#007FFF" transform="translate(96,121)"/>
<path d="M0 0 C0.99 0 1.98 0 3 0 C2.67 0.66 2.34 1.32 2 2 C1.34 1.34 0.68 0.68 0 0 Z " fill="#00DFDF" transform="translate(88,109)"/>
<path d="M0 0 C4 1 4 1 4 1 Z " fill="#009FDF" transform="translate(152,109)"/>
<path d="M0 0 C0.66 0 1.32 0 2 0 C2 0.66 2 1.32 2 2 C1.34 2 0.68 2 0 2 C0 1.34 0 0.68 0 0 Z " fill="#009CCA" transform="translate(147,108)"/>
<path d="M0 0 C0.66 0 1.32 0 2 0 C2 0.66 2 1.32 2 2 C1.34 2 0.68 2 0 2 C0 1.34 0 0.68 0 0 Z " fill="#009CCA" transform="translate(144,108)"/>
<path d="M0 0 C4 1 4 1 4 1 Z " fill="#00DFDF" transform="translate(161,106)"/>
<path d="M0 0 C1 4 1 4 1 4 Z " fill="#00007F" transform="translate(20,84)"/>
<path d="M0 0 C0.66 0.66 1.32 1.32 2 2 C1.01 2.495 1.01 2.495 0 3 C0 2.01 0 1.02 0 0 Z " fill="#000000" transform="translate(91,79)"/>
<path d="M0 0 C0.99 1.485 0.99 1.485 2 3 C1.34 3 0.68 3 0 3 C0 2.01 0 1.02 0 0 Z " fill="#000000" transform="translate(109,76)"/>
<path d="M0 0 C4 1 4 1 4 1 Z " fill="#000000" transform="translate(95,78)"/>
<path d="M0 0 C4 1 4 1 4 1 Z " fill="#007FBF" transform="translate(7,74)"/>
<path d="M0 0 C4 1 4 1 4 1 Z " fill="#190019" transform="translate(246,71)"/>
<path d="M0 0 C4 1 4 1 4 1 Z " fill="#0C0019" transform="translate(233,71)"/>
<path d="M0 0 C4 1 4 1 4 1 Z " fill="#0C000C" transform="translate(226,71)"/>
<path d="M0 0 C4 1 4 1 4 1 Z " fill="#0C0019" transform="translate(176,71)"/>
<path d="M0 0 C4 1 4 1 4 1 Z " fill="#0C000C" transform="translate(141,71)"/>
<path d="M0 0 C4 1 4 1 4 1 Z " fill="#190019" transform="translate(101,71)"/>
<path d="M0 0 C4 1 4 1 4 1 Z " fill="#130613" transform="translate(114,65)"/>
<path d="M0 0 C0.99 0.495 0.99 0.495 2 1 C1.67 1.66 1.34 2.32 1 3 C0.67 2.01 0.34 1.02 0 0 Z " fill="#6AE9FF" transform="translate(48,64)"/>
<path d="M0 0 C0 3 0 3 0 3 Z " fill="#151515" transform="translate(130,61)"/>
<path d="M0 0 C0 3 0 3 0 3 Z " fill="#000000" transform="translate(248,61)"/>
<path d="M0 0 C0.66 0.66 1.32 1.32 2 2 C1.01 2.495 1.01 2.495 0 3 C0 2.01 0 1.02 0 0 Z " fill="#0A0A0A" transform="translate(161,57)"/>
<path d="M0 0 C4 1 4 1 4 1 Z " fill="#000000" transform="translate(105,55)"/>
<path d="M0 0 C4 1 4 1 4 1 Z " fill="#000000" transform="translate(97,55)"/>
<path d="M0 0 C0.99 1.485 0.99 1.485 2 3 C1.34 3 0.68 3 0 3 C0 2.01 0 1.02 0 0 Z " fill="#090909" transform="translate(152,53)"/>
<path d="M0 0 C4 1 4 1 4 1 Z " fill="#000000" transform="translate(238,50)"/>
<path d="M0 0 C4 1 4 1 4 1 Z " fill="#000000" transform="translate(198,50)"/>
<path d="M0 0 C3 1 3 1 3 1 Z " fill="#0080AA" transform="translate(171,121)"/>
<path d="M0 0 C3 1 3 1 3 1 Z " fill="#00E2E2" transform="translate(110,121)"/>
<path d="M0 0 C3 1 3 1 3 1 Z " fill="#0055D4" transform="translate(104,121)"/>
<path d="M0 0 C3 1 3 1 3 1 Z " fill="#007FD4" transform="translate(130,109)"/>
<path d="M0 0 C3 1 3 1 3 1 Z " fill="#00FFFF" transform="translate(118,109)"/>
<path d="M0 0 C3 1 3 1 3 1 Z " fill="#00D4FF" transform="translate(140,105)"/>
<path d="" fill="#15E9E9" transform="translate(0,0)"/>
<path d="" fill="#15CDCD" transform="translate(0,0)"/>
<path d="" fill="#000000" transform="translate(0,0)"/>
<path d="" fill="#00D4E9" transform="translate(0,0)"/>
<path d="M0 0 C3 1 3 1 3 1 Z " fill="#000000" transform="translate(132,78)"/>
<path d="M0 0 C3 1 3 1 3 1 Z " fill="#000000" transform="translate(86,75)"/>
<path d="M0 0 C3 1 3 1 3 1 Z " fill="#00FFFF" transform="translate(36,75)"/>
<path d="M0 0 C3 1 3 1 3 1 Z " fill="#00557F" transform="translate(11,75)"/>
<path d="M0 0 C3 1 3 1 3 1 Z " fill="#007FFF" transform="translate(4,75)"/>
<path d="M0 0 C3 1 3 1 3 1 Z " fill="#D4D4D4" transform="translate(57,74)"/>
<path d="M0 0 C3 1 3 1 3 1 Z " fill="#00D4D4" transform="translate(32,74)"/>
<path d="M0 0 C3 1 3 1 3 1 Z " fill="#110011" transform="translate(240,71)"/>
<path d="M0 0 C3 1 3 1 3 1 Z " fill="#110011" transform="translate(184,71)"/>
<path d="M0 0 C3 1 3 1 3 1 Z " fill="#110011" transform="translate(157,71)"/>
<path d="M0 0 C3 1 3 1 3 1 Z " fill="#110011" transform="translate(93,71)"/>
<path d="M0 0 C3 1 3 1 3 1 Z " fill="#110011" transform="translate(86,71)"/>
<path d="M0 0 C3 1 3 1 3 1 Z " fill="#110011" transform="translate(79,71)"/>
<path d="M0 0 C0.66 0.66 1.32 1.32 2 2 C1.34 2 0.68 2 0 2 C0 1.34 0 0.68 0 0 Z " fill="#00AAAA" transform="translate(1,67)"/>
<path d="" fill="#00C6FF" transform="translate(0,0)"/>
<path d="" fill="#0000FF" transform="translate(0,0)"/>
<path d="" fill="#15CDCD" transform="translate(0,0)"/>
<path d="" fill="#0E0E0E" transform="translate(0,0)"/>
<path d="M0 0 C3 1 3 1 3 1 Z " fill="#000000" transform="translate(148,51)"/>
<path d="M0 0 C3 1 3 1 3 1 Z " fill="#000000" transform="translate(133,51)"/>
<path d="M0 0 C3 1 3 1 3 1 Z " fill="#110011" transform="translate(79,51)"/>
<path d="" fill="#0000FF" transform="translate(0,0)"/>
<path d="M0 0 C0.99 0.495 0.99 0.495 2 1 C1.01 1.495 1.01 1.495 0 2 C0 1.34 0 0.68 0 0 Z " fill="#00AAFF" transform="translate(1,27)"/>
<path d="M0 0 C2 1 2 1 2 1 Z " fill="#004040" transform="translate(126,124)"/>
<path d="M0 0 C2 1 2 1 2 1 Z " fill="#007FFF" transform="translate(195,121)"/>
<path d="M0 0 C2 1 2 1 2 1 Z " fill="#007FFF" transform="translate(190,121)"/>
<path d="M0 0 C2 1 2 1 2 1 Z " fill="#007FFF" transform="translate(186,121)"/>
<path d="M0 0 C2 1 2 1 2 1 Z " fill="#007F7F" transform="translate(182,121)"/>
<path d="M0 0 C2 1 2 1 2 1 Z " fill="#007F7F" transform="translate(177,121)"/>
<path d="M0 0 C2 1 2 1 2 1 Z " fill="#007FFF" transform="translate(152,121)"/>
<path d="M0 0 C2 1 2 1 2 1 Z " fill="#007FFF" transform="translate(148,121)"/>
<path d="M0 0 C2 1 2 1 2 1 Z " fill="#0080FF" transform="translate(145,121)"/>
<path d="M0 0 C2 1 2 1 2 1 Z " fill="#007F7F" transform="translate(138,121)"/>
<path d="M0 0 C2 1 2 1 2 1 Z " fill="#0055D4" transform="translate(122,121)"/>
<path d="M0 0 C2 1 2 1 2 1 Z " fill="#00BFFF" transform="translate(169,120)"/>
<path d="M0 0 C2 1 2 1 2 1 Z " fill="#00D4D4" transform="translate(165,120)"/>
<path d="M0 0 C2 1 2 1 2 1 Z " fill="#007FFF" transform="translate(143,120)"/>
<path d="M0 0 C2 1 2 1 2 1 Z " fill="#00FFFF" transform="translate(167,119)"/>
<path d="" fill="#00FFFF" transform="translate(0,0)"/>
<path d="" fill="#00CCE5" transform="translate(0,0)"/>
<path d="" fill="#0080FF" transform="translate(0,0)"/>
<path d="" fill="#008CE5" transform="translate(0,0)"/>
<path d="" fill="#007F7F" transform="translate(0,0)"/>
<path d="M0 0 C2 1 2 1 2 1 Z " fill="#0040FF" transform="translate(173,109)"/>
<path d="M0 0 C2 1 2 1 2 1 Z " fill="#00BFBF" transform="translate(170,109)"/>
<path d="" fill="#0095D4" transform="translate(0,0)"/>
<path d="M0 0 C2 1 2 1 2 1 Z " fill="#00BFFF" transform="translate(127,109)"/>
<path d="M0 0 C2 1 2 1 2 1 Z " fill="#0040BF" transform="translate(122,109)"/>
<path d="M0 0 C2 1 2 1 2 1 Z " fill="#00407F" transform="translate(85,109)"/>
<path d="M0 0 C2 1 2 1 2 1 Z " fill="#007FFF" transform="translate(186,106)"/>
<path d="M0 0 C2 1 2 1 2 1 Z " fill="#009595" transform="translate(147,106)"/>
<path d="M0 0 C2 1 2 1 2 1 Z " fill="#009595" transform="translate(144,106)"/>
<path d="M0 0 C2 1 2 1 2 1 Z " fill="#007FFF" transform="translate(182,105)"/>
<path d="M0 0 C2 1 2 1 2 1 Z " fill="#000000" transform="translate(135,95)"/>
<path d="M0 0 C2 1 2 1 2 1 Z " fill="#000000" transform="translate(127,95)"/>
<path d="M0 0 C2 1 2 1 2 1 Z " fill="#000000" transform="translate(121,95)"/>
<path d="M0 0 C2 1 2 1 2 1 Z " fill="#000000" transform="translate(114,95)"/>
<path d="M0 0 C2 1 2 1 2 1 Z " fill="#BFFFFF" transform="translate(62,95)"/>
<path d="M0 0 C2 1 2 1 2 1 Z " fill="#D4D4D4" transform="translate(53,95)"/>
<path d="M0 0 C2 1 2 1 2 1 Z " fill="#00D4FF" transform="translate(28,95)"/>
<path d="M0 0 C2 1 2 1 2 1 Z " fill="#000000" transform="translate(100,94)"/>
<path d="M0 0 C2 1 2 1 2 1 Z " fill="#000000" transform="translate(93,94)"/>
<path d="M0 0 C2 1 2 1 2 1 Z " fill="#000000" transform="translate(86,94)"/>
<path d="M0 0 C2 1 2 1 2 1 Z " fill="#40FFFF" transform="translate(64,94)"/>
<path d="M0 0 C2 1 2 1 2 1 Z " fill="#00BFBF" transform="translate(39,94)"/>
<path d="" fill="#7FFFFF" transform="translate(0,0)"/>
<path d="" fill="#00BFBF" transform="translate(0,0)"/>
<path d="" fill="#0055D4" transform="translate(0,0)"/>
<path d="" fill="#9595D4" transform="translate(0,0)"/>
<path d="" fill="#80FFFF" transform="translate(0,0)"/>
<path d="" fill="#000000" transform="translate(0,0)"/>
<path d="" fill="#00AAAA" transform="translate(0,0)"/>
<path d="" fill="#00007F" transform="translate(0,0)"/>
<path d="" fill="#55D4FF" transform="translate(0,0)"/>
<path d="" fill="#0095D4" transform="translate(0,0)"/>
<path d="" fill="#00D4FF" transform="translate(0,0)"/>
<path d="" fill="#40FFFF" transform="translate(0,0)"/>
<path d="M0 0 C2 1 2 1 2 1 Z " fill="#000000" transform="translate(135,79)"/>
<path d="M0 0 C2 1 2 1 2 1 Z " fill="#000000" transform="translate(130,79)"/>
<path d="M0 0 C2 1 2 1 2 1 Z " fill="#000000" transform="translate(93,79)"/>
<path d="" fill="#000000" transform="translate(0,0)"/>
<path d="M0 0 C2 1 2 1 2 1 Z " fill="#BFFFFF" transform="translate(52,76)"/>
<path d="M0 0 C2 1 2 1 2 1 Z " fill="#80BFBF" transform="translate(54,75)"/>
<path d="M0 0 C2 1 2 1 2 1 Z " fill="#0080FF" transform="translate(29,75)"/>
<path d="M0 0 C2 1 2 1 2 1 Z " fill="#000000" transform="translate(195,70)"/>
<path d="M0 0 C2 1 2 1 2 1 Z " fill="#000000" transform="translate(139,70)"/>
<path d="M0 0 C2 1 2 1 2 1 Z " fill="#000000" transform="translate(110,70)"/>
<path d="M0 0 C2 1 2 1 2 1 Z " fill="#AAD4D4" transform="translate(61,70)"/>
<path d="M0 0 C2 1 2 1 2 1 Z " fill="#80FFFF" transform="translate(54,70)"/>
<path d="M0 0 C2 1 2 1 2 1 Z " fill="#00D4FF" transform="translate(37,70)"/>
<path d="M0 0 C2 1 2 1 2 1 Z " fill="#00D4FF" transform="translate(29,70)"/>
<path d="M0 0 C2 1 2 1 2 1 Z " fill="#00D4FF" transform="translate(12,70)"/>
<path d="M0 0 C2 1 2 1 2 1 Z " fill="#00D4FF" transform="translate(4,70)"/>
<path d="" fill="#000000" transform="translate(0,0)"/>
<path d="" fill="#000000" transform="translate(0,0)"/>
<path d="M0 0 C2 1 2 1 2 1 Z " fill="#BFBFFF" transform="translate(52,69)"/>
<path d="M0 0 C2 1 2 1 2 1 Z " fill="#00BFFF" transform="translate(27,69)"/>
<path d="M0 0 C2 1 2 1 2 1 Z " fill="#0040FF" transform="translate(14,69)"/>
<path d="" fill="#0040FF" transform="translate(0,0)"/>
<path d="" fill="#000000" transform="translate(0,0)"/>
<path d="" fill="#00BFBF" transform="translate(0,0)"/>
<path d="" fill="#00FFFF" transform="translate(0,0)"/>
<path d="" fill="#00809F" transform="translate(0,0)"/>
<path d="" fill="#2B122B" transform="translate(0,0)"/>
<path d="" fill="#007F7F" transform="translate(0,0)"/>
<path d="" fill="#00D4D4" transform="translate(0,0)"/>
<path d="" fill="#0095FF" transform="translate(0,0)"/>
<path d="M0 0 C2 1 2 1 2 1 Z " fill="#000000" transform="translate(220,56)"/>
<path d="" fill="#D4FFFF" transform="translate(0,0)"/>
<path d="" fill="#D4D4D4" transform="translate(0,0)"/>
<path d="" fill="#00FFFF" transform="translate(0,0)"/>
<path d="" fill="#00FFFF" transform="translate(0,0)"/>
<path d="" fill="#000000" transform="translate(0,0)"/>
<path d="" fill="#000000" transform="translate(0,0)"/>
<path d="M0 0 C2 1 2 1 2 1 Z " fill="#8080FF" transform="translate(62,50)"/>
<path d="M0 0 C2 1 2 1 2 1 Z " fill="#BFFFFF" transform="translate(53,50)"/>
<path d="M0 0 C2 1 2 1 2 1 Z " fill="#00BFFF" transform="translate(37,50)"/>
<path d="M0 0 C2 1 2 1 2 1 Z " fill="#00FFFF" transform="translate(28,50)"/>
<path d="M0 0 C2 1 2 1 2 1 Z " fill="#0040FF" transform="translate(13,50)"/>
<path d="M0 0 C2 1 2 1 2 1 Z " fill="#0080BF" transform="translate(12,45)"/>
<path d="M0 0 C2 1 2 1 2 1 Z " fill="#0080BF" transform="translate(4,45)"/>
<path d="M0 0 C2 1 2 1 2 1 Z " fill="#00BFBF" transform="translate(14,44)"/>
<path d="M0 0 C2 1 2 1 2 1 Z " fill="#00BFFF" transform="translate(2,44)"/>
<path d="" fill="#00FFFF" transform="translate(0,0)"/>
<path d="" fill="#00BFFF" transform="translate(0,0)"/>
<path d="" fill="#0095FF" transform="translate(0,0)"/>
<path d="" fill="#0080DF" transform="translate(0,0)"/>
<path d="" fill="#00BFBF" transform="translate(0,0)"/>
<path d="M0 0 C2 1 2 1 2 1 Z " fill="#0040FF" transform="translate(14,26)"/>
<path d="M0 0 C2 1 2 1 2 1 Z " fill="#00BFFF" transform="translate(12,25)"/>
<path d="M0 0 C2 1 2 1 2 1 Z " fill="#0080BF" transform="translate(4,25)"/>
<path d="" fill="#0080FF" transform="translate(0,0)"/>
<path d="" fill="#00FFFF" transform="translate(0,0)"/>
<path d="" fill="#00FFFF" transform="translate(0,0)"/>
<path d="" fill="#008080" transform="translate(0,0)"/>
<path d="" fill="#008080" transform="translate(0,0)"/>
<path d="" fill="#008080" transform="translate(0,0)"/>
<path d="" fill="#00FFFF" transform="translate(0,0)"/>
<path d="" fill="#00FFFF" transform="translate(0,0)"/>
<path d="" fill="#00FFFF" transform="translate(0,0)"/>
<path d="" fill="#00FFFF" transform="translate(0,0)"/>
<path d="" fill="#0080FF" transform="translate(0,0)"/>
<path d="" fill="#00FFFF" transform="translate(0,0)"/>
<path d="" fill="#0080FF" transform="translate(0,0)"/>
<path d="" fill="#0000FF" transform="translate(0,0)"/>
<path d="" fill="#0080FF" transform="translate(0,0)"/>
<path d="" fill="#00FFFF" transform="translate(0,0)"/>
<path d="" fill="#00FFFF" transform="translate(0,0)"/>
<path d="" fill="#0000FF" transform="translate(0,0)"/>
<path d="" fill="#00FFFF" transform="translate(0,0)"/>
<path d="" fill="#00FFFF" transform="translate(0,0)"/>
<path d="" fill="#0000FF" transform="translate(0,0)"/>
<path d="" fill="#000000" transform="translate(0,0)"/>
<path d="" fill="#00FFFF" transform="translate(0,0)"/>
<path d="" fill="#0080FF" transform="translate(0,0)"/>
<path d="" fill="#0000FF" transform="translate(0,0)"/>
<path d="" fill="#00FFFF" transform="translate(0,0)"/>
<path d="" fill="#0000FF" transform="translate(0,0)"/>
<path d="" fill="#00AAFF" transform="translate(0,0)"/>
<path d="" fill="#008080" transform="translate(0,0)"/>
<path d="" fill="#000000" transform="translate(0,0)"/>
<path d="" fill="#000000" transform="translate(0,0)"/>
<path d="" fill="#0080FF" transform="translate(0,0)"/>
<path d="" fill="#000000" transform="translate(0,0)"/>
<path d="" fill="#00FFFF" transform="translate(0,0)"/>
<path d="" fill="#00FFFF" transform="translate(0,0)"/>
<path d="" fill="#008080" transform="translate(0,0)"/>
<path d="" fill="#000000" transform="translate(0,0)"/>
<path d="" fill="#00FFFF" transform="translate(0,0)"/>
<path d="" fill="#008080" transform="translate(0,0)"/>
<path d="" fill="#000000" transform="translate(0,0)"/>
<path d="" fill="#008080" transform="translate(0,0)"/>
<path d="" fill="#00FFFF" transform="translate(0,0)"/>
<path d="" fill="#0080FF" transform="translate(0,0)"/>
<path d="" fill="#00FFFF" transform="translate(0,0)"/>
<path d="" fill="#00AAAA" transform="translate(0,0)"/>
<path d="" fill="#00FFFF" transform="translate(0,0)"/>
<path d="" fill="#008080" transform="translate(0,0)"/>
<path d="" fill="#00FFFF" transform="translate(0,0)"/>
<path d="" fill="#000000" transform="translate(0,0)"/>
<path d="" fill="#00AAAA" transform="translate(0,0)"/>
<path d="" fill="#00AAAA" transform="translate(0,0)"/>
<path d="" fill="#00AAAA" transform="translate(0,0)"/>
<path d="" fill="#AAAAAA" transform="translate(0,0)"/>
<path d="" fill="#00FFFF" transform="translate(0,0)"/>
<path d="" fill="#0080FF" transform="translate(0,0)"/>
<path d="" fill="#008080" transform="translate(0,0)"/>
<path d="" fill="#000000" transform="translate(0,0)"/>
<path d="" fill="#000000" transform="translate(0,0)"/>
<path d="" fill="#000000" transform="translate(0,0)"/>
<path d="" fill="#55AAAA" transform="translate(0,0)"/>
<path d="" fill="#00FFFF" transform="translate(0,0)"/>
<path d="" fill="#00FFFF" transform="translate(0,0)"/>
<path d="" fill="#0080FF" transform="translate(0,0)"/>
<path d="" fill="#008080" transform="translate(0,0)"/>
<path d="" fill="#000000" transform="translate(0,0)"/>
<path d="" fill="#000000" transform="translate(0,0)"/>
<path d="" fill="#AAAAFF" transform="translate(0,0)"/>
<path d="" fill="#00AAAA" transform="translate(0,0)"/>
<path d="" fill="#0080FF" transform="translate(0,0)"/>
<path d="" fill="#008080" transform="translate(0,0)"/>
<path d="" fill="#000000" transform="translate(0,0)"/>
<path d="" fill="#80FFFF" transform="translate(0,0)"/>
<path d="" fill="#AAFFFF" transform="translate(0,0)"/>
<path d="" fill="#00AAFF" transform="translate(0,0)"/>
<path d="" fill="#000000" transform="translate(0,0)"/>
<path d="" fill="#330033" transform="translate(0,0)"/>
<path d="" fill="#AAFFFF" transform="translate(0,0)"/>
<path d="" fill="#000000" transform="translate(0,0)"/>
<path d="" fill="#00AAFF" transform="translate(0,0)"/>
<path d="" fill="#00AAAA" transform="translate(0,0)"/>
<path d="" fill="#000000" transform="translate(0,0)"/>
<path d="" fill="#000000" transform="translate(0,0)"/>
<path d="" fill="#8080FF" transform="translate(0,0)"/>
<path d="" fill="#00AAAA" transform="translate(0,0)"/>
<path d="" fill="#00AAAA" transform="translate(0,0)"/>
<path d="" fill="#00AAAA" transform="translate(0,0)"/>
<path d="" fill="#80FFFF" transform="translate(0,0)"/>
<path d="" fill="#8080FF" transform="translate(0,0)"/>
<path d="" fill="#00AAFF" transform="translate(0,0)"/>
<path d="" fill="#00FFFF" transform="translate(0,0)"/>
<path d="" fill="#00AAAA" transform="translate(0,0)"/>
<path d="" fill="#80FFFF" transform="translate(0,0)"/>
<path d="" fill="#808080" transform="translate(0,0)"/>
<path d="" fill="#00AAFF" transform="translate(0,0)"/>
<path d="" fill="#00AAAA" transform="translate(0,0)"/>
<path d="" fill="#00AAAA" transform="translate(0,0)"/>
<path d="" fill="#000000" transform="translate(0,0)"/>
<path d="" fill="#00AAAA" transform="translate(0,0)"/>
<path d="" fill="#00AAFF" transform="translate(0,0)"/>
<path d="" fill="#00AAFF" transform="translate(0,0)"/>
<path d="" fill="#00AAAA" transform="translate(0,0)"/>
<path d="" fill="#000000" transform="translate(0,0)"/>
<path d="" fill="#000000" transform="translate(0,0)"/>
<path d="" fill="#000000" transform="translate(0,0)"/>
<path d="" fill="#000000" transform="translate(0,0)"/>
<path d="" fill="#000000" transform="translate(0,0)"/>
<path d="" fill="#000000" transform="translate(0,0)"/>
<path d="" fill="#000000" transform="translate(0,0)"/>
<path d="" fill="#000000" transform="translate(0,0)"/>
<path d="" fill="#000000" transform="translate(0,0)"/>
<path d="" fill="#000000" transform="translate(0,0)"/>
<path d="" fill="#000000" transform="translate(0,0)"/>
<path d="" fill="#000000" transform="translate(0,0)"/>
<path d="" fill="#000000" transform="translate(0,0)"/>
<path d="" fill="#000000" transform="translate(0,0)"/>
<path d="" fill="#000000" transform="translate(0,0)"/>
<path d="" fill="#000000" transform="translate(0,0)"/>
<path d="" fill="#000000" transform="translate(0,0)"/>
<path d="" fill="#000000" transform="translate(0,0)"/>
<path d="" fill="#000000" transform="translate(0,0)"/>
<path d="" fill="#000000" transform="translate(0,0)"/>
<path d="" fill="#000000" transform="translate(0,0)"/>
<path d="" fill="#000000" transform="translate(0,0)"/>
<path d="" fill="#000000" transform="translate(0,0)"/>
<path d="" fill="#000000" transform="translate(0,0)"/>
<path d="" fill="#000000" transform="translate(0,0)"/>
<path d="" fill="#000000" transform="translate(0,0)"/>
<path d="" fill="#000000" transform="translate(0,0)"/>
<path d="" fill="#000000" transform="translate(0,0)"/>
<path d="" fill="#000000" transform="translate(0,0)"/>
<path d="" fill="#000000" transform="translate(0,0)"/>
<path d="" fill="#000000" transform="translate(0,0)"/>
<path d="" fill="#80FFFF" transform="translate(0,0)"/>
<path d="" fill="#00AAAA" transform="translate(0,0)"/>
<path d="" fill="#0080FF" transform="translate(0,0)"/>
<path d="" fill="#000033" transform="translate(0,0)"/>
<path d="" fill="#000000" transform="translate(0,0)"/>
<path d="" fill="#AAAAFF" transform="translate(0,0)"/>
<path d="" fill="#80FFFF" transform="translate(0,0)"/>
<path d="" fill="#00FFFF" transform="translate(0,0)"/>
<path d="" fill="#00FFFF" transform="translate(0,0)"/>
<path d="" fill="#00FFFF" transform="translate(0,0)"/>
<path d="" fill="#AAAAFF" transform="translate(0,0)"/>
<path d="" fill="#80FFFF" transform="translate(0,0)"/>
<path d="" fill="#00FFFF" transform="translate(0,0)"/>
<path d="" fill="#00FFFF" transform="translate(0,0)"/>
<path d="" fill="#80FFFF" transform="translate(0,0)"/>
<path d="" fill="#00AAAA" transform="translate(0,0)"/>
<path d="" fill="#00AAAA" transform="translate(0,0)"/>
<path d="" fill="#00AAFF" transform="translate(0,0)"/>
<path d="" fill="#00AAAA" transform="translate(0,0)"/>
<path d="" fill="#000000" transform="translate(0,0)"/>
<path d="" fill="#000000" transform="translate(0,0)"/>
<path d="" fill="#80BFBF" transform="translate(0,0)"/>
<path d="" fill="#000000" transform="translate(0,0)"/>
<path d="" fill="#242424" transform="translate(0,0)"/>
<path d="" fill="#000000" transform="translate(0,0)"/>
<path d="" fill="#000000" transform="translate(0,0)"/>
<path d="" fill="#000000" transform="translate(0,0)"/>
<path d="" fill="#000000" transform="translate(0,0)"/>
<path d="" fill="#000000" transform="translate(0,0)"/>
<path d="" fill="#000000" transform="translate(0,0)"/>
<path d="" fill="#000000" transform="translate(0,0)"/>
<path d="" fill="#000000" transform="translate(0,0)"/>
<path d="" fill="#000000" transform="translate(0,0)"/>
<path d="" fill="#000000" transform="translate(0,0)"/>
<path d="" fill="#000000" transform="translate(0,0)"/>
<path d="" fill="#000000" transform="translate(0,0)"/>
<path d="" fill="#000000" transform="translate(0,0)"/>
<path d="" fill="#000000" transform="translate(0,0)"/>
<path d="" fill="#000000" transform="translate(0,0)"/>
<path d="" fill="#000000" transform="translate(0,0)"/>
<path d="" fill="#000000" transform="translate(0,0)"/>
<path d="" fill="#000000" transform="translate(0,0)"/>
<path d="" fill="#000000" transform="translate(0,0)"/>
<path d="" fill="#000000" transform="translate(0,0)"/>
<path d="" fill="#000000" transform="translate(0,0)"/>
<path d="" fill="#000000" transform="translate(0,0)"/>
<path d="" fill="#000000" transform="translate(0,0)"/>
<path d="" fill="#000000" transform="translate(0,0)"/>
<path d="" fill="#000000" transform="translate(0,0)"/>
<path d="" fill="#000000" transform="translate(0,0)"/>
<path d="" fill="#000000" transform="translate(0,0)"/>
<path d="" fill="#000000" transform="translate(0,0)"/>
<path d="" fill="#000000" transform="translate(0,0)"/>
<path d="" fill="#000000" transform="translate(0,0)"/>
<path d="" fill="#000000" transform="translate(0,0)"/>
<path d="" fill="#00AAAA" transform="translate(0,0)"/>
<path d="" fill="#00AAFF" transform="translate(0,0)"/>
<path d="" fill="#55AAAA" transform="translate(0,0)"/>
<path d="" fill="#80FFFF" transform="translate(0,0)"/>
<path d="" fill="#AAAAAA" transform="translate(0,0)"/>
<path d="" fill="#AAAAFF" transform="translate(0,0)"/>
<path d="" fill="#00FFFF" transform="translate(0,0)"/>
<path d="" fill="#008080" transform="translate(0,0)"/>
<path d="" fill="#000000" transform="translate(0,0)"/>
<path d="" fill="#000000" transform="translate(0,0)"/>
<path d="" fill="#AAAAAA" transform="translate(0,0)"/>
<path d="" fill="#55AAAA" transform="translate(0,0)"/>
<path d="" fill="#00FFFF" transform="translate(0,0)"/>
<path d="" fill="#0080FF" transform="translate(0,0)"/>
<path d="" fill="#008080" transform="translate(0,0)"/>
<path d="" fill="#AAAAFF" transform="translate(0,0)"/>
<path d="" fill="#AAAAAA" transform="translate(0,0)"/>
<path d="" fill="#0080FF" transform="translate(0,0)"/>
<path d="" fill="#008080" transform="translate(0,0)"/>
<path d="" fill="#00FFFF" transform="translate(0,0)"/>
<path d="" fill="#00FFFF" transform="translate(0,0)"/>
<path d="" fill="#00AAFF" transform="translate(0,0)"/>
<path d="" fill="#00AAFF" transform="translate(0,0)"/>
<path d="" fill="#00AAAA" transform="translate(0,0)"/>
<path d="" fill="#00FFFF" transform="translate(0,0)"/>
<path d="" fill="#00AAAA" transform="translate(0,0)"/>
</svg>
