<?xml version="1.0" encoding="UTF-8"?>
<svg version="1.1" xmlns="http://www.w3.org/2000/svg" width="250" height="96">
<path d="M0 0 C0.81141449 0.00045319 1.62282898 0.00090637 2.45883179 0.00137329 C3.30926056 -0.00198532 4.15968933 -0.00534393 5.03588867 -0.00880432 C7.86340779 -0.01834719 10.69086786 -0.02025934 13.5184021 -0.02133179 C15.47797673 -0.02454294 17.43755112 -0.0279069 19.39712524 -0.03141785 C23.51307735 -0.03741808 27.62900843 -0.03925692 31.7449646 -0.03866577 C37.01881765 -0.0385643 42.2925356 -0.05219694 47.56635666 -0.06943798 C51.617265 -0.08056054 55.66814076 -0.08258487 59.71906281 -0.08205605 C61.66311355 -0.08323653 63.60716512 -0.08766212 65.55120087 -0.09538841 C68.27311111 -0.10518984 70.9947293 -0.10230921 73.71664429 -0.09628296 C74.51996185 -0.10190247 75.32327942 -0.10752197 76.15093994 -0.11331177 C81.54288735 -0.08298966 85.22657072 0.61555736 89.5965271 3.77163696 C91.98733028 7.01629842 92.35494616 10.20635027 92.3465271 14.14663696 C91.28256226 17.72940063 91.28256226 17.72940063 89.6355896 21.31460571 C89.20420181 22.27866081 89.20420181 22.27866081 88.76409912 23.26219177 C87.85089267 25.2947443 86.91267386 27.31439157 85.9715271 29.33413696 C85.04253268 31.36649313 84.11903216 33.40116661 83.20037842 35.43821716 C82.36669701 37.28072935 81.51838209 39.11659967 80.66928101 40.95205688 C79.5171428 43.73458336 78.79468627 46.18202572 78.3465271 49.14663696 C79.37713257 47.7737854 79.37713257 47.7737854 80.42855835 46.37319946 C81.33846907 45.17249253 82.2486389 43.97198191 83.1590271 42.77163696 C83.83675171 41.86671509 83.83675171 41.86671509 84.52816772 40.94351196 C89.47530675 34.44362128 89.47530675 34.44362128 93.8477478 33.74966431 C96.95124877 33.00070022 97.57537341 32.11275583 99.32699585 29.49819946 C100.10611328 28.36813477 100.10611328 28.36813477 100.90097046 27.21524048 C101.43987915 26.40885132 101.97878784 25.60246216 102.5340271 24.77163696 C116.2969813 4.98139726 116.2969813 4.98139726 125.3465271 1.14663696 C128.2215271 0.95913696 128.2215271 0.95913696 130.3465271 1.14663696 C128.33316493 5.34114149 126.75977971 8.08671755 122.8465271 10.64663696 C116.00510729 15.44451579 111.29969779 22.52621743 106.3465271 29.14663696 C105.84620972 29.80550903 105.34589233 30.4643811 104.83041382 31.14321899 C97.70172221 40.61148776 92.90952697 49.84125341 89.3465271 61.14663696 C89.9652771 60.48663696 90.5840271 59.82663696 91.2215271 59.14663696 C93.3465271 57.14663696 93.3465271 57.14663696 95.3465271 57.14663696 C93.78299394 60.98440018 91.51181279 63.49663034 88.3465271 66.14663696 C85.6590271 66.58413696 85.6590271 66.58413696 83.3465271 66.14663696 C82.6865271 65.48663696 82.0265271 64.82663696 81.3465271 64.14663696 C79.85408016 66.04146881 78.36458374 67.93850254 76.87875366 69.83853149 C75.59815133 71.47223385 74.3109298 73.10076746 73.01742554 74.72427368 C70.02399791 78.51937911 67.18891714 82.23740961 64.8230896 86.45913696 C62.6157032 90.30914047 60.76978405 93.24371507 57.3465271 96.14663696 C51.42400852 97.73411617 45.33864717 96.96908482 39.3465271 96.14663696 C42.34157637 88.08622785 45.57021167 80.18814498 49.11044312 72.35366821 C50.77577455 68.88710768 50.77577455 68.88710768 51.3465271 65.14663696 C50.8721521 64.69288696 50.3977771 64.23913696 49.9090271 63.77163696 C47.17601663 60.92930608 47.22173555 57.61745322 47.24887085 53.81851196 C47.25370483 52.61968384 47.25370483 52.61968384 47.25863647 51.39663696 C47.27120483 50.15913696 47.27120483 50.15913696 47.2840271 48.89663696 C47.28853882 48.05616821 47.29305054 47.21569946 47.29769897 46.34976196 C47.30944749 44.28202295 47.32738188 42.21432072 47.3465271 40.14663696 C45.0365271 40.14663696 42.7265271 40.14663696 40.3465271 40.14663696 C41.0065271 38.16663696 41.6665271 36.18663696 42.3465271 34.14663696 C43.9965271 34.14663696 45.6465271 34.14663696 47.3465271 34.14663696 C47.3465271 31.83663696 47.3465271 29.52663696 47.3465271 27.14663696 C49.6565271 26.15663696 51.9665271 25.16663696 54.3465271 24.14663696 C54.8415271 28.60163696 54.8415271 28.60163696 55.3465271 33.14663696 C58.6465271 33.14663696 61.9465271 33.14663696 65.3465271 33.14663696 C66.12002492 31.62715706 66.8901719 30.1059713 67.6590271 28.58413696 C68.08828491 27.7372229 68.51754272 26.89030884 68.95980835 26.01773071 C70.52580214 22.77546189 71.92816359 19.45615183 73.3465271 16.14663696 C52.8865271 16.14663696 32.4265271 16.14663696 11.3465271 16.14663696 C11.4702771 24.56163696 11.5940271 32.97663696 11.7215271 41.64663696 C11.75552612 44.28857056 11.78952515 46.93050415 11.82455444 49.65249634 C11.85978622 51.76513899 11.89571031 53.87777025 11.9324646 55.99038696 C11.94950439 57.61315552 11.94950439 57.61315552 11.96688843 59.26870728 C12.07934001 65.18122197 12.31366223 70.55808303 14.3465271 76.14663696 C17.23038605 78.54508605 20.3251127 78.44382587 23.9871521 78.56069946 C25.05707397 78.59937134 26.12699585 78.63804321 27.2293396 78.67788696 C28.89609741 78.72429321 28.89609741 78.72429321 30.5965271 78.77163696 C31.72316772 78.81030884 32.84980835 78.84898071 34.0105896 78.88882446 C36.78907258 78.98301033 39.56755044 79.06863283 42.3465271 79.14663696 C41.69149428 83.20482879 40.40093589 86.68634978 38.7840271 90.45913696 C38.32898804 91.52776978 37.87394897 92.59640259 37.40512085 93.69741821 C36.88111694 94.90978149 36.88111694 94.90978149 36.3465271 96.14663696 C32.18010013 96.26367143 28.0141012 96.33416797 23.8465271 96.39663696 C22.08695679 96.4469104 22.08695679 96.4469104 20.2918396 96.49819946 C11.94122801 96.59202656 6.57987402 95.69349519 0.0340271 90.20913696 C-3.98365864 85.29863217 -5.33764493 80.96924079 -6.3409729 74.83413696 C-6.47052368 74.09357056 -6.60007446 73.35300415 -6.73355103 72.58999634 C-7.0493435 70.77711363 -7.35267873 68.96206845 -7.6534729 67.14663696 C-8.58675415 67.00484009 -9.5200354 66.86304321 -10.4815979 66.71694946 C-13.99646893 66.08496526 -15.90789684 65.43461702 -18.6534729 63.14663696 C-20.45031148 59.17861843 -20.92997287 57.1051702 -19.7159729 52.89663696 C-17.08075371 49.38301138 -14.804221 48.45739952 -10.6534729 47.14663696 C-9.3334729 47.14663696 -8.0134729 47.14663696 -6.6534729 47.14663696 C-6.6534729 44.83663696 -6.6534729 42.52663696 -6.6534729 40.14663696 C-9.27534784 41.19538694 -10.44718651 41.79595009 -11.9034729 44.27163696 C-12.1509729 44.89038696 -12.3984729 45.50913696 -12.6534729 46.14663696 C-14.6334729 46.14663696 -16.6134729 46.14663696 -18.6534729 46.14663696 C-18.37062661 42.46963512 -18.13474336 39.85003224 -16.0284729 36.77163696 C-12.96591654 34.67620367 -10.29655635 34.5797308 -6.6534729 34.14663696 C-6.65870972 33.15220581 -6.66394653 32.15777466 -6.66934204 31.13320923 C-6.68739331 27.45629775 -6.69890536 23.77939022 -6.70840454 20.10244751 C-6.71344447 18.50869082 -6.7202764 16.91493877 -6.72891235 15.32119751 C-6.74099289 13.03513444 -6.74670445 10.74913229 -6.75112915 8.46304321 C-6.75629044 7.74636978 -6.76145172 7.02969635 -6.76676941 6.29130554 C-6.76696553 4.57600024 -6.71539297 2.8608243 -6.6534729 1.14663696 C-4.85315897 -0.65367697 -2.39754682 0.01391992 0 0 Z M89.3465271 38.14663696 C87.97980019 39.6421771 87.97980019 39.6421771 86.62387085 41.62710571 C86.08923218 42.3732312 85.55459351 43.11935669 85.00375366 43.88809204 C84.4362439 44.69528687 83.86873413 45.50248169 83.2840271 46.33413696 C82.70491577 47.14971069 82.12580444 47.96528442 81.52914429 48.80557251 C80.3538021 50.4637026 79.18142951 52.12394169 78.01205444 53.7862854 C76.52903102 55.88799611 75.02999451 57.97665733 73.52230835 60.06069946 C72.71310693 61.19307796 71.90446956 62.32585986 71.0965271 63.45913696 C70.39012085 64.44526978 69.6837146 65.43140259 68.9559021 66.44741821 C67.36903298 69.10889045 66.72455761 71.09459654 66.3465271 74.14663696 C70.63507354 70.1487063 73.90105322 65.77773711 77.2215271 60.95913696 C78.27749312 59.44089141 79.33348261 57.92266217 80.38949585 56.40444946 C80.89529175 55.67387329 81.40108765 54.94329712 81.92221069 54.19058228 C84.2823621 50.80368005 86.71114033 47.46535601 89.13949585 44.12710571 C90.36360341 42.11861854 90.91746637 40.44702281 91.3465271 38.14663696 C90.6865271 38.14663696 90.0265271 38.14663696 89.3465271 38.14663696 Z M54.3465271 40.14663696 C54.3465271 45.75663696 54.3465271 51.36663696 54.3465271 57.14663696 C55.0065271 57.14663696 55.6665271 57.14663696 56.3465271 57.14663696 C57.51540211 54.50175907 58.68172257 51.85580672 59.8465271 49.20913696 C60.18039429 48.45439087 60.51426147 47.69964478 60.85824585 46.92202759 C62.57739826 43.64720523 62.57739826 43.64720523 63.3465271 40.14663696 C60.3765271 40.14663696 57.4065271 40.14663696 54.3465271 40.14663696 Z M75.3465271 52.14663696 C76.3465271 54.14663696 76.3465271 54.14663696 76.3465271 54.14663696 Z M-10.6534729 53.14663696 C-11.3134729 53.80663696 -11.9734729 54.46663696 -12.6534729 55.14663696 C-12.33305893 57.74944264 -12.33305893 57.74944264 -11.6534729 60.14663696 C-10.0034729 60.47663696 -8.3534729 60.80663696 -6.6534729 61.14663696 C-6.6534729 58.50663696 -6.6534729 55.86663696 -6.6534729 53.14663696 C-7.9734729 53.14663696 -9.2934729 53.14663696 -10.6534729 53.14663696 Z " fill="#D4F700" transform="translate(81.65347290039063,-0.146636962890625)"/>
<path d="M0 0 C-2.01336217 4.19450452 -3.58674739 6.94008058 -7.5 9.5 C-14.34141981 14.29787883 -19.04682931 21.37958047 -24 28 C-24.50031738 28.65887207 -25.00063477 29.31774414 -25.51611328 29.99658203 C-32.64480489 39.4648508 -37.43700013 48.69461645 -41 60 C-40.38125 59.34 -39.7625 58.68 -39.125 58 C-37 56 -37 56 -35 56 C-36.56353316 59.83776322 -38.83471431 62.34999338 -42 65 C-44.6875 65.4375 -44.6875 65.4375 -47 65 C-47.66 64.34 -48.32 63.68 -49 63 C-50.49244694 64.89483185 -51.98194336 66.79186558 -53.46777344 68.69189453 C-54.74837577 70.32559689 -56.0355973 71.95413049 -57.32910156 73.57763672 C-60.32252919 77.37274215 -63.15760996 81.09077265 -65.5234375 85.3125 C-67.7308239 89.16250351 -69.57674305 92.09707811 -73 95 C-78.92251858 96.58747921 -85.00787993 95.82244785 -91 95 C-88.00495073 86.93959089 -84.77631543 79.04150802 -81.23608398 71.20703125 C-79.57075255 67.74047071 -79.57075255 67.74047071 -79 64 C-79.474375 63.54625 -79.94875 63.0925 -80.4375 62.625 C-83.17051047 59.78266912 -83.12479154 56.47081626 -83.09765625 52.671875 C-83.09282227 51.47304687 -83.09282227 51.47304687 -83.08789062 50.25 C-83.07951172 49.425 -83.07113281 48.6 -83.0625 47.75 C-83.05798828 46.90953125 -83.05347656 46.0690625 -83.04882812 45.203125 C-83.03707961 43.13538599 -83.01914522 41.06768376 -83 39 C-85.31 39 -87.62 39 -90 39 C-89.34 37.02 -88.68 35.04 -88 33 C-86.35 33 -84.7 33 -83 33 C-83 30.69 -83 28.38 -83 26 C-80.69 25.01 -78.38 24.02 -76 23 C-75.67 25.97 -75.34 28.94 -75 32 C-74.34515625 31.98839844 -73.6903125 31.97679688 -73.015625 31.96484375 C-67.83849966 31.91365748 -62.67071266 31.97885287 -57.5 32.25 C-56.5203125 32.29640625 -55.540625 32.3428125 -54.53125 32.390625 C-52 33 -52 33 -50.07421875 34.7578125 C-49 37 -49 37 -49.36328125 39.2890625 C-49.67652344 40.05992188 -49.98976562 40.83078125 -50.3125 41.625 C-51.60644939 44.72585288 -51.60644939 44.72585288 -52 48 C-51.31292969 47.08476563 -50.62585938 46.16953125 -49.91796875 45.2265625 C-49.00805803 44.02585556 -48.0978882 42.82534495 -47.1875 41.625 C-46.73568359 41.02171875 -46.28386719 40.4184375 -45.81835938 39.796875 C-40.87122035 33.29698431 -40.87122035 33.29698431 -36.4987793 32.60302734 C-33.39527833 31.85406326 -32.77115369 30.96611887 -31.01953125 28.3515625 C-30.50011963 27.59818604 -29.98070801 26.84480957 -29.44555664 26.06860352 C-28.90664795 25.26221436 -28.36773926 24.4558252 -27.8125 23.625 C-10.72460583 -0.94628875 -10.72460583 -0.94628875 0 0 Z M-41 37 C-42.36672691 38.49554013 -42.36672691 38.49554013 -43.72265625 40.48046875 C-44.25729492 41.22659424 -44.79193359 41.97271973 -45.34277344 42.74145508 C-45.9102832 43.5486499 -46.47779297 44.35584473 -47.0625 45.1875 C-47.64161133 46.00307373 -48.22072266 46.81864746 -48.81738281 47.65893555 C-49.992725 49.31706564 -51.16509759 50.97730473 -52.33447266 52.63964844 C-53.81749608 54.74135915 -55.31653259 56.83002037 -56.82421875 58.9140625 C-57.63342017 60.046441 -58.44205754 61.1792229 -59.25 62.3125 C-59.95640625 63.29863281 -60.6628125 64.28476563 -61.390625 65.30078125 C-62.97749412 67.96225349 -63.62196949 69.94795957 -64 73 C-59.71145356 69.00206934 -56.44547388 64.63110015 -53.125 59.8125 C-52.06903398 58.29425444 -51.01304449 56.77602521 -49.95703125 55.2578125 C-49.45123535 54.52723633 -48.94543945 53.79666016 -48.42431641 53.04394531 C-46.064165 49.65704309 -43.63538677 46.31871904 -41.20703125 42.98046875 C-39.98292369 40.97198158 -39.42906073 39.30038585 -39 37 C-39.66 37 -40.32 37 -41 37 Z M-76 39 C-76 44.61 -76 50.22 -76 56 C-75.34 56 -74.68 56 -74 56 C-72.83112499 53.35512211 -71.66480453 50.70916976 -70.5 48.0625 C-70.16613281 47.30775391 -69.83226562 46.55300781 -69.48828125 45.77539062 C-67.76912884 42.50056827 -67.76912884 42.50056827 -67 39 C-69.97 39 -72.94 39 -76 39 Z M-55 51 C-54 53 -54 53 -54 53 Z " fill="#040500" transform="translate(212,1)"/>
<path d="M0 0 C1.51400391 0.01740234 1.51400391 0.01740234 3.05859375 0.03515625 C4.07050781 0.04417969 5.08242187 0.05320313 6.125 0.0625 C6.90746094 0.07410156 7.68992188 0.08570313 8.49609375 0.09765625 C8.0371875 1.20882812 7.57828125 2.32 7.10546875 3.46484375 C3.86169173 11.32643027 0.6244927 19.18921915 -2.50390625 27.09765625 C-0.85390625 27.09765625 0.79609375 27.09765625 2.49609375 27.09765625 C2.16609375 28.74765625 1.83609375 30.39765625 1.49609375 32.09765625 C3.33049803 29.6609559 5.16377465 27.2234241 6.99609375 24.78515625 C7.54056152 24.06126709 8.0850293 23.33737793 8.64599609 22.59155273 C12.49784447 17.45935405 16.27018955 12.2803181 19.97265625 7.0390625 C21.49609375 5.09765625 21.49609375 5.09765625 23.49609375 4.09765625 C18.58162541 19.72375704 9.57818356 31.92259898 -0.59204102 44.56396484 C-2.56215447 47.08683052 -2.56215447 47.08683052 -4.22631836 49.93212891 C-8.35181876 56.69251828 -8.35181876 56.69251828 -11.73803711 57.88330078 C-14.21625564 58.08151771 -16.47017517 57.98152816 -18.94140625 57.72265625 C-19.76833984 57.67753906 -20.59527344 57.63242188 -21.44726562 57.5859375 C-23.46932074 57.4690557 -25.48759947 57.28968547 -27.50390625 57.09765625 C-25.9018904 52.73832466 -24.21755313 48.41402216 -22.50390625 44.09765625 C-22.19855957 43.31680664 -21.89321289 42.53595703 -21.57861328 41.73144531 C-20.6004057 39.25879468 -19.5874938 36.80287204 -18.56640625 34.34765625 C-18.25509766 33.54924316 -17.94378906 32.75083008 -17.62304688 31.92822266 C-16.71853579 29.80372691 -15.88587472 27.94852767 -14.50390625 26.09765625 C-11.3359375 25.2109375 -11.3359375 25.2109375 -8.50390625 25.09765625 C-7.06752927 23.14602507 -7.06752927 23.14602507 -6.50390625 21.09765625 C-8.15390625 21.09765625 -9.80390625 21.09765625 -11.50390625 21.09765625 C-10.85048051 16.41477175 -9.02673242 12.56390839 -7.00390625 8.34765625 C-6.68292969 7.66316406 -6.36195313 6.97867188 -6.03125 6.2734375 C-3.11982321 0.12167797 -3.11982321 0.12167797 0 0 Z " fill="#D7FA00" transform="translate(148.50390625,38.90234375)"/>
<path d="M0 0 C2.88258287 1.82367488 4.48467791 2.96935582 6 6 C6.15344209 7.88472859 6.24959571 9.77427874 6.31640625 11.6640625 C6.35830078 12.78554688 6.40019531 13.90703125 6.44335938 15.0625 C6.48267578 16.238125 6.52199219 17.41375 6.5625 18.625 C6.60568359 19.80835937 6.64886719 20.99171875 6.69335938 22.2109375 C6.79967426 25.14050328 6.90170642 28.07015588 7 31 C5.02 31 3.04 31 1 31 C0.67 30.01 0.34 29.02 0 28 C-1.546875 29.0209375 -1.546875 29.0209375 -3.125 30.0625 C-5.86805438 31.62205915 -6.86178751 32.00276425 -10.125 31.9375 C-13.26476661 30.91366306 -15.45122326 30.12398062 -18 28 C-19.79683858 24.03198147 -20.27649997 21.95853324 -19.0625 17.75 C-16.42728081 14.23637441 -14.1507481 13.31076256 -10 12 C-8.68 12 -7.36 12 -6 12 C-6 9.69 -6 7.38 -6 5 C-8.62187494 6.04874998 -9.79371361 6.64931313 -11.25 9.125 C-11.4975 9.74375 -11.745 10.3625 -12 11 C-13.98 11 -15.96 11 -18 11 C-17.51136364 4.64772727 -17.51136364 4.64772727 -15.125 1.625 C-10.43870551 -1.95863696 -5.49174119 -1.15615604 0 0 Z M-10 18 C-10.66 18.66 -11.32 19.32 -12 20 C-11.67958603 22.60280568 -11.67958603 22.60280568 -11 25 C-9.35 25.33 -7.7 25.66 -6 26 C-6 23.36 -6 20.72 -6 18 C-7.32 18 -8.64 18 -10 18 Z " fill="#030400" transform="translate(81,35)"/>
<path d="M0 0 C3.31428936 1.3119062 4.54391198 2.06163417 6.09692383 5.25683594 C7.06116913 8.18580599 7.3297349 10.62660699 7.44921875 13.703125 C7.49240234 14.7653125 7.53558594 15.8275 7.58007812 16.921875 C7.63325195 18.56929687 7.63325195 18.56929687 7.6875 20.25 C7.73455078 21.36375 7.78160156 22.4775 7.83007812 23.625 C8.05538497 29.6824299 8.05538497 29.6824299 8 32 C7 33 7 33 4.5625 33.25 C3.716875 33.1675 2.87125 33.085 2 33 C1.34 32.01 0.68 31.02 0 30 C-1.03125 30.515625 -2.0625 31.03125 -3.125 31.5625 C-7.59578921 33.47726225 -10.7367795 32.81727407 -15.25 31.1875 C-17.50524483 29.6571553 -18.13795037 28.5861489 -19 26 C-19.47807598 22.25507153 -19.30959786 20.52393483 -17.375 17.25 C-12.51751383 12.648171 -6.38304566 12.53901274 0 12 C-0.66 10.35 -1.32 8.7 -2 7 C-4.64 7 -7.28 7 -10 7 C-10.33 8.65 -10.66 10.3 -11 12 C-13.31 12 -15.62 12 -18 12 C-17.63166144 5.61546499 -17.63166144 5.61546499 -14.5625 2.625 C-9.67412223 -0.47494688 -5.72019647 -0.49545009 0 0 Z M-11 20 C-11.98617135 21.94285168 -11.98617135 21.94285168 -12 24 C-11.17221913 26.23003121 -11.17221913 26.23003121 -8.75 26.8125 C-5.24788862 27.05128032 -3.79972471 26.0220234 -1 24 C0.29633621 22.93354885 0.29633621 22.93354885 0.0625 20.4375 C0.041875 19.633125 0.02125 18.82875 0 18 C-4.15467129 17.80675947 -7.3382625 17.90757857 -11 20 Z " fill="#000000" transform="translate(21,34)"/>
<path d="M0 0 C1.37478516 0.01740234 1.37478516 0.01740234 2.77734375 0.03515625 C3.69644531 0.04417969 4.61554688 0.05320313 5.5625 0.0625 C6.27277344 0.07410156 6.98304688 0.08570313 7.71484375 0.09765625 C7.35918335 0.89816406 7.35918335 0.89816406 6.99633789 1.71484375 C5.91241891 4.17112475 4.84484265 6.63419725 3.77734375 9.09765625 C3.40416016 9.93683594 3.03097656 10.77601562 2.64648438 11.640625 C0.39333044 16.8776855 -0.87010443 21.40551701 -1.28515625 27.09765625 C1.69280316 26.5577495 1.69280316 26.5577495 4.71484375 25.09765625 C6.1658677 22.31505035 6.1658677 22.31505035 6.83984375 18.97265625 C10.41766951 5.55209823 10.41766951 5.55209823 15.71484375 1.09765625 C18.40234375 0.91015625 18.40234375 0.91015625 20.71484375 1.09765625 C22.5948646 5.96017932 20.15611102 9.60948632 18.1953125 14.11328125 C16.92291888 16.67821193 15.60794903 18.87298355 13.90234375 21.16015625 C11.41621068 23.88825758 11.41621068 23.88825758 11.71484375 27.09765625 C16.75796771 26.29075642 18.99636237 25.24232062 22.08984375 21.09765625 C25.32786465 16.38780766 25.83015925 13.78236177 25.77734375 7.97265625 C25.76832031 6.69132812 25.75929687 5.41 25.75 4.08984375 C25.73839844 3.10242187 25.72679687 2.115 25.71484375 1.09765625 C27.65234375 0.53515625 27.65234375 0.53515625 29.71484375 0.09765625 C31.31810417 1.70091667 30.96233924 3.38066034 31.02734375 5.59765625 C30.89512202 14.89284382 26.13771186 22.57077408 19.71484375 29.09765625 C17.17144916 30.98344311 14.80628602 32.35726881 11.71484375 33.09765625 C8.83984375 32.41015625 8.83984375 32.41015625 6.71484375 31.09765625 C6.05484375 30.76765625 5.39484375 30.43765625 4.71484375 30.09765625 C3.87953125 30.56171875 3.87953125 30.56171875 3.02734375 31.03515625 C-0.24643664 32.53932562 -2.72965946 32.48552863 -6.28515625 32.09765625 C-8.05078125 30.35546875 -8.05078125 30.35546875 -9.28515625 28.09765625 C-8.96914589 19.79109826 -2.94577222 12.54059804 1.71484375 6.09765625 C-0.26515625 6.09765625 -2.24515625 6.09765625 -4.28515625 6.09765625 C-3.21536826 0.1374089 -3.21536826 0.1374089 0 0 Z M14.71484375 6.09765625 C11.26548758 10.3748579 11.04851645 14.81642284 10.71484375 20.09765625 C13.90166238 17.16078418 15.21379555 14.17192992 16.71484375 10.09765625 C16.71484375 8.77765625 16.71484375 7.45765625 16.71484375 6.09765625 C16.05484375 6.09765625 15.39484375 6.09765625 14.71484375 6.09765625 Z " fill="#000000" transform="translate(216.28515625,33.90234375)"/>
<path d="M0 0 C1.98 0 3.96 0 6 0 C6.33 0.99 6.66 1.98 7 3 C7.495 2.505 7.99 2.01 8.5 1.5 C11.9543309 -0.57259854 15.11520736 -0.57152019 19 0 C21.85334445 1.24058454 23.43911898 2.12470237 25.1184082 4.74536133 C26.21838169 7.55850315 26.2426278 9.80567513 26.23046875 12.82421875 C26.22853516 13.93474609 26.22660156 15.04527344 26.22460938 16.18945312 C26.20624023 17.92098633 26.20624023 17.92098633 26.1875 19.6875 C26.18685547 20.85345703 26.18621094 22.01941406 26.18554688 23.22070312 C26.14026365 31.85973635 26.14026365 31.85973635 25 33 C22.5 33.125 22.5 33.125 20 33 C18.25493385 31.25493385 18.76717216 28.80960857 18.68359375 26.43359375 C18.64169922 25.30888672 18.59980469 24.18417969 18.55664062 23.02539062 C18.51732422 21.84138672 18.47800781 20.65738281 18.4375 19.4375 C18.39431641 18.24962891 18.35113281 17.06175781 18.30664062 15.83789062 C18.20016454 12.89205216 18.09815159 9.9461257 18 7 C14.62563814 6.66619186 14.62563814 6.66619186 11 7 C8.17349852 9.83583388 7.61489505 12.01542885 7.5234375 15.94921875 C7.4925 16.87927734 7.4615625 17.80933594 7.4296875 18.76757812 C7.41164063 19.73115234 7.39359375 20.69472656 7.375 21.6875 C7.32422194 23.60818025 7.26974046 25.52876743 7.2109375 27.44921875 C7.19337402 28.29830811 7.17581055 29.14739746 7.15771484 30.0222168 C7 32 7 32 6 33 C3.5 33.125 3.5 33.125 1 33 C0 32 0 32 -0.11352539 28.94897461 C-0.11336634 27.60008729 -0.10767612 26.25119386 -0.09765625 24.90234375 C-0.0962413 24.19348526 -0.09482635 23.48462677 -0.09336853 22.75428772 C-0.08775443 20.48198288 -0.07519963 18.20977525 -0.0625 15.9375 C-0.05748681 14.40039204 -0.05292359 12.86328255 -0.04882812 11.32617188 C-0.03778042 7.55074358 -0.02050641 3.77538829 0 0 Z " fill="#000000" transform="translate(94,34)"/>
<path d="M0 0 C2.31 0 4.62 0 7 0 C10.1385602 6.94340693 13.0922831 13.95712832 16 21 C19.52621579 14.08261498 22.83294469 7.08881317 26 0 C27.98 0 29.96 0 32 0 C31.41319749 4.43044182 30.28502653 8.13345028 28.53125 12.23828125 C28.04269531 13.38748047 27.55414063 14.53667969 27.05078125 15.72070312 C26.53902344 16.90599609 26.02726562 18.09128906 25.5 19.3125 C24.73236328 21.11944336 24.73236328 21.11944336 23.94921875 22.96289062 C20.14959206 31.85040794 20.14959206 31.85040794 19 33 C16.625 33.375 16.625 33.375 14 33 C11.51070183 29.46092924 9.92016458 25.63735098 8.30078125 21.640625 C7.81416016 20.44308594 7.32753906 19.24554688 6.82617188 18.01171875 C6.57794678 17.39474121 6.32972168 16.77776367 6.07397461 16.14208984 C5.30846334 14.23996981 4.53658249 12.34053009 3.76367188 10.44140625 C0 1.14528747 0 1.14528747 0 0 Z " fill="#000000" transform="translate(29,34)"/>
<path d="M0 0 C3.09681787 2.28895234 4.61971885 4.06048186 6.0625 7.625 C5.91548086 15.56403366 2.45133548 22.71279999 -3.0078125 28.39453125 C-6.35867483 31.09493207 -9.70463424 32.58608294 -14 33 C-17.74111033 31.911677 -19.3426456 31.07567084 -21.375 27.75 C-23.16503234 19.87385769 -21.1387635 14.67871699 -17 8 C-12.15143557 2.3029368 -7.71843566 -1.10263367 0 0 Z M-7.4375 3.875 C-12.37409775 9.23821731 -15.63915197 16.92359025 -17 24 C-16.7138877 27.31460798 -16.7138877 27.31460798 -16 30 C-13.71305777 30.50379029 -13.71305777 30.50379029 -11 30 C-5.2178095 24.35883854 -1.57974085 16.89870427 0 9 C-0.29257208 5.189815 -0.29257208 5.189815 -1 2 C-4.98412212 1.59352616 -4.98412212 1.59352616 -7.4375 3.875 Z " fill="#000000" transform="translate(202,34)"/>
<path d="M0 0 C-2.01336217 4.19450452 -3.58674739 6.94008058 -7.5 9.5 C-18.59474021 17.25394483 -26.3579943 31.02729713 -34 42 C-35.57333322 38.85333356 -34.82834384 36.35147812 -34.11328125 32.98046875 C-32.03458881 27.41540795 -28.07848575 23.06115457 -24.29736328 18.56201172 C-22.40235386 16.28044035 -20.61947806 13.91404678 -18.8125 11.5625 C-13.4751401 4.92861542 -8.93921827 -0.24160049 0 0 Z " fill="#D5F600" transform="translate(212,1)"/>
<path d="M0 0 C1.4540625 0.0309375 1.4540625 0.0309375 2.9375 0.0625 C3.25 2.25 3.25 2.25 2.9375 5.0625 C0.5625 7.875 0.5625 7.875 -2.0625 10.0625 C-2.7225 10.0625 -3.3825 10.0625 -4.0625 10.0625 C-4.08939216 8.58343108 -4.10884621 7.10422517 -4.125 5.625 C-4.13660156 4.80128906 -4.14820312 3.97757813 -4.16015625 3.12890625 C-4.00103255 -0.23815127 -3.43619093 0.07012635 0 0 Z " fill="#B4D300" transform="translate(79.0625,50.9375)"/>
<path d="M0 0 C2.375 0.3125 2.375 0.3125 5 1 C7 4 7 4 7 8 C4.69 8 2.38 8 0 8 C0 5.36 0 2.72 0 0 Z " fill="#B5D300" transform="translate(75,39)"/>
</svg>
