<?xml version="1.0" encoding="UTF-8"?>
<svg version="1.1" xmlns="http://www.w3.org/2000/svg" width="250" height="67">
<path d="M0 0 C1.98 0 3.96 0 6 0 C6 1.65 6 3.3 6 5 C7.03125 4.7525 8.0625 4.505 9.125 4.25 C13.85299621 3.94496799 15.42298043 5.01915036 19 8 C20.68306823 11.36613647 20.26885525 15.11433508 20.3125 18.8125 C20.34150391 19.62009766 20.37050781 20.42769531 20.40039062 21.25976562 C20.44409359 25.36448237 20.34206816 27.45621743 18.10546875 31.01171875 C12.31641113 36.47856537 10.7700644 34 0 34 C0 22.78 0 11.56 0 0 Z M8 10 C5.54608431 13.68087353 5.77197241 16.44355588 5.875 20.6875 C5.88402344 21.38939453 5.89304688 22.09128906 5.90234375 22.81445312 C5.92586296 24.54311525 5.96173287 26.27160145 6 28 C8.31 28 10.62 28 13 28 C14.8466683 24.85409472 15.24774283 22.56849948 15.1875 18.9375 C15.18105469 18.08027344 15.17460937 17.22304688 15.16796875 16.33984375 C15.08590034 13.84522032 15.08590034 13.84522032 14 11 C11.03 10.505 11.03 10.505 8 10 Z " fill="#000000" transform="translate(230,0)"/>
<path d="M0 0 C0 9.57 0 19.14 0 29 C-14 29 -14 29 -19 25 C-20.62062503 21.75874994 -20.26791352 18.24550138 -20.3125 14.6875 C-20.34150391 13.92759766 -20.37050781 13.16769531 -20.40039062 12.38476562 C-20.44542803 8.39722281 -20.3002138 6.47229512 -18.10546875 3.01953125 C-12.35020726 -2.50082161 -10.75983591 0 0 0 Z M-14 7 C-14.09975032 9.51136104 -14.13882183 11.98903415 -14.125 14.5 C-14.12886719 15.20253906 -14.13273438 15.90507812 -14.13671875 16.62890625 C-14.44390931 20.10428808 -14.44390931 20.10428808 -13 23 C-11.00041636 23.04080783 -8.99954746 23.04254356 -7 23 C-5.50658297 20.01316593 -5.86824822 17.25600226 -5.875 13.9375 C-5.87242187 12.66777344 -5.86984375 11.39804687 -5.8671875 10.08984375 C-5.64564416 7.12899299 -5.64564416 7.12899299 -7 6 C-10.80240375 5.52263947 -10.80240375 5.52263947 -14 7 Z " fill="#000000" transform="translate(222,5)"/>
<path d="M0 0 C2.8100346 1.79363911 4.50940468 3.01880935 6 6 C6.1377685 9.67015275 6.04271961 13.32611348 6 17 C1.38 17 -3.24 17 -8 17 C-7.67 18.65 -7.34 20.3 -7 22 C-2.83775548 22.10041428 -2.83775548 22.10041428 1.25 21.4375 C3 21 3 21 5 22 C4.64978759 24.53903996 4.15988127 25.82093298 2.4375 27.75 C-1.01829953 29.52220489 -4.24078214 29.6936652 -8 29 C-10.8100346 27.20636089 -12.50940468 25.98119065 -14 23 C-14.17759374 20.21381629 -14.2775623 17.47552812 -14.3125 14.6875 C-14.34150391 13.92759766 -14.37050781 13.16769531 -14.40039062 12.38476562 C-14.44542803 8.39722281 -14.3002138 6.47229512 -12.10546875 3.01953125 C-8.47134607 -0.46625989 -4.87916965 -0.70103012 0 0 Z M-7 6 C-7 6.33 -7 6.66 -7 7 C-5.02 7 -3.04 7 -1 7 C-1 6.67 -1 6.34 -1 6 C-2.98 6 -4.96 6 -7 6 Z M-8 7 C-8 8.65 -8 10.3 -8 12 C-7.67 12 -7.34 12 -7 12 C-7 10.35 -7 8.7 -7 7 C-7.33 7 -7.66 7 -8 7 Z M-1 7 C-1 8.65 -1 10.3 -1 12 C-0.67 12 -0.34 12 0 12 C0 10.35 0 8.7 0 7 C-0.33 7 -0.66 7 -1 7 Z M-6 8 C-2 9 -2 9 -2 9 Z M-6 10 C-2 11 -2 11 -2 11 Z " fill="#000000" transform="translate(40,5)"/>
<path d="M0 0 C2.69105198 2.17574416 4.45532928 3.91065856 6 7 C6.13677734 10.33736713 6.04283944 13.6585233 6 17 C1.38 17 -3.24 17 -8 17 C-7.67 18.65 -7.34 20.3 -7 22 C-4.30517531 22.07699499 -1.96005512 21.99163944 0.6875 21.4375 C3 21 3 21 5 22 C3.75023244 25.65316671 3.32901247 26.78065836 0 29 C-6.94677871 29.67226891 -6.94677871 29.67226891 -10.9375 27.125 C-14.63126909 23.31929851 -14.24911532 19.7455978 -14.3125 14.6875 C-14.34150391 13.92759766 -14.37050781 13.16769531 -14.40039062 12.38476562 C-14.44542803 8.39722281 -14.3002138 6.47229512 -12.10546875 3.01953125 C-8.50737468 -0.43170184 -4.84472683 -0.8538599 0 0 Z M-7 6 C-7.33 7.65 -7.66 9.3 -8 11 C-6.02 11 -4.04 11 -2 11 C-1.67 9.35 -1.34 7.7 -1 6 C-2.98 6 -4.96 6 -7 6 Z M-1 8 C0 12 0 12 0 12 Z " fill="#000000" transform="translate(163,5)"/>
<path d="M0 0 C2.371875 -0.103125 4.74375 -0.20625 7.1875 -0.3125 C7.92508545 -0.35802002 8.6626709 -0.40354004 9.42260742 -0.45043945 C13.31100956 -0.53183072 14.86101783 -0.11077751 17.92578125 2.33203125 C20.73347478 5.94343366 21.12455624 8.4482206 21.09765625 12.88671875 C21.09443359 13.82451172 21.09121094 14.76230469 21.08789062 15.72851562 C21.07951172 16.70498047 21.07113281 17.68144531 21.0625 18.6875 C21.05798828 19.67556641 21.05347656 20.66363281 21.04882812 21.68164062 C21.03704303 24.12115474 21.02059011 26.56054689 21 29 C19.02 29 17.04 29 15 29 C14.97494385 28.44014404 14.9498877 27.88028809 14.92407227 27.3034668 C14.80796255 24.76458695 14.6853042 22.22606447 14.5625 19.6875 C14.52318359 18.80642578 14.48386719 17.92535156 14.44335938 17.01757812 C14.38051758 15.74624023 14.38051758 15.74624023 14.31640625 14.44921875 C14.27974854 13.66893311 14.24309082 12.88864746 14.20532227 12.0847168 C14.05874737 9.80670899 14.05874737 9.80670899 13 7 C11.35 7 9.7 7 8 7 C6.82530556 9.34938888 6.79965111 10.95073205 6.68359375 13.5703125 C6.64169922 14.46621094 6.59980469 15.36210937 6.55664062 16.28515625 C6.51732422 17.22230469 6.47800781 18.15945312 6.4375 19.125 C6.37272461 20.54232422 6.37272461 20.54232422 6.30664062 21.98828125 C6.20040928 24.32537092 6.09836824 26.6625683 6 29 C4.02 29 2.04 29 0 29 C0 19.43 0 9.86 0 0 Z " fill="#000000" transform="translate(53,5)"/>
<path d="M0 0 C1.98 0 3.96 0 6 0 C6.33 7.59 6.66 15.18 7 23 C8.98 22.67 10.96 22.34 13 22 C13.33 14.74 13.66 7.48 14 0 C15.98 0 17.96 0 20 0 C20.14592789 3.70791544 20.23427895 7.41508726 20.3125 11.125 C20.35439453 12.17171875 20.39628906 13.2184375 20.43945312 14.296875 C20.57767303 23.03237313 20.57767303 23.03237313 17.76171875 26.69921875 C14.20524833 29.66210571 12.5968707 29.8237966 8.15625 29.53515625 C4.72421781 28.68336565 3.0915141 26.74511226 1 24 C-0.25248502 21.49502996 -0.11374406 19.79146726 -0.09765625 16.9921875 C-0.09443359 16.00605469 -0.09121094 15.01992188 -0.08789062 14.00390625 C-0.07951172 12.97136719 -0.07113281 11.93882813 -0.0625 10.875 C-0.05798828 9.83472656 -0.05347656 8.79445313 -0.04882812 7.72265625 C-0.03701952 5.14838038 -0.02055075 2.57421854 0 0 Z " fill="#000000" transform="translate(101,5)"/>
<path d="M0 0 C2.97 0 5.94 0 9 0 C9 0.99 9 1.98 9 3 C10.98 3 12.96 3 15 3 C15 6.3 15 9.6 15 13 C13.02 13 11.04 13 9 13 C9.33 17.62 9.66 22.24 10 27 C12.475 27.99 12.475 27.99 15 29 C15 30.65 15 32.3 15 34 C10.64770828 34.42669527 8.67113339 34.51064497 5.125 31.8125 C3.01736482 29.02298284 2.29445758 27.43533844 2 24 C1.34 24.33 0.68 24.66 0 25 C-0.1972935 21.58382503 -0.38112295 18.16705407 -0.5625 14.75 C-0.61857422 13.78191406 -0.67464844 12.81382813 -0.73242188 11.81640625 C-0.78076172 10.88183594 -0.82910156 9.94726562 -0.87890625 8.984375 C-0.9260376 8.12553711 -0.97316895 7.26669922 -1.02172852 6.38183594 C-1 4 -1 4 0 0 Z " fill="#000000" transform="translate(80,0)"/>
<path d="M0 0 C1.98 0 3.96 0 6 0 C7.8984375 1.96875 7.8984375 1.96875 9.375 4.5 C9.87773438 5.3353125 10.38046875 6.170625 10.8984375 7.03125 C11.26195312 7.6809375 11.62546875 8.330625 12 9 C12.33 6.03 12.66 3.06 13 0 C14.65 0 16.3 0 18 0 C18 7.26 18 14.52 18 22 C16.35 22 14.7 22 13 22 C11.19921875 20.03125 11.19921875 20.03125 9.6875 17.5 C9.17574219 16.6646875 8.66398437 15.829375 8.13671875 14.96875 C7.76160156 14.3190625 7.38648438 13.669375 7 13 C6.67 15.97 6.34 18.94 6 22 C4.02 22 2.04 22 0 22 C0 14.74 0 7.48 0 0 Z " fill="#000000" transform="translate(35,41)"/>
<path d="M0 0 C1.98 0 3.96 0 6 0 C7.65 3.96 9.3 7.92 11 12 C12.65 8.04 14.3 4.08 16 0 C17.98 0 19.96 0 22 0 C21.33372522 3.82263641 20.26037893 7.31304378 18.93359375 10.95703125 C18.53076172 12.06884766 18.12792969 13.18066406 17.71289062 14.32617188 C17.29201172 15.47666016 16.87113281 16.62714844 16.4375 17.8125 C16.01275391 18.98232422 15.58800781 20.15214844 15.15039062 21.35742188 C14.10344692 24.23945793 13.05321116 27.12024968 12 30 C11.34 30 10.68 30 10 30 C8.32239667 25.75423582 6.65982557 21.50274227 5 17.25 C4.52304688 16.0434375 4.04609375 14.836875 3.5546875 13.59375 C3.10351562 12.43359375 2.65234375 11.2734375 2.1875 10.078125 C1.55908203 8.47565918 1.55908203 8.47565918 0.91796875 6.84082031 C0 4 0 4 0 0 Z " fill="#000000" transform="translate(0,5)"/>
<path d="M0 0 C1.98 0 3.96 0 6 0 C6 9.24 6 18.48 6 28 C8.31 28 10.62 28 13 28 C13 29.98 13 31.96 13 34 C8.71 34 4.42 34 0 34 C0 22.78 0 11.56 0 0 Z " fill="#010101" transform="translate(184,0)"/>
<path d="M0 0 C14 0 14 0 16 1 C15.34 2.65 14.68 4.3 14 6 C11.69 6.33 9.38 6.66 7 7 C6.67 14.26 6.34 21.52 6 29 C4.02 29 2.04 29 0 29 C0 19.43 0 9.86 0 0 Z " fill="#000000" transform="translate(130,5)"/>
<path d="M0 0 C1.58093717 -0.1357675 3.16526952 -0.23234745 4.75 -0.3125 C5.63171875 -0.37050781 6.5134375 -0.42851563 7.421875 -0.48828125 C10 0 10 0 12.3125 2.09375 C14.36242132 5.62417006 14.41363732 7.7624764 14.25 11.8125 C14.21390625 12.97394531 14.1778125 14.13539062 14.140625 15.33203125 C14.07101563 16.65267578 14.07101563 16.65267578 14 18 C5.27118644 18.45762712 5.27118644 18.45762712 0.875 16.875 C-1 15 -1 15 -1.375 11.9375 C-1 9 -1 9 0 7 C0.04022391 4.6670134 0.04320247 2.33293334 0 0 Z M1 4 C2.83883881 6.28728734 2.83883881 6.28728734 5.625 6.125 C6.40875 6.08375 7.1925 6.0425 8 6 C5.35261084 4.5393715 4.10551666 4 1 4 Z M4 11 C4 11.66 4 12.32 4 13 C5.32 13 6.64 13 8 13 C8 12.34 8 11.68 8 11 C6.68 11 5.36 11 4 11 Z " fill="#000000" transform="translate(120,45)"/>
<path d="M0 0 C1.93681161 -0.08107583 3.8745934 -0.13922475 5.8125 -0.1875 C6.89144531 -0.22230469 7.97039062 -0.25710937 9.08203125 -0.29296875 C12 0 12 0 13.90625 1.28125 C15.73473366 4.15458146 14.66102502 6.81506126 14 10 C11.69 10.66 9.38 11.32 7 12 C9.31 12.33 11.62 12.66 14 13 C14 14.65 14 16.3 14 18 C4.85365854 18.30487805 4.85365854 18.30487805 2 16 C0.1621996 12.27189063 -0.2245379 9.31832298 -0.125 5.1875 C-0.10695313 4.21167969 -0.08890625 3.23585937 -0.0703125 2.23046875 C-0.04710938 1.49441406 -0.02390625 0.75835937 0 0 Z M6 4 C7 7 7 7 7 7 Z " fill="#000000" transform="translate(75,45)"/>
<path d="M0 0 C1.60332791 -0.08121924 3.20784026 -0.13929134 4.8125 -0.1875 C6.15248047 -0.23970703 6.15248047 -0.23970703 7.51953125 -0.29296875 C10 0 10 0 11.8125 1.0625 C13.65116062 4.06241996 13.28299327 6.71791125 13.1875 10.1875 C13.16042969 11.45980469 13.13335937 12.73210938 13.10546875 14.04296875 C13.07066406 15.01878906 13.03585938 15.99460937 13 17 C12.67 17 12.34 17 12 17 C12 14.69 12 12.38 12 10 C10.68 10 9.36 10 8 10 C8 12.31 8 14.62 8 17 C7.67 17 7.34 17 7 17 C7 13.04 7 9.08 7 5 C6.67 9.29 6.34 13.58 6 18 C4.02 18 2.04 18 0 18 C-0.1954625 15.75067773 -0.38108226 13.50049858 -0.5625 11.25 C-0.66691406 9.99703125 -0.77132812 8.7440625 -0.87890625 7.453125 C-0.97876723 4.60547636 -0.90584295 2.65713933 0 0 Z " fill="#000000" transform="translate(92,45)"/>
<path d="M0 0 C0 1.32 0 2.64 0 4 C-3.3 4 -6.6 4 -10 4 C-8.73053486 8.82442184 -8.73053486 8.82442184 -5 12 C-5 11.34 -5 10.68 -5 10 C-5.66 10 -6.32 10 -7 10 C-7 9.01 -7 8.02 -7 7 C-4.69 7 -2.38 7 0 7 C0 10.3 0 13.6 0 17 C-2.44777839 18.2238892 -3.73390541 18.016364 -6.4375 17.75 C-7.61119141 17.64945313 -7.61119141 17.64945313 -8.80859375 17.546875 C-11.44000284 16.89019537 -12.38832998 16.16381624 -14 14 C-15.04749561 10.57630628 -15.25567655 7.18250404 -14.5 3.6875 C-10.48798446 -0.82601748 -5.58549007 -1.49854612 0 0 Z M-11 6 C-11 7.98 -11 9.96 -11 12 C-10.67 12 -10.34 12 -10 12 C-10 10.02 -10 8.04 -10 6 C-10.33 6 -10.66 6 -11 6 Z M-4 10 C-3 14 -3 14 -3 14 Z " fill="#000000" transform="translate(158,45)"/>
<path d="M0 0 C1.98 0 3.96 0 6 0 C6 1.32 6 2.64 6 4 C6.99 4 7.98 4 9 4 C9 7.96 9 11.92 9 16 C8.01 16.33 7.02 16.66 6 17 C6.99 17 7.98 17 9 17 C9 18.65 9 20.3 9 22 C5.62537285 21.45276317 3.91765 20.9451 1 19 C-0.25433458 15.23699626 -0.10695422 11.72789091 -0.0625 7.8125 C-0.05798828 7.06291016 -0.05347656 6.31332031 -0.04882812 5.54101562 C-0.03706354 3.69397617 -0.01912865 1.84697787 0 0 Z " fill="#000000" transform="translate(64,41)"/>
<path d="M0 0 C7.51953125 -0.390625 7.51953125 -0.390625 10 0 C11.82421875 1.765625 11.82421875 1.765625 13 4 C13 5.32 13 6.64 13 8 C11.35 8 9.7 8 8 8 C7.67 7.34 7.34 6.68 7 6 C6.67 9.96 6.34 13.92 6 18 C4.02 18 2.04 18 0 18 C0 12.06 0 6.12 0 0 Z " fill="#000000" transform="translate(106,45)"/>
<path d="M0 0 C2.97 0 5.94 0 9 0 C12.07167873 3.07167873 12.8015614 3.8327895 13 8 C11.625 10.625 11.625 10.625 10 13 C9.67 13.99 9.34 14.98 9 16 C7.68 16 6.36 16 5 16 C4.67 16.66 4.34 17.32 4 18 C2.68 18 1.36 18 0 18 C0 12.06 0 6.12 0 0 Z M4 3 C3.67 4.98 3.34 6.96 3 9 C4.98 9.99 4.98 9.99 7 11 C9.28728734 9.16116119 9.28728734 9.16116119 9.125 6.375 C9.08375 5.59125 9.0425 4.8075 9 4 C7.35 3.67 5.7 3.34 4 3 Z " fill="#000000" transform="translate(200,49)"/>
<path d="M0 0 C1.32 0 2.64 0 4 0 C4 3.63 4 7.26 4 11 C4.99 10.67 5.98 10.34 7 10 C7.66 6.7 8.32 3.4 9 0 C9.99 0 10.98 0 12 0 C12 4.62 12 9.24 12 14 C10.576875 14.061875 9.15375 14.12375 7.6875 14.1875 C6.48673828 14.23970703 6.48673828 14.23970703 5.26171875 14.29296875 C3 14 3 14 1.21875 12.84375 C-0.48719934 10.26295485 -0.29557492 8.37462267 -0.1875 5.3125 C-0.16042969 4.31863281 -0.13335937 3.32476562 -0.10546875 2.30078125 C-0.07066406 1.54152344 -0.03585938 0.78226563 0 0 Z " fill="#000000" transform="translate(185,49)"/>
<path d="M0 0 C2.32749345 3.49124017 2.50299316 4.89222251 2 9 C0.4375 11.4375 0.4375 11.4375 -2 13 C-5.625 12.9375 -5.625 12.9375 -9 12 C-11.46943529 8.29584707 -11.46913089 6.37855495 -11 2 C-7.88980721 -1.98104677 -4.56233816 -1.18282841 0 0 Z M-6 2 C-6.66 2.66 -7.32 3.32 -8 4 C-7.67958603 6.60280568 -7.67958603 6.60280568 -7 9 C-5.02 9.495 -5.02 9.495 -3 10 C-1.80161791 7.67145537 -1.80161791 7.67145537 -1 5 C-1.66 4.01 -2.32 3.02 -3 2 C-3.99 2 -4.98 2 -6 2 Z " fill="#000000" transform="translate(181,50)"/>
<path d="M0 0 C1.98 0 3.96 0 6 0 C6 4.95 6 9.9 6 15 C4.02 15 2.04 15 0 15 C0 10.05 0 5.1 0 0 Z " fill="#000000" transform="translate(56,48)"/>
<path d="M0 0 C2.64 0 5.28 0 8 0 C8 0.99 8 1.98 8 3 C7.01 3.33 6.02 3.66 5 4 C4.67 7.3 4.34 10.6 4 14 C2.68 14 1.36 14 0 14 C0 9.38 0 4.76 0 0 Z " fill="#000000" transform="translate(161,49)"/>
<path d="M0 0 C0.33 0 0.66 0 1 0 C1 11.22 1 22.44 1 34 C0.67 34 0.34 34 0 34 C0 22.78 0 11.56 0 0 Z " fill="#000000" transform="translate(228,0)"/>
<path d="M0 0 C0.33 0 0.66 0 1 0 C1 11.22 1 22.44 1 34 C0.67 34 0.34 34 0 34 C0 22.78 0 11.56 0 0 Z " fill="#000000" transform="translate(182,0)"/>
<path d="M0 0 C-0.33 1.65 -0.66 3.3 -1 5 C-1.99 5.33 -2.98 5.66 -4 6 C-4.66 5.67 -5.32 5.34 -6 5 C-6 3.35 -6 1.7 -6 0 C-3.50907189 -1.24546405 -2.58919267 -0.7767578 0 0 Z " fill="#000000" transform="translate(62,41)"/>
<path d="M0 0 C0.33 0 0.66 0 1 0 C1 8.58 1 17.16 1 26 C2.65 26 4.3 26 6 26 C6 26.33 6 26.66 6 27 C4.02 27 2.04 27 0 27 C0 18.09 0 9.18 0 0 Z " fill="#000000" transform="translate(191,0)"/>
<path d="M0 0 C0.33 0 0.66 0 1 0 C1 9.57 1 19.14 1 29 C0.67 29 0.34 29 0 29 C0 19.43 0 9.86 0 0 Z " fill="#000000" transform="translate(223,5)"/>
<path d="M0 0 C0.33 0 0.66 0 1 0 C1 9.57 1 19.14 1 29 C0.67 29 0.34 29 0 29 C0 19.43 0 9.86 0 0 Z " fill="#000000" transform="translate(128,5)"/>
<path d="M0 0 C0.33 0 0.66 0 1 0 C1 9.57 1 19.14 1 29 C0.67 29 0.34 29 0 29 C0 19.43 0 9.86 0 0 Z " fill="#000000" transform="translate(51,5)"/>
<path d="M0 0 C0.33 0 0.66 0 1 0 C1 7.26 1 14.52 1 22 C-0.65 22 -2.3 22 -4 22 C-2.68 21.67 -1.36 21.34 0 21 C0 14.07 0 7.14 0 0 Z " fill="#000000" transform="translate(113,5)"/>
<path d="M0 0 C0.33 0 0.66 0 1 0 C2.5056121 7.02618978 1.64057643 13.89452919 1 21 C0.67 21 0.34 21 0 21 C0 14.07 0 7.14 0 0 Z " fill="#000000" transform="translate(54,41)"/>
<path d="M0 0 C1.65 0 3.3 0 5 0 C3.68 0.33 2.36 0.66 1 1 C1 5.29 1 9.58 1 14 C2.98 14.495 2.98 14.495 5 15 C3.35 15 1.7 15 0 15 C0 10.05 0 5.1 0 0 Z " fill="#000000" transform="translate(209,12)"/>
<path d="M0 0 C0.33 0 0.66 0 1 0 C1 7.59 1 15.18 1 23 C0.67 23 0.34 23 0 23 C0 15.41 0 7.82 0 0 Z " fill="#000000" transform="translate(122,5)"/>
<path d="M0 0 C0.33 0 0.66 0 1 0 C1 7.26 1 14.52 1 22 C0.67 22 0.34 22 0 22 C0 14.74 0 7.48 0 0 Z " fill="#000000" transform="translate(99,5)"/>
<path d="M0 0 C0.33 0 0.66 0 1 0 C1 4.29 1 8.58 1 13 C2.32 13 3.64 13 5 13 C5.33 12.34 5.66 11.68 6 11 C6 11.99 6 12.98 6 14 C4.02 14 2.04 14 0 14 C0 9.38 0 4.76 0 0 Z " fill="#000000" transform="translate(237,13)"/>
<path d="M0 0 C0.33 0 0.66 0 1 0 C1 6.93 1 13.86 1 21 C0.67 21 0.34 21 0 21 C0 14.07 0 7.14 0 0 Z " fill="#000000" transform="translate(137,13)"/>
<path d="M0 0 C0.33 0 0.66 0 1 0 C1 6.93 1 13.86 1 21 C0.67 21 0.34 21 0 21 C0 14.07 0 7.14 0 0 Z " fill="#000000" transform="translate(75,13)"/>
<path d="M0 0 C0.33 0 0.66 0 1 0 C1 6.93 1 13.86 1 21 C0.67 21 0.34 21 0 21 C0 14.07 0 7.14 0 0 Z " fill="#000000" transform="translate(108,5)"/>
<path d="M0 0 C0.33 0 0.66 0 1 0 C1 6.6 1 13.2 1 20 C0.67 20 0.34 20 0 20 C0 13.4 0 6.8 0 0 Z " fill="#000000" transform="translate(33,42)"/>
<path d="M0 0 C0.33 0 0.66 0 1 0 C1 5.94 1 11.88 1 18 C-1.24959782 13.50080435 -1.07922275 11.65560575 -0.625 6.75 C-0.51414063 5.48671875 -0.40328125 4.2234375 -0.2890625 2.921875 C-0.19367188 1.95765625 -0.09828125 0.9934375 0 0 Z " fill="#000000" transform="translate(198,49)"/>
<path d="M0 0 C0.33 0 0.66 0 1 0 C1 6.27 1 12.54 1 19 C0.67 19 0.34 19 0 19 C0 12.73 0 6.46 0 0 Z " fill="#000000" transform="translate(60,15)"/>
<path d="M0 0 C2.475 0.495 2.475 0.495 5 1 C5 2.98 5 4.96 5 7 C4.67 7 4.34 7 4 7 C4 5.35 4 3.7 4 2 C3.01 2 2.02 2 1 2 C1 4.31 1 6.62 1 9 C0.67 9 0.34 9 0 9 C0 6.03 0 3.06 0 0 Z " fill="#000000" transform="translate(113,53)"/>
<path d="M0 0 C0.33 0 0.66 0 1 0 C1 5.94 1 11.88 1 18 C0.67 18 0.34 18 0 18 C0 12.06 0 6.12 0 0 Z " fill="#000000" transform="translate(147,10)"/>
<path d="M0 0 C0.33 0 0.66 0 1 0 C1 5.61 1 11.22 1 17 C0.67 17 0.34 17 0 17 C0 11.39 0 5.78 0 0 Z " fill="#000000" transform="translate(200,11)"/>
<path d="M0 0 C0.33 0 0.66 0 1 0 C1 5.61 1 11.22 1 17 C0.67 17 0.34 17 0 17 C0 11.39 0 5.78 0 0 Z " fill="#000000" transform="translate(24,11)"/>
<path d="M0 0 C0.99 0 1.98 0 3 0 C3.1875 2.8125 3.1875 2.8125 3 6 C2.01 6.99 1.02 7.98 0 9 C0 6.03 0 3.06 0 0 Z " fill="#000000" transform="translate(166,53)"/>
<path d="M0 0 C0.33 0 0.66 0 1 0 C1 3.96 1 7.92 1 12 C1.99 12.33 2.98 12.66 4 13 C2.68 13 1.36 13 0 13 C0 8.71 0 4.42 0 0 Z " fill="#000000" transform="translate(90,14)"/>
<path d="M0 0 C4.95 0 9.9 0 15 0 C15 0.33 15 0.66 15 1 C10.05 1 5.1 1 0 1 C0 0.67 0 0.34 0 0 Z " fill="#000000" transform="translate(207,3)"/>
<path d="M0 0 C4.95 0 9.9 0 15 0 C15 0.33 15 0.66 15 1 C10.05 1 5.1 1 0 1 C0 0.67 0 0.34 0 0 Z " fill="#000000" transform="translate(53,3)"/>
<path d="M0 0 C4.62 0 9.24 0 14 0 C14 0.33 14 0.66 14 1 C9.38 1 4.76 1 0 1 C0 0.67 0 0.34 0 0 Z " fill="#000000" transform="translate(230,35)"/>
<path d="M0 0 C4.62 0 9.24 0 14 0 C14 0.33 14 0.66 14 1 C9.38 1 4.76 1 0 1 C0 0.67 0 0.34 0 0 Z " fill="#000000" transform="translate(208,35)"/>
<path d="M0 0 C4.62 0 9.24 0 14 0 C14 0.33 14 0.66 14 1 C9.38 1 4.76 1 0 1 C0 0.67 0 0.34 0 0 Z " fill="#000000" transform="translate(130,3)"/>
<path d="M0 0 C4.29 0 8.58 0 13 0 C13 0.33 13 0.66 13 1 C8.71 1 4.42 1 0 1 C0 0.67 0 0.34 0 0 Z " fill="#000000" transform="translate(184,35)"/>
<path d="M0 0 C2.475 0.495 2.475 0.495 5 1 C5 1.99 5 2.98 5 4 C3.35 4 1.7 4 0 4 C0 2.68 0 1.36 0 0 Z " fill="#000000" transform="translate(156,23)"/>
<path d="M0 0 C2.625 -0.1875 2.625 -0.1875 5 0 C5 0.99 5 1.98 5 3 C2.69 3 0.38 3 -2 3 C-1.34 2.01 -0.68 1.02 0 0 Z " fill="#000000" transform="translate(40,23)"/>
<path d="M0 0 C0.33 0 0.66 0 1 0 C1 4.29 1 8.58 1 13 C0.67 13 0.34 13 0 13 C0 8.71 0 4.42 0 0 Z " fill="#000000" transform="translate(214,13)"/>
<path d="M0 0 C0.33 0 0.66 0 1 0 C1 3.96 1 7.92 1 12 C0.67 12 0.34 12 0 12 C0 8.04 0 4.08 0 0 Z " fill="#000000" transform="translate(159,50)"/>
<path d="M0 0 C0.33 0 0.66 0 1 0 C1 3.96 1 7.92 1 12 C0.67 12 0.34 12 0 12 C0 8.04 0 4.08 0 0 Z " fill="#000000" transform="translate(135,50)"/>
<path d="M0 0 C2.875 -0.125 2.875 -0.125 6 0 C6.66 0.66 7.32 1.32 8 2 C5.125 2.125 5.125 2.125 2 2 C1.34 1.34 0.68 0.68 0 0 Z " fill="#000000" transform="translate(150,49)"/>
<path d="M0 0 C0.33 0 0.66 0 1 0 C1 2.97 1 5.94 1 9 C-1.08954032 4.82091936 -1.16552619 4.19589427 0 0 Z " fill="#000000" transform="translate(90,53)"/>
<path d="M0 0 C0.33 0 0.66 0 1 0 C1.33 2.97 1.66 5.94 2 9 C1.34 9 0.68 9 0 9 C0 6.03 0 3.06 0 0 Z " fill="#000000" transform="translate(190,50)"/>
<path d="M0 0 C3.63 0 7.26 0 11 0 C11 0.33 11 0.66 11 1 C7.37 1 3.74 1 0 1 C0 0.67 0 0.34 0 0 Z " fill="#000000" transform="translate(76,43)"/>
<path d="M0 0 C0.33 0 0.66 0 1 0 C1 3.63 1 7.26 1 11 C0.67 11 0.34 11 0 11 C0 7.37 0 3.74 0 0 Z " fill="#000000" transform="translate(47,11)"/>
<path d="M0 0 C0.33 0 0.66 0 1 0 C1 2.64 1 5.28 1 8 C-0.42944945 5.64561267 -1.08661261 4.51967567 -0.625 1.75 C-0.41875 1.1725 -0.2125 0.595 0 0 Z " fill="#000000" transform="translate(46,41)"/>
<path d="M0 0 C3.3 0 6.6 0 10 0 C10 0.33 10 0.66 10 1 C6.7 1 3.4 1 0 1 C0 0.67 0 0.34 0 0 Z " fill="#000000" transform="translate(120,43)"/>
<path d="M0 0 C3.3 0 6.6 0 10 0 C10 0.33 10 0.66 10 1 C6.7 1 3.4 1 0 1 C0 0.67 0 0.34 0 0 Z " fill="#000000" transform="translate(106,43)"/>
<path d="M0 0 C0.33 0 0.66 0 1 0 C1 3.3 1 6.6 1 10 C0.67 10 0.34 10 0 10 C0 6.7 0 3.4 0 0 Z " fill="#000000" transform="translate(243,14)"/>
<path d="M0 0 C0.33 0 0.66 0 1 0 C1 3.3 1 6.6 1 10 C0.67 10 0.34 10 0 10 C0 6.7 0 3.4 0 0 Z " fill="#000000" transform="translate(170,12)"/>
<path d="M0 0 C1.65 0 3.3 0 5 0 C4.67 0.99 4.34 1.98 4 3 C2.68 3 1.36 3 0 3 C0 2.01 0 1.02 0 0 Z " fill="#000000" transform="translate(156,12)"/>
<path d="M0 0 C2.97 0 5.94 0 9 0 C9 0.33 9 0.66 9 1 C6.03 1 3.06 1 0 1 C0 0.67 0 0.34 0 0 Z " fill="#000000" transform="translate(124,64)"/>
<path d="M0 0 C2.97 0 5.94 0 9 0 C9 0.33 9 0.66 9 1 C6.03 1 3.06 1 0 1 C0 0.67 0 0.34 0 0 Z " fill="#000000" transform="translate(93,43)"/>
<path d="M0 0 C2.97 0 5.94 0 9 0 C9 0.33 9 0.66 9 1 C6.03 1 3.06 1 0 1 C0 0.67 0 0.34 0 0 Z " fill="#000000" transform="translate(107,35)"/>
<path d="M0 0 C2.97 0 5.94 0 9 0 C9 0.33 9 0.66 9 1 C6.03 1 3.06 1 0 1 C0 0.67 0 0.34 0 0 Z " fill="#000000" transform="translate(154,3)"/>
<path d="M0 0 C0.33 0.66 0.66 1.32 1 2 C2.65 2 4.3 2 6 2 C6 2.33 6 2.66 6 3 C4.02 3.33 2.04 3.66 0 4 C0 2.68 0 1.36 0 0 Z " fill="#000000" transform="translate(237,0)"/>
<path d="M0 0 C2.64 0 5.28 0 8 0 C8 0.33 8 0.66 8 1 C5.36 1 2.72 1 0 1 C0 0.67 0 0.34 0 0 Z " fill="#000000" transform="translate(81,64)"/>
<path d="M0 0 C0.99 1.485 0.99 1.485 2 3 C1.34 4.32 0.68 5.64 0 7 C0 4.69 0 2.38 0 0 Z " fill="#000000" transform="translate(42,55)"/>
<path d="M0 0 C2.64 0 5.28 0 8 0 C8 0.33 8 0.66 8 1 C5.36 1 2.72 1 0 1 C0 0.67 0 0.34 0 0 Z " fill="#000000" transform="translate(155,35)"/>
<path d="M0 0 C2.64 0 5.28 0 8 0 C8 0.33 8 0.66 8 1 C5.36 1 2.72 1 0 1 C0 0.67 0 0.34 0 0 Z " fill="#000000" transform="translate(32,35)"/>
<path d="M0 0 C1.65 0 3.3 0 5 0 C4.67 0.99 4.34 1.98 4 3 C4 2.34 4 1.68 4 1 C2.68 1.33 1.36 1.66 0 2 C0 1.34 0 0.68 0 0 Z " fill="#000000" transform="translate(61,12)"/>
<path d="M0 0 C2.64 0 5.28 0 8 0 C8 0.33 8 0.66 8 1 C5.36 1 2.72 1 0 1 C0 0.67 0 0.34 0 0 Z " fill="#000000" transform="translate(32,3)"/>
<path d="M0 0 C2.31 0 4.62 0 7 0 C7 0.33 7 0.66 7 1 C4.69 1 2.38 1 0 1 C0 0.67 0 0.34 0 0 Z " fill="#000000" transform="translate(150,64)"/>
<path d="M0 0 C0.66 1.32 1.32 2.64 2 4 C1.01 4.495 1.01 4.495 0 5 C0 3.35 0 1.7 0 0 Z " fill="#000000" transform="translate(74,57)"/>
<path d="M0 0 C2.31 0 4.62 0 7 0 C7 0.33 7 0.66 7 1 C4.69 1 2.38 1 0 1 C0 0.67 0 0.34 0 0 Z " fill="#000000" transform="translate(88,35)"/>
<path d="M0 0 C2.475 0.495 2.475 0.495 5 1 C3.02 1.99 3.02 1.99 1 3 C0.67 2.01 0.34 1.02 0 0 Z " fill="#000000" transform="translate(33,23)"/>
<path d="M0 0 C0.66 1.32 1.32 2.64 2 4 C1.01 4.495 1.01 4.495 0 5 C0 3.35 0 1.7 0 0 Z " fill="#000000" transform="translate(63,57)"/>
<path d="M0 0 C0.33 0 0.66 0 1 0 C1 1.98 1 3.96 1 6 C0.67 6 0.34 6 0 6 C0 4.02 0 2.04 0 0 Z " fill="#000000" transform="translate(141,51)"/>
<path d="M0 0 C0.33 0 0.66 0 1 0 C1 1.98 1 3.96 1 6 C0.67 6 0.34 6 0 6 C0 4.02 0 2.04 0 0 Z " fill="#000000" transform="translate(192,50)"/>
<path d="M0 0 C1.98 0 3.96 0 6 0 C6 0.33 6 0.66 6 1 C4.02 1 2.04 1 0 1 C0 0.67 0 0.34 0 0 Z " fill="#000000" transform="translate(130,35)"/>
<path d="M0 0 C1.98 0 3.96 0 6 0 C6 0.33 6 0.66 6 1 C4.02 1 2.04 1 0 1 C0 0.67 0 0.34 0 0 Z " fill="#000000" transform="translate(53,35)"/>
<path d="M0 0 C0.33 0 0.66 0 1 0 C1 1.98 1 3.96 1 6 C0.67 6 0.34 6 0 6 C0 4.02 0 2.04 0 0 Z " fill="#000000" transform="translate(198,28)"/>
<path d="M0 0 C1.32 0 2.64 0 4 0 C4 0.66 4 1.32 4 2 C2.68 2 1.36 2 0 2 C0 1.34 0 0.68 0 0 Z " fill="#000000" transform="translate(162,23)"/>
<path d="M0 0 C0.33 0.99 0.66 1.98 1 3 C0.01 3.495 0.01 3.495 -1 4 C-0.67 2.68 -0.34 1.36 0 0 Z " fill="#000000" transform="translate(11,12)"/>
<path d="M0 0 C1.98 0 3.96 0 6 0 C6 0.33 6 0.66 6 1 C4.02 1 2.04 1 0 1 C0 0.67 0 0.34 0 0 Z " fill="#000000" transform="translate(138,12)"/>
<path d="M0 0 C0.33 0 0.66 0 1 0 C1 1.98 1 3.96 1 6 C0.67 6 0.34 6 0 6 C0 4.02 0 2.04 0 0 Z " fill="#000000" transform="translate(96,5)"/>
<path d="M0 0 C0.33 0 0.66 0 1 0 C1 1.98 1 3.96 1 6 C0.67 6 0.34 6 0 6 C0 4.02 0 2.04 0 0 Z " fill="#000000" transform="translate(77,5)"/>
<path d="M0 0 C1.98 0 3.96 0 6 0 C6 0.33 6 0.66 6 1 C4.02 1 2.04 1 0 1 C0 0.67 0 0.34 0 0 Z " fill="#000000" transform="translate(101,3)"/>
<path d="M0 0 C1.98 0 3.96 0 6 0 C6 0.33 6 0.66 6 1 C4.02 1 2.04 1 0 1 C0 0.67 0 0.34 0 0 Z " fill="#000000" transform="translate(16,3)"/>
<path d="M0 0 C1.98 0 3.96 0 6 0 C6 0.33 6 0.66 6 1 C4.02 1 2.04 1 0 1 C0 0.67 0 0.34 0 0 Z " fill="#000000" transform="translate(0,3)"/>
<path d="M0 0 C1.65 0 3.3 0 5 0 C5 0.33 5 0.66 5 1 C3.35 1 1.7 1 0 1 C0 0.67 0 0.34 0 0 Z " fill="#000000" transform="translate(174,64)"/>
<path d="M0 0 C1.65 0 3.3 0 5 0 C5 0.33 5 0.66 5 1 C3.35 1 1.7 1 0 1 C0 0.67 0 0.34 0 0 Z " fill="#000000" transform="translate(48,64)"/>
<path d="M0 0 C1.65 0 3.3 0 5 0 C5 0.33 5 0.66 5 1 C3.35 1 1.7 1 0 1 C0 0.67 0 0.34 0 0 Z " fill="#000000" transform="translate(36,64)"/>
<path d="M0 0 C0.33 1.32 0.66 2.64 1 4 C0.34 3.01 -0.32 2.02 -1 1 C-0.67 0.67 -0.34 0.34 0 0 Z " fill="#000000" transform="translate(183,49)"/>
<path d="M0 0 C1.65 0 3.3 0 5 0 C5 0.33 5 0.66 5 1 C3.35 1 1.7 1 0 1 C0 0.67 0 0.34 0 0 Z " fill="#000000" transform="translate(204,47)"/>
<path d="M0 0 C1.65 0 3.3 0 5 0 C5 0.33 5 0.66 5 1 C3.35 1 1.7 1 0 1 C0 0.67 0 0.34 0 0 Z " fill="#000000" transform="translate(174,47)"/>
<path d="M0 0 C0.66 1.32 1.32 2.64 2 4 C1.34 4 0.68 4 0 4 C0 2.68 0 1.36 0 0 Z " fill="#000000" transform="translate(159,45)"/>
<path d="M0 0 C1.65 0 3.3 0 5 0 C5 0.33 5 0.66 5 1 C3.35 1 1.7 1 0 1 C0 0.67 0 0.34 0 0 Z " fill="#000000" transform="translate(65,39)"/>
<path d="M0 0 C1.65 0 3.3 0 5 0 C5 0.33 5 0.66 5 1 C3.35 1 1.7 1 0 1 C0 0.67 0 0.34 0 0 Z " fill="#000000" transform="translate(48,39)"/>
<path d="M0 0 C1.65 0 3.3 0 5 0 C5 0.33 5 0.66 5 1 C3.35 1 1.7 1 0 1 C0 0.67 0 0.34 0 0 Z " fill="#000000" transform="translate(36,39)"/>
<path d="M0 0 C1.65 0 3.3 0 5 0 C5 0.33 5 0.66 5 1 C3.35 1 1.7 1 0 1 C0 0.67 0 0.34 0 0 Z " fill="#000000" transform="translate(68,35)"/>
<path d="M0 0 C0.33 0 0.66 0 1 0 C1 1.65 1 3.3 1 5 C0.67 5 0.34 5 0 5 C0 3.35 0 1.7 0 0 Z " fill="#000000" transform="translate(96,29)"/>
<path d="M0 0 C1.65 0 3.3 0 5 0 C5 0.33 5 0.66 5 1 C3.35 1 1.7 1 0 1 C0 0.67 0 0.34 0 0 Z " fill="#000000" transform="translate(116,3)"/>
<path d="M0 0 C4 1 4 1 4 1 Z " fill="#000000" transform="translate(188,64)"/>
<path d="M0 0 C4 1 4 1 4 1 Z " fill="#000000" transform="translate(107,64)"/>
<path d="M0 0 C4 1 4 1 4 1 Z " fill="#000000" transform="translate(93,64)"/>
<path d="M0 0 C4 1 4 1 4 1 Z " fill="#000000" transform="translate(57,64)"/>
<path d="M0 0 C0.99 0.495 0.99 0.495 2 1 C1.67 1.66 1.34 2.32 1 3 C0.67 2.01 0.34 1.02 0 0 Z " fill="#000000" transform="translate(183,59)"/>
<path d="M0 0 C0.33 0.66 0.66 1.32 1 2 C0.01 1.67 -0.98 1.34 -2 1 C-1.34 0.67 -0.68 0.34 0 0 Z " fill="#000000" transform="translate(177,57)"/>
<path d="M0 0 C1 4 1 4 1 4 Z " fill="#000000" transform="translate(207,54)"/>
<path d="M0 0 C1 4 1 4 1 4 Z " fill="#000000" transform="translate(204,54)"/>
<path d="M0 0 C1 4 1 4 1 4 Z " fill="#000000" transform="translate(174,54)"/>
<path d="M0 0 C0.99 0 1.98 0 3 0 C2.67 0.66 2.34 1.32 2 2 C1.34 1.34 0.68 0.68 0 0 Z " fill="#000000" transform="translate(175,53)"/>
<path d="M0 0 C4 1 4 1 4 1 Z " fill="#000000" transform="translate(165,47)"/>
<path d="M0 0 C0.99 1.485 0.99 1.485 2 3 C1.34 3 0.68 3 0 3 C0 2.01 0 1.02 0 0 Z " fill="#000000" transform="translate(71,41)"/>
<path d="M0 0 C1 4 1 4 1 4 Z " fill="#000000" transform="translate(81,25)"/>
<path d="M0 0 C4 1 4 1 4 1 Z " fill="#000000" transform="translate(34,26)"/>
<path d="M0 0 C0.33 0.99 0.66 1.98 1 3 C0.34 2.67 -0.32 2.34 -1 2 C-0.67 1.34 -0.34 0.68 0 0 Z " fill="#000000" transform="translate(167,23)"/>
<path d="M0 0 C3 1 3 1 3 1 Z " fill="#000000" transform="translate(194,64)"/>
<path d="M0 0 C3 1 3 1 3 1 Z " fill="#000000" transform="translate(70,64)"/>
<path d="M0 0 C3 1 3 1 3 1 Z " fill="#000000" transform="translate(67,63)"/>
<path d="" fill="#000000" transform="translate(0,0)"/>
<path d="" fill="#000000" transform="translate(0,0)"/>
<path d="M0 0 C0.99 0.495 0.99 0.495 2 1 C1.01 1.495 1.01 1.495 0 2 C0 1.34 0 0.68 0 0 Z " fill="#000000" transform="translate(170,49)"/>
<path d="M0 0 C3 1 3 1 3 1 Z " fill="#000000" transform="translate(200,47)"/>
<path d="M0 0 C3 1 3 1 3 1 Z " fill="#000000" transform="translate(194,47)"/>
<path d="M0 0 C3 1 3 1 3 1 Z " fill="#000000" transform="translate(185,47)"/>
<path d="M0 0 C3 1 3 1 3 1 Z " fill="#000000" transform="translate(161,47)"/>
<path d="" fill="#000000" transform="translate(0,0)"/>
<path d="M0 0 C0.66 0 1.32 0 2 0 C1.67 0.66 1.34 1.32 1 2 C0.67 1.34 0.34 0.68 0 0 Z " fill="#000000" transform="translate(117,45)"/>
<path d="M0 0 C0.66 0 1.32 0 2 0 C1.67 0.66 1.34 1.32 1 2 C0.67 1.34 0.34 0.68 0 0 Z " fill="#000000" transform="translate(103,45)"/>
<path d="M0 0 C3 1 3 1 3 1 Z " fill="#000000" transform="translate(155,43)"/>
<path d="M0 0 C3 1 3 1 3 1 Z " fill="#000000" transform="translate(148,43)"/>
<path d="M0 0 C3 1 3 1 3 1 Z " fill="#000000" transform="translate(151,42)"/>
<path d="M0 0 C3 1 3 1 3 1 Z " fill="#000000" transform="translate(57,38)"/>
<path d="" fill="#000000" transform="translate(0,0)"/>
<path d="" fill="#000000" transform="translate(0,0)"/>
<path d="" fill="#000000" transform="translate(0,0)"/>
<path d="" fill="#000000" transform="translate(0,0)"/>
<path d="" fill="#000000" transform="translate(0,0)"/>
<path d="" fill="#000000" transform="translate(0,0)"/>
<path d="" fill="#000000" transform="translate(0,0)"/>
<path d="" fill="#000000" transform="translate(0,0)"/>
<path d="" fill="#000000" transform="translate(0,0)"/>
<path d="" fill="#000000" transform="translate(0,0)"/>
<path d="" fill="#000000" transform="translate(0,0)"/>
<path d="" fill="#000000" transform="translate(0,0)"/>
<path d="M0 0 C3 1 3 1 3 1 Z " fill="#000000" transform="translate(239,11)"/>
<path d="" fill="#000000" transform="translate(0,0)"/>
<path d="" fill="#000000" transform="translate(0,0)"/>
<path d="" fill="#000000" transform="translate(0,0)"/>
<path d="" fill="#000000" transform="translate(0,0)"/>
<path d="" fill="#000000" transform="translate(0,0)"/>
<path d="" fill="#000000" transform="translate(0,0)"/>
<path d="M0 0 C0.99 0.495 0.99 0.495 2 1 C1.01 1.495 1.01 1.495 0 2 C0 1.34 0 0.68 0 0 Z " fill="#000000" transform="translate(150,6)"/>
<path d="" fill="#000000" transform="translate(0,0)"/>
<path d="M0 0 C3 1 3 1 3 1 Z " fill="#000000" transform="translate(243,3)"/>
<path d="M0 0 C2 1 2 1 2 1 Z " fill="#000000" transform="translate(162,64)"/>
<path d="M0 0 C2 1 2 1 2 1 Z " fill="#000000" transform="translate(192,63)"/>
<path d="M0 0 C2 1 2 1 2 1 Z " fill="#000000" transform="translate(186,63)"/>
<path d="M0 0 C2 1 2 1 2 1 Z " fill="#000000" transform="translate(179,63)"/>
<path d="M0 0 C2 1 2 1 2 1 Z " fill="#000000" transform="translate(172,63)"/>
<path d="M0 0 C2 1 2 1 2 1 Z " fill="#000000" transform="translate(147,63)"/>
<path d="M0 0 C2 1 2 1 2 1 Z " fill="#000000" transform="translate(121,63)"/>
<path d="M0 0 C2 1 2 1 2 1 Z " fill="#000000" transform="translate(79,63)"/>
<path d="M0 0 C2 1 2 1 2 1 Z " fill="#000000" transform="translate(77,62)"/>
<path d="" fill="#000000" transform="translate(0,0)"/>
<path d="" fill="#000000" transform="translate(0,0)"/>
<path d="" fill="#000000" transform="translate(0,0)"/>
<path d="M0 0 C2 1 2 1 2 1 Z " fill="#000000" transform="translate(205,58)"/>
<path d="" fill="#000000" transform="translate(0,0)"/>
<path d="" fill="#000000" transform="translate(0,0)"/>
<path d="M0 0 C2 1 2 1 2 1 Z " fill="#000000" transform="translate(87,56)"/>
<path d="" fill="#000000" transform="translate(0,0)"/>
<path d="M0 0 C2 1 2 1 2 1 Z " fill="#000000" transform="translate(205,53)"/>
<path d="" fill="#000000" transform="translate(0,0)"/>
<path d="" fill="#000000" transform="translate(0,0)"/>
<path d="" fill="#000000" transform="translate(0,0)"/>
<path d="M0 0 C2 1 2 1 2 1 Z " fill="#000000" transform="translate(209,48)"/>
<path d="M0 0 C2 1 2 1 2 1 Z " fill="#000000" transform="translate(179,48)"/>
<path d="M0 0 C2 1 2 1 2 1 Z " fill="#000000" transform="translate(172,48)"/>
<path d="" fill="#000000" transform="translate(0,0)"/>
<path d="" fill="#000000" transform="translate(0,0)"/>
<path d="" fill="#000000" transform="translate(0,0)"/>
<path d="M0 0 C2 1 2 1 2 1 Z " fill="#000000" transform="translate(131,45)"/>
<path d="M0 0 C2 1 2 1 2 1 Z " fill="#000000" transform="translate(146,44)"/>
<path d="M0 0 C2 1 2 1 2 1 Z " fill="#000000" transform="translate(87,44)"/>
<path d="" fill="#000000" transform="translate(0,0)"/>
<path d="M0 0 C2 1 2 1 2 1 Z " fill="#000000" transform="translate(60,39)"/>
<path d="M0 0 C2 1 2 1 2 1 Z " fill="#000000" transform="translate(10,36)"/>
<path d="M0 0 C2 1 2 1 2 1 Z " fill="#000000" transform="translate(244,34)"/>
<path d="M0 0 C2 1 2 1 2 1 Z " fill="#000000" transform="translate(206,34)"/>
<path d="M0 0 C2 1 2 1 2 1 Z " fill="#000000" transform="translate(153,34)"/>
<path d="M0 0 C2 1 2 1 2 1 Z " fill="#000000" transform="translate(105,34)"/>
<path d="M0 0 C2 1 2 1 2 1 Z " fill="#000000" transform="translate(40,34)"/>
<path d="M0 0 C2 1 2 1 2 1 Z " fill="#000000" transform="translate(30,34)"/>
<path d="" fill="#000000" transform="translate(0,0)"/>
<path d="M0 0 C2 1 2 1 2 1 Z " fill="#000000" transform="translate(164,33)"/>
<path d="M0 0 C2 1 2 1 2 1 Z " fill="#000000" transform="translate(117,33)"/>
<path d="" fill="#000000" transform="translate(0,0)"/>
<path d="" fill="#000000" transform="translate(0,0)"/>
<path d="" fill="#000000" transform="translate(0,0)"/>
<path d="" fill="#000000" transform="translate(0,0)"/>
<path d="" fill="#000000" transform="translate(0,0)"/>
<path d="" fill="#000000" transform="translate(0,0)"/>
<path d="" fill="#000000" transform="translate(0,0)"/>
<path d="" fill="#000000" transform="translate(0,0)"/>
<path d="" fill="#000000" transform="translate(0,0)"/>
<path d="" fill="#000000" transform="translate(0,0)"/>
<path d="" fill="#000000" transform="translate(0,0)"/>
<path d="" fill="#000000" transform="translate(0,0)"/>
<path d="" fill="#000000" transform="translate(0,0)"/>
<path d="" fill="#000000" transform="translate(0,0)"/>
<path d="" fill="#000000" transform="translate(0,0)"/>
<path d="" fill="#000000" transform="translate(0,0)"/>
<path d="" fill="#000000" transform="translate(0,0)"/>
<path d="" fill="#000000" transform="translate(0,0)"/>
<path d="" fill="#000000" transform="translate(0,0)"/>
<path d="" fill="#000000" transform="translate(0,0)"/>
<path d="" fill="#000000" transform="translate(0,0)"/>
<path d="" fill="#000000" transform="translate(0,0)"/>
<path d="" fill="#000000" transform="translate(0,0)"/>
<path d="" fill="#000000" transform="translate(0,0)"/>
<path d="" fill="#000000" transform="translate(0,0)"/>
<path d="M0 0 C2 1 2 1 2 1 Z " fill="#000000" transform="translate(163,4)"/>
<path d="M0 0 C2 1 2 1 2 1 Z " fill="#000000" transform="translate(144,4)"/>
<path d="M0 0 C2 1 2 1 2 1 Z " fill="#000000" transform="translate(68,4)"/>
<path d="M0 0 C2 1 2 1 2 1 Z " fill="#000000" transform="translate(40,4)"/>
<path d="M0 0 C2 1 2 1 2 1 Z " fill="#000000" transform="translate(30,4)"/>
<path d="" fill="#000000" transform="translate(0,0)"/>
<path d="" fill="#000000" transform="translate(0,0)"/>
<path d="" fill="#000000" transform="translate(0,0)"/>
<path d="" fill="#000000" transform="translate(0,0)"/>
<path d="" fill="#000000" transform="translate(0,0)"/>
<path d="" fill="#000000" transform="translate(0,0)"/>
<path d="" fill="#000000" transform="translate(0,0)"/>
<path d="" fill="#000000" transform="translate(0,0)"/>
<path d="" fill="#000000" transform="translate(0,0)"/>
<path d="" fill="#000000" transform="translate(0,0)"/>
<path d="" fill="#000000" transform="translate(0,0)"/>
<path d="" fill="#000000" transform="translate(0,0)"/>
<path d="" fill="#000000" transform="translate(0,0)"/>
<path d="" fill="#000000" transform="translate(0,0)"/>
<path d="" fill="#000000" transform="translate(0,0)"/>
<path d="" fill="#000000" transform="translate(0,0)"/>
<path d="" fill="#000000" transform="translate(0,0)"/>
<path d="" fill="#000000" transform="translate(0,0)"/>
<path d="" fill="#000000" transform="translate(0,0)"/>
<path d="" fill="#000000" transform="translate(0,0)"/>
<path d="" fill="#000000" transform="translate(0,0)"/>
<path d="" fill="#000000" transform="translate(0,0)"/>
<path d="" fill="#000000" transform="translate(0,0)"/>
<path d="" fill="#000000" transform="translate(0,0)"/>
<path d="" fill="#000000" transform="translate(0,0)"/>
<path d="" fill="#000000" transform="translate(0,0)"/>
<path d="" fill="#000000" transform="translate(0,0)"/>
<path d="" fill="#000000" transform="translate(0,0)"/>
<path d="" fill="#000000" transform="translate(0,0)"/>
<path d="" fill="#000000" transform="translate(0,0)"/>
<path d="" fill="#000000" transform="translate(0,0)"/>
<path d="" fill="#000000" transform="translate(0,0)"/>
<path d="" fill="#000000" transform="translate(0,0)"/>
<path d="" fill="#000000" transform="translate(0,0)"/>
<path d="" fill="#000000" transform="translate(0,0)"/>
<path d="" fill="#000000" transform="translate(0,0)"/>
<path d="" fill="#000000" transform="translate(0,0)"/>
<path d="" fill="#000000" transform="translate(0,0)"/>
<path d="" fill="#000000" transform="translate(0,0)"/>
<path d="" fill="#000000" transform="translate(0,0)"/>
<path d="" fill="#000000" transform="translate(0,0)"/>
<path d="" fill="#000000" transform="translate(0,0)"/>
<path d="" fill="#000000" transform="translate(0,0)"/>
<path d="" fill="#000000" transform="translate(0,0)"/>
<path d="" fill="#000000" transform="translate(0,0)"/>
<path d="" fill="#000000" transform="translate(0,0)"/>
<path d="" fill="#000000" transform="translate(0,0)"/>
<path d="" fill="#000000" transform="translate(0,0)"/>
<path d="" fill="#000000" transform="translate(0,0)"/>
<path d="" fill="#000000" transform="translate(0,0)"/>
<path d="" fill="#000000" transform="translate(0,0)"/>
<path d="" fill="#000000" transform="translate(0,0)"/>
<path d="" fill="#000000" transform="translate(0,0)"/>
<path d="" fill="#000000" transform="translate(0,0)"/>
<path d="" fill="#000000" transform="translate(0,0)"/>
<path d="" fill="#000000" transform="translate(0,0)"/>
<path d="" fill="#000000" transform="translate(0,0)"/>
<path d="" fill="#000000" transform="translate(0,0)"/>
<path d="" fill="#000000" transform="translate(0,0)"/>
<path d="" fill="#000000" transform="translate(0,0)"/>
<path d="" fill="#000000" transform="translate(0,0)"/>
<path d="" fill="#000000" transform="translate(0,0)"/>
<path d="" fill="#000000" transform="translate(0,0)"/>
<path d="" fill="#000000" transform="translate(0,0)"/>
<path d="" fill="#000000" transform="translate(0,0)"/>
<path d="" fill="#000000" transform="translate(0,0)"/>
<path d="" fill="#000000" transform="translate(0,0)"/>
<path d="" fill="#000000" transform="translate(0,0)"/>
<path d="" fill="#000000" transform="translate(0,0)"/>
<path d="" fill="#000000" transform="translate(0,0)"/>
<path d="" fill="#000000" transform="translate(0,0)"/>
<path d="" fill="#000000" transform="translate(0,0)"/>
<path d="" fill="#000000" transform="translate(0,0)"/>
<path d="" fill="#000000" transform="translate(0,0)"/>
<path d="" fill="#000000" transform="translate(0,0)"/>
<path d="" fill="#000000" transform="translate(0,0)"/>
<path d="" fill="#000000" transform="translate(0,0)"/>
<path d="" fill="#000000" transform="translate(0,0)"/>
<path d="" fill="#000000" transform="translate(0,0)"/>
<path d="" fill="#000000" transform="translate(0,0)"/>
<path d="" fill="#000000" transform="translate(0,0)"/>
<path d="" fill="#000000" transform="translate(0,0)"/>
<path d="" fill="#000000" transform="translate(0,0)"/>
<path d="" fill="#000000" transform="translate(0,0)"/>
<path d="" fill="#000000" transform="translate(0,0)"/>
<path d="" fill="#000000" transform="translate(0,0)"/>
<path d="" fill="#000000" transform="translate(0,0)"/>
<path d="" fill="#000000" transform="translate(0,0)"/>
<path d="" fill="#000000" transform="translate(0,0)"/>
<path d="" fill="#000000" transform="translate(0,0)"/>
<path d="" fill="#000000" transform="translate(0,0)"/>
<path d="" fill="#000000" transform="translate(0,0)"/>
<path d="" fill="#000000" transform="translate(0,0)"/>
<path d="" fill="#000000" transform="translate(0,0)"/>
<path d="" fill="#000000" transform="translate(0,0)"/>
<path d="" fill="#000000" transform="translate(0,0)"/>
<path d="" fill="#000000" transform="translate(0,0)"/>
<path d="" fill="#000000" transform="translate(0,0)"/>
<path d="" fill="#000000" transform="translate(0,0)"/>
<path d="" fill="#000000" transform="translate(0,0)"/>
<path d="" fill="#000000" transform="translate(0,0)"/>
<path d="" fill="#000000" transform="translate(0,0)"/>
<path d="" fill="#000000" transform="translate(0,0)"/>
<path d="" fill="#000000" transform="translate(0,0)"/>
<path d="" fill="#000000" transform="translate(0,0)"/>
<path d="" fill="#000000" transform="translate(0,0)"/>
<path d="" fill="#000000" transform="translate(0,0)"/>
<path d="" fill="#000000" transform="translate(0,0)"/>
<path d="" fill="#000000" transform="translate(0,0)"/>
<path d="" fill="#000000" transform="translate(0,0)"/>
<path d="" fill="#000000" transform="translate(0,0)"/>
<path d="" fill="#000000" transform="translate(0,0)"/>
<path d="" fill="#000000" transform="translate(0,0)"/>
<path d="" fill="#000000" transform="translate(0,0)"/>
<path d="" fill="#000000" transform="translate(0,0)"/>
<path d="" fill="#000000" transform="translate(0,0)"/>
<path d="" fill="#000000" transform="translate(0,0)"/>
<path d="" fill="#000000" transform="translate(0,0)"/>
<path d="" fill="#000000" transform="translate(0,0)"/>
<path d="" fill="#000000" transform="translate(0,0)"/>
<path d="" fill="#000000" transform="translate(0,0)"/>
<path d="" fill="#000000" transform="translate(0,0)"/>
<path d="" fill="#000000" transform="translate(0,0)"/>
<path d="" fill="#000000" transform="translate(0,0)"/>
<path d="" fill="#000000" transform="translate(0,0)"/>
<path d="" fill="#000000" transform="translate(0,0)"/>
<path d="" fill="#000000" transform="translate(0,0)"/>
<path d="" fill="#000000" transform="translate(0,0)"/>
<path d="" fill="#000000" transform="translate(0,0)"/>
<path d="" fill="#000000" transform="translate(0,0)"/>
<path d="" fill="#000000" transform="translate(0,0)"/>
<path d="" fill="#000000" transform="translate(0,0)"/>
<path d="" fill="#000000" transform="translate(0,0)"/>
<path d="" fill="#000000" transform="translate(0,0)"/>
<path d="" fill="#000000" transform="translate(0,0)"/>
<path d="" fill="#000000" transform="translate(0,0)"/>
<path d="" fill="#000000" transform="translate(0,0)"/>
<path d="" fill="#000000" transform="translate(0,0)"/>
<path d="" fill="#000000" transform="translate(0,0)"/>
<path d="" fill="#000000" transform="translate(0,0)"/>
<path d="" fill="#000000" transform="translate(0,0)"/>
<path d="" fill="#000000" transform="translate(0,0)"/>
<path d="" fill="#000000" transform="translate(0,0)"/>
<path d="" fill="#000000" transform="translate(0,0)"/>
<path d="" fill="#000000" transform="translate(0,0)"/>
<path d="" fill="#000000" transform="translate(0,0)"/>
</svg>
