<?xml version="1.0" encoding="UTF-8"?>
<svg version="1.1" xmlns="http://www.w3.org/2000/svg" width="245" height="76">
<path d="M0 0 C1.9375 2.5625 1.9375 2.5625 2.9375 6.5625 C-1.0225 8.5425 -1.0225 8.5425 -5.0625 10.5625 C-5.59875 9.77875 -6.135 8.995 -6.6875 8.1875 C-9.36492842 5.22823701 -11.24683025 4.51641744 -15.0625 3.5625 C-15.3925 4.2225 -15.7225 4.8825 -16.0625 5.5625 C-16.68125 5.76875 -17.3 5.975 -17.9375 6.1875 C-21.36750305 8.40691374 -22.20530177 11.67700309 -23.0625 15.5625 C-22.99611991 19.54530549 -22.68265496 21.68968931 -20.375 24.9375 C-17.51206367 26.9492931 -15.55510339 27.48818929 -12.0625 27.5625 C-10.16291919 26.24931738 -10.16291919 26.24931738 -9.0625 24.5625 C-9.5575 23.0775 -9.5575 23.0775 -10.0625 21.5625 C-12.07758358 20.82926204 -12.07758358 20.82926204 -14.0625 20.5625 C-13.25 17.125 -13.25 17.125 -12.0625 13.5625 C-8.32109703 12.31536568 -5.94713022 12.97980547 -2.0625 13.5625 C-0.78375 13.5625 0.495 13.5625 1.8125 13.5625 C2.84375 13.5625 3.875 13.5625 4.9375 13.5625 C5.9375 14.5625 5.9375 14.5625 5.95703125 16.63671875 C5.50343514 22.36229978 4.72449141 26.01811031 0.9375 30.5625 C0.40125 31.284375 -0.135 32.00625 -0.6875 32.75 C-4.98322179 36.028314 -10.01429832 37.62778274 -15.43359375 37.51171875 C-21.7347981 36.43057624 -26.58649747 33.03850253 -31.0625 28.5625 C-33.60356009 30.77211747 -34.36871489 32.30238358 -35.0625 35.5625 C-38.35409316 35.62040353 -41.64555603 35.65606261 -44.9375 35.6875 C-45.87464844 35.70425781 -46.81179687 35.72101562 -47.77734375 35.73828125 C-48.67324219 35.74472656 -49.56914062 35.75117187 -50.4921875 35.7578125 C-51.31960449 35.76828613 -52.14702148 35.77875977 -52.99951172 35.78955078 C-55.0625 35.5625 -55.0625 35.5625 -57.0625 33.5625 C-57.16704373 30.8326631 -57.15186137 28.21484943 -57.0390625 25.4921875 C-57.01403656 24.69595978 -56.98901062 23.89973206 -56.96322632 23.07937622 C-56.88093302 20.53165696 -56.78438097 17.98470226 -56.6875 15.4375 C-56.62926988 13.712271 -56.5719664 11.98701046 -56.515625 10.26171875 C-56.3753406 6.02820463 -56.22226487 1.79532193 -56.0625 -2.4375 C-52.75 -3.5625 -52.75 -3.5625 -49.0625 -4.4375 C-48.0725 -3.7775 -47.0825 -3.1175 -46.0625 -2.4375 C-45.70605469 0.05273437 -45.70605469 0.05273437 -45.734375 3.15625 C-45.73953125 4.26871094 -45.7446875 5.38117187 -45.75 6.52734375 C-45.770625 7.69394531 -45.79125 8.86054688 -45.8125 10.0625 C-45.81765625 11.22910156 -45.8228125 12.39570312 -45.828125 13.59765625 C-45.90837146 22.25424292 -45.90837146 22.25424292 -47.0625 24.5625 C-46.4025 24.5625 -45.7425 24.5625 -45.0625 24.5625 C-45.0625 25.2225 -45.0625 25.8825 -45.0625 26.5625 C-44.43601563 26.55089844 -43.80953125 26.53929688 -43.1640625 26.52734375 C-42.34679687 26.51832031 -41.52953125 26.50929688 -40.6875 26.5 C-39.87539062 26.48839844 -39.06328125 26.47679688 -38.2265625 26.46484375 C-36.0625 26.5625 -36.0625 26.5625 -34.0625 27.5625 C-32.9826395 24.32291851 -33.12446562 22.60199206 -33.5 19.25 C-34.5934271 8.35889064 -34.5934271 8.35889064 -32.0625 4.5625 C-31.4025 4.5625 -30.7425 4.5625 -30.0625 4.5625 C-29.85625 3.985 -29.65 3.4075 -29.4375 2.8125 C-26.76861401 -1.55476798 -22.59820186 -3.49434619 -17.8125 -4.875 C-11.08024748 -6.1486694 -5.28089321 -4.2031599 0 0 Z M-8.0625 22.5625 C-7.4025 23.2225 -6.7425 23.8825 -6.0625 24.5625 C-6.0625 23.9025 -6.0625 23.2425 -6.0625 22.5625 C-6.7225 22.5625 -7.3825 22.5625 -8.0625 22.5625 Z " fill="#FFFFFF" transform="translate(197.0625,20.4375)"/>
<path d="M0 0 C3.86642324 0.02466618 4.58527212 0.24725185 7.8125 2.75 C9.75 5.375 9.75 5.375 9.75 7.375 C10.41 7.375 11.07 7.375 11.75 7.375 C13.30078125 9.53515625 13.30078125 9.53515625 15.0625 12.4375 C17.05031367 15.68728666 19.00666758 18.75842243 21.4375 21.6875 C26.45561941 28.56664383 28.8324228 38.98622328 27.75 47.375 C25.4298937 56.94217993 22.02033363 64.8498258 13.5625 70.3125 C7.20235189 74.0131779 1.45121304 73.84606348 -5.6875 72.9375 C-13.18279459 69.65009009 -19.08123154 63.92527546 -22.25 56.375 C-25.12585723 45.40223522 -23.2696024 36.96713026 -18.07421875 27.2734375 C-15.3711881 22.97868645 -15.3711881 22.97868645 -13.25 21.375 C-10.25 21.375 -10.25 21.375 -8.5 23 C-6.76361235 26.29913653 -7.20441963 27.82002675 -8.25 31.375 C-8.91 32.4475 -9.57 33.52 -10.25 34.625 C-12.87379593 38.96916029 -13.47662991 43.34057839 -13.25 48.375 C-12.5453413 51.0225034 -11.57254767 52.92583765 -10.25 55.375 C-9.96125 56.05175781 -9.6725 56.72851562 -9.375 57.42578125 C-7.35882379 60.91908656 -3.97561862 62.15791951 -0.25 63.375 C4.26745973 63.45288724 6.24875897 62.71237377 10 60.1875 C14.7826967 55.29610565 16.85220698 49.94903047 17 43.1875 C16.89843127 35.46827642 14.12650456 29.56247197 9.75 23.375 C9.75 22.715 9.75 22.055 9.75 21.375 C9.09 21.375 8.43 21.375 7.75 21.375 C7.316875 20.42625 6.88375 19.4775 6.4375 18.5 C4.95697799 15.17458063 4.95697799 15.17458063 1.75 13.375 C1.42 12.385 1.09 11.395 0.75 10.375 C0.09 10.045 -0.57 9.715 -1.25 9.375 C-2.3203125 7.52734375 -2.3203125 7.52734375 -3.375 5.3125 C-3.72820313 4.57902344 -4.08140625 3.84554688 -4.4453125 3.08984375 C-4.71085937 2.52394531 -4.97640625 1.95804687 -5.25 1.375 C-3.69049449 -0.18450551 -2.16122869 0.09303302 0 0 Z " fill="#FFFFFF" transform="translate(46.25,-0.375)"/>
<path d="M0 0 C2.4375 1.25 2.4375 1.25 4.4375 4.25 C4.99340769 6.15120429 5.48709162 8.07107714 5.9375 10 C7.00262627 14.45514743 8.13975813 18.8576429 9.4375 23.25 C12.13557117 17.72537809 13.40418338 12.26400266 14.59375 6.23828125 C15.43552604 3.25699111 16.41516951 1.55882731 18.4375 -0.75 C21.0775 -0.42 23.7175 -0.09 26.4375 0.25 C27.71404939 4.07964817 26.86323131 5.50455641 25.5 9.25 C23.88332507 13.64412803 23.88332507 13.64412803 23.4375 18.25 C22.7775 18.25 22.1175 18.25 21.4375 18.25 C21.251875 20.044375 21.251875 20.044375 21.0625 21.875 C20.60162966 25.52950708 19.8564166 28.82790703 18.4375 32.25 C17.4475 32.745 17.4475 32.745 16.4375 33.25 C16.9325 35.23 16.9325 35.23 17.4375 37.25 C13.93350051 39.47204846 12.08694449 40.32112279 7.90625 39.86328125 C4.4375 38.25 4.4375 38.25 3.40454102 36.53417969 C2.6136281 34.31059637 2.02980209 32.11210691 1.5 29.8125 C1.29310547 29.03583984 1.08621094 28.25917969 0.87304688 27.45898438 C0.04715552 24.27340344 -0.5625 21.55713986 -0.5625 18.25 C-2.71900194 19.04907881 -2.71900194 19.04907881 -3.27685547 21.07592773 C-3.49229004 21.85395752 -3.70772461 22.6319873 -3.9296875 23.43359375 C-4.17589844 24.27857422 -4.42210938 25.12355469 -4.67578125 25.99414062 C-5.18199528 27.78406152 -5.68204065 29.57573892 -6.17578125 31.36914062 C-6.42457031 32.21541016 -6.67335938 33.06167969 -6.9296875 33.93359375 C-7.25622314 35.10233032 -7.25622314 35.10233032 -7.58935547 36.29467773 C-8.84142283 38.81043477 -9.93707244 39.34714498 -12.5625 40.25 C-15.56489856 40.06617968 -17.71013682 39.88300501 -20.15625 38.06640625 C-22.06281946 35.60375403 -22.39990584 33.42392561 -23 30.375 C-24.64769024 22.62218381 -26.605715 14.86480695 -29.70703125 7.55078125 C-30.75468965 4.73310637 -30.37626188 3.09816658 -29.5625 0.25 C-26.70990676 0.01618088 -24.35777264 -0.17067469 -21.5625 0.25 C-18.42548007 3.49158726 -17.95216197 7.59437683 -17.1015625 11.890625 C-16.27721994 15.49861706 -14.93563536 18.81716161 -13.5625 22.25 C-13.23636719 21.3321875 -12.91023438 20.414375 -12.57421875 19.46875 C-11.67462478 16.94245662 -10.77112276 14.41784374 -9.86328125 11.89453125 C-9.11359812 9.79406771 -8.3750851 7.68939211 -7.66796875 5.57421875 C-7.05060957 3.76836061 -6.31842782 2.00237813 -5.5625 0.25 C-2.5625 -0.75 -2.5625 -0.75 0 0 Z " fill="#FFFFFF" transform="translate(110.5625,16.75)"/>
<path d="M0 0 C2.4375 1.125 2.4375 1.125 3.68359375 3.62890625 C5.97056816 8.18757462 8.91013637 12.09619593 11.9375 16.1875 C19.08374219 25.89276239 19.08374219 25.89276239 21.4375 30.125 C21.81390625 30.80175781 22.1903125 31.47851562 22.578125 32.17578125 C25.35476463 38.47370476 24.85158247 45.79843904 22.4375 52.125 C20.49167545 55.43643959 18.25720744 57.66516412 14.875 59.5625 C12.28643806 60.15986045 10.90488531 60.03884641 8.4375 59.125 C8.4375 58.465 8.4375 57.805 8.4375 57.125 C9.0975 57.125 9.7575 57.125 10.4375 57.125 C10.746875 56.17625 11.05625 55.2275 11.375 54.25 C12.4375 51.125 12.4375 51.125 13.4375 49.125 C14.51497765 37.97725043 10.72606901 30.99552556 4.4375 22.125 C3.97730469 21.42375 3.51710938 20.7225 3.04296875 20 C1.92106043 18.31883224 0.68769502 16.71308556 -0.5625 15.125 C-1.5525 15.125 -2.5425 15.125 -3.5625 15.125 C-5.44829692 16.97540142 -5.44829692 16.97540142 -7.1875 19.375 C-7.79851563 20.16390625 -8.40953125 20.9528125 -9.0390625 21.765625 C-10.46266993 23.97039138 -11.12775701 25.56354132 -11.5625 28.125 C-12.2225 28.125 -12.8825 28.125 -13.5625 28.125 C-17.24169195 39.6443748 -18.23695504 49.05651356 -12.5625 60.125 C-9.67007862 64.16781624 -6.70144688 67.36570208 -2.5625 70.125 C-2.5625 70.785 -2.5625 71.445 -2.5625 72.125 C-9.82443577 71.52975936 -13.99217462 69.72723843 -18.875 64.2734375 C-25.56568933 55.75519876 -27.64812491 46.84722136 -26.5625 36.125 C-24.21409004 26.57903088 -11.23924779 0.54825599 0 0 Z " fill="#FFFFFF" transform="translate(35.5625,0.875)"/>
<path d="M0 0 C2.3828125 -0.29296875 2.3828125 -0.29296875 5.125 -0.1875 C6.03507812 -0.16042969 6.94515625 -0.13335938 7.8828125 -0.10546875 C8.58148438 -0.07066406 9.28015625 -0.03585938 10 0 C12.98174717 5.71446931 15.39606554 11.4339835 17.5625 17.5 C18.14693769 19.11465491 18.73157121 20.72923896 19.31640625 22.34375 C19.59371582 23.12234375 19.87102539 23.9009375 20.15673828 24.703125 C20.71520944 26.22428791 21.30196479 27.73538632 21.91748047 29.234375 C23.44040772 32.97034644 24.25388059 35.14648134 23 39 C19.875 39.9375 19.875 39.9375 16 40 C14.62109375 38.5078125 14.62109375 38.5078125 13.3125 36.5625 C11.95477299 34.52180119 11.95477299 34.52180119 10 33 C5.9376708 32.374224 2.07809098 32.58427228 -2 33 C-2.28230469 33.79792969 -2.56460938 34.59585938 -2.85546875 35.41796875 C-4 38 -4 38 -6.3125 39.3125 C-9.00140087 40.00035836 -11.23807537 40.15782426 -14 40 C-15.31074099 36.06777704 -14.30421778 34.84525597 -12.625 31.125 C-10.95452864 27.40143534 -9.64086302 24.03892738 -9 20 C-8.34 20 -7.68 20 -7 20 C-6.67 17.36 -6.34 14.72 -6 12 C-5.34 12 -4.68 12 -4 12 C-3.81824219 11.07767578 -3.81824219 11.07767578 -3.6328125 10.13671875 C-3.46523437 9.32847656 -3.29765625 8.52023438 -3.125 7.6875 C-2.96257812 6.88699219 -2.80015625 6.08648437 -2.6328125 5.26171875 C-2 3 -2 3 0 0 Z M5 13 C2.58749273 18.3599996 2.58749273 18.3599996 1 24 C3.31 24 5.62 24 8 24 C9.25973028 22.02767749 9.25973028 22.02767749 8.44140625 19.8359375 C8.15136719 19.02382813 7.86132812 18.21171875 7.5625 17.375 C7.13130859 16.14910156 7.13130859 16.14910156 6.69140625 14.8984375 C6.46324219 14.27195312 6.23507813 13.64546875 6 13 C5.67 13 5.34 13 5 13 Z " fill="#FFFFFF" transform="translate(216,17)"/>
<path d="M0 0 C0.33 0.66 0.66 1.32 1 2 C1.97839844 1.89171875 1.97839844 1.89171875 2.9765625 1.78125 C7.67584002 1.28221168 12.26769089 0.88732597 17 1 C18.32 1 19.64 1 21 1 C22.4540625 1.309375 22.4540625 1.309375 23.9375 1.625 C26.96010526 2.24854872 26.96010526 2.24854872 29.4375 1 C32.94328802 -0.3681124 35.28064826 0.40962671 39 1 C42.04850661 0.96761215 45.08712253 0.87667251 48.1328125 0.7421875 C51.51209637 1.04604681 53.31886648 1.95029285 56 4 C56.47379119 7.15860793 56.01423522 8.95729435 55 12 C53.63875 11.7215625 53.63875 11.7215625 52.25 11.4375 C49.14603058 11.01965796 47.90502139 11.24401925 45 12 C43.61202265 12.08736733 42.22055745 12.12783709 40.82983398 12.12939453 C40.01896835 12.13254669 39.20810272 12.13569885 38.37266541 12.13894653 C37.07251244 12.13591019 37.07251244 12.13591019 35.74609375 12.1328125 C34.4001992 12.13424759 34.4001992 12.13424759 33.02711487 12.13571167 C31.13339162 12.13639123 29.23966602 12.13455255 27.34594727 12.13037109 C24.44477117 12.12501343 21.54374945 12.13032688 18.64257812 12.13671875 C16.80208299 12.13605805 14.96158795 12.13477706 13.12109375 12.1328125 C12.25230087 12.13483673 11.383508 12.13686096 10.48838806 12.13894653 C9.68067459 12.13579437 8.87296112 12.13264221 8.04077148 12.12939453 C7.33113754 12.12859894 6.6215036 12.12780334 5.8903656 12.12698364 C4 12 4 12 1 11 C0.01 11.33 -0.98 11.66 -2 12 C-2.99 11.34 -3.98 10.68 -5 10 C-5.4375 3.875 -5.4375 3.875 -4 1 C-1.9375 0.375 -1.9375 0.375 0 0 Z M32 8 C33 10 33 10 33 10 Z " fill="#FFFFFF" transform="translate(184,64)"/>
<path d="M0 0 C2.97 0.495 2.97 0.495 6 1 C6 1.66 6 2.32 6 3 C8.49085104 3.06919031 10.64832626 3.09591102 13.0625 2.4375 C15 2 15 2 16.9375 2.5 C19.56131275 3.13607582 21.38558889 2.5882425 24 2 C25.32 2 26.64 2 28 2 C28.89976562 1.97679688 29.79953125 1.95359375 30.7265625 1.9296875 C31.68304688 1.91164063 32.63953125 1.89359375 33.625 1.875 C34.58664063 1.85179688 35.54828125 1.82859375 36.5390625 1.8046875 C39 2 39 2 41 4 C40.8125 7.5 40.8125 7.5 40 11 C36.48863315 13.34091124 35.08807793 13.23515782 30.94140625 13.1953125 C29.75095703 13.18886719 28.56050781 13.18242188 27.33398438 13.17578125 C26.08939453 13.15902344 24.84480469 13.14226562 23.5625 13.125 C21.70141602 13.11146484 21.70141602 13.11146484 19.80273438 13.09765625 C17.49678759 13.0801964 15.19086574 13.05863965 12.88500977 13.03173828 C9.88750001 12.99876238 6.89193122 12.9851069 3.89453125 13.03515625 C1.92982198 13.06095919 -0.03538528 13.0322068 -2 13 C-3 12 -3 12 -3.125 8.625 C-3 5 -3 5 -2 2 C-1.34 2 -0.68 2 0 2 C0 1.34 0 0.68 0 0 Z " fill="#FFFFFF" transform="translate(137,63)"/>
<path d="" fill="#FFFFFF" transform="translate(0,0)"/>
<path d="M0 0 C2 1 2 1 2 1 Z " fill="#FFFFFF" transform="translate(202,65)"/>
<path d="" fill="#FFFFFF" transform="translate(0,0)"/>
<path d="M0 0 C2 1 2 1 2 1 Z " fill="#FFFFFF" transform="translate(229,56)"/>
<path d="M0 0 C2 1 2 1 2 1 Z " fill="#FFFFFF" transform="translate(101,56)"/>
<path d="M0 0 C2 1 2 1 2 1 Z " fill="#FFFFFF" transform="translate(194,55)"/>
<path d="M0 0 C2 1 2 1 2 1 Z " fill="#FFFFFF" transform="translate(183,47)"/>
<path d="" fill="#FFFFFF" transform="translate(0,0)"/>
<path d="" fill="#FFFFFF" transform="translate(0,0)"/>
<path d="" fill="#FFFFFF" transform="translate(0,0)"/>
<path d="" fill="#FFFFFF" transform="translate(0,0)"/>
<path d="" fill="#FFFFFF" transform="translate(0,0)"/>
<path d="" fill="#FFFFFF" transform="translate(0,0)"/>
<path d="" fill="#FFFFFF" transform="translate(0,0)"/>
<path d="" fill="#FFFFFF" transform="translate(0,0)"/>
<path d="" fill="#FFFFFF" transform="translate(0,0)"/>
<path d="" fill="#FFFFFF" transform="translate(0,0)"/>
<path d="" fill="#FFFFFF" transform="translate(0,0)"/>
<path d="" fill="#FFFFFF" transform="translate(0,0)"/>
<path d="" fill="#FFFFFF" transform="translate(0,0)"/>
<path d="" fill="#FFFFFF" transform="translate(0,0)"/>
<path d="" fill="#FFFFFF" transform="translate(0,0)"/>
<path d="" fill="#FFFFFF" transform="translate(0,0)"/>
<path d="" fill="#FFFFFF" transform="translate(0,0)"/>
<path d="" fill="#FFFFFF" transform="translate(0,0)"/>
<path d="" fill="#FFFFFF" transform="translate(0,0)"/>
<path d="" fill="#FFFFFF" transform="translate(0,0)"/>
<path d="" fill="#FFFFFF" transform="translate(0,0)"/>
<path d="" fill="#FFFFFF" transform="translate(0,0)"/>
<path d="" fill="#FFFFFF" transform="translate(0,0)"/>
<path d="" fill="#FFFFFF" transform="translate(0,0)"/>
<path d="" fill="#FFFFFF" transform="translate(0,0)"/>
<path d="" fill="#FFFFFF" transform="translate(0,0)"/>
<path d="" fill="#FFFFFF" transform="translate(0,0)"/>
<path d="" fill="#FFFFFF" transform="translate(0,0)"/>
<path d="" fill="#FFFFFF" transform="translate(0,0)"/>
<path d="" fill="#FFFFFF" transform="translate(0,0)"/>
<path d="" fill="#FFFFFF" transform="translate(0,0)"/>
<path d="" fill="#FFFFFF" transform="translate(0,0)"/>
<path d="" fill="#FFFFFF" transform="translate(0,0)"/>
<path d="" fill="#FFFFFF" transform="translate(0,0)"/>
<path d="" fill="#FFFFFF" transform="translate(0,0)"/>
<path d="" fill="#FFFFFF" transform="translate(0,0)"/>
<path d="" fill="#FFFFFF" transform="translate(0,0)"/>
<path d="" fill="#FFFFFF" transform="translate(0,0)"/>
<path d="" fill="#FFFFFF" transform="translate(0,0)"/>
<path d="" fill="#FFFFFF" transform="translate(0,0)"/>
<path d="" fill="#FFFFFF" transform="translate(0,0)"/>
<path d="" fill="#FFFFFF" transform="translate(0,0)"/>
<path d="" fill="#FFFFFF" transform="translate(0,0)"/>
<path d="" fill="#FFFFFF" transform="translate(0,0)"/>
<path d="" fill="#FFFFFF" transform="translate(0,0)"/>
<path d="" fill="#FFFFFF" transform="translate(0,0)"/>
<path d="" fill="#FFFFFF" transform="translate(0,0)"/>
<path d="" fill="#FFFFFF" transform="translate(0,0)"/>
</svg>
