<?xml version="1.0" encoding="UTF-8"?>
<svg version="1.1" xmlns="http://www.w3.org/2000/svg" width="300" height="82">
<path d="M0 0 C3.80370599 3.18449804 4.51765543 4.72139886 5.0625 9.625 C4.61810645 13.92080432 3.39158706 15.92783589 0.6875 19.25 C-3.33952057 21.93468038 -6.5809363 21.93187737 -11.3125 21.25 C-14.78310168 19.18240751 -17.08975393 17.14055567 -18.3125 13.25 C-18.78834595 8.96738649 -18.59017535 6.77559976 -16.5625 2.9375 C-11.92623943 -2.60025568 -6.52345032 -3.44635111 0 0 Z " fill="#FFFFFF" transform="translate(47.3125,30.75)"/>
<path d="M0 0 C3.41912313 1.39873219 4.75851274 2.65386826 6.875 5.6875 C8.27707547 9.81583332 8.40820324 12.86073592 7 17 C4.6875 19.875 4.6875 19.875 2 22 C1.401875 22.474375 0.80375 22.94875 0.1875 23.4375 C-3.51326154 24.3891244 -6.62801836 23.55728923 -10 22 C-12.74723454 20.02333125 -14.59034182 18.09422896 -16 15 C-16.21299614 10.0158904 -14.65025659 6.7803079 -11.5 3 C-7.49664793 -0.20268165 -5.13525749 -0.34815305 0 0 Z " fill="#FFFFFF" transform="translate(74,29)"/>
<path d="M0 0 C3.57339883 1.92356873 5.69607513 4.0882254 7 8 C7.53756448 13.69818352 6.60129241 16.55134467 3 21 C-0.97162936 22.98581468 -5.68072991 22.5297806 -10 22 C-13.28428287 19.96374462 -14.51967639 18.56464698 -15.65234375 14.875 C-16.41051702 10.60034689 -16.257963 8.50671303 -14.25 4.5625 C-9.96221862 -0.32080657 -6.21873555 -1.0594098 0 0 Z " fill="#FFFFFF" transform="translate(45,60)"/>
<path d="M0 0 C3.08954459 1.77484476 4.53214578 3.23442037 6.375 6.25 C7.56711579 11.49530949 6.97986072 15.43222284 4.125 20 C-0.47342656 22.942993 -4.6869519 23.02112636 -10 22 C-12.89683868 19.7984026 -14.39297231 18.21405538 -16 15 C-16.68128376 8.18716238 -16.68128376 8.18716238 -14.953125 5.17578125 C-10.49973724 -0.23377506 -6.72278768 -0.83744068 0 0 Z " fill="#FFFFFF" transform="translate(75,60)"/>
<path d="M0 0 C3.6578218 2.03993908 5.66946174 3.50419262 8 7 C8.68343706 10.77688904 8.85107095 14.47186889 6.94921875 17.88671875 C5.17977487 20.04241292 3.5083344 21.7458328 1 23 C-4.34243433 23.35032356 -7.64786539 23.4561069 -12 20 C-14.96517497 15.55223754 -14.76239491 11.21478117 -14 6 C-10.14874822 0.79560571 -6.37381072 -0.6248834 0 0 Z " fill="#FFFFFF" transform="translate(14,29)"/>
<path d="M0 0 C3.07469523 1.70251719 5.40613254 3.81226508 7 7 C7.50866466 13.10397596 7.05703618 16.10769166 3 21 C-0.99449682 22.99724841 -5.66653034 22.63066345 -10 22 C-13.6403201 19.28760463 -14.65984951 17.93885778 -15.4296875 13.55078125 C-15.65033717 9.20917446 -15.42476436 6.69378179 -13.125 2.9375 C-9.16048012 -0.6772093 -5.18775722 -0.80079474 0 0 Z " fill="#FFFFFF" transform="translate(15,60)"/>
<path d="M0 0 C3.47975641 0.62175828 5.30919416 1.79041402 7.6015625 4.46484375 C8.84456355 8.19384691 9.2727299 11.59833589 8.6015625 15.46484375 C6.86248662 18.48875927 4.76658928 20.88233036 1.6015625 22.46484375 C-4.50241346 22.97350841 -7.50612916 22.52187993 -12.3984375 18.46484375 C-14.27211911 14.71748053 -13.91635762 10.54580472 -13.3984375 6.46484375 C-11.06977845 0.11395544 -6.05603789 -0.33463282 0 0 Z " fill="#FFFFFF" transform="translate(13.3984375,-0.46484375)"/>
<path d="M0 0 C1.77007714 -0.08114106 3.54122098 -0.13925505 5.3125 -0.1875 C6.29863281 -0.22230469 7.28476563 -0.25710937 8.30078125 -0.29296875 C11 0 11 0 12.84375 1.35546875 C14.44958109 3.63943797 14.20532213 5.26237154 14 8 C14 10.00097632 14.06268253 12.00292042 14.1875 14 C14 17 14 17 12.625 18.8125 C8.76918907 21.63020799 5.67069556 21.14827605 1 21 C0 20 0 20 -0.11352539 18.05053711 C-0.10567017 16.8015564 -0.10567017 16.8015564 -0.09765625 15.52734375 C-0.09443359 14.62822266 -0.09121094 13.72910156 -0.08789062 12.80273438 C-0.07951172 11.85720703 -0.07113281 10.91167969 -0.0625 9.9375 C-0.05798828 8.98810547 -0.05347656 8.03871094 -0.04882812 7.06054688 C-0.0370011 4.70696935 -0.02052025 2.35351523 0 0 Z M5 4 C5 5.32 5 6.64 5 8 C6.32 7.67 7.64 7.34 9 7 C9 6.01 9 5.02 9 4 C7.68 4 6.36 4 5 4 Z M5 12 C5 13.32 5 14.64 5 16 C6.32 16 7.64 16 9 16 C9 14.68 9 13.36 9 12 C7.68 12 6.36 12 5 12 Z " fill="#FFFFFF" transform="translate(94,60)"/>
<path d="M0 0 C2.31 0 4.62 0 7 0 C7 2.31 7 4.62 7 7 C8.11375 6.6596875 8.11375 6.6596875 9.25 6.3125 C12 6 12 6 14.25 7.0625 C16.62561099 9.69264074 16.8594096 11.4852399 17 15 C16.22735001 18.32239494 15.40635973 19.65169166 12.8125 21.875 C9.16284669 23.33486132 6.78297127 22.87299337 3 22 C2 21 2 21 1.90234375 17.18359375 C1.90901911 15.60153318 1.92098125 14.01948841 1.9375 12.4375 C1.94201172 11.63119141 1.94652344 10.82488281 1.95117188 9.99414062 C1.96299482 7.99606244 1.98093086 5.99802217 2 4 C1.34 4 0.68 4 0 4 C0 2.68 0 1.36 0 0 Z M8 11 C7.67 13.31 7.34 15.62 7 18 C8.32 18 9.64 18 11 18 C11.33 16.02 11.66 14.04 12 12 C10.68 11.67 9.36 11.34 8 11 Z " fill="#FFFFFF" transform="translate(237,30)"/>
<path d="M0 0 C0 1.98 0 3.96 0 6 C3.63 6 7.26 6 11 6 C11 10.95 11 15.9 11 21 C9.35 21 7.7 21 6 21 C6 17.04 6 13.08 6 9 C4.02 9.33 2.04 9.66 0 10 C0 12.31 0 14.62 0 17 C1.32 17.33 2.64 17.66 4 18 C3.34 19.32 2.68 20.64 2 22 C-0.9375 21.625 -0.9375 21.625 -4 21 C-5.20272819 18.59454362 -5.10071472 17.05003047 -5.0625 14.375 C-5.05347656 13.55773438 -5.04445312 12.74046875 -5.03515625 11.8984375 C-5.02355469 11.27195312 -5.01195312 10.64546875 -5 10 C-5.66 10 -6.32 10 -7 10 C-7 8.68 -7 7.36 -7 6 C-6.34 6 -5.68 6 -5 6 C-5 4.35 -5 2.7 -5 1 C-2 0 -2 0 0 0 Z " fill="#FFFFFF" transform="translate(182,31)"/>
<path d="M0 0 C0 1.98 0 3.96 0 6 C3.63 6 7.26 6 11 6 C11 10.95 11 15.9 11 21 C9.35 21 7.7 21 6 21 C6 17.04 6 13.08 6 9 C4.02 9.33 2.04 9.66 0 10 C0 12.31 0 14.62 0 17 C1.32 17 2.64 17 4 17 C4 18.32 4 19.64 4 21 C1.6875 21.625 1.6875 21.625 -1 22 C-1.99 21.34 -2.98 20.68 -4 20 C-4.29296875 17.6171875 -4.29296875 17.6171875 -4.1875 14.875 C-4.16042969 13.96492188 -4.13335937 13.05484375 -4.10546875 12.1171875 C-4.07066406 11.41851562 -4.03585938 10.71984375 -4 10 C-4.99 10 -5.98 10 -7 10 C-7 8.68 -7 7.36 -7 6 C-6.01 6 -5.02 6 -4 6 C-4 4.35 -4 2.7 -4 1 C-2 0 -2 0 0 0 Z " fill="#FFFFFF" transform="translate(163,31)"/>
<path d="M0 0 C2.31 0 4.62 0 7 0 C7.33 2.97 7.66 5.94 8 9 C8.66 8.34 9.32 7.68 10 7 C12.625 6.875 12.625 6.875 15 7 C14.690625 7.5775 14.38125 8.155 14.0625 8.75 C12.62702436 11.76367213 12.62702436 11.76367213 12 15 C12.95298777 16.36733028 13.95374591 17.70264493 15 19 C15 19.99 15 20.98 15 22 C12.625 22.1875 12.625 22.1875 10 22 C9.34 21.01 8.68 20.02 8 19 C7.67 19.99 7.34 20.98 7 22 C5.35 21.67 3.7 21.34 2 21 C2 15.39 2 9.78 2 4 C1.34 4 0.68 4 0 4 C0 2.68 0 1.36 0 0 Z " fill="#FFFFFF" transform="translate(285,30)"/>
<path d="M0 0 C2 2 2 2 2.1953125 5.0390625 C2.17210937 6.22242188 2.14890625 7.40578125 2.125 8.625 C2.10695312 9.81351563 2.08890625 11.00203125 2.0703125 12.2265625 C2.04710937 13.14179687 2.02390625 14.05703125 2 15 C0.35 15 -1.3 15 -3 15 C-3 11.37 -3 7.74 -3 4 C-3.99 4 -4.98 4 -6 4 C-6.33 7.63 -6.66 11.26 -7 15 C-8.65 15 -10.3 15 -12 15 C-12 11.04 -12 7.08 -12 3 C-12.66 3 -13.32 3 -14 3 C-14 2.01 -14 1.02 -14 0 C-4.17431193 -1.39143731 -4.17431193 -1.39143731 0 0 Z " fill="#FFFFFF" transform="translate(223,37)"/>
<path d="M0 0 C2 2 2 2 2.1953125 5.0390625 C2.17210938 6.22242188 2.14890625 7.40578125 2.125 8.625 C2.10695313 9.81351563 2.08890625 11.00203125 2.0703125 12.2265625 C2.04710938 13.14179687 2.02390625 14.05703125 2 15 C0.35 15 -1.3 15 -3 15 C-3 11.37 -3 7.74 -3 4 C-3.99 4 -4.98 4 -6 4 C-6.33 7.63 -6.66 11.26 -7 15 C-8.65 15 -10.3 15 -12 15 C-12 11.04 -12 7.08 -12 3 C-12.66 3 -13.32 3 -14 3 C-14 2.01 -14 1.02 -14 0 C-4.17431193 -1.39143731 -4.17431193 -1.39143731 0 0 Z " fill="#FFFFFF" transform="translate(114,37)"/>
<path d="M0 0 C2 2 2 2 2.1953125 4.3828125 C2.17210937 5.28773437 2.14890625 6.19265625 2.125 7.125 C2.10695313 8.03507812 2.08890625 8.94515625 2.0703125 9.8828125 C2.04710937 10.58148438 2.02390625 11.28015625 2 12 C2.99 12 3.98 12 5 12 C5 12.99 5 13.98 5 15 C2.89807303 15.24887295 0.79326036 15.4734719 -1.3125 15.6875 C-2.48425781 15.81511719 -3.65601563 15.94273438 -4.86328125 16.07421875 C-8 16 -8 16 -9.9140625 14.671875 C-11 13 -11 13 -11.0625 10.5625 C-9.58174911 6.99127727 -7.28277116 5.88584726 -4 4 C-5.98 4 -7.96 4 -10 4 C-10 2.68 -10 1.36 -10 0 C-6.25976024 -1.24674659 -3.83399823 -0.76679965 0 0 Z M-5 9 C-5 9.99 -5 10.98 -5 12 C-4.34 11.67 -3.68 11.34 -3 11 C-3 10.34 -3 9.68 -3 9 C-3.66 9 -4.32 9 -5 9 Z " fill="#FFFFFF" transform="translate(265,37)"/>
<path d="M0 0 C2.35119399 3.52679099 2.21443452 5.02879485 2.125 9.1875 C2.10695313 10.27417969 2.08890625 11.36085938 2.0703125 12.48046875 C2.04710937 13.31191406 2.02390625 14.14335938 2 15 C0.35 15 -1.3 15 -3 15 C-3 11.37 -3 7.74 -3 4 C-3.99 4.33 -4.98 4.66 -6 5 C-6.33 8.3 -6.66 11.6 -7 15 C-8.65 15 -10.3 15 -12 15 C-12 11.04 -12 7.08 -12 3 C-12.66 3 -13.32 3 -14 3 C-14 2.01 -14 1.02 -14 0 C-3.92395139 -1.42689142 -3.92395139 -1.42689142 0 0 Z " fill="#FFFFFF" transform="translate(283,37)"/>
<path d="M0 0 C2.75806231 2.39032067 2.98155872 3.85246979 3.4375 7.5 C3 11 3 11 1.375 13.375 C-1.60751099 15.41566541 -3.36994269 16.0740828 -7 16 C-9.9375 14.125 -9.9375 14.125 -12 11 C-12.37801528 7.7727651 -12.06785756 5.06787806 -11 2 C-7.46885872 -1.43025153 -4.58813518 -1.49613104 0 0 Z M-6 4 C-7.29633621 5.06645115 -7.29633621 5.06645115 -7.0625 7.5625 C-7.041875 8.366875 -7.02125 9.17125 -7 10 C-5.05396726 10.59070014 -5.05396726 10.59070014 -3 11 C-1.64381501 9.87465895 -1.64381501 9.87465895 -1.9375 6.9375 C-1.958125 5.968125 -1.97875 4.99875 -2 4 C-3.32 4 -4.64 4 -6 4 Z " fill="#FFFFFF" transform="translate(206,37)"/>
<path d="M0 0 C4.62 0 9.24 0 14 0 C15.50156874 3.00313748 15.09281204 5.79067522 15.0625 9.125 C15.05347656 10.40632813 15.04445312 11.68765625 15.03515625 13.0078125 C15.02355469 13.99523437 15.01195312 14.98265625 15 16 C13.68 16 12.36 16 11 16 C10.67 12.37 10.34 8.74 10 5 C9.34 5 8.68 5 8 5 C7.67 8.3 7.34 11.6 7 15 C5.35 15.33 3.7 15.66 2 16 C2 12.04 2 8.08 2 4 C1.01 3.67 0.02 3.34 -1 3 C-0.67 2.01 -0.34 1.02 0 0 Z " fill="#FFFFFF" transform="translate(150,65)"/>
<path d="M0 0 C2 2 2 2 2.1875 5.0625 C2 8 2 8 1 9 C-1.33297433 9.04092937 -3.66705225 9.04241723 -6 9 C-6 9.66 -6 10.32 -6 11 C-3.36 11 -0.72 11 2 11 C2 12.32 2 13.64 2 15 C-5.33333333 16.22222222 -5.33333333 16.22222222 -8.4375 15.1875 C-10 14 -10 14 -11 12 C-11.41333664 8.94130889 -11.47638686 6.05320666 -11 3 C-7.59825643 -1.20215382 -5.07151284 -1.577804 0 0 Z M-5 3 C-5.33 3.66 -5.66 4.32 -6 5 C-4.68 4.67 -3.36 4.34 -2 4 C-2.99 3.67 -3.98 3.34 -5 3 Z " fill="#FFFFFF" transform="translate(142,37)"/>
<path d="M0 0 C1.9375 1.6875 1.9375 1.6875 3 4 C3.1875 6.75 3.1875 6.75 3 9 C0.03 9 -2.94 9 -6 9 C-6 9.66 -6 10.32 -6 11 C-3.36 11 -0.72 11 2 11 C2 12.32 2 13.64 2 15 C-0.88861709 16.44430855 -2.79647701 16.37688506 -6 16 C-8.875 13.875 -8.875 13.875 -11 11 C-11.55948113 7.08363212 -11.20709681 4.31064521 -9 1 C-5.9167365 -0.54163175 -3.39121901 -0.29747535 0 0 Z M-6 4 C-2 5 -2 5 -2 5 Z " fill="#FFFFFF" transform="translate(120,65)"/>
<path d="M0 0 C1.65 0 3.3 0 5 0 C5.99 1.98 6.98 3.96 8 6 C8.66 4.02 9.32 2.04 10 0 C11.65 0 13.3 0 15 0 C14.43174347 5.54050113 12.37113483 10.03715966 10 15 C8.35 15 6.7 15 5 15 C4.16260219 12.8765984 3.33019717 10.7512272 2.5 8.625 C1.80390625 6.84996094 1.80390625 6.84996094 1.09375 5.0390625 C0 2 0 2 0 0 Z " fill="#FFFFFF" transform="translate(116,37)"/>
<path d="M0 0 C0.33 1.32 0.66 2.64 1 4 C0.01 4.33 -0.98 4.66 -2 5 C-2.66 4.67 -3.32 4.34 -4 4 C-4 4.66 -4 5.32 -4 6 C-3.195625 6.2475 -2.39125 6.495 -1.5625 6.75 C1 8 1 8 2.125 9.8125 C2 12 2 12 -0.125 14.75 C-3 17 -3 17 -5.8125 17.3125 C-6.534375 17.209375 -7.25625 17.10625 -8 17 C-8.33 15.35 -8.66 13.7 -9 12 C-7.68 11.67 -6.36 11.34 -5 11 C-5.99 10.4121875 -5.99 10.4121875 -7 9.8125 C-9 8 -9 8 -9.5 5.5 C-9 3 -9 3 -7.3125 1.1875 C-4.65769564 -0.17577792 -2.94425817 -0.24535485 0 0 Z " fill="#FFFFFF" transform="translate(236,36)"/>
<path d="M0 0 C0 1.32 0 2.64 0 4 C-1.32 4 -2.64 4 -4 4 C-3.175 4.556875 -2.35 5.11375 -1.5 5.6875 C1 8 1 8 1.625 10.5625 C1 13 1 13 -1.1875 14.875 C-4.38020042 16.15208017 -5.79533554 16.15723994 -9 15 C-9.33 14.34 -9.66 13.68 -10 13 C-9.67 12.34 -9.34 11.68 -9 11 C-6.9375 10.375 -6.9375 10.375 -5 10 C-5.639375 9.773125 -6.27875 9.54625 -6.9375 9.3125 C-9 8 -9 8 -9.875 5.5625 C-10 3 -10 3 -8 0 C-4.71023192 -1.09658936 -3.28696233 -0.79953138 0 0 Z " fill="#FFFFFF" transform="translate(155,37)"/>
<path d="M0 0 C3.63 0 7.26 0 11 0 C11 1.32 11 2.64 11 4 C10.01 4 9.02 4 8 4 C7.67 7.96 7.34 11.92 7 16 C5.35 15.67 3.7 15.34 2 15 C2 11.37 2 7.74 2 4 C1.34 4 0.68 4 0 4 C0 2.68 0 1.36 0 0 Z " fill="#FFFFFF" transform="translate(123,65)"/>
<path d="M0 0 C1.98 0 3.96 0 6 0 C6 7.59 6 15.18 6 23 C4.68 23 3.36 23 2 23 C2 16.73 2 10.46 2 4 C1.01 4 0.02 4 -1 4 C-0.67 2.68 -0.34 1.36 0 0 Z " fill="#FFFFFF" transform="translate(134,58)"/>
<path d="M0 0 C1.65 0 3.3 0 5 0 C5 6.6 5 13.2 5 20 C3.35 20 1.7 20 0 20 C0 13.4 0 6.8 0 0 Z " fill="#FFFFFF" transform="translate(94,32)"/>
<path d="M0 0 C2.31 0 4.62 0 7 0 C7 5.28 7 10.56 7 16 C5.68 16 4.36 16 3 16 C3 12.04 3 8.08 3 4 C2.01 3.67 1.02 3.34 0 3 C0 2.01 0 1.02 0 0 Z " fill="#FFFFFF" transform="translate(141,65)"/>
</svg>
