<?xml version="1.0" encoding="UTF-8"?>
<svg version="1.1" xmlns="http://www.w3.org/2000/svg" width="1258" height="304">
<path d="M0 0 C415.14 0 830.28 0 1258 0 C1258 100.32 1258 200.64 1258 304 C842.86 304 427.72 304 0 304 C0 203.68 0 103.36 0 0 Z " fill="#000000" transform="translate(0,0)"/>
<path d="M0 0 C81.84 0 163.68 0 248 0 C248 0.66 248 1.32 248 2 C247.35675781 2.06316406 246.71351563 2.12632813 246.05078125 2.19140625 C231.66752876 4.14063448 221.38501388 12.58175919 211 22 C209.8621986 23.01587082 208.72417704 24.03149512 207.5859375 25.046875 C200.23024521 30.93294165 200.23024521 30.93294165 196.5625 39.125 C194.07225262 48.22398082 181.34129376 53.84549297 173.65234375 58.37109375 C170.96512427 59.87987558 170.96512427 59.87987558 169 62 C168.64752667 65.7362173 168.7525644 68.36766457 170.125 71.875 C172.57587011 74.65265279 174.38275498 74.75885033 178 75 C177.51196507 78.05021833 176.59293506 79.63454241 174.875 82.3125 C172.59876537 86.17470316 172.99841176 88.6084208 174 93 C174.41500203 95.66650728 174.72208741 98.31351162 175 101 C173.49685778 102.50314222 172.09741357 102.0740212 170 102.125 C162.87509243 102.82841444 158.09352694 107.584392 153.5625 112.8125 C150.2816289 115.61324362 147.50000974 116.00303803 143.3046875 116.640625 C140.84805341 116.95826664 140.84805341 116.95826664 138 118 C136.54097814 118.13486611 135.07739419 118.22374384 133.61328125 118.28125 C132.3284082 118.33732422 132.3284082 118.33732422 131.01757812 118.39453125 C129.67856445 118.44673828 129.67856445 118.44673828 128.3125 118.5 C123.34312518 118.69804151 118.44847055 118.8931973 113.52734375 119.640625 C108.9056564 120.11149459 107.76951068 118.60966124 104 116 C95.21793171 112.8818704 86.48596749 112.48966021 77.25 112.5625 C76.59246735 112.56487671 75.93493469 112.56725342 75.25747681 112.56970215 C63.56672423 112.63579074 44.99863515 113.00136485 36 122 C35.92728259 124.35313555 35.91629132 126.70833668 35.9375 129.0625 C35.94652344 130.35285156 35.95554688 131.64320313 35.96484375 132.97265625 C35.97644531 133.97167969 35.98804688 134.97070312 36 136 C38.97 136.99 38.97 136.99 42 138 C41.97679687 138.65226563 41.95359375 139.30453125 41.9296875 139.9765625 C41.82416247 145.08698903 41.98073698 149.20425033 44 154 C42.87926138 154.83905565 41.75325453 155.67107831 40.625 156.5 C39.99851563 156.9640625 39.37203125 157.428125 38.7265625 157.90625 C37 159 37 159 35 159 C34.773125 159.721875 34.54625 160.44375 34.3125 161.1875 C31.59037074 167.02063413 26.63122257 170.01630086 21.39453125 173.39453125 C18.97732751 175.01520129 16.71370277 176.75018656 14.4375 178.5625 C9.9019469 182.15115693 5.18145652 185.40927174 0 188 C0 125.96 0 63.92 0 0 Z " fill="#000000" transform="translate(0,0)"/>
<path d="M0 0 C1.32 1.32 2.64 2.64 4 4 C6.92819981 4.38974299 9.47925985 4.53464576 12.40632629 4.49879456 C13.26235103 4.50417911 14.11837576 4.50956366 15.00034064 4.51511139 C17.87397054 4.5284051 20.74674972 4.51322342 23.62036133 4.49829102 C25.67853692 4.50211324 27.73670985 4.50773145 29.7948761 4.51501465 C34.2300306 4.5269799 38.66494843 4.52646443 43.10010719 4.51642036 C50.11326773 4.5008824 57.12618437 4.51452232 64.139328 4.53245544 C77.76375576 4.56330388 91.38810939 4.56477577 105.01256561 4.56280518 C122.34412397 4.56141326 139.67562515 4.57174776 157.00714129 4.6113829 C163.97824484 4.62632335 170.94913319 4.62604093 177.92024004 4.61390507 C182.25923082 4.60919433 186.59813924 4.6167139 190.93711662 4.62744904 C192.94826441 4.62985535 194.95942598 4.62711923 196.97055817 4.61884117 C199.71816378 4.60820887 202.46513737 4.61598012 205.21272278 4.62818909 C206.00670355 4.62061303 206.80068432 4.61303698 207.61872512 4.60523134 C213.18293622 4.65757761 218.37069872 5.47587077 222.5625 9.5 C223.036875 9.995 223.51125 10.49 224 11 C225.03125 11.309375 226.0625 11.61875 227.125 11.9375 C230 14 230 14 230.46875 16.578125 C230.57497793 18.69206088 230.66690442 20.80675365 230.74609375 22.921875 C231.22283886 28.70149261 233.6018839 33.0056429 237.875 36.875 C240.84637493 39.12478118 240.84637493 39.12478118 244.125 39.9375 C247 41 247 41 248.55859375 43.69921875 C251.48944773 48.33121227 256.22586434 50.35386889 260.9375 52.875 C262.82773347 53.91892587 264.71705757 54.96450004 266.60546875 56.01171875 C267.52505371 56.51751465 268.44463867 57.02331055 269.39208984 57.54443359 C272.90144384 59.50312752 276.33649849 61.56713417 279.75 63.6875 C280.75546875 64.31011719 281.7609375 64.93273437 282.796875 65.57421875 C285 67 285 67 286 68 C286.33214709 74.0893633 285.93456368 80.17561845 284 86 C283.02731423 87.02658775 282.03007481 88.0310078 281 89 C280.5 91.5 280.5 91.5 281 94 C281.99 94.99 282.98 95.98 284 97 C190.28 97 96.56 97 0 97 C0 64.99 0 32.98 0 0 Z " fill="#000000" transform="translate(0,207)"/>
<path d="M0 0 C1.34338703 -0.02777258 2.68678091 -0.05521621 4.03018188 -0.08230591 C5.23595383 -0.11545395 6.44172577 -0.14860199 7.68403625 -0.18275452 C12.24996876 0.23543003 14.76223762 1.92562873 17.95327759 5.1166687 C18.12849994 8.13108721 18.18727435 11.04192463 18.14077759 14.0541687 C18.13288208 14.91067017 18.12498657 15.76717163 18.11685181 16.64962769 C17.88156575 34.18838054 17.88156575 34.18838054 14.95327759 37.1166687 C10.39772203 36.56111315 10.39772203 36.56111315 8.95327759 35.1166687 C8.86569756 33.11701888 8.84631183 31.1143076 8.85562134 29.11276245 C8.85884399 27.89782104 8.86206665 26.68287964 8.86538696 25.43112183 C8.87376587 24.15172729 8.88214478 22.87233276 8.89077759 21.5541687 C8.89528931 20.27090698 8.89980103 18.98764526 8.90444946 17.66549683 C8.91628213 14.48250848 8.93276691 11.29961108 8.95327759 8.1166687 C7.34920431 8.08958304 5.74499909 8.07023387 4.14077759 8.0541687 C3.24745728 8.04256714 2.35413696 8.03096558 1.43374634 8.01901245 C-1.18086032 8.00656903 -1.18086032 8.00656903 -4.04672241 9.1166687 C-5.93636066 9.20349861 -7.82892426 9.23148272 -9.72055054 9.22677612 C-10.88606445 9.22735519 -12.05157837 9.22793427 -13.25241089 9.22853088 C-15.14606384 9.22536613 -15.14606384 9.22536613 -17.07797241 9.22213745 C-19.75247222 9.23560018 -22.42693074 9.25052154 -25.10140991 9.26705933 C-29.31672196 9.29129076 -33.53154606 9.30719625 -37.74691772 9.29171753 C-40.4936337 9.28225316 -43.2394254 9.28878263 -45.98605347 9.31278992 C-48.56709295 9.33513783 -51.14844974 9.33540468 -53.72946167 9.31007385 C-65.48233832 9.47135335 -73.5720081 14.17214773 -82.10922241 21.9291687 C-82.69357056 22.44906372 -83.2779187 22.96895874 -83.87997437 23.50460815 C-85.05296605 24.54917595 -86.22290639 25.59718218 -87.38949585 26.64889526 C-88.91139202 27.99680919 -90.48108907 29.29024142 -92.05453491 30.5776062 C-97.65390595 35.13585087 -97.65390595 35.13585087 -100.48422241 41.5541687 C-102.50309047 49.49136231 -110.19822135 54.45302544 -116.88265991 58.52682495 C-120.22367124 60.48244652 -123.61600817 62.32368228 -127.04672241 64.1166687 C-126.44344116 64.23912964 -125.84015991 64.36159058 -125.21859741 64.48776245 C-121.72528104 65.49931629 -120.23382505 67.2612847 -118.04672241 70.1166687 C-117.19021851 75.34134249 -117.61462884 77.85084858 -120.60922241 82.1791687 C-122.85229954 85.41461312 -122.85229954 85.41461312 -122.85922241 89.4291687 C-122.45703491 91.2544812 -122.45703491 91.2544812 -122.04672241 93.1166687 C-121.11373721 102.89212562 -121.11373721 102.89212562 -124.04672241 106.7416687 C-127.2425257 108.20641188 -129.69006884 108.50023948 -133.14047241 108.7963562 C-136.24084664 109.31732072 -137.79789339 110.98028113 -140.04672241 113.1166687 C-141.46024257 114.3494525 -142.87712818 115.57838432 -144.29672241 116.8041687 C-146.71923177 118.90956955 -146.71923177 118.90956955 -149.04672241 121.1166687 C-151.45588074 121.65657424 -153.87897911 122.08030838 -156.30844116 122.51901245 C-159.08892417 123.05090988 -159.08892417 123.05090988 -161.77719116 124.18307495 C-166.14565253 125.43046117 -170.15988563 125.25549445 -174.67172241 125.1166687 C-176.35114629 125.06546675 -178.03088158 125.02346498 -179.71078491 124.9916687 C-180.44764526 124.96846558 -181.18450562 124.94526245 -181.94369507 124.9213562 C-184.37943508 125.14756841 -185.88948417 125.99869564 -188.04672241 127.1166687 C-194.12279949 127.81392345 -196.06297471 127.20762782 -200.94515991 123.43307495 C-212.95779341 115.90843278 -233.61168408 118.05305716 -246.83432007 120.66793823 C-251.37414893 121.82428477 -255.72206474 123.32190265 -260.04672241 125.1166687 C-260.37672241 126.7666687 -260.70672241 128.4166687 -261.04672241 130.1166687 C-260.24234741 130.4260437 -259.43797241 130.7354187 -258.60922241 131.0541687 C-256.04672241 132.1166687 -256.04672241 132.1166687 -255.04672241 133.1166687 C-254.83688962 135.25871181 -254.67848856 137.40590984 -254.54672241 139.5541687 C-254.40524915 143.99451201 -254.40524915 143.99451201 -253.04672241 148.1166687 C-252.56863406 151.19701013 -252.48046678 154.04499898 -253.04672241 157.1166687 C-255.10080549 159.21852115 -256.68007524 160.52955697 -259.04672241 162.1166687 C-261.71308225 164.6529622 -264.03420177 167.09985527 -266.23422241 170.0541687 C-269.04586139 173.51803741 -272.58135892 175.30723666 -276.42562866 177.47213745 C-279.16510935 179.19094724 -281.37472902 181.09794154 -283.73422241 183.3041687 C-287.34187881 186.66147172 -290.3952104 188.53317525 -295.04672241 190.1166687 C-295.54172241 196.5516687 -295.54172241 196.5516687 -296.04672241 203.1166687 C-294.98819596 203.11390332 -293.92966951 203.11113794 -292.83906651 203.10828876 C-267.07429204 203.04166894 -241.30952875 202.99238135 -215.54468632 202.96123219 C-203.08496602 202.94576803 -190.62530265 202.92468705 -178.1656189 202.89035034 C-167.30485907 202.86043427 -156.44414047 202.84109042 -145.58334059 202.83440322 C-139.83345812 202.83049473 -134.0836936 202.82131844 -128.33384895 202.79947853 C-122.91911892 202.77907862 -117.50455516 202.77284204 -112.08979034 202.77734566 C-110.10527835 202.77652203 -108.12076066 202.77057737 -106.13628197 202.75905228 C-103.41983033 202.74405332 -100.7040006 202.747742 -97.98753357 202.75590515 C-97.20832285 202.74716663 -96.42911212 202.7384281 -95.62628895 202.72942477 C-86.86761914 202.80022053 -80.47233021 205.26222604 -74.04672241 211.1166687 C-72.97422241 211.7972937 -71.90172241 212.4779187 -70.79672241 213.1791687 C-67.92913384 215.1995152 -67.25063291 215.9412167 -66.04672241 219.1166687 C-65.85631278 221.06972749 -65.73659823 223.03042278 -65.67172241 224.9916687 C-65.28489873 230.11396293 -64.86600142 233.39287167 -61.04672241 237.1166687 C-58.76261741 238.04600618 -56.48328502 238.7419308 -54.10922241 239.4057312 C-52.04672241 240.1166687 -52.04672241 240.1166687 -49.98422241 242.1166687 C-49.04672241 244.1166687 -49.04672241 244.1166687 -49.04672241 247.1166687 C-48.35578491 247.37190308 -47.66484741 247.62713745 -46.95297241 247.8901062 C-41.037646 250.38662837 -35.57402596 253.86379237 -30.04672241 257.1166687 C-29.45133667 257.46600464 -28.85595093 257.81534058 -28.24252319 258.17526245 C-10.96176745 268.37153358 -10.96176745 268.37153358 -9.04672241 274.1166687 C-8.38672241 273.4566687 -7.72672241 272.7966687 -7.04672241 272.1166687 C-7.21626811 270.02666346 -7.21626811 270.02666346 -7.73422241 267.7416687 C-8.07015991 265.30807495 -8.07015991 265.30807495 -8.04672241 263.1166687 C-5.46185567 260.23638862 -2.56131508 258.67870989 0.95327759 257.1166687 C0.79085571 256.43862183 0.62843384 255.76057495 0.46109009 255.0619812 C-0.12551787 251.65965504 -0.17905098 248.44342532 -0.17172241 244.9916687 C-0.17430054 243.77221558 -0.17687866 242.55276245 -0.17953491 241.2963562 C-0.04672241 238.1166687 -0.04672241 238.1166687 0.95327759 235.1166687 C1.25814199 231.99180854 1.46168975 228.86638759 1.67202759 225.7338562 C1.95327759 223.1166687 1.95327759 223.1166687 2.95327759 222.1166687 C5.45327759 221.9916687 5.45327759 221.9916687 7.95327759 222.1166687 C8.95327759 223.1166687 8.95327759 223.1166687 9.0350647 225.8288269 C9.01709839 227.01307251 8.99913208 228.19731812 8.98062134 229.41744995 C8.96837524 230.70457886 8.95612915 231.99170776 8.94351196 233.31784058 C8.91874079 235.37188612 8.89083281 237.42578343 8.85733032 239.47970581 C8.82703627 241.45883774 8.80992013 243.43815747 8.79312134 245.41744995 C8.77628296 246.60507935 8.75944458 247.79270874 8.74209595 249.0163269 C8.94742082 252.0306859 9.47614509 253.55050439 10.95327759 256.1166687 C10.71469474 259.93399423 8.72890046 261.65825987 5.95327759 264.1166687 C5.21077759 264.5704187 4.46827759 265.0241687 3.70327759 265.4916687 C1.59390721 267.0824668 1.59390721 267.0824668 1.70327759 270.3041687 C1.78577759 271.2322937 1.86827759 272.1604187 1.95327759 273.1166687 C2.51015259 272.92330933 3.06702759 272.72994995 3.64077759 272.5307312 C4.40390259 272.27034058 5.16702759 272.00994995 5.95327759 271.7416687 C7.06702759 271.35881714 7.06702759 271.35881714 8.20327759 270.9682312 C15.01052043 268.86030657 20.86956426 267.90925958 27.95327759 267.8041687 C35.33344715 267.57930021 41.5534417 266.2945024 48.49697876 263.85934448 C53.64883348 262.08738576 58.53724317 261.0687598 63.95327759 262.1166687 C64.94327759 262.7766687 65.93327759 263.4366687 66.95327759 264.1166687 C69.284887 264.20634599 71.62123947 264.19440331 73.95327759 264.1166687 C80.61994425 263.89444648 80.61994425 263.89444648 83.95327759 266.1166687 C83.59245285 272.37096423 83.59245285 272.37096423 81.07827759 275.3041687 C73.5742708 279.65649264 64.98404681 281.75093776 56.72427368 284.25436401 C53.0915654 285.37491813 49.67095287 286.61725866 46.26577759 288.3041687 C41.62550496 290.53903889 36.85185976 291.03621828 31.77359009 291.6244812 C28.75831728 291.95529927 28.75831728 291.95529927 25.95327759 294.1166687 C24.15214171 294.45492375 22.33570239 294.71380699 20.51577759 294.9291687 C14.55463534 295.7532285 8.88848316 297.12691213 3.07827759 298.6791687 C-5.18521923 300.84425653 -13.45067991 302.58884568 -22.04672241 302.1166687 C-24.04672241 300.1166687 -24.04672241 300.1166687 -24.35922241 297.6791687 C-24.04672241 295.1166687 -24.04672241 295.1166687 -22.60140991 293.7494812 C-20.63990274 291.68940583 -20.36974117 290.20865971 -19.85922241 287.4291687 C-19.70066772 286.62092651 -19.54211304 285.81268433 -19.37875366 284.97994995 C-19.21439819 283.56262573 -19.21439819 283.56262573 -19.04672241 282.1166687 C-18.76312866 280.85467651 -18.47953491 279.59268433 -18.18734741 278.29244995 C-18.09162934 276.16413633 -18.09162934 276.16413633 -19.04672241 274.1166687 C-22.97743314 270.75626646 -27.44854767 268.41980512 -31.98422241 265.9916687 C-33.21042251 265.31093244 -34.43505357 264.62736175 -35.65805054 263.94088745 C-37.45039514 262.9355319 -39.24323719 261.93149873 -41.04135132 260.93649292 C-54.12547307 253.67570605 -54.12547307 253.67570605 -56.67172241 249.3666687 C-57.91150948 246.74683917 -57.91150948 246.74683917 -61.29672241 246.3041687 C-66.45968474 244.66923063 -69.03661147 241.52461481 -72.04672241 237.1166687 C-73.94388505 233.30355963 -74.23311851 230.22132815 -74.29672241 225.9916687 C-74.4427641 222.86572067 -74.4427641 222.86572067 -75.04672241 220.1166687 C-77.71338908 217.95000203 -77.71338908 217.95000203 -81.04672241 217.1166687 C-81.91297241 216.4154187 -82.77922241 215.7141687 -83.67172241 214.9916687 C-88.14131188 211.46304543 -92.98525276 211.96926769 -98.47996521 211.97190857 C-99.33881221 211.96838172 -100.19765921 211.96485488 -101.08253187 211.96122116 C-103.96521345 211.95053214 -106.84786199 211.94685288 -109.7305603 211.94308472 C-111.79522339 211.93677978 -113.85988511 211.93001404 -115.92454529 211.92282104 C-120.3727242 211.90814964 -124.82089784 211.89642568 -129.26909065 211.88687325 C-136.29789325 211.87143507 -143.32665065 211.84748762 -150.35542297 211.82197571 C-170.34306996 211.75072984 -190.3307425 211.69091479 -210.31845093 211.63986206 C-221.35573743 211.61159537 -232.39297864 211.5762373 -243.43021768 211.53320831 C-250.42243713 211.50638053 -257.41460533 211.48850977 -264.40686619 211.47717106 C-268.75003371 211.46806891 -273.09313872 211.45071898 -277.43626976 211.43099213 C-279.45553738 211.42349594 -281.47482099 211.41943433 -283.49410248 211.41899681 C-286.24301448 211.41791992 -288.99160576 211.40472322 -291.74046326 211.38841248 C-292.5460954 211.39102933 -293.35172753 211.39364618 -294.18177277 211.39634234 C-298.00175928 211.36074831 -299.79067417 211.28736753 -303.04672241 209.1166687 C-304.42482365 204.98236498 -304.38990086 201.07395526 -304.48422241 196.7416687 C-304.52998413 195.89088745 -304.57574585 195.0401062 -304.62289429 194.1635437 C-304.73285504 188.02486521 -304.73285504 188.02486521 -302.81185913 185.48214722 C-301.25375366 184.15963745 -301.25375366 184.15963745 -298.04672241 182.1166687 C-297.06445679 181.47278198 -297.06445679 181.47278198 -296.06234741 180.81588745 C-295.47969116 180.48202026 -294.89703491 180.14815308 -294.29672241 179.8041687 C-290.02750266 177.22467838 -286.28629383 174.1262275 -282.44125366 170.9604187 C-280.38529993 169.37736787 -278.48253457 168.20215247 -276.17172241 167.0541687 C-272.83681325 164.98652502 -271.91475132 163.32571237 -270.22250366 159.8666687 C-268.01696093 156.58400045 -264.48059246 154.92528472 -261.04672241 153.1166687 C-261.39734741 152.3329187 -261.74797241 151.5491687 -262.10922241 150.7416687 C-263.3394027 145.98497157 -262.75032157 141.92776565 -262.04672241 137.1166687 C-262.83047241 137.1579187 -263.61422241 137.1991687 -264.42172241 137.2416687 C-267.04672241 137.1166687 -267.04672241 137.1166687 -269.04672241 135.1166687 C-269.41781616 131.9994812 -269.41781616 131.9994812 -269.48422241 128.2416687 C-269.54416382 126.38928589 -269.54416382 126.38928589 -269.60531616 124.4994812 C-269.04672241 121.1166687 -269.04672241 121.1166687 -266.91000366 118.8041687 C-263.88902186 117.02372649 -261.16437083 115.95966426 -257.79672241 114.9916687 C-256.73969116 114.67971558 -255.68265991 114.36776245 -254.59359741 114.0463562 C-253.42312866 113.73955933 -252.25265991 113.43276245 -251.04672241 113.1166687 C-250.41741821 112.93499146 -249.78811401 112.75331421 -249.13973999 112.56613159 C-241.90319208 110.67094591 -234.67375654 110.78574489 -227.23422241 110.8041687 C-225.94451538 110.78805542 -224.65480835 110.77194214 -223.32601929 110.75534058 C-214.13957659 110.75069392 -204.56818706 110.98642394 -196.79672241 116.3666687 C-193.51737551 118.45352582 -192.0756873 117.99173619 -188.36508179 117.42770386 C-185.93513029 117.10169731 -183.55099203 116.96321819 -181.10140991 116.87057495 C-180.25191772 116.83770386 -179.40242554 116.80483276 -178.52719116 116.77096558 C-176.78254164 116.70949741 -175.03773886 116.65224201 -173.29281616 116.59909058 C-168.49233684 116.40546394 -164.58576211 115.83156826 -160.04672241 114.1166687 C-158.87109741 114.0135437 -157.69547241 113.9104187 -156.48422241 113.8041687 C-152.1159582 112.93051586 -151.02964767 111.38368208 -148.04672241 108.1166687 C-142.18681493 102.67040175 -138.12097012 100.24483136 -130.04672241 100.1166687 C-130.26328491 98.3532312 -130.26328491 98.3532312 -130.48422241 96.5541687 C-130.6118396 95.45588745 -130.6118396 95.45588745 -130.74203491 94.3354187 C-131.04657596 91.87725177 -131.04657596 91.87725177 -131.85922241 88.5541687 C-132.11799859 83.80993884 -130.64791319 82.05561474 -128.04672241 78.1166687 C-127.36648572 76.79020714 -126.6917998 75.46057993 -126.04672241 74.1166687 C-126.97484741 74.1785437 -127.90297241 74.2404187 -128.85922241 74.3041687 C-132.04672241 74.1166687 -132.04672241 74.1166687 -133.85922241 72.8041687 C-136.46877033 69.09586376 -136.64055367 65.49617425 -136.04672241 61.1166687 C-132.82031794 56.75218321 -127.72994674 54.30870638 -123.10922241 51.6791687 C-115.3842201 47.26782078 -115.3842201 47.26782078 -109.04672241 41.1166687 C-108.60224252 39.18000632 -108.16099526 37.24029896 -107.83187866 35.2807312 C-104.67651427 26.58385621 -93.07860862 19.6697906 -86.04672241 14.1166687 C-85.27328491 13.47600464 -84.49984741 12.83534058 -83.70297241 12.17526245 C-75.78890926 5.72418632 -67.76547915 1.07321344 -57.41464233 0.91134644 C-56.28213547 0.89140121 -55.1496286 0.87145599 -53.98280334 0.85090637 C-52.14852531 0.82583763 -52.14852531 0.82583763 -50.27719116 0.80026245 C-49.00885941 0.77948135 -47.74052765 0.75870026 -46.4337616 0.73728943 C-43.74298852 0.69402151 -41.05225858 0.6524642 -38.36141968 0.61398315 C-34.95733572 0.56529015 -31.5533553 0.51166582 -28.14937878 0.45600796 C-24.85867582 0.40239361 -21.56793535 0.35127441 -18.27719116 0.30026245 C-16.47631294 0.27215736 -16.47631294 0.27215736 -14.63905334 0.2434845 C-12.30304572 0.20987469 -9.96694688 0.18204776 -7.63079834 0.16033936 C-5.08444638 0.12931299 -2.54488363 0.07536859 0 0 Z " fill="#F5F5F5" transform="translate(304.0467224121094,0.883331298828125)"/>
<path d="M0 0 C1.13405273 0.01522705 1.13405273 0.01522705 2.29101562 0.03076172 C13.9505949 0.34915412 25.18221506 2.72184679 33.74609375 11.15625 C35.38181259 13.14685049 36.67156884 15.13192823 37.9375 17.375 C38.55625 18.45587891 38.55625 18.45587891 39.1875 19.55859375 C44.94575269 32.05480185 43.44908807 50.55044461 38.89453125 63.29296875 C33.54196682 73.90675692 27.25025596 78.64518128 15.9375 82.375 C11.66881837 83.49131641 7.45077655 83.56698342 3.0625 83.5625 C2.32378662 83.56241943 1.58507324 83.56233887 0.82397461 83.56225586 C-17.05023901 83.38113049 -17.05023901 83.38113049 -23.0625 80.375 C-23.0625 54.965 -23.0625 29.555 -23.0625 3.375 C-6.67947761 -0.13564765 -6.67947761 -0.13564765 0 0 Z " fill="#FBFBFB" transform="translate(1130.0625,52.625)"/>
<path d="M0 0 C3.75060429 3.09424854 6.71552061 6.51741575 8.5 11.0625 C9.27366527 19.37490357 9.88044516 28.16225378 4.5 35.0625 C1.39330441 38.72680761 -1.05258313 40.4142086 -5.5 42.0625 C-2.24387828 47.80657388 1.09652219 53.46882782 4.671875 59.01953125 C5.22004883 59.87248779 5.76822266 60.72544434 6.33300781 61.60424805 C7.44006812 63.3198024 8.55396546 65.03096491 9.67480469 66.73754883 C10.18430664 67.52798584 10.69380859 68.31842285 11.21875 69.1328125 C11.68216797 69.84195801 12.14558594 70.55110352 12.62304688 71.28173828 C12.91244141 71.86938965 13.20183594 72.45704102 13.5 73.0625 C13.17 73.7225 12.84 74.3825 12.5 75.0625 C9.22108972 76.15547009 6.57625949 76.33483095 3.125 76.4375 C2.00351563 76.48648438 0.88203125 76.53546875 -0.2734375 76.5859375 C-4.52564655 75.89611182 -5.6615887 74.24484442 -8.5 71.0625 C-9.73807753 69.20225142 -10.91218157 67.29805264 -12.0234375 65.359375 C-12.6525 64.2971875 -13.2815625 63.235 -13.9296875 62.140625 C-15.23140123 59.91359668 -16.52041063 57.67909597 -17.796875 55.4375 C-18.74433594 53.85195312 -18.74433594 53.85195312 -19.7109375 52.234375 C-20.55084229 50.7817627 -20.55084229 50.7817627 -21.40771484 49.29980469 C-23.79956734 46.2739372 -23.79956734 46.2739372 -30.5 46.0625 C-30.5 55.6325 -30.5 65.2025 -30.5 75.0625 C-33.87768474 76.18839491 -36.50812072 76.19544275 -40.0625 76.1875 C-41.21878906 76.19007813 -42.37507813 76.19265625 -43.56640625 76.1953125 C-46.5 76.0625 -46.5 76.0625 -48.5 75.0625 C-48.5 49.6525 -48.5 24.2425 -48.5 -1.9375 C-34.37291134 -9.00104433 -13.45143612 -8.17767209 0 0 Z " fill="#FAFAFA" transform="translate(1084.5,58.9375)"/>
<path d="M0 0 C1.02867187 -0.02835938 2.05734375 -0.05671875 3.1171875 -0.0859375 C7.07708966 0.52090465 8.32158973 1.48073847 11.125 4.375 C13.49792611 7.67170221 15.62541649 11.10204421 17.75 14.5625 C18.98899522 16.54594041 20.22858579 18.52900905 21.46875 20.51171875 C22.08234375 21.49833496 22.6959375 22.48495117 23.328125 23.50146484 C25.92509041 27.6544924 28.58177584 31.76752115 31.25 35.875 C31.68650879 36.54942139 32.12301758 37.22384277 32.57275391 37.91870117 C35.06060987 41.75759438 37.58451555 45.57062287 40.125 49.375 C40.13086624 48.79062164 40.13673248 48.20624329 40.14277649 47.60415649 C40.20657194 41.53721292 40.29095454 35.47080667 40.38745117 29.40429688 C40.42076336 27.13841829 40.44877545 24.87245546 40.47143555 22.60644531 C40.50486593 19.3544515 40.55717562 16.10323415 40.61328125 12.8515625 C40.61967117 11.83381744 40.6260611 10.81607239 40.63264465 9.76748657 C40.65243881 8.82666229 40.67223297 7.88583801 40.69262695 6.91650391 C40.70373001 6.08599518 40.71483307 5.25548645 40.72627258 4.39981079 C40.85785263 3.73162323 40.98943268 3.06343567 41.125 2.375 C44.58732494 0.06678337 46.04298316 0.10499011 50.125 0.125 C51.176875 0.11984375 52.22875 0.1146875 53.3125 0.109375 C56.125 0.375 56.125 0.375 59.125 2.375 C59.41160203 4.91852483 59.50357678 7.21786964 59.46557617 9.76220703 C59.46623329 10.90381287 59.46623329 10.90381287 59.46690369 12.06848145 C59.46480959 14.59018393 59.44145001 17.11122583 59.41796875 19.6328125 C59.41237499 21.37872962 59.40810385 23.12465144 59.40510559 24.87057495 C59.39363948 29.4705704 59.36415727 34.07028263 59.33099365 38.67016602 C59.30033071 43.36210295 59.28660835 48.05408555 59.27148438 52.74609375 C59.23928913 61.95585375 59.18807159 71.16540334 59.125 80.375 C54.31468613 82.78015693 48.29176479 82.22353505 43.125 81.375 C39.71428652 79.05946975 38.12062203 75.92535082 36.125 72.375 C35.40521106 71.21841318 34.67816886 70.06632007 33.9453125 68.91796875 C32.25939157 66.26886044 30.60009225 63.60558277 28.95703125 60.9296875 C25.24737545 54.9212963 21.36975924 49.02226292 17.50341797 43.11401367 C16.9776416 42.30939697 16.45186523 41.50478027 15.91015625 40.67578125 C15.21224976 39.61097534 15.21224976 39.61097534 14.50024414 38.5246582 C12.99451907 36.17104392 11.5625262 33.770877 10.125 31.375 C9.795 47.545 9.465 63.715 9.125 80.375 C6.42261702 81.72619149 4.26485554 81.50737128 1.25 81.5 C0.20070313 81.50257813 -0.84859375 81.50515625 -1.9296875 81.5078125 C-4.45156554 81.39409386 -6.46185598 81.02841114 -8.875 80.375 C-8.94441159 70.23964856 -8.99776615 60.10435336 -9.03043652 49.96881294 C-9.04611411 45.26281483 -9.06739036 40.55697895 -9.10131836 35.85107422 C-9.13383745 31.3123502 -9.15183723 26.77378252 -9.15963173 22.23495102 C-9.16518868 20.50052299 -9.17603963 18.76610383 -9.19219017 17.0317421 C-9.21386587 14.60837342 -9.21697113 12.18565653 -9.21557617 9.76220703 C-9.226362 9.04003998 -9.23714783 8.31787292 -9.2482605 7.57382202 C-9.23576355 5.57669067 -9.23576355 5.57669067 -8.875 2.375 C-5.46776348 0.10350899 -4.01756786 0.05009436 0 0 Z " fill="#FAFAFA" transform="translate(758.875,53.625)"/>
<path d="M0 0 C1.54300781 -0.05994141 1.54300781 -0.05994141 3.1171875 -0.12109375 C7.3016003 0.65601148 8.52365893 2.08313914 11.125 5.4375 C12.74671681 8.48957259 13.99281285 11.65835238 15.25 14.875 C16.10455153 16.99385974 16.96011937 19.11230972 17.81640625 21.23046875 C18.0568718 21.83045685 18.29733734 22.43044495 18.54508972 23.0486145 C20.96926121 29.09060783 23.46540364 35.10210411 25.96484375 41.11328125 C26.83126351 43.199281 27.69763683 45.28530004 28.56396484 47.37133789 C29.87523682 50.52852522 31.18671948 53.68562297 32.49932861 56.84225464 C33.74325635 59.83638581 34.98341041 62.83205354 36.22265625 65.828125 C36.60139389 66.73762405 36.98013153 67.64712311 37.37034607 68.58418274 C37.89290733 69.85010506 37.89290733 69.85010506 38.42602539 71.14160156 C38.73117569 71.87751526 39.03632599 72.61342896 39.35072327 73.37164307 C40.10213066 75.37648204 40.65055658 77.35148578 41.125 79.4375 C37.72440516 81.49424531 35.0063629 81.7353388 31.0625 81.75 C30.01964844 81.76675781 28.97679687 81.78351563 27.90234375 81.80078125 C25.125 81.4375 25.125 81.4375 23.421875 80.296875 C21.67275602 77.789102 20.58367726 75.2077444 19.4375 72.375 C19.00050781 71.31152344 18.56351563 70.24804688 18.11328125 69.15234375 C17.125 66.4375 17.125 66.4375 17.125 64.4375 C0.79 64.9325 0.79 64.9325 -15.875 65.4375 C-17.855 70.0575 -19.835 74.6775 -21.875 79.4375 C-23.875 81.4375 -23.875 81.4375 -27.0625 81.66796875 C-28.9496875 81.64669922 -28.9496875 81.64669922 -30.875 81.625 C-32.7621875 81.61533203 -32.7621875 81.61533203 -34.6875 81.60546875 C-37.875 81.4375 -37.875 81.4375 -39.875 80.4375 C-39.27698754 75.69786561 -37.89325697 71.60375462 -36.0234375 67.2421875 C-35.58685318 66.20167236 -35.58685318 66.20167236 -35.14144897 65.14013672 C-34.18381311 62.86159665 -33.21716648 60.58700917 -32.25 58.3125 C-31.23530986 55.91025613 -30.22236304 53.50728176 -29.20947266 51.10427856 C-28.5074817 49.43944767 -27.80467051 47.77496241 -27.10107422 46.11080933 C-24.5763655 40.13179172 -22.10202273 34.13350911 -19.6484375 28.125 C-18.63494938 25.65326898 -17.62072281 23.18184228 -16.60626221 20.71051025 C-15.95345816 19.11518662 -15.30366283 17.51862842 -14.65692139 15.9208374 C-13.75361377 13.6910831 -12.83904005 11.46627029 -11.921875 9.2421875 C-11.5243251 8.24783691 -11.5243251 8.24783691 -11.1187439 7.23339844 C-8.67018779 1.3528746 -6.22962799 0.13204947 0 0 Z " fill="#F9F9F9" transform="translate(1216.875,53.5625)"/>
<path d="M0 0 C1.03125 0.391875 2.0625 0.78375 3.125 1.1875 C5 3 5 3 5.5625 6.875 C5.33016301 10.93714998 3.89407973 13.10592027 1 16 C-0.4589426 15.52269162 -1.91713496 15.04308958 -3.375 14.5625 C-4.18710937 14.29566406 -4.99921875 14.02882813 -5.8359375 13.75390625 C-8 13 -8 13 -10 12 C-12.62046735 11.82258767 -15.19010883 11.72252749 -17.8125 11.6875 C-18.88081055 11.64399414 -18.88081055 11.64399414 -19.97070312 11.59960938 C-23.66914465 11.55513228 -25.79304956 11.8716798 -28.9609375 13.8359375 C-31.21624018 15.8920767 -31.21624018 15.8920767 -31.8125 18.9375 C-30.71669583 23.0678388 -28.91808408 23.67480626 -25.36889648 25.7800293 C-21.43840732 27.80421299 -17.32938207 29.10363259 -13.125 30.4375 C6.3889984 36.97847512 6.3889984 36.97847512 11 46 C13.02757507 52.08272522 12.83266195 58.76934249 10.5 64.75 C6.82451764 71.99706415 0.54956711 76.43599608 -7 79 C-20.86120514 82.41750402 -36.83038179 80.32218119 -49 73 C-50 72 -50 72 -50.3125 68.25 C-50.28978344 64.03986333 -49.00752661 62.00752661 -46 59 C-44.93265625 59.43119141 -44.93265625 59.43119141 -43.84375 59.87109375 C-41.07424933 60.97052465 -38.29512232 62.03003207 -35.5 63.0625 C-34.12328125 63.57490234 -34.12328125 63.57490234 -32.71875 64.09765625 C-25.76937001 66.4041315 -18.44667171 67.29250189 -11.5 64.6875 C-8.78077469 63.08207479 -8.78077469 63.08207479 -7 60 C-6.76685725 56.89143 -7.00471256 54.98586231 -8 52 C-9.73894819 51.08223344 -9.73894819 51.08223344 -11.90625 50.51171875 C-13.12828125 50.13926025 -13.12828125 50.13926025 -14.375 49.75927734 C-15.24125 49.50871582 -16.1075 49.2581543 -17 49 C-41.95482644 41.56776034 -41.95482644 41.56776034 -49 31 C-51.05163955 24.22958947 -50.89600148 17.19311738 -48 10.75 C-44.37950287 4.28989728 -39.45673827 0.66930222 -32.5625 -1.875 C-22.13670756 -4.58216094 -9.92041742 -4.22902257 0 0 Z " fill="#F9F9F9" transform="translate(951,56)"/>
<path d="M0 0 C11.818125 -0.061875 11.818125 -0.061875 23.875 -0.125 C26.36272949 -0.14320801 28.85045898 -0.16141602 31.41357422 -0.18017578 C33.37727645 -0.18601497 35.34098108 -0.19111188 37.3046875 -0.1953125 C38.33086182 -0.20554443 39.35703613 -0.21577637 40.41430664 -0.22631836 C41.38859619 -0.22656006 42.36288574 -0.22680176 43.36669922 -0.22705078 C44.63910965 -0.23371262 44.63910965 -0.23371262 45.93722534 -0.24050903 C48 0 48 0 50 2 C50.265625 4.05859375 50.265625 4.05859375 50.25 6.4375 C50.25773438 7.61119141 50.25773438 7.61119141 50.265625 8.80859375 C50 11 50 11 48 14 C45.11083984 14.34057617 45.11083984 14.34057617 41.4609375 14.29296875 C39.50800781 14.2784668 39.50800781 14.2784668 37.515625 14.26367188 C36.13541077 14.23860388 34.75520244 14.21320902 33.375 14.1875 C31.98699337 14.17245517 30.59897133 14.15876641 29.2109375 14.14648438 C25.80712611 14.11102801 22.4035151 14.05721974 19 14 C19 19.61 19 25.22 19 31 C26.59 31 34.18 31 42 31 C43.24377393 33.48754786 43.13306235 35.22655301 43.125 38 C43.12886719 39.3303125 43.12886719 39.3303125 43.1328125 40.6875 C43 43 43 43 42 45 C34.41 45 26.82 45 19 45 C19 52.59 19 60.18 19 68 C22.44759766 67.98259766 22.44759766 67.98259766 25.96484375 67.96484375 C28.18220888 67.95705291 30.39957251 67.95097631 32.61694336 67.94506836 C34.16219766 67.9400286 35.70744716 67.9331968 37.25268555 67.92456055 C39.46925029 67.91247924 41.68575218 67.90676827 43.90234375 67.90234375 C44.5971434 67.89718246 45.29194305 67.89202118 46.00779724 67.88670349 C47.6722933 67.88650723 49.33665499 67.93810871 51 68 C52 69 52 69 52.1328125 71.21484375 C52.13023438 72.11332031 52.12765625 73.01179688 52.125 73.9375 C52.12886719 75.28134766 52.12886719 75.28134766 52.1328125 76.65234375 C52 79 52 79 51 81 C34.17 81 17.34 81 0 81 C0 54.27 0 27.54 0 0 Z " fill="#F5F5F5" transform="translate(973,54)"/>
<path d="M0 0 C5.30919917 3.1710234 8.9339262 8.06293402 10.9453125 13.8984375 C12.54958171 23.35338581 12.16509769 33.62754342 7.3125 42.0625 C3.7349743 46.37501242 -1.15537002 49.88961025 -6.6875 51.0625 C-16.09288996 51.87060033 -23.33114244 51.34935578 -31.4375 46.375 C-37.94041887 39.69144449 -38.99369431 31.63988792 -39.00219727 22.6862793 C-38.87576257 15.627632 -37.85309493 9.64067247 -33.0390625 4.19921875 C-24.50420237 -3.60887382 -10.5098235 -4.646111 0 0 Z " fill="#F9F9F9" transform="translate(545.6875,54.9375)"/>
<path d="M0 0 C0.78246094 -0.01417969 1.56492187 -0.02835938 2.37109375 -0.04296875 C4.5625 0.1875 4.5625 0.1875 7.5625 2.1875 C8.45385742 4.38647461 8.45385742 4.38647461 9.16796875 7.08984375 C9.55952148 8.54874023 9.55952148 8.54874023 9.95898438 10.03710938 C10.35053711 11.56561523 10.35053711 11.56561523 10.75 13.125 C11.02263672 14.14013672 11.29527344 15.15527344 11.57617188 16.20117188 C13.5625 23.72333177 13.5625 23.72333177 13.5625 27.1875 C14.2225 27.1875 14.8825 27.1875 15.5625 27.1875 C15.67207031 26.47207031 15.78164063 25.75664063 15.89453125 25.01953125 C16.79833698 19.3395164 17.80809503 13.68954607 19 8.0625 C19.22558594 6.98742188 19.45117188 5.91234375 19.68359375 4.8046875 C20.5625 2.1875 20.5625 2.1875 23.5625 0.1875 C29.88508065 -0.2641129 29.88508065 -0.2641129 33.5625 2.1875 C34.45385742 4.80126953 34.45385742 4.80126953 35.16796875 8.0703125 C35.42900391 9.23691406 35.69003906 10.40351562 35.95898438 11.60546875 C36.22001953 12.82878906 36.48105469 14.05210938 36.75 15.3125 C37.02263672 16.54355469 37.29527344 17.77460937 37.57617188 19.04296875 C38.24911927 22.08894117 38.91070677 25.13694325 39.5625 28.1875 C39.80484375 27.24390625 40.0471875 26.3003125 40.296875 25.328125 C44.98850278 7.26559427 44.98850278 7.26559427 47.5625 1.1875 C49.91520593 0.01114703 51.383252 0.05390641 54 0.0625 C55.17369141 0.05863281 55.17369141 0.05863281 56.37109375 0.0546875 C58.5625 0.1875 58.5625 0.1875 61.5625 1.1875 C60.66672174 6.51502336 59.4981032 11.59717538 57.70703125 16.69921875 C55.07850111 24.44388842 53.10481165 32.3381025 51.11914062 40.26757812 C50.83103516 41.37681641 50.54292969 42.48605469 50.24609375 43.62890625 C49.86795532 45.12466187 49.86795532 45.12466187 49.48217773 46.65063477 C48.53042091 49.27598786 47.77863991 50.52001608 45.5625 52.1875 C42.93359375 52.515625 42.93359375 52.515625 40 52.4375 C39.02933594 52.42203125 38.05867188 52.4065625 37.05859375 52.390625 C34.5625 52.1875 34.5625 52.1875 32.5625 51.1875 C31.87646484 49.05444336 31.87646484 49.05444336 31.2734375 46.27734375 C31.05429687 45.28798828 30.83515625 44.29863281 30.609375 43.27929688 C30.38765625 42.23837891 30.1659375 41.19746094 29.9375 40.125 C29.59332031 38.55782227 29.59332031 38.55782227 29.2421875 36.95898438 C28.67474664 34.37003544 28.11522525 31.77962352 27.5625 29.1875 C25.39381424 35.61161701 23.36980987 42.06534603 21.4296875 48.5625 C20.5625 51.1875 20.5625 51.1875 19.5625 52.1875 C17.54285801 52.25994053 15.52082876 52.27127188 13.5 52.25 C12.39527344 52.24097656 11.29054688 52.23195312 10.15234375 52.22265625 C9.29769531 52.21105469 8.44304687 52.19945312 7.5625 52.1875 C4.20503776 46.39103024 2.78938323 40.13566788 1.125 33.6875 C0.51140446 31.3500009 -0.10317106 29.01275881 -0.71875 26.67578125 C-1.01265625 25.5563916 -1.3065625 24.43700195 -1.609375 23.28369141 C-2.90688378 18.43256927 -4.33915738 13.6260171 -5.80859375 8.82421875 C-6.43978855 6.17790516 -6.56087344 3.89678072 -6.4375 1.1875 C-4.0978331 0.01766655 -2.60358473 0.0213759 0 0 Z " fill="#F8F8F8" transform="translate(388.4375,52.8125)"/>
<path d="M0 0 C0.83402344 -0.00515625 1.66804687 -0.0103125 2.52734375 -0.015625 C5.46148433 0.29180421 7.42618638 0.90908583 10.0625 2.25 C11.79174805 4.47729492 11.79174805 4.47729492 13.32421875 7.23046875 C13.88560547 8.23013672 14.44699219 9.22980469 15.02539062 10.25976562 C15.59451172 11.30841797 16.16363281 12.35707031 16.75 13.4375 C17.62108398 14.98147461 17.62108398 14.98147461 18.50976562 16.55664062 C21.36565158 21.71044176 23.79777899 26.4812403 25.0625 32.25 C25.7225 32.25 26.3825 32.25 27.0625 32.25 C27.22105469 31.70182617 27.37960937 31.15365234 27.54296875 30.58886719 C29.35664075 24.70946361 31.84806222 19.72818851 35.0625 14.5 C35.50078125 13.77167969 35.9390625 13.04335937 36.390625 12.29296875 C37.23349911 10.89410238 38.08215328 9.49869678 38.9375 8.10742188 C39.89437982 6.52757342 40.7970503 4.91509608 41.6875 3.296875 C43.0625 1.25 43.0625 1.25 46.0625 0.25 C51.36052777 -0.13612745 56.26430597 -0.30903682 61.0625 2.25 C59.7071844 5.86431007 58.08456329 9.10474588 56.12109375 12.42578125 C55.54125732 13.40925537 54.9614209 14.39272949 54.36401367 15.40600586 C53.74888916 16.44764893 53.13376465 17.48929199 52.5 18.5625 C51.56087769 20.19360718 51.56087769 20.19360718 50.6027832 21.85766602 C45.25687807 31.11835942 45.25687807 31.11835942 42.171875 35.2265625 C32.86681028 48.15807783 34.78173813 64.97870356 35.0625 80.25 C31.99292902 81.27319033 29.83809677 81.38371939 26.625 81.375 C25.20380859 81.37886719 25.20380859 81.37886719 23.75390625 81.3828125 C21.34821033 81.26409891 19.37310873 80.87022737 17.0625 80.25 C17.07410156 79.29335449 17.08570313 78.33670898 17.09765625 77.35107422 C17.13069917 73.73098085 17.109984 70.11269341 17.07470703 66.49267578 C17.06669828 64.9392987 17.07241928 63.38577743 17.09326172 61.83251953 C17.242729 49.6627363 14.81867474 42.27881374 8.0625 32.25 C6.80151174 30.12334474 5.55489238 27.98809055 4.32421875 25.84375 C2.52241725 22.76951196 0.71854541 19.69651717 -1.08789062 16.625 C-3.85676334 11.89750775 -6.58885463 7.20165667 -8.9375 2.25 C-5.84178113 0.44833451 -3.56993694 -0.02200269 0 0 Z " fill="#FAFAFA" transform="translate(834.9375,53.75)"/>
<path d="M0 0 C2.5 0.125 2.5 0.125 3.5 1.125 C3.59794256 2.71916116 3.62555537 4.31768131 3.62584114 5.91484833 C3.62975276 7.47921277 3.62975276 7.47921277 3.63374341 9.07518053 C3.63151268 10.23497911 3.62928196 11.39477769 3.62698364 12.58972168 C3.62854363 13.81085269 3.63010362 15.03198371 3.63171089 16.29011869 C3.63502427 19.6950186 3.63381163 23.09986384 3.63072467 26.5047605 C3.6284725 30.17078327 3.63194926 33.83680108 3.63470459 37.50282288 C3.63916325 44.69064891 3.6381854 51.87846453 3.63529195 59.06629097 C3.63303829 64.90531444 3.63272523 70.74433499 3.63381577 76.58335876 C3.633969 77.41276756 3.63412223 78.24217636 3.63428011 79.09671876 C3.63459982 80.7813745 3.63492403 82.46603023 3.6352527 84.15068597 C3.63810777 99.96687941 3.63482004 115.78306706 3.62945233 131.59925956 C3.62498427 145.18547932 3.62576019 158.77169054 3.63037109 172.35791016 C3.63571638 188.11551762 3.63783308 203.87312 3.63475883 219.63072824 C3.63444026 221.30936591 3.63412589 222.98800357 3.63381577 224.66664124 C3.63366149 225.49267451 3.63350721 226.31870778 3.63334826 227.16977236 C3.63248297 233.00526756 3.63394625 238.84075956 3.63629532 244.67625427 C3.63909301 251.78276676 3.63835572 258.88926819 3.63301457 265.9957794 C3.63037713 269.62519399 3.62937321 273.25459012 3.63266373 276.88400459 C3.63616894 280.80943973 3.63199837 284.73484429 3.62698364 288.66027832 C3.62921436 289.8200769 3.63144509 290.97987548 3.63374341 292.17481947 C3.63113566 293.2177291 3.62852791 294.26063872 3.62584114 295.33515167 C3.62567879 296.24252091 3.62551644 297.14989015 3.62534916 298.08475542 C3.5 300.125 3.5 300.125 2.5 301.125 C0 301.25 0 301.25 -2.5 301.125 C-4.14308488 299.48191512 -3.62543582 297.60043327 -3.62584114 295.33515167 C-3.62844889 294.29224205 -3.63105664 293.24933242 -3.63374341 292.17481947 C-3.63151268 291.01502089 -3.62928196 289.85522231 -3.62698364 288.66027832 C-3.62854363 287.43914731 -3.63010362 286.21801629 -3.63171089 284.95988131 C-3.63502427 281.5549814 -3.63381163 278.15013616 -3.63072467 274.7452395 C-3.6284725 271.07921673 -3.63194926 267.41319892 -3.63470459 263.74717712 C-3.63916325 256.55935109 -3.6381854 249.37153547 -3.63529195 242.18370903 C-3.63303829 236.34468556 -3.63272523 230.50566501 -3.63381577 224.66664124 C-3.633969 223.83723244 -3.63412223 223.00782364 -3.63428011 222.15328124 C-3.63459982 220.4686255 -3.63492403 218.78396977 -3.6352527 217.09931403 C-3.63810777 201.28312059 -3.63482004 185.46693294 -3.62945233 169.65074044 C-3.62498427 156.06452068 -3.62576019 142.47830946 -3.63037109 128.89208984 C-3.63571638 113.13448238 -3.63783308 97.37688 -3.63475883 81.61927176 C-3.63444026 79.94063409 -3.63412589 78.26199643 -3.63381577 76.58335876 C-3.63366149 75.75732549 -3.63350721 74.93129222 -3.63334826 74.08022764 C-3.63248297 68.24473244 -3.63394625 62.40924044 -3.63629532 56.57374573 C-3.63909301 49.46723324 -3.63835572 42.36073181 -3.63301457 35.2542206 C-3.63037713 31.62480601 -3.62937321 27.99540988 -3.63266373 24.36599541 C-3.63616894 20.44056027 -3.63199837 16.51515571 -3.62698364 12.58972168 C-3.62921436 11.4299231 -3.63144509 10.27012452 -3.63374341 9.07518053 C-3.63113566 8.0322709 -3.62852791 6.98936128 -3.62584114 5.91484833 C-3.62567879 5.00747909 -3.62551644 4.10010985 -3.62534916 3.16524458 C-3.43840265 0.12241133 -3.06182959 0.15309148 0 0 Z " fill="#FEFEFE" transform="translate(703.5,1.875)"/>
<path d="M0 0 C1.17369141 -0.00386719 1.17369141 -0.00386719 2.37109375 -0.0078125 C4.5625 0.125 4.5625 0.125 7.5625 1.125 C9.26416016 3.40991211 9.26416016 3.40991211 11.1015625 6.40234375 C12.09542969 8.00819336 12.09542969 8.00819336 13.109375 9.64648438 C13.79515625 10.77376953 14.4809375 11.90105469 15.1875 13.0625 C15.88725376 14.1977388 16.58776604 15.33251043 17.2890625 16.46679688 C22.31243912 24.62487825 22.31243912 24.62487825 23.5625 27.125 C23.57708252 26.37814941 23.59166504 25.63129883 23.60668945 24.86181641 C23.68097946 21.49067748 23.77770199 18.12054995 23.875 14.75 C23.89755859 13.574375 23.92011719 12.39875 23.94335938 11.1875 C23.97880859 10.06601562 24.01425781 8.94453125 24.05078125 7.7890625 C24.07696533 6.75217285 24.10314941 5.7152832 24.13012695 4.64697266 C24.27281006 3.81472168 24.41549316 2.9824707 24.5625 2.125 C27.58794334 0.10803778 28.17317382 -0.13311096 31.5625 -0.0625 C32.243125 -0.05605469 32.92375 -0.04960938 33.625 -0.04296875 C35.5625 0.125 35.5625 0.125 38.5625 1.125 C38.58776787 8.22744999 38.60533201 15.32988848 38.61743164 22.43237305 C38.62247349 24.85067172 38.62930678 27.26896733 38.63793945 29.68725586 C38.65001157 33.15479283 38.65572963 36.62228966 38.66015625 40.08984375 C38.66531754 41.17837143 38.67047882 42.26689911 38.67579651 43.38841248 C38.67587204 44.38937454 38.67594757 45.39033661 38.67602539 46.42163086 C38.678246 47.30765488 38.68046661 48.19367889 38.68275452 49.10655212 C38.5625 51.125 38.5625 51.125 37.5625 52.125 C33.41677622 52.8769846 29.69705064 52.97933317 25.5625 52.125 C22.23779378 49.41068906 20.57203669 45.86945124 18.5625 42.125 C17.68764833 40.63798943 16.80561423 39.15519039 15.91796875 37.67578125 C13.42592501 33.5146862 10.98514544 29.32685185 8.5625 25.125 C8.53744385 25.90738037 8.5123877 26.68976074 8.48657227 27.49584961 C8.37100212 31.01824949 8.24810051 34.5403556 8.125 38.0625 C8.08568359 39.29419922 8.04636719 40.52589844 8.00585938 41.79492188 C7.96396484 42.96474609 7.92207031 44.13457031 7.87890625 45.33984375 C7.82391968 46.96587524 7.82391968 46.96587524 7.76782227 48.62475586 C7.5625 51.125 7.5625 51.125 6.5625 52.125 C4.56450428 52.22373816 2.56292842 52.25471799 0.5625 52.25 C-0.530625 52.25257812 -1.62375 52.25515625 -2.75 52.2578125 C-5.4375 52.125 -5.4375 52.125 -6.4375 51.125 C-6.53076716 49.55952952 -6.55495582 47.98987228 -6.55102539 46.42163086 C-6.55094986 45.42066879 -6.55087433 44.41970673 -6.55079651 43.38841248 C-6.54563522 42.2998848 -6.54047394 41.21135712 -6.53515625 40.08984375 C-6.5337413 38.98145645 -6.53232635 37.87306915 -6.53086853 36.73109436 C-6.52525033 33.17486931 -6.51269475 29.61870617 -6.5 26.0625 C-6.49498734 23.65820403 -6.49042403 21.25390708 -6.48632812 18.84960938 C-6.47527499 12.94138496 -6.45851917 7.0331969 -6.4375 1.125 C-4.08479407 -0.05135297 -2.616748 -0.00859359 0 0 Z " fill="#FBFBFB" transform="translate(296.4375,52.875)"/>
<path d="M0 0 C1.12100098 0.00845947 1.12100098 0.00845947 2.26464844 0.01708984 C8.44714285 0.15301321 14.45651592 0.42856424 19.234375 4.77734375 C23.06817473 9.1819058 23.97413048 12.19831885 23.91015625 17.85546875 C23.45528505 21.77483841 22.04849904 25.19336698 19.625 28.3125 C17.484375 29.53515625 17.484375 29.53515625 15.625 30.3125 C18.80701177 36.2610031 22.01987052 42.12360918 25.7421875 47.75390625 C26.625 49.3125 26.625 49.3125 26.625 51.3125 C22.31207552 53.46896224 17.2602494 53.24197989 12.625 52.3125 C9.70615063 49.77971086 8.26788923 46.769846 6.625 43.3125 C5.73932761 41.64041162 4.84394165 39.97342103 3.9375 38.3125 C3.56238281 37.57 3.18726563 36.8275 2.80078125 36.0625 C1.66442451 33.98614302 1.66442451 33.98614302 -1.375 33.3125 C-1.36339844 34.60027344 -1.35179687 35.88804688 -1.33984375 37.21484375 C-1.3304673 38.89322772 -1.32136695 40.57161326 -1.3125 42.25 C-1.30412109 43.10013672 -1.29574219 43.95027344 -1.28710938 44.82617188 C-1.28388672 45.63505859 -1.28066406 46.44394531 -1.27734375 47.27734375 C-1.27210693 48.0262085 -1.26687012 48.77507324 -1.26147461 49.54663086 C-1.375 51.3125 -1.375 51.3125 -2.375 52.3125 C-4.37299572 52.41123816 -6.37457158 52.44221799 -8.375 52.4375 C-9.468125 52.44007812 -10.56125 52.44265625 -11.6875 52.4453125 C-14.375 52.3125 -14.375 52.3125 -15.375 51.3125 C-15.46819449 49.7776703 -15.492458 48.23857918 -15.48852539 46.70092773 C-15.48844986 45.71998642 -15.48837433 44.7390451 -15.48829651 43.7283783 C-15.48313522 42.6617244 -15.47797394 41.5950705 -15.47265625 40.49609375 C-15.4712413 39.4099025 -15.46982635 38.32371124 -15.46836853 37.2046051 C-15.46275048 33.71970925 -15.45019492 30.23487658 -15.4375 26.75 C-15.43248733 24.39388113 -15.42792402 22.03776126 -15.42382812 19.68164062 C-15.41277519 13.89190536 -15.39601951 8.10220719 -15.375 2.3125 C-10.02068629 0.69331363 -5.53726518 -0.04359071 0 0 Z " fill="#FAFAFA" transform="translate(579.375,52.6875)"/>
<path d="M0 0 C0.680625 -0.00257812 1.36125 -0.00515625 2.0625 -0.0078125 C4 0.125 4 0.125 7 1.125 C7.33 8.055 7.66 14.985 8 22.125 C12.05737061 16.75871214 12.05737061 16.75871214 16.10620117 11.38598633 C24.37526853 0.5109412 24.37526853 0.5109412 28.3515625 -0.43359375 C29.10179687 -0.39363281 29.85203125 -0.35367188 30.625 -0.3125 C31.75808594 -0.27962891 31.75808594 -0.27962891 32.9140625 -0.24609375 C35 0.125 35 0.125 38 2.125 C36.17699149 8.0700978 31.95272583 12.50943653 28.08007812 17.2421875 C27.27666992 18.26699219 27.27666992 18.26699219 26.45703125 19.3125 C25.96178955 19.92480469 25.46654785 20.53710938 24.95629883 21.16796875 C23.62349777 23.89549831 24.06119718 25.27667445 25 28.125 C26.25019936 30.3132009 26.25019936 30.3132009 27.87109375 32.375 C28.44537109 33.1484375 29.01964844 33.921875 29.61132812 34.71875 C30.21396484 35.5128125 30.81660156 36.306875 31.4375 37.125 C32.62863035 38.70462604 33.81499598 40.28785854 34.99609375 41.875 C35.52388428 42.57109375 36.0516748 43.2671875 36.59545898 43.984375 C38.10217707 46.28072546 39.06365403 48.54927463 40 51.125 C38.06586304 53.05913696 35.02659037 52.64501907 32.4375 52.8125 C25.83670146 52.7456903 25.83670146 52.7456903 22.609375 50.3515625 C20.50901411 47.71330431 18.7575763 45.0033496 17 42.125 C15.76687248 40.32821436 14.50847622 38.55079153 13.24926758 36.7722168 C11.46746279 34.24454024 9.73390126 31.68571528 8 29.125 C7.97494385 29.7862085 7.9498877 30.44741699 7.92407227 31.12866211 C7.80846898 34.10682305 7.68558246 37.0846392 7.5625 40.0625 C7.52318359 41.10341797 7.48386719 42.14433594 7.44335938 43.21679688 C7.40146484 44.20615234 7.35957031 45.19550781 7.31640625 46.21484375 C7.26141968 47.58950806 7.26141968 47.58950806 7.20532227 48.99194336 C7 51.125 7 51.125 6 52.125 C4.00200428 52.22373816 2.00042842 52.25471799 0 52.25 C-1.093125 52.25257812 -2.18625 52.25515625 -3.3125 52.2578125 C-6 52.125 -6 52.125 -7 51.125 C-7.09326716 49.55952952 -7.11745582 47.98987228 -7.11352539 46.42163086 C-7.11344986 45.42066879 -7.11337433 44.41970673 -7.11329651 43.38841248 C-7.10813522 42.2998848 -7.10297394 41.21135712 -7.09765625 40.08984375 C-7.0962413 38.98145645 -7.09482635 37.87306915 -7.09336853 36.73109436 C-7.08775033 33.17486931 -7.07519475 29.61870617 -7.0625 26.0625 C-7.05748734 23.65820403 -7.05292403 21.25390708 -7.04882812 18.84960938 C-7.03777499 12.94138496 -7.02101917 7.0331969 -7 1.125 C-4.32356043 0.23285348 -2.74615622 -0.01040211 0 0 Z " fill="#F8F8F8" transform="translate(618,52.875)"/>
<path d="M0 0 C2.23945635 -0.03727407 4.47909227 -0.06386202 6.71875 -0.0859375 C7.96591797 -0.10188965 9.21308594 -0.1178418 10.49804688 -0.13427734 C15.18390914 0.04539529 18.51143664 0.81091887 22 4 C29.90265914 14.45582595 30.2956881 25.67763393 28.5390625 38.31640625 C26.77690906 45.76927875 23.4912798 50.36025186 17.4375 54.9375 C12.05419264 56.60143137 6.59271218 56.41605298 1 56 C0 55 0 55 -0.12025452 52.79173279 C-0.11803391 51.81688431 -0.11581329 50.84203583 -0.11352539 49.83764648 C-0.11344986 48.73658066 -0.11337433 47.63551483 -0.11329651 46.50108337 C-0.10813522 45.3031868 -0.10297394 44.10529022 -0.09765625 42.87109375 C-0.0962413 41.65172623 -0.09482635 40.4323587 -0.09336853 39.17604065 C-0.08774967 35.2631693 -0.07519396 31.35035419 -0.0625 27.4375 C-0.05748743 24.79231853 -0.0529241 22.14713617 -0.04882812 19.50195312 C-0.03777411 13.00128274 -0.02101764 6.50064539 0 0 Z " fill="#020202" transform="translate(1125,67)"/>
<path d="M0 0 C5.094375 -0.020625 10.18875 -0.04125 15.4375 -0.0625 C17.04681396 -0.071604 18.65612793 -0.08070801 20.31420898 -0.09008789 C21.57048096 -0.09258545 22.82675293 -0.09508301 24.12109375 -0.09765625 C26.06133423 -0.10551147 26.06133423 -0.10551147 28.04077148 -0.11352539 C31 0 31 0 32 1 C32.0979057 2.49738124 32.12974864 3.99942892 32.125 5.5 C32.12886719 6.72203125 32.12886719 6.72203125 32.1328125 7.96875 C32 10 32 10 31 11 C28.13732433 11.07325168 25.299281 11.09238205 22.4375 11.0625 C21.63119141 11.05798828 20.82488281 11.05347656 19.99414062 11.04882812 C17.99606244 11.03700518 15.99802217 11.01906914 14 11 C14 13.97 14 16.94 14 20 C15.39025391 19.98259766 15.39025391 19.98259766 16.80859375 19.96484375 C18.00613281 19.95582031 19.20367187 19.94679688 20.4375 19.9375 C21.63246094 19.92589844 22.82742188 19.91429688 24.05859375 19.90234375 C27 20 27 20 28 21 C28.23728814 27.52542373 28.23728814 27.52542373 27 30 C22.71 30 18.42 30 14 30 C14 33.96 14 37.92 14 42 C20.27 42 26.54 42 33 42 C34.50662097 45.01324195 34.17770373 47.68286377 34 51 C32 53 32 53 28.83544922 53.22705078 C27.49182042 53.22655073 26.14816462 53.21550679 24.8046875 53.1953125 C23.51030762 53.19031738 22.21592773 53.18532227 20.88232422 53.18017578 C19.22990723 53.16196777 17.57749023 53.14375977 15.875 53.125 C10.63625 53.08375 5.3975 53.0425 0 53 C0 35.51 0 18.02 0 0 Z " fill="#F5F5F5" transform="translate(345,53)"/>
<path d="M0 0 C5.78014818 3.94741827 8.68132256 11.00342722 12 17 C12.81404297 15.53626953 12.81404297 15.53626953 13.64453125 14.04296875 C14.3669275 12.75766633 15.08959818 11.47251813 15.8125 10.1875 C16.16892578 9.54490234 16.52535156 8.90230469 16.89257812 8.24023438 C20.58614642 1.70024648 20.58614642 1.70024648 23 0 C25.15625 -0.36328125 25.15625 -0.36328125 27.5 -0.3125 C28.2734375 -0.30863281 29.046875 -0.30476563 29.84375 -0.30078125 C32 0 32 0 35 2 C33.70249127 5.54153194 32.15301417 8.43996125 29.99609375 11.52734375 C21.54274066 24.22038218 18.09043565 33.9082664 18.99902344 49.21606445 C18.9993457 49.80476318 18.99966797 50.39346191 19 51 C18 52 18 52 15.3125 52.1328125 C14.219375 52.13023438 13.12625 52.12765625 12 52.125 C10.906875 52.12757812 9.81375 52.13015625 8.6875 52.1328125 C6 52 6 52 5 51 C4.95184273 49.53985643 4.96330893 48.07766418 5 46.6171875 C5.0733404 32.99270555 3.02204212 24.90785925 -5 14 C-6.21082169 12.0979805 -7.40163884 10.18291715 -8.5625 8.25 C-9.03816406 7.49203125 -9.51382812 6.7340625 -10.00390625 5.953125 C-11 4 -11 4 -11 1 C-7.26308164 -0.24563945 -3.87653596 -0.62697426 0 0 Z " fill="#F7F7F7" transform="translate(472,53)"/>
<path d="M0 0 C4.21500726 2.03483109 6.42326328 4.93789071 8.21875 9.1015625 C10.03523493 15.3943853 9.41717177 21.6922392 6.86328125 27.68359375 C4.70288404 31.38103245 1.83075968 33.05641344 -2.125 34.375 C-7.36503023 34.87679253 -11.75206251 35.024025 -16.5625 32.75 C-20.47370047 29.12498493 -22.87668237 26.08400958 -23.65625 20.71875 C-23.6459375 19.4503125 -23.635625 18.181875 -23.625 16.875 C-23.64046875 14.97234375 -23.64046875 14.97234375 -23.65625 13.03125 C-22.87668237 7.66599042 -20.47370047 4.62501507 -16.5625 1 C-11.17497363 -1.54683065 -5.73255661 -1.68604606 0 0 Z " fill="#F2F2F2" transform="translate(408.125,171.625)"/>
<path d="M0 0 C3.79988579 2.82782198 6.05934793 5.51910284 7.6875 10 C8.54652548 16.64529146 8.83649883 23.42031191 4.6875 29 C-0.50602046 33.80400642 -4.71990451 34.36917025 -11.5859375 34.26953125 C-15.54384646 33.87827664 -17.47342913 32.76982524 -20.3125 30 C-24.31955276 24.77450173 -24.99901069 19.3824985 -24.76171875 12.91015625 C-23.86525345 7.1026202 -21.27920918 3.46359753 -16.625 0 C-10.91842826 -1.72273864 -5.70657174 -1.72273864 0 0 Z " fill="#F4F4F4" transform="translate(315.3125,172)"/>
<path d="M0 0 C4.48109864 4.96554174 5.22455103 8.20659665 5.3125 14.75 C5.34150391 15.45382813 5.37050781 16.15765625 5.40039062 16.8828125 C5.4626603 22.03682569 4.46295698 24.96479971 1 29 C-4.41006347 33.25783698 -10.42149461 32.74473646 -17 32 C-21.62891147 29.8451619 -23.80051565 27.54850872 -26 23 C-26.31540185 20.25231001 -26.46546861 17.80088151 -26.4375 15.0625 C-26.45748047 14.37220703 -26.47746094 13.68191406 -26.49804688 12.97070312 C-26.49317563 7.83153578 -25.18752305 4.96511247 -22 1 C-15.73079917 -4.68146325 -6.89315373 -4.54321496 0 0 Z " fill="#F1F1F1" transform="translate(467,128)"/>
<path d="M0 0 C2.25431045 1.488067 4.11750761 3.26594511 6.0234375 5.171875 C6.79975721 9.76660446 6.59239832 13.24257233 4.1484375 17.234375 C2.0234375 19.171875 2.0234375 19.171875 0.0234375 19.171875 C0.61253906 20.08710938 1.20164062 21.00234375 1.80859375 21.9453125 C2.56812968 23.14556681 3.32722141 24.34610229 4.0859375 25.546875 C4.47587891 26.15015625 4.86582031 26.7534375 5.26757812 27.375 C6.24804182 28.93680057 7.14259825 30.55179714 8.0234375 32.171875 C7.6934375 32.831875 7.3634375 33.491875 7.0234375 34.171875 C4.26171875 34.4765625 4.26171875 34.4765625 1.0234375 34.171875 C-1.05859375 32.0546875 -1.05859375 32.0546875 -2.7890625 29.296875 C-3.66498047 27.93949219 -3.66498047 27.93949219 -4.55859375 26.5546875 C-5.41184928 25.12084212 -6.23037786 23.66424428 -6.9765625 22.171875 C-8.2965625 21.841875 -9.6165625 21.511875 -10.9765625 21.171875 C-10.9765625 25.461875 -10.9765625 29.751875 -10.9765625 34.171875 C-12.9565625 34.171875 -14.9365625 34.171875 -16.9765625 34.171875 C-17.9765625 33.171875 -17.9765625 33.171875 -18.09008789 30.12084961 C-18.08992884 28.77196229 -18.08423862 27.42306886 -18.07421875 26.07421875 C-18.0728038 25.36536026 -18.07138885 24.65650177 -18.06993103 23.92616272 C-18.06431693 21.65385788 -18.05176213 19.38165025 -18.0390625 17.109375 C-18.03404931 15.57226704 -18.02948609 14.03515755 -18.02539062 12.49804688 C-18.01434292 8.72261858 -17.99706891 4.94726329 -17.9765625 1.171875 C-12.30370766 -1.20938198 -5.90603458 -2.47446508 0 0 Z " fill="#F2F2F2" transform="translate(439.9765625,171.828125)"/>
<path d="M0 0 C3.35888672 -0.1328125 3.35888672 -0.1328125 7 0 C9.2578125 2.125 9.2578125 2.125 11.125 5 C11.74632812 5.928125 12.36765625 6.85625 13.0078125 7.8125 C15.33854167 11.54166667 17.66927083 15.27083333 20 19 C20.33 12.73 20.66 6.46 21 0 C23.64 0 26.28 0 29 0 C29.02465288 4.68139254 29.04283739 9.36274759 29.05493164 14.04418945 C29.05997157 15.63794614 29.0668035 17.23169819 29.07543945 18.82543945 C29.08751999 21.11150253 29.09323155 23.39750467 29.09765625 25.68359375 C29.10281754 26.40026718 29.10797882 27.11694061 29.11329651 27.85533142 C29.11349263 29.57063672 29.06192007 31.28581266 29 33 C28 34 28 34 25.328125 34.61328125 C21.40324461 33.89003451 21.08796496 33.301836 18.859375 30.16796875 C17.80151138 28.52136947 16.76574188 26.86041156 15.75 25.1875 C14.95722656 23.93743164 14.95722656 23.93743164 14.1484375 22.66210938 C13.16716248 21.11174465 12.19452335 19.55585637 11.23339844 17.99291992 C10.18992488 16.30687981 9.09986969 14.64980453 8 13 C7.67 19.93 7.34 26.86 7 34 C5.02 34 3.04 34 1 34 C0 33 0 33 -0.11352539 29.85717773 C-0.11336633 28.46597303 -0.10767506 27.07476239 -0.09765625 25.68359375 C-0.0962413 24.95253922 -0.09482635 24.22148468 -0.09336853 23.46827698 C-0.08775408 21.12464368 -0.07519922 18.78110461 -0.0625 16.4375 C-0.05748686 14.85221492 -0.05292363 13.26692834 -0.04882812 11.68164062 C-0.03777997 7.7877239 -0.02050572 3.89387795 0 0 Z " fill="#ECECEC" transform="translate(513,172)"/>
<path d="M0 0 C3.75083712 2.15310012 6.46851145 4.93944778 8 9 C8.30078125 12.2421875 8.30078125 12.2421875 8.3125 15.875 C8.32925781 17.06867188 8.34601562 18.26234375 8.36328125 19.4921875 C7.84316012 24.5144324 6.19134974 27.77645162 2.6875 31.375 C-0.63769136 33.38558082 -2.1762404 33.70232319 -6 33 C-9.70824482 30.43275358 -12.40512797 28.24074268 -14 24 C-14.69216887 16.61986174 -14.9979263 9.4252387 -11 3 C-7.75796767 -0.58939294 -4.67362354 -0.64463773 0 0 Z " fill="#050505" transform="translate(535,63)"/>
<path d="M0 0 C2.54954482 1.41173143 4.43957458 2.51977417 5.765625 5.171875 C6.30961785 9.711094 6.38851961 13.1263019 4.015625 17.109375 C-0.71416439 21.44501528 -3.98071197 21.38033043 -10.234375 21.171875 C-10.22277344 22.02652344 -10.21117187 22.88117188 -10.19921875 23.76171875 C-10.19019531 24.86644531 -10.18117188 25.97117188 -10.171875 27.109375 C-10.16027344 28.21152344 -10.14867187 29.31367188 -10.13671875 30.44921875 C-10.234375 33.171875 -10.234375 33.171875 -11.234375 34.171875 C-14.234375 34.296875 -14.234375 34.296875 -17.234375 34.171875 C-18.234375 33.171875 -18.234375 33.171875 -18.34790039 30.12084961 C-18.34774134 28.77196229 -18.34205112 27.42306886 -18.33203125 26.07421875 C-18.3306163 25.36536026 -18.32920135 24.65650177 -18.32774353 23.92616272 C-18.32212943 21.65385788 -18.30957463 19.38165025 -18.296875 17.109375 C-18.29186181 15.57226704 -18.28729859 14.03515755 -18.28320312 12.49804688 C-18.27215542 8.72261858 -18.25488141 4.94726329 -18.234375 1.171875 C-12.34243924 -1.29901628 -6.16471538 -2.28482458 0 0 Z " fill="#EAEAEA" transform="translate(346.234375,171.828125)"/>
<path d="M0 0 C2.31 0 4.62 0 7 0 C10.46082712 7.2892879 13.77814905 14.63782505 16.9375 22.0625 C17.255979 22.78816162 17.57445801 23.51382324 17.90258789 24.26147461 C19.4620829 27.98067217 20.2513367 30.1537694 19 34 C17.35 34 15.7 34 14 34 C11 28.25 11 28.25 11 26 C6.05 26 1.1 26 -4 26 C-4.66 28.31 -5.32 30.62 -6 33 C-7 34 -7 34 -10.0625 34.0625 C-11.031875 34.041875 -12.00125 34.02125 -13 34 C-12.41471751 29.57731455 -11.29088994 25.89049935 -9.53125 21.796875 C-9.04269531 20.6521875 -8.55414063 19.5075 -8.05078125 18.328125 C-7.28314453 16.55695313 -7.28314453 16.55695313 -6.5 14.75 C-5.98824219 13.55375 -5.47648437 12.3575 -4.94921875 11.125 C-1.25979663 2.51959325 -1.25979663 2.51959325 0 0 Z " fill="#F3F3F3" transform="translate(356,126)"/>
<path d="M0 0 C3.31457593 1.34101164 5.48166106 3.48166106 8 6 C8.75689075 10.47973713 8.58519138 14.01771448 6.25 17.9375 C1.30632135 22.46920543 -2.52457172 22.19045377 -9 22 C-9 26.29 -9 30.58 -9 35 C-10.98 35 -12.96 35 -15 35 C-16 34 -16 34 -16.11352539 30.94897461 C-16.11336634 29.60008729 -16.10767612 28.25119386 -16.09765625 26.90234375 C-16.0962413 26.19348526 -16.09482635 25.48462677 -16.09336853 24.75428772 C-16.08775443 22.48198288 -16.07519963 20.20977525 -16.0625 17.9375 C-16.05748681 16.40039204 -16.05292359 14.86328255 -16.04882812 13.32617188 C-16.03778042 9.55074358 -16.02050641 5.77538829 -16 2 C-10.80700914 -0.78617786 -5.79789862 -0.65110091 0 0 Z " fill="#EDEDED" transform="translate(373,171)"/>
<path d="M0 0 C2.22265625 1.515625 2.22265625 1.515625 4 3 C3.46632813 3.16081055 2.93265625 3.32162109 2.3828125 3.48730469 C-0.08042935 4.23416132 -2.5401636 4.99200597 -5 5.75 C-5.83917969 6.00265625 -6.67835938 6.2553125 -7.54296875 6.515625 C-11.62109307 7.78015967 -15.41827798 9.12574039 -19.1953125 11.12890625 C-22.71895195 12.97753258 -25.89785624 13.71492174 -29.875 14.1875 C-34.08404625 14.60987282 -34.08404625 14.60987282 -38 16 C-39.72490129 16.29678881 -41.4552189 16.56235954 -43.1875 16.8125 C-48.12015123 17.59508409 -52.88345458 18.71492044 -57.6875 20.0625 C-63.17650441 21.58157632 -68.32465954 22.60173049 -74 23 C-74 20.36 -74 17.72 -74 15 C-72.824375 15.1546875 -72.824375 15.1546875 -71.625 15.3125 C-67.32476962 14.94179048 -64.66592713 13.4893771 -60.953125 11.38671875 C-52.70075196 7.51159649 -44.71262939 6.52979166 -35.6875 6.0625 C-26.5399344 5.47239944 -18.56071914 4.42132547 -10 1 C-6.43528609 -0.18823797 -3.7441664 -0.26274852 0 0 Z " fill="#080808" transform="translate(366,271)"/>
<path d="M0 0 C2.31 0 4.62 0 7 0 C7.01981934 0.74161377 7.03963867 1.48322754 7.06005859 2.24731445 C7.15522928 5.60273834 7.26494094 8.95753286 7.375 12.3125 C7.4059375 13.47974609 7.436875 14.64699219 7.46875 15.84960938 C7.50742187 16.96787109 7.54609375 18.08613281 7.5859375 19.23828125 C7.6173584 20.26993408 7.6487793 21.30158691 7.68115234 22.36450195 C7.82674629 25.22843236 7.82674629 25.22843236 10 28 C13 28.41666667 13 28.41666667 16 28 C18.67848546 25.32151454 18.30504006 23.86029139 18.4140625 20.1171875 C18.45273437 18.95058594 18.49140625 17.78398437 18.53125 16.58203125 C18.5621875 15.35871094 18.593125 14.13539063 18.625 12.875 C18.66367187 11.64394531 18.70234375 10.41289062 18.7421875 9.14453125 C18.8366999 6.09650624 18.92225494 3.04849138 19 0 C21.64 0 24.28 0 27 0 C27.08803772 3.49983803 27.14073608 6.99938638 27.1875 10.5 C27.21263672 11.48226562 27.23777344 12.46453125 27.26367188 13.4765625 C27.33640353 20.74972767 26.65838747 26.56982262 22.0625 32.5 C17.15442654 34.90395435 12.34913291 34.85296984 7 34 C4.21259316 32.62725452 3.08089555 31.41833807 1 29 C-0.07917226 25.76248322 -0.11425601 23.42248229 -0.09765625 20.01953125 C-0.09443359 18.85615234 -0.09121094 17.69277344 -0.08789062 16.49414062 C-0.07951172 15.27919922 -0.07113281 14.06425781 -0.0625 12.8125 C-0.05798828 11.58595703 -0.05347656 10.35941406 -0.04882812 9.09570312 C-0.03703065 6.06375332 -0.02056921 3.03190094 0 0 Z " fill="#EDEDED" transform="translate(480,172)"/>
<path d="M0 0 C-0.33 1.65 -0.66 3.3 -1 5 C-5.29 5 -9.58 5 -14 5 C-14.33 6.32 -14.66 7.64 -15 9 C-14.20335937 9.30292969 -13.40671875 9.60585937 -12.5859375 9.91796875 C-0.78548896 14.58359621 -0.78548896 14.58359621 3 19 C3.75545209 23.23053168 3.52309735 25.15930783 1.25 28.8125 C-3.49459835 33.42530395 -7.66158651 33.35571216 -14.0703125 33.26953125 C-17.78017384 32.92822401 -19.93007653 32.04661564 -23 30 C-22.67 28.35 -22.34 26.7 -22 25 C-19.61435923 25.57584432 -17.33317216 26.22227595 -15 27 C-9.85056722 27.4017339 -9.85056722 27.4017339 -5 26 C-5 24.68 -5 23.36 -5 22 C-5.88042969 21.69707031 -6.76085937 21.39414063 -7.66796875 21.08203125 C-20.02755702 16.62380019 -20.02755702 16.62380019 -23 12 C-23.67096636 7.82509823 -23.49348946 5.82248243 -21.3125 2.1875 C-15.14776092 -3.64400994 -7.45859034 -2.98343613 0 0 Z " fill="#F1F1F1" transform="translate(314,127)"/>
<path d="M0 0 C14.0625 -0.80357143 14.0625 -0.80357143 18.375 2.25 C21.21453137 5.26205985 21.51204574 7.99697411 21.6875 12.0625 C21.46027698 15.95913304 21.1319406 17.77570099 19.125 21.1875 C15.32374302 24.4297486 12.15666001 24.11941253 7.375 24.0625 C4.94125 24.041875 2.5075 24.02125 0 24 C0 16.08 0 8.16 0 0 Z " fill="#020202" transform="translate(1054,67)"/>
<path d="M0 0 C6.6 0 13.2 0 20 0 C20 1.65 20 3.3 20 5 C15.71 5 11.42 5 7 5 C7 7.64 7 10.28 7 13 C10.63 13 14.26 13 18 13 C18 14.65 18 16.3 18 18 C14.37 18 10.74 18 7 18 C7 21.63 7 25.26 7 29 C11.62 29 16.24 29 21 29 C21 30.65 21 32.3 21 34 C14.07 34 7.14 34 0 34 C0 22.78 0 11.56 0 0 Z " fill="#F5F5F5" transform="translate(405,126)"/>
<path d="M0 0 C3.32581118 2.80846277 5.79673636 4.96069926 6.23828125 9.390625 C6.40017902 15.6279497 6.22288753 19.28030217 2 24 C-0.88861709 25.44430855 -2.79647701 25.37688506 -6 25 C-9.63906772 22.00787765 -11.72767678 19.74941717 -12.203125 14.94921875 C-12.30858887 9.86058681 -11.88672548 6.3835461 -9 2 C-5.48175489 -0.34549674 -4.14224306 -0.57991403 0 0 Z " fill="#090909" transform="translate(310,176)"/>
<path d="M0 0 C4.37304368 4.48812378 5.29099449 7.61320334 5.22265625 13.67578125 C4.90710543 16.96968894 3.80730946 19.25556712 2 22 C-1.51824511 24.34549674 -2.85775694 24.57991403 -7 24 C-9.8125 21.5625 -9.8125 21.5625 -12 19 C-12.33 18.67 -12.66 18.34 -13 18 C-14.06517999 6.77195516 -14.06517999 6.77195516 -11.125 2.3125 C-7.45407131 -1.68233416 -5.18426994 -1.2513755 0 0 Z " fill="#090909" transform="translate(405,177)"/>
<path d="M0 0 C8.58 0 17.16 0 26 0 C26.33 1.65 26.66 3.3 27 5 C26 6 26 6 23.93359375 6.09765625 C23.10988281 6.08605469 22.28617188 6.07445312 21.4375 6.0625 C20.61121094 6.05347656 19.78492188 6.04445312 18.93359375 6.03515625 C18.29550781 6.02355469 17.65742187 6.01195312 17 6 C17.00785522 7.26444946 17.00785522 7.26444946 17.01586914 8.55444336 C17.03287826 11.67227936 17.04543406 14.79009177 17.05493164 17.90795898 C17.05997057 19.25920386 17.06680177 20.61044326 17.07543945 21.96166992 C17.08752419 23.90020434 17.09269828 25.838778 17.09765625 27.77734375 C17.10551147 29.52905884 17.10551147 29.52905884 17.11352539 31.31616211 C17 34 17 34 16 35 C14.02 35 12.04 35 10 35 C10 25.43 10 15.86 10 6 C6.7 6 3.4 6 0 6 C0 4.02 0 2.04 0 0 Z " fill="#EAEAEA" transform="translate(560,171)"/>
<path d="M0 0 C8.58 0 17.16 0 26 0 C26.33 1.65 26.66 3.3 27 5 C26 6 26 6 23.93359375 6.09765625 C23.10988281 6.08605469 22.28617187 6.07445312 21.4375 6.0625 C20.61121094 6.05347656 19.78492188 6.04445312 18.93359375 6.03515625 C18.29550781 6.02355469 17.65742188 6.01195312 17 6 C17.00785522 7.26444946 17.00785522 7.26444946 17.01586914 8.55444336 C17.03287826 11.67227936 17.04543406 14.79009177 17.05493164 17.90795898 C17.05997057 19.25920386 17.06680177 20.61044326 17.07543945 21.96166992 C17.08752419 23.90020434 17.09269828 25.838778 17.09765625 27.77734375 C17.10551147 29.52905884 17.10551147 29.52905884 17.11352539 31.31616211 C17 34 17 34 16 35 C14.02 35 12.04 35 10 35 C10 25.43 10 15.86 10 6 C6.7 6 3.4 6 0 6 C0 4.02 0 2.04 0 0 Z " fill="#E4E4E4" transform="translate(449,171)"/>
<path d="M0 0 C8.58 0 17.16 0 26 0 C26 1.65 26 3.3 26 5 C23.03 5 20.06 5 17 5 C17.00785522 6.26444946 17.00785522 6.26444946 17.01586914 7.55444336 C17.03287826 10.67227936 17.04543406 13.79009177 17.05493164 16.90795898 C17.05997057 18.25920386 17.06680177 19.61044326 17.07543945 20.96166992 C17.08752419 22.90020434 17.09269828 24.838778 17.09765625 26.77734375 C17.10551147 28.52905884 17.10551147 28.52905884 17.11352539 30.31616211 C17 33 17 33 16 34 C13 34.125 13 34.125 10 34 C9 33 9 33 8.88647461 30.31616211 C8.89171143 29.14835205 8.89694824 27.98054199 8.90234375 26.77734375 C8.90556641 25.51728516 8.90878906 24.25722656 8.91210938 22.95898438 C8.92046597 21.61848891 8.92893093 20.27799412 8.9375 18.9375 C8.9425134 17.59310058 8.94707658 16.2486994 8.95117188 14.90429688 C8.96300512 11.60282059 8.97949029 8.30143197 9 5 C6.03 5 3.06 5 0 5 C0 3.35 0 1.7 0 0 Z " fill="#E6E6E6" transform="translate(374,126)"/>
<path d="M0 0 C6.6 0 13.2 0 20 0 C20 1.65 20 3.3 20 5 C15.71 5 11.42 5 7 5 C7 7.64 7 10.28 7 13 C10.63 13 14.26 13 18 13 C18 14.65 18 16.3 18 18 C14.37 18 10.74 18 7 18 C7 23.28 7 28.56 7 34 C4.69 34 2.38 34 0 34 C0 22.78 0 11.56 0 0 Z " fill="#F9F9F9" transform="translate(478,126)"/>
<path d="M0 0 C3.125 -0.625 3.125 -0.625 7 0 C10.22257476 3.87136747 12.4124052 8.2372156 14 13 C16.31 8.71 18.62 4.42 21 0 C23.31 0 25.62 0 28 0 C27.47436788 3.37554377 25.96072118 5.73798791 24.11743164 8.56958008 C19.45858912 15.83623439 18.09698531 21.51904168 18.03515625 30.11328125 C18 33 18 33 17 34 C15.00041636 34.04080783 12.99954746 34.04254356 11 34 C11.04382813 33.11441406 11.08765625 32.22882813 11.1328125 31.31640625 C11.10926987 20.00417131 7.19527643 12.79700354 0.90209961 3.54956055 C0 2 0 2 0 0 Z " fill="#F3F3F3" transform="translate(588,172)"/>
<path d="M0 0 C3.07248987 0.24120481 4.29187114 0.75879983 7.0625 2.375 C10.04877587 7.22769829 9.95005509 12.0629881 9.0625 17.625 C7.36362573 21.10176595 6.3233771 22.45108194 3.0625 24.625 C-0.71064444 25.19917415 -2.47503996 24.88639046 -5.8125 23 C-9.17591245 17.65810964 -8.96822822 11.76671849 -7.9375 5.625 C-5.44852105 1.59263672 -4.78514577 0.75954695 0 0 Z " fill="#040404" transform="translate(455.9375,130.375)"/>
<path d="M0 0 C8.58 0 17.16 0 26 0 C26 1.65 26 3.3 26 5 C23.03 5 20.06 5 17 5 C17.00785522 6.26444946 17.00785522 6.26444946 17.01586914 7.55444336 C17.03287826 10.67227936 17.04543406 13.79009177 17.05493164 16.90795898 C17.05997057 18.25920386 17.06680177 19.61044326 17.07543945 20.96166992 C17.08752419 22.90020434 17.09269828 24.838778 17.09765625 26.77734375 C17.10551147 28.52905884 17.10551147 28.52905884 17.11352539 30.31616211 C17 33 17 33 16 34 C14.02 34 12.04 34 10 34 C10 24.43 10 14.86 10 5 C6.7 5 3.4 5 0 5 C0 3.35 0 1.7 0 0 Z " fill="#EEEEEE" transform="translate(319,126)"/>
<path d="M0 0 C2.37583495 2.37583495 3.00438878 4.29762668 4.1640625 7.4453125 C4.56367187 8.52167969 4.96328125 9.59804687 5.375 10.70703125 C5.99375 12.39892578 5.99375 12.39892578 6.625 14.125 C7.25535156 15.82849609 7.25535156 15.82849609 7.8984375 17.56640625 C8.93720246 20.37579329 9.96923567 23.18766768 11 26 C4.07 26 -2.86 26 -10 26 C-8.0407293 20.12218791 -6.05105767 14.29553048 -3.875 8.5 C-3.47861328 7.42878906 -3.47861328 7.42878906 -3.07421875 6.3359375 C-1.12115312 1.12115312 -1.12115312 1.12115312 0 0 Z " fill="#080808" transform="translate(1217,78)"/>
<path d="M0 0 C2.64 0 5.28 0 8 0 C8.02465288 4.68139254 8.04283739 9.36274759 8.05493164 14.04418945 C8.05997157 15.63794614 8.0668035 17.23169819 8.07543945 18.82543945 C8.08751999 21.11150253 8.09323155 23.39750467 8.09765625 25.68359375 C8.10281754 26.40026718 8.10797882 27.11694061 8.11329651 27.85533142 C8.11349263 29.57063672 8.06192007 31.28581266 8 33 C7 34 7 34 4 34.125 C1 34 1 34 0 33 C-0.08843793 30.55169574 -0.11528752 28.13179401 -0.09765625 25.68359375 C-0.0962413 24.95253922 -0.09482635 24.22148468 -0.09336853 23.46827698 C-0.08775408 21.12464368 -0.07519922 18.78110461 -0.0625 16.4375 C-0.05748686 14.85221492 -0.05292363 13.26692834 -0.04882812 11.68164062 C-0.03777997 7.7877239 -0.02050572 3.89387795 0 0 Z " fill="#DCDCDC" transform="translate(548,172)"/>
<path d="M0 0 C3.1875 0.3125 3.1875 0.3125 5.625 1.875 C7.1875 4.3125 7.1875 4.3125 7.125 7.9375 C6.1875 11.3125 6.1875 11.3125 3.1875 13.3125 C0.85550612 13.39155064 -1.48082622 13.40048769 -3.8125 13.3125 C-3.83936553 11.33340602 -3.85883375 9.35421029 -3.875 7.375 C-3.88660156 6.27285156 -3.89820313 5.17070313 -3.91015625 4.03515625 C-3.77678801 0.31684977 -3.70106331 0.41122926 0 0 Z " fill="#0D0D0D" transform="translate(581.8125,62.6875)"/>
<path d="M0 0 C3.125 0.25 3.125 0.25 5 1.375 C6.65354531 4.13090884 6.51865568 6.10075452 6.125 9.25 C5.0625 11.125 5.0625 11.125 3.125 12.25 C-0.5625 12.4375 -0.5625 12.4375 -3.875 12.25 C-3.90187279 10.43757948 -3.92133715 8.62504767 -3.9375 6.8125 C-3.94910156 5.80316406 -3.96070313 4.79382813 -3.97265625 3.75390625 C-3.83272018 0.1659454 -3.61391849 0.31425378 0 0 Z " fill="#1A1A1A" transform="translate(338.875,175.75)"/>
<path d="M0 0 C6.6 0.6 6.6 0.6 9 3 C9.3267107 6.07108055 9.48138276 8.15050101 7.9375 10.875 C4.99772876 12.58196395 2.32129197 12.18799766 -1 12 C-1.02687279 10.18757948 -1.04633715 8.37504767 -1.0625 6.5625 C-1.07410156 5.55316406 -1.08570313 4.54382813 -1.09765625 3.50390625 C-1 1 -1 1 0 0 Z " fill="#171717" transform="translate(430,176)"/>
<path d="M0 0 C3.125 0.25 3.125 0.25 5 1.375 C6.67163625 4.16106042 6.58876624 6.06988862 6.125 9.25 C4.5 11.125 4.5 11.125 2.125 12.25 C-1.125 12.4375 -1.125 12.4375 -3.875 12.25 C-3.90187279 10.43757948 -3.92133715 8.62504767 -3.9375 6.8125 C-3.94910156 5.80316406 -3.96070313 4.79382813 -3.97265625 3.75390625 C-3.83272018 0.1659454 -3.61391849 0.31425378 0 0 Z " fill="#131313" transform="translate(367.875,175.75)"/>
<path d="M0 0 C3.33773709 3.64116773 3.97864902 7.28607242 5 12 C2.03 12 -0.94 12 -4 12 C-2.66666667 8 -1.33333333 4 0 0 Z " fill="#191919" transform="translate(359,135)"/>
<path d="M0 0 C0.66 0.33 1.32 0.66 2 1 C2 1.66 2 2.32 2 3 C2.66 3 3.32 3 4 3 C4.33 2.01 4.66 1.02 5 0 C7 3 7 3 7 7 C4.36 7 1.72 7 -1 7 C-1.04254356 5.00045254 -1.04080783 2.99958364 -1 1 C-0.67 0.67 -0.34 0.34 0 0 Z " fill="#C5C5C5" transform="translate(620,198)"/>
<path d="M0 0 C0.66 0.33 1.32 0.66 2 1 C2 1.66 2 2.32 2 3 C2.66 3.33 3.32 3.66 4 4 C3.01 4.33 2.02 4.66 1 5 C1 5.66 1 6.32 1 7 C0.34 7 -0.32 7 -1 7 C-1.04254356 5.00045254 -1.04080783 2.99958364 -1 1 C-0.67 0.67 -0.34 0.34 0 0 Z " fill="#AFAFAF" transform="translate(620,198)"/>
</svg>
