<?xml version="1.0" encoding="UTF-8"?>
<svg version="1.1" xmlns="http://www.w3.org/2000/svg" width="250" height="83">
<path d="M0 0 C3.12221913 -0.49069097 5.88792946 -0.61451322 9 0 C11.85127589 2.14125668 13.69088318 4.82152563 15.6875 7.75 C16.24276367 8.52045654 16.79802734 9.29091309 17.37011719 10.0847168 C25.51684406 21.63151397 30.19018756 31.63509731 29 46 C26.9594599 54.12889071 22.96175679 60.35636763 15.8125 64.875 C10.16647591 67.77304226 4.92448065 68.14050791 -1.1640625 66.37109375 C-7.95567695 63.44729062 -12.1794849 57.99504097 -15.9375 51.8125 C-18.64571313 42.09479405 -17.45074754 34.41395592 -12.80078125 25.55859375 C-10.84021312 22.77297092 -8.7480708 20.98965944 -6 19 C-3.99007299 21.17072118 -2.98091877 22.29399459 -3.0625 25.3125 C-4 28 -4 28 -6.0625 31 C-9.18716658 36.21922331 -8.7307146 42.13952132 -8 48 C-6.78053112 51.82143725 -4.82959531 54.26521558 -1.8125 56.9375 C3.50673309 58.94698806 8.10587036 58.82198079 13.3125 56.5625 C18.5517922 51.56689581 20.22584661 46.16454189 20.5 39 C20.00865112 26.07752451 10.98527809 16.03489266 3.25146484 6.34082031 C0 2.21391319 0 2.21391319 0 0 Z " fill="#4FB5E7" transform="translate(43,5)"/>
<path d="M0 0 C2.97 0 5.94 0 9 0 C10.98 6.93 12.96 13.86 15 21 C18.22441268 12.96792216 18.22441268 12.96792216 21.25 4.875 C21.58515625 3.94429687 21.9203125 3.01359375 22.265625 2.0546875 C22.50796875 1.37664063 22.7503125 0.69859375 23 0 C25.31 0 27.62 0 30 0 C32.5390378 6.60149829 34.79377637 13.28053718 37 20 C39.34880326 16.4767951 40.37398842 12.88843081 41.5625 8.875 C43.87360595 1.12639405 43.87360595 1.12639405 45 0 C47.67058851 -0.14115161 50.32432238 -0.04247107 53 0 C51.47992438 7.51283447 49.29798523 14.71163235 46.9375 22 C46.39125977 23.71509766 46.39125977 23.71509766 45.83398438 25.46484375 C43.13079946 33.86920054 43.13079946 33.86920054 42 35 C39.03 35 36.06 35 33 35 C31.02 28.73 29.04 22.46 27 16 C22.98782664 25.32574258 22.98782664 25.32574258 20 35 C16.7 35 13.4 35 10 35 C8.57231067 30.33798681 7.14823891 25.67489011 5.72753906 21.01074219 C5.24351197 19.42352315 4.75848987 17.83660719 4.27246094 16.25 C3.57486644 13.9721404 2.88083316 11.69322223 2.1875 9.4140625 C1.96876221 8.70255035 1.75002441 7.99103821 1.5246582 7.25796509 C0 2.22774341 0 2.22774341 0 0 Z " fill="#20516A" transform="translate(79,21)"/>
<path d="M0 0 C0.66 0 1.32 0 2 0 C3.40112305 1.56958008 3.40112305 1.56958008 5.01171875 3.76953125 C5.89682129 4.97125977 5.89682129 4.97125977 6.79980469 6.19726562 C7.73421387 7.49180664 7.73421387 7.49180664 8.6875 8.8125 C9.31946289 9.68455078 9.95142578 10.55660156 10.60253906 11.45507812 C12.41078495 13.96368123 14.20617894 16.48107321 16 19 C16.43199707 19.59474121 16.86399414 20.18948242 17.30908203 20.80224609 C22.32486521 27.73537078 25.96374916 34.73076306 24.61328125 43.515625 C23.2023814 48.44154123 21.18688909 51.88417556 17 55 C13.6875 55.8125 13.6875 55.8125 11 56 C11.268125 55.34 11.53625 54.68 11.8125 54 C12.204375 53.01 12.59625 52.02 13 51 C13.27585938 50.40703125 13.55171875 49.8140625 13.8359375 49.203125 C16.14703563 43.90244122 16.65942304 39.59356079 15 34 C11.4218603 26.39953775 6.01452395 19.69451674 1 13 C-6.19439183 19.55959255 -12.2095493 27.96401289 -13.31640625 37.81640625 C-13.65609324 46.39624214 -11.83064999 53.66752602 -6.5 60.5 C-4.33847863 62.66152137 -2.83416794 63.95030817 0 65 C0 65.66 0 66.32 0 67 C-6.72977598 66.5879729 -10.82339231 64.37407249 -15.4453125 59.46484375 C-20.60461517 52.93075684 -22.6620079 44.80990218 -22.33984375 36.5625 C-20.57023537 23.21924604 -11.63866601 13.48742068 -2.78515625 3.99609375 C-0.95116302 2.12140655 -0.95116302 2.12140655 0 0 Z " fill="#0477A2" transform="translate(35,5)"/>
<path d="M0 0 C3.37490885 1.81284913 5.94721773 3.89835298 7.83984375 7.23828125 C7.83984375 7.89828125 7.83984375 8.55828125 7.83984375 9.23828125 C3.48109936 11.29657721 3.48109936 11.29657721 0.77734375 11.05078125 C-1.16015625 10.23828125 -1.16015625 10.23828125 -2.91015625 8.61328125 C-5.9199503 6.77396267 -7.91122754 7.00139376 -11.3203125 7.6171875 C-13.36742174 8.16153272 -13.36742174 8.16153272 -15.16015625 10.17578125 C-16.60734723 14.60780361 -16.95341446 18.6298288 -16.16015625 23.23828125 C-14.30373876 26.51227835 -14.30373876 26.51227835 -11.16015625 28.23828125 C-7.45014907 28.65659529 -7.45014907 28.65659529 -4.16015625 28.23828125 C-4.16015625 27.57828125 -4.16015625 26.91828125 -4.16015625 26.23828125 C-5.15015625 25.57828125 -6.14015625 24.91828125 -7.16015625 24.23828125 C-7.16015625 23.57828125 -7.16015625 22.91828125 -7.16015625 22.23828125 C-7.34578125 21.57828125 -7.53140625 20.91828125 -7.72265625 20.23828125 C-8.16015625 18.23828125 -8.16015625 18.23828125 -7.16015625 16.23828125 C-1.55015625 16.23828125 4.05984375 16.23828125 9.83984375 16.23828125 C9.83984375 24.13365978 9.68943594 26.66063323 4.83984375 32.23828125 C1.10187363 35.69468999 -2.57599126 36.51602222 -7.59765625 36.73828125 C-14.18310405 36.47594885 -18.6078122 34.45479056 -23.53515625 30.17578125 C-26.36550283 25.05938551 -27.64687513 19.53377367 -26.78515625 13.69921875 C-24.96393995 7.51122245 -21.83216733 4.08324128 -16.53515625 0.42578125 C-11.16653664 -1.4631775 -5.44752164 -1.92091631 0 0 Z M-1.16015625 22.23828125 C-0.16015625 25.23828125 -0.16015625 25.23828125 -0.16015625 25.23828125 Z M-2.16015625 25.23828125 C-1.16015625 27.23828125 -1.16015625 27.23828125 -1.16015625 27.23828125 Z " fill="#20516A" transform="translate(183.16015625,20.76171875)"/>
<path d="M0 0 C1.21816406 0.03480469 1.21816406 0.03480469 2.4609375 0.0703125 C3.68683594 0.09738281 3.68683594 0.09738281 4.9375 0.125 C5.87722656 0.15980469 5.87722656 0.15980469 6.8359375 0.1953125 C10.48079698 7.52007819 13.3503642 15.07802073 16.1484375 22.7578125 C16.51001953 23.74604004 16.87160156 24.73426758 17.24414062 25.75244141 C19.8359375 32.93957871 19.8359375 32.93957871 19.8359375 35.1953125 C16.8659375 35.1953125 13.8959375 35.1953125 10.8359375 35.1953125 C10.1759375 33.5453125 9.5159375 31.8953125 8.8359375 30.1953125 C1.9059375 29.7003125 1.9059375 29.7003125 -5.1640625 29.1953125 C-5.6590625 31.6703125 -5.6590625 31.6703125 -6.1640625 34.1953125 C-7.1640625 35.1953125 -7.1640625 35.1953125 -9.23046875 35.29296875 C-12.69726562 35.24414062 -12.69726562 35.24414062 -16.1640625 35.1953125 C-13.81083292 27.98429066 -11.25012943 20.86530451 -8.6015625 13.7578125 C-8.20259766 12.67048828 -7.80363281 11.58316406 -7.39257812 10.46289062 C-7.00650391 9.42712891 -6.62042969 8.39136719 -6.22265625 7.32421875 C-5.87517334 6.38650635 -5.52769043 5.44879395 -5.16967773 4.48266602 C-3.92520026 1.65200093 -3.19110484 0.28800585 0 0 Z M1.8359375 10.1953125 C1.5059375 11.8453125 1.1759375 13.4953125 0.8359375 15.1953125 C1.4959375 14.5353125 2.1559375 13.8753125 2.8359375 13.1953125 C2.5059375 12.2053125 2.1759375 11.2153125 1.8359375 10.1953125 Z M2.8359375 13.1953125 C3.8359375 16.1953125 3.8359375 16.1953125 3.8359375 16.1953125 Z M-0.1640625 15.1953125 C0.8359375 18.1953125 0.8359375 18.1953125 0.8359375 18.1953125 Z M3.8359375 16.1953125 C4.8359375 19.1953125 4.8359375 19.1953125 4.8359375 19.1953125 Z M1.8359375 17.1953125 C1.5059375 18.1853125 1.1759375 19.1753125 0.8359375 20.1953125 C1.8259375 19.8653125 2.8159375 19.5353125 3.8359375 19.1953125 C3.1759375 18.5353125 2.5159375 17.8753125 1.8359375 17.1953125 Z M-1.1640625 18.1953125 C-0.1640625 20.1953125 -0.1640625 20.1953125 -0.1640625 20.1953125 Z M4.8359375 19.1953125 C4.8359375 19.8553125 4.8359375 20.5153125 4.8359375 21.1953125 C2.5259375 21.1953125 0.2159375 21.1953125 -2.1640625 21.1953125 C-2.1640625 21.5253125 -2.1640625 21.8553125 -2.1640625 22.1953125 C0.4759375 22.1953125 3.1159375 22.1953125 5.8359375 22.1953125 C5.5059375 21.2053125 5.1759375 20.2153125 4.8359375 19.1953125 Z " fill="#20516A" transform="translate(208.1640625,20.8046875)"/>
<path d="M0 0 C2.64 0 5.28 0 8 0 C8 9.24 8 18.48 8 28 C11.63 28 15.26 28 19 28 C20 29 20 29 20.125 31.5 C20 34 20 34 19 35 C17.58429877 35.08651611 16.164405 35.10704904 14.74609375 35.09765625 C13.9770874 35.09515869 13.20808105 35.09266113 12.41577148 35.09008789 C11.43294189 35.08098389 10.4501123 35.07187988 9.4375 35.0625 C4.7659375 35.0315625 4.7659375 35.0315625 0 35 C0 23.45 0 11.9 0 0 Z " fill="#20526B" transform="translate(136,21)"/>
<path d="M0 0 C2.31 0 4.62 0 7 0 C6.01 0.33 5.02 0.66 4 1 C6.25167846 2.71815438 6.25167846 2.71815438 9 4 C10.90010348 3.17574711 10.90010348 3.17574711 13 2 C15.69148368 1.80812159 18.29685672 1.90989522 21 2 C20.34 4.31 19.68 6.62 19 9 C14.34462607 9.83796731 10.62921525 10.0161692 6 9 C6 7.68 6 6.36 6 5 C5.67 6.32 5.34 7.64 5 9 C4.4225 8.814375 3.845 8.62875 3.25 8.4375 C0.75630228 7.95261433 -0.59211213 8.30093578 -3 9 C-3.99 9 -4.98 9 -6 9 C-6.66 8.01 -7.32 7.02 -8 6 C-8.99 7.98 -9.98 9.96 -11 12 C-11.66 12 -12.32 12 -13 12 C-13.144375 10.906875 -13.28875 9.81375 -13.4375 8.6875 C-13.88288104 5.06877013 -13.88288104 5.06877013 -15 2 C-14.01 2 -13.02 2 -12 2 C-11.67 2.66 -11.34 3.32 -11 4 C-10.34 3.34 -9.68 2.68 -9 2 C-5.4375 1.8125 -5.4375 1.8125 -2 2 C-1.67 2.33 -1.34 2.66 -1 3 C-0.67 2.01 -0.34 1.02 0 0 Z M1 1 C2 3 2 3 2 3 Z M15 3 C16 5 16 5 16 5 Z " fill="#2D5569" transform="translate(201,64)"/>
<path d="M0 0 C4.48801639 -0.21371507 7.7925591 0.47002149 12 2 C14.03107031 2.099425 14.03107031 2.099425 16 1.375 C16.66 1.25125 17.32 1.1275 18 1 C18.66 1.66 19.32 2.32 20 3 C19.625 5.625 19.625 5.625 19 8 C15.52176885 9.15941038 13.54104422 8.70820884 10 8 C9.67 6.68 9.34 5.36 9 4 C9 5.32 9 6.64 9 8 C2.25 9.125 2.25 9.125 0 8 C0 5.36 0 2.72 0 0 Z M3 2 C3.99 2.495 3.99 2.495 5 3 C5 3.66 5 4.32 5 5 C4.01 5.495 4.01 5.495 3 6 C3.99 6.33 4.98 6.66 6 7 C6 5.35 6 3.7 6 2 C5.01 2 4.02 2 3 2 Z " fill="#2C586C" transform="translate(130,65)"/>
<path d="M0 0 C1.19625 0.020625 2.3925 0.04125 3.625 0.0625 C4.615 0.0625 5.605 0.0625 6.625 0.0625 C7.285 0.0625 7.945 0.0625 8.625 0.0625 C7.635 3.3625 6.645 6.6625 5.625 10.0625 C4.635 10.0625 3.645 10.0625 2.625 10.0625 C2.625 8.4125 2.625 6.7625 2.625 5.0625 C1.965 6.7125 1.305 8.3625 0.625 10.0625 C-1.025 10.0625 -2.675 10.0625 -4.375 10.0625 C-5.48217914 6.74096257 -5.2849978 4.42949184 -4.375 1.0625 C-3.375 0.0625 -3.375 0.0625 0 0 Z M-3.375 3.0625 C-3.375 3.7225 -3.375 4.3825 -3.375 5.0625 C-2.715 5.0625 -2.055 5.0625 -1.375 5.0625 C-1.375 4.4025 -1.375 3.7425 -1.375 3.0625 C-2.035 3.0625 -2.695 3.0625 -3.375 3.0625 Z " fill="#2B5367" transform="translate(160.375,65.9375)"/>
<path d="M0 0 C2 2 2 2 2.22705078 4.43017578 C2.21657715 5.4251709 2.20610352 6.42016602 2.1953125 7.4453125 C2.18886719 8.52167969 2.18242187 9.59804688 2.17578125 10.70703125 C2.15902344 11.83496094 2.14226562 12.96289062 2.125 14.125 C2.11597656 15.26066406 2.10695312 16.39632812 2.09765625 17.56640625 C2.07403098 20.37781299 2.04109013 23.18880298 2 26 C4.64 26 7.28 26 10 26 C10 26.33 10 26.66 10 27 C6.7 27 3.4 27 0 27 C0 18.09 0 9.18 0 0 Z " fill="#001144" transform="translate(145,21)"/>
<path d="M0 0 C1.65 0 3.3 0 5 0 C8.125 6.625 8.125 6.625 7 10 C6.34 9.67 5.68 9.34 5 9 C5.33 8.34 5.66 7.68 6 7 C5.34 7 4.68 7 4 7 C4 5.68 4 4.36 4 3 C3.34 4.32 2.68 5.64 2 7 C1.34 7 0.68 7 0 7 C0 4.69 0 2.38 0 0 Z " fill="#40646E" transform="translate(180,66)"/>
<path d="M0 0 C1.98 0 3.96 0 6 0 C5.835 0.928125 5.67 1.85625 5.5 2.8125 C4.92251612 5.95621353 4.92251612 5.95621353 5 9 C3.35 8.67 1.7 8.34 0 8 C0 5.36 0 2.72 0 0 Z " fill="#527483" transform="translate(130,65)"/>
<path d="M0 0 C0.66 0.33 1.32 0.66 2 1 C1.67 12.22 1.34 23.44 1 35 C0.67 35 0.34 35 0 35 C-0.02505615 34.22809326 -0.0501123 33.45618652 -0.07592773 32.66088867 C-0.19184007 29.16958819 -0.31458824 25.67856078 -0.4375 22.1875 C-0.47681641 20.97255859 -0.51613281 19.75761719 -0.55664062 18.50585938 C-0.59853516 17.34248047 -0.64042969 16.17910156 -0.68359375 14.98046875 C-0.72025146 13.90692139 -0.75690918 12.83337402 -0.79467773 11.72729492 C-0.89541847 8.90688447 -0.89541847 8.90688447 -2 6 C-1.0625 2.8125 -1.0625 2.8125 0 0 Z " fill="#066573" transform="translate(133,21)"/>
<path d="M0 0 C2.125 0.9375 2.125 0.9375 4 2 C4 3.65 4 5.3 4 7 C2.1875 7.6875 2.1875 7.6875 0 8 C-1.8125 6.8125 -1.8125 6.8125 -3 5 C-2.8125 2.875 -2.8125 2.875 -2 1 C-1.34 0.67 -0.68 0.34 0 0 Z " fill="#2A5569" transform="translate(224,66)"/>
<path d="M0 0 C2.78622674 4.17934012 3.15730954 7.07291745 3.1875 12 C3.20167969 13.051875 3.21585938 14.10375 3.23046875 15.1875 C3 18 3 18 1 21 C0.07907719 16.34462644 -0.12205997 11.85314567 -0.0625 7.125 C-0.05798828 6.43664063 -0.05347656 5.74828125 -0.04882812 5.0390625 C-0.03716336 3.35933665 -0.01923271 1.67965625 0 0 Z M1 7 C2 9 2 9 2 9 Z M1 16 C2 18 2 18 2 18 Z " fill="#2197C5" transform="translate(60,32)"/>
<path d="M0 0 C0.66 0 1.32 0 2 0 C3.76462683 3.08809695 4 4.23312136 4 8 C2.824375 7.9690625 2.824375 7.9690625 1.625 7.9375 C-0.98114961 7.81315937 -0.98114961 7.81315937 -3 9 C-2.5020163 5.26512223 -2.12508244 3.18762365 0 0 Z " fill="#27526E" transform="translate(175,65)"/>
<path d="M0 0 C0.99 0 1.98 0 3 0 C3.33 0.66 3.66 1.32 4 2 C4.99 1.67 5.98 1.34 7 1 C6.44271087 4.34373475 5.64826111 7.03312999 4 10 C3.34 10 2.68 10 2 10 C1.855625 8.906875 1.71125 7.81375 1.5625 6.6875 C1.11711896 3.06877013 1.11711896 3.06877013 0 0 Z " fill="#254E6A" transform="translate(186,66)"/>
<path d="M0 0 C1.98 0 3.96 0 6 0 C5.34 2.31 4.68 4.62 4 7 C3.01 7 2.02 7 1 7 C1 6.34 1 5.68 1 5 C0.34 4.67 -0.32 4.34 -1 4 C-0.67 2.68 -0.34 1.36 0 0 Z M-3 5 C-1 6 -1 6 -1 6 Z " fill="#32576C" transform="translate(216,66)"/>
<path d="M0 0 C1.65 0 3.3 0 5 0 C4.01 0.33 3.02 0.66 2 1 C2.99 1.66 3.98 2.32 5 3 C4.01 4.485 4.01 4.485 3 6 C3 6.99 3 7.98 3 9 C2.01 9 1.02 9 0 9 C0 6.03 0 3.06 0 0 Z " fill="#306473" transform="translate(203,64)"/>
<path d="M0 0 C0.99 0.66 1.98 1.32 3 2 C-0.07517084 12.55808656 -0.07517084 12.55808656 -2 17 C-2.66 16.01 -3.32 15.02 -4 14 C-3.525625 13.175 -3.05125 12.35 -2.5625 11.5 C-0.76430401 7.47204099 -0.3765745 4.36826421 0 0 Z " fill="#15496D" transform="translate(194,37)"/>
<path d="M0 0 C2.66666667 1.33333333 5.33333333 2.66666667 8 4 C8 4.66 8 5.32 8 6 C1.47692308 5.38461538 1.47692308 5.38461538 -0.9375 3.4375 C-1.288125 2.963125 -1.63875 2.48875 -2 2 C-1.34 2 -0.68 2 0 2 C0 1.34 0 0.68 0 0 Z " fill="#0B7A99" transform="translate(27,66)"/>
<path d="M0 0 C2.23381953 4.08312914 2.70122081 7.36892261 3 12 C2.34 12.66 1.68 13.32 1 14 C-0.04976964 10.85069107 -0.10131595 8.61185544 -0.0625 5.3125 C-0.05347656 4.31863281 -0.04445313 3.32476562 -0.03515625 2.30078125 C-0.02355469 1.54152344 -0.01195313 0.78226563 0 0 Z M1 7 C2 10 2 10 2 10 Z " fill="#2387B4" transform="translate(22,41)"/>
<path d="M0 0 C0.66 0 1.32 0 2 0 C4.125 6.75 4.125 6.75 3 9 C2.34 8.67 1.68 8.34 1 8 C1.33 7.34 1.66 6.68 2 6 C1.34 6 0.68 6 0 6 C0 4.02 0 2.04 0 0 Z " fill="#274C5F" transform="translate(184,67)"/>
<path d="M0 0 C0 0.33 0 0.66 0 1 C-7.92 1.495 -7.92 1.495 -16 2 C-16 1.34 -16 0.68 -16 0 C-10.49983036 -1.30267176 -5.52967941 -0.71033431 0 0 Z " fill="#00439B" transform="translate(192,34)"/>
<path d="M0 0 C1.32 0.33 2.64 0.66 4 1 C4 2.65 4 4.3 4 6 C2.68 6 1.36 6 0 6 C0 4.02 0 2.04 0 0 Z " fill="#29536A" transform="translate(131,66)"/>
<path d="M0 0 C0.33 0.66 0.66 1.32 1 2 C0.70351563 2.58265625 0.40703125 3.1653125 0.1015625 3.765625 C-1.24129541 6.48943609 -1.40932624 8.73056733 -1.625 11.75 C-1.69976562 12.73484375 -1.77453125 13.7196875 -1.8515625 14.734375 C-1.90054688 15.48203125 -1.94953125 16.2296875 -2 17 C-2.33 17 -2.66 17 -3 17 C-3.08160748 15.10489301 -3.13946459 13.20875496 -3.1875 11.3125 C-3.22230469 10.25675781 -3.25710937 9.20101562 -3.29296875 8.11328125 C-2.96666615 4.64577232 -1.99030125 2.81567552 0 0 Z " fill="#207FD5" transform="translate(38,35)"/>
<path d="M0 0 C6.27 0 12.54 0 19 0 C19 0.33 19 0.66 19 1 C12.73 1 6.46 1 0 1 C0 0.67 0 0.34 0 0 Z " fill="#29546C" transform="translate(136,57)"/>
<path d="M0 0 C1.32 0 2.64 0 4 0 C3.34 2.31 2.68 4.62 2 7 C1.34 7 0.68 7 0 7 C0 4.69 0 2.38 0 0 Z " fill="#2B5569" transform="translate(151,66)"/>
<path d="M0 0 C3.96 0 7.92 0 12 0 C8.64672361 2.23551759 8.09256343 2.17283528 4.3125 1.625 C3.50425781 1.51414063 2.69601563 1.40328125 1.86328125 1.2890625 C1.24839844 1.19367187 0.63351563 1.09828125 0 1 C0 0.67 0 0.34 0 0 Z " fill="#0D3B80" transform="translate(169,58)"/>
<path d="M0 0 C4.29 0 8.58 0 13 0 C12.67 0.99 12.34 1.98 12 3 C12 2.34 12 1.68 12 1 C6.06 1.495 6.06 1.495 0 2 C0 1.34 0 0.68 0 0 Z " fill="#12555D" transform="translate(204,51)"/>
<path d="M0 0 C2.78637633 4.1795645 1.79562512 6.14668677 1 11 C-0.98362069 8.08291076 -0.9876191 6.87619096 -0.625 3.25 C-0.41875 2.1775 -0.2125 1.105 0 0 Z M0 4 C1 6 1 6 1 6 Z " fill="#1D92B5" transform="translate(24,34)"/>
<path d="M0 0 C1.25541557 3.76624671 0.37061958 5.37188934 -1 9 C-3 6 -3 6 -2.75 3.9375 C-2 2 -2 2 0 0 Z " fill="#174D62" transform="translate(96,32)"/>
<path d="M0 0 C0.33 0 0.66 0 1 0 C1 4.29 1 8.58 1 13 C0.67 13 0.34 13 0 13 C0 8.71 0 4.42 0 0 Z " fill="#32AEEB" transform="translate(73,38)"/>
<path d="M0 0 C1.32 1.32 2.64 2.64 4 4 C3.67 4.66 3.34 5.32 3 6 C2.01 6 1.02 6 0 6 C-0.38218767 4.34385343 -0.71395102 2.67542976 -1 1 C-0.67 0.67 -0.34 0.34 0 0 Z " fill="#197EB1" transform="translate(41,26)"/>
<path d="M0 0 C1.46726798 3.81489674 0.43336419 6.29011622 -1 10 C-2.46726798 6.18510326 -1.43336419 3.70988378 0 0 Z " fill="#0F6079" transform="translate(120,24)"/>
<path d="M0 0 C3.63 0 7.26 0 11 0 C11 0.33 11 0.66 11 1 C7.37 1 3.74 1 0 1 C0 0.67 0 0.34 0 0 Z " fill="#41B1E0" transform="translate(43,73)"/>
<path d="M0 0 C0 0.33 0 0.66 0 1 C-2.97 1 -5.94 1 -9 1 C-9 0.67 -9 0.34 -9 0 C-3.375 -1.125 -3.375 -1.125 0 0 Z " fill="#3D97D0" transform="translate(53,62)"/>
<path d="M0 0 C2.12508244 3.18762365 2.5020163 5.26512223 3 9 C0.23776722 6.23776722 0.42143709 3.79293383 0 0 Z " fill="#123156" transform="translate(85,47)"/>
<path d="M0 0 C0.33 0 0.66 0 1 0 C1 3.63 1 7.26 1 11 C0.67 11 0.34 11 0 11 C0 7.37 0 3.74 0 0 Z " fill="#007A97" transform="translate(11,39)"/>
<path d="M0 0 C1.0326802 2.78823655 1.04509293 3.8677274 0.0625 6.75 C-0.288125 7.4925 -0.63875 8.235 -1 9 C-2.25541557 5.23375329 -1.37061958 3.62811066 0 0 Z " fill="#084D56" transform="translate(129,34)"/>
<path d="M0 0 C2.31 0.33 4.62 0.66 7 1 C7 1.99 7 2.98 7 4 C4.69 3.01 2.38 2.02 0 1 C0 0.67 0 0.34 0 0 Z " fill="#0B3773" transform="translate(173,28)"/>
<path d="M0 0 C3.63 0 7.26 0 11 0 C11 0.33 11 0.66 11 1 C7.37 1 3.74 1 0 1 C0 0.67 0 0.34 0 0 Z " fill="#19596C" transform="translate(170,18)"/>
<path d="M0 0 C0.66 0.33 1.32 0.66 2 1 C1.67 2.65 1.34 4.3 1 6 C-0.0625 4.125 -0.0625 4.125 -1 2 C-0.67 1.34 -0.34 0.68 0 0 Z " fill="#084E63" transform="translate(170,67)"/>
<path d="M0 0 C0.99 0.495 0.99 0.495 2 1 C1.67 3.31 1.34 5.62 1 8 C0.67 8 0.34 8 0 8 C0 5.36 0 2.72 0 0 Z " fill="#054E54" transform="translate(157,48)"/>
<path d="M0 0 C0.66 0.99 1.32 1.98 2 3 C1.67 3.99 1.34 4.98 1 6 C0.34 6 -0.32 6 -1 6 C-0.67 4.02 -0.34 2.04 0 0 Z " fill="#1B4D4F" transform="translate(105,38)"/>
<path d="M0 0 C1 2 1 2 0.0625 5.125 C-0.288125 6.07375 -0.63875 7.0225 -1 8 C-1.93065133 5.39417629 -2.14917407 4.35801776 -1.0625 1.75 C-0.711875 1.1725 -0.36125 0.595 0 0 Z " fill="#003750" transform="translate(100,21)"/>
<path d="M0 0 C2.97 0 5.94 0 9 0 C9 0.33 9 0.66 9 1 C6.03 1 3.06 1 0 1 C0 0.67 0 0.34 0 0 Z " fill="#245F69" transform="translate(219,57)"/>
<path d="M0 0 C2.97 0 5.94 0 9 0 C9 0.33 9 0.66 9 1 C6.03 1 3.06 1 0 1 C0 0.67 0 0.34 0 0 Z " fill="#26545B" transform="translate(192,57)"/>
<path d="M0 0 C2.97 0 5.94 0 9 0 C9 0.33 9 0.66 9 1 C6.03 1 3.06 1 0 1 C0 0.67 0 0.34 0 0 Z " fill="#295B6A" transform="translate(112,57)"/>
<path d="M0 0 C2.97 0 5.94 0 9 0 C9 0.33 9 0.66 9 1 C6.03 1 3.06 1 0 1 C0 0.67 0 0.34 0 0 Z " fill="#2A555E" transform="translate(89,57)"/>
<path d="M0 0 C0.33 0 0.66 0 1 0 C1 2.97 1 5.94 1 9 C0.67 9 0.34 9 0 9 C0 6.03 0 3.06 0 0 Z " fill="#005E5E" transform="translate(167,34)"/>
<path d="M0 0 C0.33 0.66 0.66 1.32 1 2 C0.0625 4.625 0.0625 4.625 -1 7 C-1.625 5.1875 -1.625 5.1875 -2 3 C-1.34 2.01 -0.68 1.02 0 0 Z " fill="#004F7E" transform="translate(15,28)"/>
<path d="M0 0 C2.97 0 5.94 0 9 0 C9 0.33 9 0.66 9 1 C6.03 1 3.06 1 0 1 C0 0.67 0 0.34 0 0 Z " fill="#004675" transform="translate(206,19)"/>
<path d="M0 0 C2.97 0 5.94 0 9 0 C9 0.33 9 0.66 9 1 C6.03 1 3.06 1 0 1 C0 0.67 0 0.34 0 0 Z " fill="#59B4F1" transform="translate(43,3)"/>
<path d="M0 0 C0.33 0 0.66 0 1 0 C1 2.64 1 5.28 1 8 C0.67 8 0.34 8 0 8 C0 5.36 0 2.72 0 0 Z " fill="#374774" transform="translate(128,65)"/>
<path d="M0 0 C2.31 0 4.62 0 7 0 C5.02 0.99 5.02 0.99 3 2 C2.01 1.34 1.02 0.68 0 0 Z " fill="#1A2F3F" transform="translate(157,64)"/>
<path d="M0 0 C0.33 0 0.66 0 1 0 C0.67 2.31 0.34 4.62 0 7 C-1.04449911 3.86650268 -0.93423645 3.01031744 0 0 Z " fill="#06363C" transform="translate(124,49)"/>
<path d="M0 0 C0.33 0 0.66 0 1 0 C0.67 2.31 0.34 4.62 0 7 C-1.04449911 3.86650268 -0.93423645 3.01031744 0 0 Z " fill="#005A77" transform="translate(49,47)"/>
<path d="M0 0 C2 3 2 3 1.625 5.1875 C1.315625 6.0846875 1.315625 6.0846875 1 7 C0.67 4.69 0.34 2.38 0 0 Z " fill="#003A6A" transform="translate(79,27)"/>
<path d="M0 0 C2.64 0 5.28 0 8 0 C8 0.33 8 0.66 8 1 C5.36 1 2.72 1 0 1 C0 0.67 0 0.34 0 0 Z " fill="#064774" transform="translate(136,19)"/>
<path d="M0 0 C2.64 0 5.28 0 8 0 C8 0.33 8 0.66 8 1 C5.36 1 2.72 1 0 1 C0 0.67 0 0.34 0 0 Z " fill="#004774" transform="translate(124,19)"/>
<path d="M0 0 C2.64 0 5.28 0 8 0 C8 0.33 8 0.66 8 1 C5.36 1 2.72 1 0 1 C0 0.67 0 0.34 0 0 Z " fill="#00368C" transform="translate(80,19)"/>
<path d="M0 0 C2.97 0.495 2.97 0.495 6 1 C4.125 1.625 4.125 1.625 2 2 C1.34 1.34 0.68 0.68 0 0 Z " fill="#0085A7" transform="translate(28,72)"/>
<path d="M0 0 C0 0.99 0 1.98 0 3 C-0.99 3 -1.98 3 -3 3 C-2.01 2.01 -1.02 1.02 0 0 Z " fill="#3996FF" transform="translate(58,57)"/>
<path d="M0 0 C0.625 1.875 0.625 1.875 1 4 C0.34 4.66 -0.32 5.32 -1 6 C-0.67 4.02 -0.34 2.04 0 0 Z " fill="#002767" transform="translate(101,50)"/>
<path d="M0 0 C2.31 0 4.62 0 7 0 C7 0.33 7 0.66 7 1 C4.69 1 2.38 1 0 1 C0 0.67 0 0.34 0 0 Z " fill="#006767" transform="translate(172,48)"/>
<path d="M0 0 C0.66 0.66 1.32 1.32 2 2 C1.625 4.125 1.625 4.125 1 6 C0.67 4.02 0.34 2.04 0 0 Z " fill="#07426F" transform="translate(223,37)"/>
<path d="M0 0 C0.66 0.66 1.32 1.32 2 2 C1.625 4.125 1.625 4.125 1 6 C0.67 4.02 0.34 2.04 0 0 Z " fill="#1A354D" transform="translate(81,34)"/>
<path d="M0 0 C0.66 0.33 1.32 0.66 2 1 C2 1.66 2 2.32 2 3 C0.68 2.34 -0.64 1.68 -2 1 C-1.34 0.67 -0.68 0.34 0 0 Z " fill="#1282B3" transform="translate(37,21)"/>
<path d="M0 0 C2.31 0 4.62 0 7 0 C7 0.33 7 0.66 7 1 C4.69 1 2.38 1 0 1 C0 0.67 0 0.34 0 0 Z " fill="#003C66" transform="translate(102,19)"/>
<path d="M0 0 C0.33 0 0.66 0 1 0 C1 1.98 1 3.96 1 6 C0.67 6 0.34 6 0 6 C0 4.02 0 2.04 0 0 Z " fill="#003838" transform="translate(229,67)"/>
<path d="M0 0 C0.99 0.99 1.98 1.98 3 3 C1.68 2.34 0.36 1.68 -1 1 C-0.67 0.67 -0.34 0.34 0 0 Z " fill="#239BC2" transform="translate(32,66)"/>
<path d="M0 0 C1.65 0 3.3 0 5 0 C3.02 0.99 3.02 0.99 1 2 C0.67 1.34 0.34 0.68 0 0 Z " fill="#0E1C46" transform="translate(191,64)"/>
<path d="M0 0 C1.65 0 3.3 0 5 0 C4.01 0.66 3.02 1.32 2 2 C1.34 1.34 0.68 0.68 0 0 Z " fill="#27515C" transform="translate(136,64)"/>
<path d="M0 0 C0.99 0 1.98 0 3 0 C2.67 0.99 2.34 1.98 2 3 C1.34 2.67 0.68 2.34 0 2 C0 1.34 0 0.68 0 0 Z " fill="#15719F" transform="translate(28,63)"/>
<path d="M0 0 C0.66 0.33 1.32 0.66 2 1 C2 1.66 2 2.32 2 3 C1.01 2.67 0.02 2.34 -1 2 C-0.67 1.34 -0.34 0.68 0 0 Z " fill="#216C72" transform="translate(53,59)"/>
<path d="M0 0 C0.33 0.99 0.66 1.98 1 3 C0.34 3.66 -0.32 4.32 -1 5 C-0.67 3.35 -0.34 1.7 0 0 Z " fill="#1C94CD" transform="translate(25,53)"/>
<path d="M0 0 C0.66 0.66 1.32 1.32 2 2 C1.67 2.99 1.34 3.98 1 5 C0.67 3.35 0.34 1.7 0 0 Z " fill="#20478E" transform="translate(227,48)"/>
<path d="M0 0 C0.66 0.66 1.32 1.32 2 2 C1.67 2.99 1.34 3.98 1 5 C0.67 3.35 0.34 1.7 0 0 Z " fill="#00718D" transform="translate(47,35)"/>
<path d="M0 0 C0.33 0.99 0.66 1.98 1 3 C0.34 3.66 -0.32 4.32 -1 5 C-0.67 3.35 -0.34 1.7 0 0 Z " fill="#074E4E" transform="translate(200,28)"/>
<path d="M0 0 C0.99 0.33 1.98 0.66 3 1 C1.02 1.99 1.02 1.99 -1 3 C-0.67 2.01 -0.34 1.02 0 0 Z " fill="#104272" transform="translate(170,29)"/>
<path d="M0 0 C0.66 0.66 1.32 1.32 2 2 C1.67 2.99 1.34 3.98 1 5 C0.67 3.35 0.34 1.7 0 0 Z " fill="#074343" transform="translate(218,24)"/>
<path d="M0 0 C0.99 0.495 0.99 0.495 2 1 C1.67 2.32 1.34 3.64 1 5 C0.67 3.35 0.34 1.7 0 0 Z " fill="#084149" transform="translate(89,21)"/>
<path d="M0 0 C0 0.99 0 1.98 0 3 C-0.99 3.495 -0.99 3.495 -2 4 C-1.34 2.68 -0.68 1.36 0 0 Z " fill="#0095D1" transform="translate(26,13)"/>
<path d="M0 0 C1.485 0.99 1.485 0.99 3 2 C2.67 2.66 2.34 3.32 2 4 C1.34 2.68 0.68 1.36 0 0 Z " fill="#006273" transform="translate(41,9)"/>
<path d="M0 0 C1.98 0.99 1.98 0.99 4 2 C2.68 1.67 1.36 1.34 0 1 C0 0.67 0 0.34 0 0 Z " fill="#36C8E4" transform="translate(39,71)"/>
<path d="M0 0 C0.99 0.33 1.98 0.66 3 1 C1.68 1.33 0.36 1.66 -1 2 C-0.67 1.34 -0.34 0.68 0 0 Z " fill="#28287E" transform="translate(223,64)"/>
<path d="M0 0 C1.32 0.33 2.64 0.66 4 1 C3.01 1.495 3.01 1.495 2 2 C1.34 1.34 0.68 0.68 0 0 Z " fill="#112A77" transform="translate(217,64)"/>
<path d="M0 0 C1.65 0 3.3 0 5 0 C5 0.33 5 0.66 5 1 C3.35 1 1.7 1 0 1 C0 0.67 0 0.34 0 0 Z " fill="#1B6969" transform="translate(180,64)"/>
<path d="M0 0 C1.32 0.33 2.64 0.66 4 1 C3.01 1.33 2.02 1.66 1 2 C0.67 1.34 0.34 0.68 0 0 Z " fill="#115D90" transform="translate(151,64)"/>
<path d="M0 0 C0.99 0.33 1.98 0.66 3 1 C1.68 1.33 0.36 1.66 -1 2 C-0.67 1.34 -0.34 0.68 0 0 Z " fill="#174B58" transform="translate(145,64)"/>
<path d="M0 0 C0.33 0.99 0.66 1.98 1 3 C0.01 3.495 0.01 3.495 -1 4 C-0.67 2.68 -0.34 1.36 0 0 Z " fill="#3FD1E8" transform="translate(71,55)"/>
<path d="M0 0 C0.33 0 0.66 0 1 0 C1 1.65 1 3.3 1 5 C0.67 5 0.34 5 0 5 C0 3.35 0 1.7 0 0 Z " fill="#002E6E" transform="translate(155,41)"/>
<path d="M0 0 C0.33 0 0.66 0 1 0 C1 1.65 1 3.3 1 5 C0.67 5 0.34 5 0 5 C0 3.35 0 1.7 0 0 Z " fill="#002E6E" transform="translate(155,31)"/>
<path d="M0 0 C0.33 0.66 0.66 1.32 1 2 C0.34 2.66 -0.32 3.32 -1 4 C-0.67 2.68 -0.34 1.36 0 0 Z " fill="#1DE1FF" transform="translate(28,31)"/>
<path d="M0 0 C0.99 0.33 1.98 0.66 3 1 C2.01 1 1.02 1 0 1 C0 0.67 0 0.34 0 0 Z " fill="#0C2E4E" transform="translate(156,77)"/>
<path d="M0 0 C0.99 0.33 1.98 0.66 3 1 C2.01 1.33 1.02 1.66 0 2 C0 1.34 0 0.68 0 0 Z " fill="#193333" transform="translate(174,73)"/>
<path d="M0 0 C4 1 4 1 4 1 Z " fill="#000015" transform="translate(131,63)"/>
<path d="M0 0 C0 3 0 3 0 3 Z " fill="#1599D0" transform="translate(27,59)"/>
<path d="M0 0 C0.99 0.495 0.99 0.495 2 1 C1.67 1.66 1.34 2.32 1 3 C0.67 2.01 0.34 1.02 0 0 Z " fill="#006A75" transform="translate(15,59)"/>
<path d="M0 0 C0 3 0 3 0 3 Z " fill="#004A75" transform="translate(58,54)"/>
<path d="M0 0 C0.99 0.495 0.99 0.495 2 1 C1.67 1.66 1.34 2.32 1 3 C0.67 2.01 0.34 1.02 0 0 Z " fill="#43C8E2" transform="translate(37,55)"/>
<path d="M0 0 C1 4 1 4 1 4 Z " fill="#55CAFF" transform="translate(72,51)"/>
<path d="M0 0 C1 4 1 4 1 4 Z " fill="#00606F" transform="translate(12,50)"/>
<path d="M0 0 C1 4 1 4 1 4 Z " fill="#007575" transform="translate(108,47)"/>
<path d="M0 0 C1 4 1 4 1 4 Z " fill="#005595" transform="translate(84,43)"/>
<path d="M0 0 C1 4 1 4 1 4 Z " fill="#008EBB" transform="translate(49,40)"/>
<path d="M0 0 C1 4 1 4 1 4 Z " fill="#0095BA" transform="translate(12,35)"/>
<path d="M0 0 C1 4 1 4 1 4 Z " fill="#005555" transform="translate(117,34)"/>
<path d="M0 0 C1 4 1 4 1 4 Z " fill="#005555" transform="translate(115,34)"/>
<path d="M0 0 C1 4 1 4 1 4 Z " fill="#55E9E9" transform="translate(72,33)"/>
<path d="M0 0 C0.99 0.495 0.99 0.495 2 1 C1.67 1.66 1.34 2.32 1 3 C0.67 2.01 0.34 1.02 0 0 Z " fill="#1FB3E9" transform="translate(58,29)"/>
<path d="M0 0 C0 3 0 3 0 3 Z " fill="#457AE4" transform="translate(30,28)"/>
<path d="M0 0 C1 4 1 4 1 4 Z " fill="#005595" transform="translate(91,26)"/>
<path d="M0 0 C0.99 0.495 0.99 0.495 2 1 C1.67 1.66 1.34 2.32 1 3 C0.67 2.01 0.34 1.02 0 0 Z " fill="#358AFF" transform="translate(56,26)"/>
<path d="M0 0 C0 3 0 3 0 3 Z " fill="#007990" transform="translate(28,27)"/>
<path d="M0 0 C0 3 0 3 0 3 Z " fill="#0C4959" transform="translate(158,26)"/>
<path d="M0 0 C0 3 0 3 0 3 Z " fill="#30AFDF" transform="translate(33,24)"/>
<path d="M0 0 C0.66 0.66 1.32 1.32 2 2 C1.01 2.495 1.01 2.495 0 3 C0 2.01 0 1.02 0 0 Z " fill="#00B9D0" transform="translate(39,24)"/>
<path d="M0 0 C0 3 0 3 0 3 Z " fill="#004A8A" transform="translate(18,23)"/>
<path d="M0 0 C0.99 0.495 0.99 0.495 2 1 C1.67 1.66 1.34 2.32 1 3 C0.67 2.01 0.34 1.02 0 0 Z " fill="#00B4BF" transform="translate(50,21)"/>
<path d="M0 0 C0.99 0.495 0.99 0.495 2 1 C1.67 1.66 1.34 2.32 1 3 C0.67 2.01 0.34 1.02 0 0 Z " fill="#2ACAD4" transform="translate(64,19)"/>
<path d="M0 0 C0.99 0.495 0.99 0.495 2 1 C1.67 1.66 1.34 2.32 1 3 C0.67 2.01 0.34 1.02 0 0 Z " fill="#3280F2" transform="translate(51,19)"/>
<path d="M0 0 C0 3 0 3 0 3 Z " fill="#00607A" transform="translate(20,20)"/>
<path d="M0 0 C0.99 0.495 0.99 0.495 2 1 C1.67 1.66 1.34 2.32 1 3 C0.67 2.01 0.34 1.02 0 0 Z " fill="#00BFDF" transform="translate(47,17)"/>
<path d="M0 0 C0.99 0.495 0.99 0.495 2 1 C1.67 1.66 1.34 2.32 1 3 C0.67 2.01 0.34 1.02 0 0 Z " fill="#1CA2D2" transform="translate(61,15)"/>
<path d="M0 0 C0.99 0.495 0.99 0.495 2 1 C1.67 1.66 1.34 2.32 1 3 C0.67 2.01 0.34 1.02 0 0 Z " fill="#3AC4EF" transform="translate(42,7)"/>
<path d="M0 0 C0.99 0.495 0.99 0.495 2 1 C1.67 1.66 1.34 2.32 1 3 C0.67 2.01 0.34 1.02 0 0 Z " fill="#3AC4F4" transform="translate(55,7)"/>
<path d="M0 0 C0 3 0 3 0 3 Z " fill="#004E70" transform="translate(32,6)"/>
<path d="M0 0 C0.99 0.495 0.99 0.495 2 1 C1.01 1.495 1.01 1.495 0 2 C0 1.34 0 0.68 0 0 Z " fill="#001515" transform="translate(188,77)"/>
<path d="M0 0 C0.99 0.495 0.99 0.495 2 1 C1.01 1.495 1.01 1.495 0 2 C0 1.34 0 0.68 0 0 Z " fill="#001C1C" transform="translate(164,77)"/>
<path d="M0 0 C3 1 3 1 3 1 Z " fill="#000000" transform="translate(132,75)"/>
<path d="M0 0 C3 1 3 1 3 1 Z " fill="#2DD1F1" transform="translate(54,72)"/>
<path d="M0 0 C3 1 3 1 3 1 Z " fill="#117777" transform="translate(212,64)"/>
<path d="M0 0 C0.33 0.66 0.66 1.32 1 2 C0.34 1.67 -0.32 1.34 -1 1 C-0.67 0.67 -0.34 0.34 0 0 Z " fill="#001C38" transform="translate(44,58)"/>
<path d="M0 0 C3 1 3 1 3 1 Z " fill="#0E3147" transform="translate(181,57)"/>
<path d="" fill="#0071B8" transform="translate(0,0)"/>
<path d="" fill="#004747" transform="translate(0,0)"/>
<path d="" fill="#1CE2FF" transform="translate(0,0)"/>
<path d="" fill="#2AC6E3" transform="translate(0,0)"/>
<path d="" fill="#11495A" transform="translate(0,0)"/>
<path d="" fill="#004095" transform="translate(0,0)"/>
<path d="" fill="#112D3E" transform="translate(0,0)"/>
<path d="" fill="#1F6969" transform="translate(0,0)"/>
<path d="" fill="#00157F" transform="translate(0,0)"/>
<path d="" fill="#113777" transform="translate(0,0)"/>
<path d="" fill="#112637" transform="translate(0,0)"/>
<path d="" fill="#000000" transform="translate(0,0)"/>
<path d="" fill="#125567" transform="translate(0,0)"/>
<path d="" fill="#112D3E" transform="translate(0,0)"/>
<path d="" fill="#004747" transform="translate(0,0)"/>
<path d="" fill="#15264C" transform="translate(0,0)"/>
<path d="M0 0 C3 1 3 1 3 1 Z " fill="#004040" transform="translate(186,32)"/>
<path d="" fill="#155C71" transform="translate(0,0)"/>
<path d="" fill="#152AAA" transform="translate(0,0)"/>
<path d="" fill="#004055" transform="translate(0,0)"/>
<path d="" fill="#004747" transform="translate(0,0)"/>
<path d="" fill="#112244" transform="translate(0,0)"/>
<path d="" fill="#226E6E" transform="translate(0,0)"/>
<path d="" fill="#1F3E3E" transform="translate(0,0)"/>
<path d="" fill="#0E6363" transform="translate(0,0)"/>
<path d="" fill="#003147" transform="translate(0,0)"/>
<path d="M0 0 C3 1 3 1 3 1 Z " fill="#004747" transform="translate(181,19)"/>
<path d="M0 0 C3 1 3 1 3 1 Z " fill="#004095" transform="translate(167,19)"/>
<path d="M0 0 C2 1 2 1 2 1 Z " fill="#005D5D" transform="translate(159,77)"/>
<path d="M0 0 C2 1 2 1 2 1 Z " fill="#004040" transform="translate(161,76)"/>
<path d="" fill="#006060" transform="translate(0,0)"/>
<path d="M0 0 C2 1 2 1 2 1 Z " fill="#002A2A" transform="translate(226,74)"/>
<path d="M0 0 C2 1 2 1 2 1 Z " fill="#0040BF" transform="translate(222,74)"/>
<path d="" fill="#206080" transform="translate(0,0)"/>
<path d="" fill="#197373" transform="translate(0,0)"/>
<path d="M0 0 C2 1 2 1 2 1 Z " fill="#004040" transform="translate(144,74)"/>
<path d="" fill="#304050" transform="translate(0,0)"/>
<path d="" fill="#006080" transform="translate(0,0)"/>
<path d="M0 0 C2 1 2 1 2 1 Z " fill="#00BFD4" transform="translate(26,71)"/>
<path d="M0 0 C2 1 2 1 2 1 Z " fill="#40FFFF" transform="translate(37,70)"/>
<path d="M0 0 C2 1 2 1 2 1 Z " fill="#80BFFF" transform="translate(60,69)"/>
<path d="M0 0 C2 1 2 1 2 1 Z " fill="#6A95FF" transform="translate(35,69)"/>
<path d="M0 0 C2 1 2 1 2 1 Z " fill="#009595" transform="translate(23,69)"/>
<path d="" fill="#194C66" transform="translate(0,0)"/>
<path d="M0 0 C2 1 2 1 2 1 Z " fill="#004080" transform="translate(209,66)"/>
<path d="M0 0 C2 1 2 1 2 1 Z " fill="#002A2A" transform="translate(142,66)"/>
<path d="M0 0 C2 1 2 1 2 1 Z " fill="#001933" transform="translate(226,65)"/>
<path d="M0 0 C2 1 2 1 2 1 Z " fill="#006080" transform="translate(155,65)"/>
<path d="M0 0 C2 1 2 1 2 1 Z " fill="#006A6A" transform="translate(197,64)"/>
<path d="M0 0 C2 1 2 1 2 1 Z " fill="#008080" transform="translate(187,64)"/>
<path d="M0 0 C2 1 2 1 2 1 Z " fill="#004040" transform="translate(167,64)"/>
<path d="" fill="#006A95" transform="translate(0,0)"/>
<path d="M0 0 C2 1 2 1 2 1 Z " fill="#004A4A" transform="translate(175,63)"/>
<path d="" fill="#40BFFF" transform="translate(0,0)"/>
<path d="M0 0 C2 1 2 1 2 1 Z " fill="#44BBFF" transform="translate(42,61)"/>
<path d="" fill="#59CCE5" transform="translate(0,0)"/>
<path d="" fill="#00B2CC" transform="translate(0,0)"/>
<path d="" fill="#005DA1" transform="translate(0,0)"/>
<path d="M0 0 C2 1 2 1 2 1 Z " fill="#15556A" transform="translate(167,57)"/>
<path d="" fill="#4AB4DF" transform="translate(0,0)"/>
<path d="M0 0 C2 1 2 1 2 1 Z " fill="#006080" transform="translate(165,56)"/>
<path d="" fill="#206080" transform="translate(0,0)"/>
<path d="M0 0 C2 1 2 1 2 1 Z " fill="#002A6A" transform="translate(163,55)"/>
<path d="" fill="#007373" transform="translate(0,0)"/>
<path d="" fill="#0088A1" transform="translate(0,0)"/>
<path d="" fill="#204A6A" transform="translate(0,0)"/>
<path d="" fill="#00738C" transform="translate(0,0)"/>
<path d="" fill="#154A6A" transform="translate(0,0)"/>
<path d="" fill="#395373" transform="translate(0,0)"/>
<path d="M0 0 C2 1 2 1 2 1 Z " fill="#10AFAF" transform="translate(170,47)"/>
<path d="" fill="#006A6A" transform="translate(0,0)"/>
<path d="" fill="#008080" transform="translate(0,0)"/>
<path d="" fill="#00445D" transform="translate(0,0)"/>
<path d="" fill="#000000" transform="translate(0,0)"/>
<path d="" fill="#0073CC" transform="translate(0,0)"/>
<path d="" fill="#3C4F61" transform="translate(0,0)"/>
<path d="" fill="#4AB4D4" transform="translate(0,0)"/>
<path d="" fill="#00D4D4" transform="translate(0,0)"/>
<path d="" fill="#006A95" transform="translate(0,0)"/>
<path d="" fill="#20DFFF" transform="translate(0,0)"/>
<path d="" fill="#191933" transform="translate(0,0)"/>
<path d="" fill="#008080" transform="translate(0,0)"/>
<path d="" fill="#40BFDF" transform="translate(0,0)"/>
<path d="" fill="#00809F" transform="translate(0,0)"/>
<path d="M0 0 C2 1 2 1 2 1 Z " fill="#002A2A" transform="translate(189,31)"/>
<path d="" fill="#006AAA" transform="translate(0,0)"/>
<path d="" fill="#006A6A" transform="translate(0,0)"/>
<path d="" fill="#39ACE5" transform="translate(0,0)"/>
<path d="" fill="#004040" transform="translate(0,0)"/>
<path d="" fill="#00BFD4" transform="translate(0,0)"/>
<path d="" fill="#44A1E5" transform="translate(0,0)"/>
<path d="" fill="#154A60" transform="translate(0,0)"/>
<path d="" fill="#004040" transform="translate(0,0)"/>
<path d="" fill="#00738C" transform="translate(0,0)"/>
<path d="" fill="#20DFFF" transform="translate(0,0)"/>
<path d="" fill="#008080" transform="translate(0,0)"/>
<path d="" fill="#204080" transform="translate(0,0)"/>
<path d="" fill="#20DFFF" transform="translate(0,0)"/>
<path d="" fill="#00B2CC" transform="translate(0,0)"/>
<path d="" fill="#20DFDF" transform="translate(0,0)"/>
<path d="" fill="#154A60" transform="translate(0,0)"/>
<path d="" fill="#004060" transform="translate(0,0)"/>
<path d="" fill="#206080" transform="translate(0,0)"/>
<path d="M0 0 C2 1 2 1 2 1 Z " fill="#006080" transform="translate(163,21)"/>
<path d="M0 0 C2 1 2 1 2 1 Z " fill="#006A6A" transform="translate(184,20)"/>
<path d="M0 0 C2 1 2 1 2 1 Z " fill="#006A6A" transform="translate(165,20)"/>
<path d="" fill="#0095B4" transform="translate(0,0)"/>
<path d="" fill="#598CA6" transform="translate(0,0)"/>
<path d="" fill="#006A95" transform="translate(0,0)"/>
<path d="" fill="#609F9F" transform="translate(0,0)"/>
<path d="" fill="#6AD4FF" transform="translate(0,0)"/>
<path d="" fill="#00BFDF" transform="translate(0,0)"/>
<path d="" fill="#40BFFF" transform="translate(0,0)"/>
<path d="M0 0 C2 1 2 1 2 1 Z " fill="#006A95" transform="translate(35,3)"/>
<path d="" fill="#000000" transform="translate(0,0)"/>
<path d="" fill="#008080" transform="translate(0,0)"/>
<path d="" fill="#000000" transform="translate(0,0)"/>
<path d="" fill="#008080" transform="translate(0,0)"/>
<path d="" fill="#000000" transform="translate(0,0)"/>
<path d="" fill="#000000" transform="translate(0,0)"/>
<path d="" fill="#005555" transform="translate(0,0)"/>
<path d="" fill="#000000" transform="translate(0,0)"/>
<path d="" fill="#005555" transform="translate(0,0)"/>
<path d="" fill="#008080" transform="translate(0,0)"/>
<path d="" fill="#000000" transform="translate(0,0)"/>
<path d="" fill="#000000" transform="translate(0,0)"/>
<path d="" fill="#005555" transform="translate(0,0)"/>
<path d="" fill="#000000" transform="translate(0,0)"/>
<path d="" fill="#008080" transform="translate(0,0)"/>
<path d="" fill="#000000" transform="translate(0,0)"/>
<path d="" fill="#008080" transform="translate(0,0)"/>
<path d="" fill="#000000" transform="translate(0,0)"/>
<path d="" fill="#000000" transform="translate(0,0)"/>
<path d="" fill="#000080" transform="translate(0,0)"/>
<path d="" fill="#000000" transform="translate(0,0)"/>
<path d="" fill="#008080" transform="translate(0,0)"/>
<path d="" fill="#004080" transform="translate(0,0)"/>
<path d="" fill="#55AAD5" transform="translate(0,0)"/>
<path d="" fill="#00FFFF" transform="translate(0,0)"/>
<path d="" fill="#55AAFF" transform="translate(0,0)"/>
<path d="" fill="#00AAAA" transform="translate(0,0)"/>
<path d="" fill="#40BFFF" transform="translate(0,0)"/>
<path d="" fill="#008080" transform="translate(0,0)"/>
<path d="" fill="#6699CC" transform="translate(0,0)"/>
<path d="" fill="#0080BF" transform="translate(0,0)"/>
<path d="" fill="#000000" transform="translate(0,0)"/>
<path d="" fill="#000000" transform="translate(0,0)"/>
<path d="" fill="#000000" transform="translate(0,0)"/>
<path d="" fill="#000000" transform="translate(0,0)"/>
<path d="" fill="#3399CC" transform="translate(0,0)"/>
<path d="" fill="#0099CC" transform="translate(0,0)"/>
<path d="" fill="#0080BF" transform="translate(0,0)"/>
<path d="" fill="#404080" transform="translate(0,0)"/>
<path d="" fill="#333366" transform="translate(0,0)"/>
<path d="" fill="#004040" transform="translate(0,0)"/>
<path d="" fill="#000000" transform="translate(0,0)"/>
<path d="" fill="#000000" transform="translate(0,0)"/>
<path d="" fill="#000000" transform="translate(0,0)"/>
<path d="" fill="#004080" transform="translate(0,0)"/>
<path d="" fill="#008080" transform="translate(0,0)"/>
<path d="" fill="#000000" transform="translate(0,0)"/>
<path d="" fill="#000000" transform="translate(0,0)"/>
<path d="" fill="#000000" transform="translate(0,0)"/>
<path d="" fill="#006666" transform="translate(0,0)"/>
<path d="" fill="#404080" transform="translate(0,0)"/>
<path d="" fill="#3399CC" transform="translate(0,0)"/>
<path d="" fill="#55AAAA" transform="translate(0,0)"/>
<path d="" fill="#008080" transform="translate(0,0)"/>
<path d="" fill="#008080" transform="translate(0,0)"/>
<path d="" fill="#000000" transform="translate(0,0)"/>
<path d="" fill="#3399CC" transform="translate(0,0)"/>
<path d="" fill="#000000" transform="translate(0,0)"/>
<path d="" fill="#55AAD5" transform="translate(0,0)"/>
<path d="" fill="#006D92" transform="translate(0,0)"/>
<path d="" fill="#0080BF" transform="translate(0,0)"/>
<path d="" fill="#40BFFF" transform="translate(0,0)"/>
<path d="" fill="#40BFFF" transform="translate(0,0)"/>
<path d="" fill="#49B6DB" transform="translate(0,0)"/>
<path d="" fill="#40BFFF" transform="translate(0,0)"/>
<path d="" fill="#008080" transform="translate(0,0)"/>
<path d="" fill="#40BFBF" transform="translate(0,0)"/>
<path d="" fill="#008080" transform="translate(0,0)"/>
<path d="" fill="#008080" transform="translate(0,0)"/>
<path d="" fill="#000000" transform="translate(0,0)"/>
<path d="" fill="#008080" transform="translate(0,0)"/>
<path d="" fill="#008080" transform="translate(0,0)"/>
<path d="" fill="#000000" transform="translate(0,0)"/>
<path d="" fill="#004080" transform="translate(0,0)"/>
<path d="" fill="#000000" transform="translate(0,0)"/>
<path d="" fill="#0000FF" transform="translate(0,0)"/>
<path d="" fill="#000000" transform="translate(0,0)"/>
<path d="" fill="#55AAD5" transform="translate(0,0)"/>
<path d="" fill="#008080" transform="translate(0,0)"/>
<path d="" fill="#008080" transform="translate(0,0)"/>
<path d="" fill="#008080" transform="translate(0,0)"/>
<path d="" fill="#005555" transform="translate(0,0)"/>
<path d="" fill="#004080" transform="translate(0,0)"/>
<path d="" fill="#004080" transform="translate(0,0)"/>
<path d="" fill="#003366" transform="translate(0,0)"/>
<path d="" fill="#333366" transform="translate(0,0)"/>
<path d="" fill="#336666" transform="translate(0,0)"/>
<path d="" fill="#004040" transform="translate(0,0)"/>
<path d="" fill="#005555" transform="translate(0,0)"/>
<path d="" fill="#1C5571" transform="translate(0,0)"/>
<path d="" fill="#000000" transform="translate(0,0)"/>
<path d="" fill="#000000" transform="translate(0,0)"/>
<path d="" fill="#000000" transform="translate(0,0)"/>
<path d="" fill="#008080" transform="translate(0,0)"/>
<path d="" fill="#000000" transform="translate(0,0)"/>
<path d="" fill="#006699" transform="translate(0,0)"/>
<path d="" fill="#6699CC" transform="translate(0,0)"/>
<path d="" fill="#000000" transform="translate(0,0)"/>
<path d="" fill="#006699" transform="translate(0,0)"/>
<path d="" fill="#008080" transform="translate(0,0)"/>
<path d="" fill="#40BFFF" transform="translate(0,0)"/>
<path d="" fill="#008080" transform="translate(0,0)"/>
<path d="" fill="#336666" transform="translate(0,0)"/>
<path d="" fill="#005555" transform="translate(0,0)"/>
<path d="" fill="#336666" transform="translate(0,0)"/>
<path d="" fill="#005555" transform="translate(0,0)"/>
<path d="" fill="#0080BF" transform="translate(0,0)"/>
<path d="" fill="#336666" transform="translate(0,0)"/>
<path d="" fill="#404080" transform="translate(0,0)"/>
<path d="" fill="#55AAD5" transform="translate(0,0)"/>
<path d="" fill="#00FFFF" transform="translate(0,0)"/>
<path d="" fill="#0080AA" transform="translate(0,0)"/>
<path d="" fill="#005555" transform="translate(0,0)"/>
<path d="" fill="#336666" transform="translate(0,0)"/>
<path d="" fill="#404040" transform="translate(0,0)"/>
<path d="" fill="#3399CC" transform="translate(0,0)"/>
<path d="" fill="#66CCFF" transform="translate(0,0)"/>
<path d="" fill="#0080AA" transform="translate(0,0)"/>
<path d="" fill="#008080" transform="translate(0,0)"/>
<path d="" fill="#404080" transform="translate(0,0)"/>
<path d="" fill="#0000FF" transform="translate(0,0)"/>
<path d="" fill="#006699" transform="translate(0,0)"/>
<path d="" fill="#0000FF" transform="translate(0,0)"/>
<path d="" fill="#000000" transform="translate(0,0)"/>
<path d="" fill="#000000" transform="translate(0,0)"/>
<path d="" fill="#000000" transform="translate(0,0)"/>
<path d="" fill="#0000FF" transform="translate(0,0)"/>
<path d="" fill="#0000FF" transform="translate(0,0)"/>
<path d="" fill="#0000FF" transform="translate(0,0)"/>
<path d="" fill="#000000" transform="translate(0,0)"/>
<path d="" fill="#0080BF" transform="translate(0,0)"/>
<path d="" fill="#008080" transform="translate(0,0)"/>
<path d="" fill="#008080" transform="translate(0,0)"/>
<path d="" fill="#0055AA" transform="translate(0,0)"/>
<path d="" fill="#40BFFF" transform="translate(0,0)"/>
<path d="" fill="#55AAFF" transform="translate(0,0)"/>
<path d="" fill="#0080BF" transform="translate(0,0)"/>
<path d="" fill="#0080AA" transform="translate(0,0)"/>
<path d="" fill="#0080AA" transform="translate(0,0)"/>
<path d="" fill="#55D5FF" transform="translate(0,0)"/>
<path d="" fill="#0080AA" transform="translate(0,0)"/>
<path d="" fill="#55AAD5" transform="translate(0,0)"/>
<path d="" fill="#40BFFF" transform="translate(0,0)"/>
<path d="" fill="#55AAD5" transform="translate(0,0)"/>
<path d="" fill="#008080" transform="translate(0,0)"/>
<path d="" fill="#66CCFF" transform="translate(0,0)"/>
<path d="" fill="#009999" transform="translate(0,0)"/>
<path d="" fill="#3399CC" transform="translate(0,0)"/>
<path d="" fill="#6699CC" transform="translate(0,0)"/>
<path d="" fill="#0080AA" transform="translate(0,0)"/>
<path d="" fill="#0080AA" transform="translate(0,0)"/>
<path d="" fill="#006699" transform="translate(0,0)"/>
<path d="" fill="#40BFFF" transform="translate(0,0)"/>
<path d="" fill="#80FFFF" transform="translate(0,0)"/>
<path d="" fill="#0000FF" transform="translate(0,0)"/>
<path d="" fill="#008080" transform="translate(0,0)"/>
<path d="" fill="#80FFFF" transform="translate(0,0)"/>
<path d="" fill="#00FFFF" transform="translate(0,0)"/>
<path d="" fill="#008080" transform="translate(0,0)"/>
<path d="" fill="#008080" transform="translate(0,0)"/>
</svg>
