<?xml version="1.0" encoding="UTF-8"?>
<svg version="1.1" xmlns="http://www.w3.org/2000/svg" width="225" height="225">
<path d="M0 0 C0.92476135 -0.00960754 1.84952271 -0.01921509 2.80230713 -0.02911377 C3.8095282 -0.03336365 4.81674927 -0.03761353 5.85449219 -0.04199219 C6.88443298 -0.04769226 7.91437378 -0.05339233 8.9755249 -0.05926514 C11.16124438 -0.06873321 13.34697824 -0.07525626 15.53271484 -0.07910156 C18.87330211 -0.08878583 22.21326881 -0.11978375 25.55371094 -0.15136719 C27.67480102 -0.15789904 29.79589553 -0.1631488 31.91699219 -0.16699219 C32.91611633 -0.17933899 33.91524048 -0.19168579 34.94464111 -0.20440674 C35.88201111 -0.20140564 36.8193811 -0.19840454 37.78515625 -0.1953125 C38.60598694 -0.19895813 39.42681763 -0.20260376 40.27252197 -0.20635986 C45.20107618 0.55502115 48.46670316 3.72546892 51.89086914 7.1418457 C52.69132156 7.9359938 53.49177399 8.73014191 54.31648254 9.5483551 C55.16562729 10.40154831 56.01477203 11.25474152 56.88964844 12.13378906 C57.7704155 13.01264267 58.65118256 13.89149628 59.55863953 14.79698181 C61.88861436 17.12525069 64.2136551 19.45831922 66.53717041 21.79302979 C68.44131821 23.70239108 70.35284137 25.60428285 72.26437092 27.50624943 C74.54014954 29.77308472 76.80831798 32.04750269 79.07714844 34.32128906 C79.93641434 35.1765065 80.79568024 36.03172394 81.6809845 36.91285706 C82.85802193 38.09935097 82.85802193 38.09935097 84.05883789 39.30981445 C84.75435257 40.00692032 85.44986725 40.70402618 86.16645813 41.42225647 C87.65136719 43.16113281 87.65136719 43.16113281 87.65136719 45.16113281 C88.27011719 45.42925781 88.88886719 45.69738281 89.52636719 45.97363281 C91.65136719 47.16113281 91.65136719 47.16113281 93.65136719 50.16113281 C94.18093018 49.62109619 94.71049316 49.08105957 95.25610352 48.5246582 C97.65346335 46.08577882 100.05853624 43.65464998 102.46386719 41.22363281 C103.29724609 40.37349609 104.130625 39.52335937 104.98925781 38.64746094 C105.79169922 37.83857422 106.59414062 37.0296875 107.42089844 36.19628906 C108.52848511 35.07299194 108.52848511 35.07299194 109.65844727 33.92700195 C112.68208823 31.24784048 115.24145445 31.0367353 119.12280273 31.04760742 C120.4738636 31.04772072 120.4738636 31.04772072 121.85221863 31.0478363 C122.82105484 31.05299759 123.78989105 31.05815887 124.78808594 31.06347656 C126.27995171 31.06559898 126.27995171 31.06559898 127.80195618 31.06776428 C130.98095701 31.07336521 134.15988761 31.08591785 137.33886719 31.09863281 C139.49316305 31.10364769 141.64746001 31.10821062 143.80175781 31.11230469 C149.08498493 31.12333493 154.36817104 31.14007395 159.65136719 31.16113281 C160.92740326 34.98924102 160.51420706 38.39588389 160.21386719 42.34863281 C160.16166016 43.09822266 160.10945312 43.8478125 160.05566406 44.62011719 C159.92622934 46.46750363 159.78950201 48.31437653 159.65136719 50.16113281 C158.33313965 49.79810059 158.33313965 49.79810059 156.98828125 49.42773438 C145.14277833 46.71232008 132.87074822 45.73672919 121.65136719 51.16113281 C102.35865636 63.67705196 86.64121944 83.91656489 71.61029053 101.07348633 C69.65136719 103.16113281 69.65136719 103.16113281 67.65136719 104.16113281 C69.96136719 106.47113281 72.27136719 108.78113281 74.65136719 111.16113281 C78.70421269 107.82254045 82.48241699 104.38014492 86.13183594 100.60253906 C86.90333984 99.80525391 87.67484375 99.00796875 88.46972656 98.18652344 C90.06846393 96.52452193 91.6594603 94.85504401 93.24316406 93.17871094 C94.01080078 92.39044922 94.7784375 91.6021875 95.56933594 90.79003906 C96.25793701 90.06888916 96.94653809 89.34773926 97.65600586 88.60473633 C99.65136719 87.16113281 99.65136719 87.16113281 101.74316406 87.30029297 C104.7059335 88.63687498 106.66364015 90.70003648 108.96386719 92.97363281 C109.8675 93.84632813 110.77113281 94.71902344 111.70214844 95.61816406 C113.65136719 98.16113281 113.65136719 98.16113281 113.45594788 100.10908508 C112.53589782 102.45563235 111.48303227 103.73432475 109.72729492 105.53686523 C109.11252792 106.17399948 108.49776093 106.81113373 107.86436462 107.46757507 C106.8598098 108.48184319 106.8598098 108.48184319 105.83496094 109.51660156 C105.14507584 110.21884354 104.45519073 110.92108551 103.74440002 111.64460754 C102.28151777 113.12705606 100.8144357 114.60537018 99.34350586 116.07983398 C97.10388592 118.33351976 94.89229137 120.61243669 92.68066406 122.89355469 C91.25457907 124.33204068 89.82689476 125.76894327 88.39746094 127.20410156 C87.74192734 127.886353 87.08639374 128.56860443 86.41099548 129.27153015 C83.30306964 132.33478006 80.85879909 134.51335501 76.47973633 135.28344727 C71.34502427 135.11939582 68.97027184 133.42802355 65.30667114 129.90890503 C64.49890228 129.03033844 63.69113342 128.15177185 62.85888672 127.24658203 C61.92348676 126.23856854 60.98768724 125.23092572 60.05154419 124.22360229 C59.5612888 123.69266842 59.0710334 123.16173454 58.56592178 122.61471176 C55.37295285 119.17754099 52.11707432 115.79956961 48.8748188 112.40897942 C46.04538403 109.44300767 43.23868385 106.46070423 40.47412109 103.43408203 C26.67897031 87.32965237 26.67897031 87.32965237 7.64059448 80.10964966 C3.2057406 80.10509789 -0.96712424 80.4625259 -5.34863281 81.16113281 C-5.34863281 74.89113281 -5.34863281 68.62113281 -5.34863281 62.16113281 C4.1406531 58.99803751 16.29955485 58.13525425 25.65136719 62.16113281 C37.03994356 69.37890019 46.07094447 80.92299963 54.65136719 91.16113281 C55.28969482 90.41452393 55.28969482 90.41452393 55.94091797 89.65283203 C59.96081919 84.99803552 64.12806172 80.58262565 68.52636719 76.28613281 C72.56914225 72.59322644 72.56914225 72.59322644 75.65136719 68.16113281 C76.31136719 68.16113281 76.97136719 68.16113281 77.65136719 68.16113281 C78.14636719 66.67613281 78.14636719 66.67613281 78.65136719 65.16113281 C79.31136719 65.16113281 79.97136719 65.16113281 80.65136719 65.16113281 C80.65136719 64.50113281 80.65136719 63.84113281 80.65136719 63.16113281 C80.08933594 62.92394531 79.52730469 62.68675781 78.94824219 62.44238281 C76.13242677 60.87165585 74.17181303 58.94641817 71.90136719 56.66113281 C71.10214844 55.86707031 70.30292969 55.07300781 69.47949219 54.25488281 C67.65136719 52.16113281 67.65136719 52.16113281 67.65136719 50.16113281 C66.99136719 50.16113281 66.33136719 50.16113281 65.65136719 50.16113281 C65.65136719 49.50113281 65.65136719 48.84113281 65.65136719 48.16113281 C64.99136719 48.16113281 64.33136719 48.16113281 63.65136719 48.16113281 C62.20166016 46.78027344 62.20166016 46.78027344 60.51855469 44.81738281 C59.89045898 44.08648437 59.26236328 43.35558594 58.61523438 42.60253906 C56.6345576 40.14023576 54.8447761 37.59392958 53.03417969 35.00488281 C47.25270168 27.42673142 41.54104224 20.62793833 31.72705078 19.26513672 C20.91145519 18.32513523 10.00654605 19.04750485 -0.78881836 19.95727539 C-1.96355713 20.02454834 -3.1382959 20.09182129 -4.34863281 20.16113281 C-5.87072872 18.63903691 -5.47822802 17.27903199 -5.48144531 15.16113281 C-5.48273437 14.35675781 -5.48402344 13.55238281 -5.48535156 12.72363281 C-5.48148438 11.87800781 -5.47761719 11.03238281 -5.47363281 10.16113281 C-5.4775 9.31550781 -5.48136719 8.46988281 -5.48535156 7.59863281 C-5.4840625 6.79425781 -5.48277344 5.98988281 -5.48144531 5.16113281 C-5.48031738 4.41863281 -5.47918945 3.67613281 -5.47802734 2.91113281 C-5.21686109 -0.62101762 -3.02521358 0.0252629 0 0 Z " fill="#FFFFFF" transform="translate(46.3486328125,38.8388671875)"/>
<path d="M0 0 C3.95766396 3.18135295 7.32385885 6.26538778 10.453125 10.26953125 C16.42386354 17.59159646 21.35036081 23.13408946 31.11328125 24.328125 C37.75982963 24.70594807 44.36668823 24.53450694 51 24 C52.66413655 27.3282731 51.81867406 30.99733973 51.5625 34.625 C51.51029297 35.42679688 51.45808594 36.22859375 51.40429688 37.0546875 C51.27451629 39.03679103 51.13790265 41.01844499 51 43 C46.3918813 43.07436755 41.78411486 43.12870394 37.17553711 43.16479492 C35.60906893 43.17984622 34.04264264 43.20029207 32.47631836 43.22631836 C30.21978394 43.26286433 27.96380847 43.27976261 25.70703125 43.29296875 C25.01100296 43.30845261 24.31497467 43.32393646 23.59785461 43.33988953 C17.47112986 43.34199199 14.34075936 41.3507284 10.0456543 37.27270508 C8.96669645 36.19343389 7.8931237 35.10875966 6.82421875 34.01953125 C6.25419632 33.44667892 5.68417389 32.8738266 5.09687805 32.28361511 C3.28897622 30.46457646 1.48817881 28.63868622 -0.3125 26.8125 C-1.54185412 25.5731077 -2.77166708 24.33417035 -4.00195312 23.09570312 C-7.00663931 20.06904285 -10.00497624 17.03622079 -13 14 C-10.93141138 10.45049415 -8.87821064 7.63024744 -5.9375 4.75 C-5.24527344 4.06421875 -4.55304688 3.3784375 -3.83984375 2.671875 C-2 1 -2 1 0 0 Z " fill="#FFFFFF" transform="translate(155,104)"/>
<path d="M0 0 C2.98776385 1.00844167 4.09225148 2.25075064 6.05249023 4.69433594 C8.08971533 7.19247169 10.10469085 9.58100198 12.42749023 11.81933594 C11.07646374 14.82948888 9.56413336 16.9390106 7.23999023 19.27246094 C6.62381836 19.89121094 6.00764648 20.50996094 5.37280273 21.14746094 C4.73084961 21.78167969 4.08889648 22.41589844 3.42749023 23.06933594 C2.78553711 23.71902344 2.14358398 24.36871094 1.48217773 25.03808594 C0.86600586 25.65167969 0.24983398 26.26527344 -0.38500977 26.89746094 C-0.94833008 27.45852539 -1.51165039 28.01958984 -2.09204102 28.59765625 C-3.57250977 29.81933594 -3.57250977 29.81933594 -5.57250977 29.81933594 C-5.84063477 30.43808594 -6.10875977 31.05683594 -6.38500977 31.69433594 C-7.57250977 33.81933594 -7.57250977 33.81933594 -10.57250977 35.81933594 C-13.16850945 36.0715051 -15.66722774 36.21587386 -18.26782227 36.26855469 C-19.38989578 36.30116142 -19.38989578 36.30116142 -20.53463745 36.33442688 C-22.11305991 36.37828854 -23.69161746 36.41750093 -25.27026367 36.45239258 C-27.6956683 36.50679463 -30.12024103 36.57693657 -32.54516602 36.64941406 C-34.07769377 36.69005556 -35.61024563 36.72980019 -37.14282227 36.76855469 C-37.87195831 36.78931564 -38.60109436 36.8100766 -39.35232544 36.83146667 C-41.09203207 36.86683633 -42.83268844 36.84852399 -44.57250977 36.81933594 C-46.09460567 35.29724003 -45.70210497 33.93723512 -45.70532227 31.81933594 C-45.70661133 31.01496094 -45.70790039 30.21058594 -45.70922852 29.38183594 C-45.70536133 28.53621094 -45.70149414 27.69058594 -45.69750977 26.81933594 C-45.70137695 25.97371094 -45.70524414 25.12808594 -45.70922852 24.25683594 C-45.70793945 23.45246094 -45.70665039 22.64808594 -45.70532227 21.81933594 C-45.70419434 21.07683594 -45.70306641 20.33433594 -45.7019043 19.56933594 C-45.57250977 17.81933594 -45.57250977 17.81933594 -44.57250977 16.81933594 C-42.83010023 16.85702092 -41.08884573 16.95002942 -39.34985352 17.06542969 C-25.5062015 17.92732718 -25.5062015 17.92732718 -13.46313477 12.15917969 C-10.04008419 8.76049518 -7.00199113 5.08129053 -4.19628906 1.15869141 C-2.57250977 -0.18066406 -2.57250977 -0.18066406 0 0 Z " fill="#FFFFFF" transform="translate(86.572509765625,145.1806640625)"/>
</svg>
