<?xml version="1.0" encoding="UTF-8"?>
<svg version="1.1" xmlns="http://www.w3.org/2000/svg" width="1555" height="684">
<path d="M0 0 C40.59 0 81.18 0 123 0 C137.6726162 30.97552309 152.33919316 61.95343541 166.9229126 92.9708252 C172.26149532 104.32360192 177.62562395 115.66412879 183 127 C189.35996872 140.4147268 195.69716142 153.8399066 202.01367188 167.27514648 C208.01796605 180.0453506 214.04266289 192.80588036 220.07240295 205.56408691 C220.72651038 206.94885473 221.38011487 208.33386024 222.03318787 209.71911621 C223.77153538 213.40583276 225.51872807 217.08803967 227.27734375 220.76513672 C227.64915771 221.54610214 228.02097168 222.32706757 228.40405273 223.13169861 C229.12052738 224.63656072 229.83996988 226.14001434 230.56274414 227.64186096 C233 232.77437498 233 232.77437498 233 235 C233.66 235 234.32 235 235 235 C235.58007812 233.16501953 235.58007812 233.16501953 236.171875 231.29296875 C238.21962242 225.16754332 240.73172538 219.25673415 243.25 213.3125 C243.80583459 211.99413113 244.36149109 210.67568716 244.91699219 209.35717773 C253.13575005 189.87566206 261.45044149 170.43441993 269.74343872 150.98443604 C274.20838518 140.51233943 278.67025509 130.03894072 283.125 119.5625 C283.47306702 118.74397552 283.82113403 117.92545105 284.17974854 117.0821228 C288.52561243 106.85911036 292.84142351 96.62428804 297.125 86.375 C303.31110221 71.57703223 309.59148586 56.81932393 315.875 42.0625 C316.3737262 40.89056091 316.87245239 39.71862183 317.3862915 38.51116943 C318.83731353 35.10209568 320.28954298 31.69353892 321.7421875 28.28515625 C322.16788025 27.28497971 322.593573 26.28480316 323.03216553 25.25431824 C326.63379195 16.81115909 330.32023841 8.41088362 334 0 C374.59 0 415.18 0 457 0 C459 25 459 25 459 30 C455.17913998 30.98643746 451.35627601 31.96466805 447.53149414 32.93579102 C445.60130364 33.42761265 443.67270224 33.92565748 441.74414062 34.42382812 C440.50986328 34.73642578 439.27558594 35.04902344 438.00390625 35.37109375 C436.87799072 35.65911865 435.7520752 35.94714355 434.59204102 36.24389648 C430.40882085 37.12443974 426.25213708 37.60136803 422 38 C422.65229292 86.20841119 424.28149471 134.39188356 425.91772461 182.57506561 C425.9930172 184.79419336 426.06786848 187.01333547 426.14257812 189.23248291 C427.11025178 217.81933047 428.75401822 246.3429154 430.67944336 274.87915039 C430.76631912 276.17199448 430.85319489 277.46483856 430.94270325 278.79685974 C431.10686399 281.22876895 431.27292573 283.66055085 431.44120789 286.09217834 C431.51491104 287.18018234 431.5886142 288.26818634 431.66455078 289.38916016 C431.72957794 290.33248199 431.7946051 291.27580383 431.86160278 292.24771118 C432.00852544 295.16954439 432.02314741 298.07496957 432 301 C433.07894531 301.23074219 434.15789062 301.46148437 435.26953125 301.69921875 C446.60240063 304.15412088 457.8073478 306.9722759 469 310 C469.12276068 317.07919929 468.9557452 324.1202793 468.5625 331.1875 C468.52326416 331.94216553 468.48402832 332.69683105 468.44360352 333.47436523 C468.12102332 338.87897668 468.12102332 338.87897668 467 340 C464.96238813 340.09678239 462.92136288 340.12186965 460.88145447 340.12025452 C460.23539877 340.12110894 459.58934307 340.12196337 458.92370993 340.12284368 C456.74330183 340.12450024 454.56296945 340.11897429 452.38256836 340.11352539 C450.82579042 340.11324353 449.26901236 340.11340123 447.7122345 340.1139679 C443.47274796 340.11425592 439.23328946 340.10835846 434.99380946 340.10139394 C430.5681858 340.09516115 426.14256157 340.09455666 421.7169342 340.09336853 C413.33046022 340.09025499 404.9439992 340.0820413 396.55753094 340.07201904 C387.01234651 340.0608586 377.46716148 340.05534763 367.92197216 340.05032361 C348.28130752 340.03985871 328.64065458 340.02225883 309 340 C308.83380033 337.76818258 308.66954419 335.53622038 308.50610352 333.30419922 C308.41442398 332.0612912 308.32274445 330.81838318 308.22828674 329.53781128 C307.96067695 325.39060187 307.88361342 321.27841198 307.9375 317.125 C307.94201172 316.42503906 307.94652344 315.72507812 307.95117188 315.00390625 C307.96259659 313.33589722 307.98050466 311.66793423 308 310 C312.94712588 308.71519002 317.89505067 307.43352133 322.84375 306.15478516 C324.52789407 305.71912983 326.21181469 305.28260974 327.89550781 304.84521484 C330.31257135 304.21746159 332.73041565 303.59280029 335.1484375 302.96875 C336.28132706 302.67345398 336.28132706 302.67345398 337.43710327 302.37219238 C342.77225659 301 342.77225659 301 345 301 C345.12993881 262.37193141 344.9940781 223.75099153 344.5625 185.125 C344.54606823 183.654366 344.54606823 183.654366 344.5293045 182.15402222 C344.16457211 149.76658512 343.6850964 117.38237027 343 85 C333.36122553 107.44442303 323.77429407 129.91039798 314.22950745 152.39494324 C311.75980482 158.21233407 309.28702202 164.0284077 306.8125 169.84375 C299.01094337 188.18059492 291.23861451 206.52945653 283.49468994 224.89071655 C277.35796532 239.43919916 271.18872817 253.97356869 265 268.5 C258.09963719 284.69765804 251.22370301 300.90542739 244.375 317.125 C243.96282227 318.10073975 243.55064453 319.07647949 243.12597656 320.08178711 C241.96620642 322.82771348 240.80716202 325.57394476 239.6484375 328.3203125 C239.30670502 329.12949127 238.96497253 329.93867004 238.61288452 330.77236938 C238.13814194 331.89849136 238.13814194 331.89849136 237.65380859 333.04736328 C237.38104095 333.69391876 237.10827332 334.34047424 236.82723999 335.00662231 C235.86346738 337.32899894 234.93383088 339.6654228 234 342 C221.46 342 208.92 342 196 342 C191.13553669 332.27107337 186.28036695 322.54909847 181.5625 312.75 C181.0053833 311.59395264 180.4482666 310.43790527 179.87426758 309.24682617 C176.15775024 301.50055671 172.57994901 293.70379882 169.09521484 285.85107422 C166.62664766 280.31464107 163.98427409 274.89576166 161.22924805 269.49731445 C157.45854445 262.04531284 154.01718088 254.44019731 150.56323242 246.83740234 C147.8821135 240.96542876 145.10463603 235.15777826 142.19921875 229.39453125 C138.00475866 221.0734716 134.00110273 212.66705808 130.01983643 204.24230957 C127.93735665 199.83563456 125.84960473 195.43145929 123.76171875 191.02734375 C123.34978271 190.15820343 122.93784668 189.28906311 122.51342773 188.39358521 C119.08361781 181.16294071 115.61178954 173.95335194 112.125 166.75 C107.34472836 156.86566336 102.67952085 146.93208841 98.10205078 136.95214844 C92.23695071 124.21571025 86.08666283 111.64153049 80 99 C80.33 165.66 80.66 232.32 81 301 C87.6 302.32 94.2 303.64 101 305 C104.76746656 305.88372672 108.50884756 306.77484715 112.25 307.75 C113.11367188 307.97042969 113.97734375 308.19085938 114.8671875 308.41796875 C116.91264355 308.94069641 118.95652857 309.46956699 121 310 C121.02776073 312.37508463 121.0471904 314.7498251 121.0625 317.125 C121.07087891 317.77082031 121.07925781 318.41664063 121.08789062 319.08203125 C121.12147588 326.13493518 120.50804098 332.88742622 120 340 C77.76 340 35.52 340 -8 340 C-8.66 330.43 -9.32 320.86 -10 311 C-4.62080887 308.98280333 -0.011078 307.40352051 5.4921875 306.17578125 C6.5002092 305.94909004 6.5002092 305.94909004 7.52859497 305.71781921 C8.93122416 305.40351144 10.3344623 305.09190943 11.73828125 304.78295898 C13.89204907 304.30874617 16.04376375 303.82596859 18.1953125 303.34179688 C28.68313888 301 28.68313888 301 31 301 C32.74910035 213.66686034 34.17406823 126.34702559 35 39 C33.98747665 38.80206345 32.97495331 38.60412689 31.93174744 38.40019226 C30.5806987 38.13367829 29.22967139 37.86705569 27.87866211 37.6003418 C26.88166416 37.405891 26.88166416 37.405891 25.86452484 37.2075119 C19.9979002 36.04551368 14.28999673 34.51936989 8.5625 32.8125 C7.16161133 32.40354492 7.16161133 32.40354492 5.73242188 31.98632812 C3.48655807 31.32984486 1.24251963 30.66779843 -1 30 C-1.02762059 27.43742289 -1.04712844 24.8751588 -1.0625 22.3125 C-1.07087891 21.61060547 -1.07925781 20.90871094 -1.08789062 20.18554688 C-1.11821939 13.3615739 -0.52953015 6.88389198 0 0 Z " fill="#FFFFFF" transform="translate(436,120)"/>
<path d="M0 0 C16.0809468 36.0675151 31.36878954 72.49044162 46.83300781 108.82495117 C52.03942236 121.0568395 57.25599371 133.28418165 62.5 145.5 C68.69228354 159.92660091 74.84936455 174.36809776 81 188.8125 C81.48622833 189.95427704 81.97245667 191.09605408 82.47341919 192.27243042 C87.49419685 204.06274244 92.51299547 215.85389403 97.52806091 227.64663696 C99.51043594 232.30776138 101.49350182 236.96859165 103.47677612 241.6293335 C104.44604477 243.90742362 105.41506166 246.18562087 106.38381958 248.46392822 C111.2169615 259.82898099 116.06517037 271.18648257 121 282.5078125 C121.57567467 283.83017159 121.57567467 283.83017159 122.16297913 285.179245 C123.92848323 289.23298018 125.69971056 293.28401702 127.48217773 297.33032227 C128.09115591 298.72404559 128.69997231 300.11783961 129.30859375 301.51171875 C129.83251709 302.70240967 130.35644043 303.89310059 130.89624023 305.11987305 C132 308 132 308 132 311 C132.64582031 311.14695312 133.29164063 311.29390625 133.95703125 311.4453125 C143.79985385 313.78820051 153.37753568 316.88981017 163 320 C162.85908107 323.31272776 162.71134606 326.62511971 162.5625 329.9375 C162.52318359 330.86369141 162.48386719 331.78988281 162.44335938 332.74414062 C162.40146484 333.66259766 162.35957031 334.58105469 162.31640625 335.52734375 C162.27974854 336.35999756 162.24309082 337.19265137 162.20532227 338.05053711 C161.92730699 342.04423816 161.44209783 346.02111949 161 350 C109.52 350 58.04 350 5 350 C4.34 340.43 3.68 330.86 3 321 C8.12475367 319.07821737 12.67604459 317.45911869 17.90625 316.17578125 C19.14375 315.86962891 20.38125 315.56347656 21.65625 315.24804688 C22.9246875 314.93931641 24.193125 314.63058594 25.5 314.3125 C26.81260878 313.98937385 28.12510978 313.66580955 29.4375 313.34179688 C32.62396969 312.55689442 35.81145653 311.7764269 39 311 C34.48731405 298.54094328 29.41744716 286.36040437 24.1875 274.1875 C23.02441134 271.47314454 21.86233954 268.75835985 20.70149231 266.04304504 C19.98625291 264.37076755 19.26959223 262.69909702 18.55131531 261.02812195 C18.06994865 259.90468132 18.06994865 259.90468132 17.57885742 258.75854492 C17.29717209 258.10287033 17.01548676 257.44719574 16.7252655 256.77165222 C16.0844971 255.20640646 15.53484376 253.60453127 15 252 C-8.76669064 251.04969646 -32.49886735 250.8714019 -56.28222656 250.93133545 C-60.89647948 250.94180166 -65.51073849 250.94618146 -70.125 250.95117188 C-79.08334848 250.9617082 -88.04167122 250.97863697 -97 251 C-97.13112686 251.72248428 -97.26225372 252.44496857 -97.39735413 253.18934631 C-97.97493228 255.88308776 -98.73480418 258.37135846 -99.64233398 260.97045898 C-99.97615585 261.93173203 -100.30997772 262.89300507 -100.65391541 263.88340759 C-101.01433426 264.91059402 -101.37475311 265.93778046 -101.74609375 266.99609375 C-102.11726822 268.06239517 -102.48844269 269.12869659 -102.87086487 270.22731018 C-104.05665743 273.63179185 -105.24695683 277.03467705 -106.4375 280.4375 C-107.6234723 283.83709477 -108.80853316 287.23700613 -109.99342346 290.63697815 C-110.73048053 292.75082986 -111.46835096 294.86439819 -112.20713806 296.97764587 C-112.54411209 297.94207108 -112.88108612 298.90649628 -113.22827148 299.90014648 C-113.52281723 300.74222153 -113.81736298 301.58429657 -114.12083435 302.45188904 C-115.10148114 305.29412569 -116.04921205 308.14763614 -117 311 C-105.12 313.97 -93.24 316.94 -81 320 C-81.144375 323.83625 -81.28875 327.6725 -81.4375 331.625 C-81.50215454 333.42251709 -81.50215454 333.42251709 -81.56811523 335.25634766 C-81.60622314 336.21589355 -81.64433105 337.17543945 -81.68359375 338.1640625 C-81.72025146 339.13811035 -81.75690918 340.1121582 -81.79467773 341.11572266 C-82.00688622 344.09673467 -82.50868447 347.05210683 -83 350 C-119.96 350 -156.92 350 -195 350 C-196.07955212 346.76134365 -196.20441741 344.20844162 -196.31640625 340.80078125 C-196.35830078 339.59228516 -196.40019531 338.38378906 -196.44335938 337.13867188 C-196.48267578 335.87603516 -196.52199219 334.61339844 -196.5625 333.3125 C-196.60568359 332.03826172 -196.64886719 330.76402344 -196.69335938 329.45117188 C-196.7995486 326.30089148 -196.90159533 323.15053161 -197 320 C-196.1529248 319.79544189 -195.30584961 319.59088379 -194.43310547 319.38012695 C-191.25466332 318.58519 -188.0964437 317.74370249 -184.93945312 316.86889648 C-183.57888118 316.50220497 -182.2131613 316.15403718 -180.84277344 315.82592773 C-172.49377234 313.85392371 -172.49377234 313.85392371 -166.04345703 308.51855469 C-164.74278921 305.7542438 -163.68023731 302.994929 -162.72503662 300.0944519 C-161.61894338 296.89922144 -160.27305477 293.81308911 -158.95046997 290.70252991 C-157.79158442 287.9713584 -156.6580724 285.23087395 -155.53125 282.48632812 C-155.139375 281.53185791 -154.7475 280.5773877 -154.34375 279.59399414 C-153.9415625 278.61422607 -153.539375 277.63445801 -153.125 276.625 C-152.27886842 274.56956981 -151.43251062 272.51423274 -150.5859375 270.45898438 C-148.05328267 264.30763371 -145.52583361 258.15415423 -143 252 C-142.63805542 251.11824097 -142.27611084 250.23648193 -141.90319824 249.32800293 C-138.95169259 242.13701783 -136.00205389 234.94526813 -133.05444336 227.75268555 C-125.54830885 209.44055182 -117.98419137 191.15238485 -110.42333984 172.86279297 C-108.02729619 167.06650362 -105.63256683 161.269672 -103.23828125 155.47265625 C-102.65137512 154.05164612 -102.65137512 154.05164612 -102.0526123 152.60192871 C-100.86838549 149.73462852 -99.68418705 146.86731661 -98.5 144 C-94.12147748 133.3981188 -89.74291775 122.79625415 -85.36071777 112.19589233 C-83.74431373 108.2857699 -82.12827473 104.37549664 -80.51226807 100.46520996 C-79.71649755 98.53992867 -78.92056015 96.61471635 -78.12445068 94.6895752 C-73.86939258 84.39967477 -69.62833425 74.1044373 -65.42578125 63.79296875 C-64.69297801 61.99730403 -63.96014972 60.20164954 -63.22729492 58.40600586 C-61.86757313 55.07395747 -60.51294386 51.73990413 -59.16137695 48.40454102 C-57.71859525 44.85031967 -56.23857388 41.31358781 -54.73788452 37.78347778 C-54.08134555 36.19661341 -53.48141991 34.58659269 -52.88989258 32.97436523 C-49.67530472 25.05262221 -43.83730908 22.29179117 -36.4375 18.5625 C-35.22843744 17.92782552 -34.02084616 17.29034083 -32.81469727 16.65014648 C-30.38557018 15.36448877 -27.94981052 14.0930578 -25.5078125 12.83203125 C-20.4264198 10.17816357 -15.43591606 7.36848937 -10.4375 4.5625 C-8.83470393 3.66318869 -7.22948862 2.7681655 -5.62109375 1.87890625 C-4.9655249 1.5135376 -4.30995605 1.14816895 -3.63452148 0.77172852 C-2 0 -2 0 0 0 Z M-45 106 C-49.35782155 117.78180877 -53.71298134 129.56459849 -58.0652771 141.34844971 C-60.32586394 147.46884274 -62.58726933 153.58893152 -64.85009766 159.70849609 C-67.02576055 165.59242717 -69.19979018 171.47695917 -71.37212276 177.36212063 C-72.55294314 180.56097632 -73.73450398 183.75955415 -74.91781616 186.95748901 C-76.249246 190.55687952 -77.57805135 194.15722863 -78.90625 197.7578125 C-79.30652908 198.83810226 -79.70680817 199.91839203 -80.11921692 201.03141785 C-80.66831978 202.52237724 -80.66831978 202.52237724 -81.22851562 204.04345703 C-81.54808228 204.90842804 -81.86764893 205.77339905 -82.19689941 206.6645813 C-82.91872507 208.76365228 -83.50212701 210.83829606 -84 213 C-74.82239673 213.84155272 -65.73303223 214.14764127 -56.51953125 214.1328125 C-55.17201215 214.13348885 -53.82449317 214.13446161 -52.47697449 214.13571167 C-49.67775286 214.13717156 -46.87856352 214.13508884 -44.0793457 214.13037109 C-40.51925257 214.12465813 -36.9592346 214.12797364 -33.39914417 214.13394356 C-30.62537585 214.13758153 -27.85162495 214.1363961 -25.07785606 214.13381577 C-23.13603541 214.13283965 -21.19421404 214.13583627 -19.25239563 214.13894653 C-12.43868202 214.12102693 -5.76250287 213.85541104 1 213 C-9.96639824 186.63483215 -21.01821713 160.30628685 -32.125 134 C-32.54449921 133.0063443 -32.96399841 132.0126886 -33.39620972 130.98892212 C-34.59980605 128.13833342 -35.80373078 125.2878837 -37.0078125 122.4375 C-37.36667038 121.58770065 -37.72552826 120.73790131 -38.09526062 119.86235046 C-40.05029819 115.23581673 -42.01709033 110.61465898 -44 106 C-44.33 106 -44.66 106 -45 106 Z " fill="#FFFFFF" transform="translate(1118,110)"/>
<path d="M0 0 C1.25904679 0.05919491 2.51809359 0.11838982 3.81529331 0.17937851 C34.42151394 1.59783558 64.95589495 2.30685038 95.59336734 2.26865101 C101.15730356 2.26341451 106.72123487 2.2683294 112.28517151 2.27142334 C121.61175756 2.27501397 130.93831146 2.2703961 140.26489258 2.26074219 C150.88724361 2.2498706 161.5095177 2.25339415 172.13186687 2.264395 C181.423623 2.27361474 190.71535665 2.2746831 200.0071159 2.26951766 C205.48145075 2.26647636 210.95575009 2.26576088 216.43008232 2.27259064 C247.66345874 2.30640209 278.79978387 1.43320698 310 0 C312.16658339 9.47624865 312.16658339 9.47624865 312.70280457 13.64416504 C312.8079689 14.44602234 312.91313324 15.24787964 313.02148438 16.07403564 C313.12807373 16.91907654 313.23466309 17.76411743 313.34448242 18.63476562 C313.52289421 20.00958099 313.52289421 20.00958099 313.70491028 21.41217041 C314.09268161 24.40966702 314.47435178 27.40790061 314.85546875 30.40625 C315.12384382 32.49852078 315.39242713 34.59076485 315.66120911 36.6829834 C316.22119749 41.0500214 316.77804023 45.41744646 317.33276367 49.78515625 C318.04576166 55.39629599 318.76763699 61.00625352 319.49193859 66.61594391 C320.04741287 70.92695103 320.59775863 75.23860091 321.14657021 79.55046082 C321.41081748 81.62084259 321.67679719 83.69100398 321.94450951 85.76094055 C322.31620324 88.64011318 322.68089116 91.52008702 323.04370117 94.40039062 C323.15636322 95.26162537 323.26902527 96.12286011 323.38510132 97.01019287 C323.63227035 99.00201105 323.82265386 101.00075501 324 103 C322.27758856 104.72241144 319.92202924 104.35381141 317.56640625 104.53515625 C316.44169922 104.62216797 315.31699219 104.70917969 314.15820312 104.79882812 C312.97162109 104.88583984 311.78503906 104.97285156 310.5625 105.0625 C308.83483398 105.19881836 308.83483398 105.19881836 307.07226562 105.33789062 C300.36674496 105.84375237 293.72423599 106.12955214 287 106 C282.22308477 95.40280212 278.61068741 84.40040893 274.89672852 73.39868164 C273.80873245 70.17634156 272.71444657 66.95618998 271.61914062 63.73632812 C270.91890495 61.67199907 270.21902267 59.60755011 269.51953125 57.54296875 C269.19555862 56.58867477 268.871586 55.6343808 268.53779602 54.65116882 C266.90061441 49.79569613 265.35669667 44.94143324 264 40 C255.8707739 39.09673843 247.85051323 38.86622523 239.67578125 38.90234375 C238.44836716 38.9037587 237.22095306 38.90517365 235.9563446 38.90663147 C232.07503721 38.91218364 228.19378966 38.92472705 224.3125 38.9375 C221.66471438 38.94252119 219.01692785 38.94708301 216.36914062 38.95117188 C209.91274034 38.96213736 203.45637445 38.97882715 197 39 C196.97647489 67.49787152 196.9589257 95.99574155 196.94818783 124.49362087 C196.94306604 137.73037003 196.93610344 150.96711197 196.92456055 164.20385742 C196.91448619 175.76223492 196.90811678 187.32060799 196.90591151 198.87898976 C196.90462567 204.97972573 196.90167895 211.08044909 196.89426994 217.18118095 C196.86043163 246.13702859 197.10624755 275.05690292 198 304 C198.82456507 304.11955299 199.64913013 304.23910599 200.49868202 304.3622818 C201.58230207 304.51943413 202.66592213 304.67658646 203.78237915 304.83850098 C204.85573328 304.99414772 205.92908741 305.14979446 207.03496742 305.31015778 C220.73407959 307.30037516 234.37726481 309.54146488 248 312 C247.8611342 316.41691473 247.71270728 320.83345756 247.5625 325.25 C247.50352539 327.13138672 247.50352539 327.13138672 247.44335938 329.05078125 C247.40146484 330.25605469 247.35957031 331.46132813 247.31640625 332.703125 C247.27974854 333.81333008 247.24309082 334.92353516 247.20532227 336.06738281 C247 339 247 339 246 343 C186.6 343 127.2 343 66 343 C64.44510457 339.89020913 64.61925942 336.54565262 64.4375 333.125 C64.37272461 332.073125 64.37272461 332.073125 64.30664062 331 C64.05614631 326.56267218 63.97957614 322.14327201 63.98852539 317.69873047 C63.99018204 316.62847626 63.99183868 315.55822205 63.99354553 314.45553589 C63.99567551 313.64520905 63.99780548 312.8348822 64 312 C70.79893811 310.85841251 77.59829353 309.71933677 84.39794922 308.58203125 C86.71250002 308.19459345 89.02695358 307.80657435 91.34130859 307.41796875 C94.66218259 306.86046014 97.98339723 306.3050226 101.3046875 305.75 C102.34430634 305.57500977 103.38392517 305.40001953 104.45504761 305.21972656 C105.89631516 304.97947754 105.89631516 304.97947754 107.36669922 304.734375 C108.21497284 304.59225586 109.06324646 304.45013672 109.93722534 304.30371094 C112 304 112 304 114 304 C114.77468751 270.86781741 115.14416568 237.75692412 115.10139394 204.61608338 C115.0949675 198.75469231 115.09454188 192.89330018 115.09336853 187.03190613 C115.09031022 176.02631697 115.08217442 165.02073824 115.07201904 154.01515359 C115.06068269 141.44589224 115.0553042 128.87663028 115.05032361 116.30736506 C115.03998439 90.53823769 115.02249652 64.76911944 115 39 C107.77537887 38.97666302 100.55076608 38.95897741 93.32611465 38.94818783 C89.9701579 38.94300516 86.61424673 38.93543915 83.25830078 38.92456055 C79.38573539 38.91232836 75.5132063 38.90673369 71.640625 38.90234375 C70.455755 38.89718246 69.27088501 38.89202118 68.05010986 38.88670349 C60.6497832 38.8862133 53.36352743 39.2609973 46 40 C45.80810026 40.72274424 45.61620052 41.44548847 45.41848564 42.19013405 C43.56862645 49.12843721 41.48033876 55.9674512 39.27734375 62.80078125 C38.93119522 63.88078903 38.58504669 64.96079681 38.22840881 66.0735321 C37.13366484 69.4872404 36.03559857 72.89986951 34.9375 76.3125 C34.19705473 78.62037506 33.45681851 80.9283172 32.71679688 83.23632812 C26.95654962 101.18824088 26.95654962 101.18824088 25 107 C16.45267997 107.20875408 8.22108621 106.61014235 -0.25 105.5 C-1.38824219 105.35691406 -2.52648437 105.21382813 -3.69921875 105.06640625 C-6.46706085 104.71751859 -9.23367717 104.36067284 -12 104 C-11.42694295 91.61503001 -10.23948518 79.37603991 -8.75 67.0703125 C-8.52927197 65.21853742 -8.30890135 63.36671971 -8.08886719 61.51486206 C-7.63142265 57.67407176 -7.17057831 53.83371079 -6.70703125 49.99365234 C-6.11290539 45.07054307 -5.52621232 40.1465819 -4.9418335 35.22230721 C-4.48960965 31.41656312 -4.03420806 27.61120483 -3.57775879 23.80596542 C-3.36003891 21.988757 -3.14315451 20.17144827 -2.92712402 18.35403824 C-2.62642897 15.82954865 -2.32162031 13.30559016 -2.015625 10.78173828 C-1.92728394 10.03376984 -1.83894287 9.28580139 -1.7479248 8.51516724 C-1.38277007 5.53409091 -0.95293931 2.85881792 0 0 Z " fill="#FFFFFF" transform="translate(76,117)"/>
<path d="M0 0 C11.23581908 7.71323796 19.3752851 17.75868409 22.453125 31.296875 C24.5169464 44.63724629 22.43035637 57.75682678 15.078125 69.234375 C9.76547147 76.32492645 4.03446134 81.35323532 -3.921875 85.234375 C-4.705625 85.646875 -5.489375 86.059375 -6.296875 86.484375 C-16.72421326 91.17667722 -30.69831295 90.91381269 -41.546875 87.671875 C-53.34665635 82.90881277 -63.38217509 74.17235259 -68.859375 62.609375 C-74.43498758 48.8049273 -74.75350141 35.11834005 -68.921875 21.234375 C-63.12086168 9.31471363 -53.93148781 0.80557521 -41.609375 -4.140625 C-28.11545121 -8.25272982 -12.10941521 -7.31745411 0 0 Z " fill="#FFFFFF" transform="translate(1418.921875,374.765625)"/>
<path d="M0 0 C3.49173348 2.50512574 4.76815002 5.02896266 5.58984375 9.140625 C5.66937181 10.87348148 5.69758518 12.60909886 5.6875 14.34375 C5.68427734 15.3234375 5.68105469 16.303125 5.67773438 17.3125 C5.66516602 18.83617187 5.66516602 18.83617187 5.65234375 20.390625 C5.64783203 21.421875 5.64332031 22.453125 5.63867188 23.515625 C5.62690463 26.05735073 5.61046386 28.59895819 5.58984375 31.140625 C8.55984375 31.635625 8.55984375 31.635625 11.58984375 32.140625 C11.58984375 33.130625 11.58984375 34.120625 11.58984375 35.140625 C14.55984375 34.645625 14.55984375 34.645625 17.58984375 34.140625 C17.58984375 25.560625 17.58984375 16.980625 17.58984375 8.140625 C15.27984375 7.810625 12.96984375 7.480625 10.58984375 7.140625 C10.58984375 5.160625 10.58984375 3.180625 10.58984375 1.140625 C12.96120946 0.4376629 15.3355211 -0.24684245 17.71484375 -0.921875 C18.38 -1.12103516 19.04515625 -1.32019531 19.73046875 -1.52539062 C24.04812313 -2.73179406 27.23760097 -2.9372669 31.58984375 -1.859375 C32.08484375 -0.374375 32.08484375 -0.374375 32.58984375 1.140625 C33.53859375 0.480625 34.48734375 -0.179375 35.46484375 -0.859375 C40.08110379 -3.48118598 44.40129012 -3.68268268 49.58984375 -2.859375 C54.35139912 -0.74312817 56.5217432 1.96296941 58.77392578 6.63085938 C60.41275107 11.67188987 59.99596505 16.89855202 59.83984375 22.140625 C59.82179688 23.29691406 59.80375 24.45320312 59.78515625 25.64453125 C59.73833984 28.47692384 59.66660776 31.30888581 59.58984375 34.140625 C63.54984375 34.140625 67.50984375 34.140625 71.58984375 34.140625 C71.61675725 30.36974427 71.63664089 26.59905468 71.65234375 22.828125 C71.66491211 21.2203418 71.66491211 21.2203418 71.67773438 19.58007812 C71.68256836 18.03803711 71.68256836 18.03803711 71.6875 16.46484375 C71.69535522 15.0430481 71.69535522 15.0430481 71.70336914 13.5925293 C71.69483229 11.00223819 71.69483229 11.00223819 70.58984375 8.140625 C68.93984375 7.810625 67.28984375 7.480625 65.58984375 7.140625 C65.58984375 5.160625 65.58984375 3.180625 65.58984375 1.140625 C67.96120946 0.4376629 70.3355211 -0.24684245 72.71484375 -0.921875 C73.38 -1.12103516 74.04515625 -1.32019531 74.73046875 -1.52539062 C79.43222918 -2.8391178 81.50835671 -2.70628951 86.58984375 -1.859375 C86.58984375 10.020625 86.58984375 21.900625 86.58984375 34.140625 C88.56984375 34.470625 90.54984375 34.800625 92.58984375 35.140625 C92.58984375 36.790625 92.58984375 38.440625 92.58984375 40.140625 C75.42984375 40.140625 58.26984375 40.140625 40.58984375 40.140625 C40.58984375 38.490625 40.58984375 36.840625 40.58984375 35.140625 C42.23984375 34.810625 43.88984375 34.480625 45.58984375 34.140625 C45.67758441 30.93246655 45.73048081 27.72462038 45.77734375 24.515625 C45.80248047 23.61199219 45.82761719 22.70835937 45.85351562 21.77734375 C45.91205899 16.43038351 45.53902089 12.80047969 42.58984375 8.140625 C37.26813881 7.84500133 37.26813881 7.84500133 32.58984375 10.140625 C32.08023684 12.65447759 32.08023684 12.65447759 32.078125 15.5859375 C32.02495117 17.20048828 32.02495117 17.20048828 31.97070312 18.84765625 C31.94814453 19.97558594 31.92558594 21.10351562 31.90234375 22.265625 C31.86818359 23.40128906 31.83402344 24.53695312 31.79882812 25.70703125 C31.71614873 28.51813079 31.64706438 31.32891053 31.58984375 34.140625 C33.56984375 34.470625 35.54984375 34.800625 37.58984375 35.140625 C37.58984375 36.790625 37.58984375 38.440625 37.58984375 40.140625 C29.00984375 40.140625 20.42984375 40.140625 11.58984375 40.140625 C11.25984375 39.480625 10.92984375 38.820625 10.58984375 38.140625 C9.57921875 38.635625 8.56859375 39.130625 7.52734375 39.640625 C3.7699441 41.24114007 0.69495322 41.61429148 -3.41015625 41.140625 C-5.34765625 39.765625 -5.34765625 39.765625 -6.41015625 38.140625 C-6.41015625 37.480625 -6.41015625 36.820625 -6.41015625 36.140625 C-7.35890625 36.965625 -8.30765625 37.790625 -9.28515625 38.640625 C-13.18136777 41.41460115 -16.32323049 41.82072276 -21.04296875 41.5625 C-25.73431561 40.72641838 -28.404391 38.41459432 -31.28515625 34.765625 C-32.65992853 31.55782302 -32.91459188 29.59961219 -32.41015625 26.140625 C-30.27839504 21.87710258 -27.50910885 20.58005589 -23.22265625 18.953125 C-18.33891289 17.33177472 -13.45655088 16.13335837 -8.41015625 15.140625 C-9.5080205 9.73275115 -9.5080205 9.73275115 -13.41015625 6.140625 C-15.39985575 5.75048784 -17.40035494 5.40859851 -19.41015625 5.140625 C-19.74015625 8.110625 -20.07015625 11.080625 -20.41015625 14.140625 C-21.66828125 14.181875 -22.92640625 14.223125 -24.22265625 14.265625 C-24.93035156 14.28882813 -25.63804688 14.31203125 -26.3671875 14.3359375 C-28.41015625 14.140625 -28.41015625 14.140625 -31.41015625 12.140625 C-32.24609375 10.234375 -32.24609375 10.234375 -32.41015625 8.140625 C-29.82259937 3.01051224 -25.13146399 -0.16567199 -19.90234375 -2.19921875 C-12.85763476 -4.0652937 -6.33748413 -3.68066563 0 0 Z M-13.47265625 22.140625 C-14.57287109 22.4190625 -14.57287109 22.4190625 -15.6953125 22.703125 C-16.54416016 22.9196875 -16.54416016 22.9196875 -17.41015625 23.140625 C-18.17971761 25.48596451 -18.17971761 25.48596451 -18.41015625 28.140625 C-16.96406754 30.2717031 -15.78397384 30.98876161 -13.41015625 31.953125 C-11.0904208 32.38242662 -11.0904208 32.38242662 -8.41015625 30.140625 C-8.04652807 27.93337427 -8.04652807 27.93337427 -8.22265625 25.515625 C-8.24972656 24.69835937 -8.27679687 23.88109375 -8.3046875 23.0390625 C-8.33949219 22.41257812 -8.37429688 21.78609375 -8.41015625 21.140625 C-10.14842854 21.140625 -11.79518849 21.71460144 -13.47265625 22.140625 Z " fill="#FFFFFF" transform="translate(1260.41015625,561.859375)"/>
<path d="M0 0 C0.33 0.99 0.66 1.98 1 3 C1.78375 2.34 2.5675 1.68 3.375 1 C7.63580335 -1.84390913 12.05284551 -1.70436873 17 -1 C19.875 0.375 19.875 0.375 22 2 C23.32608822 2.68096422 24.65686601 3.35330586 26 4 C26.78375 3.360625 27.5675 2.72125 28.375 2.0625 C33.32716696 -1.82848832 37.85529206 -1.60175761 44 -1 C48.12114683 0.29479479 50.52485586 2.25560752 52.875 5.9375 C54.53467622 10.4555075 55.12574206 14.49810712 55.09765625 19.30078125 C55.09282227 20.76547852 55.09282227 20.76547852 55.08789062 22.25976562 C55.07532227 23.77086914 55.07532227 23.77086914 55.0625 25.3125 C55.05798828 26.33923828 55.05347656 27.36597656 55.04882812 28.42382812 C55.03708184 30.94927882 55.02065565 33.47460905 55 36 C56.98 36.33 58.96 36.66 61 37 C61 38.65 61 40.3 61 42 C52.75 42 44.5 42 36 42 C36 40.35 36 38.7 36 37 C38.475 36.505 38.475 36.505 41 36 C41.09470946 29.97016465 41.08986335 23.95685576 40.6875 17.9375 C40.62949219 17.05964844 40.57148437 16.18179688 40.51171875 15.27734375 C39.90563222 12.58002737 39.2338301 11.6052407 37 10 C32.34608843 9.61972727 32.34608843 9.61972727 28 11 C28 19.25 28 27.5 28 36 C29.65 36.33 31.3 36.66 33 37 C33 38.65 33 40.3 33 42 C25.08 42 17.16 42 9 42 C9 40.35 9 38.7 9 37 C11.475 36.505 11.475 36.505 14 36 C13.8612119 32.39552566 13.71276065 28.79151288 13.5625 25.1875 C13.52318359 24.16333984 13.48386719 23.13917969 13.44335938 22.08398438 C13.40146484 21.10107422 13.35957031 20.11816406 13.31640625 19.10546875 C13.26141968 17.74651489 13.26141968 17.74651489 13.20532227 16.36010742 C13.0791795 13.84951218 13.0791795 13.84951218 12 11 C9.22899606 9.61449803 7.0665294 9.8122533 4 10 C3.01 10.66 2.02 11.32 1 12 C0.49039309 14.51385259 0.49039309 14.51385259 0.48828125 17.4453125 C0.45283203 18.52167969 0.41738281 19.59804688 0.38085938 20.70703125 C0.35830078 21.83496094 0.33574219 22.96289062 0.3125 24.125 C0.27833984 25.26066406 0.24417969 26.39632812 0.20898438 27.56640625 C0.12630498 30.37750579 0.05722063 33.18828553 0 36 C1.65 36.33 3.3 36.66 5 37 C5 38.65 5 40.3 5 42 C-3.25 42 -11.5 42 -20 42 C-20 40.35 -20 38.7 -20 37 C-17.03 36.505 -17.03 36.505 -14 36 C-14 27.42 -14 18.84 -14 10 C-16.31 9.34 -18.62 8.68 -21 8 C-21 6.35 -21 4.7 -21 3 C-18.62863429 2.2970379 -16.25432265 1.61253255 -13.875 0.9375 C-13.20984375 0.73833984 -12.5446875 0.53917969 -11.859375 0.33398438 C-7.54172062 -0.87241906 -4.35224278 -1.0778919 0 0 Z " fill="#FFFFFF" transform="translate(1113,560)"/>
<path d="M0 0 C3.49173348 2.50512574 4.76815002 5.02896266 5.58984375 9.140625 C5.66937181 10.87348148 5.69758518 12.60909886 5.6875 14.34375 C5.68427734 15.3234375 5.68105469 16.303125 5.67773438 17.3125 C5.66516602 18.83617187 5.66516602 18.83617187 5.65234375 20.390625 C5.64783203 21.421875 5.64332031 22.453125 5.63867188 23.515625 C5.62690463 26.05735073 5.61046386 28.59895819 5.58984375 31.140625 C8.55984375 31.635625 8.55984375 31.635625 11.58984375 32.140625 C11.58984375 33.130625 11.58984375 34.120625 11.58984375 35.140625 C14.55984375 34.645625 14.55984375 34.645625 17.58984375 34.140625 C17.58984375 25.560625 17.58984375 16.980625 17.58984375 8.140625 C15.27984375 7.480625 12.96984375 6.820625 10.58984375 6.140625 C10.58984375 4.490625 10.58984375 2.840625 10.58984375 1.140625 C12.98240624 0.43940857 15.37774864 -0.24552401 17.77734375 -0.921875 C18.45087891 -1.12103516 19.12441406 -1.32019531 19.81835938 -1.52539062 C23.76400691 -2.62247311 26.64535669 -3.07718751 30.58984375 -1.859375 C31.08484375 0.615625 31.08484375 0.615625 31.58984375 3.140625 C32.37359375 2.33625 33.15734375 1.531875 33.96484375 0.703125 C37.09949335 -2.35689008 37.68338613 -2.79345081 42.02734375 -3.109375 C45.58984375 -2.859375 45.58984375 -2.859375 47.52734375 -1.796875 C49.20390665 1.26038676 48.95513352 3.7312538 48.58984375 7.140625 C47.453125 8.84765625 47.453125 8.84765625 45.58984375 10.140625 C42.671875 10.43359375 42.671875 10.43359375 39.40234375 10.328125 C38.31566406 10.30105469 37.22898437 10.27398438 36.109375 10.24609375 C34.86220703 10.19388672 34.86220703 10.19388672 33.58984375 10.140625 C32.35923954 12.60183341 32.38407145 14.39839366 32.2734375 17.1484375 C32.23154297 18.13457031 32.18964844 19.12070312 32.14648438 20.13671875 C32.10716797 21.16925781 32.06785156 22.20179688 32.02734375 23.265625 C31.96256836 24.82603516 31.96256836 24.82603516 31.89648438 26.41796875 C31.79021495 28.99205028 31.68817792 31.56623008 31.58984375 34.140625 C34.55984375 34.470625 37.52984375 34.800625 40.58984375 35.140625 C40.25984375 36.790625 39.92984375 38.440625 39.58984375 40.140625 C30.34984375 40.140625 21.10984375 40.140625 11.58984375 40.140625 C11.25984375 39.480625 10.92984375 38.820625 10.58984375 38.140625 C9.57921875 38.635625 8.56859375 39.130625 7.52734375 39.640625 C3.7699441 41.24114007 0.69495322 41.61429148 -3.41015625 41.140625 C-5.34765625 39.765625 -5.34765625 39.765625 -6.41015625 38.140625 C-6.41015625 37.480625 -6.41015625 36.820625 -6.41015625 36.140625 C-7.35890625 36.965625 -8.30765625 37.790625 -9.28515625 38.640625 C-13.18136777 41.41460115 -16.32323049 41.82072276 -21.04296875 41.5625 C-25.73431561 40.72641838 -28.404391 38.41459432 -31.28515625 34.765625 C-32.65992853 31.55782302 -32.91459188 29.59961219 -32.41015625 26.140625 C-30.27839504 21.87710258 -27.50910885 20.58005589 -23.22265625 18.953125 C-18.33891289 17.33177472 -13.45655088 16.13335837 -8.41015625 15.140625 C-9.5080205 9.73275115 -9.5080205 9.73275115 -13.41015625 6.140625 C-15.39985575 5.75048784 -17.40035494 5.40859851 -19.41015625 5.140625 C-19.74015625 8.110625 -20.07015625 11.080625 -20.41015625 14.140625 C-21.66828125 14.181875 -22.92640625 14.223125 -24.22265625 14.265625 C-24.93035156 14.28882813 -25.63804687 14.31203125 -26.3671875 14.3359375 C-28.41015625 14.140625 -28.41015625 14.140625 -31.41015625 12.140625 C-32.24609375 10.234375 -32.24609375 10.234375 -32.41015625 8.140625 C-29.82259937 3.01051224 -25.13146399 -0.16567199 -19.90234375 -2.19921875 C-12.85763476 -4.0652937 -6.33748413 -3.68066563 0 0 Z M-13.47265625 22.140625 C-14.57287109 22.4190625 -14.57287109 22.4190625 -15.6953125 22.703125 C-16.54416016 22.9196875 -16.54416016 22.9196875 -17.41015625 23.140625 C-18.17971761 25.48596451 -18.17971761 25.48596451 -18.41015625 28.140625 C-16.96406754 30.2717031 -15.78397384 30.98876161 -13.41015625 31.953125 C-11.0904208 32.38242662 -11.0904208 32.38242662 -8.41015625 30.140625 C-8.04652807 27.93337427 -8.04652807 27.93337427 -8.22265625 25.515625 C-8.24972656 24.69835937 -8.27679688 23.88109375 -8.3046875 23.0390625 C-8.33949219 22.41257812 -8.37429688 21.78609375 -8.41015625 21.140625 C-10.14842854 21.140625 -11.79518849 21.71460144 -13.47265625 22.140625 Z " fill="#FFFFFF" transform="translate(461.41015625,561.859375)"/>
<path d="M0 0 C8.58 0 17.16 0 26 0 C26 1.98 26 3.96 26 6 C24.35 6.66 22.7 7.32 21 8 C20.67 13.28 20.34 18.56 20 24 C26.6 24 33.2 24 40 24 C39.67 18.72 39.34 13.44 39 8 C36.525 7.01 36.525 7.01 34 6 C34 4.02 34 2.04 34 0 C42.91 0 51.82 0 61 0 C61 1.98 61 3.96 61 6 C59.02 6.33 57.04 6.66 55 7 C54.97526645 12.48095369 54.95712404 17.96187483 54.94506836 23.44287109 C54.94004208 25.30713466 54.93322008 27.1713943 54.92456055 29.03564453 C54.91242037 31.71648124 54.90675461 34.3972658 54.90234375 37.078125 C54.89718246 37.91055725 54.89202118 38.7429895 54.88670349 39.60064697 C54.88662796 40.38115417 54.88655243 41.16166138 54.88647461 41.96582031 C54.884254 42.64976868 54.88203339 43.33371704 54.87974548 44.03839111 C55.01092697 46.17824232 55.27681938 47.97795325 56 50 C58.49034386 51.29660434 58.49034386 51.29660434 61 52 C61 53.65 61 55.3 61 57 C52.09 57 43.18 57 34 57 C34 55.35 34 53.7 34 52 C35.98 51.34 37.96 50.68 40 50 C40 44.06 40 38.12 40 32 C33.4 32 26.8 32 20 32 C20 37.94 20 43.88 20 50 C21.98 50.66 23.96 51.32 26 52 C26 53.65 26 55.3 26 57 C17.42 57 8.84 57 0 57 C-0.33 55.35 -0.66 53.7 -1 52 C1.31 51.34 3.62 50.68 6 50 C5.505 29.21 5.505 29.21 5 8 C3.02 7.34 1.04 6.68 -1 6 C-0.67 4.02 -0.34 2.04 0 0 Z " fill="#FFFFFF" transform="translate(275,545)"/>
<path d="M0 0 C0 1.32 0 2.64 0 4 C0.78375 3.360625 1.5675 2.72125 2.375 2.0625 C7.09690754 -1.64757021 11.12681299 -1.6339872 17 -1 C21.83257291 0.67456387 25.29382549 3.69016652 28 8 C31.15239832 16.35385555 30.594217 23.21556298 27.3984375 31.375 C24.60767404 36.61352806 20.43159444 39.72893927 15.25 42.4375 C10.14919062 43.32033239 5.17182038 43.11492934 0 43 C0 47.62 0 52.24 0 57 C2.64 57.33 5.28 57.66 8 58 C7.67 59.98 7.34 61.96 7 64 C-1.91 64 -10.82 64 -20 64 C-20 62.02 -20 60.04 -20 58 C-17.525 57.505 -17.525 57.505 -15 57 C-15 41.82 -15 26.64 -15 11 C-16.98 10.34 -18.96 9.68 -21 9 C-21 7.02 -21 5.04 -21 3 C-18.62863429 2.2970379 -16.25432265 1.61253255 -13.875 0.9375 C-13.20984375 0.73833984 -12.5446875 0.53917969 -11.859375 0.33398438 C-7.54172062 -0.87241906 -4.35224278 -1.0778919 0 0 Z M-1 12 C-1.59665352 14.27409476 -1.59665352 14.27409476 -1.49609375 16.81640625 C-1.49706055 18.20956055 -1.49706055 18.20956055 -1.49804688 19.63085938 C-1.47806641 20.59830078 -1.45808594 21.56574219 -1.4375 22.5625 C-1.44458984 23.53380859 -1.45167969 24.50511719 -1.45898438 25.50585938 C-1.45995861 29.27530144 -1.45995861 29.27530144 -1 33 C2.1782916 35.11886107 4.19054892 35.56526471 7.9921875 35.41796875 C10.79980953 34.83350269 12.50830431 33.50685405 14.15625 31.1796875 C16.01625184 26.37468274 15.75504128 21.02731653 15 16 C13.30855236 12.50401375 12.27081295 11.18054196 9 9 C4.54297057 8.52584793 2.23853073 8.86376128 -1 12 Z " fill="#FFFFFF" transform="translate(1194,560)"/>
<path d="M0 0 C0 9.24 0 18.48 0 28 C1.65 26.68 3.3 25.36 5 24 C10.62994973 22.12335009 16.09029508 22.06250849 21.4375 24.6875 C25.53986268 28.38963218 27.13357701 31.61387587 28 37 C28.07790887 38.83848168 28.10793615 40.67942827 28.09765625 42.51953125 C28.09443359 43.54111328 28.09121094 44.56269531 28.08789062 45.61523438 C28.07532227 47.19788086 28.07532227 47.19788086 28.0625 48.8125 C28.05798828 49.88693359 28.05347656 50.96136719 28.04882812 52.06835938 C28.03707729 54.71229683 28.02064787 57.35611952 28 60 C30.97 60.495 30.97 60.495 34 61 C34 62.65 34 64.3 34 66 C25.75 66 17.5 66 9 66 C9 64.35 9 62.7 9 61 C11.475 60.505 11.475 60.505 14 60 C13.91923802 56.22828169 13.80638565 52.45819404 13.6875 48.6875 C13.65366211 47.0797168 13.65366211 47.0797168 13.61914062 45.43945312 C13.58369141 44.41142578 13.54824219 43.38339844 13.51171875 42.32421875 C13.47244263 40.9024231 13.47244263 40.9024231 13.43237305 39.4519043 C12.92850081 36.59454186 12.35664828 35.65807893 10 34 C5.63293092 33.61008312 3.69486103 33.53675931 0 36 C-0.41678607 38.51896074 -0.41678607 38.51896074 -0.29296875 41.4453125 C-0.28330078 42.52167969 -0.27363281 43.59804688 -0.26367188 44.70703125 C-0.23853516 45.83496094 -0.21339844 46.96289062 -0.1875 48.125 C-0.17396484 49.26066406 -0.16042969 50.39632812 -0.14648438 51.56640625 C-0.11104319 54.37807387 -0.06163517 57.18880417 0 60 C1.98 60.33 3.96 60.66 6 61 C5.67 62.65 5.34 64.3 5 66 C-3.25 66 -11.5 66 -20 66 C-20 64.35 -20 62.7 -20 61 C-18.35 60.34 -16.7 59.68 -15 59 C-15 42.83 -15 26.66 -15 10 C-17.31 9.67 -19.62 9.34 -22 9 C-22 7.02 -22 5.04 -22 3 C-19.46163847 2.29757929 -16.92055937 1.61289798 -14.375 0.9375 C-13.66214844 0.73833984 -12.94929687 0.53917969 -12.21484375 0.33398438 C-11.51230469 0.15029297 -10.80976563 -0.03339844 -10.0859375 -0.22265625 C-9.4470459 -0.39547119 -8.8081543 -0.56828613 -8.14990234 -0.74633789 C-6 -1 -6 -1 0 0 Z " fill="#FFFFFF" transform="translate(178,536)"/>
<path d="M0 0 C1 1 1 1 1.12025452 3.28419495 C1.11803391 4.29457321 1.11581329 5.30495148 1.11352539 6.34594727 C1.11344986 7.4870546 1.11337433 8.62816193 1.11329651 9.80384827 C1.10813522 11.0454924 1.10297394 12.28713654 1.09765625 13.56640625 C1.0962413 14.83016586 1.09482635 16.09392548 1.09336853 17.39598083 C1.08870582 20.76124889 1.0797148 24.1264499 1.06866455 27.49169922 C1.05844846 30.9234967 1.05387049 34.35530109 1.04882812 37.78710938 C1.0377738 44.52475824 1.0210171 51.26237525 1 58 C3.97 58.495 3.97 58.495 7 59 C7 60.98 7 62.96 7 65 C4.21019334 65.69595819 1.41859396 66.38206674 -1.375 67.0625 C-2.56609375 67.36124023 -2.56609375 67.36124023 -3.78125 67.66601562 C-9.7734375 69.11328125 -9.7734375 69.11328125 -12 68 C-12.625 65.9375 -12.625 65.9375 -13 64 C-14.1446875 64.99 -14.1446875 64.99 -15.3125 66 C-19.88679081 69.01708543 -24.73109883 68.83075004 -30 68 C-35.29188519 66.22113994 -38.26375595 63.1748918 -41 58.375 C-44.09073603 51.32393102 -44.2273167 44.45354051 -41.5 37.25 C-38.5571315 31.43731293 -33.93422397 27.49971448 -28.1875 24.5625 C-23.42342108 23.72178019 -18.83478748 23.88207835 -14 24 C-14 19.71 -14 15.42 -14 11 C-16.97 10.505 -16.97 10.505 -20 10 C-20.33 8.02 -20.66 6.04 -21 4 C-18.43923903 3.32595716 -15.87673417 2.660586 -13.3125 2 C-12.2306543 1.71382812 -12.2306543 1.71382812 -11.12695312 1.421875 C-7.35916915 0.45842339 -3.92376481 -0.36011608 0 0 Z M-27.08984375 35.03125 C-29.5447905 40.34152108 -29.64888784 45.92833649 -27.8125 51.4375 C-25.7813216 55.68438874 -25.7813216 55.68438874 -22 58 C-16.94892809 57.81541642 -16.94892809 57.81541642 -13 55 C-12.68948159 52.70609569 -12.68948159 52.70609569 -12.734375 50.0625 C-12.73179687 49.08539062 -12.72921875 48.10828125 -12.7265625 47.1015625 C-12.73429688 46.07804688 -12.74203125 45.05453125 -12.75 44 C-12.74226562 42.97648438 -12.73453125 41.95296875 -12.7265625 40.8984375 C-12.73042969 39.43277344 -12.73042969 39.43277344 -12.734375 37.9375 C-12.73663086 37.03902344 -12.73888672 36.14054688 -12.74121094 35.21484375 C-12.79191058 32.79457835 -12.79191058 32.79457835 -15 31 C-20.42169494 30.28895804 -23.68405955 30.13615678 -27.08984375 35.03125 Z " fill="#FFFFFF" transform="translate(924,535)"/>
<path d="M0 0 C1 1 1 1 1.12025452 3.28419495 C1.11803391 4.29457321 1.11581329 5.30495148 1.11352539 6.34594727 C1.11344986 7.4870546 1.11337433 8.62816193 1.11329651 9.80384827 C1.10813522 11.0454924 1.10297394 12.28713654 1.09765625 13.56640625 C1.0962413 14.83016586 1.09482635 16.09392548 1.09336853 17.39598083 C1.08870582 20.76124889 1.0797148 24.1264499 1.06866455 27.49169922 C1.05844846 30.9234967 1.05387049 34.35530109 1.04882812 37.78710938 C1.0377738 44.52475824 1.0210171 51.26237525 1 58 C3.97 58.495 3.97 58.495 7 59 C7 60.98 7 62.96 7 65 C4.21019334 65.69595819 1.41859396 66.38206674 -1.375 67.0625 C-2.56609375 67.36124023 -2.56609375 67.36124023 -3.78125 67.66601562 C-9.7734375 69.11328125 -9.7734375 69.11328125 -12 68 C-12.625 65.9375 -12.625 65.9375 -13 64 C-14.1446875 64.99 -14.1446875 64.99 -15.3125 66 C-19.88679081 69.01708543 -24.73109883 68.83075004 -30 68 C-35.29188519 66.22113994 -38.26375595 63.1748918 -41 58.375 C-44.09073603 51.32393102 -44.2273167 44.45354051 -41.5 37.25 C-38.5571315 31.43731293 -33.93422397 27.49971448 -28.1875 24.5625 C-23.42342108 23.72178019 -18.83478748 23.88207835 -14 24 C-14 19.71 -14 15.42 -14 11 C-16.97 10.505 -16.97 10.505 -20 10 C-20.33 8.02 -20.66 6.04 -21 4 C-18.43923903 3.32595716 -15.87673417 2.660586 -13.3125 2 C-12.2306543 1.71382812 -12.2306543 1.71382812 -11.12695312 1.421875 C-7.35916915 0.45842339 -3.92376481 -0.36011608 0 0 Z M-27.08984375 35.03125 C-29.5447905 40.34152108 -29.64888784 45.92833649 -27.8125 51.4375 C-25.7813216 55.68438874 -25.7813216 55.68438874 -22 58 C-16.94892809 57.81541642 -16.94892809 57.81541642 -13 55 C-12.68948159 52.70609569 -12.68948159 52.70609569 -12.734375 50.0625 C-12.73179687 49.08539062 -12.72921875 48.10828125 -12.7265625 47.1015625 C-12.73429688 46.07804688 -12.74203125 45.05453125 -12.75 44 C-12.74226562 42.97648438 -12.73453125 41.95296875 -12.7265625 40.8984375 C-12.73042969 39.43277344 -12.73042969 39.43277344 -12.734375 37.9375 C-12.73663086 37.03902344 -12.73888672 36.14054688 -12.74121094 35.21484375 C-12.79191058 32.79457835 -12.79191058 32.79457835 -15 31 C-20.42169494 30.28895804 -23.68405955 30.13615678 -27.08984375 35.03125 Z " fill="#FFFFFF" transform="translate(555,535)"/>
<path d="M0 0 C0.70189453 0.09152344 1.40378906 0.18304687 2.12695312 0.27734375 C5.10670918 0.68070444 7.82830945 1.17193648 10.6875 2.125 C11.1825 9.55 11.1825 9.55 11.6875 17.125 C9.0475 17.125 6.4075 17.125 3.6875 17.125 C3.49414062 16.55910156 3.30078125 15.99320313 3.1015625 15.41015625 C2.71097656 14.30994141 2.71097656 14.30994141 2.3125 13.1875 C2.05726563 12.45660156 1.80203125 11.72570312 1.5390625 10.97265625 C0.83478587 8.93817884 0.83478587 8.93817884 -1.3125 8.125 C-7.23524007 7.57107467 -12.32164632 7.56010452 -17.3125 11.125 C-23.08559111 18.61441549 -23.11706383 26.03708584 -22.3125 35.125 C-20.75804901 40.39137274 -18.5509037 43.99667662 -14.5 47.6875 C-10.1059071 49.66914974 -6.14864142 50.125 -1.3125 50.125 C-1.8075 44.185 -1.8075 44.185 -2.3125 38.125 C-4.2925 37.465 -6.2725 36.805 -8.3125 36.125 C-8.3125 34.145 -8.3125 32.165 -8.3125 30.125 C-0.0625 30.125 8.1875 30.125 16.6875 30.125 C16.6875 32.105 16.6875 34.085 16.6875 36.125 C14.2125 36.62 14.2125 36.62 11.6875 37.125 C12.1825 45.045 12.1825 45.045 12.6875 53.125 C2.16342124 58.56244069 -8.70508893 59.9110378 -20.4375 57.4765625 C-27.67150951 54.83162777 -33.93905916 50.07384665 -37.75 43.3125 C-41.24053513 35.24548547 -40.940578 26.40889564 -38.3125 18.125 C-34.17174546 9.49050856 -27.46590851 3.9471259 -18.5625 0.66796875 C-12.11884953 -0.8870094 -6.495694 -0.94460517 0 0 Z " fill="#FFFFFF" transform="translate(762.3125,544.875)"/>
<path d="M0 0 C0.33 0.99 0.66 1.98 1 3 C1.94875 2.34 2.8975 1.68 3.875 1 C8.49126004 -1.62181098 12.81144637 -1.82330768 18 -1 C22.76155537 1.11624683 24.93189945 3.82234441 27.18408203 8.49023438 C28.82290732 13.53126487 28.4061213 18.75792702 28.25 24 C28.23195313 25.15628906 28.21390625 26.31257812 28.1953125 27.50390625 C28.1484876 30.33681275 28.08292012 33.16795884 28 36 C30.97 36.495 30.97 36.495 34 37 C34 38.65 34 40.3 34 42 C25.75 42 17.5 42 9 42 C9 40.35 9 38.7 9 37 C11.475 36.505 11.475 36.505 14 36 C14.08774066 32.79184155 14.14063706 29.58399538 14.1875 26.375 C14.21263672 25.47136719 14.23777344 24.56773437 14.26367188 23.63671875 C14.32221524 18.28975851 13.94917714 14.65985469 11 10 C5.67829506 9.70437633 5.67829506 9.70437633 1 12 C0.49039309 14.51385259 0.49039309 14.51385259 0.48828125 17.4453125 C0.45283203 18.52167969 0.41738281 19.59804688 0.38085938 20.70703125 C0.35830078 21.83496094 0.33574219 22.96289062 0.3125 24.125 C0.27833984 25.26066406 0.24417969 26.39632812 0.20898438 27.56640625 C0.12630498 30.37750579 0.05722063 33.18828553 0 36 C1.98 36.33 3.96 36.66 6 37 C6 38.65 6 40.3 6 42 C-2.58 42 -11.16 42 -20 42 C-20 40.35 -20 38.7 -20 37 C-17.03 36.505 -17.03 36.505 -14 36 C-14 27.42 -14 18.84 -14 10 C-16.31 9.67 -18.62 9.34 -21 9 C-21 7.02 -21 5.04 -21 3 C-18.62863429 2.2970379 -16.25432265 1.61253255 -13.875 0.9375 C-13.20984375 0.73833984 -12.5446875 0.53917969 -11.859375 0.33398438 C-7.54172062 -0.87241906 -4.35224278 -1.0778919 0 0 Z " fill="#FFFFFF" transform="translate(1422,560)"/>
<path d="M0 0 C1.0528418 0.1247168 1.0528418 0.1247168 2.12695312 0.25195312 C5.65507703 0.71272813 7.67816899 1.18127933 10.6875 3.1875 C10.90887393 5.81447064 10.96912025 8.19643964 10.875 10.8125 C10.85469727 11.87210938 10.85469727 11.87210938 10.83398438 12.953125 C10.7986104 14.69824128 10.74480221 16.44296608 10.6875 18.1875 C8.3775 18.5175 6.0675 18.8475 3.6875 19.1875 C2.6975 15.5575 1.7075 11.9275 0.6875 8.1875 C-7.9617432 7.34474819 -7.9617432 7.34474819 -15.9375 9.9375 C-21.40637185 15.11853649 -22.9387956 20.15149248 -23.625 27.5625 C-22.98345472 35.00442525 -21.16716639 41.36715958 -15.91015625 46.84375 C-12.89210964 49.38215595 -10.18508384 50.23030192 -6.26171875 50.140625 C-2.60407811 49.7929151 -0.39601682 49.24317788 2.6875 47.1875 C3.68918531 45.23917065 3.68918531 45.23917065 4.375 43.0625 C4.62636719 42.33804688 4.87773438 41.61359375 5.13671875 40.8671875 C5.31847656 40.31289063 5.50023437 39.75859375 5.6875 39.1875 C8.3275 39.5175 10.9675 39.8475 13.6875 40.1875 C12.54842759 52.53570522 12.54842759 52.53570522 8.63671875 56.0078125 C-0.85856697 59.89814201 -13.75132928 59.73785624 -23.4375 56.5625 C-30.71896409 53.40241088 -35.25555132 49.32819757 -38.5859375 42.1171875 C-41.48941986 34.40578811 -41.52485411 25.45566071 -38.625 17.75 C-34.40193614 8.68800879 -28.24122705 4.60738859 -19.25 0.9375 C-12.59692883 -0.76115647 -6.73800332 -0.93530358 0 0 Z " fill="#FFFFFF" transform="translate(1029.3125,544.8125)"/>
<path d="M0 0 C-0.01047363 0.76143311 -0.02094727 1.52286621 -0.03173828 2.30737305 C-0.07339019 5.7673816 -0.0993556 9.22733731 -0.125 12.6875 C-0.14175781 13.88568359 -0.15851562 15.08386719 -0.17578125 16.31835938 C-0.18222656 17.47529297 -0.18867187 18.63222656 -0.1953125 19.82421875 C-0.20578613 20.88729248 -0.21625977 21.95036621 -0.22705078 23.0456543 C0.00888386 26.1155952 0.60203664 28.26572107 2 31 C4.77100394 32.38550197 6.9334706 32.1877467 10 32 C13.16903363 30.39327932 13.16903363 30.39327932 13.43237305 27.93701172 C13.45855713 27.10959473 13.48474121 26.28217773 13.51171875 25.4296875 C13.54716797 24.53378906 13.58261719 23.63789062 13.61914062 22.71484375 C13.64169922 21.77769531 13.66425781 20.84054687 13.6875 19.875 C13.72166016 18.93011719 13.75582031 17.98523438 13.79101562 17.01171875 C13.87364112 14.67459747 13.94273988 12.33785809 14 10 C11.69 9.67 9.38 9.34 7 9 C7 7.02 7 5.04 7 3 C9.39256249 2.29878357 11.78790489 1.61385099 14.1875 0.9375 C14.86103516 0.73833984 15.53457031 0.53917969 16.22851562 0.33398438 C20.17416316 -0.76309811 23.05551294 -1.21781251 27 0 C28.15927528 3.47782583 28.11313066 6.18803257 28.09765625 9.85546875 C28.0962413 10.51710526 28.09482635 11.17874176 28.09336853 11.86042786 C28.08777996 13.96949828 28.07522965 16.07846177 28.0625 18.1875 C28.05748352 19.61913909 28.05292087 21.05077985 28.04882812 22.48242188 C28.0378143 25.98831588 28.02055755 29.4941475 28 33 C30.97 33.495 30.97 33.495 34 34 C34 35.65 34 37.3 34 39 C28.06338584 41.41862058 22.31121503 42.9007105 16 44 C15.01 42.35 14.02 40.7 13 39 C12.236875 39.66 11.47375 40.32 10.6875 41 C6.17397315 44.0197644 1.21923544 43.65439955 -4 43 C-8.20261675 41.30106982 -10.41945133 38.6864981 -13 35 C-14.00005304 31.99984088 -14.11575585 30.02576244 -14.09765625 26.89453125 C-14.09443359 25.91162109 -14.09121094 24.92871094 -14.08789062 23.91601562 C-14.07951172 22.89185547 -14.07113281 21.86769531 -14.0625 20.8125 C-14.05798828 19.77673828 -14.05347656 18.74097656 -14.04882812 17.67382812 C-14.0370401 15.11582734 -14.02058515 12.55794267 -14 10 C-16.31 9.67 -18.62 9.34 -21 9 C-21 7.02 -21 5.04 -21 3 C-18.62863429 2.2970379 -16.25432265 1.61253255 -13.875 0.9375 C-13.20984375 0.73833984 -12.5446875 0.53917969 -11.859375 0.33398438 C-7.47776516 -0.89028896 -4.41513503 -0.87810306 0 0 Z " fill="#FFFFFF" transform="translate(631,560)"/>
<path d="M0 0 C17.16 0 34.32 0 52 0 C54.25 12.375 54.25 12.375 54 18 C51.69 18 49.38 18 47 18 C46.49384702 16.73160474 45.99530901 15.46016898 45.5 14.1875 C45.2215625 13.47980469 44.943125 12.77210938 44.65625 12.04296875 C44 10 44 10 44 7 C40.37 7 36.74 7 33 7 C33 21.19 33 35.38 33 50 C35.64 50.33 38.28 50.66 41 51 C42 52 42 52 42 57 C31.77 57 21.54 57 11 57 C10.67 55.35 10.34 53.7 10 52 C16.75 50 16.75 50 19 50 C19 35.81 19 21.62 19 7 C15.37 7 11.74 7 8 7 C7.690625 8.44375 7.38125 9.8875 7.0625 11.375 C6.54516353 13.78923686 6.10514766 15.78970467 5 18 C2.69 18 0.38 18 -2 18 C-1.8590651 15.56212615 -1.71245458 13.12482147 -1.5625 10.6875 C-1.52318359 9.99720703 -1.48386719 9.30691406 -1.44335938 8.59570312 C-1.25072585 5.52838465 -0.97677283 2.93031848 0 0 Z " fill="#FFFFFF" transform="translate(103,545)"/>
<path d="M0 0 C3.49173348 2.50512574 4.76815002 5.02896266 5.58984375 9.140625 C5.66937181 10.87348148 5.69758518 12.60909886 5.6875 14.34375 C5.68427734 15.3234375 5.68105469 16.303125 5.67773438 17.3125 C5.66516602 18.83617187 5.66516602 18.83617187 5.65234375 20.390625 C5.64783203 21.421875 5.64332031 22.453125 5.63867188 23.515625 C5.62690463 26.05735073 5.61046386 28.59895819 5.58984375 31.140625 C8.55984375 31.635625 8.55984375 31.635625 11.58984375 32.140625 C11.58984375 33.790625 11.58984375 35.440625 11.58984375 37.140625 C6.53183251 40.0834679 2.61311025 41.96734785 -3.41015625 41.140625 C-5.34765625 39.765625 -5.34765625 39.765625 -6.41015625 38.140625 C-6.41015625 37.480625 -6.41015625 36.820625 -6.41015625 36.140625 C-7.35890625 36.965625 -8.30765625 37.790625 -9.28515625 38.640625 C-13.18136777 41.41460115 -16.32323049 41.82072276 -21.04296875 41.5625 C-25.73431561 40.72641838 -28.404391 38.41459432 -31.28515625 34.765625 C-32.65992853 31.55782302 -32.91459188 29.59961219 -32.41015625 26.140625 C-30.27839504 21.87710258 -27.50910885 20.58005589 -23.22265625 18.953125 C-18.33891289 17.33177472 -13.45655088 16.13335837 -8.41015625 15.140625 C-9.5080205 9.73275115 -9.5080205 9.73275115 -13.41015625 6.140625 C-15.39985575 5.75048784 -17.40035494 5.40859851 -19.41015625 5.140625 C-19.74015625 8.110625 -20.07015625 11.080625 -20.41015625 14.140625 C-21.66828125 14.181875 -22.92640625 14.223125 -24.22265625 14.265625 C-24.93035156 14.28882813 -25.63804687 14.31203125 -26.3671875 14.3359375 C-28.41015625 14.140625 -28.41015625 14.140625 -31.41015625 12.140625 C-32.24609375 10.234375 -32.24609375 10.234375 -32.41015625 8.140625 C-29.82259937 3.01051224 -25.13146399 -0.16567199 -19.90234375 -2.19921875 C-12.85763476 -4.0652937 -6.33748413 -3.68066563 0 0 Z M-13.47265625 22.140625 C-14.57287109 22.4190625 -14.57287109 22.4190625 -15.6953125 22.703125 C-16.54416016 22.9196875 -16.54416016 22.9196875 -17.41015625 23.140625 C-18.17971761 25.48596451 -18.17971761 25.48596451 -18.41015625 28.140625 C-16.96406754 30.2717031 -15.78397384 30.98876161 -13.41015625 31.953125 C-11.0904208 32.38242662 -11.0904208 32.38242662 -8.41015625 30.140625 C-8.04652807 27.93337427 -8.04652807 27.93337427 -8.22265625 25.515625 C-8.24972656 24.69835937 -8.27679688 23.88109375 -8.3046875 23.0390625 C-8.33949219 22.41257812 -8.37429688 21.78609375 -8.41015625 21.140625 C-10.14842854 21.140625 -11.79518849 21.71460144 -13.47265625 22.140625 Z " fill="#FFFFFF" transform="translate(372.41015625,561.859375)"/>
<path d="M0 0 C4.55984747 2.77301217 7.39942145 6.2494106 9.75 11.0625 C11.42769003 19.14591561 11.1396652 25.83904358 7.0703125 33.140625 C3.80386137 37.6105055 -0.33016307 40.63088769 -5.5625 42.375 C-13.55020867 43.04986181 -20.76121348 42.98965161 -27.5625 38.375 C-31.98309523 34.41058413 -34.33194998 29.93500348 -34.86328125 24.03515625 C-34.86908203 22.25431641 -34.86908203 22.25431641 -34.875 20.4375 C-34.89175781 19.25285156 -34.90851563 18.06820312 -34.92578125 16.84765625 C-34.32343591 11.08975297 -32.05772478 7.33203892 -27.6875 3.625 C-27.03007813 3.05265625 -26.37265625 2.4803125 -25.6953125 1.890625 C-18.62403105 -3.13438819 -7.86122777 -3.60056234 0 0 Z M-17.5625 6.375 C-21.13528309 12.49977102 -21.65641946 18.75358663 -20.0234375 25.65234375 C-18.65872334 29.67900037 -17.12459983 32.86057659 -13.5625 35.375 C-11.0625 36.125 -11.0625 36.125 -8.5625 35.375 C-4.98273899 32.49130363 -4.20339357 29.57831573 -3.625 25.1875 C-3.19826893 17.84375593 -4.71905672 11.04445686 -9.5625 5.375 C-12.81220622 3.90739074 -14.75285719 4.19979266 -17.5625 6.375 Z " fill="#FFFFFF" transform="translate(1389.5625,560.625)"/>
<path d="M0 0 C4.55984747 2.77301217 7.39942145 6.2494106 9.75 11.0625 C11.42769003 19.14591561 11.1396652 25.83904358 7.0703125 33.140625 C3.80386137 37.6105055 -0.33016307 40.63088769 -5.5625 42.375 C-13.55020867 43.04986181 -20.76121348 42.98965161 -27.5625 38.375 C-31.98309523 34.41058413 -34.33194998 29.93500348 -34.86328125 24.03515625 C-34.86908203 22.25431641 -34.86908203 22.25431641 -34.875 20.4375 C-34.89175781 19.25285156 -34.90851563 18.06820312 -34.92578125 16.84765625 C-34.32343591 11.08975297 -32.05772478 7.33203892 -27.6875 3.625 C-27.03007813 3.05265625 -26.37265625 2.4803125 -25.6953125 1.890625 C-18.62403105 -3.13438819 -7.86122777 -3.60056234 0 0 Z M-17.5625 6.375 C-21.13528309 12.49977102 -21.65641946 18.75358663 -20.0234375 25.65234375 C-18.65872334 29.67900037 -17.12459983 32.86057659 -13.5625 35.375 C-11.0625 36.125 -11.0625 36.125 -8.5625 35.375 C-4.98273899 32.49130363 -4.20339357 29.57831573 -3.625 25.1875 C-3.19826893 17.84375593 -4.71905672 11.04445686 -9.5625 5.375 C-12.81220622 3.90739074 -14.75285719 4.19979266 -17.5625 6.375 Z " fill="#FFFFFF" transform="translate(1080.5625,560.625)"/>
<path d="M0 0 C6.01715531 4.60538538 8.57908082 8.95820229 9.59765625 16.53515625 C9.89026838 23.47006377 8.13716195 28.90744443 3.71484375 34.3125 C-1.51254623 39.49668841 -6.24390708 41.59943115 -13.59765625 41.6875 C-20.45660862 41.55589482 -24.97363194 40.37214103 -30.03125 35.69921875 C-35.25850172 30.04576425 -36.78143145 24.53292092 -36.59765625 16.90625 C-35.91628005 11.2508275 -33.74532305 6.27488171 -29.47265625 2.4375 C-20.72177101 -3.39642349 -9.57925476 -5.83261178 0 0 Z M-19.28515625 6.3125 C-22.77898633 11.49921682 -21.83629455 18.36286249 -21.28515625 24.3125 C-19.9354454 28.78050833 -18.24762267 31.67085572 -14.28515625 34.3125 C-11.23245162 34.47061388 -11.23245162 34.47061388 -8.28515625 33.3125 C-4.44193846 28.70063865 -4.8499635 23.1727928 -5 17.4453125 C-5.50000292 11.9521297 -6.77055823 8.71891244 -10.91015625 4.875 C-14.65872246 2.40883802 -15.65371693 3.83249266 -19.28515625 6.3125 Z " fill="#FFFFFF" transform="translate(868.28515625,561.6875)"/>
<path d="M0 0 C5.28826151 3.15733757 8.57087953 7.51995015 10.5 13.375 C11.33724732 20.97837387 11.34584412 28.1547498 6.5 34.375 C2.15658125 38.97573028 -2.07523233 41.94858725 -8.48046875 42.74609375 C-16.2214996 42.90638306 -22.18459019 42.09097641 -28.5 37.375 C-34.19784133 31.36134299 -34.86210705 25.6521341 -34.7734375 17.671875 C-34.17469713 10.45277685 -30.87740517 6.18332003 -25.4765625 1.6015625 C-18.25742998 -2.87829444 -7.7433357 -3.53308093 0 0 Z M-17.8125 7.1875 C-21.13591689 13.46506524 -21.1392359 20.02748096 -19.3125 26.8125 C-18.01201443 30.47485398 -16.97940267 33.34534844 -13.5 35.375 C-9.89418221 35.78849769 -9.89418221 35.78849769 -6.5 34.375 C-2.99982005 29.06827556 -2.78945356 23.59938685 -3.5 17.375 C-4.56846941 12.65774389 -5.62669016 8.51007999 -9.5 5.375 C-13.23290689 4.73961159 -14.8057031 4.83082135 -17.8125 7.1875 Z " fill="#FFFFFF" transform="translate(817.5,560.625)"/>
<path d="M0 0 C5.28826151 3.15733757 8.57087953 7.51995015 10.5 13.375 C11.33724732 20.97837387 11.34584412 28.1547498 6.5 34.375 C2.15658125 38.97573028 -2.07523233 41.94858725 -8.48046875 42.74609375 C-16.2214996 42.90638306 -22.18459019 42.09097641 -28.5 37.375 C-34.19784133 31.36134299 -34.86210705 25.6521341 -34.7734375 17.671875 C-34.17469713 10.45277685 -30.87740517 6.18332003 -25.4765625 1.6015625 C-18.25742998 -2.87829444 -7.7433357 -3.53308093 0 0 Z M-17.8125 7.1875 C-21.13591689 13.46506524 -21.1392359 20.02748096 -19.3125 26.8125 C-18.01201443 30.47485398 -16.97940267 33.34534844 -13.5 35.375 C-9.89418221 35.78849769 -9.89418221 35.78849769 -6.5 34.375 C-2.99982005 29.06827556 -2.78945356 23.59938685 -3.5 17.375 C-4.56846941 12.65774389 -5.62669016 8.51007999 -9.5 5.375 C-13.23290689 4.73961159 -14.8057031 4.83082135 -17.8125 7.1875 Z " fill="#FFFFFF" transform="translate(598.5,560.625)"/>
<path d="M0 0 C12.54 0 25.08 0 38 0 C38 6.85630084 37.31002601 8.95565779 33.5625 14.0625 C32.64844935 15.3662839 31.7357216 16.67099611 30.82421875 17.9765625 C30.35677246 18.63688477 29.88932617 19.29720703 29.40771484 19.97753906 C27.13796795 23.23847963 25.00725758 26.58569668 22.875 29.9375 C22.12247414 31.11333137 21.36987763 32.28911753 20.6171875 33.46484375 C20.08351563 34.30144531 19.54984375 35.13804687 19 36 C22.63 36 26.26 36 30 36 C31.32 33.36 32.64 30.72 34 28 C36.31 28 38.62 28 41 28 C40.34 33.28 39.68 38.56 39 44 C26.46 44 13.92 44 1 44 C1 37.1755942 1.72448851 34.92819535 5.375 29.75390625 C5.8189209 29.09792953 6.2628418 28.44195282 6.72021484 27.76609802 C8.13188233 25.6875634 9.56532694 23.6252036 11 21.5625 C11.96502388 20.15010012 12.92858214 18.73669768 13.890625 17.32226562 C16.24361208 13.86967578 18.61624115 10.43140818 21 7 C16.71 7 12.42 7 8 7 C7.67 9.64 7.34 12.28 7 15 C4.69 15 2.38 15 0 15 C0 10.05 0 5.1 0 0 Z " fill="#FFFFFF" transform="translate(386,559)"/>
<path d="M0 0 C4.7530815 2.47986861 7.52434042 6.28741354 9.484375 11.1875 C9.8788344 14.54040489 9.734375 17.93647135 9.734375 21.3125 C1.154375 21.6425 -7.425625 21.9725 -16.265625 22.3125 C-14.02395493 28.91856161 -14.02395493 28.91856161 -11.078125 31.25 C-7.40726067 32.63677097 -4.10451168 33.02340494 -0.265625 32.3125 C2.03387154 31.18949006 3.7168761 29.92649912 5.734375 28.3125 C7.054375 28.9725 8.374375 29.6325 9.734375 30.3125 C9.65177829 33.12078805 9.17661982 34.83650492 7.25 36.91015625 C0.84570518 42.47970324 -3.43827326 43.77857357 -12 43.625 C-18.01013374 43.04986758 -22.13583383 40.85434735 -26.140625 36.375 C-30.82766013 29.62015525 -31.03552537 23.3623444 -30.265625 15.3125 C-28.37063269 8.29989373 -23.4401683 3.92270694 -17.44140625 0.171875 C-12.22511708 -1.88841875 -5.32205708 -1.61496904 0 0 Z M-13.953125 6.9375 C-16.8820379 9.49389478 -16.8820379 9.49389478 -17.265625 15.3125 C-12.315625 15.3125 -7.365625 15.3125 -2.265625 15.3125 C-2.52305132 8.73539013 -2.52305132 8.73539013 -5.078125 6.375 C-8.58938877 4.66952902 -10.66712804 4.95061812 -13.953125 6.9375 Z " fill="#FFFFFF" transform="translate(244.265625,559.6875)"/>
<path d="M0 0 C1.93746094 -0.00773438 1.93746094 -0.00773438 3.9140625 -0.015625 C7.0633693 0.22608252 8.82493667 0.44736903 11.375 2.25 C12.71443339 6.15668073 12.45527548 10.15595029 12.375 14.25 C10.065 14.25 7.755 14.25 5.375 14.25 C4.385 11.94 3.395 9.63 2.375 7.25 C0.065 7.25 -2.245 7.25 -4.625 7.25 C-4.955 8.9 -5.285 10.55 -5.625 12.25 C-4.50480469 12.86488281 -3.38460937 13.47976563 -2.23046875 14.11328125 C-0.7576648 14.92942102 0.71498334 15.74584201 2.1875 16.5625 C2.92548828 16.96662109 3.66347656 17.37074219 4.42382812 17.78710938 C5.13603516 18.18349609 5.84824219 18.57988281 6.58203125 18.98828125 C7.56393433 19.53029175 7.56393433 19.53029175 8.56567383 20.08325195 C11.74730041 22.134931 13.16467162 23.61901486 14.375 27.25 C14.75761666 31.30573664 14.62071251 33.72786091 12.875 37.4375 C8.66501882 42.17372882 5.16375497 43.97874405 -1.19921875 44.59765625 C-8.35199179 44.76135155 -14.17278806 44.41026707 -20.625 41.25 C-20.625 37.29 -20.625 33.33 -20.625 29.25 C-18.315 29.25 -16.005 29.25 -13.625 29.25 C-12.965 31.56 -12.305 33.87 -11.625 36.25 C-10.18965159 36.4726746 -8.75154475 36.67761906 -7.3125 36.875 C-6.51199219 36.99101563 -5.71148438 37.10703125 -4.88671875 37.2265625 C-2.33776785 37.46533407 -2.33776785 37.46533407 0.375 35.25 C0.13889884 33.30466868 0.13889884 33.30466868 -0.625 31.25 C-2.15835266 30.04313949 -2.15835266 30.04313949 -4.1171875 29.25 C-4.82230469 28.92 -5.52742187 28.59 -6.25390625 28.25 C-6.99511719 27.92 -7.73632812 27.59 -8.5 27.25 C-17.48632917 23.20694153 -17.48632917 23.20694153 -19.625 19.25 C-20.93413023 14.61769305 -20.66490127 11.60797091 -18.625 7.25 C-13.3917826 0.85384539 -8.01219992 -0.03211303 0 0 Z " fill="#FFFFFF" transform="translate(687.625,558.75)"/>
<path d="M0 0 C1.60546875 1.16796875 1.60546875 1.16796875 2.60546875 4.16796875 C2.6728774 5.72915303 2.69061331 7.29299395 2.66796875 8.85546875 C2.65894531 9.66371094 2.64992188 10.47195313 2.640625 11.3046875 C2.62902344 11.91957031 2.61742187 12.53445313 2.60546875 13.16796875 C0.29546875 13.16796875 -2.01453125 13.16796875 -4.39453125 13.16796875 C-5.38453125 10.85796875 -6.37453125 8.54796875 -7.39453125 6.16796875 C-9.70453125 6.16796875 -12.01453125 6.16796875 -14.39453125 6.16796875 C-14.72453125 7.81796875 -15.05453125 9.46796875 -15.39453125 11.16796875 C-14.2859375 11.75964844 -13.17734375 12.35132813 -12.03515625 12.9609375 C-10.57130588 13.75854828 -9.10778122 14.55675704 -7.64453125 15.35546875 C-6.91492188 15.74283203 -6.1853125 16.13019531 -5.43359375 16.52929688 C-1.18500522 18.86602057 2.00428273 20.92850362 4.60546875 25.16796875 C5.38762301 28.26961494 5.23452083 31.03926235 4.60546875 34.16796875 C2.1652318 38.16108376 -0.57042723 41.04418136 -5.04296875 42.69921875 C-13.17379278 44.31998101 -22.14562639 44.48279307 -29.39453125 40.16796875 C-30.39453125 39.16796875 -30.39453125 39.16796875 -30.4921875 36.6640625 C-30.48058594 35.65472656 -30.46898437 34.64539063 -30.45703125 33.60546875 C-30.44800781 32.59355469 -30.43898438 31.58164062 -30.4296875 30.5390625 C-30.41808594 29.75660156 -30.40648437 28.97414063 -30.39453125 28.16796875 C-28.08453125 28.16796875 -25.77453125 28.16796875 -23.39453125 28.16796875 C-21.93390275 30.81535791 -21.39453125 32.06245209 -21.39453125 35.16796875 C-19.76965654 35.33585248 -18.14462683 35.50223662 -16.51953125 35.66796875 C-15.16214844 35.8071875 -15.16214844 35.8071875 -13.77734375 35.94921875 C-11.46139914 36.1984417 -11.46139914 36.1984417 -9.39453125 36.16796875 C-9.39453125 34.51796875 -9.39453125 32.86796875 -9.39453125 31.16796875 C-9.89380127 30.92151611 -10.39307129 30.67506348 -10.9074707 30.42114258 C-13.18142794 29.28852527 -15.44404085 28.13483168 -17.70703125 26.98046875 C-18.49271484 26.59310547 -19.27839844 26.20574219 -20.08789062 25.80664062 C-24.45181195 23.55968539 -27.49267087 21.93389555 -29.39453125 17.16796875 C-30.40250647 12.33808748 -29.90555647 9.00419184 -27.33203125 4.79296875 C-20.14036757 -1.63362432 -9.24195501 -3.21131552 0 0 Z " fill="#FFFFFF" transform="translate(963.39453125,559.83203125)"/>
<path d="M0 0 C2.12890625 0.41015625 2.12890625 0.41015625 4.69140625 1.91015625 C6.72389187 5.44491385 7.05786444 8.43356328 6.12890625 12.41015625 C3.4477724 15.66001547 1.77757207 16.30590639 -2.37109375 16.97265625 C-5.87109375 16.41015625 -5.87109375 16.41015625 -8.80859375 14.28515625 C-10.87109375 11.41015625 -10.87109375 11.41015625 -11.43359375 8.41015625 C-10.12284208 1.41948068 -6.70768968 -0.43097182 0 0 Z " fill="#FFFFFF" transform="translate(1341.87109375,535.58984375)"/>
</svg>
