<svg version="1.1" id="Layer_1" xmlns="http://www.w3.org/2000/svg" xmlns:xlink="http://www.w3.org/1999/xlink" x="0px" y="0px"
	 width="100%" viewBox="0 0 370 125" enable-background="new 0 0 370 125" xml:space="preserve">
<path fill="#000000" opacity="1.000000" stroke="none" 
	d="
M291.000000,126.000000 
	C194.000015,126.000000 97.500023,126.000000 1.000026,126.000000 
	C1.000017,84.333351 1.000017,42.666698 1.000009,1.000037 
	C124.333305,1.000025 247.666611,1.000025 370.999939,1.000012 
	C370.999939,42.666630 370.999939,84.333260 370.999969,125.999947 
	C344.500000,126.000000 318.000000,126.000000 291.000000,126.000000 
M279.527527,88.000000 
	C287.360077,88.000000 295.197540,88.146736 303.021210,87.883438 
	C304.703827,87.826805 307.437164,86.587326 307.766418,85.372360 
	C308.482880,82.728790 308.847870,79.484787 304.326477,78.846649 
	C302.765198,78.626297 300.745209,77.037224 300.109985,75.565948 
	C290.287201,52.815781 280.725067,29.952843 270.836487,7.231797 
	C270.163483,5.685396 266.739441,3.721933 265.678558,4.227341 
	C259.892487,6.983767 253.480881,9.119162 250.952316,16.194859 
	C248.270203,23.700235 245.191940,31.068336 242.147888,38.439068 
	C237.499634,49.694153 232.005417,60.664021 228.257782,72.205490 
	C225.526260,80.617744 217.038208,81.844017 210.397476,78.072800 
	C209.742996,77.701126 209.134567,76.713165 209.054794,75.953484 
	C208.609589,71.713715 208.157349,67.461342 208.032364,63.203735 
	C207.614029,48.955315 207.423920,34.699760 206.937653,20.454063 
	C206.812912,16.800219 207.833679,15.084540 211.705536,14.916640 
	C214.956238,14.775677 217.086365,13.300508 215.225006,9.440229 
	C214.772842,8.502500 214.902512,7.284219 214.788132,6.380507 
	C205.758789,5.910062 197.028351,5.254037 188.290909,5.141037 
	C186.099670,5.112699 182.751740,6.222766 181.882904,7.849683 
	C178.496719,14.190373 175.881149,20.943756 173.001144,27.553312 
	C169.168427,36.349277 165.351242,45.152027 161.538391,53.956631 
	C160.236801,56.962254 158.997757,57.083504 157.522873,54.028145 
	C154.737015,48.257061 151.767288,42.573811 149.031570,36.779655 
	C144.189911,26.525251 139.466141,16.215181 134.637970,5.809736 
	C123.579971,5.809736 112.868591,5.809736 102.257843,5.809736 
	C101.654015,10.987998 101.125710,15.122034 107.648865,15.515414 
	C108.860077,15.588457 110.800018,18.689636 110.832939,20.423088 
	C110.942017,26.166403 110.140663,31.920099 110.043510,37.675804 
	C109.883224,47.172012 109.999992,56.672897 110.000000,66.171814 
	C110.000000,77.246834 110.000008,77.246834 98.934341,81.010872 
	C100.199738,83.426956 101.294991,87.619194 102.605408,87.687569 
	C113.013626,88.230637 123.462730,87.990082 133.875763,87.990082 
	C133.875763,85.084991 133.875763,82.775192 133.875763,80.504036 
	C132.725204,80.067215 131.703079,79.364014 130.664215,79.338371 
	C125.727127,79.216492 124.612228,76.693657 124.885109,72.072121 
	C125.316566,64.765099 125.000000,57.413914 125.000000,50.081421 
	C125.000000,47.399620 125.000000,44.717819 125.000000,42.036018 
	C125.521362,41.931210 126.042732,41.826401 126.564095,41.721588 
	C128.376526,45.333580 130.237015,48.922398 131.992432,52.561897 
	C137.347900,63.665440 142.748169,74.748810 147.951157,85.923759 
	C149.995102,90.313774 153.760239,89.057373 156.942764,88.844185 
	C158.828445,88.717873 161.614731,87.493797 162.283737,85.997643 
	C168.932877,71.128265 175.224487,56.099018 182.342194,39.415508 
	C183.574127,42.049110 184.861816,43.557709 184.903198,45.099747 
	C185.113205,52.926544 184.999985,60.762024 185.000000,68.594460 
	C185.000015,77.759537 185.000015,77.759537 176.244247,80.479034 
	C175.739105,87.993469 175.741409,88.113388 183.074310,87.972610 
	C194.814896,87.747215 206.551392,87.124504 218.290924,87.087975 
	C227.361938,87.059731 236.434692,87.678902 245.507202,87.995239 
	C247.723969,88.072533 249.987152,88.269516 250.021790,84.951340 
	C250.051407,82.113541 250.425781,79.286743 246.308502,78.953987 
	C244.585724,78.814743 242.905884,78.144516 241.262283,77.729782 
	C242.996643,73.158127 244.695572,68.679871 246.470993,64.000000 
	C249.107162,64.000000 251.846313,64.426910 254.403763,63.926037 
	C265.429413,61.766674 272.467499,65.617378 274.950378,76.863678 
	C274.985443,77.022537 274.954773,77.195923 274.954773,77.945892 
	C272.479034,78.737228 269.824646,79.585663 267.211456,80.420929 
	C266.783173,87.999580 266.783173,87.999596 274.039154,87.999992 
	C275.538971,88.000069 277.038818,88.000000 279.527527,88.000000 
M14.001682,12.868369 
	C13.993893,16.534372 14.393748,20.257452 13.890177,23.854040 
	C12.953236,30.545830 15.941594,33.098106 22.587378,31.186979 
	C26.454432,30.074932 26.191410,26.637951 26.880230,24.082899 
	C29.153797,15.649521 30.202173,14.646663 38.951675,14.999312 
	C39.118053,15.006020 39.354340,14.928136 39.441105,15.011457 
	C40.639179,16.162016 42.834782,17.322912 42.847561,18.502281 
	C43.060432,38.148479 42.999317,57.797653 42.999317,77.499512 
	C40.984917,78.030602 39.178265,78.688957 37.314938,78.965500 
	C30.581280,79.964859 30.574085,79.916389 31.475647,87.231232 
	C34.595383,87.482445 37.807072,87.932243 41.022930,87.964340 
	C50.853901,88.062485 60.695660,87.746651 70.514725,88.102394 
	C75.753517,88.292198 78.859642,87.009727 78.632401,80.419189 
	C74.582291,79.479042 70.318169,78.489220 66.000061,77.486870 
	C66.000061,57.925320 66.012405,38.601212 65.984009,19.277166 
	C65.980560,16.931282 66.041916,15.040802 69.257759,14.952597 
	C76.925644,14.742282 79.454185,16.334362 81.859573,23.562067 
	C82.365623,25.082644 82.259003,26.956060 83.128838,28.169182 
	C84.233131,29.709293 86.014999,31.732634 87.559235,31.780283 
	C90.494781,31.870867 93.477623,30.739077 96.404854,29.976780 
	C96.571320,29.933430 96.496315,28.634638 96.394272,27.940645 
	C95.615700,22.645628 94.423264,17.379025 94.096069,12.058292 
	C93.687851,5.419902 93.041283,4.637254 86.395699,4.970400 
	C77.320320,5.425353 68.236580,5.825734 59.152153,5.959765 
	C47.822884,6.126916 36.478321,6.304937 25.161076,5.899751 
	C16.474205,5.588739 16.488466,5.190395 14.001682,12.868369 
z"/>
<path fill="#FFFFFF" opacity="1.000000" stroke="none" 
	d="
M279.033081,88.000000 
	C277.038818,88.000000 275.538971,88.000069 274.039154,87.999992 
	C266.783173,87.999596 266.783173,87.999580 267.211456,80.420929 
	C269.824646,79.585663 272.479034,78.737228 274.954773,77.945892 
	C274.954773,77.195923 274.985443,77.022537 274.950378,76.863678 
	C272.467499,65.617378 265.429413,61.766674 254.403763,63.926037 
	C251.846313,64.426910 249.107162,64.000000 246.470993,64.000000 
	C244.695572,68.679871 242.996643,73.158127 241.262283,77.729782 
	C242.905884,78.144516 244.585724,78.814743 246.308502,78.953987 
	C250.425781,79.286743 250.051407,82.113541 250.021790,84.951340 
	C249.987152,88.269516 247.723969,88.072533 245.507202,87.995239 
	C236.434692,87.678902 227.361938,87.059731 218.290924,87.087975 
	C206.551392,87.124504 194.814896,87.747215 183.074310,87.972610 
	C175.741409,88.113388 175.739105,87.993469 176.244247,80.479034 
	C185.000015,77.759537 185.000015,77.759537 185.000000,68.594460 
	C184.999985,60.762024 185.113205,52.926544 184.903198,45.099747 
	C184.861816,43.557709 183.574127,42.049110 182.342194,39.415508 
	C175.224487,56.099018 168.932877,71.128265 162.283737,85.997643 
	C161.614731,87.493797 158.828445,88.717873 156.942764,88.844185 
	C153.760239,89.057373 149.995102,90.313774 147.951157,85.923759 
	C142.748169,74.748810 137.347900,63.665440 131.992432,52.561897 
	C130.237015,48.922398 128.376526,45.333580 126.564095,41.721588 
	C126.042732,41.826401 125.521362,41.931210 125.000000,42.036018 
	C125.000000,44.717819 125.000000,47.399620 125.000000,50.081421 
	C125.000000,57.413914 125.316566,64.765099 124.885109,72.072121 
	C124.612228,76.693657 125.727127,79.216492 130.664215,79.338371 
	C131.703079,79.364014 132.725204,80.067215 133.875763,80.504036 
	C133.875763,82.775192 133.875763,85.084991 133.875763,87.990082 
	C123.462730,87.990082 113.013626,88.230637 102.605408,87.687569 
	C101.294991,87.619194 100.199738,83.426956 98.934341,81.010872 
	C110.000008,77.246834 110.000000,77.246834 110.000000,66.171814 
	C109.999992,56.672897 109.883224,47.172012 110.043510,37.675804 
	C110.140663,31.920099 110.942017,26.166403 110.832939,20.423088 
	C110.800018,18.689636 108.860077,15.588457 107.648865,15.515414 
	C101.125710,15.122034 101.654015,10.987998 102.257843,5.809736 
	C112.868591,5.809736 123.579971,5.809736 134.637970,5.809736 
	C139.466141,16.215181 144.189911,26.525251 149.031570,36.779655 
	C151.767288,42.573811 154.737015,48.257061 157.522873,54.028145 
	C158.997757,57.083504 160.236801,56.962254 161.538391,53.956631 
	C165.351242,45.152027 169.168427,36.349277 173.001144,27.553312 
	C175.881149,20.943756 178.496719,14.190373 181.882904,7.849683 
	C182.751740,6.222766 186.099670,5.112699 188.290909,5.141037 
	C197.028351,5.254037 205.758789,5.910062 214.788132,6.380507 
	C214.902512,7.284219 214.772842,8.502500 215.225006,9.440229 
	C217.086365,13.300508 214.956238,14.775677 211.705536,14.916640 
	C207.833679,15.084540 206.812912,16.800219 206.937653,20.454063 
	C207.423920,34.699760 207.614029,48.955315 208.032364,63.203735 
	C208.157349,67.461342 208.609589,71.713715 209.054794,75.953484 
	C209.134567,76.713165 209.742996,77.701126 210.397476,78.072800 
	C217.038208,81.844017 225.526260,80.617744 228.257782,72.205490 
	C232.005417,60.664021 237.499634,49.694153 242.147888,38.439068 
	C245.191940,31.068336 248.270203,23.700235 250.952316,16.194859 
	C253.480881,9.119162 259.892487,6.983767 265.678558,4.227341 
	C266.739441,3.721933 270.163483,5.685396 270.836487,7.231797 
	C280.725067,29.952843 290.287201,52.815781 300.109985,75.565948 
	C300.745209,77.037224 302.765198,78.626297 304.326477,78.846649 
	C308.847870,79.484787 308.482880,82.728790 307.766418,85.372360 
	C307.437164,86.587326 304.703827,87.826805 303.021210,87.883438 
	C295.197540,88.146736 287.360077,88.000000 279.033081,88.000000 
M256.039795,36.688095 
	C253.952087,42.304012 251.864380,47.919930 249.661636,53.845276 
	C255.171539,53.845276 259.966125,53.845276 265.255951,53.845276 
	C262.958679,48.074398 260.822021,42.587650 258.541931,37.161182 
	C258.309509,36.608044 257.215302,36.417011 256.039795,36.688095 
z"/>
<path fill="#FFFFFF" opacity="1.000000" stroke="none" 
	d="
M14.013657,12.408642 
	C16.488466,5.190395 16.474205,5.588739 25.161076,5.899751 
	C36.478321,6.304937 47.822884,6.126916 59.152153,5.959765 
	C68.236580,5.825734 77.320320,5.425353 86.395699,4.970400 
	C93.041283,4.637254 93.687851,5.419902 94.096069,12.058292 
	C94.423264,17.379025 95.615700,22.645628 96.394272,27.940645 
	C96.496315,28.634638 96.571320,29.933430 96.404854,29.976780 
	C93.477623,30.739077 90.494781,31.870867 87.559235,31.780283 
	C86.014999,31.732634 84.233131,29.709293 83.128838,28.169182 
	C82.259003,26.956060 82.365623,25.082644 81.859573,23.562067 
	C79.454185,16.334362 76.925644,14.742282 69.257759,14.952597 
	C66.041916,15.040802 65.980560,16.931282 65.984009,19.277166 
	C66.012405,38.601212 66.000061,57.925320 66.000061,77.486870 
	C70.318169,78.489220 74.582291,79.479042 78.632401,80.419189 
	C78.859642,87.009727 75.753517,88.292198 70.514725,88.102394 
	C60.695660,87.746651 50.853901,88.062485 41.022930,87.964340 
	C37.807072,87.932243 34.595383,87.482445 31.475647,87.231232 
	C30.574085,79.916389 30.581280,79.964859 37.314938,78.965500 
	C39.178265,78.688957 40.984917,78.030602 42.999317,77.499512 
	C42.999317,57.797653 43.060432,38.148479 42.847561,18.502281 
	C42.834782,17.322912 40.639179,16.162016 39.441105,15.011457 
	C39.354340,14.928136 39.118053,15.006020 38.951675,14.999312 
	C30.202173,14.646663 29.153797,15.649521 26.880230,24.082899 
	C26.191410,26.637951 26.454432,30.074932 22.587378,31.186979 
	C15.941594,33.098106 12.953236,30.545830 13.890177,23.854040 
	C14.393748,20.257452 13.993893,16.534372 14.013657,12.408642 
z"/>
<path fill="#000000" opacity="1.000000" stroke="none" 
	d="
M256.280396,36.373024 
	C257.215302,36.417011 258.309509,36.608044 258.541931,37.161182 
	C260.822021,42.587650 262.958679,48.074398 265.255951,53.845276 
	C259.966125,53.845276 255.171539,53.845276 249.661636,53.845276 
	C251.864380,47.919930 253.952087,42.304012 256.280396,36.373024 
z"/>
</svg>